<svg width="640" height="620" xmlns="http://www.w3.org/2000/svg" xmlns:xlink="http://www.w3.org/1999/xlink"><path fill="#fff" d="M0 0h640v620H0z"/><defs><path id="d" stroke-width=".222" stroke="currentColor" d="M-1-1h2v2h-2z"/><path id="b" stroke-width=".222" stroke="currentColor" d="M0-1.33l-1.33 2h2.66z"/><path id="f" stroke-width=".222" stroke="currentColor" d="M0 1.33L1.265.411.782-1.067l-1.564-.009-.483 1.487z"/><use xlink:href="#b" id="c" stroke="currentColor" transform="rotate(180)"/><use xlink:href="#d" id="e" stroke="currentColor" transform="rotate(45)"/><circle id="a" stroke-width=".222" stroke="currentColor" cx="0" cy="0" r="1"/></defs><g fill="none" color="#000" stroke="currentColor"><path stroke="#000" d="M53.9 264h9m552.1 0h-9"/><text transform="translate(45.6 267.9)" stroke="none" fill="#000" font-family="Arial" font-size="12" text-anchor="end"><tspan>50</tspan></text></g><g fill="none" color="#000" stroke="currentColor"><path stroke="#000" d="M53.9 224.8h9m552.1 0h-9"/><text transform="translate(45.6 228.7)" stroke="none" fill="#000" font-family="Arial" font-size="12" text-anchor="end"><tspan>100</tspan></text></g><g fill="none" color="#000" stroke="currentColor"><path stroke="#000" d="M53.9 185.7h9m552.1 0h-9"/><text transform="translate(45.6 189.6)" stroke="none" fill="#000" font-family="Arial" font-size="12" text-anchor="end"><tspan>150</tspan></text></g><g fill="none" color="#000" stroke="currentColor"><path stroke="#000" d="M53.9 146.5h9m552.1 0h-9"/><text transform="translate(45.6 150.4)" stroke="none" fill="#000" font-family="Arial" font-size="12" text-anchor="end"><tspan>200</tspan></text></g><g fill="none" color="#000" stroke="currentColor"><path stroke="#000" d="M53.9 107.3h9m552.1 0h-9"/><text transform="translate(45.6 111.2)" stroke="none" fill="#000" font-family="Arial" font-size="12" text-anchor="end"><tspan>250</tspan></text></g><g fill="none" color="#000" stroke="currentColor"><path stroke="#000" d="M53.9 68.1h9m552.1 0h-9"/><text transform="translate(45.6 72)" stroke="none" fill="#000" font-family="Arial" font-size="12" text-anchor="end"><tspan>300</tspan></text></g><g fill="none" color="#000" stroke="currentColor"><path stroke="#000" d="M53.9 28.9h9m552.1 0h-9"/><text transform="translate(45.6 32.8)" stroke="none" fill="#000" font-family="Arial" font-size="12" text-anchor="end"><tspan>350</tspan></text></g><g fill="none" color="#000" stroke="currentColor"><path stroke="#000" d="M53.9 296v-9m0-268.9v9"/><text transform="translate(53.9 317.9)" stroke="none" fill="#000" font-family="Arial" font-size="12" text-anchor="middle"><tspan>0</tspan></text></g><g fill="none" color="#000" stroke="currentColor"><path stroke="#000" d="M110.6 296v-9m0-268.9v9"/><text transform="translate(110.6 317.9)" stroke="none" fill="#000" font-family="Arial" font-size="12" text-anchor="middle"><tspan>10</tspan></text></g><g fill="none" color="#000" stroke="currentColor"><path stroke="#000" d="M167.3 296v-9m0-268.9v9"/><text transform="translate(167.3 317.9)" stroke="none" fill="#000" font-family="Arial" font-size="12" text-anchor="middle"><tspan>20</tspan></text></g><g fill="none" color="#000" stroke="currentColor"><path stroke="#000" d="M223.9 296v-9m0-268.9v9"/><text transform="translate(223.9 317.9)" stroke="none" fill="#000" font-family="Arial" font-size="12" text-anchor="middle"><tspan>30</tspan></text></g><g fill="none" color="#000" stroke="currentColor"><path stroke="#000" d="M280.6 296v-9m0-268.9v9"/><text transform="translate(280.6 317.9)" stroke="none" fill="#000" font-family="Arial" font-size="12" text-anchor="middle"><tspan>40</tspan></text></g><g fill="none" color="#000" stroke="currentColor"><path stroke="#000" d="M337.3 296v-9m0-268.9v9"/><text transform="translate(337.3 317.9)" stroke="none" fill="#000" font-family="Arial" font-size="12" text-anchor="middle"><tspan>50</tspan></text></g><g fill="none" color="#000" stroke="currentColor"><path stroke="#000" d="M394 296v-9m0-268.9v9"/><text transform="translate(394 317.9)" stroke="none" fill="#000" font-family="Arial" font-size="12" text-anchor="middle"><tspan>60</tspan></text></g><g fill="none" color="#000" stroke="currentColor"><path stroke="#000" d="M450.6 296v-9m0-268.9v9"/><text transform="translate(450.6 317.9)" stroke="none" fill="#000" font-family="Arial" font-size="12" text-anchor="middle"><tspan>70</tspan></text></g><g fill="none" color="#000" stroke="currentColor"><path stroke="#000" d="M507.3 296v-9m0-268.9v9"/><text transform="translate(507.3 317.9)" stroke="none" fill="#000" font-family="Arial" font-size="12" text-anchor="middle"><tspan>80</tspan></text></g><g fill="none" color="#000" stroke="currentColor"><path stroke="#000" d="M564 296v-9m0-268.9v9"/><text transform="translate(564 317.9)" stroke="none" fill="#000" font-family="Arial" font-size="12" text-anchor="middle"><tspan>90</tspan></text></g><path stroke="#000" d="M53.9 18.1V296H615V18.1H53.9z" fill="none" color="#000"/><text transform="translate(529.1 335.9)" stroke="none" fill="#000" font-family="Arial" font-size="12" text-anchor="end" color="#000"><tspan>empty</tspan></text><path stroke="#9400D3" d="M537.4 332h42.2M53.9 290.7H615" fill="none" color="#000"/><text transform="translate(529.1 353.9)" stroke="none" fill="#000" font-family="Arial" font-size="12" text-anchor="end" color="#000"><tspan>pages</tspan></text><path stroke="#009E73" d="M537.4 350h42.2M53.9 90.1l5.7-1.6 5.6-3.2h5.7l5.7-.7h11.3l5.7-.8 5.6-.8h39.7l5.7-.8h11.3l5.7-.8h39.7l5.6-.8h17l5.7-.7h22.7l5.6-.8h11.4l5.6-.8h22.7l5.7-.8h17l5.6-.8H360l5.6-.8H411l5.6-.7h17l5.7-.8h17l5.7-.8h17l5.6-.8H496l5.6-.8h22.7l5.7-.8h5.7l5.6-.7h11.4l5.6-.8 5.7-.8h5.7l5.6-2.4h11.4l5.6-.7h5.7l5.7-4 5.6-7 5.7-31.4" fill="none" color="#000"/><text transform="translate(529.1 371.9)" stroke="none" fill="#000" font-family="Arial" font-size="12" text-anchor="end" color="#000"><tspan>pages+cached</tspan></text><path stroke="#56B4E9" d="M537.4 368h42.2M53.9 93.2h5.7l5.6-1.6h28.4l5.6-.8h28.4l5.6-.7H201.3l5.6-.8h17l5.7-.8h22.7l5.6-.8h11.4l5.6-.8h28.4l5.6-.8h5.7l5.7-1.5 5.6-.8 5.7-1.6h5.7l5.7-3.1 5.6-.8 5.7-1.6 5.7-2.3h5.6l5.7-.8h5.7l5.6-.8h5.7l5.7-.8h17l5.6-.8h22.7l5.7-.7h28.3l5.7-.8H524.3l5.7-.8h11.3l5.7-.8 5.7-.8h5.6l5.7-.8 5.7-.7 5.6-.8 5.7-2.4h5.7l5.6-7.8 5.7-3.9 5.7-3.2 5.6-6.2 5.7-13.4" fill="none" color="#000"/><text transform="translate(529.1 389.9)" stroke="none" fill="#000" font-family="Arial" font-size="12" text-anchor="end" color="#000"><tspan>pages+cached+nointeractive</tspan></text><path stroke="#E69F00" d="M537.4 386h42.2M53.9 94l5.7-.8h5.6l5.7-.8h22.7l5.6-.8h34l5.7-.8H189.9l5.7-.7H274.9l5.7-.8H331.6l5.7-.8h34l5.7-.8h22.6l5.7-.8 5.7-.8h5.6l5.7-.8 5.7-1.5 5.6-.8 5.7-.8 5.7-.8 5.6-.8 5.7-.7 5.7-4 5.6-1.5H479l5.6-.8 5.7-.8h11.3l5.7-.8h17l5.7-.8h17l5.7-.7h17l5.6-.8 5.7-1.6 5.7-1.6h5.6L598 65l5.7-3.2 5.6-7.8 5.7-9.4" fill="none" color="#000"/><text transform="translate(529.1 407.9)" stroke="none" fill="#000" font-family="Arial" font-size="12" text-anchor="end" color="#000"><tspan>pages+cached+noadtech</tspan></text><path stroke="#F0E442" d="M537.4 404h42.2M53.9 283.6H144.6l5.7-.8H325.9l5.7-.8H416.6l5.7-.7h5.7l5.6-1.6H462l5.6-.8H524.3l5.7-.8h5.7l5.6-.8H603.7l5.6-.7 5.7-.8" fill="none" color="#000"/><text transform="translate(529.1 425.9)" stroke="none" fill="#000" font-family="Arial" font-size="12" text-anchor="end" color="#000"><tspan>pages+cached+noexternal</tspan></text><path stroke="#0072B2" d="M537.4 422h42.2M53.9 282.8h34l5.7-.8H331.6l5.7-.7H490.3l5.7-.8h17l5.6-.8H530l5.7-.8 5.6-.8H564l5.7-1.5H581l5.7-.8h17l5.6-.8h5.7" fill="none" color="#000"/><text transform="translate(529.1 443.9)" stroke="none" fill="#000" font-family="Arial" font-size="12" text-anchor="end" color="#000"><tspan>pages+cached+noexternal+nofonts</tspan></text><path stroke="#E51E10" d="M537.4 440h42.2M53.9 282.8h22.7l5.6-.8H291.9l5.7-.7H377l5.6-.8 5.7-1.6H428l5.6-.8 5.7-1.5H513l5.6-.8H598l5.7-.8h5.6l5.7-.8" fill="none" color="#000"/><g><text transform="translate(529.1 461.9)" stroke="none" fill="#000" font-family="Arial" font-size="12" text-anchor="end" color="#000"><tspan>pages+cached+noexternal+nosvg</tspan></text><path stroke="#000" d="M537.4 458h42.2M53.9 282.8H104.9l5.7-.8H377l5.6-.7H507.3l5.7-.8h22.7l5.6-1.6 5.7-.8H603.7l5.6-.8 5.7-30.9" fill="none" color="#000"/></g><g><text transform="translate(529.1 479.9)" stroke="none" fill="#000" font-family="Arial" font-size="12" text-anchor="end" color="#000"><tspan>pages+cached+noexternal+noimg</tspan></text><path stroke="#9400D3" d="M537.4 476h42.2M53.9 283.6l5.7-.8H150.3l5.6-.8H394l5.6-.7H484.6l5.7-1.6 5.7-.8h22.6l5.7-.8 5.7-.8h11.3l5.7-.7h39.7l5.6-.8h17l5.7-2.4" fill="none" color="#000"/></g><g><text transform="translate(529.1 497.9)" stroke="none" fill="#000" font-family="Arial" font-size="12" text-anchor="end" color="#000"><tspan>pages+cached+noexternal+nocss</tspan></text><path stroke="#009E73" d="M537.4 494h42.2M53.9 290.7H615" fill="none" color="#000"/></g><g><text transform="translate(529.1 515.9)" stroke="none" fill="#000" font-family="Arial" font-size="12" text-anchor="end" color="#000"><tspan>pages+cached+noexternal+nojs</tspan></text><path stroke="#56B4E9" d="M537.4 512h42.2M53.9 290.7H615" fill="none" color="#000"/></g><g><text transform="translate(529.1 533.9)" stroke="none" fill="#000" font-family="Arial" font-size="12" text-anchor="end" color="#000"><tspan>pages+cached+noexternal+nofonts+nosvg+noimg</tspan></text><path stroke="#E69F00" d="M537.4 530h42.2M53.9 286.7l5.7-.4h28.3l5.7-1.1 5.6-.4h22.7l5.7-.4 5.6-1.6 5.7-.8h130.4l5.6-.7H496l5.6-.8H558.3l5.7-.8 5.7-1.6h22.6l5.7-.8 5.7-3.1 5.6-3.1 5.7-.8" fill="none" color="#000"/></g><g><text transform="translate(529.1 551.9)" stroke="none" fill="#000" font-family="Arial" font-size="12" text-anchor="end" color="#000"><tspan>pages+cached+noexternal+nofonts+nosvg+noimg+nocss</tspan></text><path stroke="#F0E442" d="M537.4 548h42.2M53.9 290.7H609.3l5.7-10.2" fill="none" color="#000"/></g><g><text transform="translate(529.1 569.9)" stroke="none" fill="#000" font-family="Arial" font-size="12" text-anchor="end" color="#000"><tspan>pages+cached+noexternal+nofonts+nosvg+noimg+nocss+nojs</tspan></text><path stroke="#0072B2" d="M537.4 566h42.2M53.9 290.7H615" fill="none" color="#000"/></g><g><text transform="translate(529.1 587.9)" stroke="none" fill="#000" font-family="Arial" font-size="12" text-anchor="end" color="#000"><tspan>score p10=130</tspan></text><path stroke="#E51E10" d="M537.4 584h42.2M53.9 201.3H615" fill="none" color="#000"/></g><g><text transform="translate(529.1 605.9)" stroke="none" fill="#000" font-family="Arial" font-size="12" text-anchor="end" color="#000"><tspan>score median=250</tspan></text><path stroke="#000" d="M537.4 602h42.2M53.9 107.3H615" fill="none" color="#000"/></g><g fill="none" color="#000" stroke="currentColor"><path stroke="#000" d="M53.9 18.1V296H615V18.1H53.9z"/></g></svg>