<svg width="640" height="520" xmlns="http://www.w3.org/2000/svg" xmlns:xlink="http://www.w3.org/1999/xlink"><path fill="#fff" d="M0 0h640v520H0z"/><defs><path id="g" stroke-width=".222" stroke="currentColor" d="M-1 0h2M0-1v2"/><path id="h" stroke-width=".222" stroke="currentColor" d="M-1-1l2 2m0-2l-2 2"/><path id="i" stroke-width=".222" stroke="currentColor" d="M-1 0h2M0-1v2m-1-2l2 2m-2 0l2-2"/><path id="d" stroke-width=".222" stroke="currentColor" d="M-1-1h2v2h-2z"/><path id="b" stroke-width=".222" stroke="currentColor" d="M0-1.33l-1.33 2h2.66z"/><path id="f" stroke-width=".222" stroke="currentColor" d="M0 1.33L1.265.411.782-1.067l-1.564-.009-.483 1.487z"/><use xlink:href="#b" id="c" stroke="currentColor" transform="rotate(180)"/><use xlink:href="#d" id="e" stroke="currentColor" transform="rotate(45)"/><circle id="a" stroke-width=".222" stroke="currentColor" cx="0" cy="0" r="1"/></defs><g fill="none" color="#000" stroke="currentColor"><path stroke="#000" d="M70.5 437.7h9m535.5 0h-9"/><text transform="translate(62.2 441.6)" stroke="none" fill="#000" font-family="Arial" font-size="12" text-anchor="end"><tspan>0.986</tspan></text></g><g fill="none" color="#000" stroke="currentColor"><path stroke="#000" d="M70.5 381.8h9m535.5 0h-9"/><text transform="translate(62.2 385.7)" stroke="none" fill="#000" font-family="Arial" font-size="12" text-anchor="end"><tspan>0.988</tspan></text></g><g fill="none" color="#000" stroke="currentColor"><path stroke="#000" d="M70.5 325.8h9m535.5 0h-9"/><text transform="translate(62.2 329.7)" stroke="none" fill="#000" font-family="Arial" font-size="12" text-anchor="end"><tspan>0.99</tspan></text></g><g fill="none" color="#000" stroke="currentColor"><path stroke="#000" d="M70.5 269.9h9m535.5 0h-9"/><text transform="translate(62.2 273.8)" stroke="none" fill="#000" font-family="Arial" font-size="12" text-anchor="end"><tspan>0.992</tspan></text></g><g fill="none" color="#000" stroke="currentColor"><path stroke="#000" d="M70.5 213.9h9m535.5 0h-9"/><text transform="translate(62.2 217.8)" stroke="none" fill="#000" font-family="Arial" font-size="12" text-anchor="end"><tspan>0.994</tspan></text></g><g fill="none" color="#000" stroke="currentColor"><path stroke="#000" d="M70.5 158h9m535.5 0h-9"/><text transform="translate(62.2 161.9)" stroke="none" fill="#000" font-family="Arial" font-size="12" text-anchor="end"><tspan>0.996</tspan></text></g><g fill="none" color="#000" stroke="currentColor"><path stroke="#000" d="M70.5 102h9m535.5 0h-9"/><text transform="translate(62.2 105.9)" stroke="none" fill="#000" font-family="Arial" font-size="12" text-anchor="end"><tspan>0.998</tspan></text></g><g fill="none" color="#000" stroke="currentColor"><path stroke="#000" d="M70.5 46.1h9m535.5 0h-9"/><text transform="translate(62.2 50)" stroke="none" fill="#000" font-family="Arial" font-size="12" text-anchor="end"><tspan>1</tspan></text></g><g fill="none" color="#000" stroke="currentColor"><path stroke="#000" d="M70.5 448v-9m0-420.9v9"/><text transform="translate(70.5 469.9)" stroke="none" fill="#000" font-family="Arial" font-size="12" text-anchor="middle"><tspan>0</tspan></text></g><g fill="none" color="#000" stroke="currentColor"><path stroke="#000" d="M154.3 448v-9m0-420.9v9"/><text transform="translate(154.3 469.9)" stroke="none" fill="#000" font-family="Arial" font-size="12" text-anchor="middle"><tspan>2</tspan></text></g><g fill="none" color="#000" stroke="currentColor"><path stroke="#000" d="M238 448v-9m0-420.9v9"/><text transform="translate(238 469.9)" stroke="none" fill="#000" font-family="Arial" font-size="12" text-anchor="middle"><tspan>4</tspan></text></g><g fill="none" color="#000" stroke="currentColor"><path stroke="#000" d="M321.8 448v-9m0-420.9v9"/><text transform="translate(321.8 469.9)" stroke="none" fill="#000" font-family="Arial" font-size="12" text-anchor="middle"><tspan>6</tspan></text></g><g fill="none" color="#000" stroke="currentColor"><path stroke="#000" d="M405.6 448v-9m0-420.9v9"/><text transform="translate(405.6 469.9)" stroke="none" fill="#000" font-family="Arial" font-size="12" text-anchor="middle"><tspan>8</tspan></text></g><g fill="none" color="#000" stroke="currentColor"><path stroke="#000" d="M489.3 448v-9m0-420.9v9"/><text transform="translate(489.3 469.9)" stroke="none" fill="#000" font-family="Arial" font-size="12" text-anchor="middle"><tspan>10</tspan></text></g><g fill="none" color="#000" stroke="currentColor"><path stroke="#000" d="M573.1 448v-9m0-420.9v9"/><text transform="translate(573.1 469.9)" stroke="none" fill="#000" font-family="Arial" font-size="12" text-anchor="middle"><tspan>12</tspan></text></g><path stroke="#000" d="M70.5 18.1V448H615V18.1H70.5z" fill="none" color="#000"/><text transform="translate(283.9 487.9)" stroke="none" fill="#000" font-family="Arial" font-size="12" text-anchor="end" color="#000"><tspan>score:p90min</tspan></text><g fill="none" color="#000" stroke="currentColor"><path stroke="#9400D3" d="M292.2 484h42.2M70.5 46.1L112.4 420l41.9-54.2 41.9-21.3L238 46.1H615"/><use xlink:href="#g" transform="matrix(4.5 0 0 4.5 70.5 46.1)" color="#9400D3"/><use xlink:href="#g" transform="matrix(4.5 0 0 4.5 112.4 420)" color="#9400D3"/><use xlink:href="#g" transform="matrix(4.5 0 0 4.5 154.3 365.8)" color="#9400D3"/><use xlink:href="#g" transform="matrix(4.5 0 0 4.5 196.2 344.5)" color="#9400D3"/><use xlink:href="#g" transform="matrix(4.5 0 0 4.5 238 46.1)" color="#9400D3"/><use xlink:href="#g" transform="matrix(4.5 0 0 4.5 279.9 46.1)" color="#9400D3"/><use xlink:href="#g" transform="matrix(4.5 0 0 4.5 321.8 46.1)" color="#9400D3"/><use xlink:href="#g" transform="matrix(4.5 0 0 4.5 363.7 46.1)" color="#9400D3"/><use xlink:href="#g" transform="matrix(4.5 0 0 4.5 405.6 46.1)" color="#9400D3"/><use xlink:href="#g" transform="matrix(4.5 0 0 4.5 447.5 46.1)" color="#9400D3"/><use xlink:href="#g" transform="matrix(4.5 0 0 4.5 489.3 46.1)" color="#9400D3"/><use xlink:href="#g" transform="matrix(4.5 0 0 4.5 531.2 46.1)" color="#9400D3"/><use xlink:href="#g" transform="matrix(4.5 0 0 4.5 573.1 46.1)" color="#9400D3"/><use xlink:href="#g" transform="matrix(4.5 0 0 4.5 615 46.1)" color="#9400D3"/><use xlink:href="#g" transform="matrix(4.5 0 0 4.5 313.3 484)" color="#9400D3"/></g><text transform="translate(283.9 505.9)" stroke="none" fill="#000" font-family="Arial" font-size="12" text-anchor="end" color="#000"><tspan>score:p90mean</tspan></text><g fill="none" color="#000" stroke="currentColor"><path stroke="#009E73" d="M292.2 502h42.2M70.5 46.1l41.9 323.2 41.9-48.7 41.9-13.3L238 46.1H615"/><use xlink:href="#h" transform="matrix(4.5 0 0 4.5 70.5 46.1)" color="#009E73"/><use xlink:href="#h" transform="matrix(4.5 0 0 4.5 112.4 369.3)" color="#009E73"/><use xlink:href="#h" transform="matrix(4.5 0 0 4.5 154.3 320.6)" color="#009E73"/><use xlink:href="#h" transform="matrix(4.5 0 0 4.5 196.2 307.3)" color="#009E73"/><use xlink:href="#h" transform="matrix(4.5 0 0 4.5 238 46.1)" color="#009E73"/><use xlink:href="#h" transform="matrix(4.5 0 0 4.5 279.9 46.1)" color="#009E73"/><use xlink:href="#h" transform="matrix(4.5 0 0 4.5 321.8 46.1)" color="#009E73"/><use xlink:href="#h" transform="matrix(4.5 0 0 4.5 363.7 46.1)" color="#009E73"/><use xlink:href="#h" transform="matrix(4.5 0 0 4.5 405.6 46.1)" color="#009E73"/><use xlink:href="#h" transform="matrix(4.5 0 0 4.5 447.5 46.1)" color="#009E73"/><use xlink:href="#h" transform="matrix(4.5 0 0 4.5 489.3 46.1)" color="#009E73"/><use xlink:href="#h" transform="matrix(4.5 0 0 4.5 531.2 46.1)" color="#009E73"/><use xlink:href="#h" transform="matrix(4.5 0 0 4.5 573.1 46.1)" color="#009E73"/><use xlink:href="#h" transform="matrix(4.5 0 0 4.5 615 46.1)" color="#009E73"/><use xlink:href="#h" transform="matrix(4.5 0 0 4.5 313.3 502)" color="#009E73"/></g><text transform="translate(467.2 487.9)" stroke="none" fill="#000" font-family="Arial" font-size="12" text-anchor="end" color="#000"><tspan>score:p90median</tspan></text><g fill="none" color="#000" stroke="currentColor"><path stroke="#56B4E9" d="M475.5 484h42.2M70.5 46.1l41.9 320.4 41.9-51.4 41.9-15 41.8-254H615"/><use xlink:href="#i" transform="matrix(4.5 0 0 4.5 70.5 46.1)" color="#56B4E9"/><use xlink:href="#i" transform="matrix(4.5 0 0 4.5 112.4 366.5)" color="#56B4E9"/><use xlink:href="#i" transform="matrix(4.5 0 0 4.5 154.3 315.1)" color="#56B4E9"/><use xlink:href="#i" transform="matrix(4.5 0 0 4.5 196.2 300.1)" color="#56B4E9"/><use xlink:href="#i" transform="matrix(4.5 0 0 4.5 238 46.1)" color="#56B4E9"/><use xlink:href="#i" transform="matrix(4.5 0 0 4.5 279.9 46.1)" color="#56B4E9"/><use xlink:href="#i" transform="matrix(4.5 0 0 4.5 321.8 46.1)" color="#56B4E9"/><use xlink:href="#i" transform="matrix(4.5 0 0 4.5 363.7 46.1)" color="#56B4E9"/><use xlink:href="#i" transform="matrix(4.5 0 0 4.5 405.6 46.1)" color="#56B4E9"/><use xlink:href="#i" transform="matrix(4.5 0 0 4.5 447.5 46.1)" color="#56B4E9"/><use xlink:href="#i" transform="matrix(4.5 0 0 4.5 489.3 46.1)" color="#56B4E9"/><use xlink:href="#i" transform="matrix(4.5 0 0 4.5 531.2 46.1)" color="#56B4E9"/><use xlink:href="#i" transform="matrix(4.5 0 0 4.5 573.1 46.1)" color="#56B4E9"/><use xlink:href="#i" transform="matrix(4.5 0 0 4.5 615 46.1)" color="#56B4E9"/><use xlink:href="#i" transform="matrix(4.5 0 0 4.5 496.6 484)" color="#56B4E9"/></g><g><text transform="translate(467.2 505.9)" stroke="none" fill="#000" font-family="Arial" font-size="12" text-anchor="end" color="#000"><tspan>score:p90max</tspan></text><g fill="none" color="#000" stroke="currentColor"><path stroke="#E69F00" d="M475.5 502h42.2M70.5 46.1l41.9 278.2 41.9-36.7 41.9-4.4L238 46.1H615"/><use xlink:href="#d" transform="matrix(4.5 0 0 4.5 70.5 46.1)" color="#E69F00"/><use xlink:href="#d" transform="matrix(4.5 0 0 4.5 112.4 324.3)" color="#E69F00"/><use xlink:href="#d" transform="matrix(4.5 0 0 4.5 154.3 287.6)" color="#E69F00"/><use xlink:href="#d" transform="matrix(4.5 0 0 4.5 196.2 283.2)" color="#E69F00"/><use xlink:href="#d" transform="matrix(4.5 0 0 4.5 238 46.1)" color="#E69F00"/><use xlink:href="#d" transform="matrix(4.5 0 0 4.5 279.9 46.1)" color="#E69F00"/><use xlink:href="#d" transform="matrix(4.5 0 0 4.5 321.8 46.1)" color="#E69F00"/><use xlink:href="#d" transform="matrix(4.5 0 0 4.5 363.7 46.1)" color="#E69F00"/><use xlink:href="#d" transform="matrix(4.5 0 0 4.5 405.6 46.1)" color="#E69F00"/><use xlink:href="#d" transform="matrix(4.5 0 0 4.5 447.5 46.1)" color="#E69F00"/><use xlink:href="#d" transform="matrix(4.5 0 0 4.5 489.3 46.1)" color="#E69F00"/><use xlink:href="#d" transform="matrix(4.5 0 0 4.5 531.2 46.1)" color="#E69F00"/><use xlink:href="#d" transform="matrix(4.5 0 0 4.5 573.1 46.1)" color="#E69F00"/><use xlink:href="#d" transform="matrix(4.5 0 0 4.5 615 46.1)" color="#E69F00"/><use xlink:href="#d" transform="matrix(4.5 0 0 4.5 496.6 502)" color="#E69F00"/></g></g><g fill="none" color="#000" stroke="currentColor"><path stroke="#000" d="M70.5 18.1V448H615V18.1H70.5z"/></g></svg>