<svg width="640" height="490" xmlns="http://www.w3.org/2000/svg" xmlns:xlink="http://www.w3.org/1999/xlink"><path fill="#fff" d="M0 0h640v490H0z"/><defs><path id="d" stroke-width=".222" stroke="currentColor" d="M-1-1h2v2h-2z"/><path id="b" stroke-width=".222" stroke="currentColor" d="M0-1.33l-1.33 2h2.66z"/><path id="f" stroke-width=".222" stroke="currentColor" d="M0 1.33L1.265.411.782-1.067l-1.564-.009-.483 1.487z"/><use xlink:href="#b" id="c" stroke="currentColor" transform="rotate(180)"/><use xlink:href="#d" id="e" stroke="currentColor" transform="rotate(45)"/><circle id="a" stroke-width=".222" stroke="currentColor" cx="0" cy="0" r="1"/></defs><g fill="none" color="#000" stroke="currentColor"><path stroke="#000" d="M62.2 433.1h9m543.8 0h-9"/><text transform="translate(53.9 437)" stroke="none" fill="#000" font-family="Arial" font-size="12" text-anchor="end"><tspan>0.65</tspan></text></g><g fill="none" color="#000" stroke="currentColor"><path stroke="#000" d="M62.2 339.9h9m543.8 0h-9"/><text transform="translate(53.9 343.8)" stroke="none" fill="#000" font-family="Arial" font-size="12" text-anchor="end"><tspan>0.7</tspan></text></g><g fill="none" color="#000" stroke="currentColor"><path stroke="#000" d="M62.2 246.7h9m543.8 0h-9"/><text transform="translate(53.9 250.6)" stroke="none" fill="#000" font-family="Arial" font-size="12" text-anchor="end"><tspan>0.75</tspan></text></g><g fill="none" color="#000" stroke="currentColor"><path stroke="#000" d="M62.2 153.5h9m543.8 0h-9"/><text transform="translate(53.9 157.4)" stroke="none" fill="#000" font-family="Arial" font-size="12" text-anchor="end"><tspan>0.8</tspan></text></g><g fill="none" color="#000" stroke="currentColor"><path stroke="#000" d="M62.2 60.3h9m543.8 0h-9"/><text transform="translate(53.9 64.2)" stroke="none" fill="#000" font-family="Arial" font-size="12" text-anchor="end"><tspan>0.85</tspan></text></g><g fill="none" color="#000" stroke="currentColor"><path stroke="#000" d="M62.2 436v-9m0-408.9v9"/><text transform="translate(62.2 457.9)" stroke="none" fill="#000" font-family="Arial" font-size="12" text-anchor="middle"><tspan>0</tspan></text></g><g fill="none" color="#000" stroke="currentColor"><path stroke="#000" d="M118 436v-9m0-408.9v9"/><text transform="translate(118 457.9)" stroke="none" fill="#000" font-family="Arial" font-size="12" text-anchor="middle"><tspan>10</tspan></text></g><g fill="none" color="#000" stroke="currentColor"><path stroke="#000" d="M173.9 436v-9m0-408.9v9"/><text transform="translate(173.9 457.9)" stroke="none" fill="#000" font-family="Arial" font-size="12" text-anchor="middle"><tspan>20</tspan></text></g><g fill="none" color="#000" stroke="currentColor"><path stroke="#000" d="M229.7 436v-9m0-408.9v9"/><text transform="translate(229.7 457.9)" stroke="none" fill="#000" font-family="Arial" font-size="12" text-anchor="middle"><tspan>30</tspan></text></g><g fill="none" color="#000" stroke="currentColor"><path stroke="#000" d="M285.6 436v-9m0-408.9v9"/><text transform="translate(285.6 457.9)" stroke="none" fill="#000" font-family="Arial" font-size="12" text-anchor="middle"><tspan>40</tspan></text></g><g fill="none" color="#000" stroke="currentColor"><path stroke="#000" d="M341.4 436v-9m0-408.9v9"/><text transform="translate(341.4 457.9)" stroke="none" fill="#000" font-family="Arial" font-size="12" text-anchor="middle"><tspan>50</tspan></text></g><g fill="none" color="#000" stroke="currentColor"><path stroke="#000" d="M397.2 436v-9m0-408.9v9"/><text transform="translate(397.2 457.9)" stroke="none" fill="#000" font-family="Arial" font-size="12" text-anchor="middle"><tspan>60</tspan></text></g><g fill="none" color="#000" stroke="currentColor"><path stroke="#000" d="M453.1 436v-9m0-408.9v9"/><text transform="translate(453.1 457.9)" stroke="none" fill="#000" font-family="Arial" font-size="12" text-anchor="middle"><tspan>70</tspan></text></g><g fill="none" color="#000" stroke="currentColor"><path stroke="#000" d="M508.9 436v-9m0-408.9v9"/><text transform="translate(508.9 457.9)" stroke="none" fill="#000" font-family="Arial" font-size="12" text-anchor="middle"><tspan>80</tspan></text></g><g fill="none" color="#000" stroke="currentColor"><path stroke="#000" d="M564.7 436v-9m0-408.9v9"/><text transform="translate(564.7 457.9)" stroke="none" fill="#000" font-family="Arial" font-size="12" text-anchor="middle"><tspan>90</tspan></text></g><path stroke="#000" d="M62.2 18.1V436H615V18.1H62.2z" fill="none" color="#000"/><text transform="translate(329.9 475.9)" stroke="none" fill="#000" font-family="Arial" font-size="12" text-anchor="end" color="#000"><tspan>score</tspan></text><path stroke="#9400D3" d="M338.2 472h42.2M62.2 29.2l5.6 3.2 5.6-4.7L79 422.8l5.5-392H101.3l5.6 392 5.6-3.1 5.5 5.2 5.6-1.1 5.6 2.1 5.6-3.1 5.6-393.6 5.6 389.4 5.5 4.2 5.6 4.1 5.6-10.3 5.6 9.3 5.6-6.2 5.6-385.8 5.5-3.1 5.6-3.1 5.6 3.1 5.6 1.6 5.6-3.2 5.6 393.6 5.5 4.1 5.6-8.3 5.6-389.4 5.6 396.7 5.6-395.1 5.6-3.1 5.6 396.1 5.5-393 5.6-1.6 5.6 3.2 5.6 391.4 5.6-1 5.6-2.1 5.5-393 5.6 396.1 5.6-396.1h5.6l5.6 1.5 5.6 396.7 5.5-398.2 5.6 392 5.6-388.9 5.6 393h5.6l5.6 1.1 5.5-4.2 5.6-386.8 5.6-6.2 5.6 4.7 5.6 392.5 5.6-2.1 5.5 2.1 5.6-397.2 5.6 398.2 5.6 2.1h5.6l5.6-9.4 5.5 4.2 5.6-390.4 5.6 393.5 5.6-4.2 5.6-392.5 5.6-1.5 5.6-1.6 5.5 3.1 5.6 392.5 5.6-390.9 5.6 388.9 5.6-387.3 5.6 391.4 5.5-394.6 5.6 393.6 5.6-393.6 5.6 392.5 5.6 1.1 5.6-395.1 5.5 4.7 5.6 387.3 5.6 2 5.6 1.1 5.6-1.1 5.6-392.5 5.5 394.6 5.6-396.1 5.6 394 5.6 1.1 5.6-2.1 5.6 2.1 5.5-392 5.6 392 5.6-1.1L615 30.8" fill="none" color="#000"/><g fill="none" color="#000" stroke="currentColor"><path stroke="#000" d="M62.2 18.1V436H615V18.1H62.2z"/></g></svg>