<svg width="640" height="500" xmlns="http://www.w3.org/2000/svg" xmlns:xlink="http://www.w3.org/1999/xlink"><path fill="#fff" d="M0 0h640v500H0z"/><defs><path id="d" stroke-width=".222" stroke="currentColor" d="M-1-1h2v2h-2z"/><path id="b" stroke-width=".222" stroke="currentColor" d="M0-1.33l-1.33 2h2.66z"/><path id="f" stroke-width=".222" stroke="currentColor" d="M0 1.33L1.265.411.782-1.067l-1.564-.009-.483 1.487z"/><use xlink:href="#b" id="c" stroke="currentColor" transform="rotate(180)"/><use xlink:href="#d" id="e" stroke="currentColor" transform="rotate(45)"/><circle id="a" stroke-width=".222" stroke="currentColor" cx="0" cy="0" r="1"/></defs><g fill="none" color="#000" stroke="currentColor"><path stroke="#000" d="M78.8 405.8h9m527.2 0h-9"/><text transform="translate(70.5 409.7)" stroke="none" fill="#000" font-family="Arial" font-size="12" text-anchor="end"><tspan>559100</tspan></text></g><g fill="none" color="#000" stroke="currentColor"><path stroke="#000" d="M78.8 328.6h9m527.2 0h-9"/><text transform="translate(70.5 332.5)" stroke="none" fill="#000" font-family="Arial" font-size="12" text-anchor="end"><tspan>559150</tspan></text></g><g fill="none" color="#000" stroke="currentColor"><path stroke="#000" d="M78.8 251.4h9m527.2 0h-9"/><text transform="translate(70.5 255.3)" stroke="none" fill="#000" font-family="Arial" font-size="12" text-anchor="end"><tspan>559200</tspan></text></g><g fill="none" color="#000" stroke="currentColor"><path stroke="#000" d="M78.8 174.2h9m527.2 0h-9"/><text transform="translate(70.5 178.1)" stroke="none" fill="#000" font-family="Arial" font-size="12" text-anchor="end"><tspan>559250</tspan></text></g><g fill="none" color="#000" stroke="currentColor"><path stroke="#000" d="M78.8 97h9M615 97h-9"/><text transform="translate(70.5 100.9)" stroke="none" fill="#000" font-family="Arial" font-size="12" text-anchor="end"><tspan>559300</tspan></text></g><g fill="none" color="#000" stroke="currentColor"><path stroke="#000" d="M78.8 19.8h9m527.2 0h-9"/><text transform="translate(70.5 23.7)" stroke="none" fill="#000" font-family="Arial" font-size="12" text-anchor="end"><tspan>559350</tspan></text></g><g fill="none" color="#000" stroke="currentColor"><path stroke="#000" d="M78.8 428v-9m0-400.9v9"/><text transform="translate(78.8 449.9)" stroke="none" fill="#000" font-family="Arial" font-size="12" text-anchor="middle"><tspan>0</tspan></text></g><g fill="none" color="#000" stroke="currentColor"><path stroke="#000" d="M133 428v-9m0-400.9v9"/><text transform="translate(133 449.9)" stroke="none" fill="#000" font-family="Arial" font-size="12" text-anchor="middle"><tspan>10</tspan></text></g><g fill="none" color="#000" stroke="currentColor"><path stroke="#000" d="M187.1 428v-9m0-400.9v9"/><text transform="translate(187.1 449.9)" stroke="none" fill="#000" font-family="Arial" font-size="12" text-anchor="middle"><tspan>20</tspan></text></g><g fill="none" color="#000" stroke="currentColor"><path stroke="#000" d="M241.3 428v-9m0-400.9v9"/><text transform="translate(241.3 449.9)" stroke="none" fill="#000" font-family="Arial" font-size="12" text-anchor="middle"><tspan>30</tspan></text></g><g fill="none" color="#000" stroke="currentColor"><path stroke="#000" d="M295.4 428v-9m0-400.9v9"/><text transform="translate(295.4 449.9)" stroke="none" fill="#000" font-family="Arial" font-size="12" text-anchor="middle"><tspan>40</tspan></text></g><g fill="none" color="#000" stroke="currentColor"><path stroke="#000" d="M349.6 428v-9m0-400.9v9"/><text transform="translate(349.6 449.9)" stroke="none" fill="#000" font-family="Arial" font-size="12" text-anchor="middle"><tspan>50</tspan></text></g><g fill="none" color="#000" stroke="currentColor"><path stroke="#000" d="M403.8 428v-9m0-400.9v9"/><text transform="translate(403.8 449.9)" stroke="none" fill="#000" font-family="Arial" font-size="12" text-anchor="middle"><tspan>60</tspan></text></g><g fill="none" color="#000" stroke="currentColor"><path stroke="#000" d="M457.9 428v-9m0-400.9v9"/><text transform="translate(457.9 449.9)" stroke="none" fill="#000" font-family="Arial" font-size="12" text-anchor="middle"><tspan>70</tspan></text></g><g fill="none" color="#000" stroke="currentColor"><path stroke="#000" d="M512.1 428v-9m0-400.9v9"/><text transform="translate(512.1 449.9)" stroke="none" fill="#000" font-family="Arial" font-size="12" text-anchor="middle"><tspan>80</tspan></text></g><g fill="none" color="#000" stroke="currentColor"><path stroke="#000" d="M566.3 428v-9m0-400.9v9"/><text transform="translate(566.3 449.9)" stroke="none" fill="#000" font-family="Arial" font-size="12" text-anchor="middle"><tspan>90</tspan></text></g><path stroke="#000" d="M78.8 18.1V428H615V18.1H78.8z" fill="none" color="#000"/><text transform="translate(288.1 467.9)" stroke="none" fill="#000" font-family="Arial" font-size="12" text-anchor="end" color="#000"><tspan>pages+cached</tspan></text><path stroke="#9400D3" d="M296.4 464h42.2M78.8 420.1l5.4-367.7 5.4 1.5L95 79.6l5.5-11.3 5.4-1.3 5.4-5.7 5.4 20.3 5.4-1.1 5.4-5.4L133 87l5.4-21.5 5.4 2 5.4-6.5 5.4 11.1 5.4 1.5 5.5-10.3 5.4-3 5.4-1.4 5.4-2.8 5.4-9.1 5.4 27.9 5.5-18.2 5.4-2.6h5.4l5.4 24.4 5.4-16.4L225 65l5.5-11.4 5.4 30.3 5.4-4.7 5.4-18.3 5.4 2.1 5.4-14.8 5.4 28.4 5.5.3 5.4 5 5.4 8 5.4-26.7 5.4 15.9 5.4 12.4 5.5-8.9 5.4-29.1 5.4 24.7 5.4-6.5 5.4 17.6 5.4-.5 5.5-3.2 5.4 9.6 5.4-60.5 5.4 41.5 5.4-20.1 5.4-10.5 5.5 45.8 5.4-27.6 5.4-4.5 5.4 27.7 5.4-38 5.4 33.3 5.5-30.2 5.4 18.8 5.4 9.7 5.4-27.4L420 82l5.4-12.5 5.5-10.6 5.4-5.3 5.4-3.2 5.4 46.3 5.4-32.4 5.4 26.2 5.4-31.5 5.5 24.1 5.4-17.4 5.4-39.7 5.4 52.9 5.4 3.1 5.4-5.7 5.5 6.7 5.4 5.7 5.4-11.3 5.4-25.5 5.4 16.9 5.4-15.7 5.5 22.7 5.4-9.1 5.4 9.8 5.4-11.1 5.4 9.7 5.4 20.8 5.5-47.2 5.4-.8 5.4 30.6 5.4-20.1 5.4 9.3 5.4 22.8 5.5-12.2 5.4 16.2 5.4-37 5.4 14.3" fill="none" color="#000"/><text transform="translate(288.1 485.9)" stroke="none" fill="#000" font-family="Arial" font-size="12" text-anchor="end" color="#000"><tspan>pages+cached+nointeractive</tspan></text><path stroke="#009E73" d="M296.4 482h42.2M78.8 57.9l5.4 33.2 5.4-14.9 5.4 3.5 5.5-7.3 5.4-5.5 5.4-5.2 5.4 14.2 5.4-2.8 5.4.1 5.5-8.8 5.4 25 5.4-12.4 5.4-9.9 5.4 1.2 5.4-.3 5.5 10.9 5.4 24 5.4-57.5 5.4 18.6 5.4 17.7 5.4-11.2 5.5 16.9 5.4-19.1 5.4 29.8 5.4-21 5.4 6.9 5.4-16.2 5.5 30.9 5.4-40.3 5.4.8 5.4 5.5 5.4 2.2 5.4 6.5 5.4-14.9 5.5 2.4 5.4 10.6 5.4-2 5.4 20.6 5.4-23.4 5.4 9.2 5.5-21.6 5.4 37 5.4-14.4 5.4-23.3 5.4 21 5.4-6.6 5.5 2.8 5.4 3.4 5.4 14.6 5.4-18 5.4 28.8 5.4-22.5 5.5-3.7 5.4-19.8 5.4 26.7 5.4 15.8 5.4-17.9 5.4 1.2 5.5-8 5.4 3.4 5.4-18.2 5.4 10.4 5.4-28.9 5.4 22.9 5.5 8.1 5.4-3.3 5.4 5.6 5.4 12.9 5.4-15.9 5.4-17.7 5.4 17.4 5.5-27.4 5.4 43.6 5.4-24.7 5.4 24.3h5.4l5.4-3.4 5.5-1.1 5.4 6.2 5.4-17.8 5.4 15 5.4 4.2 5.4-15.9 5.5 5.4 5.4-14.2 5.4 13.1 5.4-35.5 5.4 44.4 5.4-9.7 5.5 10.7 5.4 2 5.4-6.8 5.4-2.8 5.4-16.1 5.4-4.6 5.5 12.4 5.4-12.2 5.4 35.6 5.4-11.1" fill="none" color="#000"/><text transform="translate(562.7 467.9)" stroke="none" fill="#000" font-family="Arial" font-size="12" text-anchor="end" color="#000"><tspan>score p10=28672</tspan></text><path stroke="#56B4E9" d="M571 464h42.2" fill="none" color="#000"/><g><text transform="translate(562.7 485.9)" stroke="none" fill="#000" font-family="Arial" font-size="12" text-anchor="end" color="#000"><tspan>score median=131072</tspan></text><path stroke="#E69F00" d="M571 482h42.2" fill="none" color="#000"/></g><g fill="none" color="#000" stroke="currentColor"><path stroke="#000" d="M78.8 18.1V428H615V18.1H78.8z"/></g></svg>