<svg width="640" height="500" xmlns="http://www.w3.org/2000/svg" xmlns:xlink="http://www.w3.org/1999/xlink"><path fill="#fff" d="M0 0h640v500H0z"/><defs><path id="d" stroke-width=".222" stroke="currentColor" d="M-1-1h2v2h-2z"/><path id="b" stroke-width=".222" stroke="currentColor" d="M0-1.33l-1.33 2h2.66z"/><path id="f" stroke-width=".222" stroke="currentColor" d="M0 1.33L1.265.411.782-1.067l-1.564-.009-.483 1.487z"/><use xlink:href="#b" id="c" stroke="currentColor" transform="rotate(180)"/><use xlink:href="#d" id="e" stroke="currentColor" transform="rotate(45)"/><circle id="a" stroke-width=".222" stroke="currentColor" cx="0" cy="0" r="1"/></defs><g fill="none" color="#000" stroke="currentColor"><path stroke="#000" d="M53.9 378.8h9m552.1 0h-9"/><text transform="translate(45.6 382.7)" stroke="none" fill="#000" font-family="Arial" font-size="12" text-anchor="end"><tspan>1.4</tspan></text></g><g fill="none" color="#000" stroke="currentColor"><path stroke="#000" d="M53.9 319h9m552.1 0h-9"/><text transform="translate(45.6 322.9)" stroke="none" fill="#000" font-family="Arial" font-size="12" text-anchor="end"><tspan>1.6</tspan></text></g><g fill="none" color="#000" stroke="currentColor"><path stroke="#000" d="M53.9 259.2h9m552.1 0h-9"/><text transform="translate(45.6 263.1)" stroke="none" fill="#000" font-family="Arial" font-size="12" text-anchor="end"><tspan>1.8</tspan></text></g><g fill="none" color="#000" stroke="currentColor"><path stroke="#000" d="M53.9 199.4h9m552.1 0h-9"/><text transform="translate(45.6 203.3)" stroke="none" fill="#000" font-family="Arial" font-size="12" text-anchor="end"><tspan>2</tspan></text></g><g fill="none" color="#000" stroke="currentColor"><path stroke="#000" d="M53.9 139.6h9m552.1 0h-9"/><text transform="translate(45.6 143.5)" stroke="none" fill="#000" font-family="Arial" font-size="12" text-anchor="end"><tspan>2.2</tspan></text></g><g fill="none" color="#000" stroke="currentColor"><path stroke="#000" d="M53.9 79.8h9m552.1 0h-9"/><text transform="translate(45.6 83.7)" stroke="none" fill="#000" font-family="Arial" font-size="12" text-anchor="end"><tspan>2.4</tspan></text></g><g fill="none" color="#000" stroke="currentColor"><path stroke="#000" d="M53.9 20h9M615 20h-9"/><text transform="translate(45.6 23.9)" stroke="none" fill="#000" font-family="Arial" font-size="12" text-anchor="end"><tspan>2.6</tspan></text></g><g fill="none" color="#000" stroke="currentColor"><path stroke="#000" d="M53.9 428v-9m0-400.9v9"/><text transform="translate(53.9 449.9)" stroke="none" fill="#000" font-family="Arial" font-size="12" text-anchor="middle"><tspan>0</tspan></text></g><g fill="none" color="#000" stroke="currentColor"><path stroke="#000" d="M110.6 428v-9m0-400.9v9"/><text transform="translate(110.6 449.9)" stroke="none" fill="#000" font-family="Arial" font-size="12" text-anchor="middle"><tspan>10</tspan></text></g><g fill="none" color="#000" stroke="currentColor"><path stroke="#000" d="M167.3 428v-9m0-400.9v9"/><text transform="translate(167.3 449.9)" stroke="none" fill="#000" font-family="Arial" font-size="12" text-anchor="middle"><tspan>20</tspan></text></g><g fill="none" color="#000" stroke="currentColor"><path stroke="#000" d="M223.9 428v-9m0-400.9v9"/><text transform="translate(223.9 449.9)" stroke="none" fill="#000" font-family="Arial" font-size="12" text-anchor="middle"><tspan>30</tspan></text></g><g fill="none" color="#000" stroke="currentColor"><path stroke="#000" d="M280.6 428v-9m0-400.9v9"/><text transform="translate(280.6 449.9)" stroke="none" fill="#000" font-family="Arial" font-size="12" text-anchor="middle"><tspan>40</tspan></text></g><g fill="none" color="#000" stroke="currentColor"><path stroke="#000" d="M337.3 428v-9m0-400.9v9"/><text transform="translate(337.3 449.9)" stroke="none" fill="#000" font-family="Arial" font-size="12" text-anchor="middle"><tspan>50</tspan></text></g><g fill="none" color="#000" stroke="currentColor"><path stroke="#000" d="M394 428v-9m0-400.9v9"/><text transform="translate(394 449.9)" stroke="none" fill="#000" font-family="Arial" font-size="12" text-anchor="middle"><tspan>60</tspan></text></g><g fill="none" color="#000" stroke="currentColor"><path stroke="#000" d="M450.6 428v-9m0-400.9v9"/><text transform="translate(450.6 449.9)" stroke="none" fill="#000" font-family="Arial" font-size="12" text-anchor="middle"><tspan>70</tspan></text></g><g fill="none" color="#000" stroke="currentColor"><path stroke="#000" d="M507.3 428v-9m0-400.9v9"/><text transform="translate(507.3 449.9)" stroke="none" fill="#000" font-family="Arial" font-size="12" text-anchor="middle"><tspan>80</tspan></text></g><g fill="none" color="#000" stroke="currentColor"><path stroke="#000" d="M564 428v-9m0-400.9v9"/><text transform="translate(564 449.9)" stroke="none" fill="#000" font-family="Arial" font-size="12" text-anchor="middle"><tspan>90</tspan></text></g><path stroke="#000" d="M53.9 18.1V428H615V18.1H53.9z" fill="none" color="#000"/><text transform="translate(508.4 467.9)" stroke="none" fill="#000" font-family="Arial" font-size="12" text-anchor="end" color="#000"><tspan>pages+cached+noexternal+nofonts+nosvg+noimg</tspan></text><path stroke="#9400D3" d="M516.7 464h42.2m-505-199.4l5.7 19.2 5.6-128.3 5.7 76.8 5.7 45.8 5.6-18 5.7-23.6 5.7-89.1L99.2 267l5.7 69.4 5.7 57.7 5.6-103.8 5.7 47.3 5.7 11.6 5.6-112.1 5.7 54.7 5.7 49.4 5.7 65.5 5.6-154 5.7-30.5 5.7 82.5 5.6 95.7 5.7-292.8 5.7 286.2 5.6-41.6 5.7-64 5.7 38.9 5.6 34.1 5.7-46.3 5.7 51.4 5.6 36.2 5.7-156.4h5.7l5.6 139.3 5.7 13.8 5.7-135.2 5.6 92.7 5.7 12.9 5.7-83.2 5.6-69 5.7 86.1 5.7 94.8 5.6-118.7L297.6 26l5.7 355.2 5.6 4.5 5.7-239.5 5.7 169.6 5.6-59 5.7-24.2 5.7 157 5.7-75.3 5.6-106.8 5.7 209.3 5.7-105.2 5.6-161.8 5.7 99 5.7 31.7 5.6 7.7 5.7-78.3 5.7 185.7 5.6-11.7 5.7-73.2 5.7-12.3 5.6 78.4 5.7-36.5 5.7-106.2 5.6 55.9 5.7-3.6 5.7 26.1 5.6-113.7 5.7 160.3 5.7 13.2 5.6-159.4 5.7-66.1 5.7 64.6 5.6 117.5 5.7 52.9 5.7-244.3 5.6 144.8 5.7 25.7 5.7-89.1 5.6 142 5.7-28.7L530 194l5.7 32.6 5.6 34.7 5.7 11.4 5.7 114.8 5.6 6 5.7-88.2 5.7 78 5.6-51.1 5.7-41 5.7 2.4 5.6 99.6L598 267l5.7 13.5 5.6.6 5.7-1.2" fill="none" color="#000"/><text transform="translate(508.4 485.9)" stroke="none" fill="#000" font-family="Arial" font-size="12" text-anchor="end" color="#000"><tspan>pages+cached+noexternal+nofonts+nosvg+noimg+nocss</tspan></text><path stroke="#009E73" d="M516.7 482h42.2m-505-276.6l5.7 130.7 5.6 31.4 5.7-93.9 5.7-132.5 5.6-12.5 5.7 241 5.7-36.8 5.6-82.8 5.7-78.7 5.7-32.9 5.6 253 5.7-84.3 5.7-77.2 5.6 180.3 5.7-23.6 5.7-110 5.7 6.9 5.6 1.5 5.7 67.8 5.7 60.1 5.6-119.6 5.7 13.8 5.7-75.7 5.6 41.3 5.7-4.5 5.7 127.7 5.6-109.8 5.7-112.4 5.7 180.9 5.6 55.3 5.7-188 5.7 69.3 5.6 91.2 5.7-148 5.7 43.4 5.6 37.4 5.7-77.2 5.7 130.1 5.6 11 5.7-78.3 5.7-37.1 5.6 137.6 5.7-9 5.7-190.8 5.6 98.4 5.7-84.3 5.7 79.5 5.6-48.4 5.7 115.1 5.7-329.2 5.7 227.2 5.6 42.8 5.7-162.7 5.7 255.7 5.6 19.1 5.7-196.4 5.7 199.4 5.6-33.8 5.7-98.9 5.7 98 5.6 3.3 5.7-209.6 5.7 199.2 5.6 39.7 5.7-253.3 5.7 91.9 5.6-123.3 5.7 254.2 5.7-97.5 5.6 70.3 5.7 18.9 5.7-201.9 5.6 184.5 5.7 23L479 267l5.6-3.3 5.7-2.4 5.7-49.6 5.6 208.4 5.7-63.7 5.7-66.7 5.6-104.9 5.7 106.1L530 63.4l5.7 288.2 5.6-122L547 334l5.7 39.5 5.6-153.7 5.7 66 5.7-20.6 5.6-26.9 5.7-18.2 5.7 80.7 5.6-51.1 5.7 141.4 5.7-182.7 5.6 150.7 5.7.9" fill="none" color="#000"/><g fill="none" color="#000" stroke="currentColor"><path stroke="#000" d="M53.9 18.1V428H615V18.1H53.9z"/></g></svg>