<svg width="640" height="500" xmlns="http://www.w3.org/2000/svg" xmlns:xlink="http://www.w3.org/1999/xlink"><path fill="#fff" d="M0 0h640v500H0z"/><defs><path id="d" stroke-width=".222" stroke="currentColor" d="M-1-1h2v2h-2z"/><path id="b" stroke-width=".222" stroke="currentColor" d="M0-1.33l-1.33 2h2.66z"/><path id="f" stroke-width=".222" stroke="currentColor" d="M0 1.33L1.265.411.782-1.067l-1.564-.009-.483 1.487z"/><use xlink:href="#b" id="c" stroke="currentColor" transform="rotate(180)"/><use xlink:href="#d" id="e" stroke="currentColor" transform="rotate(45)"/><circle id="a" stroke-width=".222" stroke="currentColor" cx="0" cy="0" r="1"/></defs><g fill="none" color="#000" stroke="currentColor"><path stroke="#000" d="M53.9 390.3h9m552.1 0h-9"/><text transform="translate(45.6 394.2)" stroke="none" fill="#000" font-family="Arial" font-size="12" text-anchor="end"><tspan>1.4</tspan></text></g><g fill="none" color="#000" stroke="currentColor"><path stroke="#000" d="M53.9 347.2h9m552.1 0h-9"/><text transform="translate(45.6 351.1)" stroke="none" fill="#000" font-family="Arial" font-size="12" text-anchor="end"><tspan>1.6</tspan></text></g><g fill="none" color="#000" stroke="currentColor"><path stroke="#000" d="M53.9 304h9m552.1 0h-9"/><text transform="translate(45.6 307.9)" stroke="none" fill="#000" font-family="Arial" font-size="12" text-anchor="end"><tspan>1.8</tspan></text></g><g fill="none" color="#000" stroke="currentColor"><path stroke="#000" d="M53.9 260.8h9m552.1 0h-9"/><text transform="translate(45.6 264.7)" stroke="none" fill="#000" font-family="Arial" font-size="12" text-anchor="end"><tspan>2</tspan></text></g><g fill="none" color="#000" stroke="currentColor"><path stroke="#000" d="M53.9 217.7h9m552.1 0h-9"/><text transform="translate(45.6 221.6)" stroke="none" fill="#000" font-family="Arial" font-size="12" text-anchor="end"><tspan>2.2</tspan></text></g><g fill="none" color="#000" stroke="currentColor"><path stroke="#000" d="M53.9 174.5h9m552.1 0h-9"/><text transform="translate(45.6 178.4)" stroke="none" fill="#000" font-family="Arial" font-size="12" text-anchor="end"><tspan>2.4</tspan></text></g><g fill="none" color="#000" stroke="currentColor"><path stroke="#000" d="M53.9 131.3h9m552.1 0h-9"/><text transform="translate(45.6 135.2)" stroke="none" fill="#000" font-family="Arial" font-size="12" text-anchor="end"><tspan>2.6</tspan></text></g><g fill="none" color="#000" stroke="currentColor"><path stroke="#000" d="M53.9 88.1h9m552.1 0h-9"/><text transform="translate(45.6 92)" stroke="none" fill="#000" font-family="Arial" font-size="12" text-anchor="end"><tspan>2.8</tspan></text></g><g fill="none" color="#000" stroke="currentColor"><path stroke="#000" d="M53.9 45h9M615 45h-9"/><text transform="translate(45.6 48.9)" stroke="none" fill="#000" font-family="Arial" font-size="12" text-anchor="end"><tspan>3</tspan></text></g><g fill="none" color="#000" stroke="currentColor"><path stroke="#000" d="M53.9 428v-9m0-400.9v9"/><text transform="translate(53.9 449.9)" stroke="none" fill="#000" font-family="Arial" font-size="12" text-anchor="middle"><tspan>0</tspan></text></g><g fill="none" color="#000" stroke="currentColor"><path stroke="#000" d="M110.6 428v-9m0-400.9v9"/><text transform="translate(110.6 449.9)" stroke="none" fill="#000" font-family="Arial" font-size="12" text-anchor="middle"><tspan>10</tspan></text></g><g fill="none" color="#000" stroke="currentColor"><path stroke="#000" d="M167.3 428v-9m0-400.9v9"/><text transform="translate(167.3 449.9)" stroke="none" fill="#000" font-family="Arial" font-size="12" text-anchor="middle"><tspan>20</tspan></text></g><g fill="none" color="#000" stroke="currentColor"><path stroke="#000" d="M223.9 428v-9m0-400.9v9"/><text transform="translate(223.9 449.9)" stroke="none" fill="#000" font-family="Arial" font-size="12" text-anchor="middle"><tspan>30</tspan></text></g><g fill="none" color="#000" stroke="currentColor"><path stroke="#000" d="M280.6 428v-9m0-400.9v9"/><text transform="translate(280.6 449.9)" stroke="none" fill="#000" font-family="Arial" font-size="12" text-anchor="middle"><tspan>40</tspan></text></g><g fill="none" color="#000" stroke="currentColor"><path stroke="#000" d="M337.3 428v-9m0-400.9v9"/><text transform="translate(337.3 449.9)" stroke="none" fill="#000" font-family="Arial" font-size="12" text-anchor="middle"><tspan>50</tspan></text></g><g fill="none" color="#000" stroke="currentColor"><path stroke="#000" d="M394 428v-9m0-400.9v9"/><text transform="translate(394 449.9)" stroke="none" fill="#000" font-family="Arial" font-size="12" text-anchor="middle"><tspan>60</tspan></text></g><g fill="none" color="#000" stroke="currentColor"><path stroke="#000" d="M450.6 428v-9m0-400.9v9"/><text transform="translate(450.6 449.9)" stroke="none" fill="#000" font-family="Arial" font-size="12" text-anchor="middle"><tspan>70</tspan></text></g><g fill="none" color="#000" stroke="currentColor"><path stroke="#000" d="M507.3 428v-9m0-400.9v9"/><text transform="translate(507.3 449.9)" stroke="none" fill="#000" font-family="Arial" font-size="12" text-anchor="middle"><tspan>80</tspan></text></g><g fill="none" color="#000" stroke="currentColor"><path stroke="#000" d="M564 428v-9m0-400.9v9"/><text transform="translate(564 449.9)" stroke="none" fill="#000" font-family="Arial" font-size="12" text-anchor="middle"><tspan>90</tspan></text></g><path stroke="#000" d="M53.9 18.1V428H615V18.1H53.9z" fill="none" color="#000"/><text transform="translate(529.1 467.9)" stroke="none" fill="#000" font-family="Arial" font-size="12" text-anchor="end" color="#000"><tspan>pages+cached+noexternal+nofonts+nosvg+noimg+nocss</tspan></text><path stroke="#9400D3" d="M537.4 464h42.2M53.9 265.1l5.7 94.4 5.6 22.6 5.7-67.7 5.7-95.7 5.6-9 5.7 173.9 5.7-26.5 5.6-59.8 5.7-56.8 5.7-23.7 5.6 182.6 5.7-60.9 5.7-55.7 5.6 130.2 5.7-17.1 5.7-79.4 5.7 5 5.6 1.1 5.7 49 5.7 43.3 5.6-86.3 5.7 9.9 5.7-54.6 5.6 29.8 5.7-3.2 5.7 92.1 5.6-79.2 5.7-81.1 5.7 130.5 5.6 40 5.7-135.8 5.7 50.1 5.6 65.8 5.7-106.8 5.7 31.3 5.6 27 5.7-55.7 5.7 93.9 5.6 7.9 5.7-56.5 5.7-26.8 5.6 99.3 5.7-6.5 5.7-137.7 5.6 71 5.7-60.8 5.7 57.4 5.6-35 5.7 83.1 5.7-237.6 5.7 164 5.6 30.9 5.7-117.4 5.7 184.5 5.6 13.8 5.7-141.8 5.7 144 5.6-24.4 5.7-71.4 5.7 70.8 5.6 2.3 5.7-151.3 5.7 143.8 5.6 28.7 5.7-182.8 5.7 66.2 5.6-88.9 5.7 183.5 5.7-70.4 5.6 50.7 5.7 13.6 5.7-145.7 5.6 133.2 5.7 16.6 5.7-83.3 5.6-2.4 5.7-1.7 5.7-35.8 5.6 150.4 5.7-46L513 326l5.6-75.8 5.7 76.7 5.7-164.3 5.7 208.1 5.6-88.1L547 358l5.7 28.4 5.6-110.9 5.7 47.7 5.7-14.9 5.6-19.4 5.7-13.2 5.7 58.3 5.6-36.9 5.7 102.1 5.7-131.9 5.6 108.8 5.7.6" fill="none" color="#000"/><text transform="translate(529.1 485.9)" stroke="none" fill="#000" font-family="Arial" font-size="12" text-anchor="end" color="#000"><tspan>pages+cached+noexternal+nofonts+nosvg+noimg+nocss+nojs</tspan></text><path stroke="#009E73" d="M537.4 482h42.2M53.9 294.5l5.7 31.7 5.6-30 5.7 16.4 5.7 86.6 5.6-103.6 5.7 102.1 5.7-4.8 5.6-89.8 5.7 58.5 5.7 47.9 5.6-98.6 5.7 77.7 5.7 7.1 5.6-145.9 5.7 169 5.7-38.8 5.7-111 5.6 104.1 5.7 33.2L167.3 26l5.6 383.1 5.7-99.5 5.7 19.9 5.6 35.1 5.7 33.7 5.7-89.8 5.6 101.5 5.7-71.3 5.7-184.1 5.6 170.8 5.7 71.2 5.7-80.1 5.6 57.2 5.7 29.6 5.7-74.9 5.6 72.9 5.7-14.4 5.7-47.7 5.6 69.9 5.7-10.8 5.7-85.2 5.6 77 5.7-46 5.7-121.3 5.6 73.4 5.7 61.3 5.7-55.2 5.6 114.4 5.7-46.4 5.7-81L343 400l5.6-17.7 5.7-121 5.7 10.1 5.6 136.6 5.7-11.4 5.7-190.8 5.6 192.3 5.7-55 5.7-26.8 5.6 87.4 5.7 14.5 5.7-84.4 5.6 29.8 5.7 37.7 5.7-204.8 5.6 130.4 5.7 55.2 5.7-146.7 5.6 163.3 5.7 2.2L462 310l5.6 79.9 5.7-35.4 5.7-141.4 5.6 158.9 5.7 25.2 5.7-224 5.6 198.6 5.7 23.1 5.7-176.4 5.6 182.4 5.7-95 5.7-56.5 5.7 159.9 5.6-25.9L547 301l5.7 88 5.6-36.4 5.7-10.8 5.7-17.7 5.6 83.3 5.7-74.7 5.7-39.3 5.6 51.4 5.7.9 5.7-48.4 5.6 96.7 5.7-79.4" fill="none" color="#000"/><g fill="none" color="#000" stroke="currentColor"><path stroke="#000" d="M53.9 18.1V428H615V18.1H53.9z"/></g></svg>