<svg width="640" height="500" xmlns="http://www.w3.org/2000/svg" xmlns:xlink="http://www.w3.org/1999/xlink"><path fill="#fff" d="M0 0h640v500H0z"/><defs><path id="d" stroke-width=".222" stroke="currentColor" d="M-1-1h2v2h-2z"/><path id="b" stroke-width=".222" stroke="currentColor" d="M0-1.33l-1.33 2h2.66z"/><path id="f" stroke-width=".222" stroke="currentColor" d="M0 1.33L1.265.411.782-1.067l-1.564-.009-.483 1.487z"/><use xlink:href="#b" id="c" stroke="currentColor" transform="rotate(180)"/><use xlink:href="#d" id="e" stroke="currentColor" transform="rotate(45)"/><circle id="a" stroke-width=".222" stroke="currentColor" cx="0" cy="0" r="1"/></defs><g fill="none" color="#000" stroke="currentColor"><path stroke="#000" d="M53.9 444.2h9m552.1 0h-9"/><text transform="translate(45.6 448.1)" stroke="none" fill="#000" font-family="Arial" font-size="12" text-anchor="end"><tspan>1.2</tspan></text></g><g fill="none" color="#000" stroke="currentColor"><path stroke="#000" d="M53.9 372.4h9m552.1 0h-9"/><text transform="translate(45.6 376.3)" stroke="none" fill="#000" font-family="Arial" font-size="12" text-anchor="end"><tspan>1.4</tspan></text></g><g fill="none" color="#000" stroke="currentColor"><path stroke="#000" d="M53.9 300.5h9m552.1 0h-9"/><text transform="translate(45.6 304.4)" stroke="none" fill="#000" font-family="Arial" font-size="12" text-anchor="end"><tspan>1.6</tspan></text></g><g fill="none" color="#000" stroke="currentColor"><path stroke="#000" d="M53.9 228.6h9m552.1 0h-9"/><text transform="translate(45.6 232.5)" stroke="none" fill="#000" font-family="Arial" font-size="12" text-anchor="end"><tspan>1.8</tspan></text></g><g fill="none" color="#000" stroke="currentColor"><path stroke="#000" d="M53.9 156.8h9m552.1 0h-9"/><text transform="translate(45.6 160.7)" stroke="none" fill="#000" font-family="Arial" font-size="12" text-anchor="end"><tspan>2</tspan></text></g><g fill="none" color="#000" stroke="currentColor"><path stroke="#000" d="M53.9 84.9h9m552.1 0h-9"/><text transform="translate(45.6 88.8)" stroke="none" fill="#000" font-family="Arial" font-size="12" text-anchor="end"><tspan>2.2</tspan></text></g><g fill="none" color="#000" stroke="currentColor"><path stroke="#000" d="M53.9 446v-9m0-418.9v9"/><text transform="translate(53.9 467.9)" stroke="none" fill="#000" font-family="Arial" font-size="12" text-anchor="middle"><tspan>0</tspan></text></g><g fill="none" color="#000" stroke="currentColor"><path stroke="#000" d="M110.6 446v-9m0-418.9v9"/><text transform="translate(110.6 467.9)" stroke="none" fill="#000" font-family="Arial" font-size="12" text-anchor="middle"><tspan>10</tspan></text></g><g fill="none" color="#000" stroke="currentColor"><path stroke="#000" d="M167.3 446v-9m0-418.9v9"/><text transform="translate(167.3 467.9)" stroke="none" fill="#000" font-family="Arial" font-size="12" text-anchor="middle"><tspan>20</tspan></text></g><g fill="none" color="#000" stroke="currentColor"><path stroke="#000" d="M223.9 446v-9m0-418.9v9"/><text transform="translate(223.9 467.9)" stroke="none" fill="#000" font-family="Arial" font-size="12" text-anchor="middle"><tspan>30</tspan></text></g><g fill="none" color="#000" stroke="currentColor"><path stroke="#000" d="M280.6 446v-9m0-418.9v9"/><text transform="translate(280.6 467.9)" stroke="none" fill="#000" font-family="Arial" font-size="12" text-anchor="middle"><tspan>40</tspan></text></g><g fill="none" color="#000" stroke="currentColor"><path stroke="#000" d="M337.3 446v-9m0-418.9v9"/><text transform="translate(337.3 467.9)" stroke="none" fill="#000" font-family="Arial" font-size="12" text-anchor="middle"><tspan>50</tspan></text></g><g fill="none" color="#000" stroke="currentColor"><path stroke="#000" d="M394 446v-9m0-418.9v9"/><text transform="translate(394 467.9)" stroke="none" fill="#000" font-family="Arial" font-size="12" text-anchor="middle"><tspan>60</tspan></text></g><g fill="none" color="#000" stroke="currentColor"><path stroke="#000" d="M450.6 446v-9m0-418.9v9"/><text transform="translate(450.6 467.9)" stroke="none" fill="#000" font-family="Arial" font-size="12" text-anchor="middle"><tspan>70</tspan></text></g><g fill="none" color="#000" stroke="currentColor"><path stroke="#000" d="M507.3 446v-9m0-418.9v9"/><text transform="translate(507.3 467.9)" stroke="none" fill="#000" font-family="Arial" font-size="12" text-anchor="middle"><tspan>80</tspan></text></g><g fill="none" color="#000" stroke="currentColor"><path stroke="#000" d="M564 446v-9m0-418.9v9"/><text transform="translate(564 467.9)" stroke="none" fill="#000" font-family="Arial" font-size="12" text-anchor="middle"><tspan>90</tspan></text></g><path stroke="#000" d="M53.9 18.1V446H615V18.1H53.9z" fill="none" color="#000"/><text transform="translate(275.6 485.9)" stroke="none" fill="#000" font-family="Arial" font-size="12" text-anchor="end" color="#000"><tspan>pages+cached+nointeractive</tspan></text><path stroke="#9400D3" d="M283.9 482h42.2M53.9 281.5l5.7-12.6 5.6 88.7 5.7 11.2 5.7-2.9 5.6 23.7 5.7-43.5 5.7-6.4 5.6 48.1 5.7-12.9 5.7 2.1 5.6-304.3 5.7 246.5 5.7-25.9 5.6 105.3 5.7-160.6 5.7 128.6 5.7-17.2 5.6 23.7 5.7 41.7 5.7-112.9 5.6 58.3 5.7 32.3 5.7-143.7 5.6 4.3 5.7 65.7 5.7 33.4 5.6 2.6 5.7 42 5.7-154.1 5.6-4.4 5.7 19.8 5.7 140.9 5.6-69.7 5.7-50.4 5.7 85.9 5.6-108.1 5.7 54.9 5.7-29.4 5.6-10.1 5.7-18.3 5.7 95.2 5.6 47.1 5.7-63.6 5.7-15.1 5.6 25.5 5.7 39.5 5.7-38.8 5.6 13 5.7 7.1 5.7 59.7 5.7-113.2 5.6 104.6 5.7-73.3 5.7 19.4 5.6 36.6 5.7-27.6 5.7-89.2 5.6-92.3 5.7 203.7 5.7-60.3 5.6 44.9 5.7-157.4 5.7 107.1 5.6 42 5.7 28 5.7-78.3 5.6 81.2 5.7-91.6 5.7-51.8 5.6 74.1 5.7-21.6 5.7 20.5 5.6 75.5 5.7-115 5.7 64.3 5.6-2.5 5.7 18.7 5.7 17.2 5.6 50.7 5.7-320.9 5.7 281.3 5.6-20.4 5.7-198 5.7 31.6 5.7 89.1 5.6 110.3 5.7-37.7 5.7-134.4 5.6-212.4 5.7 326.3 5.7-7.5 5.6-75.1 5.7 127.5 5.7-40.2 5.6-111.8 5.7 105 5.7-21.6 5.6 76.2 5.7-196.9" fill="none" color="#000"/><text transform="translate(550.2 485.9)" stroke="none" fill="#000" font-family="Arial" font-size="12" text-anchor="end" color="#000"><tspan>pages+cached+noadtech</tspan></text><path stroke="#009E73" d="M558.5 482h42.2M53.9 183.4l5.7 86.2 5.6 8.3 5.7-179.3 5.7 280.6 5.6-142.3 5.7 1.1 5.7 125.7 5.6-74.7 5.7 80.1 5.7-7.9 5.6-111 5.7 26.6 5.7 125 5.6-19.4 5.7-115.7 5.7 113.6 5.7-10.8 5.6-101.3 5.7 68.6 5.7-92.7 5.6-57.5 5.7 212.4 5.7-116.1 5.6 57.5 5.7-185.4 5.7 224.2 5.6-138.3 5.7 130.4 5.7-65 5.6-192.3 5.7 292.1 5.7-218.1 5.6 212.8 5.7-143.1 5.7-137.2 5.6 233.9 5.7-60.7 5.7-118.6 5.6 187.6 5.7-22 5.7-80.1 5.6 137.6 5.7-136.5 5.7 114.6 5.6 19.1 5.7-111.1 5.7-200.8 5.6 291.4 5.7 16.2 5.7-223.6 5.7 211.3 5.6-76.9 5.7-87.6 5.7 177.5 5.6-22.3 5.7-58.9 5.7 37.7 5.6-158.1 5.7 186.1 5.7-148.7 5.6 136.5 5.7 3.6 5.7-162.8 5.6 171.8 5.7 15.8 5.7-157.4 5.6 86.6 5.7-69.3 5.7-55 5.6 83.7 5.7 49.2L462 81.7l5.6 175 5.7-33.5 5.7 17.7 5.6-107.5 5.7 139.8 5.7 117.5 5.6 21.9 5.7-176.4 5.7 127.9 5.6-5.7 5.7-186.5L530 298l5.7 51.4 5.6-88.4 5.7 130.4 5.7-46.3 5.6-74.4 5.7 27.6 5.7 91 5.6-134.8 5.7 133.7 5.7 19.4 5.6-302.6 5.7 249 5.7-30.1 5.6-66.2L615 42.1" fill="none" color="#000"/><g fill="none" color="#000" stroke="currentColor"><path stroke="#000" d="M53.9 18.1V446H615V18.1H53.9z"/></g></svg>