<svg width="640" height="500" xmlns="http://www.w3.org/2000/svg" xmlns:xlink="http://www.w3.org/1999/xlink"><path fill="#fff" d="M0 0h640v500H0z"/><defs><path id="d" stroke-width=".222" stroke="currentColor" d="M-1-1h2v2h-2z"/><path id="b" stroke-width=".222" stroke="currentColor" d="M0-1.33l-1.33 2h2.66z"/><path id="f" stroke-width=".222" stroke="currentColor" d="M0 1.33L1.265.411.782-1.067l-1.564-.009-.483 1.487z"/><use xlink:href="#b" id="c" stroke="currentColor" transform="rotate(180)"/><use xlink:href="#d" id="e" stroke="currentColor" transform="rotate(45)"/><circle id="a" stroke-width=".222" stroke="currentColor" cx="0" cy="0" r="1"/></defs><g fill="none" color="#000" stroke="currentColor"><path stroke="#000" d="M53.9 404.6h9m552.1 0h-9"/><text transform="translate(45.6 408.5)" stroke="none" fill="#000" font-family="Arial" font-size="12" text-anchor="end"><tspan>1.4</tspan></text></g><g fill="none" color="#000" stroke="currentColor"><path stroke="#000" d="M53.9 352h9m552.1 0h-9"/><text transform="translate(45.6 355.9)" stroke="none" fill="#000" font-family="Arial" font-size="12" text-anchor="end"><tspan>1.6</tspan></text></g><g fill="none" color="#000" stroke="currentColor"><path stroke="#000" d="M53.9 299.4h9m552.1 0h-9"/><text transform="translate(45.6 303.3)" stroke="none" fill="#000" font-family="Arial" font-size="12" text-anchor="end"><tspan>1.8</tspan></text></g><g fill="none" color="#000" stroke="currentColor"><path stroke="#000" d="M53.9 246.8h9m552.1 0h-9"/><text transform="translate(45.6 250.7)" stroke="none" fill="#000" font-family="Arial" font-size="12" text-anchor="end"><tspan>2</tspan></text></g><g fill="none" color="#000" stroke="currentColor"><path stroke="#000" d="M53.9 194.2h9m552.1 0h-9"/><text transform="translate(45.6 198.1)" stroke="none" fill="#000" font-family="Arial" font-size="12" text-anchor="end"><tspan>2.2</tspan></text></g><g fill="none" color="#000" stroke="currentColor"><path stroke="#000" d="M53.9 141.6h9m552.1 0h-9"/><text transform="translate(45.6 145.5)" stroke="none" fill="#000" font-family="Arial" font-size="12" text-anchor="end"><tspan>2.4</tspan></text></g><g fill="none" color="#000" stroke="currentColor"><path stroke="#000" d="M53.9 88.9h9m552.1 0h-9"/><text transform="translate(45.6 92.8)" stroke="none" fill="#000" font-family="Arial" font-size="12" text-anchor="end"><tspan>2.6</tspan></text></g><g fill="none" color="#000" stroke="currentColor"><path stroke="#000" d="M53.9 36.3h9m552.1 0h-9"/><text transform="translate(45.6 40.2)" stroke="none" fill="#000" font-family="Arial" font-size="12" text-anchor="end"><tspan>2.8</tspan></text></g><g fill="none" color="#000" stroke="currentColor"><path stroke="#000" d="M53.9 446v-9m0-418.9v9"/><text transform="translate(53.9 467.9)" stroke="none" fill="#000" font-family="Arial" font-size="12" text-anchor="middle"><tspan>0</tspan></text></g><g fill="none" color="#000" stroke="currentColor"><path stroke="#000" d="M110.6 446v-9m0-418.9v9"/><text transform="translate(110.6 467.9)" stroke="none" fill="#000" font-family="Arial" font-size="12" text-anchor="middle"><tspan>10</tspan></text></g><g fill="none" color="#000" stroke="currentColor"><path stroke="#000" d="M167.3 446v-9m0-418.9v9"/><text transform="translate(167.3 467.9)" stroke="none" fill="#000" font-family="Arial" font-size="12" text-anchor="middle"><tspan>20</tspan></text></g><g fill="none" color="#000" stroke="currentColor"><path stroke="#000" d="M223.9 446v-9m0-418.9v9"/><text transform="translate(223.9 467.9)" stroke="none" fill="#000" font-family="Arial" font-size="12" text-anchor="middle"><tspan>30</tspan></text></g><g fill="none" color="#000" stroke="currentColor"><path stroke="#000" d="M280.6 446v-9m0-418.9v9"/><text transform="translate(280.6 467.9)" stroke="none" fill="#000" font-family="Arial" font-size="12" text-anchor="middle"><tspan>40</tspan></text></g><g fill="none" color="#000" stroke="currentColor"><path stroke="#000" d="M337.3 446v-9m0-418.9v9"/><text transform="translate(337.3 467.9)" stroke="none" fill="#000" font-family="Arial" font-size="12" text-anchor="middle"><tspan>50</tspan></text></g><g fill="none" color="#000" stroke="currentColor"><path stroke="#000" d="M394 446v-9m0-418.9v9"/><text transform="translate(394 467.9)" stroke="none" fill="#000" font-family="Arial" font-size="12" text-anchor="middle"><tspan>60</tspan></text></g><g fill="none" color="#000" stroke="currentColor"><path stroke="#000" d="M450.6 446v-9m0-418.9v9"/><text transform="translate(450.6 467.9)" stroke="none" fill="#000" font-family="Arial" font-size="12" text-anchor="middle"><tspan>70</tspan></text></g><g fill="none" color="#000" stroke="currentColor"><path stroke="#000" d="M507.3 446v-9m0-418.9v9"/><text transform="translate(507.3 467.9)" stroke="none" fill="#000" font-family="Arial" font-size="12" text-anchor="middle"><tspan>80</tspan></text></g><g fill="none" color="#000" stroke="currentColor"><path stroke="#000" d="M564 446v-9m0-418.9v9"/><text transform="translate(564 467.9)" stroke="none" fill="#000" font-family="Arial" font-size="12" text-anchor="middle"><tspan>90</tspan></text></g><path stroke="#000" d="M53.9 18.1V446H615V18.1H53.9z" fill="none" color="#000"/><text transform="translate(275.6 485.9)" stroke="none" fill="#000" font-family="Arial" font-size="12" text-anchor="end" color="#000"><tspan>pages+cached+noadtech</tspan></text><path stroke="#9400D3" d="M283.9 482h42.2M53.9 266.2l5.7 63.2 5.6 6 5.7-131.2 5.7 205.4 5.6-104.2 5.7.8 5.7 92.1 5.6-54.7 5.7 58.7 5.7-5.8 5.6-81.3 5.7 19.4 5.7 91.6 5.6-14.2 5.7-84.7 5.7 83.1 5.7-7.9 5.6-74.2 5.7 50.3 5.7-67.9 5.6-42.1 5.7 155.5 5.7-85 5.6 42.1 5.7-135.7 5.7 164.1 5.6-101.3 5.7 95.5 5.7-47.6 5.6-140.7 5.7 213.9 5.7-159.7 5.6 155.7 5.7-104.7 5.7-100.5 5.6 171.3 5.7-44.5 5.7-86.8 5.6 137.3 5.7-16 5.7-58.7 5.6 100.8 5.7-100 5.7 83.9 5.6 14 5.7-81.3 5.7-147.1 5.6 213.4 5.7 11.8 5.7-163.6 5.7 154.7 5.6-56.3 5.7-64.2 5.7 129.9 5.6-16.3 5.7-43.1L377 387l5.6-115.8 5.7 136.3 5.7-108.9 5.6 100 5.7 2.6L411 282l5.6 125.8 5.7 11.6 5.7-115.3 5.6 63.4 5.7-50.7 5.7-40.3 5.6 61.3 5.7 36 5.7-182 5.6 128.1 5.7-24.5 5.7 12.9 5.6-78.6 5.7 102.3 5.7 86 5.6 16.1 5.7-129.2 5.7 93.7 5.6-4.2 5.7-136.6 5.7 92.4 5.7 37.6 5.6-64.7 5.7 95.5 5.7-34 5.6-54.4 5.7 20.2 5.7 66.6 5.6-98.7 5.7 97.9 5.7 14.2 5.6-221.5 5.7 182.3 5.7-22.1 5.6-48.4 5.7-157.8" fill="none" color="#000"/><text transform="translate(525.3 485.9)" stroke="none" fill="#000" font-family="Arial" font-size="12" text-anchor="end" color="#000"><tspan>pages+cached+noexternal</tspan></text><path stroke="#009E73" d="M533.6 482h42.2M53.9 200l5.7 211.5 5.6-204.4 5.7 230.7 5.7-27.9 5.6-87.9 5.7-29.7 5.7-6.1 5.6 103.2 5.7-152.1 5.7 126 5.6 65 5.7-123.9 5.7 103.9 5.6-60 5.7-40.2 5.7 94.4 5.7-210.2 5.6 56.1 5.7 52.3 5.7-151 5.6 172.6 5.7-69.2 5.7-34.7 5.6 194.9 5.7-86.3 5.7 12.4 5.6-119.2 5.7 125 5.7-50.5 5.6-101.1 5.7 198.1 5.7-172.8 5.6 124.2 5.7-74.2 5.7 119.4 5.6-83.1 5.7 39.4 5.7-128.1 5.6 101.3 5.7-58.7 5.7 95.3 5.6-134.5 5.7 76.9 5.7 125.2 5.6-197.8 5.7 4.4 5.7 85 5.6-287.3 5.7 308.3 5.7 54.2L343 252l5.6 147.9 5.7 14.5 5.7-84.8 5.6 57.9 5.7-61 5.7-33.9 5.6 53.1 5.7-93.9 5.7 11.8 5.6 63.4 5.7 24.5 5.7-63.7 5.6 24 5.7 93.6 5.7-15.2 5.6-251.5 5.7 172.5 5.7 60.3 5.6-17.4 5.7-98.4L462 422l5.6-24.5 5.7-110.5 5.7-79.2 5.6 94.8 5.7-135 5.7 238.6 5.6-203.9 5.7-20 5.7 211.8 5.6-107.1 5.7-52.1 5.7-64.7 5.7 51.6 5.6-147.9 5.7 173.9 5.7-46.3 5.6 126 5.7 78.7 5.7-146.5 5.6 35 5.7 66.5 5.7 60 5.6-73.7 5.7-13.4 5.7-186.8 5.6 261 5.7-14.7" fill="none" color="#000"/><g fill="none" color="#000" stroke="currentColor"><path stroke="#000" d="M53.9 18.1V446H615V18.1H53.9z"/></g></svg>