<svg width="640" height="500" xmlns="http://www.w3.org/2000/svg" xmlns:xlink="http://www.w3.org/1999/xlink"><path fill="#fff" d="M0 0h640v500H0z"/><defs><path id="d" stroke-width=".222" stroke="currentColor" d="M-1-1h2v2h-2z"/><path id="b" stroke-width=".222" stroke="currentColor" d="M0-1.33l-1.33 2h2.66z"/><path id="f" stroke-width=".222" stroke="currentColor" d="M0 1.33L1.265.411.782-1.067l-1.564-.009-.483 1.487z"/><use xlink:href="#b" id="c" stroke="currentColor" transform="rotate(180)"/><use xlink:href="#d" id="e" stroke="currentColor" transform="rotate(45)"/><circle id="a" stroke-width=".222" stroke="currentColor" cx="0" cy="0" r="1"/></defs><g fill="none" color="#000" stroke="currentColor"><path stroke="#000" d="M53.9 381.2h9m552.1 0h-9"/><text transform="translate(45.6 385.1)" stroke="none" fill="#000" font-family="Arial" font-size="12" text-anchor="end"><tspan>1.4</tspan></text></g><g fill="none" color="#000" stroke="currentColor"><path stroke="#000" d="M53.9 323h9m552.1 0h-9"/><text transform="translate(45.6 326.9)" stroke="none" fill="#000" font-family="Arial" font-size="12" text-anchor="end"><tspan>1.6</tspan></text></g><g fill="none" color="#000" stroke="currentColor"><path stroke="#000" d="M53.9 264.9h9m552.1 0h-9"/><text transform="translate(45.6 268.8)" stroke="none" fill="#000" font-family="Arial" font-size="12" text-anchor="end"><tspan>1.8</tspan></text></g><g fill="none" color="#000" stroke="currentColor"><path stroke="#000" d="M53.9 206.8h9m552.1 0h-9"/><text transform="translate(45.6 210.7)" stroke="none" fill="#000" font-family="Arial" font-size="12" text-anchor="end"><tspan>2</tspan></text></g><g fill="none" color="#000" stroke="currentColor"><path stroke="#000" d="M53.9 148.6h9m552.1 0h-9"/><text transform="translate(45.6 152.5)" stroke="none" fill="#000" font-family="Arial" font-size="12" text-anchor="end"><tspan>2.2</tspan></text></g><g fill="none" color="#000" stroke="currentColor"><path stroke="#000" d="M53.9 90.5h9m552.1 0h-9"/><text transform="translate(45.6 94.4)" stroke="none" fill="#000" font-family="Arial" font-size="12" text-anchor="end"><tspan>2.4</tspan></text></g><g fill="none" color="#000" stroke="currentColor"><path stroke="#000" d="M53.9 32.4h9m552.1 0h-9"/><text transform="translate(45.6 36.3)" stroke="none" fill="#000" font-family="Arial" font-size="12" text-anchor="end"><tspan>2.6</tspan></text></g><g fill="none" color="#000" stroke="currentColor"><path stroke="#000" d="M53.9 428v-9m0-400.9v9"/><text transform="translate(53.9 449.9)" stroke="none" fill="#000" font-family="Arial" font-size="12" text-anchor="middle"><tspan>0</tspan></text></g><g fill="none" color="#000" stroke="currentColor"><path stroke="#000" d="M110.6 428v-9m0-400.9v9"/><text transform="translate(110.6 449.9)" stroke="none" fill="#000" font-family="Arial" font-size="12" text-anchor="middle"><tspan>10</tspan></text></g><g fill="none" color="#000" stroke="currentColor"><path stroke="#000" d="M167.3 428v-9m0-400.9v9"/><text transform="translate(167.3 449.9)" stroke="none" fill="#000" font-family="Arial" font-size="12" text-anchor="middle"><tspan>20</tspan></text></g><g fill="none" color="#000" stroke="currentColor"><path stroke="#000" d="M223.9 428v-9m0-400.9v9"/><text transform="translate(223.9 449.9)" stroke="none" fill="#000" font-family="Arial" font-size="12" text-anchor="middle"><tspan>30</tspan></text></g><g fill="none" color="#000" stroke="currentColor"><path stroke="#000" d="M280.6 428v-9m0-400.9v9"/><text transform="translate(280.6 449.9)" stroke="none" fill="#000" font-family="Arial" font-size="12" text-anchor="middle"><tspan>40</tspan></text></g><g fill="none" color="#000" stroke="currentColor"><path stroke="#000" d="M337.3 428v-9m0-400.9v9"/><text transform="translate(337.3 449.9)" stroke="none" fill="#000" font-family="Arial" font-size="12" text-anchor="middle"><tspan>50</tspan></text></g><g fill="none" color="#000" stroke="currentColor"><path stroke="#000" d="M394 428v-9m0-400.9v9"/><text transform="translate(394 449.9)" stroke="none" fill="#000" font-family="Arial" font-size="12" text-anchor="middle"><tspan>60</tspan></text></g><g fill="none" color="#000" stroke="currentColor"><path stroke="#000" d="M450.6 428v-9m0-400.9v9"/><text transform="translate(450.6 449.9)" stroke="none" fill="#000" font-family="Arial" font-size="12" text-anchor="middle"><tspan>70</tspan></text></g><g fill="none" color="#000" stroke="currentColor"><path stroke="#000" d="M507.3 428v-9m0-400.9v9"/><text transform="translate(507.3 449.9)" stroke="none" fill="#000" font-family="Arial" font-size="12" text-anchor="middle"><tspan>80</tspan></text></g><g fill="none" color="#000" stroke="currentColor"><path stroke="#000" d="M564 428v-9m0-400.9v9"/><text transform="translate(564 449.9)" stroke="none" fill="#000" font-family="Arial" font-size="12" text-anchor="middle"><tspan>90</tspan></text></g><path stroke="#000" d="M53.9 18.1V428H615V18.1H53.9z" fill="none" color="#000"/><text transform="translate(433.7 467.9)" stroke="none" fill="#000" font-family="Arial" font-size="12" text-anchor="end" color="#000"><tspan>pages+cached+noexternal+nofonts</tspan></text><path stroke="#9400D3" d="M442 464h42.2M53.9 290.2l5.7 27.9 5.6 77 5.7-84.9 5.7 100.9 5.6-179.3 5.7 155.8 5.7-156.1h5.6l5.7 41 5.7 124.9 5.6-23.2 5.7-137.8 5.7 48 5.6 113.3 5.7-9.8 5.7-238.7 5.7 208.1 5.6 49.4 5.7-308.3 5.7 289.2 5.6-80 5.7-11.9 5.7-23.8 5.6 106.7 5.7-106.7 5.7 19.2L206.9 26l5.7 372.6 5.7-139.5 5.6 65.1 5.7 50.3 5.7-130.5 5.6 162.7 5.7-97.6 5.7-95.9 5.6 197.9 5.7-263.9 5.7 236 5.6-94.8 5.7-11 5.7 28.8 5.6-94.8 5.7 149.7 5.7 26.5 5.6-125.3 5.7-104.1 5.7 52.1 5.6 35.4 5.7 172.7 5.7 1.7L343 280l5.6-108.7 5.7 35.5 5.7 202.6 5.6-60.2 5.7-89.5L377 289l5.6 93.9 5.7 11.3L394 294l5.6 70.3 5.7-57.2 5.7-58.5 5.6 42.5 5.7-56.7 5.7 48.5 5.6 79.4 5.7-40.1L445 289l5.6 14.9 5.7 52.9 5.7 31.1 5.6-124.7 5.7 120.9 5.7-71.8 5.6-58.4 5.7 34.8 5.7 92.5 5.6-145.4 5.7 180.8 5.7-63 5.6-116.6 5.7 154.1 5.7 11.3 5.7-156.7 5.6 107L547 389l5.7-208.7 5.6 217.7 5.7-36.3 5.7-213.1 5.6 244.2 5.7-115.4 5.7-70.9 5.6 193 5.7-73.6 5.7-168.5 5.6 235.7 5.7-62.8" fill="none" color="#000"/><text transform="translate(433.7 485.9)" stroke="none" fill="#000" font-family="Arial" font-size="12" text-anchor="end" color="#000"><tspan>pages+cached+noexternal+nosvg</tspan></text><path stroke="#009E73" d="M442 482h42.2M53.9 234.7l5.7-2.1 5.6 80 5.7-23.3 5.7-61.6 5.6 101.2 5.7-6.2 5.7 54.7L99.2 185l5.7 34.9 5.7 42.4 5.6 22.7 5.7-22.1 5.7 126.4 5.6 13.1 5.7-171.5 5.7 163.1 5.7-199.4 5.6 120.9 5.7-62.2 5.7-66.3 5.6 110.5 5.7-16.6 5.7-86.6 5.6 76.1 5.7-32.8 5.7-51.5 5.6 149.7 5.7 52.1 5.7-181.4 5.6 110.7 5.7 40.1 5.7-41.5 5.6 17.7 5.7-123.5 5.7 111.6 5.6-161.9 5.7 15.7 5.7 111.3 5.6-215.1 5.7 23.3 5.7 164.2 5.6 57.5 5.7-144.7 5.7 39.2 5.6 80.5 5.7-80.5 5.7 73.3 5.6-151.7 5.7 49.4 5.7 122.9 5.7-65.1 5.6-1.7 5.7-14.9 5.7 36.1 5.6-219.8 5.7 275.3 5.7-92.7 5.6-27.9 5.7 16.8 5.7 109.3 5.6-177.6 5.7 148.3 5.7-67.2 5.6 62.5 5.7 8.4 5.7-108.1 5.6 202 5.7.3 5.7-110.4 5.6 57.2 5.7-201.7 5.7 215.7 5.6-64.8 5.7-22.1 5.7 21.2 5.6-91 5.7 180.5 5.7-95.3 5.6 36.6 5.7-45.1 5.7-5.5 5.6 121.5 5.7-98.5 5.7 32 5.7 73.2 5.6-137.8 5.7 45.1 5.7-42.7 5.6-89.3 5.7 61.6 5.7 89 5.6-214.5 5.7 197.3 5.7 66.3 5.6-127.3 5.7 67.1 5.7 82.6 5.6 6.7 5.7-126.5" fill="none" color="#000"/><g fill="none" color="#000" stroke="currentColor"><path stroke="#000" d="M53.9 18.1V428H615V18.1H53.9z"/></g></svg>