<svg width="640" height="500" xmlns="http://www.w3.org/2000/svg" xmlns:xlink="http://www.w3.org/1999/xlink"><path fill="#fff" d="M0 0h640v500H0z"/><defs><path id="d" stroke-width=".222" stroke="currentColor" d="M-1-1h2v2h-2z"/><path id="b" stroke-width=".222" stroke="currentColor" d="M0-1.33l-1.33 2h2.66z"/><path id="f" stroke-width=".222" stroke="currentColor" d="M0 1.33L1.265.411.782-1.067l-1.564-.009-.483 1.487z"/><use xlink:href="#b" id="c" stroke="currentColor" transform="rotate(180)"/><use xlink:href="#d" id="e" stroke="currentColor" transform="rotate(45)"/><circle id="a" stroke-width=".222" stroke="currentColor" cx="0" cy="0" r="1"/></defs><g fill="none" color="#000" stroke="currentColor"><path stroke="#000" d="M53.9 414.8h9m552.1 0h-9"/><text transform="translate(45.6 418.7)" stroke="none" fill="#000" font-family="Arial" font-size="12" text-anchor="end"><tspan>1.4</tspan></text></g><g fill="none" color="#000" stroke="currentColor"><path stroke="#000" d="M53.9 358.1h9m552.1 0h-9"/><text transform="translate(45.6 362)" stroke="none" fill="#000" font-family="Arial" font-size="12" text-anchor="end"><tspan>1.6</tspan></text></g><g fill="none" color="#000" stroke="currentColor"><path stroke="#000" d="M53.9 301.5h9m552.1 0h-9"/><text transform="translate(45.6 305.4)" stroke="none" fill="#000" font-family="Arial" font-size="12" text-anchor="end"><tspan>1.8</tspan></text></g><g fill="none" color="#000" stroke="currentColor"><path stroke="#000" d="M53.9 244.8h9m552.1 0h-9"/><text transform="translate(45.6 248.7)" stroke="none" fill="#000" font-family="Arial" font-size="12" text-anchor="end"><tspan>2</tspan></text></g><g fill="none" color="#000" stroke="currentColor"><path stroke="#000" d="M53.9 188.1h9m552.1 0h-9"/><text transform="translate(45.6 192)" stroke="none" fill="#000" font-family="Arial" font-size="12" text-anchor="end"><tspan>2.2</tspan></text></g><g fill="none" color="#000" stroke="currentColor"><path stroke="#000" d="M53.9 131.5h9m552.1 0h-9"/><text transform="translate(45.6 135.4)" stroke="none" fill="#000" font-family="Arial" font-size="12" text-anchor="end"><tspan>2.4</tspan></text></g><g fill="none" color="#000" stroke="currentColor"><path stroke="#000" d="M53.9 74.8h9m552.1 0h-9"/><text transform="translate(45.6 78.7)" stroke="none" fill="#000" font-family="Arial" font-size="12" text-anchor="end"><tspan>2.6</tspan></text></g><g fill="none" color="#000" stroke="currentColor"><path stroke="#000" d="M53.9 18.1h9m552.1 0h-9"/><text transform="translate(45.6 22)" stroke="none" fill="#000" font-family="Arial" font-size="12" text-anchor="end"><tspan>2.8</tspan></text></g><g fill="none" color="#000" stroke="currentColor"><path stroke="#000" d="M53.9 446v-9m0-418.9v9"/><text transform="translate(53.9 467.9)" stroke="none" fill="#000" font-family="Arial" font-size="12" text-anchor="middle"><tspan>0</tspan></text></g><g fill="none" color="#000" stroke="currentColor"><path stroke="#000" d="M110.6 446v-9m0-418.9v9"/><text transform="translate(110.6 467.9)" stroke="none" fill="#000" font-family="Arial" font-size="12" text-anchor="middle"><tspan>10</tspan></text></g><g fill="none" color="#000" stroke="currentColor"><path stroke="#000" d="M167.3 446v-9m0-418.9v9"/><text transform="translate(167.3 467.9)" stroke="none" fill="#000" font-family="Arial" font-size="12" text-anchor="middle"><tspan>20</tspan></text></g><g fill="none" color="#000" stroke="currentColor"><path stroke="#000" d="M223.9 446v-9m0-418.9v9"/><text transform="translate(223.9 467.9)" stroke="none" fill="#000" font-family="Arial" font-size="12" text-anchor="middle"><tspan>30</tspan></text></g><g fill="none" color="#000" stroke="currentColor"><path stroke="#000" d="M280.6 446v-9m0-418.9v9"/><text transform="translate(280.6 467.9)" stroke="none" fill="#000" font-family="Arial" font-size="12" text-anchor="middle"><tspan>40</tspan></text></g><g fill="none" color="#000" stroke="currentColor"><path stroke="#000" d="M337.3 446v-9m0-418.9v9"/><text transform="translate(337.3 467.9)" stroke="none" fill="#000" font-family="Arial" font-size="12" text-anchor="middle"><tspan>50</tspan></text></g><g fill="none" color="#000" stroke="currentColor"><path stroke="#000" d="M394 446v-9m0-418.9v9"/><text transform="translate(394 467.9)" stroke="none" fill="#000" font-family="Arial" font-size="12" text-anchor="middle"><tspan>60</tspan></text></g><g fill="none" color="#000" stroke="currentColor"><path stroke="#000" d="M450.6 446v-9m0-418.9v9"/><text transform="translate(450.6 467.9)" stroke="none" fill="#000" font-family="Arial" font-size="12" text-anchor="middle"><tspan>70</tspan></text></g><g fill="none" color="#000" stroke="currentColor"><path stroke="#000" d="M507.3 446v-9m0-418.9v9"/><text transform="translate(507.3 467.9)" stroke="none" fill="#000" font-family="Arial" font-size="12" text-anchor="middle"><tspan>80</tspan></text></g><g fill="none" color="#000" stroke="currentColor"><path stroke="#000" d="M564 446v-9m0-418.9v9"/><text transform="translate(564 467.9)" stroke="none" fill="#000" font-family="Arial" font-size="12" text-anchor="middle"><tspan>90</tspan></text></g><path stroke="#000" d="M53.9 18.1V446H615V18.1H53.9z" fill="none" color="#000"/><text transform="translate(275.6 485.9)" stroke="none" fill="#000" font-family="Arial" font-size="12" text-anchor="end" color="#000"><tspan>pages+cached+noexternal+nosvg</tspan></text><path stroke="#9400D3" d="M283.9 482h42.2M53.9 272l5.7-2 5.6 77.9 5.7-22.6 5.7-60.1 5.6 98.6 5.7-5.9 5.7 53.2 5.6-187.6 5.7 34.1 5.7 41.3 5.6 22.1 5.7-21.5 5.7 123.3 5.6 12.7 5.7-167.2 5.7 159 5.7-194.4 5.6 117.9 5.7-60.7 5.7-64.6 5.6 107.7 5.7-16.1 5.7-84.5 5.6 74.3 5.7-32.1 5.7-50.1 5.6 145.9 5.7 50.7 5.7-176.8 5.6 108 5.7 39.1 5.7-40.5 5.6 17.2 5.7-120.4 5.7 108.8 5.6-157.8 5.7 15.3 5.7 108.5 5.6-209.7 5.7 22.7 5.7 160.1 5.6 56.1 5.7-141.1 5.7 38.3 5.6 78.4 5.7-78.4 5.7 71.4 5.6-148 5.7 48.2 5.7 119.9 5.7-63.5 5.6-1.7 5.7-14.4 5.7 35.1 5.6-214.2 5.7 268.3 5.7-90.4 5.6-27.2 5.7 16.5 5.7 106.5 5.6-173.1 5.7 144.5 5.7-65.5 5.6 60.9 5.7 8.3 5.7-105.5 5.6 197 5.7.3 5.7-107.7 5.6 55.8 5.7-196.6 5.7 210.2 5.6-63.2 5.7-21.5 5.7 20.7 5.6-88.7 5.7 176 5.7-93 5.6 35.7 5.7-43.9 5.7-5.4 5.6 118.5 5.7-96.1 5.7 31.2 5.7 71.4 5.6-134.3 5.7 43.9 5.7-41.7 5.6-87 5.7 60.1 5.7 86.7 5.6-209.1 5.7 192.4 5.7 64.6 5.6-124.1 5.7 65.4 5.7 80.5 5.6 6.5 5.7-123.2" fill="none" color="#000"/><text transform="translate(575.1 485.9)" stroke="none" fill="#000" font-family="Arial" font-size="12" text-anchor="end" color="#000"><tspan>pages+cached+noexternal+noimg</tspan></text><path stroke="#009E73" d="M583.4 482h42.2M53.9 392.4l5.7-187.6 5.6 83.9 5.7 62.4 5.7-32.3 5.6 94.3 5.7-89.8 5.7-227 5.6 337.8 5.7-199.5 5.7-57.8 5.6 255 5.7-112.5 5.7-68.3 5.6 49.9 5.7 62.1 5.7 10.4 5.7-24.9 5.6-19.3 5.7-120.7 5.7 173.4 5.6 28.1 5.7-75.9 5.7-117.1 5.6 86.5 5.7 54.9 5.7-42.5 5.6-13 5.7 20.4 5.7 108.8 5.6-125 5.7 36.6 5.7-122.4 5.6 185.6 5.7-178.5 5.7 107.4 5.6-179.4 5.7 201.5 5.7-6.3 5.6-24.6 5.7-23.8 5.7-192.7 5.6 189.8 5.7 137.5 5.7-172.3 5.6 7.1 5.7 32 5.7 130.1 5.6-203.5 5.7 24.7 5.7 119.8 5.7-115.6 5.6 30 5.7 144.3 5.7-293.9 5.6 176 5.7 109.9 5.7-170.5 5.6-229.6 5.7 359.6L394 94.3l5.6 240.6 5.7 26.1 5.7-151.6 5.6 40.5 5.7 149.9 5.7-84.7 5.6-52.2 5.7 19.6 5.7 13.9 5.6-170.9 5.7 189.3L462 302l5.6 27 5.7 5.1 5.7 77.3 5.6-87.5 5.7-79.4 5.7 164.7 5.6-95.8 5.7-10.8 5.7 19.6 5.6-129 5.7 244.6 5.7-113.1 5.7-5.7 5.6 35.5 5.7-103.2 5.7 1.7 5.6 62.1 5.7 99.2 5.7-98.9 5.6-25.3 5.7 9.1 5.7-5.4 5.6 117.1 5.7-114.5 5.7 2.8 5.6 111.1L615 302" fill="none" color="#000"/><g fill="none" color="#000" stroke="currentColor"><path stroke="#000" d="M53.9 18.1V446H615V18.1H53.9z"/></g></svg>