<svg width="640" height="4440" xmlns="http://www.w3.org/2000/svg" xmlns:xlink="http://www.w3.org/1999/xlink"><path fill="#fff" d="M0 0h640v4440H0z"/><defs><path id="d" stroke-width=".222" stroke="currentColor" d="M-1-1h2v2h-2z"/><path id="b" stroke-width=".222" stroke="currentColor" d="M0-1.33l-1.33 2h2.66z"/><path id="f" stroke-width=".222" stroke="currentColor" d="M0 1.33L1.265.411.782-1.067l-1.564-.009-.483 1.487z"/><use xlink:href="#b" id="c" stroke="currentColor" transform="rotate(180)"/><use xlink:href="#d" id="e" stroke="currentColor" transform="rotate(45)"/><circle id="a" stroke-width=".222" stroke="currentColor" cx="0" cy="0" r="1"/></defs><path stroke="#000" d="M20.7 18.1v4405.3H615V18.1H20.7z" fill="none" color="#000"/><path stroke="#9400D3" d="M22.6 18.1l4.1 4343.3 5.9 62m.4 0l5.7-7.2 1.8 7.2m35.8 0l4.4-14.2 3.3 14.2m5.7 0l3-10.5 2.2 10.5m6.5 0l3.3-21.2 3.7 21.2m25.4 0l1-1.9 1 1.9m28.2 0l.8-1.3 6-12.7 2.3 14m21.4 0l.3-.7.1.7m50.9 0l3-9.1 5.1 9.1m27.4 0l3.5-12.4 3.4 12.4m3.5 0l5.1-53 6 46.2 1.7 6.8m8.9 0l1.4-4.9 1.3 4.9m31.5 0l3.3-3.4 1 3.4m8.8 0l2.2-8.4 1.7 8.4m7.5 0l2.8-17 2.7 17m21.9 0l5.4-49.3 5.9 49.3m8.5 0l3.6-9.5 6 2.8 1.2 6.7m79.4 0l3.4-20.2 3 20.2m42.2 0l2.9-9.5 2.7 9.5m5.1 0l4.2-24.7 2.9 24.7" fill="none" color="#000"/><path stroke="#009E73" d="M20.7 4245.8H615" fill="none" color="#000"/><path stroke="#56B4E9" d="M20.7 4045.9l6 82.9 6-58 6 58H615" fill="none" color="#000"/><path stroke="#E69F00" d="M20.7 4008.9H615" fill="none" color="#000"/><path stroke="#F0E442" d="M20.7 3890.5H615" fill="none" color="#000"/><path stroke="#0072B2" d="M26.3 4423.4l.4-834.5h30l6 82.9h6l6-82.9 6 82.9 6-82.9h6l6 82.9 6-82.9 6 82.9 6-82.9 6.1 82.9 6-82.9 6 82.9h12l6-82.9h12l6 82.9 6-82.9h6l6 82.9h6l6-82.9h36l6 82.9h6l6-82.9h12l6 82.9 6-82.9h12l6 77.4 6-77.4h6l6 82.9h12.1l6-82.9h6l6 82.9h18l6-82.9 6 82.9h6l6-82.9 6 82.9 6-82.9 6 82.9 6-82.9h18l6 82.9 6-82.9h36l6 82.9 6-82.9h6l6 82.9 6-82.9 6 82.9 6.1-82.9h12l6 82.9 6-82.9h6l6 82.9 6-82.9 6 82.9h12l6-82.9h6l6 82.9 6-82.9 6 82.9h6" fill="none" color="#000"/><path stroke="#E51E10" d="M20.7 3653.7H615" fill="none" color="#000"/><path stroke="#000" d="M20.7 2957.9l6 621.7 6-331.6 6 331.6 6-41.5 6 41.5 6-41.5h24l6-41.4 6 41.4h24l6.1 41.5h6l6-41.5h30l6 41.5 6-41.5h156.1l6 41.5 6-41.5h24l6 41.5 6-41.5h24l6 41.5 6-41.5h12l6 41.5h6l6-41.5h12l6 41.5 6-41.5h36l6 41.5 6.1-41.5 6 41.5 6-41.5h72l6 41.5 6-41.5" fill="none" color="#000"/><path stroke="#9400D3" d="M20.7 3416.8H615" fill="none" color="#000"/><path stroke="#009E73" d="M20.7 3298.4H615" fill="none" color="#000"/><path stroke="#56B4E9" d="M20.7 3180H615" fill="none" color="#000"/><path stroke="#E69F00" d="M20.7 3061.5H615" fill="none" color="#000"/><path stroke="#F0E442" d="M20.7 2943.1H615" fill="none" color="#000"/><path stroke="#0072B2" d="M20.7 2906.8l6-82.9H615" fill="none" color="#000"/><path stroke="#E51E10" d="M20.7 3327.6l6-658.2 6 2.7 6 45.9 6-20.2 6-2.2 6-10.2 6 36.2 6-2 6-9.6 6 21.3 6-38.4 6 3.5 6-11.6 6 19.9 6 2.5 6-18.2 6.1-5.5 6-2.5 6-5 6-16.3 6 50 6-32.6 6-4.7h6l6 43.7 6-29.3 6 5.2 6-20.4 6 54.1 6-8.3 6-32.8 6 3.8 6-26.5 6 50.8 6 .6 6 9 6 14.2 6-47.8 6 28.5 6 22.1 6-15.8 6-52.2 6 44.2 6-11.6 6 31.5 6-.8 6-5.8 6 17.1 6-108.2 6.1 74.2 6-36 6-18.7 6 82.1 6-49.5 6-8 6 49.5 6-68 6 59.6 6-54.1 6 33.7 6 17.4 6-49.2 6 51.7 6-22.5 6-18.9 6-9.4 6-5.8 6 82.9 6-58 6 46.9 6-56.4 6 43.1 6-31.2 6-71 6 94.8 6 5.5 6-10.3 6 12.1 6 10.1 6-20.2 6-45.6 6 30.2 6.1-28 6 40.5 6-16.2 6 17.5 6-19.9 6 17.4 6 37.3 6-84.5 6-1.5 6 54.8 6-36 6 16.6 6 40.9 6-21.8 6 28.9 6-66.2 6 25.7" fill="none" color="#000"/><path stroke="#9400D3" d="M20.7 2704.9l6 77.7 6-287.8 6-62.6 6 1.5 6-.5h6l6 70.7 6 5.9 6-77.7 6 77.9 6-78.1 6-3.6 6 75.5 6-71.1 6 70.9 6-70.8 6.1 71.7 6-72.5 6 78.6 6-4.5 6-2.3 6-69.7 6 .6 6 .3 6 69.7 6-71.4 6 1.9 6 70 6 3.9 6-74.5 6-1 6 .4 6-.6 6 1.7 6-2.9 6 1.6 6 69.9 6 8.7 6-78.4h6l6-.1 6 70.2 6-71.7 6 2.2 6-1.4 6 78.6 6-77.9 6 .2 6 70.1 6.1 6.9 6-5.9 6-77 6 5.4 6 70.8 6 6.3 6-.7 6-.2 6-74.1 6 70.3 6 .1 6-72.5 6 78.1 6-77.9 6 71.5 6-70 6-1.8 6 1.4 6 .5 6 74.7 6-75.4 6-.5h6l6 .3 6-2 6 2.7 6-1.3 6 77.2 6-75.8 6-.7 6 69.5 6-69.4 6 70.5 6.1-70.5 6 1.8 6-2.1 6 76.8 6-76.8 6 .9 6 76.3 6-76.9 6 76.8 6-1.5 6 .6 6-75.9 6 1 6 77.7 6-79.7 6 71.1 6-1" fill="none" color="#000"/><path stroke="#009E73" d="M26.1 4423.4l.6-2446.7 6 165.8 6-82.9 6 41.5h24l6-41.5 6 41.5 6-41.5 6 41.5 6-41.5h18l6.1 41.5 6-41.5 6 41.5 6 41.4 6-41.4h42l6-41.5 6 41.5h24l6-41.5 6 41.5 6-41.5 6 82.9 6-41.4h18l6-41.5 6 41.5h6l6 41.4 6-41.4h60.1l6 41.4h12l6-41.4h18l6 41.4 6-41.4h6l6 41.4 6-41.4h24l6-41.5 6 41.5h12l6 41.4 6-41.4H519l6 41.4 6-41.4h12l6 41.4 6-41.4h30l6 41.4h6l6-41.4h6l6-41.5" fill="none" color="#000"/><path stroke="#56B4E9" d="M20.7 3778.6l6-1492.1 6-580.3 6 497.4h6l6 82.9 6-82.9h6l6 82.9 6-82.9h6l6-82.9 6 82.9 6 165.8 6-165.8 6 82.9 6-82.9 6.1 82.9h6l6-82.9h30l6 82.9 6-82.9h30l6 82.9 6-82.9h6l6 82.9 6-82.9h60l6 248.7 6-248.7h18.1l6 82.9 6-82.9h6l6 82.9h6l6-82.9h6l6 82.9 6-82.9h24l6 82.9 6-82.9h6l6 82.9h6l6-82.9h18l6 82.9 6-82.9 6-82.9h6l6 82.9h18l6 82.9 6.1-82.9h42l6 82.9 6-82.9h30l6 82.9 6-82.9" fill="none" color="#000"/><path stroke="#E69F00" d="M20.7 1206.8l6 905.8 6-83.3 6 86.2 6-.1 6-56.2 6 100.5 6-63.5 6 54 6-38.5 6 40.6 6-23.5 6-28.3 6-44.8 6 51.9 6-3.8 6 51.3 6.1-31.7 6 1 6 20.5 6-36.9 6-8.9 6 14.4 6 19.5 6-36.4 6 5.3 6 47.6 6-47.7 6 12.6 6 30.4 6-49.5 6 57 6 6.6 6-7.6 6 1.2 6-47.5 6 24.2 6-114.3 6 109.7 6-4 6-22.5 6 13.1 6-15.4 6-18.7 6 58.9 6-43.1 6 59.4 6-5.9 6-5.9 6-38.7 6.1 41.7 6-87.1 6 95.7 6 5.2 6-65.9 6 57.6 6 1.1 6-17.7 6-30.2 6 22.8 6 26.9 6-11 6 4.2 6-9.2 6-43.5 6 22.4 6 34.5 6-33.9 6 31.8 6 13.4 6 6.5 6-15.7 6-64.2 6 20.5 6 14.1 6 15.6 6-22 6 18.1 6 9.4 6-34 6-10 6 2.7 6 17.6 6.1 41 6-.2 6-15.7 6-4.1 6 7.4 6-2.4 6-4.6 6-34.5 6 52.1 6-19 6 9.5 6-48.7 6 44.9 6 .4 6-10.3 6-15.9 6-15.2" fill="none" color="#000"/><path stroke="#F0E442" d="M20.7 1989.4l6-8.7 6 24 6-25.9 6 4.3 6-76.2 6 120.8 6-63.6 6 48.5 6-26.1 6 38.2 6-4 6-35.4 6-104.9 6 102.8 6-23.6 6 66.1 6.1-73.6 6 24.2 6 48.8 6-41.8 6-2.1 6-8.5 6 50.7 6-53.8 6-26.9 6 78.6 6-43.4 6 12.6 6 22.2 6-33.6 6 37.1 6 13 6 3.7 6 5 6-82.1 6 46.2 6-120.4 6 135.7 6-10.9 6-26.2 6 .3 6-14.8 6-25.1 6 78.7 6-51.1 6 56.5 6-92.2 6 99.3 6-56.1 6.1 44.4 6-90.1 6 78.5 6 6.6 6-43.4 6 31.4 6-2.5 6 12.8 6-22.9 6-16.7 6 56.6 6-20.7 6 27.1 6-29.6 6-34.1 6-18.1 6 70.2 6-36.6 6 22.9 6 15 6 2.4 6-4.5 6-62.7 6 42.1 6-17.5 6 31.6 6 10.1 6 16.8 6-23.2 6-36.4 6-20 6 25.5 6-7 6.1 48.9 6-11.2 6 10.1 6-10.2 6 3.7 6 2.1 6 1 6-46.8 6 35 6-3.5 6 13.9 6-50.6 6 52.2 6-3.9 6-.4 6-53.1 6 2.8" fill="none" color="#000"/><g><path stroke="#0072B2" d="M20.7 1905.8l6-11.4 6-70 6 71.9 6 .9 6-74.6 6 74.4 6-137.9 6 137.8 6-.6 6 .9 6-75.5 6 75.9 6-.7 6-.2h6l6-74.3 6.1 74.9 6-1.3 6 1.5 6 .6 6-1.2 6-73.5 6 74.2 6 .4 6-.5 6-.5 6-73 6 73.7 6-1.2 6 1.2 6-.6 6-49.9 6-24.3 6 1.1 6 72.5 6 .8 6-74.8 6 76 6-75.3 6 74.3 6-.1 6-.4 6-.5 6 1.4 6-.9 6 1.3 6-1 6 .2 6-.4 6.1-49.5 6 50.3 6-.5 6-74.5 6 74.2 6 .4 6-74.6 6 74 6-48.5 6 49.8 6-73.9 6-1.4 6 75 6-74.8 6 74.5 6 .5 6-1.2 6 1 6 .3 6-1.2 6-73.4 6 74 6-74.2 6 74.2 6-.9 6 1.4 6-.8 6 .4 6 .6 6-.5 6-75 6 75 6-.1 6.1-50 6 51.2 6-1h6l6-.1 6-73.7 6-.2 6 74 6 .2 6-1 6 .4 6 .3 6-73.3 6 24.8 6 48.2 6 .1 6-75" fill="none" color="#000"/></g><g><path stroke="#E51E10" d="M20.7 1687l6 43.5 6 81.5 6-82.9h6l6 78.7 6-54.8 6 5.6 6-11.2 6-16.9 6 16.9 6 57.6 6-73.1 6 2.8 6-7 6 1.4 6 77.3 6.1-78.7h6l6 19.7 6-15.5 6-4.2 6 81.5 6-60.4 6 14 6-26.7 6 12.7 6 63.2 6-82.9 6 19.7 6-18.3 6 15.5 6 63.2 6-1.4 6 2.8 6-71.7 6 8.5 6 59 6-57.6 6 60.4 6-77.3 6 2.8 6-4.2 6 2.8 6 14.1 6-12.7 6 9.9 6 5.6 6 1.4 6-19.7 6.1 78.7 6-52 6-4.2 6 53.4 6-77.3 6 15.5 6 61.8 6-59 6 63.2 6-80.1 6 80.1 6-4.2 6-56.2 6 57.6 6-78.7 6 1.4 6 14.1 6-11.3 6 18.3 6-11.3 6 68.9 6-60.4 6 59 6-77.3 6 4.2 6 12.7 6-15.5 6 14.1 6-1.4 6-11.3 6 73.1 6-78.7 6 5.6 6.1 75.9 6-63.2 6 2.8 6 2.8 6-1.4 6 60.4 6-1.4 6-75.9 6 16.9h6l6 1.4 6-19.7 6 78.7 6 2.8 6-67.4 6-15.5 6 75.9" fill="none" color="#000"/></g><g><path stroke="#000" d="M20.7 1728.1l6-322.6 6 244.1 6 19.3 6-3.5 6-50.6 6 42.3 6-91.1 6 116.1 6-44.8 6-15.5 6-44.7 6 81.5 6-58.4 6 40.1 6 28.9 6-12.5 6.1 15.8 6-10.3 6 19.3 6-38.5 6-16 6-.1 6 19.4 6-24.7 6-13.3 6 44.2 6-18.8 6 18.8 6 17.6 6-23.9 6 3.6 6 5.5 6 10.3 6-16.3 6-8.5 6-9.3 6-28.2 6 45.1 6-12.3 6 12.9 6 21.5 6-75.5 6 28.2 6 23.3 6 10.4 6 8.1 6-96.1 6 90.1 6 1.1 6.1-16.7 6-83.5 6 85.3 6-47.1 6 54.8 6-18.7 6 21.3 6-16.4 6 3.1 6-16 6 51.8 6-72.6 6 29.6 6 19.9 6-2.5 6-26.4 6 9.8 6 16.8 6-23.5 6 24.1 6-35.5 6 42.8 6-87.5 6 74.8 6 15.2 6 8.5 6 5.3 6-23.3 6 1.6 6-3.4 6 26.4 6-39.7 6 41.5 6.1-28.7 6-21.6 6 17.7 6-1.3 6-46.8 6 30.9 6 49.7 6-11.7 6-3.6 6-64 6 20.1 6 38.1 6-8.8 6 13.4 6-1.7 6-50.6 6 52.1" fill="none" color="#000"/></g><g><path stroke="#9400D3" d="M20.7 1549.4l6-11.4 6-70 6 71.9 6 .9 6-74.6 6 74.4 6-24.2 6 24.1 6-.6 6 .9 6-75.5 6 75.9 6-.7 6-.2h6l6-74.3 6.1 74.9 6-1.3 6 1.5 6 .6 6-1.2 6-73.5 6 74.2 6 .4 6-.5 6-.5 6-73 6 73.7 6-1.2 6 1.2 6-.6 6-49.9 6-24.3 6 1.1 6 72.5 6 .8 6-74.8 6 76 6-75.3 6 74.3 6-.1 6-.4 6-.5 6 1.4 6-.9 6 1.3 6-1 6 .2 6-.4 6.1-49.5 6 50.3 6-.5 6-74.5 6 74.2 6 .4 6-74.6 6 74 6-48.5 6 49.8 6-73.9 6-1.4 6 75 6-74.8 6 74.5 6 .5 6-1.2 6 1 6 .3 6-1.2 6-73.4 6 74 6-74.2 6 74.2 6-.9 6 1.4 6-.8 6 .4 6 .6 6-.5 6-75 6 75 6-.1 6.1-50 6 51.2 6-1h6l6-.1 6-73.7 6-.2 6 74 6 .2 6-1 6 .4 6 .3 6-73.3 6 24.8 6 48.2 6 .1 6-75" fill="none" color="#000"/></g><g><path stroke="#009E73" d="M20.7 1431l6-11.4 6-70 6 71.9 6 .8 6-74.5 6 74.3 6-24.1 6 24.1 6-.6 6 .8 6-75.4 6 75.9 6-.7 6-.2h6l6-74.3 6.1 74.9 6-1.3 6 1.4 6 .6 6-1.2 6-73.5 6 74.3 6 .4 6-.6 6-.4 6-73 6 73.7 6-1.2 6 1.2 6-.6 6-49.9 6-24.3 6 1 6 72.6 6 .8 6-74.9 6 76.1 6-75.3 6 74.2 6-.1 6-.3 6-.5 6 1.3 6-.8 6 1.2 6-.9 6 .2 6-.4 6.1-49.5 6 50.2 6-.4 6-74.5 6 74.2 6 .4 6-74.6 6 74 6-48.5 6 49.8 6-73.9 6-1.4 6 75 6-74.8 6 74.5 6 .5 6-1.2 6 1 6 .3 6-1.2 6-73.4 6 73.9 6-74.1 6 74.2 6-.9 6 1.4 6-.9 6 .4 6 .6 6-.4 6-75.1 6 75h6l6.1-50 6 51.2 6-1h6l6-.2 6-73.6 6-.2 6 74 6 .1 6-.9 6 .3 6 .4 6-73.3 6 24.8 6 48.1 6 .2 6-75.1" fill="none" color="#000"/></g><g><path stroke="#56B4E9" d="M20.7 1503l6-240.6 6 188.5 6-186.5 6 8.1 6-95.1 6 143.6 6-165.8 6 151.6 6-40.4 6 54.6 6-4 6-52.6 6-91 6 97.1 6-18.2 6 60.6 6.1-64.7 6 14.2 6 52.5 6-50.5h6l6-4.1 6 44.5 6-56.6 6-16.2 6 80.9 6-52.6 6 10.2 6 34.3 6-46.5 6 48.5 6 6.1 6 2 6 6.1 6-76.8 6 38.4 6-133.5 6 149.7 6-2.1 6-32.3 6 4 6-8.1 6-38.4 6 87 6-54.6 6 62.7 6-68.8 6 66.7 6-52.5 6.1 52.5 6-107.1 6 95 6 8.1 6-52.6 6 38.4 6 6.1 6 2 6-38.4 6-4 6 58.6 6-22.2 6 18.2 6-22.3 6-40.4 6-12.2 6 76.9 6-48.5 6 24.2 6 20.2 6 4.1 6-10.1 6-70.8 6 40.4 6-10.1 6 40.5 6-12.2 6 22.3 6-4.1 6-46.5 6-16.1 6 18.2 6-12.2 6.1 58.7 6-8.1 6 10.1 6-8.1 6 6.1 6-6.1 6 4 6-52.5 6 48.5 6 4h6l6-52.5 6 52.5 6-2 6-4 6-48.6 6-2" fill="none" color="#000"/></g><g><path stroke="#E69F00" d="M20.7 956.9l6 217.6 6 77.7 6-77.7 6 5.1 6-5.1h6l6-77.8 6 77.8 6-77.8 6 77.8h6l6 5.1 6-5.1h30.1l6-77.8h6l6 77.8 6 5.1h12l6-5.1h6l6 5.1 6-5.1h6l6 5.1 6-5.1 6 5.1 6-5.1 6 5.1 6-5.1 6 5.1 6-5.1h6l6 5.1h12l6-5.1 6-77.8 6 82.9 6-5.1h6l6-72.6 6 77.7 6-5.1h12.1l6 5.1h6l6-5.1h6l6-77.8 6 77.8 6 5.1 6-5.1h6l6 5.1 6-5.1 6 5.1 6-5.1 6 5.1h12l6-77.7 6 72.6 6 5.1h18l6-5.1 6 5.1h6l6-5.1 6 5.1h6l6-5.1 6 5.1 6-5.1 6.1 5.1 6-77.7 6 77.7 6-5.1 6 5.1h6l6-5.1 6 5.1 6-82.9 6 77.8h6l6 5.1h18l6-82.9 6 77.8" fill="none" color="#000"/></g><g><path stroke="#F0E442" d="M20.7 812.1l6 165.8h6l6 82.9h24l6-82.9 6 82.9 6-82.9 6 82.9h42.1l6-82.9 6 82.9h48l6-82.9 6 82.9h144.1l6-82.9h12l6 82.9h60l6-82.9 6 82.9H567l6-82.9h6l6 82.9h30" fill="none" color="#000"/></g><g><path stroke="#0072B2" d="M20.7 693.7l6 165.8h6l6 82.9h24l6-82.9 6 82.9 6-82.9 6 82.9h42.1l6-82.9 6 82.9h48l6-82.9 6 82.9h144.1l6-82.9h12l6 82.9h60l6-82.9 6 82.9H567l6-82.9h6l6 82.9h30" fill="none" color="#000"/></g><g><path stroke="#E51E10" d="M20.7 812.8l6-29.2 6 46.3 6-43.9 6 12.2 6-102.4 6 160.9 6-70.7 6 58.5 6-56 6 68.2 6-7.3 6-65.8 6-68.3 6 80.5 6-9.8 6 61 6.1-58.5 6 2.4 6 58.5 6-65.8h12l6 53.6 6-58.5 6-17.1 6 82.9 6-58.5 6 4.9 6 53.6 6-68.2 6 60.9 6 9.8 6 2.4 6 2.5 6-82.9 6 36.5 6-151.1 6 168.2h6l6-34.1 6 7.3 6-12.2 6-46.3 6 104.8 6-70.7 6 80.5 6-17.1 6 12.2 6-61 6.1 65.9 6-126.8 6 124.3 6-7.3 6-58.5 6 53.6h12l6-51.2 6 2.5 6 63.4 6-14.7 6 9.8 6-19.5 6-46.4 6-4.8 6 75.6 6-61 6 43.9 6 12.2h6l6-4.9 6-80.5 6 36.6 6-7.3 6 48.8 6-29.3 6 29.3 6 7.3 6-53.7 6-19.5 6 19.5 6-9.7L519 847l6-7.3 6 12.2 6-4.9h6l6-4.9 6 7.3 6-65.8 6 60.9 6 4.9 6-2.4 6-58.5 6 58.5h6l6-4.9 6-61h6" fill="none" color="#000"/></g><g><path stroke="#000" d="M20.7 549.1l6 93.8 6 64 6-64.5 6 3.9 6-11.2 6 86.7 6-85.4 6 10.4 6 69.1 6 6.6 6-22.8 6 15.1 6-75.1 6 74.8 6-71 6 65.8 6.1-68.5 6 73.8 6-65.8 6 72.2 6-3.3 6-13.2 6 17.2 6-3 6-1.3 6 .7 6-11.3 6 10.8 6-70.4 6 70.2 6 2.2 6-8.5 6 .2 6-1.9 6-63.3 6 74 6-21.2 6 21.4 6-12.6 6 10.3 6-76.4 6 71 6-131.2 6 68.3 6 68.1 6 2.3 6 1.3 6-.3 6-6.4 6.1-6.3 6 11.5 6 .2 6-10.9 6 5.3 6 3.4 6-79.2 6 8.3 6 59.6 6 12.2 6-137.2 6 128.6 6 12.2 6-16.6 6-65.8 6 79.7 6 2 6-4.1 6 3.7 6-2.5 6-6.6 6 7.1 6-10.8 6 9.7 6 .2 6-72.2 6 75.6 6-6.3 6 3.5 6 .1 6-83.4 6 80.4 6-72.8 6.1 66.6 6 11 6-1.6 6-69.4 6 65.2 6-66.5 6-8 6 2.2 6 80.1 6-6.2 6-1.2 6 1.1 6-5.8 6-.7 6 12.7 6-7.3 6-79.2" fill="none" color="#000"/></g><g><path stroke="#9400D3" d="M23.3 18.1l3.4 608.8 5.6-608.8m.7 0l5.7 602.7 6-24.3 6 38.8 6-32.4 6-33.6 6 33 6-1 6-24 6-34.3 6 38.6 6 11.2 6-11.1 6 11.3 6 21.7 6.1 15.8 6 5.5 6-57.8 6 17.4 6-19.1 6 22.4 6-27.8 6 1.2 6 53.6 6-25.4 6-30 6 26.2 6-9.5 6-5.7 6 37.2 6 1.1 6-21.3 6-9.8 6 28.2 6-2.1 6-23.5 6-21.9 6-3.4 6-2 6 14.5 6-10.4 6 38.3 6-41.3 6 23.8 6-15.8 6 36.9 6-39.9 6 14.3 6.1-16.4 6 3.4 6 21.8 6 26.5 6-57 6 47.7 6-.4 6-40.9 6 5.7 6 55.6 6-45.8 6 6.3 6-6.3 6 5.2 6-21.9 6 56.7 6-30.9 6 2 6 13.1 6 11.3 6 14.1 6-26.9 6-29.3 6-3.2 6 50.5 6-50.7 6 .6 6-14.1 6 14.6 6 8.4 6-16.6 6 .6 6 56.4 6.1-1.8 6 1.4 6-51 6-7.2 6 22.6 6-2.2 6-25.5 6 30.6 6 29.6 6-57 6 28.3 6-27.7 6 8.7 6 4.6 6-13.1 6 68.1 6-54.9" fill="none" color="#000"/></g><g><path stroke="#009E73" d="M20.7 461.3l6-48.1 6 7.7 6 75.2h18l6-75.2h6l6-7.7 6 67.4 6-67.4 6 82.9 6-75.2 6-7.7 6 7.7 6 75.2 6.1-75.2 6 53.5 6-53.5 6 59.7h6l6-67.4 6 82.9 6-21.7 6 6.2 6-6.2 6-61.2 6 67.4 6-59.7 6-7.7h6l6 82.9h6l6-82.9 6 82.9 6-82.9 6 32.4 6 35 6-67.4 6 82.9h6l6-75.2 6 53.5 6 21.7 6-21.7 6-53.5 6 75.2h6l6-75.2 6.1 79.7 6-20 6 15.5 6-82.9 6 7.7 6-12 6 12h6l6-7.7 6 67.4 6-59.7 6-7.7 6 67.4 6 15.5 6-75.2 6 53.5 6 21.7 6-21.7h6l6 6.2 6-67.4 6 82.9 6-82.9h6l6 61.2 6 21.6 6-21.6 6 6.2 6 15.5 6-21.7 6-53.5 6 53.5 6-53.5 6.1-7.7h12l6 7.7 6 75.2h6l6-75.2 6 75.2 6-75.2h6l6 113.6 6-60.1 6 21.7 6 4.5 6-4.5 6-15.5 6-59.7" fill="none" color="#000"/></g><g><path stroke="#56B4E9" d="M26.4 18.1l.3 377.1 6 62.2 6-70.7 6 35.5 6-48.5 6 42.4 6 29.9 6-7.4 6-32.3 6 33.1 6-.9 6 13.8 6-7.2 6-1.5 6-2.5 6-29.8 6.1-21.4 6 24.9 6 36.5 6-39.5 6 34 6-9.5 6 9.1 6 11.2 6-11.5 6-33.7 6 37.3 6 5.6 6-17.5 6 17.5 6-37.3 6-3.6 6 14.7 6-2.5 6-9.3 6-11.3 6 40 6 17.4 6-11.5 6 .1 6-8.2 6 4.8 6-23 6 27.5 6-6.3 6-17.6 6-40.8 6 64.2 6-3.5 6.1 5.4 6-6.6 6-20.7 6-22.2 6 42 6-39.3 6-6.4 6 45.9 6 12.4 6-40.5 6 19.8 6-25.7 6 31.2 6 1.9 6 4.2 6-26.6 6 13.8 6 19.7 6-73.2 6 15.1 6-17.1 6 19.6 6 46.2 6 5.8 6-53.1 6 58.7 6-8 6-29.3 6 29.7 6-20.6 6 17.2 6 7.5 6-21.4 6.1-25.8 6 3.5 6 42.6 6 1.9 6-2.5 6 5.7 6-1.3 6-21.5 6-13.9 6 20.7 6 8.5 6 3.7 6 6.3 6 3.9 6-15.5 6-40.4 6 36.1" fill="none" color="#000"/></g><g><path stroke="#E69F00" d="M25.3 18.1l1.4 199.6 6-82.9 6 86.3h6l6-55.8 6 99.8 6-64.3 6 54.1 6-37.2 6 38.9 6-22 6-28.7 6-44 6 50.8 6-3.4 6 50.7 6.1-32.1 6 1.7 6 20.3 6-37.2 6-8.5 6 15.2 6 18.6 6-35.5 6 5.1 6 47.3 6-47.3 6 11.8 6 30.5 6-49.1 6 55.8 6 6.8 6-6.8h6l6-45.6 6 23.6 6-113.3 6 108.3 6-3.4 6-22 6 11.8 6-15.2 6-18.6 6 59.2 6-44 6 59.2 6-5 6-6.8 6-37.2 6.1 40.6 6-86.3 6 94.7 6 5.1 6-64.3 6 55.9 6 1.6 6-16.9 6-30.4 6 22 6 27 6-10.1 6 3.4 6-8.5 6-44 6 22 6 35.5 6-33.8 6 30.5 6 13.5 6 6.8 6-15.3 6-64.3 6 20.4 6 13.5 6 16.9 6-22 6 16.9 6 10.2 6-33.9 6-10.1 6 3.4 6 16.9 6.1 40.6h6l6-15.2 6-5.1 6 8.5 6-3.4 6-5.1 6-33.8 6 52.4 6-18.6 6 8.5 6-47.4 6 44h6l6-10.2 6-15.2 6-15.2" fill="none" color="#000"/></g><g><path stroke="#F0E442" d="M20.7 127.4l6 13.8 6-55.1 6 20.4 6-3.7 6 38.6 6-81.1 6 113.6 6-46.4 6-16.6 6-41.9 6 45.3 6-37.7 6 88.6 6-54.8 6 31.9 6-66.6 6.1 68.5 6-54.8 6 35.4 6-41.8 6 1.5 6 40.9 6-61.4 6 27.4 6 1.3 6-16.8 6 48.6 6-41.7 6 45 6-15.5 6-12.8 6-27.7 6 2.6 6 34.5 6 1.2 6-5 6 43.2 6-73.4 6 40.5 6-40.1 6 30.5 6 5.9 6 43.6 6-62.6 6-2.4 6 4.6 6-17.3 6-15.6 6 48.3 6.1-40.7 6 28.8 6-33.4 6 46.3 6 .1 6-7.9 6 36.8 6-12.3 6-8 6-35.8 6 75.6 6-46 6-43.9 6 11.4 6 61.9 6-50.9 6-31.4 6 25.2 6-7.4 6-6.9 6 36.4 6-44.2 6 65.6 6-22.7 6-20.5 6 7.8 6-15.9 6-5.9 6-9.7 6 23.4 6 68 6-67.2 6 53.7 6.1-34.1 6-8.2 6-1.3 6 28.2 6-61.4 6 37.3 6 35.7 6-30 6-11.7 6 1.8 6-56.8 6 48.5 6-14.1 6-5.3 6-6.5 6 23.4 6 66.2" fill="none" color="#000"/></g><g fill="none" color="#000" stroke="currentColor"><path stroke="#000" d="M20.7 18.1v4405.3H615V18.1H20.7z"/><text transform="translate(34.9 4308.9)" stroke="none" fill="#000" font-family="Arial" font-size="12"><tspan>server-response-time, p90stdev=0.215, score:p90stdev=0, range=[1.296:93.489]</tspan></text><text transform="translate(34.9 4190.5)" stroke="none" fill="#000" font-family="Arial" font-size="12"><tspan>redirects, p90stdev=0, score:p90stdev=0, range=[0:0]</tspan></text><text transform="translate(34.9 4072)" stroke="none" fill="#000" font-family="Arial" font-size="12"><tspan>uses-rel-preconnect, p90stdev=0, score:p90stdev=0, range=[0:300]</tspan></text><text transform="translate(34.9 3953.6)" stroke="none" fill="#000" font-family="Arial" font-size="12"><tspan>offscreen-images, p90stdev=0, score:p90stdev=0, range=[0:0]</tspan></text><text transform="translate(34.9 3835.2)" stroke="none" fill="#000" font-family="Arial" font-size="12"><tspan>unminified-javascript, p90stdev=0, score:p90stdev=0, range=[0:0]</tspan></text><text transform="translate(34.9 3716.8)" stroke="none" fill="#000" font-family="Arial" font-size="12"><tspan>uses-webp-images, p90stdev=74.111, score:p90stdev=0, range=[300:27600]</tspan></text><text transform="translate(34.9 3598.3)" stroke="none" fill="#000" font-family="Arial" font-size="12"><tspan>uses-optimized-images, p90stdev=0, score:p90stdev=0, range=[0:0]</tspan></text><text transform="translate(34.9 3479.9)" stroke="none" fill="#000" font-family="Arial" font-size="12"><tspan>uses-text-compression, p90stdev=3.049, score:p90stdev=0, range=[5700:5850]</tspan></text><text transform="translate(34.9 3361.5)" stroke="none" fill="#000" font-family="Arial" font-size="12"><tspan>uses-responsive-images, p90stdev=0, score:p90stdev=0, range=[0:0]</tspan></text><text transform="translate(34.9 3243.1)" stroke="none" fill="#000" font-family="Arial" font-size="12"><tspan>efficient-animated-content, p90stdev=0, score:p90stdev=0, range=[0:0]</tspan></text><text transform="translate(34.9 3124.7)" stroke="none" fill="#000" font-family="Arial" font-size="12"><tspan>duplicated-javascript, p90stdev=0, score:p90stdev=0, range=[0:0]</tspan></text><text transform="translate(34.9 3006.2)" stroke="none" fill="#000" font-family="Arial" font-size="12"><tspan>legacy-javascript, p90stdev=0, score:p90stdev=0, range=[0:0]</tspan></text><text transform="translate(34.9 2887.8)" stroke="none" fill="#000" font-family="Arial" font-size="12"><tspan>estimated-input-latency, p90stdev=0, score:p90stdev=0, range=[12.8:12.8]</tspan></text><text transform="translate(34.9 2769.4)" stroke="none" fill="#000" font-family="Arial" font-size="12"><tspan>dom-size, p90stdev=0, score:p90stdev=0, range=[309:422]</tspan></text><text transform="translate(34.9 2651)" stroke="none" fill="#000" font-family="Arial" font-size="12"><tspan>uses-long-cache-ttl, p90stdev=8.197, score:p90stdev=0, range=[559090.719:559346.005]</tspan></text><text transform="translate(34.9 2532.5)" stroke="none" fill="#000" font-family="Arial" font-size="12"><tspan>total-byte-weight, p90stdev=153.114, score:p90stdev=0, range=[1702593:7949472]</tspan></text><text transform="translate(34.9 2414.1)" stroke="none" fill="#000" font-family="Arial" font-size="12"><tspan>largest-contentful-paint, p90stdev=447.975, score:p90stdev=0, range=[11302.426:15844.007]</tspan></text><text transform="translate(34.9 2295.7)" stroke="none" fill="#000" font-family="Arial" font-size="12"><tspan>uses-rel-preload, p90stdev=0.474, score:p90stdev=0, range=[0:609]</tspan></text><text transform="translate(34.9 2177.3)" stroke="none" fill="#000" font-family="Arial" font-size="12"><tspan>unused-javascript, p90stdev=3.983, score:p90stdev=0, range=[4370:4620]</tspan></text><text transform="translate(34.9 2058.9)" stroke="none" fill="#000" font-family="Arial" font-size="12"><tspan>interactive, p90stdev=12.739, score:p90stdev=0.001, range=[10937.1:11499.187]</tspan></text><text transform="translate(34.9 1940.4)" stroke="none" fill="#000" font-family="Arial" font-size="12"><tspan>bootup-time, p90stdev=13.253, score:p90stdev=0.001, range=[537.752:630.068]</tspan></text><text transform="translate(34.9 1822)" stroke="none" fill="#000" font-family="Arial" font-size="12"><tspan>first-cpu-idle, p90stdev=86.71, score:p90stdev=0.002, range=[1947.971:2404.553]</tspan></text><text transform="translate(34.9 1703.6)" stroke="none" fill="#000" font-family="Arial" font-size="12"><tspan>render-blocking-resources, p90stdev=20.477, score:p90stdev=0.002, range=[914:1005]</tspan></text><text transform="translate(34.9 1585.2)" stroke="none" fill="#000" font-family="Arial" font-size="12"><tspan>mainthread-work-breakdown, p90stdev=23.306, score:p90stdev=0.003, range=[1716.196:2090.14]</tspan></text><text transform="translate(34.9 1466.7)" stroke="none" fill="#000" font-family="Arial" font-size="12"><tspan>first-contentful-paint, p90stdev=84.485, score:p90stdev=0.012, range=[1947.971:2209.815]</tspan></text><text transform="translate(34.9 1348.3)" stroke="none" fill="#000" font-family="Arial" font-size="12"><tspan>first-meaningful-paint, p90stdev=84.485, score:p90stdev=0.012, range=[1947.971:2209.815]</tspan></text><text transform="translate(34.9 1229.9)" stroke="none" fill="#000" font-family="Arial" font-size="12"><tspan>total-blocking-time, p90stdev=12.91, score:p90stdev=0.014, range=[178:353]</tspan></text><text transform="translate(34.9 1111.5)" stroke="none" fill="#000" font-family="Arial" font-size="12"><tspan>uses-http2, p90stdev=30.584, score:p90stdev=0.024, range=[30:600]</tspan></text><text transform="translate(34.9 993.1)" stroke="none" fill="#000" font-family="Arial" font-size="12"><tspan>unminified-css, p90stdev=30.75, score:p90stdev=0.026, range=[0:450]</tspan></text><text transform="translate(34.9 874.6)" stroke="none" fill="#000" font-family="Arial" font-size="12"><tspan>unused-css-rules, p90stdev=30.75, score:p90stdev=0.026, range=[0:450]</tspan></text><text transform="translate(34.9 756.2)" stroke="none" fill="#000" font-family="Arial" font-size="12"><tspan>max-potential-fid, p90stdev=11.917, score:p90stdev=0.032, range=[268:351]</tspan></text><text transform="translate(34.9 637.8)" stroke="none" fill="#000" font-family="Arial" font-size="12"><tspan>speed-index, p90stdev=253.672, score:p90stdev=0.045, range=[4185.298:5697.714]</tspan></text><text transform="translate(34.9 519.4)" stroke="none" fill="#000" font-family="Arial" font-size="12"><tspan>network-rtt, p90stdev=0.083, score:p90stdev=0.083, range=[0.097:4.784]</tspan></text><text transform="translate(34.9 401)" stroke="none" fill="#000" font-family="Arial" font-size="12"><tspan>cumulative-layout-shift, p90stdev=0.087, score:p90stdev=0.162, range=[0.094:0.41]</tspan></text><text transform="translate(34.9 282.5)" stroke="none" fill="#000" font-family="Arial" font-size="12"><tspan>network-server-latency, p90stdev=1.619, score:p90stdev=1.619, range=[4.96:730.832]</tspan></text><text transform="translate(34.9 164.1)" stroke="none" fill="#000" font-family="Arial" font-size="12"><tspan>metrics, p90stdev=12.741, score:p90stdev=12.741, range=[10937:11499]</tspan></text><text transform="translate(34.9 45.7)" stroke="none" fill="#000" font-family="Arial" font-size="12"><tspan>score, p90stdev=0.013, score:p90stdev=0.013, range=[0.491:0.566]</tspan></text></g></svg>