<svg width="640" height="520" xmlns="http://www.w3.org/2000/svg" xmlns:xlink="http://www.w3.org/1999/xlink"><path fill="#fff" d="M0 0h640v520H0z"/><defs><path id="g" stroke-width=".222" stroke="currentColor" d="M-1 0h2M0-1v2"/><path id="h" stroke-width=".222" stroke="currentColor" d="M-1-1l2 2m0-2l-2 2"/><path id="i" stroke-width=".222" stroke="currentColor" d="M-1 0h2M0-1v2m-1-2l2 2m-2 0l2-2"/><path id="d" stroke-width=".222" stroke="currentColor" d="M-1-1h2v2h-2z"/><path id="b" stroke-width=".222" stroke="currentColor" d="M0-1.33l-1.33 2h2.66z"/><path id="f" stroke-width=".222" stroke="currentColor" d="M0 1.33L1.265.411.782-1.067l-1.564-.009-.483 1.487z"/><use xlink:href="#b" id="c" stroke="currentColor" transform="rotate(180)"/><use xlink:href="#d" id="e" stroke="currentColor" transform="rotate(45)"/><circle id="a" stroke-width=".222" stroke="currentColor" cx="0" cy="0" r="1"/></defs><g fill="none" color="#000" stroke="currentColor"><path stroke="#000" d="M53.9 439.7h9m552.1 0h-9"/><text transform="translate(45.6 443.6)" stroke="none" fill="#000" font-family="Arial" font-size="12" text-anchor="end"><tspan>0</tspan></text></g><g fill="none" color="#000" stroke="currentColor"><path stroke="#000" d="M53.9 357.1h9m552.1 0h-9"/><text transform="translate(45.6 361)" stroke="none" fill="#000" font-family="Arial" font-size="12" text-anchor="end"><tspan>0.2</tspan></text></g><g fill="none" color="#000" stroke="currentColor"><path stroke="#000" d="M53.9 274.4h9m552.1 0h-9"/><text transform="translate(45.6 278.3)" stroke="none" fill="#000" font-family="Arial" font-size="12" text-anchor="end"><tspan>0.4</tspan></text></g><g fill="none" color="#000" stroke="currentColor"><path stroke="#000" d="M53.9 191.7h9m552.1 0h-9"/><text transform="translate(45.6 195.6)" stroke="none" fill="#000" font-family="Arial" font-size="12" text-anchor="end"><tspan>0.6</tspan></text></g><g fill="none" color="#000" stroke="currentColor"><path stroke="#000" d="M53.9 109h9m552.1 0h-9"/><text transform="translate(45.6 112.9)" stroke="none" fill="#000" font-family="Arial" font-size="12" text-anchor="end"><tspan>0.8</tspan></text></g><g fill="none" color="#000" stroke="currentColor"><path stroke="#000" d="M53.9 26.4h9m552.1 0h-9"/><text transform="translate(45.6 30.3)" stroke="none" fill="#000" font-family="Arial" font-size="12" text-anchor="end"><tspan>1</tspan></text></g><g fill="none" color="#000" stroke="currentColor"><path stroke="#000" d="M100.7 448v-9m0-420.9v9"/><text transform="translate(100.7 469.9)" stroke="none" fill="#000" font-family="Arial" font-size="12" text-anchor="middle"><tspan>2</tspan></text></g><g fill="none" color="#000" stroke="currentColor"><path stroke="#000" d="M194.2 448v-9m0-420.9v9"/><text transform="translate(194.2 469.9)" stroke="none" fill="#000" font-family="Arial" font-size="12" text-anchor="middle"><tspan>4</tspan></text></g><g fill="none" color="#000" stroke="currentColor"><path stroke="#000" d="M287.7 448v-9m0-420.9v9"/><text transform="translate(287.7 469.9)" stroke="none" fill="#000" font-family="Arial" font-size="12" text-anchor="middle"><tspan>6</tspan></text></g><g fill="none" color="#000" stroke="currentColor"><path stroke="#000" d="M381.2 448v-9m0-420.9v9"/><text transform="translate(381.2 469.9)" stroke="none" fill="#000" font-family="Arial" font-size="12" text-anchor="middle"><tspan>8</tspan></text></g><g fill="none" color="#000" stroke="currentColor"><path stroke="#000" d="M474.7 448v-9m0-420.9v9"/><text transform="translate(474.7 469.9)" stroke="none" fill="#000" font-family="Arial" font-size="12" text-anchor="middle"><tspan>10</tspan></text></g><g fill="none" color="#000" stroke="currentColor"><path stroke="#000" d="M568.2 448v-9m0-420.9v9"/><text transform="translate(568.2 469.9)" stroke="none" fill="#000" font-family="Arial" font-size="12" text-anchor="middle"><tspan>12</tspan></text></g><path stroke="#000" d="M53.9 18.1V448H615V18.1H53.9z" fill="none" color="#000"/><text transform="translate(275.6 487.9)" stroke="none" fill="#000" font-family="Arial" font-size="12" text-anchor="end" color="#000"><tspan>score:p90min</tspan></text><g fill="none" color="#000" stroke="currentColor"><path stroke="#9400D3" d="M283.9 484h42.2M53.9 439.7h93.5l46.8-413.3H615"/><use xlink:href="#g" transform="matrix(4.5 0 0 4.5 53.9 439.7)" color="#9400D3"/><use xlink:href="#g" transform="matrix(4.5 0 0 4.5 100.7 439.7)" color="#9400D3"/><use xlink:href="#g" transform="matrix(4.5 0 0 4.5 147.4 439.7)" color="#9400D3"/><use xlink:href="#g" transform="matrix(4.5 0 0 4.5 194.2 26.4)" color="#9400D3"/><use xlink:href="#g" transform="matrix(4.5 0 0 4.5 240.9 26.4)" color="#9400D3"/><use xlink:href="#g" transform="matrix(4.5 0 0 4.5 287.7 26.4)" color="#9400D3"/><use xlink:href="#g" transform="matrix(4.5 0 0 4.5 334.5 26.4)" color="#9400D3"/><use xlink:href="#g" transform="matrix(4.5 0 0 4.5 381.2 26.4)" color="#9400D3"/><use xlink:href="#g" transform="matrix(4.5 0 0 4.5 428 26.4)" color="#9400D3"/><use xlink:href="#g" transform="matrix(4.5 0 0 4.5 474.7 26.4)" color="#9400D3"/><use xlink:href="#g" transform="matrix(4.5 0 0 4.5 521.5 26.4)" color="#9400D3"/><use xlink:href="#g" transform="matrix(4.5 0 0 4.5 568.2 26.4)" color="#9400D3"/><use xlink:href="#g" transform="matrix(4.5 0 0 4.5 615 26.4)" color="#9400D3"/><use xlink:href="#g" transform="matrix(4.5 0 0 4.5 305 484)" color="#9400D3"/></g><text transform="translate(275.6 505.9)" stroke="none" fill="#000" font-family="Arial" font-size="12" text-anchor="end" color="#000"><tspan>score:p90mean</tspan></text><g fill="none" color="#000" stroke="currentColor"><path stroke="#009E73" d="M283.9 502h42.2M53.9 412.5l46.8-209 46.7-77.2 46.8-99.9H615"/><use xlink:href="#h" transform="matrix(4.5 0 0 4.5 53.9 412.5)" color="#009E73"/><use xlink:href="#h" transform="matrix(4.5 0 0 4.5 100.7 203.5)" color="#009E73"/><use xlink:href="#h" transform="matrix(4.5 0 0 4.5 147.4 126.3)" color="#009E73"/><use xlink:href="#h" transform="matrix(4.5 0 0 4.5 194.2 26.4)" color="#009E73"/><use xlink:href="#h" transform="matrix(4.5 0 0 4.5 240.9 26.4)" color="#009E73"/><use xlink:href="#h" transform="matrix(4.5 0 0 4.5 287.7 26.4)" color="#009E73"/><use xlink:href="#h" transform="matrix(4.5 0 0 4.5 334.5 26.4)" color="#009E73"/><use xlink:href="#h" transform="matrix(4.5 0 0 4.5 381.2 26.4)" color="#009E73"/><use xlink:href="#h" transform="matrix(4.5 0 0 4.5 428 26.4)" color="#009E73"/><use xlink:href="#h" transform="matrix(4.5 0 0 4.5 474.7 26.4)" color="#009E73"/><use xlink:href="#h" transform="matrix(4.5 0 0 4.5 521.5 26.4)" color="#009E73"/><use xlink:href="#h" transform="matrix(4.5 0 0 4.5 568.2 26.4)" color="#009E73"/><use xlink:href="#h" transform="matrix(4.5 0 0 4.5 615 26.4)" color="#009E73"/><use xlink:href="#h" transform="matrix(4.5 0 0 4.5 305 502)" color="#009E73"/></g><text transform="translate(458.9 487.9)" stroke="none" fill="#000" font-family="Arial" font-size="12" text-anchor="end" color="#000"><tspan>score:p90median</tspan></text><g fill="none" color="#000" stroke="currentColor"><path stroke="#56B4E9" d="M467.2 484h42.2M53.9 439.7l46.8-413.3H615"/><use xlink:href="#i" transform="matrix(4.5 0 0 4.5 53.9 439.7)" color="#56B4E9"/><use xlink:href="#i" transform="matrix(4.5 0 0 4.5 100.7 26.4)" color="#56B4E9"/><use xlink:href="#i" transform="matrix(4.5 0 0 4.5 147.4 26.4)" color="#56B4E9"/><use xlink:href="#i" transform="matrix(4.5 0 0 4.5 194.2 26.4)" color="#56B4E9"/><use xlink:href="#i" transform="matrix(4.5 0 0 4.5 240.9 26.4)" color="#56B4E9"/><use xlink:href="#i" transform="matrix(4.5 0 0 4.5 287.7 26.4)" color="#56B4E9"/><use xlink:href="#i" transform="matrix(4.5 0 0 4.5 334.5 26.4)" color="#56B4E9"/><use xlink:href="#i" transform="matrix(4.5 0 0 4.5 381.2 26.4)" color="#56B4E9"/><use xlink:href="#i" transform="matrix(4.5 0 0 4.5 428 26.4)" color="#56B4E9"/><use xlink:href="#i" transform="matrix(4.5 0 0 4.5 474.7 26.4)" color="#56B4E9"/><use xlink:href="#i" transform="matrix(4.5 0 0 4.5 521.5 26.4)" color="#56B4E9"/><use xlink:href="#i" transform="matrix(4.5 0 0 4.5 568.2 26.4)" color="#56B4E9"/><use xlink:href="#i" transform="matrix(4.5 0 0 4.5 615 26.4)" color="#56B4E9"/><use xlink:href="#i" transform="matrix(4.5 0 0 4.5 488.3 484)" color="#56B4E9"/></g><g><text transform="translate(458.9 505.9)" stroke="none" fill="#000" font-family="Arial" font-size="12" text-anchor="end" color="#000"><tspan>score:p90max</tspan></text><g fill="none" color="#000" stroke="currentColor"><path stroke="#E69F00" d="M467.2 502h42.2M53.9 26.4H615"/><use xlink:href="#d" transform="matrix(4.5 0 0 4.5 53.9 26.4)" color="#E69F00"/><use xlink:href="#d" transform="matrix(4.5 0 0 4.5 100.7 26.4)" color="#E69F00"/><use xlink:href="#d" transform="matrix(4.5 0 0 4.5 147.4 26.4)" color="#E69F00"/><use xlink:href="#d" transform="matrix(4.5 0 0 4.5 194.2 26.4)" color="#E69F00"/><use xlink:href="#d" transform="matrix(4.5 0 0 4.5 240.9 26.4)" color="#E69F00"/><use xlink:href="#d" transform="matrix(4.5 0 0 4.5 287.7 26.4)" color="#E69F00"/><use xlink:href="#d" transform="matrix(4.5 0 0 4.5 334.5 26.4)" color="#E69F00"/><use xlink:href="#d" transform="matrix(4.5 0 0 4.5 381.2 26.4)" color="#E69F00"/><use xlink:href="#d" transform="matrix(4.5 0 0 4.5 428 26.4)" color="#E69F00"/><use xlink:href="#d" transform="matrix(4.5 0 0 4.5 474.7 26.4)" color="#E69F00"/><use xlink:href="#d" transform="matrix(4.5 0 0 4.5 521.5 26.4)" color="#E69F00"/><use xlink:href="#d" transform="matrix(4.5 0 0 4.5 568.2 26.4)" color="#E69F00"/><use xlink:href="#d" transform="matrix(4.5 0 0 4.5 615 26.4)" color="#E69F00"/><use xlink:href="#d" transform="matrix(4.5 0 0 4.5 488.3 502)" color="#E69F00"/></g></g><g fill="none" color="#000" stroke="currentColor"><path stroke="#000" d="M53.9 18.1V448H615V18.1H53.9z"/></g></svg>