<svg width="640" height="490" xmlns="http://www.w3.org/2000/svg" xmlns:xlink="http://www.w3.org/1999/xlink"><path fill="#fff" d="M0 0h640v490H0z"/><defs><path id="g" stroke-width=".222" stroke="currentColor" d="M-1 0h2M0-1v2"/><path id="d" stroke-width=".222" stroke="currentColor" d="M-1-1h2v2h-2z"/><path id="b" stroke-width=".222" stroke="currentColor" d="M0-1.33l-1.33 2h2.66z"/><path id="f" stroke-width=".222" stroke="currentColor" d="M0 1.33L1.265.411.782-1.067l-1.564-.009-.483 1.487z"/><use xlink:href="#b" id="c" stroke="currentColor" transform="rotate(180)"/><use xlink:href="#d" id="e" stroke="currentColor" transform="rotate(45)"/><circle id="a" stroke-width=".222" stroke="currentColor" cx="0" cy="0" r="1"/></defs><g fill="none" color="#000" stroke="currentColor"><path stroke="#000" d="M78.8 436h9m527.2 0h-9"/><text transform="translate(70.5 439.9)" stroke="none" fill="#000" font-family="Arial" font-size="12" text-anchor="end"><tspan>-0.001</tspan></text></g><g fill="none" color="#000" stroke="currentColor"><path stroke="#000" d="M78.8 331.5h9m527.2 0h-9"/><text transform="translate(70.5 335.4)" stroke="none" fill="#000" font-family="Arial" font-size="12" text-anchor="end"><tspan>-0.0005</tspan></text></g><g fill="none" color="#000" stroke="currentColor"><path stroke="#000" d="M78.8 227h9m527.2 0h-9"/><text transform="translate(70.5 230.9)" stroke="none" fill="#000" font-family="Arial" font-size="12" text-anchor="end"><tspan>0</tspan></text></g><g fill="none" color="#000" stroke="currentColor"><path stroke="#000" d="M78.8 122.6h9m527.2 0h-9"/><text transform="translate(70.5 126.5)" stroke="none" fill="#000" font-family="Arial" font-size="12" text-anchor="end"><tspan>0.0005</tspan></text></g><g fill="none" color="#000" stroke="currentColor"><path stroke="#000" d="M78.8 18.1h9m527.2 0h-9"/><text transform="translate(70.5 22)" stroke="none" fill="#000" font-family="Arial" font-size="12" text-anchor="end"><tspan>0.001</tspan></text></g><g fill="none" color="#000" stroke="currentColor"><path stroke="#000" d="M78.8 436v-9m0-408.9v9"/><text transform="translate(78.8 457.9)" stroke="none" fill="#000" font-family="Arial" font-size="12" text-anchor="middle"><tspan>0</tspan></text></g><g fill="none" color="#000" stroke="currentColor"><path stroke="#000" d="M161.3 436v-9m0-408.9v9"/><text transform="translate(161.3 457.9)" stroke="none" fill="#000" font-family="Arial" font-size="12" text-anchor="middle"><tspan>2</tspan></text></g><g fill="none" color="#000" stroke="currentColor"><path stroke="#000" d="M243.8 436v-9m0-408.9v9"/><text transform="translate(243.8 457.9)" stroke="none" fill="#000" font-family="Arial" font-size="12" text-anchor="middle"><tspan>4</tspan></text></g><g fill="none" color="#000" stroke="currentColor"><path stroke="#000" d="M326.3 436v-9m0-408.9v9"/><text transform="translate(326.3 457.9)" stroke="none" fill="#000" font-family="Arial" font-size="12" text-anchor="middle"><tspan>6</tspan></text></g><g fill="none" color="#000" stroke="currentColor"><path stroke="#000" d="M408.8 436v-9m0-408.9v9"/><text transform="translate(408.8 457.9)" stroke="none" fill="#000" font-family="Arial" font-size="12" text-anchor="middle"><tspan>8</tspan></text></g><g fill="none" color="#000" stroke="currentColor"><path stroke="#000" d="M491.3 436v-9m0-408.9v9"/><text transform="translate(491.3 457.9)" stroke="none" fill="#000" font-family="Arial" font-size="12" text-anchor="middle"><tspan>10</tspan></text></g><g fill="none" color="#000" stroke="currentColor"><path stroke="#000" d="M573.8 436v-9m0-408.9v9"/><text transform="translate(573.8 457.9)" stroke="none" fill="#000" font-family="Arial" font-size="12" text-anchor="middle"><tspan>12</tspan></text></g><path stroke="#000" d="M78.8 18.1V436H615V18.1H78.8z" fill="none" color="#000"/><text transform="translate(350.7 475.9)" stroke="none" fill="#000" font-family="Arial" font-size="12" text-anchor="end" color="#000"><tspan>p90stdev</tspan></text><g fill="none" color="#000" stroke="currentColor"><path stroke="#9400D3" d="M359 472h42.2M78.8 227H615"/><use xlink:href="#g" transform="matrix(4.5 0 0 4.5 78.8 227)" color="#9400D3"/><use xlink:href="#g" transform="matrix(4.5 0 0 4.5 120 227)" color="#9400D3"/><use xlink:href="#g" transform="matrix(4.5 0 0 4.5 161.3 227)" color="#9400D3"/><use xlink:href="#g" transform="matrix(4.5 0 0 4.5 202.5 227)" color="#9400D3"/><use xlink:href="#g" transform="matrix(4.5 0 0 4.5 243.8 227)" color="#9400D3"/><use xlink:href="#g" transform="matrix(4.5 0 0 4.5 285 227)" color="#9400D3"/><use xlink:href="#g" transform="matrix(4.5 0 0 4.5 326.3 227)" color="#9400D3"/><use xlink:href="#g" transform="matrix(4.5 0 0 4.5 367.5 227)" color="#9400D3"/><use xlink:href="#g" transform="matrix(4.5 0 0 4.5 408.8 227)" color="#9400D3"/><use xlink:href="#g" transform="matrix(4.5 0 0 4.5 450 227)" color="#9400D3"/><use xlink:href="#g" transform="matrix(4.5 0 0 4.5 491.3 227)" color="#9400D3"/><use xlink:href="#g" transform="matrix(4.5 0 0 4.5 532.5 227)" color="#9400D3"/><use xlink:href="#g" transform="matrix(4.5 0 0 4.5 573.8 227)" color="#9400D3"/><use xlink:href="#g" transform="matrix(4.5 0 0 4.5 615 227)" color="#9400D3"/><use xlink:href="#g" transform="matrix(4.5 0 0 4.5 380.1 472)" color="#9400D3"/></g><g fill="none" color="#000" stroke="currentColor"><path stroke="#000" d="M78.8 18.1V436H615V18.1H78.8z"/></g></svg>