<svg width="640" height="500" xmlns="http://www.w3.org/2000/svg" xmlns:xlink="http://www.w3.org/1999/xlink"><path fill="#fff" d="M0 0h640v500H0z"/><defs><path id="d" stroke-width=".222" stroke="currentColor" d="M-1-1h2v2h-2z"/><path id="b" stroke-width=".222" stroke="currentColor" d="M0-1.33l-1.33 2h2.66z"/><path id="f" stroke-width=".222" stroke="currentColor" d="M0 1.33L1.265.411.782-1.067l-1.564-.009-.483 1.487z"/><use xlink:href="#b" id="c" stroke="currentColor" transform="rotate(180)"/><use xlink:href="#d" id="e" stroke="currentColor" transform="rotate(45)"/><circle id="a" stroke-width=".222" stroke="currentColor" cx="0" cy="0" r="1"/></defs><g fill="none" color="#000" stroke="currentColor"><path stroke="#000" d="M62.2 413.2h9m543.8 0h-9"/><text transform="translate(53.9 417.1)" stroke="none" fill="#000" font-family="Arial" font-size="12" text-anchor="end"><tspan>2000</tspan></text></g><g fill="none" color="#000" stroke="currentColor"><path stroke="#000" d="M62.2 350.3h9m543.8 0h-9"/><text transform="translate(53.9 354.2)" stroke="none" fill="#000" font-family="Arial" font-size="12" text-anchor="end"><tspan>2500</tspan></text></g><g fill="none" color="#000" stroke="currentColor"><path stroke="#000" d="M62.2 287.5h9m543.8 0h-9"/><text transform="translate(53.9 291.4)" stroke="none" fill="#000" font-family="Arial" font-size="12" text-anchor="end"><tspan>3000</tspan></text></g><g fill="none" color="#000" stroke="currentColor"><path stroke="#000" d="M62.2 224.6h9m543.8 0h-9"/><text transform="translate(53.9 228.5)" stroke="none" fill="#000" font-family="Arial" font-size="12" text-anchor="end"><tspan>3500</tspan></text></g><g fill="none" color="#000" stroke="currentColor"><path stroke="#000" d="M62.2 161.8h9m543.8 0h-9"/><text transform="translate(53.9 165.7)" stroke="none" fill="#000" font-family="Arial" font-size="12" text-anchor="end"><tspan>4000</tspan></text></g><g fill="none" color="#000" stroke="currentColor"><path stroke="#000" d="M62.2 98.9h9m543.8 0h-9"/><text transform="translate(53.9 102.8)" stroke="none" fill="#000" font-family="Arial" font-size="12" text-anchor="end"><tspan>4500</tspan></text></g><g fill="none" color="#000" stroke="currentColor"><path stroke="#000" d="M62.2 36h9M615 36h-9"/><text transform="translate(53.9 39.9)" stroke="none" fill="#000" font-family="Arial" font-size="12" text-anchor="end"><tspan>5000</tspan></text></g><g fill="none" color="#000" stroke="currentColor"><path stroke="#000" d="M62.2 428v-9m0-400.9v9"/><text transform="translate(62.2 449.9)" stroke="none" fill="#000" font-family="Arial" font-size="12" text-anchor="middle"><tspan>0</tspan></text></g><g fill="none" color="#000" stroke="currentColor"><path stroke="#000" d="M118 428v-9m0-400.9v9"/><text transform="translate(118 449.9)" stroke="none" fill="#000" font-family="Arial" font-size="12" text-anchor="middle"><tspan>10</tspan></text></g><g fill="none" color="#000" stroke="currentColor"><path stroke="#000" d="M173.9 428v-9m0-400.9v9"/><text transform="translate(173.9 449.9)" stroke="none" fill="#000" font-family="Arial" font-size="12" text-anchor="middle"><tspan>20</tspan></text></g><g fill="none" color="#000" stroke="currentColor"><path stroke="#000" d="M229.7 428v-9m0-400.9v9"/><text transform="translate(229.7 449.9)" stroke="none" fill="#000" font-family="Arial" font-size="12" text-anchor="middle"><tspan>30</tspan></text></g><g fill="none" color="#000" stroke="currentColor"><path stroke="#000" d="M285.6 428v-9m0-400.9v9"/><text transform="translate(285.6 449.9)" stroke="none" fill="#000" font-family="Arial" font-size="12" text-anchor="middle"><tspan>40</tspan></text></g><g fill="none" color="#000" stroke="currentColor"><path stroke="#000" d="M341.4 428v-9m0-400.9v9"/><text transform="translate(341.4 449.9)" stroke="none" fill="#000" font-family="Arial" font-size="12" text-anchor="middle"><tspan>50</tspan></text></g><g fill="none" color="#000" stroke="currentColor"><path stroke="#000" d="M397.2 428v-9m0-400.9v9"/><text transform="translate(397.2 449.9)" stroke="none" fill="#000" font-family="Arial" font-size="12" text-anchor="middle"><tspan>60</tspan></text></g><g fill="none" color="#000" stroke="currentColor"><path stroke="#000" d="M453.1 428v-9m0-400.9v9"/><text transform="translate(453.1 449.9)" stroke="none" fill="#000" font-family="Arial" font-size="12" text-anchor="middle"><tspan>70</tspan></text></g><g fill="none" color="#000" stroke="currentColor"><path stroke="#000" d="M508.9 428v-9m0-400.9v9"/><text transform="translate(508.9 449.9)" stroke="none" fill="#000" font-family="Arial" font-size="12" text-anchor="middle"><tspan>80</tspan></text></g><g fill="none" color="#000" stroke="currentColor"><path stroke="#000" d="M564.7 428v-9m0-400.9v9"/><text transform="translate(564.7 449.9)" stroke="none" fill="#000" font-family="Arial" font-size="12" text-anchor="middle"><tspan>90</tspan></text></g><path stroke="#000" d="M62.2 18.1V428H615V18.1H62.2z" fill="none" color="#000"/><text transform="translate(279.8 467.9)" stroke="none" fill="#000" font-family="Arial" font-size="12" text-anchor="end" color="#000"><tspan>pages</tspan></text><path stroke="#9400D3" d="M288.1 464h42.2M62.2 26l5.6 392.2 5.6.2 5.6-4.5 5.5 5.5 5.6-.7 5.6.4 5.6-.5 5.6.9 5.6-.4 5.5.9 5.6-25.8 5.6 24.7 5.6.8 5.6-.6 5.6-7 5.5 6.9 5.6.6 5.6.4 5.6-2.8 5.6 2.3 5.6.4 5.5-29.2 5.6 20.6 5.6 7.7 5.6 1.1 5.6-1.8 5.6.5 5.5.7 5.6.2 5.6-1.1 5.6.6 5.6.2 5.6.4 5.6-12.8 5.5 12.5 5.6.4 5.6-.7 5.6-.3 5.6.7 5.6-.9 5.5 1.2 5.6-1.5 5.6-7.4 5.6 8.3 5.6-9.9 5.6 8.7 5.5 1.1 5.6.4 5.6-.7 5.6-19.5 5.6 19.4 5.6 1.2 5.5-.9 5.6-1.1 5.6 2 5.6-30 5.6 28.7 5.6.6 5.5.8 5.6-10.1 5.6 10h5.6l5.6-.5 5.6-1 5.5 1.4 5.6-.2 5.6.4 5.6-15.6 5.6 15.4 5.6-.1 5.6-.4 5.5-.2 5.6.7 5.6-.2h5.6l5.6-1.4 5.6 1.6 5.5-.3 5.6-14.1 5.6 13 5.6.9 5.6.4 5.6-.5 5.5-.5 5.6-365 5.6 365h5.6l5.6 1.3 5.6-28.9 5.5 28.2 5.6-.3 5.6.9 5.6-.9h5.6l5.6-7.7 5.5 7.8 5.6-.4 5.6 1 5.6-1.4" fill="none" color="#000"/><text transform="translate(279.8 485.9)" stroke="none" fill="#000" font-family="Arial" font-size="12" text-anchor="end" color="#000"><tspan>pages+cached</tspan></text><path stroke="#009E73" d="M288.1 482h42.2M62.2 419.7l5.6-4.4 5.6-27.4L79 416l5.5.4 5.6-29.2 5.6 29.1 5.6-9.5 5.6 9.5 5.6-.3 5.5.4 5.6-29.6 5.6 29.7 5.6-.2 5.6-.1h5.6l5.5-29.1 5.6 29.3 5.6-.5 5.6.6 5.6.2 5.6-.5 5.5-28.7 5.6 29 5.6.2 5.6-.2 5.6-.2 5.6-28.6 5.5 28.9 5.6-.5 5.6.5 5.6-.3 5.6-19.5 5.6-9.5 5.6.4 5.5 28.4 5.6.3 5.6-29.3 5.6 29.8 5.6-29.5 5.6 29.1 5.5-.1 5.6-.1 5.6-.2 5.6.5 5.6-.3 5.6.5 5.5-.4 5.6.1 5.6-.1 5.6-19.4 5.6 19.6 5.6-.1 5.5-29.2 5.6 29 5.6.2 5.6-29.2 5.6 29 5.6-19 5.5 19.5 5.6-28.9 5.6-.6 5.6 29.4 5.6-29.3 5.6 29.1 5.5.2 5.6-.4 5.6.4 5.6.1 5.6-.5 5.6-28.7 5.6 28.9 5.5-29 5.6 29 5.6-.3 5.6.5 5.6-.3 5.6.2 5.5.2 5.6-.2 5.6-29.4 5.6 29.4h5.6l5.6-19.6 5.5 20 5.6-.4 5.6.1 5.6-.1 5.6-28.8 5.6-.1 5.5 29h5.6l5.6-.3 5.6.1 5.6.1 5.6-28.7 5.5 9.7 5.6 18.9h5.6l5.6-29.3" fill="none" color="#000"/><text transform="translate(479.7 467.9)" stroke="none" fill="#000" font-family="Arial" font-size="12" text-anchor="end" color="#000"><tspan>score p10=2336</tspan></text><path stroke="#56B4E9" d="M488 464h42.2m-468-93H615" fill="none" color="#000"/><g><text transform="translate(479.7 485.9)" stroke="none" fill="#000" font-family="Arial" font-size="12" text-anchor="end" color="#000"><tspan>score median=4000</tspan></text><path stroke="#E69F00" d="M488 482h42.2m-468-320.2H615" fill="none" color="#000"/></g><g fill="none" color="#000" stroke="currentColor"><path stroke="#000" d="M62.2 18.1V428H615V18.1H62.2z"/></g></svg>