<svg width="640" height="500" xmlns="http://www.w3.org/2000/svg" xmlns:xlink="http://www.w3.org/1999/xlink"><path fill="#fff" d="M0 0h640v500H0z"/><defs><path id="d" stroke-width=".222" stroke="currentColor" d="M-1-1h2v2h-2z"/><path id="b" stroke-width=".222" stroke="currentColor" d="M0-1.33l-1.33 2h2.66z"/><path id="f" stroke-width=".222" stroke="currentColor" d="M0 1.33L1.265.411.782-1.067l-1.564-.009-.483 1.487z"/><use xlink:href="#b" id="c" stroke="currentColor" transform="rotate(180)"/><use xlink:href="#d" id="e" stroke="currentColor" transform="rotate(45)"/><circle id="a" stroke-width=".222" stroke="currentColor" cx="0" cy="0" r="1"/></defs><g fill="none" color="#000" stroke="currentColor"><path stroke="#000" d="M62.2 385.6h9m543.8 0h-9"/><text transform="translate(53.9 389.5)" stroke="none" fill="#000" font-family="Arial" font-size="12" text-anchor="end"><tspan>1850</tspan></text></g><g fill="none" color="#000" stroke="currentColor"><path stroke="#000" d="M62.2 335h9m543.8 0h-9"/><text transform="translate(53.9 338.9)" stroke="none" fill="#000" font-family="Arial" font-size="12" text-anchor="end"><tspan>1900</tspan></text></g><g fill="none" color="#000" stroke="currentColor"><path stroke="#000" d="M62.2 284.5h9m543.8 0h-9"/><text transform="translate(53.9 288.4)" stroke="none" fill="#000" font-family="Arial" font-size="12" text-anchor="end"><tspan>1950</tspan></text></g><g fill="none" color="#000" stroke="currentColor"><path stroke="#000" d="M62.2 233.9h9m543.8 0h-9"/><text transform="translate(53.9 237.8)" stroke="none" fill="#000" font-family="Arial" font-size="12" text-anchor="end"><tspan>2000</tspan></text></g><g fill="none" color="#000" stroke="currentColor"><path stroke="#000" d="M62.2 183.3h9m543.8 0h-9"/><text transform="translate(53.9 187.2)" stroke="none" fill="#000" font-family="Arial" font-size="12" text-anchor="end"><tspan>2050</tspan></text></g><g fill="none" color="#000" stroke="currentColor"><path stroke="#000" d="M62.2 132.8h9m543.8 0h-9"/><text transform="translate(53.9 136.7)" stroke="none" fill="#000" font-family="Arial" font-size="12" text-anchor="end"><tspan>2100</tspan></text></g><g fill="none" color="#000" stroke="currentColor"><path stroke="#000" d="M62.2 82.2h9m543.8 0h-9"/><text transform="translate(53.9 86.1)" stroke="none" fill="#000" font-family="Arial" font-size="12" text-anchor="end"><tspan>2150</tspan></text></g><g fill="none" color="#000" stroke="currentColor"><path stroke="#000" d="M62.2 31.6h9m543.8 0h-9"/><text transform="translate(53.9 35.5)" stroke="none" fill="#000" font-family="Arial" font-size="12" text-anchor="end"><tspan>2200</tspan></text></g><g fill="none" color="#000" stroke="currentColor"><path stroke="#000" d="M62.2 428v-9m0-400.9v9"/><text transform="translate(62.2 449.9)" stroke="none" fill="#000" font-family="Arial" font-size="12" text-anchor="middle"><tspan>0</tspan></text></g><g fill="none" color="#000" stroke="currentColor"><path stroke="#000" d="M118 428v-9m0-400.9v9"/><text transform="translate(118 449.9)" stroke="none" fill="#000" font-family="Arial" font-size="12" text-anchor="middle"><tspan>10</tspan></text></g><g fill="none" color="#000" stroke="currentColor"><path stroke="#000" d="M173.9 428v-9m0-400.9v9"/><text transform="translate(173.9 449.9)" stroke="none" fill="#000" font-family="Arial" font-size="12" text-anchor="middle"><tspan>20</tspan></text></g><g fill="none" color="#000" stroke="currentColor"><path stroke="#000" d="M229.7 428v-9m0-400.9v9"/><text transform="translate(229.7 449.9)" stroke="none" fill="#000" font-family="Arial" font-size="12" text-anchor="middle"><tspan>30</tspan></text></g><g fill="none" color="#000" stroke="currentColor"><path stroke="#000" d="M285.6 428v-9m0-400.9v9"/><text transform="translate(285.6 449.9)" stroke="none" fill="#000" font-family="Arial" font-size="12" text-anchor="middle"><tspan>40</tspan></text></g><g fill="none" color="#000" stroke="currentColor"><path stroke="#000" d="M341.4 428v-9m0-400.9v9"/><text transform="translate(341.4 449.9)" stroke="none" fill="#000" font-family="Arial" font-size="12" text-anchor="middle"><tspan>50</tspan></text></g><g fill="none" color="#000" stroke="currentColor"><path stroke="#000" d="M397.2 428v-9m0-400.9v9"/><text transform="translate(397.2 449.9)" stroke="none" fill="#000" font-family="Arial" font-size="12" text-anchor="middle"><tspan>60</tspan></text></g><g fill="none" color="#000" stroke="currentColor"><path stroke="#000" d="M453.1 428v-9m0-400.9v9"/><text transform="translate(453.1 449.9)" stroke="none" fill="#000" font-family="Arial" font-size="12" text-anchor="middle"><tspan>70</tspan></text></g><g fill="none" color="#000" stroke="currentColor"><path stroke="#000" d="M508.9 428v-9m0-400.9v9"/><text transform="translate(508.9 449.9)" stroke="none" fill="#000" font-family="Arial" font-size="12" text-anchor="middle"><tspan>80</tspan></text></g><g fill="none" color="#000" stroke="currentColor"><path stroke="#000" d="M564.7 428v-9m0-400.9v9"/><text transform="translate(564.7 449.9)" stroke="none" fill="#000" font-family="Arial" font-size="12" text-anchor="middle"><tspan>90</tspan></text></g><path stroke="#000" d="M62.2 18.1V428H615V18.1H62.2z" fill="none" color="#000"/><text transform="translate(279.8 467.9)" stroke="none" fill="#000" font-family="Arial" font-size="12" text-anchor="end" color="#000"><tspan>pages+cached+nointeractive</tspan></text><path stroke="#9400D3" d="M288.1 464h42.2M62.2 259.6l5.6-228.7 5.6 231.6 5.6-1.1 5.5-.9 5.6.2 5.6-3.7 5.6-224.8 5.6-4.2 5.6 75.7 5.5-74.5 5.6 233 5.6-1.3 5.6-1 5.6 2.3 5.6-2.4 5.5 4.3 5.6-237.8 5.6 2.6 5.6 232.4L173.9 29l5.6 231.7 5.5.4 5.6-.7 5.6 2.4 5.6-3.6 5.6-228.6 5.6-2.5 5.5 233.1 5.6-232.5 5.6 72.8 5.6 5.4 5.6-.7 5.6-74 5.6-3 5.5 75.9 5.6 155.6 5.6.2 5.6-155.3 5.6-75.5 5.6 230.8 5.5-233.8 5.6 3.1 5.6 229.1 5.6 1.9 5.6.7 5.6-156.8 5.5-75.9 5.6 233.1 5.6-233.9 5.6 1.5 5.6 231.5 5.6.8 5.5-157.3 5.6.4 5.6 1.8 5.6-78.9 5.6-1 5.6 7.1 5.5-4.4 5.6-3.9 5.6 2.2 5.6 235.7L414 28.2l5.6-.1 5.5 1.9 5.6 230.9 5.6-230.2 5.6-3.3 5.6 234.2 5.6-229.5 5.6-2.4 5.5 75.7 5.6-75.1 5.6-2.5 5.6 2.5 5.6-1.7 5.6-1.5 5.5 1.4 5.6.3 5.6 236.5 5.6-236.8 5.6-2.1 5.6 236.9 5.5 4 5.6-5.6 5.6-156.5L548 27l5.6 3.3 5.6 77.2 5.5-78.8 5.6-2.7 5.6 233.8 5.6-228.9 5.6.5 5.6.5 5.5-1 5.6 73.9 5.6 157.6 5.6-235" fill="none" color="#000"/><text transform="translate(279.8 485.9)" stroke="none" fill="#000" font-family="Arial" font-size="12" text-anchor="end" color="#000"><tspan>pages+cached+noadtech</tspan></text><path stroke="#009E73" d="M288.1 482h42.2M62.2 189.5l5.6 225 5.6.3 5.6 3.8 5.5-5.2 5.6-235 5.6 9.3 5.6 231.1 5.6-2 5.6-232.8 5.5 230.9 5.6-231.8 5.6 229.3 5.6-229.8 5.6.2 5.6-2.5 5.5 231.2 5.6-227.2 5.6 231.2 5.6-237.2 5.6 240.8 5.6-159.3 5.5-78.4 5.6 7.4 5.6 226 5.6-233.4 5.6 75.9 5.6 157.5 5.5 2.5 5.6-235.3 5.6 8.8 5.6 228.5 5.6.8 5.6-235.9 5.6 235.3 5.5-235 5.6-5.8 5.6 239.7 5.6-232.8 5.6-1.9 5.6 2.1 5.5 230.3 5.6-231.8 5.6 73.9 5.6-75.2 5.6 232.6 5.6-233.9 5.5 232.8 5.6 2.8 5.6-232.7 5.6 228.9 5.6-231 5.6 75 5.5 158.3 5.6 2 5.6-237.7 5.6 234.9 5.6-155.5 5.6.8 5.5 150.1 5.6 6.9 5.6-160.2 5.6-70.5 5.6 228 5.6.1 5.5-236.4 5.6 3.9 5.6 237.2 5.6-1.2 5.6-157.6 5.6-70.9 5.6 228.6 5.5-234 5.6-2.9 5.6 234.5 5.6-157.7 5.6-76.7 5.6 235.5 5.5-232.9 5.6-.3 5.6-1.3 5.6 1.3 5.6-.1 5.6 3.6 5.5-2.8 5.6 73.4 5.6 157.8L548 181l5.6 1.6 5.6 82.2 5.5-83.1 5.6 232 5.6-229.6 5.6 232.4 5.6-156.6 5.6 150 5.5-222.7 5.6 228 5.6-232.5 5.6-1.1" fill="none" color="#000"/><text transform="translate(554.4 467.9)" stroke="none" fill="#000" font-family="Arial" font-size="12" text-anchor="end" color="#000"><tspan>score p10=2336</tspan></text><path stroke="#56B4E9" d="M562.7 464h42.2" fill="none" color="#000"/><g><text transform="translate(554.4 485.9)" stroke="none" fill="#000" font-family="Arial" font-size="12" text-anchor="end" color="#000"><tspan>score median=4000</tspan></text><path stroke="#E69F00" d="M562.7 482h42.2" fill="none" color="#000"/></g><g fill="none" color="#000" stroke="currentColor"><path stroke="#000" d="M62.2 18.1V428H615V18.1H62.2z"/></g></svg>