<svg width="640" height="500" xmlns="http://www.w3.org/2000/svg" xmlns:xlink="http://www.w3.org/1999/xlink"><path fill="#fff" d="M0 0h640v500H0z"/><defs><path id="d" stroke-width=".222" stroke="currentColor" d="M-1-1h2v2h-2z"/><path id="b" stroke-width=".222" stroke="currentColor" d="M0-1.33l-1.33 2h2.66z"/><path id="f" stroke-width=".222" stroke="currentColor" d="M0 1.33L1.265.411.782-1.067l-1.564-.009-.483 1.487z"/><use xlink:href="#b" id="c" stroke="currentColor" transform="rotate(180)"/><use xlink:href="#d" id="e" stroke="currentColor" transform="rotate(45)"/><circle id="a" stroke-width=".222" stroke="currentColor" cx="0" cy="0" r="1"/></defs><g fill="none" color="#000" stroke="currentColor"><path stroke="#000" d="M62.2 390.9h9m543.8 0h-9"/><text transform="translate(53.9 394.8)" stroke="none" fill="#000" font-family="Arial" font-size="12" text-anchor="end"><tspan>1500</tspan></text></g><g fill="none" color="#000" stroke="currentColor"><path stroke="#000" d="M62.2 332.7h9m543.8 0h-9"/><text transform="translate(53.9 336.6)" stroke="none" fill="#000" font-family="Arial" font-size="12" text-anchor="end"><tspan>1600</tspan></text></g><g fill="none" color="#000" stroke="currentColor"><path stroke="#000" d="M62.2 274.4h9m543.8 0h-9"/><text transform="translate(53.9 278.3)" stroke="none" fill="#000" font-family="Arial" font-size="12" text-anchor="end"><tspan>1700</tspan></text></g><g fill="none" color="#000" stroke="currentColor"><path stroke="#000" d="M62.2 216.2h9m543.8 0h-9"/><text transform="translate(53.9 220.1)" stroke="none" fill="#000" font-family="Arial" font-size="12" text-anchor="end"><tspan>1800</tspan></text></g><g fill="none" color="#000" stroke="currentColor"><path stroke="#000" d="M62.2 158h9m543.8 0h-9"/><text transform="translate(53.9 161.9)" stroke="none" fill="#000" font-family="Arial" font-size="12" text-anchor="end"><tspan>1900</tspan></text></g><g fill="none" color="#000" stroke="currentColor"><path stroke="#000" d="M62.2 99.7h9m543.8 0h-9"/><text transform="translate(53.9 103.6)" stroke="none" fill="#000" font-family="Arial" font-size="12" text-anchor="end"><tspan>2000</tspan></text></g><g fill="none" color="#000" stroke="currentColor"><path stroke="#000" d="M62.2 41.5h9m543.8 0h-9"/><text transform="translate(53.9 45.4)" stroke="none" fill="#000" font-family="Arial" font-size="12" text-anchor="end"><tspan>2100</tspan></text></g><g fill="none" color="#000" stroke="currentColor"><path stroke="#000" d="M62.2 392v-9m0-364.9v9"/><text transform="translate(62.2 413.9)" stroke="none" fill="#000" font-family="Arial" font-size="12" text-anchor="middle"><tspan>0</tspan></text></g><g fill="none" color="#000" stroke="currentColor"><path stroke="#000" d="M118 392v-9m0-364.9v9"/><text transform="translate(118 413.9)" stroke="none" fill="#000" font-family="Arial" font-size="12" text-anchor="middle"><tspan>10</tspan></text></g><g fill="none" color="#000" stroke="currentColor"><path stroke="#000" d="M173.9 392v-9m0-364.9v9"/><text transform="translate(173.9 413.9)" stroke="none" fill="#000" font-family="Arial" font-size="12" text-anchor="middle"><tspan>20</tspan></text></g><g fill="none" color="#000" stroke="currentColor"><path stroke="#000" d="M229.7 392v-9m0-364.9v9"/><text transform="translate(229.7 413.9)" stroke="none" fill="#000" font-family="Arial" font-size="12" text-anchor="middle"><tspan>30</tspan></text></g><g fill="none" color="#000" stroke="currentColor"><path stroke="#000" d="M285.6 392v-9m0-364.9v9"/><text transform="translate(285.6 413.9)" stroke="none" fill="#000" font-family="Arial" font-size="12" text-anchor="middle"><tspan>40</tspan></text></g><g fill="none" color="#000" stroke="currentColor"><path stroke="#000" d="M341.4 392v-9m0-364.9v9"/><text transform="translate(341.4 413.9)" stroke="none" fill="#000" font-family="Arial" font-size="12" text-anchor="middle"><tspan>50</tspan></text></g><g fill="none" color="#000" stroke="currentColor"><path stroke="#000" d="M397.2 392v-9m0-364.9v9"/><text transform="translate(397.2 413.9)" stroke="none" fill="#000" font-family="Arial" font-size="12" text-anchor="middle"><tspan>60</tspan></text></g><g fill="none" color="#000" stroke="currentColor"><path stroke="#000" d="M453.1 392v-9m0-364.9v9"/><text transform="translate(453.1 413.9)" stroke="none" fill="#000" font-family="Arial" font-size="12" text-anchor="middle"><tspan>70</tspan></text></g><g fill="none" color="#000" stroke="currentColor"><path stroke="#000" d="M508.9 392v-9m0-364.9v9"/><text transform="translate(508.9 413.9)" stroke="none" fill="#000" font-family="Arial" font-size="12" text-anchor="middle"><tspan>80</tspan></text></g><g fill="none" color="#000" stroke="currentColor"><path stroke="#000" d="M564.7 392v-9m0-364.9v9"/><text transform="translate(564.7 413.9)" stroke="none" fill="#000" font-family="Arial" font-size="12" text-anchor="middle"><tspan>90</tspan></text></g><path stroke="#000" d="M62.2 18.1V392H615V18.1H62.2z" fill="none" color="#000"/><text transform="translate(437.8 431.9)" stroke="none" fill="#000" font-family="Arial" font-size="12" text-anchor="end" color="#000"><tspan>pages+cached+noexternal</tspan></text><path stroke="#9400D3" d="M446.1 428h42.2M62.2 205.4l5.6-1.2 5.6.7L79 70.7l5.5 133.4 5.6-.3 5.6.5 5.6.4 5.6-133.5 5.6 1.2 5.5-2.3 5.6.4 5.6-.6 5.6 1.1 5.6 134.4L146 117l5.5-2.1 5.6-46.6 5.6 5.6 5.6-4.4 5.6 3.2 5.6 130.2 5.5 1.5 5.6 1 5.6-.6 5.6-1 5.6 1.1L213 71.5l5.5 41.3 5.6-39.3 5.6 130.8 5.6-134.6 5.6 134.5 5.6.4 5.6-134.4 5.5 134.2 5.6 1.5 5.6-2 5.6-133h5.6l5.6 1 5.5 133.9 5.6-135.3 5.6 134.2 5.6 1.7 5.6-1.5 5.6-91.8 5.5 92.7 5.6-132.9 5.6 132 5.6-134.1 5.6-.2 5.6-.8 5.5 2.5 5.6 131.2 5.6 2.5 5.6-2.1 5.6-90.4 5.6-42.7 5.5-.5 5.6 134.6 5.6-135.1 5.6-1.7 5.6.3 5.6 5 5.5 42 5.6 88.3 5.6-134 5.6 1.7 5.6 134.3 5.6.3 5.6.3 5.5-1.2 5.6-133.9 5.6 133.4L481 72.8l5.6 131.1 5.6-133.4 5.5 134.8 5.6-134.6 5.6 133.3 5.6-89 5.6-44.3 5.6 135.5 5.5-3 5.6-130.5 5.6 42.2 5.6.2 5.6-43.9 5.6 134.1 5.5-135.1 5.6 135.3L575.9 71l5.6.9 5.6 43.5 5.6-44.4 5.5 133.2 5.6-132.8 5.6-.6 5.6 133.5" fill="none" color="#000"/><text transform="translate(437.8 449.9)" stroke="none" fill="#000" font-family="Arial" font-size="12" text-anchor="end" color="#000"><tspan>pages+cached+noexternal+nofonts</tspan></text><path stroke="#009E73" d="M446.1 446h42.2M62.2 383.6l5.6-.2 5.6.1L79 206.9l5.5.3 5.6 176.5 5.6.8 5.6-220.7 5.6 220.2 5.6-358.5 5.5 182 5.6 176.4 5.6.3 5.6-.2 5.6-.1 5.6-.2 5.5-.4 5.6.4h5.6L168.3 31l5.6 352.7 5.6-1.2 5.5-.4 5.6-219.5 5.6 221.4 5.6.6 5.6-.2 5.6-.3 5.5-.4h5.6l5.6-357.6 5.6 2.8 5.6 355.8 5.6-177.8 5.6-178.7 5.5-1.5 5.6 357.4 5.6-.2 5.6-1 5.6.2 5.6-357 5.5 357.4 5.6-353.8 5.6 354.1 5.6-.3 5.6-175.7 5.6 176 5.5-224.7 5.6 224.8 5.6-354.6 5.6-1.1 5.6 356 5.6-.5 5.5.2 5.6-352.4 5.6 131.8 5.6 44.6 5.6-177.2 5.6 352.8 5.5.7 5.6.2 5.6-.5 5.6-.8L414 26.7l5.6 357.1 5.5-354.2 5.6-.2 5.6 353.8 5.6-357.9 5.6 358.7 5.6.2 5.6-.4 5.5-.1 5.6 1.1 5.6-354.2 5.6 352.6 5.6-352.9 5.6 354.1 5.5-177.2 5.6-.3 5.6 176.2 5.6 1.2 5.6.3 5.6-.7 5.5-.8 5.6.2 5.6-352.7L548 384l5.6.1 5.6-356.8 5.5 356.4 5.6-.4h5.6l5.6-.1 5.6-222.4 5.6 223.4 5.5-177.2 5.6 177.4 5.6-.9 5.6-.2" fill="none" color="#000"/><text transform="translate(437.8 467.9)" stroke="none" fill="#000" font-family="Arial" font-size="12" text-anchor="end" color="#000"><tspan>score p10=2336</tspan></text><path stroke="#56B4E9" d="M446.1 464h42.2" fill="none" color="#000"/><g><text transform="translate(437.8 485.9)" stroke="none" fill="#000" font-family="Arial" font-size="12" text-anchor="end" color="#000"><tspan>score median=4000</tspan></text><path stroke="#E69F00" d="M446.1 482h42.2" fill="none" color="#000"/></g><g fill="none" color="#000" stroke="currentColor"><path stroke="#000" d="M62.2 18.1V392H615V18.1H62.2z"/></g></svg>