<svg width="640" height="520" xmlns="http://www.w3.org/2000/svg" xmlns:xlink="http://www.w3.org/1999/xlink"><path fill="#fff" d="M0 0h640v520H0z"/><defs><path id="g" stroke-width=".222" stroke="currentColor" d="M-1 0h2M0-1v2"/><path id="h" stroke-width=".222" stroke="currentColor" d="M-1-1l2 2m0-2l-2 2"/><path id="i" stroke-width=".222" stroke="currentColor" d="M-1 0h2M0-1v2m-1-2l2 2m-2 0l2-2"/><path id="d" stroke-width=".222" stroke="currentColor" d="M-1-1h2v2h-2z"/><path id="b" stroke-width=".222" stroke="currentColor" d="M0-1.33l-1.33 2h2.66z"/><path id="f" stroke-width=".222" stroke="currentColor" d="M0 1.33L1.265.411.782-1.067l-1.564-.009-.483 1.487z"/><use xlink:href="#b" id="c" stroke="currentColor" transform="rotate(180)"/><use xlink:href="#d" id="e" stroke="currentColor" transform="rotate(45)"/><circle id="a" stroke-width=".222" stroke="currentColor" cx="0" cy="0" r="1"/></defs><g fill="none" color="#000" stroke="currentColor"><path stroke="#000" d="M78.8 448h9m527.2 0h-9"/><text transform="translate(70.5 451.9)" stroke="none" fill="#000" font-family="Arial" font-size="12" text-anchor="end"><tspan>0.999</tspan></text></g><g fill="none" color="#000" stroke="currentColor"><path stroke="#000" d="M78.8 405h9m527.2 0h-9"/><text transform="translate(70.5 408.9)" stroke="none" fill="#000" font-family="Arial" font-size="12" text-anchor="end"><tspan>0.9992</tspan></text></g><g fill="none" color="#000" stroke="currentColor"><path stroke="#000" d="M78.8 362h9m527.2 0h-9"/><text transform="translate(70.5 365.9)" stroke="none" fill="#000" font-family="Arial" font-size="12" text-anchor="end"><tspan>0.9994</tspan></text></g><g fill="none" color="#000" stroke="currentColor"><path stroke="#000" d="M78.8 319h9m527.2 0h-9"/><text transform="translate(70.5 322.9)" stroke="none" fill="#000" font-family="Arial" font-size="12" text-anchor="end"><tspan>0.9996</tspan></text></g><g fill="none" color="#000" stroke="currentColor"><path stroke="#000" d="M78.8 276h9m527.2 0h-9"/><text transform="translate(70.5 279.9)" stroke="none" fill="#000" font-family="Arial" font-size="12" text-anchor="end"><tspan>0.9998</tspan></text></g><g fill="none" color="#000" stroke="currentColor"><path stroke="#000" d="M78.8 233.1h9m527.2 0h-9"/><text transform="translate(70.5 237)" stroke="none" fill="#000" font-family="Arial" font-size="12" text-anchor="end"><tspan>1</tspan></text></g><g fill="none" color="#000" stroke="currentColor"><path stroke="#000" d="M78.8 190.1h9m527.2 0h-9"/><text transform="translate(70.5 194)" stroke="none" fill="#000" font-family="Arial" font-size="12" text-anchor="end"><tspan>1.0002</tspan></text></g><g fill="none" color="#000" stroke="currentColor"><path stroke="#000" d="M78.8 147.1h9m527.2 0h-9"/><text transform="translate(70.5 151)" stroke="none" fill="#000" font-family="Arial" font-size="12" text-anchor="end"><tspan>1.0004</tspan></text></g><g fill="none" color="#000" stroke="currentColor"><path stroke="#000" d="M78.8 104.1h9m527.2 0h-9"/><text transform="translate(70.5 108)" stroke="none" fill="#000" font-family="Arial" font-size="12" text-anchor="end"><tspan>1.0006</tspan></text></g><g fill="none" color="#000" stroke="currentColor"><path stroke="#000" d="M78.8 61.1h9m527.2 0h-9"/><text transform="translate(70.5 65)" stroke="none" fill="#000" font-family="Arial" font-size="12" text-anchor="end"><tspan>1.0008</tspan></text></g><g fill="none" color="#000" stroke="currentColor"><path stroke="#000" d="M78.8 18.1h9m527.2 0h-9"/><text transform="translate(70.5 22)" stroke="none" fill="#000" font-family="Arial" font-size="12" text-anchor="end"><tspan>1.001</tspan></text></g><g fill="none" color="#000" stroke="currentColor"><path stroke="#000" d="M78.8 448v-9m0-420.9v9"/><text transform="translate(78.8 469.9)" stroke="none" fill="#000" font-family="Arial" font-size="12" text-anchor="middle"><tspan>0</tspan></text></g><g fill="none" color="#000" stroke="currentColor"><path stroke="#000" d="M161.3 448v-9m0-420.9v9"/><text transform="translate(161.3 469.9)" stroke="none" fill="#000" font-family="Arial" font-size="12" text-anchor="middle"><tspan>2</tspan></text></g><g fill="none" color="#000" stroke="currentColor"><path stroke="#000" d="M243.8 448v-9m0-420.9v9"/><text transform="translate(243.8 469.9)" stroke="none" fill="#000" font-family="Arial" font-size="12" text-anchor="middle"><tspan>4</tspan></text></g><g fill="none" color="#000" stroke="currentColor"><path stroke="#000" d="M326.3 448v-9m0-420.9v9"/><text transform="translate(326.3 469.9)" stroke="none" fill="#000" font-family="Arial" font-size="12" text-anchor="middle"><tspan>6</tspan></text></g><g fill="none" color="#000" stroke="currentColor"><path stroke="#000" d="M408.8 448v-9m0-420.9v9"/><text transform="translate(408.8 469.9)" stroke="none" fill="#000" font-family="Arial" font-size="12" text-anchor="middle"><tspan>8</tspan></text></g><g fill="none" color="#000" stroke="currentColor"><path stroke="#000" d="M491.3 448v-9m0-420.9v9"/><text transform="translate(491.3 469.9)" stroke="none" fill="#000" font-family="Arial" font-size="12" text-anchor="middle"><tspan>10</tspan></text></g><g fill="none" color="#000" stroke="currentColor"><path stroke="#000" d="M573.8 448v-9m0-420.9v9"/><text transform="translate(573.8 469.9)" stroke="none" fill="#000" font-family="Arial" font-size="12" text-anchor="middle"><tspan>12</tspan></text></g><path stroke="#000" d="M78.8 18.1V448H615V18.1H78.8z" fill="none" color="#000"/><text transform="translate(288.1 487.9)" stroke="none" fill="#000" font-family="Arial" font-size="12" text-anchor="end" color="#000"><tspan>score:p90min</tspan></text><g fill="none" color="#000" stroke="currentColor"><path stroke="#9400D3" d="M296.4 484h42.2M78.8 233H615"/><use xlink:href="#g" transform="matrix(4.5 0 0 4.5 78.8 233)" color="#9400D3"/><use xlink:href="#g" transform="matrix(4.5 0 0 4.5 120 233)" color="#9400D3"/><use xlink:href="#g" transform="matrix(4.5 0 0 4.5 161.3 233)" color="#9400D3"/><use xlink:href="#g" transform="matrix(4.5 0 0 4.5 202.5 233)" color="#9400D3"/><use xlink:href="#g" transform="matrix(4.5 0 0 4.5 243.8 233)" color="#9400D3"/><use xlink:href="#g" transform="matrix(4.5 0 0 4.5 285 233)" color="#9400D3"/><use xlink:href="#g" transform="matrix(4.5 0 0 4.5 326.3 233)" color="#9400D3"/><use xlink:href="#g" transform="matrix(4.5 0 0 4.5 367.5 233)" color="#9400D3"/><use xlink:href="#g" transform="matrix(4.5 0 0 4.5 408.8 233)" color="#9400D3"/><use xlink:href="#g" transform="matrix(4.5 0 0 4.5 450 233)" color="#9400D3"/><use xlink:href="#g" transform="matrix(4.5 0 0 4.5 491.3 233)" color="#9400D3"/><use xlink:href="#g" transform="matrix(4.5 0 0 4.5 532.5 233)" color="#9400D3"/><use xlink:href="#g" transform="matrix(4.5 0 0 4.5 573.8 233)" color="#9400D3"/><use xlink:href="#g" transform="matrix(4.5 0 0 4.5 615 233)" color="#9400D3"/><use xlink:href="#g" transform="matrix(4.5 0 0 4.5 317.5 484)" color="#9400D3"/></g><text transform="translate(288.1 505.9)" stroke="none" fill="#000" font-family="Arial" font-size="12" text-anchor="end" color="#000"><tspan>score:p90mean</tspan></text><g fill="none" color="#000" stroke="currentColor"><path stroke="#009E73" d="M296.4 502h42.2M78.8 233H615"/><use xlink:href="#h" transform="matrix(4.5 0 0 4.5 78.8 233)" color="#009E73"/><use xlink:href="#h" transform="matrix(4.5 0 0 4.5 120 233)" color="#009E73"/><use xlink:href="#h" transform="matrix(4.5 0 0 4.5 161.3 233)" color="#009E73"/><use xlink:href="#h" transform="matrix(4.5 0 0 4.5 202.5 233)" color="#009E73"/><use xlink:href="#h" transform="matrix(4.5 0 0 4.5 243.8 233)" color="#009E73"/><use xlink:href="#h" transform="matrix(4.5 0 0 4.5 285 233)" color="#009E73"/><use xlink:href="#h" transform="matrix(4.5 0 0 4.5 326.3 233)" color="#009E73"/><use xlink:href="#h" transform="matrix(4.5 0 0 4.5 367.5 233)" color="#009E73"/><use xlink:href="#h" transform="matrix(4.5 0 0 4.5 408.8 233)" color="#009E73"/><use xlink:href="#h" transform="matrix(4.5 0 0 4.5 450 233)" color="#009E73"/><use xlink:href="#h" transform="matrix(4.5 0 0 4.5 491.3 233)" color="#009E73"/><use xlink:href="#h" transform="matrix(4.5 0 0 4.5 532.5 233)" color="#009E73"/><use xlink:href="#h" transform="matrix(4.5 0 0 4.5 573.8 233)" color="#009E73"/><use xlink:href="#h" transform="matrix(4.5 0 0 4.5 615 233)" color="#009E73"/><use xlink:href="#h" transform="matrix(4.5 0 0 4.5 317.5 502)" color="#009E73"/></g><text transform="translate(471.4 487.9)" stroke="none" fill="#000" font-family="Arial" font-size="12" text-anchor="end" color="#000"><tspan>score:p90median</tspan></text><g fill="none" color="#000" stroke="currentColor"><path stroke="#56B4E9" d="M479.7 484h42.2M78.8 233H615"/><use xlink:href="#i" transform="matrix(4.5 0 0 4.5 78.8 233)" color="#56B4E9"/><use xlink:href="#i" transform="matrix(4.5 0 0 4.5 120 233)" color="#56B4E9"/><use xlink:href="#i" transform="matrix(4.5 0 0 4.5 161.3 233)" color="#56B4E9"/><use xlink:href="#i" transform="matrix(4.5 0 0 4.5 202.5 233)" color="#56B4E9"/><use xlink:href="#i" transform="matrix(4.5 0 0 4.5 243.8 233)" color="#56B4E9"/><use xlink:href="#i" transform="matrix(4.5 0 0 4.5 285 233)" color="#56B4E9"/><use xlink:href="#i" transform="matrix(4.5 0 0 4.5 326.3 233)" color="#56B4E9"/><use xlink:href="#i" transform="matrix(4.5 0 0 4.5 367.5 233)" color="#56B4E9"/><use xlink:href="#i" transform="matrix(4.5 0 0 4.5 408.8 233)" color="#56B4E9"/><use xlink:href="#i" transform="matrix(4.5 0 0 4.5 450 233)" color="#56B4E9"/><use xlink:href="#i" transform="matrix(4.5 0 0 4.5 491.3 233)" color="#56B4E9"/><use xlink:href="#i" transform="matrix(4.5 0 0 4.5 532.5 233)" color="#56B4E9"/><use xlink:href="#i" transform="matrix(4.5 0 0 4.5 573.8 233)" color="#56B4E9"/><use xlink:href="#i" transform="matrix(4.5 0 0 4.5 615 233)" color="#56B4E9"/><use xlink:href="#i" transform="matrix(4.5 0 0 4.5 500.8 484)" color="#56B4E9"/></g><g><text transform="translate(471.4 505.9)" stroke="none" fill="#000" font-family="Arial" font-size="12" text-anchor="end" color="#000"><tspan>score:p90max</tspan></text><g fill="none" color="#000" stroke="currentColor"><path stroke="#E69F00" d="M479.7 502h42.2M78.8 233H615"/><use xlink:href="#d" transform="matrix(4.5 0 0 4.5 78.8 233)" color="#E69F00"/><use xlink:href="#d" transform="matrix(4.5 0 0 4.5 120 233)" color="#E69F00"/><use xlink:href="#d" transform="matrix(4.5 0 0 4.5 161.3 233)" color="#E69F00"/><use xlink:href="#d" transform="matrix(4.5 0 0 4.5 202.5 233)" color="#E69F00"/><use xlink:href="#d" transform="matrix(4.5 0 0 4.5 243.8 233)" color="#E69F00"/><use xlink:href="#d" transform="matrix(4.5 0 0 4.5 285 233)" color="#E69F00"/><use xlink:href="#d" transform="matrix(4.5 0 0 4.5 326.3 233)" color="#E69F00"/><use xlink:href="#d" transform="matrix(4.5 0 0 4.5 367.5 233)" color="#E69F00"/><use xlink:href="#d" transform="matrix(4.5 0 0 4.5 408.8 233)" color="#E69F00"/><use xlink:href="#d" transform="matrix(4.5 0 0 4.5 450 233)" color="#E69F00"/><use xlink:href="#d" transform="matrix(4.5 0 0 4.5 491.3 233)" color="#E69F00"/><use xlink:href="#d" transform="matrix(4.5 0 0 4.5 532.5 233)" color="#E69F00"/><use xlink:href="#d" transform="matrix(4.5 0 0 4.5 573.8 233)" color="#E69F00"/><use xlink:href="#d" transform="matrix(4.5 0 0 4.5 615 233)" color="#E69F00"/><use xlink:href="#d" transform="matrix(4.5 0 0 4.5 500.8 502)" color="#E69F00"/></g></g><g fill="none" color="#000" stroke="currentColor"><path stroke="#000" d="M78.8 18.1V448H615V18.1H78.8z"/></g></svg>