<svg width="640" height="500" xmlns="http://www.w3.org/2000/svg" xmlns:xlink="http://www.w3.org/1999/xlink"><path fill="#fff" d="M0 0h640v500H0z"/><defs><path id="d" stroke-width=".222" stroke="currentColor" d="M-1-1h2v2h-2z"/><path id="b" stroke-width=".222" stroke="currentColor" d="M0-1.33l-1.33 2h2.66z"/><path id="f" stroke-width=".222" stroke="currentColor" d="M0 1.33L1.265.411.782-1.067l-1.564-.009-.483 1.487z"/><use xlink:href="#b" id="c" stroke="currentColor" transform="rotate(180)"/><use xlink:href="#d" id="e" stroke="currentColor" transform="rotate(45)"/><circle id="a" stroke-width=".222" stroke="currentColor" cx="0" cy="0" r="1"/></defs><g fill="none" color="#000" stroke="currentColor"><path stroke="#000" d="M70.5 399.3h9m535.5 0h-9"/><text transform="translate(62.2 403.2)" stroke="none" fill="#000" font-family="Arial" font-size="12" text-anchor="end"><tspan>10000</tspan></text></g><g fill="none" color="#000" stroke="currentColor"><path stroke="#000" d="M70.5 303.7h9m535.5 0h-9"/><text transform="translate(62.2 307.6)" stroke="none" fill="#000" font-family="Arial" font-size="12" text-anchor="end"><tspan>15000</tspan></text></g><g fill="none" color="#000" stroke="currentColor"><path stroke="#000" d="M70.5 208.1h9m535.5 0h-9"/><text transform="translate(62.2 212)" stroke="none" fill="#000" font-family="Arial" font-size="12" text-anchor="end"><tspan>20000</tspan></text></g><g fill="none" color="#000" stroke="currentColor"><path stroke="#000" d="M70.5 112.6h9m535.5 0h-9"/><text transform="translate(62.2 116.5)" stroke="none" fill="#000" font-family="Arial" font-size="12" text-anchor="end"><tspan>25000</tspan></text></g><g fill="none" color="#000" stroke="currentColor"><path stroke="#000" d="M70.5 428v-9m0-400.9v9"/><text transform="translate(70.5 449.9)" stroke="none" fill="#000" font-family="Arial" font-size="12" text-anchor="middle"><tspan>0</tspan></text></g><g fill="none" color="#000" stroke="currentColor"><path stroke="#000" d="M125.5 428v-9m0-400.9v9"/><text transform="translate(125.5 449.9)" stroke="none" fill="#000" font-family="Arial" font-size="12" text-anchor="middle"><tspan>10</tspan></text></g><g fill="none" color="#000" stroke="currentColor"><path stroke="#000" d="M180.5 428v-9m0-400.9v9"/><text transform="translate(180.5 449.9)" stroke="none" fill="#000" font-family="Arial" font-size="12" text-anchor="middle"><tspan>20</tspan></text></g><g fill="none" color="#000" stroke="currentColor"><path stroke="#000" d="M235.5 428v-9m0-400.9v9"/><text transform="translate(235.5 449.9)" stroke="none" fill="#000" font-family="Arial" font-size="12" text-anchor="middle"><tspan>30</tspan></text></g><g fill="none" color="#000" stroke="currentColor"><path stroke="#000" d="M290.5 428v-9m0-400.9v9"/><text transform="translate(290.5 449.9)" stroke="none" fill="#000" font-family="Arial" font-size="12" text-anchor="middle"><tspan>40</tspan></text></g><g fill="none" color="#000" stroke="currentColor"><path stroke="#000" d="M345.5 428v-9m0-400.9v9"/><text transform="translate(345.5 449.9)" stroke="none" fill="#000" font-family="Arial" font-size="12" text-anchor="middle"><tspan>50</tspan></text></g><g fill="none" color="#000" stroke="currentColor"><path stroke="#000" d="M400.5 428v-9m0-400.9v9"/><text transform="translate(400.5 449.9)" stroke="none" fill="#000" font-family="Arial" font-size="12" text-anchor="middle"><tspan>60</tspan></text></g><g fill="none" color="#000" stroke="currentColor"><path stroke="#000" d="M455.5 428v-9m0-400.9v9"/><text transform="translate(455.5 449.9)" stroke="none" fill="#000" font-family="Arial" font-size="12" text-anchor="middle"><tspan>70</tspan></text></g><g fill="none" color="#000" stroke="currentColor"><path stroke="#000" d="M510.5 428v-9m0-400.9v9"/><text transform="translate(510.5 449.9)" stroke="none" fill="#000" font-family="Arial" font-size="12" text-anchor="middle"><tspan>80</tspan></text></g><g fill="none" color="#000" stroke="currentColor"><path stroke="#000" d="M565.5 428v-9m0-400.9v9"/><text transform="translate(565.5 449.9)" stroke="none" fill="#000" font-family="Arial" font-size="12" text-anchor="middle"><tspan>90</tspan></text></g><path stroke="#000" d="M70.5 18.1V428H615V18.1H70.5z" fill="none" color="#000"/><text transform="translate(283.9 467.9)" stroke="none" fill="#000" font-family="Arial" font-size="12" text-anchor="end" color="#000"><tspan>pages+cached+nointeractive</tspan></text><path stroke="#9400D3" d="M292.2 464h42.2M70.5 306.3l5.5-16.9 5.5-.1 5.5-.1 5.5-.2 5.5.1 5.5 16.8 5.5 1 5.5-19.2 5.5 18.8 5.5-17.2 5.5 17.3 5.5 1.3 5.5-1.7 5.5-17 5.5-.3 5.5.6 5.5-.6 5.5.3 5.5 17.2 5.5-17.2 5.5-.2 5.5.1 5.5-.1 5.5 17.7 5.5.9 5.5-19.6 5.5 19.9 5.5-281.6 5.5 178L235.5 26l5.5.7 5.5 167.7 5.5 8.8 5.5-166.7 5.5 157.8 5.5-82 5.5-86.1 5.5.3h5.5l5.5 167.6 5.5-168 5.5.5 5.5-.6 5.5 10.4 5.5.1 5.5-10 5.5-.1h5.5l5.5 86 5.5-85.9 5.5 85.9 5.5-75.9 5.5 167.9 5.5-10.1 5.5 10.3 5.5-169.7 5.5 77.3 5.5-85.1 5.5 177.3 5.5-10.5 5.5-159 5.5-8.3 5.5-.4 5.5 167.9 5.5.2 5.5-82 5.5 82.1 5.5-82.1 5.5-86 5.5 237.2 5.5 8.3 5.5-77.5 5.5.1 5.5-168.2 5.5.4 5.5-.2 5.5-.2 5.5.1 5.5 178 5.5-177.4L516 263l5.5-237 5.5 178.5 5.5.6L538 26.3l5.5 168L549 34.8l5.5 159.5 5.5 77.8 5.5-245.7 5.5 167.4 5.5-157.6 5.5 158.3 5.5-167.8 5.5 176.5 5.5-8.7L604 26.4l5.5.1 5.5-.3" fill="none" color="#000"/><text transform="translate(283.9 485.9)" stroke="none" fill="#000" font-family="Arial" font-size="12" text-anchor="end" color="#000"><tspan>pages+cached+noadtech</tspan></text><path stroke="#009E73" d="M292.2 482h42.2M70.5 404.2l5.5 15.3 5.5.1 5.5.3 5.5-16.3 5.5-.1 5.5 16.4h5.5l5.5-.2h5.5l5.5-16 5.5.1 5.5 15.6 5.5.2h5.5l5.5-.1 5.5-16.1 5.5 16.3 5.5-16 5.5 15.6 5.5.6 5.5-.2 5.5-.2 5.5.5 5.5-.4 5.5-.1h5.5l5.5.1 5.5-17.1 5.5 1.2 5.5 16.4 5.5-.2 5.5.1 5.5-.3 5.5.2 5.5-16 5.5 15.5 5.5.4 5.5-15.9 5.5-.1 5.5 16 5.5-16 5.5 15.9 5.5-16 5.5 15.9 5.5-15.8 5.5 15.7h5.5l5.5-15.6 5.5 15.8 5.5-.2 5.5.1 5.5-.1 5.5-15.7 5.5 16 5.5-16.2 5.5 16 5.5.1h5.5l5.5-.5 5.5.6 5.5-.3 5.5-15.5 5.5 15.5 5.5.1 5.5-.3 5.5.3 5.5.3 5.5-.1 5.5-15.9 5.5.3 5.5-.2 5.5 15.7 5.5-.2 5.5-15.7 5.5 15.8 5.5-.1 5.5.2 5.5-15.9 5.5 15.9 5.5-16 5.5 16 5.5-15.9 5.5 16.1 5.5-16 5.5-.2 5.5.1 5.5 15.7 5.5-15.8L560 420l5.5-.4 5.5-.1 5.5-269.8 5.5 270 5.5-17.2 5.5.8 5.5 16.6 5.5-.3h5.5l5.5-15.9" fill="none" color="#000"/><text transform="translate(558.5 467.9)" stroke="none" fill="#000" font-family="Arial" font-size="12" text-anchor="end" color="#000"><tspan>score p10=2500</tspan></text><path stroke="#56B4E9" d="M566.8 464H609" fill="none" color="#000"/><g><text transform="translate(558.5 485.9)" stroke="none" fill="#000" font-family="Arial" font-size="12" text-anchor="end" color="#000"><tspan>score median=4000</tspan></text><path stroke="#E69F00" d="M566.8 482H609" fill="none" color="#000"/></g><g fill="none" color="#000" stroke="currentColor"><path stroke="#000" d="M70.5 18.1V428H615V18.1H70.5z"/></g></svg>