<svg width="640" height="500" xmlns="http://www.w3.org/2000/svg" xmlns:xlink="http://www.w3.org/1999/xlink"><path fill="#fff" d="M0 0h640v500H0z"/><defs><path id="d" stroke-width=".222" stroke="currentColor" d="M-1-1h2v2h-2z"/><path id="b" stroke-width=".222" stroke="currentColor" d="M0-1.33l-1.33 2h2.66z"/><path id="f" stroke-width=".222" stroke="currentColor" d="M0 1.33L1.265.411.782-1.067l-1.564-.009-.483 1.487z"/><use xlink:href="#b" id="c" stroke="currentColor" transform="rotate(180)"/><use xlink:href="#d" id="e" stroke="currentColor" transform="rotate(45)"/><circle id="a" stroke-width=".222" stroke="currentColor" cx="0" cy="0" r="1"/></defs><g fill="none" color="#000" stroke="currentColor"><path stroke="#000" d="M70.5 389.7h9m535.5 0h-9"/><text transform="translate(62.2 393.6)" stroke="none" fill="#000" font-family="Arial" font-size="12" text-anchor="end"><tspan>10000</tspan></text></g><g fill="none" color="#000" stroke="currentColor"><path stroke="#000" d="M70.5 334h9m535.5 0h-9"/><text transform="translate(62.2 337.9)" stroke="none" fill="#000" font-family="Arial" font-size="12" text-anchor="end"><tspan>12000</tspan></text></g><g fill="none" color="#000" stroke="currentColor"><path stroke="#000" d="M70.5 278.3h9m535.5 0h-9"/><text transform="translate(62.2 282.2)" stroke="none" fill="#000" font-family="Arial" font-size="12" text-anchor="end"><tspan>14000</tspan></text></g><g fill="none" color="#000" stroke="currentColor"><path stroke="#000" d="M70.5 222.6h9m535.5 0h-9"/><text transform="translate(62.2 226.5)" stroke="none" fill="#000" font-family="Arial" font-size="12" text-anchor="end"><tspan>16000</tspan></text></g><g fill="none" color="#000" stroke="currentColor"><path stroke="#000" d="M70.5 166.8h9m535.5 0h-9"/><text transform="translate(62.2 170.7)" stroke="none" fill="#000" font-family="Arial" font-size="12" text-anchor="end"><tspan>18000</tspan></text></g><g fill="none" color="#000" stroke="currentColor"><path stroke="#000" d="M70.5 111.1h9m535.5 0h-9"/><text transform="translate(62.2 115)" stroke="none" fill="#000" font-family="Arial" font-size="12" text-anchor="end"><tspan>20000</tspan></text></g><g fill="none" color="#000" stroke="currentColor"><path stroke="#000" d="M70.5 55.4h9m535.5 0h-9"/><text transform="translate(62.2 59.3)" stroke="none" fill="#000" font-family="Arial" font-size="12" text-anchor="end"><tspan>22000</tspan></text></g><g fill="none" color="#000" stroke="currentColor"><path stroke="#000" d="M70.5 428v-9m0-400.9v9"/><text transform="translate(70.5 449.9)" stroke="none" fill="#000" font-family="Arial" font-size="12" text-anchor="middle"><tspan>0</tspan></text></g><g fill="none" color="#000" stroke="currentColor"><path stroke="#000" d="M125.5 428v-9m0-400.9v9"/><text transform="translate(125.5 449.9)" stroke="none" fill="#000" font-family="Arial" font-size="12" text-anchor="middle"><tspan>10</tspan></text></g><g fill="none" color="#000" stroke="currentColor"><path stroke="#000" d="M180.5 428v-9m0-400.9v9"/><text transform="translate(180.5 449.9)" stroke="none" fill="#000" font-family="Arial" font-size="12" text-anchor="middle"><tspan>20</tspan></text></g><g fill="none" color="#000" stroke="currentColor"><path stroke="#000" d="M235.5 428v-9m0-400.9v9"/><text transform="translate(235.5 449.9)" stroke="none" fill="#000" font-family="Arial" font-size="12" text-anchor="middle"><tspan>30</tspan></text></g><g fill="none" color="#000" stroke="currentColor"><path stroke="#000" d="M290.5 428v-9m0-400.9v9"/><text transform="translate(290.5 449.9)" stroke="none" fill="#000" font-family="Arial" font-size="12" text-anchor="middle"><tspan>40</tspan></text></g><g fill="none" color="#000" stroke="currentColor"><path stroke="#000" d="M345.5 428v-9m0-400.9v9"/><text transform="translate(345.5 449.9)" stroke="none" fill="#000" font-family="Arial" font-size="12" text-anchor="middle"><tspan>50</tspan></text></g><g fill="none" color="#000" stroke="currentColor"><path stroke="#000" d="M400.5 428v-9m0-400.9v9"/><text transform="translate(400.5 449.9)" stroke="none" fill="#000" font-family="Arial" font-size="12" text-anchor="middle"><tspan>60</tspan></text></g><g fill="none" color="#000" stroke="currentColor"><path stroke="#000" d="M455.5 428v-9m0-400.9v9"/><text transform="translate(455.5 449.9)" stroke="none" fill="#000" font-family="Arial" font-size="12" text-anchor="middle"><tspan>70</tspan></text></g><g fill="none" color="#000" stroke="currentColor"><path stroke="#000" d="M510.5 428v-9m0-400.9v9"/><text transform="translate(510.5 449.9)" stroke="none" fill="#000" font-family="Arial" font-size="12" text-anchor="middle"><tspan>80</tspan></text></g><g fill="none" color="#000" stroke="currentColor"><path stroke="#000" d="M565.5 428v-9m0-400.9v9"/><text transform="translate(565.5 449.9)" stroke="none" fill="#000" font-family="Arial" font-size="12" text-anchor="middle"><tspan>90</tspan></text></g><path stroke="#000" d="M70.5 18.1V428H615V18.1H70.5z" fill="none" color="#000"/><text transform="translate(283.9 467.9)" stroke="none" fill="#000" font-family="Arial" font-size="12" text-anchor="end" color="#000"><tspan>pages+cached+noadtech</tspan></text><path stroke="#9400D3" d="M292.2 464h42.2M70.5 397l5.5 22.3h5.5l5.5.4 5.5-23.7 5.5-.2 5.5 24h5.5l5.5-.3h5.5l5.5-23.3 5.5.1 5.5 22.7 5.5.4h5.5l5.5-.2 5.5-23.4 5.5 23.7 5.5-23.2L175 419l5.5.8 5.5-.3 5.5-.2 5.5.6 5.5-.6H219l5.5-24.8 5.5 1.7 5.5 23.9 5.5-.2h5.5l5.5-.4 5.5.3 5.5-23.4 5.5 22.6 5.5.7 5.5-23.2 5.5-.2 5.5 23.4 5.5-23.4 5.5 23.2 5.5-23.3 5.5 23.2 5.5-23.1 5.5 23h5.5l5.5-22.8 5.5 23.1 5.5-.4 5.5.2 5.5-.1 5.5-23 5.5 23.3L373 396l5.5 23.3 5.5.2h5.5l5.5-.7 5.5.8 5.5-.4 5.5-22.6 5.5 22.7h5.5l5.5-.3 5.5.3 5.5.5 5.5-.1 5.5-23.3 5.5.6 5.5-.4 5.5 22.9 5.5-.2 5.5-23 5.5 23h5.5l5.5.3 5.5-23.2 5.5 23.1 5.5-23.3 5.5 23.3 5.5-23.2 5.5 23.5 5.5-23.4 5.5-.2 5.5.1 5.5 22.9 5.5-23 5.5 23.7 5.5-.6 5.5-.1L576.5 26l5.5 393.5 5.5-25.1 5.5 1.2 5.5 24.2 5.5-.4h5.5l5.5-23.3" fill="none" color="#000"/><text transform="translate(283.9 485.9)" stroke="none" fill="#000" font-family="Arial" font-size="12" text-anchor="end" color="#000"><tspan>pages+cached+noexternal</tspan></text><path stroke="#009E73" d="M292.2 482h42.2M70.5 396.5l5.5 20.8 5.5-20.8 5.5 22.9 5.5-2.1 5.5-.1 5.5 2.2 5.5-23.1 5.5-2 5.5.2 5.5 1.7 5.5-2 5.5 23 5.5.2 5.5 2.2 5.5.3 5.5-23.5 5.5-2.6 5.5 1 5.5 1.3 5.5.5 5.5-2.7 5.5 23.4 5.5 2.3 5.5-23.2 5.5 22.9 5.5-22.9 5.5.1 5.5-.4 5.5 23.8 5.5-2.6 5.5 2 5.5-2 5.5 2.2 5.5-25.3 5.5 25.2 5.5-22.8 5.5 20.6 5.5.2 5.5-21 5.5 21.2 5.5-21 5.5 22.8 5.5.1 5.5-1.8 5.5-.3 5.5-21.3 5.5 23.6 5.5.1 5.5-2.4 5.5-21.1h5.5l5.5 23 5.5-24.8 5.5 1.6 5.5 21.5 5.5-21.4 5.5 23.1 5.5-25 5.5 2 5.5 23.2 5.5-25.4 5.5-.3 5.5 25.3 5.5.8 5.5-25.5 5.5 22.8 5.5-21 5.5 23.4 5.5-23 5.5 21 5.5.1 5.5-21.3 5.5 23.1 5.5-.1 5.5-22.7 5.5-2.6 5.5 25.3 5.5-1.9 5.5-.2 5.5-23.1 5.5.2 5.5 25 5.5-1.7 5.5-.6 5.5-22.5 5.5 22.8 5.5-21 5.5 23.1 5.5-2 5.5 1.9 5.5.2 5.5-.1 5.5-2h5.5l5.5 2 5.5-2.2 5.5-20.9 5.5-2.2 5.5 23.1" fill="none" color="#000"/><text transform="translate(533.6 467.9)" stroke="none" fill="#000" font-family="Arial" font-size="12" text-anchor="end" color="#000"><tspan>score p10=2500</tspan></text><path stroke="#56B4E9" d="M541.9 464h42.2" fill="none" color="#000"/><g><text transform="translate(533.6 485.9)" stroke="none" fill="#000" font-family="Arial" font-size="12" text-anchor="end" color="#000"><tspan>score median=4000</tspan></text><path stroke="#E69F00" d="M541.9 482h42.2" fill="none" color="#000"/></g><g fill="none" color="#000" stroke="currentColor"><path stroke="#000" d="M70.5 18.1V428H615V18.1H70.5z"/></g></svg>