<svg width="640" height="500" xmlns="http://www.w3.org/2000/svg" xmlns:xlink="http://www.w3.org/1999/xlink"><path fill="#fff" d="M0 0h640v500H0z"/><defs><path id="d" stroke-width=".222" stroke="currentColor" d="M-1-1h2v2h-2z"/><path id="b" stroke-width=".222" stroke="currentColor" d="M0-1.33l-1.33 2h2.66z"/><path id="f" stroke-width=".222" stroke="currentColor" d="M0 1.33L1.265.411.782-1.067l-1.564-.009-.483 1.487z"/><use xlink:href="#b" id="c" stroke="currentColor" transform="rotate(180)"/><use xlink:href="#d" id="e" stroke="currentColor" transform="rotate(45)"/><circle id="a" stroke-width=".222" stroke="currentColor" cx="0" cy="0" r="1"/></defs><g fill="none" color="#000" stroke="currentColor"><path stroke="#000" d="M62.2 354h9m543.8 0h-9"/><text transform="translate(53.9 357.9)" stroke="none" fill="#000" font-family="Arial" font-size="12" text-anchor="end"><tspan>6500</tspan></text></g><g fill="none" color="#000" stroke="currentColor"><path stroke="#000" d="M62.2 305h9m543.8 0h-9"/><text transform="translate(53.9 308.9)" stroke="none" fill="#000" font-family="Arial" font-size="12" text-anchor="end"><tspan>7000</tspan></text></g><g fill="none" color="#000" stroke="currentColor"><path stroke="#000" d="M62.2 255.9h9m543.8 0h-9"/><text transform="translate(53.9 259.8)" stroke="none" fill="#000" font-family="Arial" font-size="12" text-anchor="end"><tspan>7500</tspan></text></g><g fill="none" color="#000" stroke="currentColor"><path stroke="#000" d="M62.2 206.9h9m543.8 0h-9"/><text transform="translate(53.9 210.8)" stroke="none" fill="#000" font-family="Arial" font-size="12" text-anchor="end"><tspan>8000</tspan></text></g><g fill="none" color="#000" stroke="currentColor"><path stroke="#000" d="M62.2 157.9h9m543.8 0h-9"/><text transform="translate(53.9 161.8)" stroke="none" fill="#000" font-family="Arial" font-size="12" text-anchor="end"><tspan>8500</tspan></text></g><g fill="none" color="#000" stroke="currentColor"><path stroke="#000" d="M62.2 108.9h9m543.8 0h-9"/><text transform="translate(53.9 112.8)" stroke="none" fill="#000" font-family="Arial" font-size="12" text-anchor="end"><tspan>9000</tspan></text></g><g fill="none" color="#000" stroke="currentColor"><path stroke="#000" d="M62.2 59.9h9m543.8 0h-9"/><text transform="translate(53.9 63.8)" stroke="none" fill="#000" font-family="Arial" font-size="12" text-anchor="end"><tspan>9500</tspan></text></g><g fill="none" color="#000" stroke="currentColor"><path stroke="#000" d="M62.2 392v-9m0-364.9v9"/><text transform="translate(62.2 413.9)" stroke="none" fill="#000" font-family="Arial" font-size="12" text-anchor="middle"><tspan>0</tspan></text></g><g fill="none" color="#000" stroke="currentColor"><path stroke="#000" d="M118 392v-9m0-364.9v9"/><text transform="translate(118 413.9)" stroke="none" fill="#000" font-family="Arial" font-size="12" text-anchor="middle"><tspan>10</tspan></text></g><g fill="none" color="#000" stroke="currentColor"><path stroke="#000" d="M173.9 392v-9m0-364.9v9"/><text transform="translate(173.9 413.9)" stroke="none" fill="#000" font-family="Arial" font-size="12" text-anchor="middle"><tspan>20</tspan></text></g><g fill="none" color="#000" stroke="currentColor"><path stroke="#000" d="M229.7 392v-9m0-364.9v9"/><text transform="translate(229.7 413.9)" stroke="none" fill="#000" font-family="Arial" font-size="12" text-anchor="middle"><tspan>30</tspan></text></g><g fill="none" color="#000" stroke="currentColor"><path stroke="#000" d="M285.6 392v-9m0-364.9v9"/><text transform="translate(285.6 413.9)" stroke="none" fill="#000" font-family="Arial" font-size="12" text-anchor="middle"><tspan>40</tspan></text></g><g fill="none" color="#000" stroke="currentColor"><path stroke="#000" d="M341.4 392v-9m0-364.9v9"/><text transform="translate(341.4 413.9)" stroke="none" fill="#000" font-family="Arial" font-size="12" text-anchor="middle"><tspan>50</tspan></text></g><g fill="none" color="#000" stroke="currentColor"><path stroke="#000" d="M397.2 392v-9m0-364.9v9"/><text transform="translate(397.2 413.9)" stroke="none" fill="#000" font-family="Arial" font-size="12" text-anchor="middle"><tspan>60</tspan></text></g><g fill="none" color="#000" stroke="currentColor"><path stroke="#000" d="M453.1 392v-9m0-364.9v9"/><text transform="translate(453.1 413.9)" stroke="none" fill="#000" font-family="Arial" font-size="12" text-anchor="middle"><tspan>70</tspan></text></g><g fill="none" color="#000" stroke="currentColor"><path stroke="#000" d="M508.9 392v-9m0-364.9v9"/><text transform="translate(508.9 413.9)" stroke="none" fill="#000" font-family="Arial" font-size="12" text-anchor="middle"><tspan>80</tspan></text></g><g fill="none" color="#000" stroke="currentColor"><path stroke="#000" d="M564.7 392v-9m0-364.9v9"/><text transform="translate(564.7 413.9)" stroke="none" fill="#000" font-family="Arial" font-size="12" text-anchor="middle"><tspan>90</tspan></text></g><path stroke="#000" d="M62.2 18.1V392H615V18.1H62.2z" fill="none" color="#000"/><text transform="translate(437.8 431.9)" stroke="none" fill="#000" font-family="Arial" font-size="12" text-anchor="end" color="#000"><tspan>pages+cached+noexternal</tspan></text><path stroke="#9400D3" d="M446.1 428h42.2M62.2 34.8l5.6 73.1 5.6-73.1 5.6 80.7 5.5-7.7 5.6-.2 5.6 7.7 5.6-81.1 5.6-7.1 5.6.7 5.5 6.1 5.6-7.2 5.6 81 5.6.6 5.6 7.8 5.6 1 5.5-82.6 5.6-9.1 5.6 3.5 5.6 4.6 5.6 1.8 5.6-9.7L185 108l5.6 8.1 5.6-81.7 5.6 80.6 5.6-80.4 5.6.1 5.5-1.5 5.6 83.9 5.6-9.1 5.6 7 5.6-7.1 5.6 7.7 5.6-89 5.5 88.8 5.6-80.2 5.6 72.5 5.6.6 5.6-74 5.6 74.6 5.5-73.8 5.6 80.3 5.6.3 5.6-6.3 5.6-1 5.6-75 5.5 83 5.6.4 5.6-8.4 5.6-74.2 5.6-.1 5.6 80.9 5.5-87.2 5.6 5.6 5.6 75.8 5.6-75.5 5.6 81.3 5.6-88.1 5.5 7.1 5.6 81.9 5.6-89.6 5.6-1 5.6 88.9 5.6 2.9 5.5-89.7 5.6 80.1 5.6-73.9 5.6 82.3 5.6-80.9 5.6 74.1 5.6.4 5.5-74.9 5.6 81.3 5.6-.4 5.6-80.1 5.6-9.1 5.6 89.1 5.5-6.7 5.6-.5 5.6-81.5 5.6.8 5.6 88 5.6-6.2 5.5-2.1 5.6-79.2 5.6 80.5 5.6-73.9 5.6 81.2 5.6-7.1 5.5 6.6 5.6.9 5.6-.5 5.6-6.8 5.6-.1 5.6 6.9 5.5-7.8 5.6-73.3 5.6-7.7L615 108" fill="none" color="#000"/><text transform="translate(437.8 449.9)" stroke="none" fill="#000" font-family="Arial" font-size="12" text-anchor="end" color="#000"><tspan>pages+cached+noexternal+nofonts</tspan></text><path stroke="#009E73" d="M446.1 446h42.2M62.2 377.2l5.6-7.8 5.6-73.6 5.6 81.4 5.5.2 5.6-7.8 5.6.6 5.6-73 5.6 80 5.6-7.6 5.5-80.5 5.6 80.7 5.6.2 5.6-.1 5.6-73.7 5.6 73.5 5.5-81.2 5.6.1 5.6.1 5.6 82.3 5.6-1.2 5.6 6.5 5.5-7.5 5.6-79.4 5.6 6.8 5.6 81.4 5.6-88.6 5.6 81 5.5-.3 5.6-80.9 5.6 80.9 5.6.7 5.6-81.2 5.6 88.1 5.6-7 5.5-.4h5.6l5.6 7.2 5.6-7.8 5.6.1 5.6.3 5.5-.1 5.6 1 5.6-74.5 5.6-.3 5.6 74.5 5.6-.5 5.5-.6 5.6.7 5.6.6 5.6-.2 5.6-74.1 5.6 73.6 5.5 7.5 5.6-6.2 5.6-81.4 5.6 80.7 5.6.5 5.6-1.3 5.5.4 5.6 7.4 5.6-7.7 5.6-.3 5.6.5h5.6l5.5.7 5.6-.1 5.6-82.2 5.6 81.2 5.6-73.1 5.6 73.5 5.6-.2 5.5-81.1 5.6 89 5.6-6.7 5.6-75.2 5.6 75.1 5.6 14 5.5-14.8 5.6-73.8 5.6-8 5.6.8 5.6 81.1 5.6-.1 5.5 13.9 5.6-14.4 5.6 1.4 5.6-1.1 5.6-80.8 5.6 81 5.5-.3 5.6-.2 5.6-73.8 5.6 73.7 5.6.4 5.6.3 5.5-81.3 5.6 88.6 5.6-88.8 5.6 88.2" fill="none" color="#000"/><text transform="translate(437.8 467.9)" stroke="none" fill="#000" font-family="Arial" font-size="12" text-anchor="end" color="#000"><tspan>score p10=2500</tspan></text><path stroke="#56B4E9" d="M446.1 464h42.2" fill="none" color="#000"/><g><text transform="translate(437.8 485.9)" stroke="none" fill="#000" font-family="Arial" font-size="12" text-anchor="end" color="#000"><tspan>score median=4000</tspan></text><path stroke="#E69F00" d="M446.1 482h42.2" fill="none" color="#000"/></g><g fill="none" color="#000" stroke="currentColor"><path stroke="#000" d="M62.2 18.1V392H615V18.1H62.2z"/></g></svg>