<svg width="640" height="500" xmlns="http://www.w3.org/2000/svg" xmlns:xlink="http://www.w3.org/1999/xlink"><path fill="#fff" d="M0 0h640v500H0z"/><defs><path id="d" stroke-width=".222" stroke="currentColor" d="M-1-1h2v2h-2z"/><path id="b" stroke-width=".222" stroke="currentColor" d="M0-1.33l-1.33 2h2.66z"/><path id="f" stroke-width=".222" stroke="currentColor" d="M0 1.33L1.265.411.782-1.067l-1.564-.009-.483 1.487z"/><use xlink:href="#b" id="c" stroke="currentColor" transform="rotate(180)"/><use xlink:href="#d" id="e" stroke="currentColor" transform="rotate(45)"/><circle id="a" stroke-width=".222" stroke="currentColor" cx="0" cy="0" r="1"/></defs><g fill="none" color="#000" stroke="currentColor"><path stroke="#000" d="M37.3 440.1h9m568.7 0h-9"/><text transform="translate(29 444)" stroke="none" fill="#000" font-family="Arial" font-size="12" text-anchor="end"><tspan>0</tspan></text></g><g fill="none" color="#000" stroke="currentColor"><path stroke="#000" d="M37.3 363.8h9m568.7 0h-9"/><text transform="translate(29 367.7)" stroke="none" fill="#000" font-family="Arial" font-size="12" text-anchor="end"><tspan>1</tspan></text></g><g fill="none" color="#000" stroke="currentColor"><path stroke="#000" d="M37.3 287.5h9m568.7 0h-9"/><text transform="translate(29 291.4)" stroke="none" fill="#000" font-family="Arial" font-size="12" text-anchor="end"><tspan>2</tspan></text></g><g fill="none" color="#000" stroke="currentColor"><path stroke="#000" d="M37.3 211.2h9m568.7 0h-9"/><text transform="translate(29 215.1)" stroke="none" fill="#000" font-family="Arial" font-size="12" text-anchor="end"><tspan>3</tspan></text></g><g fill="none" color="#000" stroke="currentColor"><path stroke="#000" d="M37.3 134.9h9m568.7 0h-9"/><text transform="translate(29 138.8)" stroke="none" fill="#000" font-family="Arial" font-size="12" text-anchor="end"><tspan>4</tspan></text></g><g fill="none" color="#000" stroke="currentColor"><path stroke="#000" d="M37.3 58.7h9m568.7 0h-9"/><text transform="translate(29 62.6)" stroke="none" fill="#000" font-family="Arial" font-size="12" text-anchor="end"><tspan>5</tspan></text></g><g fill="none" color="#000" stroke="currentColor"><path stroke="#000" d="M37.3 446v-9m0-418.9v9"/><text transform="translate(37.3 467.9)" stroke="none" fill="#000" font-family="Arial" font-size="12" text-anchor="middle"><tspan>0</tspan></text></g><g fill="none" color="#000" stroke="currentColor"><path stroke="#000" d="M95.7 446v-9m0-418.9v9"/><text transform="translate(95.7 467.9)" stroke="none" fill="#000" font-family="Arial" font-size="12" text-anchor="middle"><tspan>10</tspan></text></g><g fill="none" color="#000" stroke="currentColor"><path stroke="#000" d="M154 446v-9m0-418.9v9"/><text transform="translate(154 467.9)" stroke="none" fill="#000" font-family="Arial" font-size="12" text-anchor="middle"><tspan>20</tspan></text></g><g fill="none" color="#000" stroke="currentColor"><path stroke="#000" d="M212.4 446v-9m0-418.9v9"/><text transform="translate(212.4 467.9)" stroke="none" fill="#000" font-family="Arial" font-size="12" text-anchor="middle"><tspan>30</tspan></text></g><g fill="none" color="#000" stroke="currentColor"><path stroke="#000" d="M270.7 446v-9m0-418.9v9"/><text transform="translate(270.7 467.9)" stroke="none" fill="#000" font-family="Arial" font-size="12" text-anchor="middle"><tspan>40</tspan></text></g><g fill="none" color="#000" stroke="currentColor"><path stroke="#000" d="M329.1 446v-9m0-418.9v9"/><text transform="translate(329.1 467.9)" stroke="none" fill="#000" font-family="Arial" font-size="12" text-anchor="middle"><tspan>50</tspan></text></g><g fill="none" color="#000" stroke="currentColor"><path stroke="#000" d="M387.4 446v-9m0-418.9v9"/><text transform="translate(387.4 467.9)" stroke="none" fill="#000" font-family="Arial" font-size="12" text-anchor="middle"><tspan>60</tspan></text></g><g fill="none" color="#000" stroke="currentColor"><path stroke="#000" d="M445.8 446v-9m0-418.9v9"/><text transform="translate(445.8 467.9)" stroke="none" fill="#000" font-family="Arial" font-size="12" text-anchor="middle"><tspan>70</tspan></text></g><g fill="none" color="#000" stroke="currentColor"><path stroke="#000" d="M504.1 446v-9m0-418.9v9"/><text transform="translate(504.1 467.9)" stroke="none" fill="#000" font-family="Arial" font-size="12" text-anchor="middle"><tspan>80</tspan></text></g><g fill="none" color="#000" stroke="currentColor"><path stroke="#000" d="M562.5 446v-9m0-418.9v9"/><text transform="translate(562.5 467.9)" stroke="none" fill="#000" font-family="Arial" font-size="12" text-anchor="middle"><tspan>90</tspan></text></g><path stroke="#000" d="M37.3 18.1V446H615V18.1H37.3z" fill="none" color="#000"/><text transform="translate(267.3 485.9)" stroke="none" fill="#000" font-family="Arial" font-size="12" text-anchor="end" color="#000"><tspan>empty</tspan></text><path stroke="#9400D3" d="M275.6 482h42.2M37.3 437.8h23.3l5.9-.1H340.7l5.9-.1H416.6l5.8-.1H475l5.8-.1h11.7l5.8-.1h23.3l5.9-.1h5.8l5.8-.1h11.7l5.8-.1 5.9-.1H580l5.8-.1h5.9l5.8-.2 5.8-.3 5.9-.4 5.8-19.5" fill="none" color="#000"/><text transform="translate(367.6 485.9)" stroke="none" fill="#000" font-family="Arial" font-size="12" text-anchor="end" color="#000"><tspan>pages</tspan></text><path stroke="#009E73" d="M375.9 482h42.2M37.3 334.5l5.8-1.2 5.9-1.6 5.8-.4 5.8-1.3 5.9-2.1 5.8-3.2 5.8-1.6 5.9-.1 5.8-5.4 5.9-3.6 5.8-.9 5.8-5.7 5.9-.1 5.8-.9 5.8-1 5.9-4.1 5.8-1.9 5.8-17.4 5.9-4.8 5.8-27.5 5.8-6.8 5.9-.3h5.8l5.8-7.5 5.9-7 5.8-4.2 5.9-.3 5.8-1.5 5.8-6.9 5.9-4.1 5.8-5.7 5.8-3.6h5.9l5.8-.7 5.8-.5 5.9-4.2 5.8-3.9 5.8-.2 5.9-2 5.8-3.4 5.8-1.4 5.9-1.1 5.8-.4 5.9-1.9 5.8-3.3 5.8-.9 5.9-1.6 5.8-.2 5.8-1.9 5.9-.1 5.8-1.3 5.8-1.4 5.9-6.4 5.8-1.7 5.8-.7 5.9-.6 5.8-2 5.9-4.6 5.8-.1 5.8-.1 5.9-3.7 5.8-2.9h5.8l5.9-1.2 5.8-1.8 5.8-.6 5.9-2.6 5.8-4.1 5.8-.6 5.9-1 5.8-.1 5.8-6.5 5.9-1.3 5.8-2.7 5.9-.2 5.8-2.5 5.8-2.8 5.9-2.6 5.8-3.3 5.8-1.6 5.9-.3 5.8-1 5.8-3.2 5.9-4.3h5.8l5.8-.7 5.9-2.1 5.8-.3 5.8-7.4 5.9-6.8 5.8-13.8 5.9-11.3 5.8-.8 5.8-.2 5.9-1.7h5.8l5.8-17 5.9-9.7 5.8-6.2" fill="none" color="#000"/><g fill="none" color="#000" stroke="currentColor"><path stroke="#000" d="M37.3 18.1V446H615V18.1H37.3z"/></g></svg>