<svg width="640" height="500" xmlns="http://www.w3.org/2000/svg" xmlns:xlink="http://www.w3.org/1999/xlink"><path fill="#fff" d="M0 0h640v500H0z"/><defs><path id="d" stroke-width=".222" stroke="currentColor" d="M-1-1h2v2h-2z"/><path id="b" stroke-width=".222" stroke="currentColor" d="M0-1.33l-1.33 2h2.66z"/><path id="f" stroke-width=".222" stroke="currentColor" d="M0 1.33L1.265.411.782-1.067l-1.564-.009-.483 1.487z"/><use xlink:href="#b" id="c" stroke="currentColor" transform="rotate(180)"/><use xlink:href="#d" id="e" stroke="currentColor" transform="rotate(45)"/><circle id="a" stroke-width=".222" stroke="currentColor" cx="0" cy="0" r="1"/></defs><g fill="none" color="#000" stroke="currentColor"><path stroke="#000" d="M62.2 400.9h9m543.8 0h-9"/><text transform="translate(53.9 404.8)" stroke="none" fill="#000" font-family="Arial" font-size="12" text-anchor="end"><tspan>0.03</tspan></text></g><g fill="none" color="#000" stroke="currentColor"><path stroke="#000" d="M62.2 338.9h9m543.8 0h-9"/><text transform="translate(53.9 342.8)" stroke="none" fill="#000" font-family="Arial" font-size="12" text-anchor="end"><tspan>0.04</tspan></text></g><g fill="none" color="#000" stroke="currentColor"><path stroke="#000" d="M62.2 277h9m543.8 0h-9"/><text transform="translate(53.9 280.9)" stroke="none" fill="#000" font-family="Arial" font-size="12" text-anchor="end"><tspan>0.05</tspan></text></g><g fill="none" color="#000" stroke="currentColor"><path stroke="#000" d="M62.2 215h9m543.8 0h-9"/><text transform="translate(53.9 218.9)" stroke="none" fill="#000" font-family="Arial" font-size="12" text-anchor="end"><tspan>0.06</tspan></text></g><g fill="none" color="#000" stroke="currentColor"><path stroke="#000" d="M62.2 153h9m543.8 0h-9"/><text transform="translate(53.9 156.9)" stroke="none" fill="#000" font-family="Arial" font-size="12" text-anchor="end"><tspan>0.07</tspan></text></g><g fill="none" color="#000" stroke="currentColor"><path stroke="#000" d="M62.2 91.1h9m543.8 0h-9"/><text transform="translate(53.9 95)" stroke="none" fill="#000" font-family="Arial" font-size="12" text-anchor="end"><tspan>0.08</tspan></text></g><g fill="none" color="#000" stroke="currentColor"><path stroke="#000" d="M62.2 29.1h9m543.8 0h-9"/><text transform="translate(53.9 33)" stroke="none" fill="#000" font-family="Arial" font-size="12" text-anchor="end"><tspan>0.09</tspan></text></g><g fill="none" color="#000" stroke="currentColor"><path stroke="#000" d="M62.2 428v-9m0-400.9v9"/><text transform="translate(62.2 449.9)" stroke="none" fill="#000" font-family="Arial" font-size="12" text-anchor="middle"><tspan>0</tspan></text></g><g fill="none" color="#000" stroke="currentColor"><path stroke="#000" d="M118 428v-9m0-400.9v9"/><text transform="translate(118 449.9)" stroke="none" fill="#000" font-family="Arial" font-size="12" text-anchor="middle"><tspan>10</tspan></text></g><g fill="none" color="#000" stroke="currentColor"><path stroke="#000" d="M173.9 428v-9m0-400.9v9"/><text transform="translate(173.9 449.9)" stroke="none" fill="#000" font-family="Arial" font-size="12" text-anchor="middle"><tspan>20</tspan></text></g><g fill="none" color="#000" stroke="currentColor"><path stroke="#000" d="M229.7 428v-9m0-400.9v9"/><text transform="translate(229.7 449.9)" stroke="none" fill="#000" font-family="Arial" font-size="12" text-anchor="middle"><tspan>30</tspan></text></g><g fill="none" color="#000" stroke="currentColor"><path stroke="#000" d="M285.6 428v-9m0-400.9v9"/><text transform="translate(285.6 449.9)" stroke="none" fill="#000" font-family="Arial" font-size="12" text-anchor="middle"><tspan>40</tspan></text></g><g fill="none" color="#000" stroke="currentColor"><path stroke="#000" d="M341.4 428v-9m0-400.9v9"/><text transform="translate(341.4 449.9)" stroke="none" fill="#000" font-family="Arial" font-size="12" text-anchor="middle"><tspan>50</tspan></text></g><g fill="none" color="#000" stroke="currentColor"><path stroke="#000" d="M397.2 428v-9m0-400.9v9"/><text transform="translate(397.2 449.9)" stroke="none" fill="#000" font-family="Arial" font-size="12" text-anchor="middle"><tspan>60</tspan></text></g><g fill="none" color="#000" stroke="currentColor"><path stroke="#000" d="M453.1 428v-9m0-400.9v9"/><text transform="translate(453.1 449.9)" stroke="none" fill="#000" font-family="Arial" font-size="12" text-anchor="middle"><tspan>70</tspan></text></g><g fill="none" color="#000" stroke="currentColor"><path stroke="#000" d="M508.9 428v-9m0-400.9v9"/><text transform="translate(508.9 449.9)" stroke="none" fill="#000" font-family="Arial" font-size="12" text-anchor="middle"><tspan>80</tspan></text></g><g fill="none" color="#000" stroke="currentColor"><path stroke="#000" d="M564.7 428v-9m0-400.9v9"/><text transform="translate(564.7 449.9)" stroke="none" fill="#000" font-family="Arial" font-size="12" text-anchor="middle"><tspan>90</tspan></text></g><path stroke="#000" d="M62.2 18.1V428H615V18.1H62.2z" fill="none" color="#000"/><text transform="translate(512.5 467.9)" stroke="none" fill="#000" font-family="Arial" font-size="12" text-anchor="end" color="#000"><tspan>pages+cached+noexternal+nofonts+nosvg+noimg</tspan></text><path stroke="#9400D3" d="M520.8 464H563M62.2 326.5l5.6-25.4 5.6-4.9 5.6-.6 5.5-5 5.6-2.5 5.6-4.9 5.6-1.9 5.6-1.2 5.6-.7h5.5l5.6-2.4 5.6-2.5 5.6-2.5 5.6-6.2 5.6-1.2 5.5-.6 5.6-6.2 5.6-1.9 5.6-1.2 5.6-4.4 5.6-1.8 5.5-1.9 5.6-1.2 5.6-4.4 5.6-3.7 5.6-1.2h5.6l5.5-8.7h5.6l5.6-.6 5.6-4.4 5.6-6.8 5.6-.6 5.6-1.2 5.5-2.5 5.6-3.1 5.6-5.6h5.6l5.6-.6 5.6-3.1h5.5l5.6-1.9 5.6-.6 5.6-2.5 5.6-2.5h11.1l5.6-1.2 5.6-.6 5.6-8.1 5.6-4.3 5.6-3.1 5.5-1.2 5.6-7.5 5.6-.6 5.6-3.1h5.6l5.6-1.9 5.5-3.7 5.6-1.8h5.6l5.6-6.2 5.6-.7 5.6-2.4 5.5-.7 5.6-1.8 5.6-.6 5.6-.7 5.6-.6 5.6-.6 5.6-1.9h5.5l5.6-1.8 5.6-5 5.6-1.2 5.6-1.9 5.6-.6 5.5-2.5 5.6-3.7 5.6-.6 5.6-1.2 5.6-1.3 5.6-1.8 5.5-3.8 5.6-1.8 5.6-.6 5.6-9.3 5.6-1.3 5.6-3.7 5.5-4.9h5.6l5.6-3.1 5.6-4.4 5.6-2.5 5.6-2.4 5.5-3.1 5.6-32.9 5.6-11.8L615 26" fill="none" color="#000"/><text transform="translate(512.5 485.9)" stroke="none" fill="#000" font-family="Arial" font-size="12" text-anchor="end" color="#000"><tspan>pages+cached+noexternal+nofonts+nosvg+noimg+nocss</tspan></text><path stroke="#009E73" d="M520.8 482H563M62.2 420.1L67.8 303l5.6-1.2 5.6-1.3 5.5-.6 5.6-6.2 5.6-6.2 5.6-3.7 5.6-1.9 5.6-4.9 5.5-1.9 5.6-1.2 5.6-4.4 5.6-4.9 5.6-.6 5.6-1.3 5.5-1.8 5.6-1.9 5.6-.6 5.6-3.7 5.6-2.5H185l5.6-2.5 5.6-12.4 5.6-3.1 5.6-2.5 5.6-1.2 5.5-1.3 5.6-4.3 5.6-1.8h5.6l5.6-1.9 5.6-3.1 5.6-2.5 5.5-1.8 5.6-5.6 5.6-1.9 5.6-1.2 5.6-4.4 5.6-1.2 5.5-.6 5.6-1.3 5.6-1.2 5.6-.6 5.6-.6 5.6-3.8 5.5-1.2 5.6-8.7h11.2l5.6-1.8 5.6-1.3 5.5-1.2 5.6-2.5 5.6-4.3h5.6l5.6-1.9 5.6-3.1 5.5-.6 5.6-.6 5.6-.6 5.6-1.9 5.6-1.2 5.6-3.8 5.5-1.8 5.6-.6 5.6-1.9 5.6-.6h11.2l5.6-7.5 5.5-.6 5.6-1.2 5.6-.6 5.6-.7 5.6-1.2 5.6-1.2 5.5-1.3 5.6-.6 5.6-.6 5.6-5.6h5.6l5.6-.6 5.5-8.7 5.6-1.2 5.6-1.3 5.6-19.8 5.6-3.1h5.6l5.5-6.2 5.6-4.9 5.6-3.1 5.6-6.2 5.6-1.9 5.6-9.3 5.5-1.2 5.6-9.3 5.6-.7 5.6-5.5" fill="none" color="#000"/><g fill="none" color="#000" stroke="currentColor"><path stroke="#000" d="M62.2 18.1V428H615V18.1H62.2z"/></g></svg>