<svg width="640" height="500" xmlns="http://www.w3.org/2000/svg" xmlns:xlink="http://www.w3.org/1999/xlink"><path fill="#fff" d="M0 0h640v500H0z"/><defs><path id="d" stroke-width=".222" stroke="currentColor" d="M-1-1h2v2h-2z"/><path id="b" stroke-width=".222" stroke="currentColor" d="M0-1.33l-1.33 2h2.66z"/><path id="f" stroke-width=".222" stroke="currentColor" d="M0 1.33L1.265.411.782-1.067l-1.564-.009-.483 1.487z"/><use xlink:href="#b" id="c" stroke="currentColor" transform="rotate(180)"/><use xlink:href="#d" id="e" stroke="currentColor" transform="rotate(45)"/><circle id="a" stroke-width=".222" stroke="currentColor" cx="0" cy="0" r="1"/></defs><g fill="none" color="#000" stroke="currentColor"><path stroke="#000" d="M53.9 446.3h9m552.1 0h-9"/><text transform="translate(45.6 450.2)" stroke="none" fill="#000" font-family="Arial" font-size="12" text-anchor="end"><tspan>0</tspan></text></g><g fill="none" color="#000" stroke="currentColor"><path stroke="#000" d="M53.9 402.4h9m552.1 0h-9"/><text transform="translate(45.6 406.3)" stroke="none" fill="#000" font-family="Arial" font-size="12" text-anchor="end"><tspan>0.5</tspan></text></g><g fill="none" color="#000" stroke="currentColor"><path stroke="#000" d="M53.9 358.5h9m552.1 0h-9"/><text transform="translate(45.6 362.4)" stroke="none" fill="#000" font-family="Arial" font-size="12" text-anchor="end"><tspan>1</tspan></text></g><g fill="none" color="#000" stroke="currentColor"><path stroke="#000" d="M53.9 314.6h9m552.1 0h-9"/><text transform="translate(45.6 318.5)" stroke="none" fill="#000" font-family="Arial" font-size="12" text-anchor="end"><tspan>1.5</tspan></text></g><g fill="none" color="#000" stroke="currentColor"><path stroke="#000" d="M53.9 270.7h9m552.1 0h-9"/><text transform="translate(45.6 274.6)" stroke="none" fill="#000" font-family="Arial" font-size="12" text-anchor="end"><tspan>2</tspan></text></g><g fill="none" color="#000" stroke="currentColor"><path stroke="#000" d="M53.9 226.8h9m552.1 0h-9"/><text transform="translate(45.6 230.7)" stroke="none" fill="#000" font-family="Arial" font-size="12" text-anchor="end"><tspan>2.5</tspan></text></g><g fill="none" color="#000" stroke="currentColor"><path stroke="#000" d="M53.9 182.9h9m552.1 0h-9"/><text transform="translate(45.6 186.8)" stroke="none" fill="#000" font-family="Arial" font-size="12" text-anchor="end"><tspan>3</tspan></text></g><g fill="none" color="#000" stroke="currentColor"><path stroke="#000" d="M53.9 139h9m552.1 0h-9"/><text transform="translate(45.6 142.9)" stroke="none" fill="#000" font-family="Arial" font-size="12" text-anchor="end"><tspan>3.5</tspan></text></g><g fill="none" color="#000" stroke="currentColor"><path stroke="#000" d="M53.9 95.1h9m552.1 0h-9"/><text transform="translate(45.6 99)" stroke="none" fill="#000" font-family="Arial" font-size="12" text-anchor="end"><tspan>4</tspan></text></g><g fill="none" color="#000" stroke="currentColor"><path stroke="#000" d="M53.9 51.3h9m552.1 0h-9"/><text transform="translate(45.6 55.2)" stroke="none" fill="#000" font-family="Arial" font-size="12" text-anchor="end"><tspan>4.5</tspan></text></g><g fill="none" color="#000" stroke="currentColor"><path stroke="#000" d="M53.9 446v-9m0-418.9v9"/><text transform="translate(53.9 467.9)" stroke="none" fill="#000" font-family="Arial" font-size="12" text-anchor="middle"><tspan>0</tspan></text></g><g fill="none" color="#000" stroke="currentColor"><path stroke="#000" d="M110.6 446v-9m0-418.9v9"/><text transform="translate(110.6 467.9)" stroke="none" fill="#000" font-family="Arial" font-size="12" text-anchor="middle"><tspan>10</tspan></text></g><g fill="none" color="#000" stroke="currentColor"><path stroke="#000" d="M167.3 446v-9m0-418.9v9"/><text transform="translate(167.3 467.9)" stroke="none" fill="#000" font-family="Arial" font-size="12" text-anchor="middle"><tspan>20</tspan></text></g><g fill="none" color="#000" stroke="currentColor"><path stroke="#000" d="M223.9 446v-9m0-418.9v9"/><text transform="translate(223.9 467.9)" stroke="none" fill="#000" font-family="Arial" font-size="12" text-anchor="middle"><tspan>30</tspan></text></g><g fill="none" color="#000" stroke="currentColor"><path stroke="#000" d="M280.6 446v-9m0-418.9v9"/><text transform="translate(280.6 467.9)" stroke="none" fill="#000" font-family="Arial" font-size="12" text-anchor="middle"><tspan>40</tspan></text></g><g fill="none" color="#000" stroke="currentColor"><path stroke="#000" d="M337.3 446v-9m0-418.9v9"/><text transform="translate(337.3 467.9)" stroke="none" fill="#000" font-family="Arial" font-size="12" text-anchor="middle"><tspan>50</tspan></text></g><g fill="none" color="#000" stroke="currentColor"><path stroke="#000" d="M394 446v-9m0-418.9v9"/><text transform="translate(394 467.9)" stroke="none" fill="#000" font-family="Arial" font-size="12" text-anchor="middle"><tspan>60</tspan></text></g><g fill="none" color="#000" stroke="currentColor"><path stroke="#000" d="M450.6 446v-9m0-418.9v9"/><text transform="translate(450.6 467.9)" stroke="none" fill="#000" font-family="Arial" font-size="12" text-anchor="middle"><tspan>70</tspan></text></g><g fill="none" color="#000" stroke="currentColor"><path stroke="#000" d="M507.3 446v-9m0-418.9v9"/><text transform="translate(507.3 467.9)" stroke="none" fill="#000" font-family="Arial" font-size="12" text-anchor="middle"><tspan>80</tspan></text></g><g fill="none" color="#000" stroke="currentColor"><path stroke="#000" d="M564 446v-9m0-418.9v9"/><text transform="translate(564 467.9)" stroke="none" fill="#000" font-family="Arial" font-size="12" text-anchor="middle"><tspan>90</tspan></text></g><path stroke="#000" d="M53.9 18.1V446H615V18.1H53.9z" fill="none" color="#000"/><text transform="translate(275.6 485.9)" stroke="none" fill="#000" font-family="Arial" font-size="12" text-anchor="end" color="#000"><tspan>pages+cached</tspan></text><path stroke="#9400D3" d="M283.9 482h42.2M53.9 437.8l5.7-.3 5.6-.4 5.7-.5 5.7-.9h5.6l5.7-1.3 5.7-.4 5.6-.2 5.7-.3h5.7l5.6-.1 5.7-.6 5.7-.6 5.6-.1 5.7-.2 5.7-.1 5.7-.1 5.6-.4 5.7-.6 5.7-.8h5.6l5.7-1.6 5.7-.2h5.6l5.7-.4 5.7-.6 5.6-.3 5.7-1.3 5.7-.3 5.6-.3 5.7-.3 5.7-.6 5.6-.1 5.7-.7 5.7-.1 5.6-.3h5.7l5.7-.7 5.6-.2 5.7-.1 5.7-.1 5.6-.2 5.7-.3h5.7l5.6-.2 5.7-.4 5.7-.3 5.6-.1 5.7-.1 5.7-.4 5.7-.4 5.6-.6h5.7l5.7-.1 5.6-.1 5.7-.9h11.3l5.7-1.2 5.7-.1h5.6l5.7-.1h5.7l5.6-.2 5.7-.3 5.7-.3 5.6-.2 5.7-.1 5.7-.1h5.6l5.7-.5 5.7-.1h5.6l5.7-.3 5.7-.3 5.6-.1 5.7-.2 5.7-.2 5.6-.2 5.7-.1 5.7-.1 5.6-.3h5.7l5.7-.1h5.7l5.6-.2 5.7-.5 5.7-.1 5.6-.2 5.7-.2h5.7l5.6-.2 5.7-.1 5.7-.4 5.6-.6 5.7-.2 5.7-6.5 5.6-207.5L615 26.3" fill="none" color="#000"/><text transform="translate(550.2 485.9)" stroke="none" fill="#000" font-family="Arial" font-size="12" text-anchor="end" color="#000"><tspan>pages+cached+nointeractive</tspan></text><path stroke="#009E73" d="M558.5 482h42.2M53.9 437.4l5.7-3.7 5.6-.6 5.7-.1 5.7-.6h5.6l5.7-1.8 5.7-2.3 5.6-.1 5.7-.3 5.7-1.5 5.6-.3 5.7-.7 5.7-.6 5.6-.7 5.7-.3 5.7-.7 5.7-.1 5.6-.3 5.7-.5h5.7l5.6-.1 5.7-.2h5.7l5.6-.2 5.7-.3 5.7-.5 5.6-.1h5.7l5.7-.1 5.6-.5 5.7-.1 5.7-.2 5.6-.1 5.7-.9h5.7l5.6-1 5.7-.3 5.7-.4 5.6-.1 5.7-.1 5.7-.5h5.6l5.7-.2 5.7-.1 5.6-.1 5.7-.1h5.7l5.6-.3 5.7-.3h5.7l5.7-.1 5.6-.1 5.7-.3 5.7-.1h11.3l5.7-.1h5.6l5.7-.2h5.7l5.6-.1h5.7l5.7-.1 5.6-.1 5.7-.2h11.3l5.7-.2 5.7-.1 5.6-.2 5.7-.1 5.7-.1h11.3l5.7-.3 5.6-.1 5.7-.1 5.7-.3 5.6-.2h5.7l5.7-.2 5.6-.2 5.7-.1 5.7-.1 5.7-.2 5.6-.2 5.7-.1h5.7l5.6-.1 5.7-.2 5.7-.2h5.6l5.7-.1h5.7l5.6-.1 5.7-1.7h5.7l5.6-.7 5.7-4.5" fill="none" color="#000"/><g fill="none" color="#000" stroke="currentColor"><path stroke="#000" d="M53.9 18.1V446H615V18.1H53.9z"/></g></svg>