<svg width="640" height="520" xmlns="http://www.w3.org/2000/svg" xmlns:xlink="http://www.w3.org/1999/xlink"><path fill="#fff" d="M0 0h640v520H0z"/><defs><path id="g" stroke-width=".222" stroke="currentColor" d="M-1 0h2M0-1v2"/><path id="h" stroke-width=".222" stroke="currentColor" d="M-1-1l2 2m0-2l-2 2"/><path id="i" stroke-width=".222" stroke="currentColor" d="M-1 0h2M0-1v2m-1-2l2 2m-2 0l2-2"/><path id="d" stroke-width=".222" stroke="currentColor" d="M-1-1h2v2h-2z"/><path id="b" stroke-width=".222" stroke="currentColor" d="M0-1.33l-1.33 2h2.66z"/><path id="f" stroke-width=".222" stroke="currentColor" d="M0 1.33L1.265.411.782-1.067l-1.564-.009-.483 1.487z"/><use xlink:href="#b" id="c" stroke="currentColor" transform="rotate(180)"/><use xlink:href="#d" id="e" stroke="currentColor" transform="rotate(45)"/><circle id="a" stroke-width=".222" stroke="currentColor" cx="0" cy="0" r="1"/></defs><g fill="none" color="#000" stroke="currentColor"><path stroke="#000" d="M53.9 457.4h9m552.1 0h-9"/><text transform="translate(45.6 461.3)" stroke="none" fill="#000" font-family="Arial" font-size="12" text-anchor="end"><tspan>0</tspan></text></g><g fill="none" color="#000" stroke="currentColor"><path stroke="#000" d="M53.9 385.6h9m552.1 0h-9"/><text transform="translate(45.6 389.5)" stroke="none" fill="#000" font-family="Arial" font-size="12" text-anchor="end"><tspan>50</tspan></text></g><g fill="none" color="#000" stroke="currentColor"><path stroke="#000" d="M53.9 313.8h9m552.1 0h-9"/><text transform="translate(45.6 317.7)" stroke="none" fill="#000" font-family="Arial" font-size="12" text-anchor="end"><tspan>100</tspan></text></g><g fill="none" color="#000" stroke="currentColor"><path stroke="#000" d="M53.9 242h9m552.1 0h-9"/><text transform="translate(45.6 245.9)" stroke="none" fill="#000" font-family="Arial" font-size="12" text-anchor="end"><tspan>150</tspan></text></g><g fill="none" color="#000" stroke="currentColor"><path stroke="#000" d="M53.9 170.3h9m552.1 0h-9"/><text transform="translate(45.6 174.2)" stroke="none" fill="#000" font-family="Arial" font-size="12" text-anchor="end"><tspan>200</tspan></text></g><g fill="none" color="#000" stroke="currentColor"><path stroke="#000" d="M53.9 98.5h9m552.1 0h-9"/><text transform="translate(45.6 102.4)" stroke="none" fill="#000" font-family="Arial" font-size="12" text-anchor="end"><tspan>250</tspan></text></g><g fill="none" color="#000" stroke="currentColor"><path stroke="#000" d="M53.9 26.7h9m552.1 0h-9"/><text transform="translate(45.6 30.6)" stroke="none" fill="#000" font-family="Arial" font-size="12" text-anchor="end"><tspan>300</tspan></text></g><g fill="none" color="#000" stroke="currentColor"><path stroke="#000" d="M53.9 466v-9m0-438.9v9"/><text transform="translate(53.9 487.9)" stroke="none" fill="#000" font-family="Arial" font-size="12" text-anchor="middle"><tspan>0</tspan></text></g><g fill="none" color="#000" stroke="currentColor"><path stroke="#000" d="M140.2 466v-9m0-438.9v9"/><text transform="translate(140.2 487.9)" stroke="none" fill="#000" font-family="Arial" font-size="12" text-anchor="middle"><tspan>2</tspan></text></g><g fill="none" color="#000" stroke="currentColor"><path stroke="#000" d="M226.5 466v-9m0-438.9v9"/><text transform="translate(226.5 487.9)" stroke="none" fill="#000" font-family="Arial" font-size="12" text-anchor="middle"><tspan>4</tspan></text></g><g fill="none" color="#000" stroke="currentColor"><path stroke="#000" d="M312.9 466v-9m0-438.9v9"/><text transform="translate(312.9 487.9)" stroke="none" fill="#000" font-family="Arial" font-size="12" text-anchor="middle"><tspan>6</tspan></text></g><g fill="none" color="#000" stroke="currentColor"><path stroke="#000" d="M399.2 466v-9m0-438.9v9"/><text transform="translate(399.2 487.9)" stroke="none" fill="#000" font-family="Arial" font-size="12" text-anchor="middle"><tspan>8</tspan></text></g><g fill="none" color="#000" stroke="currentColor"><path stroke="#000" d="M485.5 466v-9m0-438.9v9"/><text transform="translate(485.5 487.9)" stroke="none" fill="#000" font-family="Arial" font-size="12" text-anchor="middle"><tspan>10</tspan></text></g><g fill="none" color="#000" stroke="currentColor"><path stroke="#000" d="M571.8 466v-9m0-438.9v9"/><text transform="translate(571.8 487.9)" stroke="none" fill="#000" font-family="Arial" font-size="12" text-anchor="middle"><tspan>12</tspan></text></g><path stroke="#000" d="M53.9 18.1V466H615V18.1H53.9z" fill="none" color="#000"/><text transform="translate(142.1 505.9)" stroke="none" fill="#000" font-family="Arial" font-size="12" text-anchor="end" color="#000"><tspan>p90min</tspan></text><g fill="none" color="#000" stroke="currentColor"><path stroke="#9400D3" d="M150.4 502h42.2M53.9 457.4L97.1 242l43.1 215.4h43.2l43.1-430.7h43.2l43.2 430.7L356 26.7h43.2l43.2 430.7 43.1-430.7 43.2 430.7H615"/><use xlink:href="#g" transform="matrix(4.5 0 0 4.5 53.9 457.4)" color="#9400D3"/><use xlink:href="#g" transform="matrix(4.5 0 0 4.5 97.1 242)" color="#9400D3"/><use xlink:href="#g" transform="matrix(4.5 0 0 4.5 140.2 457.4)" color="#9400D3"/><use xlink:href="#g" transform="matrix(4.5 0 0 4.5 183.4 457.4)" color="#9400D3"/><use xlink:href="#g" transform="matrix(4.5 0 0 4.5 226.5 26.7)" color="#9400D3"/><use xlink:href="#g" transform="matrix(4.5 0 0 4.5 269.7 26.7)" color="#9400D3"/><use xlink:href="#g" transform="matrix(4.5 0 0 4.5 312.9 457.4)" color="#9400D3"/><use xlink:href="#g" transform="matrix(4.5 0 0 4.5 356 26.7)" color="#9400D3"/><use xlink:href="#g" transform="matrix(4.5 0 0 4.5 399.2 26.7)" color="#9400D3"/><use xlink:href="#g" transform="matrix(4.5 0 0 4.5 442.4 457.4)" color="#9400D3"/><use xlink:href="#g" transform="matrix(4.5 0 0 4.5 485.5 26.7)" color="#9400D3"/><use xlink:href="#g" transform="matrix(4.5 0 0 4.5 528.7 457.4)" color="#9400D3"/><use xlink:href="#g" transform="matrix(4.5 0 0 4.5 571.8 457.4)" color="#9400D3"/><use xlink:href="#g" transform="matrix(4.5 0 0 4.5 615 457.4)" color="#9400D3"/><use xlink:href="#g" transform="matrix(4.5 0 0 4.5 171.5 502)" color="#9400D3"/></g><text transform="translate(275.6 505.9)" stroke="none" fill="#000" font-family="Arial" font-size="12" text-anchor="end" color="#000"><tspan>p90mean</tspan></text><g fill="none" color="#000" stroke="currentColor"><path stroke="#009E73" d="M283.9 502h42.2M53.9 457.4l43.2-234.3 43.1 224.8 43.2 9.5 43.1-430.7h43.2l43.2 430.7L356 26.7h43.2l43.2 430.7 43.1-430.7 43.2 430.7H615"/><use xlink:href="#h" transform="matrix(4.5 0 0 4.5 53.9 457.4)" color="#009E73"/><use xlink:href="#h" transform="matrix(4.5 0 0 4.5 97.1 223.1)" color="#009E73"/><use xlink:href="#h" transform="matrix(4.5 0 0 4.5 140.2 447.9)" color="#009E73"/><use xlink:href="#h" transform="matrix(4.5 0 0 4.5 183.4 457.4)" color="#009E73"/><use xlink:href="#h" transform="matrix(4.5 0 0 4.5 226.5 26.7)" color="#009E73"/><use xlink:href="#h" transform="matrix(4.5 0 0 4.5 269.7 26.7)" color="#009E73"/><use xlink:href="#h" transform="matrix(4.5 0 0 4.5 312.9 457.4)" color="#009E73"/><use xlink:href="#h" transform="matrix(4.5 0 0 4.5 356 26.7)" color="#009E73"/><use xlink:href="#h" transform="matrix(4.5 0 0 4.5 399.2 26.7)" color="#009E73"/><use xlink:href="#h" transform="matrix(4.5 0 0 4.5 442.4 457.4)" color="#009E73"/><use xlink:href="#h" transform="matrix(4.5 0 0 4.5 485.5 26.7)" color="#009E73"/><use xlink:href="#h" transform="matrix(4.5 0 0 4.5 528.7 457.4)" color="#009E73"/><use xlink:href="#h" transform="matrix(4.5 0 0 4.5 571.8 457.4)" color="#009E73"/><use xlink:href="#h" transform="matrix(4.5 0 0 4.5 615 457.4)" color="#009E73"/><use xlink:href="#h" transform="matrix(4.5 0 0 4.5 305 502)" color="#009E73"/></g><text transform="translate(409.1 505.9)" stroke="none" fill="#000" font-family="Arial" font-size="12" text-anchor="end" color="#000"><tspan>p90median</tspan></text><g fill="none" color="#000" stroke="currentColor"><path stroke="#56B4E9" d="M417.4 502h42.2M53.9 457.4L97.1 242l43.1 215.4h43.2l43.1-430.7h43.2l43.2 430.7L356 26.7h43.2l43.2 430.7 43.1-430.7 43.2 430.7H615"/><use xlink:href="#i" transform="matrix(4.5 0 0 4.5 53.9 457.4)" color="#56B4E9"/><use xlink:href="#i" transform="matrix(4.5 0 0 4.5 97.1 242)" color="#56B4E9"/><use xlink:href="#i" transform="matrix(4.5 0 0 4.5 140.2 457.4)" color="#56B4E9"/><use xlink:href="#i" transform="matrix(4.5 0 0 4.5 183.4 457.4)" color="#56B4E9"/><use xlink:href="#i" transform="matrix(4.5 0 0 4.5 226.5 26.7)" color="#56B4E9"/><use xlink:href="#i" transform="matrix(4.5 0 0 4.5 269.7 26.7)" color="#56B4E9"/><use xlink:href="#i" transform="matrix(4.5 0 0 4.5 312.9 457.4)" color="#56B4E9"/><use xlink:href="#i" transform="matrix(4.5 0 0 4.5 356 26.7)" color="#56B4E9"/><use xlink:href="#i" transform="matrix(4.5 0 0 4.5 399.2 26.7)" color="#56B4E9"/><use xlink:href="#i" transform="matrix(4.5 0 0 4.5 442.4 457.4)" color="#56B4E9"/><use xlink:href="#i" transform="matrix(4.5 0 0 4.5 485.5 26.7)" color="#56B4E9"/><use xlink:href="#i" transform="matrix(4.5 0 0 4.5 528.7 457.4)" color="#56B4E9"/><use xlink:href="#i" transform="matrix(4.5 0 0 4.5 571.8 457.4)" color="#56B4E9"/><use xlink:href="#i" transform="matrix(4.5 0 0 4.5 615 457.4)" color="#56B4E9"/><use xlink:href="#i" transform="matrix(4.5 0 0 4.5 438.5 502)" color="#56B4E9"/></g><g><text transform="translate(542.6 505.9)" stroke="none" fill="#000" font-family="Arial" font-size="12" text-anchor="end" color="#000"><tspan>p90max</tspan></text><g fill="none" color="#000" stroke="currentColor"><path stroke="#E69F00" d="M550.9 502h42.2M53.9 457.4L97.1 26.7 140.2 242l43.2 215.4 43.1-430.7h43.2l43.2 430.7L356 26.7h43.2l43.2 430.7 43.1-430.7 43.2 430.7H615"/><use xlink:href="#d" transform="matrix(4.5 0 0 4.5 53.9 457.4)" color="#E69F00"/><use xlink:href="#d" transform="matrix(4.5 0 0 4.5 97.1 26.7)" color="#E69F00"/><use xlink:href="#d" transform="matrix(4.5 0 0 4.5 140.2 242)" color="#E69F00"/><use xlink:href="#d" transform="matrix(4.5 0 0 4.5 183.4 457.4)" color="#E69F00"/><use xlink:href="#d" transform="matrix(4.5 0 0 4.5 226.5 26.7)" color="#E69F00"/><use xlink:href="#d" transform="matrix(4.5 0 0 4.5 269.7 26.7)" color="#E69F00"/><use xlink:href="#d" transform="matrix(4.5 0 0 4.5 312.9 457.4)" color="#E69F00"/><use xlink:href="#d" transform="matrix(4.5 0 0 4.5 356 26.7)" color="#E69F00"/><use xlink:href="#d" transform="matrix(4.5 0 0 4.5 399.2 26.7)" color="#E69F00"/><use xlink:href="#d" transform="matrix(4.5 0 0 4.5 442.4 457.4)" color="#E69F00"/><use xlink:href="#d" transform="matrix(4.5 0 0 4.5 485.5 26.7)" color="#E69F00"/><use xlink:href="#d" transform="matrix(4.5 0 0 4.5 528.7 457.4)" color="#E69F00"/><use xlink:href="#d" transform="matrix(4.5 0 0 4.5 571.8 457.4)" color="#E69F00"/><use xlink:href="#d" transform="matrix(4.5 0 0 4.5 615 457.4)" color="#E69F00"/><use xlink:href="#d" transform="matrix(4.5 0 0 4.5 572 502)" color="#E69F00"/></g></g><g fill="none" color="#000" stroke="currentColor"><path stroke="#000" d="M53.9 18.1V466H615V18.1H53.9z"/></g></svg>