<svg width="640" height="500" xmlns="http://www.w3.org/2000/svg" xmlns:xlink="http://www.w3.org/1999/xlink"><path fill="#fff" d="M0 0h640v500H0z"/><defs><path id="d" stroke-width=".222" stroke="currentColor" d="M-1-1h2v2h-2z"/><path id="b" stroke-width=".222" stroke="currentColor" d="M0-1.33l-1.33 2h2.66z"/><path id="f" stroke-width=".222" stroke="currentColor" d="M0 1.33L1.265.411.782-1.067l-1.564-.009-.483 1.487z"/><use xlink:href="#b" id="c" stroke="currentColor" transform="rotate(180)"/><use xlink:href="#d" id="e" stroke="currentColor" transform="rotate(45)"/><circle id="a" stroke-width=".222" stroke="currentColor" cx="0" cy="0" r="1"/></defs><g fill="none" color="#000" stroke="currentColor"><path stroke="#000" d="M53.9 415.2h9m552.1 0h-9"/><text transform="translate(45.6 419.1)" stroke="none" fill="#000" font-family="Arial" font-size="12" text-anchor="end"><tspan>0.1</tspan></text></g><g fill="none" color="#000" stroke="currentColor"><path stroke="#000" d="M53.9 333.9h9m552.1 0h-9"/><text transform="translate(45.6 337.8)" stroke="none" fill="#000" font-family="Arial" font-size="12" text-anchor="end"><tspan>0.2</tspan></text></g><g fill="none" color="#000" stroke="currentColor"><path stroke="#000" d="M53.9 252.6h9m552.1 0h-9"/><text transform="translate(45.6 256.5)" stroke="none" fill="#000" font-family="Arial" font-size="12" text-anchor="end"><tspan>0.3</tspan></text></g><g fill="none" color="#000" stroke="currentColor"><path stroke="#000" d="M53.9 171.4h9m552.1 0h-9"/><text transform="translate(45.6 175.3)" stroke="none" fill="#000" font-family="Arial" font-size="12" text-anchor="end"><tspan>0.4</tspan></text></g><g fill="none" color="#000" stroke="currentColor"><path stroke="#000" d="M53.9 90.1h9m552.1 0h-9"/><text transform="translate(45.6 94)" stroke="none" fill="#000" font-family="Arial" font-size="12" text-anchor="end"><tspan>0.5</tspan></text></g><g fill="none" color="#000" stroke="currentColor"><path stroke="#000" d="M53.9 428v-9m0-400.9v9"/><text transform="translate(53.9 449.9)" stroke="none" fill="#000" font-family="Arial" font-size="12" text-anchor="middle"><tspan>0</tspan></text></g><g fill="none" color="#000" stroke="currentColor"><path stroke="#000" d="M110.6 428v-9m0-400.9v9"/><text transform="translate(110.6 449.9)" stroke="none" fill="#000" font-family="Arial" font-size="12" text-anchor="middle"><tspan>10</tspan></text></g><g fill="none" color="#000" stroke="currentColor"><path stroke="#000" d="M167.3 428v-9m0-400.9v9"/><text transform="translate(167.3 449.9)" stroke="none" fill="#000" font-family="Arial" font-size="12" text-anchor="middle"><tspan>20</tspan></text></g><g fill="none" color="#000" stroke="currentColor"><path stroke="#000" d="M223.9 428v-9m0-400.9v9"/><text transform="translate(223.9 449.9)" stroke="none" fill="#000" font-family="Arial" font-size="12" text-anchor="middle"><tspan>30</tspan></text></g><g fill="none" color="#000" stroke="currentColor"><path stroke="#000" d="M280.6 428v-9m0-400.9v9"/><text transform="translate(280.6 449.9)" stroke="none" fill="#000" font-family="Arial" font-size="12" text-anchor="middle"><tspan>40</tspan></text></g><g fill="none" color="#000" stroke="currentColor"><path stroke="#000" d="M337.3 428v-9m0-400.9v9"/><text transform="translate(337.3 449.9)" stroke="none" fill="#000" font-family="Arial" font-size="12" text-anchor="middle"><tspan>50</tspan></text></g><g fill="none" color="#000" stroke="currentColor"><path stroke="#000" d="M394 428v-9m0-400.9v9"/><text transform="translate(394 449.9)" stroke="none" fill="#000" font-family="Arial" font-size="12" text-anchor="middle"><tspan>60</tspan></text></g><g fill="none" color="#000" stroke="currentColor"><path stroke="#000" d="M450.6 428v-9m0-400.9v9"/><text transform="translate(450.6 449.9)" stroke="none" fill="#000" font-family="Arial" font-size="12" text-anchor="middle"><tspan>70</tspan></text></g><g fill="none" color="#000" stroke="currentColor"><path stroke="#000" d="M507.3 428v-9m0-400.9v9"/><text transform="translate(507.3 449.9)" stroke="none" fill="#000" font-family="Arial" font-size="12" text-anchor="middle"><tspan>80</tspan></text></g><g fill="none" color="#000" stroke="currentColor"><path stroke="#000" d="M564 428v-9m0-400.9v9"/><text transform="translate(564 449.9)" stroke="none" fill="#000" font-family="Arial" font-size="12" text-anchor="middle"><tspan>90</tspan></text></g><path stroke="#000" d="M53.9 18.1V428H615V18.1H53.9z" fill="none" color="#000"/><text transform="translate(275.6 467.9)" stroke="none" fill="#000" font-family="Arial" font-size="12" text-anchor="end" color="#000"><tspan>pages</tspan></text><path stroke="#9400D3" d="M283.9 464h42.2M53.9 248.6l5.7 68.4 5.6-291 5.7 291h5.7l5.6-291h5.7l5.7 291 5.6-291 5.7 291 5.7-291 5.6 291h5.7l5.7-291h11.3l5.7 291h5.7l5.6-291h17l5.7 291 5.7-291h22.6l5.7 291 5.7-291h11.3l5.7 291 5.6-291 5.7 100.2L252.3 26h28.3l5.7 291h5.6l5.7-291h5.7l5.6 291 5.7-291h5.7l5.6 291 5.7-291 5.7 306.1L343 317l5.6-291h17l5.7 100.2L377 26l5.6 291 5.7-291h11.3l5.7 291L411 26l5.6 100.2 5.7 190.8L428 26h5.6l5.7 291h5.7l5.6-291 5.7 291L462 26H518.6l5.7 291h5.7l5.7-68.4L541.3 26l5.7 291 5.7-190.8h5.6L564 26h5.7l5.6 291h5.7l5.7-291H598l5.7 291h5.6L615 26" fill="none" color="#000"/><text transform="translate(275.6 485.9)" stroke="none" fill="#000" font-family="Arial" font-size="12" text-anchor="end" color="#000"><tspan>pages+cached</tspan></text><path stroke="#009E73" d="M283.9 482h42.2M53.9 270.4l5.7-98.4 5.6 15.7 5.7 153.8h17l5.7-153.7 5.6-.1 5.7-15.7 5.7 137.9 5.6-138 5.7 169.6 5.7-153.7 5.6-15.8 5.7 15.8 5.7 153.7 5.7-153.7 5.6 109.4 5.7-109.4 5.7 122.1h5.6l5.7-137.9 5.7 169.5 5.6-44.3 5.7 12.7 5.7-12.7 5.6-125.2 5.7 137.9 5.7-122.1 5.6-15.8h5.7l5.7 169.5h5.6l5.7-169.5 5.7 169.5 5.6-169.5 5.7 66.4 5.7 71.5 5.6-137.9 5.7 169.5h5.7l5.6-153.7 5.7 109.4 5.7 44.3 5.6-44.3 5.7-109.5 5.7 153.8h5.6l5.7-153.7 5.7 163 5.7-40.9 5.6 31.6 5.7-169.5 5.7 15.8 5.6-24.6 5.7 24.6 5.7-.1 5.6-15.7 5.7 137.9 5.7-122.1 5.6-15.8 5.7 137.9 5.7 31.6 5.6-153.7 5.7 109.4 5.7 44.3 5.6-44.3h5.7l5.7 12.7 5.6-137.9 5.7 169.5L462 172h5.6l5.7 125.2 5.7 44.3 5.6-44.3 5.7 12.7 5.7 31.6 5.6-44.3 5.7-109.4 5.7 109.4 5.6-109.4 5.7-15.8h11.4l5.6 15.8 5.7 153.7h5.7l5.6-153.7 5.7 153.7 5.7-153.8h5.6l5.7 232.4 5.7-122.9 5.6 44.3 5.7 9.3 5.7-9.3 5.6-31.6 5.7-122.1" fill="none" color="#000"/><text transform="translate(475.5 467.9)" stroke="none" fill="#000" font-family="Arial" font-size="12" text-anchor="end" color="#000"><tspan>score p10=0.1</tspan></text><path stroke="#56B4E9" d="M483.8 464H526M53.9 415.2H615" fill="none" color="#000"/><g><text transform="translate(475.5 485.9)" stroke="none" fill="#000" font-family="Arial" font-size="12" text-anchor="end" color="#000"><tspan>score median=0.25</tspan></text><path stroke="#E69F00" d="M483.8 482H526M53.9 293.3H615" fill="none" color="#000"/></g><g fill="none" color="#000" stroke="currentColor"><path stroke="#000" d="M53.9 18.1V428H615V18.1H53.9z"/></g></svg>