<svg width="640" height="500" xmlns="http://www.w3.org/2000/svg" xmlns:xlink="http://www.w3.org/1999/xlink"><path fill="#fff" d="M0 0h640v500H0z"/><defs><path id="d" stroke-width=".222" stroke="currentColor" d="M-1-1h2v2h-2z"/><path id="b" stroke-width=".222" stroke="currentColor" d="M0-1.33l-1.33 2h2.66z"/><path id="f" stroke-width=".222" stroke="currentColor" d="M0 1.33L1.265.411.782-1.067l-1.564-.009-.483 1.487z"/><use xlink:href="#b" id="c" stroke="currentColor" transform="rotate(180)"/><use xlink:href="#d" id="e" stroke="currentColor" transform="rotate(45)"/><circle id="a" stroke-width=".222" stroke="currentColor" cx="0" cy="0" r="1"/></defs><g fill="none" color="#000" stroke="currentColor"><path stroke="#000" d="M53.9 338.8h9m552.1 0h-9"/><text transform="translate(45.6 342.7)" stroke="none" fill="#000" font-family="Arial" font-size="12" text-anchor="end"><tspan>0.2</tspan></text></g><g fill="none" color="#000" stroke="currentColor"><path stroke="#000" d="M53.9 271.3h9m552.1 0h-9"/><text transform="translate(45.6 275.2)" stroke="none" fill="#000" font-family="Arial" font-size="12" text-anchor="end"><tspan>0.4</tspan></text></g><g fill="none" color="#000" stroke="currentColor"><path stroke="#000" d="M53.9 203.8h9m552.1 0h-9"/><text transform="translate(45.6 207.7)" stroke="none" fill="#000" font-family="Arial" font-size="12" text-anchor="end"><tspan>0.6</tspan></text></g><g fill="none" color="#000" stroke="currentColor"><path stroke="#000" d="M53.9 136.4h9m552.1 0h-9"/><text transform="translate(45.6 140.3)" stroke="none" fill="#000" font-family="Arial" font-size="12" text-anchor="end"><tspan>0.8</tspan></text></g><g fill="none" color="#000" stroke="currentColor"><path stroke="#000" d="M53.9 68.9h9m552.1 0h-9"/><text transform="translate(45.6 72.8)" stroke="none" fill="#000" font-family="Arial" font-size="12" text-anchor="end"><tspan>1</tspan></text></g><g fill="none" color="#000" stroke="currentColor"><path stroke="#000" d="M53.9 392v-9m0-364.9v9"/><text transform="translate(53.9 413.9)" stroke="none" fill="#000" font-family="Arial" font-size="12" text-anchor="middle"><tspan>0</tspan></text></g><g fill="none" color="#000" stroke="currentColor"><path stroke="#000" d="M110.6 392v-9m0-364.9v9"/><text transform="translate(110.6 413.9)" stroke="none" fill="#000" font-family="Arial" font-size="12" text-anchor="middle"><tspan>10</tspan></text></g><g fill="none" color="#000" stroke="currentColor"><path stroke="#000" d="M167.3 392v-9m0-364.9v9"/><text transform="translate(167.3 413.9)" stroke="none" fill="#000" font-family="Arial" font-size="12" text-anchor="middle"><tspan>20</tspan></text></g><g fill="none" color="#000" stroke="currentColor"><path stroke="#000" d="M223.9 392v-9m0-364.9v9"/><text transform="translate(223.9 413.9)" stroke="none" fill="#000" font-family="Arial" font-size="12" text-anchor="middle"><tspan>30</tspan></text></g><g fill="none" color="#000" stroke="currentColor"><path stroke="#000" d="M280.6 392v-9m0-364.9v9"/><text transform="translate(280.6 413.9)" stroke="none" fill="#000" font-family="Arial" font-size="12" text-anchor="middle"><tspan>40</tspan></text></g><g fill="none" color="#000" stroke="currentColor"><path stroke="#000" d="M337.3 392v-9m0-364.9v9"/><text transform="translate(337.3 413.9)" stroke="none" fill="#000" font-family="Arial" font-size="12" text-anchor="middle"><tspan>50</tspan></text></g><g fill="none" color="#000" stroke="currentColor"><path stroke="#000" d="M394 392v-9m0-364.9v9"/><text transform="translate(394 413.9)" stroke="none" fill="#000" font-family="Arial" font-size="12" text-anchor="middle"><tspan>60</tspan></text></g><g fill="none" color="#000" stroke="currentColor"><path stroke="#000" d="M450.6 392v-9m0-364.9v9"/><text transform="translate(450.6 413.9)" stroke="none" fill="#000" font-family="Arial" font-size="12" text-anchor="middle"><tspan>70</tspan></text></g><g fill="none" color="#000" stroke="currentColor"><path stroke="#000" d="M507.3 392v-9m0-364.9v9"/><text transform="translate(507.3 413.9)" stroke="none" fill="#000" font-family="Arial" font-size="12" text-anchor="middle"><tspan>80</tspan></text></g><g fill="none" color="#000" stroke="currentColor"><path stroke="#000" d="M564 392v-9m0-364.9v9"/><text transform="translate(564 413.9)" stroke="none" fill="#000" font-family="Arial" font-size="12" text-anchor="middle"><tspan>90</tspan></text></g><path stroke="#000" d="M53.9 18.1V392H615V18.1H53.9z" fill="none" color="#000"/><text transform="translate(433.7 431.9)" stroke="none" fill="#000" font-family="Arial" font-size="12" text-anchor="end" color="#000"><tspan>pages+cached+noexternal</tspan></text><path stroke="#9400D3" d="M442 428h42.2M53.9 25.3l5.7 310.3 5.6 6.4 5.7-42.8 5.7 36.4h5.6l5.7 10.2 5.7-3.8 5.6-10.2h5.7l5.7 10.2 5.6-10.2 5.7 3.8h5.7l5.6 39 5.7-96.5 5.7 63.9 5.7-10.2 5.6 10.2h11.4l5.6-316.7 5.7 310.3 5.7 10.2 5.6-3.8 5.7-26.2 5.7 26.2h11.3l5.7-42.8 5.6 36.4 5.7-57.5 5.7 57.5 5.6 39 5.7-42.8 5.7 14 5.6-3.8 5.7 32.6 5.7-39 5.6 6.4 5.7-6.4 5.7 6.4 5.6 3.8 5.7-67.7 5.7 96.5 5.6-39 5.7 6.4 5.7 32.6 5.6-75.4 5.7 75.4 5.7-32.6h5.7l5.6-63.9 5.7 53.7L360 342l5.6 32.6 5.7-349.3 5.7 252.8 5.6 53.7 5.7 10.2 5.7 3.8 5.6-14h5.7l5.7-53.7h5.6l5.7 53.7 5.7 42.8 5.6-32.6 5.7-63.9L445 342l5.6-6.4h5.7l5.7 6.4 5.6-63.9 5.7 67.7 5.7-3.8 5.6-316.7 5.7 273.9 5.7 36.4h5.6l5.7 6.4h5.7l5.6-42.8 5.7 36.4h5.7l5.7-3.8 5.6 3.8 5.7 6.4 5.7-42.8 5.6 75.4 5.7-96.5 5.7 67.7 5.6-67.7 5.7 57.5h5.7l5.6-57.5 5.7 57.5 5.7 6.4 5.6-10.2 5.7 3.8" fill="none" color="#000"/><text transform="translate(433.7 449.9)" stroke="none" fill="#000" font-family="Arial" font-size="12" text-anchor="end" color="#000"><tspan>pages+cached+noexternal+nofonts</tspan></text><path stroke="#009E73" d="M442 446h42.2M53.9 345.8l5.7 39 5.6-42.8 5.7 3.8h11.3l5.7 39 5.7-42.8 5.6 42.8 5.7-94.5 5.7 41.5 5.6 53 5.7-39 5.7 39 5.6-42.8 5.7 3.8 5.7-3.8h11.3l5.7 42.8h5.7l5.6-39 5.7-10.2 5.7-3.8 5.6 10.2 5.7 3.8 5.7-3.8 5.6 3.8h5.7l5.7-3.8 5.6-51.7 5.7 94.5 5.7-42.8 5.6 3.8 5.7 39 5.7-94.5 5.6 94.5 5.7-39h11.3l5.7 39h11.3l5.7-42.8h5.7l5.6-6.4 5.7 10.2 5.7 28.8 5.6 10.2h11.4L343 342l5.6 3.8h5.7l5.7 39 5.6-53 5.7 3.8 5.7 49.2 5.6-39h5.7l5.7 39 5.6-39 5.7 39 5.7-94.5 5.6 94.5H428l5.6-42.8 5.7-51.7L445 342l5.6 3.8h5.7l5.7-3.8 5.6 42.8h5.7L479 342l5.6 42.8 5.7-39 5.7-10.2 5.6 6.4H513l5.6 42.8h5.7l5.7-39h5.7l5.6 39h5.7l5.7-42.8 5.6-51.7 5.7 55.5h5.7l5.6-3.8 5.7 42.8 5.7-10.2 5.6 10.2 5.7-53 5.7 14 5.6-3.8 5.7 3.8" fill="none" color="#000"/><text transform="translate(433.7 467.9)" stroke="none" fill="#000" font-family="Arial" font-size="12" text-anchor="end" color="#000"><tspan>score p10=0.1</tspan></text><path stroke="#56B4E9" d="M442 464h42.2M53.9 372.6H615" fill="none" color="#000"/><g><text transform="translate(433.7 485.9)" stroke="none" fill="#000" font-family="Arial" font-size="12" text-anchor="end" color="#000"><tspan>score median=0.25</tspan></text><path stroke="#E69F00" d="M442 482h42.2M53.9 321.9H615" fill="none" color="#000"/></g><g fill="none" color="#000" stroke="currentColor"><path stroke="#000" d="M53.9 18.1V392H615V18.1H53.9z"/></g></svg>