<svg width="640" height="500" xmlns="http://www.w3.org/2000/svg" xmlns:xlink="http://www.w3.org/1999/xlink"><path fill="#fff" d="M0 0h640v500H0z"/><defs><path id="d" stroke-width=".222" stroke="currentColor" d="M-1-1h2v2h-2z"/><path id="b" stroke-width=".222" stroke="currentColor" d="M0-1.33l-1.33 2h2.66z"/><path id="f" stroke-width=".222" stroke="currentColor" d="M0 1.33L1.265.411.782-1.067l-1.564-.009-.483 1.487z"/><use xlink:href="#b" id="c" stroke="currentColor" transform="rotate(180)"/><use xlink:href="#d" id="e" stroke="currentColor" transform="rotate(45)"/><circle id="a" stroke-width=".222" stroke="currentColor" cx="0" cy="0" r="1"/></defs><g fill="none" color="#000" stroke="currentColor"><path stroke="#000" d="M53.9 372.2h9m552.1 0h-9"/><text transform="translate(45.6 376.1)" stroke="none" fill="#000" font-family="Arial" font-size="12" text-anchor="end"><tspan>0.2</tspan></text></g><g fill="none" color="#000" stroke="currentColor"><path stroke="#000" d="M53.9 299h9m552.1 0h-9"/><text transform="translate(45.6 302.9)" stroke="none" fill="#000" font-family="Arial" font-size="12" text-anchor="end"><tspan>0.4</tspan></text></g><g fill="none" color="#000" stroke="currentColor"><path stroke="#000" d="M53.9 225.9h9m552.1 0h-9"/><text transform="translate(45.6 229.8)" stroke="none" fill="#000" font-family="Arial" font-size="12" text-anchor="end"><tspan>0.6</tspan></text></g><g fill="none" color="#000" stroke="currentColor"><path stroke="#000" d="M53.9 152.7h9m552.1 0h-9"/><text transform="translate(45.6 156.6)" stroke="none" fill="#000" font-family="Arial" font-size="12" text-anchor="end"><tspan>0.8</tspan></text></g><g fill="none" color="#000" stroke="currentColor"><path stroke="#000" d="M53.9 79.5h9m552.1 0h-9"/><text transform="translate(45.6 83.4)" stroke="none" fill="#000" font-family="Arial" font-size="12" text-anchor="end"><tspan>1</tspan></text></g><g fill="none" color="#000" stroke="currentColor"><path stroke="#000" d="M53.9 428v-9m0-400.9v9"/><text transform="translate(53.9 449.9)" stroke="none" fill="#000" font-family="Arial" font-size="12" text-anchor="middle"><tspan>0</tspan></text></g><g fill="none" color="#000" stroke="currentColor"><path stroke="#000" d="M110.6 428v-9m0-400.9v9"/><text transform="translate(110.6 449.9)" stroke="none" fill="#000" font-family="Arial" font-size="12" text-anchor="middle"><tspan>10</tspan></text></g><g fill="none" color="#000" stroke="currentColor"><path stroke="#000" d="M167.3 428v-9m0-400.9v9"/><text transform="translate(167.3 449.9)" stroke="none" fill="#000" font-family="Arial" font-size="12" text-anchor="middle"><tspan>20</tspan></text></g><g fill="none" color="#000" stroke="currentColor"><path stroke="#000" d="M223.9 428v-9m0-400.9v9"/><text transform="translate(223.9 449.9)" stroke="none" fill="#000" font-family="Arial" font-size="12" text-anchor="middle"><tspan>30</tspan></text></g><g fill="none" color="#000" stroke="currentColor"><path stroke="#000" d="M280.6 428v-9m0-400.9v9"/><text transform="translate(280.6 449.9)" stroke="none" fill="#000" font-family="Arial" font-size="12" text-anchor="middle"><tspan>40</tspan></text></g><g fill="none" color="#000" stroke="currentColor"><path stroke="#000" d="M337.3 428v-9m0-400.9v9"/><text transform="translate(337.3 449.9)" stroke="none" fill="#000" font-family="Arial" font-size="12" text-anchor="middle"><tspan>50</tspan></text></g><g fill="none" color="#000" stroke="currentColor"><path stroke="#000" d="M394 428v-9m0-400.9v9"/><text transform="translate(394 449.9)" stroke="none" fill="#000" font-family="Arial" font-size="12" text-anchor="middle"><tspan>60</tspan></text></g><g fill="none" color="#000" stroke="currentColor"><path stroke="#000" d="M450.6 428v-9m0-400.9v9"/><text transform="translate(450.6 449.9)" stroke="none" fill="#000" font-family="Arial" font-size="12" text-anchor="middle"><tspan>70</tspan></text></g><g fill="none" color="#000" stroke="currentColor"><path stroke="#000" d="M507.3 428v-9m0-400.9v9"/><text transform="translate(507.3 449.9)" stroke="none" fill="#000" font-family="Arial" font-size="12" text-anchor="middle"><tspan>80</tspan></text></g><g fill="none" color="#000" stroke="currentColor"><path stroke="#000" d="M564 428v-9m0-400.9v9"/><text transform="translate(564 449.9)" stroke="none" fill="#000" font-family="Arial" font-size="12" text-anchor="middle"><tspan>90</tspan></text></g><path stroke="#000" d="M53.9 18.1V428H615V18.1H53.9z" fill="none" color="#000"/><text transform="translate(275.6 467.9)" stroke="none" fill="#000" font-family="Arial" font-size="12" text-anchor="end" color="#000"><tspan>pages+cached+noexternal+nosvg</tspan></text><path stroke="#9400D3" d="M283.9 464h42.2M53.9 420.1l5.7-49.8 5.6-7.9h5.7l5.7 7.9h5.6l5.7 3.1 5.7-11h5.6l5.7 57.7 5.7-49.8 5.6-7.9 5.7 7.9 5.7 49.8 5.6-57.7 5.7 11 5.7-11 5.7 57.7h5.6l5.7-81.8 5.7 24.1L172.9 26l5.7 344.3 5.7 49.8L189.9 26l5.7 344.3 5.7-7.9 5.6 7.9 5.7 49.8 5.7-49.8 5.6 3.1L229.6 26l5.7 344.3 5.6 49.8h5.7l5.7-57.7h11.3L269.3 26l5.6 336.4h11.4l5.6 57.7 5.7-57.7 5.7 11 5.6 46.7h11.4l5.6-46.7h5.7l5.7-35.1 5.7 35.1 5.6-3.1 5.7 3.1 5.7 46.7 5.6-49.8h5.7l5.7 3.1 5.6-11h17L405.3 26l5.7 336.4h5.6l5.7 7.9 5.7 3.1 5.6-14.1 5.7 3.1 5.7 57.7 5.6-46.7 5.7-11h11.3l5.7 7.9h11.3l5.7 3.1L496 26l5.6 336.4 5.7 11 5.7 46.7h11.3l5.7-57.7h5.7l5.6 11L547 26l5.7 344.3 5.6 49.8 5.7-81.8 5.7 35.1 5.6 46.7 5.7-57.7 5.7 57.7 5.6-49.8 5.7 49.8 5.7-57.7h5.6l5.7 11" fill="none" color="#000"/><text transform="translate(275.6 485.9)" stroke="none" fill="#000" font-family="Arial" font-size="12" text-anchor="end" color="#000"><tspan>pages+cached+noexternal+noimg</tspan></text><path stroke="#009E73" d="M283.9 482h42.2M53.9 306.4l5.7 104.7 5.6-42.3 5.7 42.3 5.7-104.7 5.6 69.3 5.7-11.1 5.7 46.5 5.6-35.4 5.7-69.3 5.7 69.3 5.6 35.4 5.7-35.4 5.7-46.5 5.6 81.9 5.7-35.4h11.4l5.6-69.3 5.7 22.8 5.7 46.5h5.6l5.7-6.9 5.7 6.9 5.6 35.4 5.7-35.4h5.7l5.6-11.1 5.7 11.1h5.7l5.6-69.3 5.7 62.4 5.7 42.3 5.6-35.4 5.7-11.1 5.7 46.5 5.6-42.3 5.7-62.4 5.7 58.2 5.6 11.1 5.7-6.9h5.7l5.6 6.9 5.7-69.3 5.7 22.8 5.6 50.6 5.7-4.1 5.7-6.9 5.6 6.9h11.4l5.7 35.4 5.6-81.9 5.7 35.4 5.7 11.1 5.6-6.9h5.7l5.7 6.9 5.6 35.4 5.7-35.4 5.7-69.3 5.6 62.4H411l5.6 6.9h5.7l5.7-6.9 5.6 42.3 5.7-378.9 5.7 297 5.6-22.8 5.7 69.3 5.7-6.9 5.6 11 5.7-4.1 5.7 35.4 5.6-104.7 5.7 69.3 5.7-69.3 5.6 104.7 5.7-35.4 5.7-11.1 5.6 11.1h5.7l5.7-6.9h22.7l5.6 42.3 5.7-104.7 5.7 69.3 5.6 4.1 5.7-73.4 5.7 69.3 5.6-11.1 5.7 46.5 5.7-104.7 5.6 69.3 5.7-6.9" fill="none" color="#000"/><text transform="translate(575.1 467.9)" stroke="none" fill="#000" font-family="Arial" font-size="12" text-anchor="end" color="#000"><tspan>score p10=0.1</tspan></text><path stroke="#56B4E9" d="M583.4 464h42.2M53.9 408.8H615" fill="none" color="#000"/><g><text transform="translate(575.1 485.9)" stroke="none" fill="#000" font-family="Arial" font-size="12" text-anchor="end" color="#000"><tspan>score median=0.25</tspan></text><path stroke="#E69F00" d="M583.4 482h42.2M53.9 353.9H615" fill="none" color="#000"/></g><g fill="none" color="#000" stroke="currentColor"><path stroke="#000" d="M53.9 18.1V428H615V18.1H53.9z"/></g></svg>