<svg width="640" height="520" xmlns="http://www.w3.org/2000/svg" xmlns:xlink="http://www.w3.org/1999/xlink"><path fill="#fff" d="M0 0h640v520H0z"/><defs><path id="g" stroke-width=".222" stroke="currentColor" d="M-1 0h2M0-1v2"/><path id="h" stroke-width=".222" stroke="currentColor" d="M-1-1l2 2m0-2l-2 2"/><path id="i" stroke-width=".222" stroke="currentColor" d="M-1 0h2M0-1v2m-1-2l2 2m-2 0l2-2"/><path id="d" stroke-width=".222" stroke="currentColor" d="M-1-1h2v2h-2z"/><path id="b" stroke-width=".222" stroke="currentColor" d="M0-1.33l-1.33 2h2.66z"/><path id="f" stroke-width=".222" stroke="currentColor" d="M0 1.33L1.265.411.782-1.067l-1.564-.009-.483 1.487z"/><use xlink:href="#b" id="c" stroke="currentColor" transform="rotate(180)"/><use xlink:href="#d" id="e" stroke="currentColor" transform="rotate(45)"/><circle id="a" stroke-width=".222" stroke="currentColor" cx="0" cy="0" r="1"/></defs><g fill="none" color="#000" stroke="currentColor"><path stroke="#000" d="M70.5 400.8h9m535.5 0h-9"/><text transform="translate(62.2 404.7)" stroke="none" fill="#000" font-family="Arial" font-size="12" text-anchor="end"><tspan>0.99</tspan></text></g><g fill="none" color="#000" stroke="currentColor"><path stroke="#000" d="M70.5 331.2h9m535.5 0h-9"/><text transform="translate(62.2 335.1)" stroke="none" fill="#000" font-family="Arial" font-size="12" text-anchor="end"><tspan>0.992</tspan></text></g><g fill="none" color="#000" stroke="currentColor"><path stroke="#000" d="M70.5 261.7h9m535.5 0h-9"/><text transform="translate(62.2 265.6)" stroke="none" fill="#000" font-family="Arial" font-size="12" text-anchor="end"><tspan>0.994</tspan></text></g><g fill="none" color="#000" stroke="currentColor"><path stroke="#000" d="M70.5 192.1h9m535.5 0h-9"/><text transform="translate(62.2 196)" stroke="none" fill="#000" font-family="Arial" font-size="12" text-anchor="end"><tspan>0.996</tspan></text></g><g fill="none" color="#000" stroke="currentColor"><path stroke="#000" d="M70.5 122.5h9m535.5 0h-9"/><text transform="translate(62.2 126.4)" stroke="none" fill="#000" font-family="Arial" font-size="12" text-anchor="end"><tspan>0.998</tspan></text></g><g fill="none" color="#000" stroke="currentColor"><path stroke="#000" d="M70.5 52.9h9m535.5 0h-9"/><text transform="translate(62.2 56.8)" stroke="none" fill="#000" font-family="Arial" font-size="12" text-anchor="end"><tspan>1</tspan></text></g><g fill="none" color="#000" stroke="currentColor"><path stroke="#000" d="M70.5 448v-9m0-420.9v9"/><text transform="translate(70.5 469.9)" stroke="none" fill="#000" font-family="Arial" font-size="12" text-anchor="middle"><tspan>0</tspan></text></g><g fill="none" color="#000" stroke="currentColor"><path stroke="#000" d="M154.3 448v-9m0-420.9v9"/><text transform="translate(154.3 469.9)" stroke="none" fill="#000" font-family="Arial" font-size="12" text-anchor="middle"><tspan>2</tspan></text></g><g fill="none" color="#000" stroke="currentColor"><path stroke="#000" d="M238 448v-9m0-420.9v9"/><text transform="translate(238 469.9)" stroke="none" fill="#000" font-family="Arial" font-size="12" text-anchor="middle"><tspan>4</tspan></text></g><g fill="none" color="#000" stroke="currentColor"><path stroke="#000" d="M321.8 448v-9m0-420.9v9"/><text transform="translate(321.8 469.9)" stroke="none" fill="#000" font-family="Arial" font-size="12" text-anchor="middle"><tspan>6</tspan></text></g><g fill="none" color="#000" stroke="currentColor"><path stroke="#000" d="M405.6 448v-9m0-420.9v9"/><text transform="translate(405.6 469.9)" stroke="none" fill="#000" font-family="Arial" font-size="12" text-anchor="middle"><tspan>8</tspan></text></g><g fill="none" color="#000" stroke="currentColor"><path stroke="#000" d="M489.3 448v-9m0-420.9v9"/><text transform="translate(489.3 469.9)" stroke="none" fill="#000" font-family="Arial" font-size="12" text-anchor="middle"><tspan>10</tspan></text></g><g fill="none" color="#000" stroke="currentColor"><path stroke="#000" d="M573.1 448v-9m0-420.9v9"/><text transform="translate(573.1 469.9)" stroke="none" fill="#000" font-family="Arial" font-size="12" text-anchor="middle"><tspan>12</tspan></text></g><path stroke="#000" d="M70.5 18.1V448H615V18.1H70.5z" fill="none" color="#000"/><text transform="translate(283.9 487.9)" stroke="none" fill="#000" font-family="Arial" font-size="12" text-anchor="end" color="#000"><tspan>score:p90min</tspan></text><g fill="none" color="#000" stroke="currentColor"><path stroke="#9400D3" d="M292.2 484h42.2M70.5 52.9l41.9 340.8 41.9 19.5 41.9-.4L238 291.3l41.9-.5 41.9 49.9 41.9-174.5 41.9 122.1 41.9-172.2 41.8-30.9 41.9 252.1 41.9-222.1L615 83.9"/><use xlink:href="#g" transform="matrix(4.5 0 0 4.5 70.5 52.9)" color="#9400D3"/><use xlink:href="#g" transform="matrix(4.5 0 0 4.5 112.4 393.7)" color="#9400D3"/><use xlink:href="#g" transform="matrix(4.5 0 0 4.5 154.3 413.2)" color="#9400D3"/><use xlink:href="#g" transform="matrix(4.5 0 0 4.5 196.2 412.8)" color="#9400D3"/><use xlink:href="#g" transform="matrix(4.5 0 0 4.5 238 291.3)" color="#9400D3"/><use xlink:href="#g" transform="matrix(4.5 0 0 4.5 279.9 290.8)" color="#9400D3"/><use xlink:href="#g" transform="matrix(4.5 0 0 4.5 321.8 340.7)" color="#9400D3"/><use xlink:href="#g" transform="matrix(4.5 0 0 4.5 363.7 166.2)" color="#9400D3"/><use xlink:href="#g" transform="matrix(4.5 0 0 4.5 405.6 288.3)" color="#9400D3"/><use xlink:href="#g" transform="matrix(4.5 0 0 4.5 447.5 116.1)" color="#9400D3"/><use xlink:href="#g" transform="matrix(4.5 0 0 4.5 489.3 85.2)" color="#9400D3"/><use xlink:href="#g" transform="matrix(4.5 0 0 4.5 531.2 337.3)" color="#9400D3"/><use xlink:href="#g" transform="matrix(4.5 0 0 4.5 573.1 115.2)" color="#9400D3"/><use xlink:href="#g" transform="matrix(4.5 0 0 4.5 615 83.9)" color="#9400D3"/><use xlink:href="#g" transform="matrix(4.5 0 0 4.5 313.3 484)" color="#9400D3"/></g><text transform="translate(283.9 505.9)" stroke="none" fill="#000" font-family="Arial" font-size="12" text-anchor="end" color="#000"><tspan>score:p90mean</tspan></text><g fill="none" color="#000" stroke="currentColor"><path stroke="#009E73" d="M292.2 502h42.2M70.5 52.9l41.9 186.4 41.9 32.5 41.9 75.7L238 239.7l41.9-6L321.8 129l41.9 35.3 41.9 78.5 41.9-127.3 41.8-30.9 41.9 20.8 41.9 9.1L615 83.7"/><use xlink:href="#h" transform="matrix(4.5 0 0 4.5 70.5 52.9)" color="#009E73"/><use xlink:href="#h" transform="matrix(4.5 0 0 4.5 112.4 239.3)" color="#009E73"/><use xlink:href="#h" transform="matrix(4.5 0 0 4.5 154.3 271.8)" color="#009E73"/><use xlink:href="#h" transform="matrix(4.5 0 0 4.5 196.2 347.5)" color="#009E73"/><use xlink:href="#h" transform="matrix(4.5 0 0 4.5 238 239.7)" color="#009E73"/><use xlink:href="#h" transform="matrix(4.5 0 0 4.5 279.9 233.7)" color="#009E73"/><use xlink:href="#h" transform="matrix(4.5 0 0 4.5 321.8 129)" color="#009E73"/><use xlink:href="#h" transform="matrix(4.5 0 0 4.5 363.7 164.3)" color="#009E73"/><use xlink:href="#h" transform="matrix(4.5 0 0 4.5 405.6 242.8)" color="#009E73"/><use xlink:href="#h" transform="matrix(4.5 0 0 4.5 447.5 115.5)" color="#009E73"/><use xlink:href="#h" transform="matrix(4.5 0 0 4.5 489.3 84.6)" color="#009E73"/><use xlink:href="#h" transform="matrix(4.5 0 0 4.5 531.2 105.4)" color="#009E73"/><use xlink:href="#h" transform="matrix(4.5 0 0 4.5 573.1 114.5)" color="#009E73"/><use xlink:href="#h" transform="matrix(4.5 0 0 4.5 615 83.7)" color="#009E73"/><use xlink:href="#h" transform="matrix(4.5 0 0 4.5 313.3 502)" color="#009E73"/></g><text transform="translate(467.2 487.9)" stroke="none" fill="#000" font-family="Arial" font-size="12" text-anchor="end" color="#000"><tspan>score:p90median</tspan></text><g fill="none" color="#000" stroke="currentColor"><path stroke="#56B4E9" d="M475.5 484h42.2M70.5 52.9l41.9 174.9 41.9 12.2 41.9 167.2L238 283.7l41.9-41.9 41.9-157.6 41.9 80.1 41.9 119.3 41.9-168.1 41.8-30.9 41.9-.7 41.9 30.5L615 83.7"/><use xlink:href="#i" transform="matrix(4.5 0 0 4.5 70.5 52.9)" color="#56B4E9"/><use xlink:href="#i" transform="matrix(4.5 0 0 4.5 112.4 227.8)" color="#56B4E9"/><use xlink:href="#i" transform="matrix(4.5 0 0 4.5 154.3 240)" color="#56B4E9"/><use xlink:href="#i" transform="matrix(4.5 0 0 4.5 196.2 407.2)" color="#56B4E9"/><use xlink:href="#i" transform="matrix(4.5 0 0 4.5 238 283.7)" color="#56B4E9"/><use xlink:href="#i" transform="matrix(4.5 0 0 4.5 279.9 241.8)" color="#56B4E9"/><use xlink:href="#i" transform="matrix(4.5 0 0 4.5 321.8 84.2)" color="#56B4E9"/><use xlink:href="#i" transform="matrix(4.5 0 0 4.5 363.7 164.3)" color="#56B4E9"/><use xlink:href="#i" transform="matrix(4.5 0 0 4.5 405.6 283.6)" color="#56B4E9"/><use xlink:href="#i" transform="matrix(4.5 0 0 4.5 447.5 115.5)" color="#56B4E9"/><use xlink:href="#i" transform="matrix(4.5 0 0 4.5 489.3 84.6)" color="#56B4E9"/><use xlink:href="#i" transform="matrix(4.5 0 0 4.5 531.2 83.9)" color="#56B4E9"/><use xlink:href="#i" transform="matrix(4.5 0 0 4.5 573.1 114.4)" color="#56B4E9"/><use xlink:href="#i" transform="matrix(4.5 0 0 4.5 615 83.7)" color="#56B4E9"/><use xlink:href="#i" transform="matrix(4.5 0 0 4.5 496.6 484)" color="#56B4E9"/></g><g><text transform="translate(467.2 505.9)" stroke="none" fill="#000" font-family="Arial" font-size="12" text-anchor="end" color="#000"><tspan>score:p90max</tspan></text><g fill="none" color="#000" stroke="currentColor"><path stroke="#E69F00" d="M475.5 502h42.2M70.5 52.9l41.9 170.9 41.9 1.2 41.9 13.5 41.8-74.6 41.9.2 41.9-80.2 41.9 79.3 41.9.3 41.9-48.8 41.8-30.4 41.9-.7 41.9 30.2L615 83.5"/><use xlink:href="#d" transform="matrix(4.5 0 0 4.5 70.5 52.9)" color="#E69F00"/><use xlink:href="#d" transform="matrix(4.5 0 0 4.5 112.4 223.8)" color="#E69F00"/><use xlink:href="#d" transform="matrix(4.5 0 0 4.5 154.3 225)" color="#E69F00"/><use xlink:href="#d" transform="matrix(4.5 0 0 4.5 196.2 238.5)" color="#E69F00"/><use xlink:href="#d" transform="matrix(4.5 0 0 4.5 238 163.9)" color="#E69F00"/><use xlink:href="#d" transform="matrix(4.5 0 0 4.5 279.9 164.1)" color="#E69F00"/><use xlink:href="#d" transform="matrix(4.5 0 0 4.5 321.8 83.9)" color="#E69F00"/><use xlink:href="#d" transform="matrix(4.5 0 0 4.5 363.7 163.2)" color="#E69F00"/><use xlink:href="#d" transform="matrix(4.5 0 0 4.5 405.6 163.5)" color="#E69F00"/><use xlink:href="#d" transform="matrix(4.5 0 0 4.5 447.5 114.7)" color="#E69F00"/><use xlink:href="#d" transform="matrix(4.5 0 0 4.5 489.3 84.3)" color="#E69F00"/><use xlink:href="#d" transform="matrix(4.5 0 0 4.5 531.2 83.6)" color="#E69F00"/><use xlink:href="#d" transform="matrix(4.5 0 0 4.5 573.1 113.8)" color="#E69F00"/><use xlink:href="#d" transform="matrix(4.5 0 0 4.5 615 83.5)" color="#E69F00"/><use xlink:href="#d" transform="matrix(4.5 0 0 4.5 496.6 502)" color="#E69F00"/></g></g><g fill="none" color="#000" stroke="currentColor"><path stroke="#000" d="M70.5 18.1V448H615V18.1H70.5z"/></g></svg>