<svg width="640" height="520" xmlns="http://www.w3.org/2000/svg" xmlns:xlink="http://www.w3.org/1999/xlink"><path fill="#fff" d="M0 0h640v520H0z"/><defs><path id="g" stroke-width=".222" stroke="currentColor" d="M-1 0h2M0-1v2"/><path id="h" stroke-width=".222" stroke="currentColor" d="M-1-1l2 2m0-2l-2 2"/><path id="i" stroke-width=".222" stroke="currentColor" d="M-1 0h2M0-1v2m-1-2l2 2m-2 0l2-2"/><path id="d" stroke-width=".222" stroke="currentColor" d="M-1-1h2v2h-2z"/><path id="b" stroke-width=".222" stroke="currentColor" d="M0-1.33l-1.33 2h2.66z"/><path id="f" stroke-width=".222" stroke="currentColor" d="M0 1.33L1.265.411.782-1.067l-1.564-.009-.483 1.487z"/><use xlink:href="#b" id="c" stroke="currentColor" transform="rotate(180)"/><use xlink:href="#d" id="e" stroke="currentColor" transform="rotate(45)"/><circle id="a" stroke-width=".222" stroke="currentColor" cx="0" cy="0" r="1"/></defs><g fill="none" color="#000" stroke="currentColor"><path stroke="#000" d="M62.2 446.3h9m543.8 0h-9"/><text transform="translate(53.9 450.2)" stroke="none" fill="#000" font-family="Arial" font-size="12" text-anchor="end"><tspan>600</tspan></text></g><g fill="none" color="#000" stroke="currentColor"><path stroke="#000" d="M62.2 394h9m543.8 0h-9"/><text transform="translate(53.9 397.9)" stroke="none" fill="#000" font-family="Arial" font-size="12" text-anchor="end"><tspan>800</tspan></text></g><g fill="none" color="#000" stroke="currentColor"><path stroke="#000" d="M62.2 341.7h9m543.8 0h-9"/><text transform="translate(53.9 345.6)" stroke="none" fill="#000" font-family="Arial" font-size="12" text-anchor="end"><tspan>1000</tspan></text></g><g fill="none" color="#000" stroke="currentColor"><path stroke="#000" d="M62.2 289.4h9m543.8 0h-9"/><text transform="translate(53.9 293.3)" stroke="none" fill="#000" font-family="Arial" font-size="12" text-anchor="end"><tspan>1200</tspan></text></g><g fill="none" color="#000" stroke="currentColor"><path stroke="#000" d="M62.2 237.1h9m543.8 0h-9"/><text transform="translate(53.9 241)" stroke="none" fill="#000" font-family="Arial" font-size="12" text-anchor="end"><tspan>1400</tspan></text></g><g fill="none" color="#000" stroke="currentColor"><path stroke="#000" d="M62.2 184.8h9m543.8 0h-9"/><text transform="translate(53.9 188.7)" stroke="none" fill="#000" font-family="Arial" font-size="12" text-anchor="end"><tspan>1600</tspan></text></g><g fill="none" color="#000" stroke="currentColor"><path stroke="#000" d="M62.2 132.5h9m543.8 0h-9"/><text transform="translate(53.9 136.4)" stroke="none" fill="#000" font-family="Arial" font-size="12" text-anchor="end"><tspan>1800</tspan></text></g><g fill="none" color="#000" stroke="currentColor"><path stroke="#000" d="M62.2 80.2h9m543.8 0h-9"/><text transform="translate(53.9 84.1)" stroke="none" fill="#000" font-family="Arial" font-size="12" text-anchor="end"><tspan>2000</tspan></text></g><g fill="none" color="#000" stroke="currentColor"><path stroke="#000" d="M62.2 27.9h9m543.8 0h-9"/><text transform="translate(53.9 31.8)" stroke="none" fill="#000" font-family="Arial" font-size="12" text-anchor="end"><tspan>2200</tspan></text></g><g fill="none" color="#000" stroke="currentColor"><path stroke="#000" d="M62.2 448v-9m0-420.9v9"/><text transform="translate(62.2 469.9)" stroke="none" fill="#000" font-family="Arial" font-size="12" text-anchor="middle"><tspan>0</tspan></text></g><g fill="none" color="#000" stroke="currentColor"><path stroke="#000" d="M147.2 448v-9m0-420.9v9"/><text transform="translate(147.2 469.9)" stroke="none" fill="#000" font-family="Arial" font-size="12" text-anchor="middle"><tspan>2</tspan></text></g><g fill="none" color="#000" stroke="currentColor"><path stroke="#000" d="M232.3 448v-9m0-420.9v9"/><text transform="translate(232.3 469.9)" stroke="none" fill="#000" font-family="Arial" font-size="12" text-anchor="middle"><tspan>4</tspan></text></g><g fill="none" color="#000" stroke="currentColor"><path stroke="#000" d="M317.3 448v-9m0-420.9v9"/><text transform="translate(317.3 469.9)" stroke="none" fill="#000" font-family="Arial" font-size="12" text-anchor="middle"><tspan>6</tspan></text></g><g fill="none" color="#000" stroke="currentColor"><path stroke="#000" d="M402.4 448v-9m0-420.9v9"/><text transform="translate(402.4 469.9)" stroke="none" fill="#000" font-family="Arial" font-size="12" text-anchor="middle"><tspan>8</tspan></text></g><g fill="none" color="#000" stroke="currentColor"><path stroke="#000" d="M487.4 448v-9m0-420.9v9"/><text transform="translate(487.4 469.9)" stroke="none" fill="#000" font-family="Arial" font-size="12" text-anchor="middle"><tspan>10</tspan></text></g><g fill="none" color="#000" stroke="currentColor"><path stroke="#000" d="M572.5 448v-9m0-420.9v9"/><text transform="translate(572.5 469.9)" stroke="none" fill="#000" font-family="Arial" font-size="12" text-anchor="middle"><tspan>12</tspan></text></g><path stroke="#000" d="M62.2 18.1V448H615V18.1H62.2z" fill="none" color="#000"/><text transform="translate(179.8 487.9)" stroke="none" fill="#000" font-family="Arial" font-size="12" text-anchor="end" color="#000"><tspan>p90min</tspan></text><g fill="none" color="#000" stroke="currentColor"><path stroke="#9400D3" d="M188.1 484h42.2M62.2 439.7l42.5-345.1 42.5-.8 42.6-6.2 42.5 40.3 42.5-.2 42.5 80.6 42.6-80 42.5-.1 42.5 39.6 42.5 39.8 42.6 1.3 42.5-40.2L615 209"/><use xlink:href="#g" transform="matrix(4.5 0 0 4.5 62.2 439.7)" color="#9400D3"/><use xlink:href="#g" transform="matrix(4.5 0 0 4.5 104.7 94.6)" color="#9400D3"/><use xlink:href="#g" transform="matrix(4.5 0 0 4.5 147.2 93.8)" color="#9400D3"/><use xlink:href="#g" transform="matrix(4.5 0 0 4.5 189.8 87.6)" color="#9400D3"/><use xlink:href="#g" transform="matrix(4.5 0 0 4.5 232.3 127.9)" color="#9400D3"/><use xlink:href="#g" transform="matrix(4.5 0 0 4.5 274.8 127.7)" color="#9400D3"/><use xlink:href="#g" transform="matrix(4.5 0 0 4.5 317.3 208.3)" color="#9400D3"/><use xlink:href="#g" transform="matrix(4.5 0 0 4.5 359.9 128.3)" color="#9400D3"/><use xlink:href="#g" transform="matrix(4.5 0 0 4.5 402.4 128.2)" color="#9400D3"/><use xlink:href="#g" transform="matrix(4.5 0 0 4.5 444.9 167.8)" color="#9400D3"/><use xlink:href="#g" transform="matrix(4.5 0 0 4.5 487.4 207.6)" color="#9400D3"/><use xlink:href="#g" transform="matrix(4.5 0 0 4.5 530 208.9)" color="#9400D3"/><use xlink:href="#g" transform="matrix(4.5 0 0 4.5 572.5 168.7)" color="#9400D3"/><use xlink:href="#g" transform="matrix(4.5 0 0 4.5 615 209)" color="#9400D3"/><use xlink:href="#g" transform="matrix(4.5 0 0 4.5 209.2 484)" color="#9400D3"/></g><text transform="translate(179.8 505.9)" stroke="none" fill="#000" font-family="Arial" font-size="12" text-anchor="end" color="#000"><tspan>p90mean</tspan></text><g fill="none" color="#000" stroke="currentColor"><path stroke="#009E73" d="M188.1 502h42.2M62.2 439l42.5-348.4 42.5-15 42.6-26.8 42.5 41.4 42.5 3 42.5 82.1 42.6-47.7 42.5-39.2 42.5 78.6 42.5 40.1 42.6-14.9 42.5-24.1 42.5 40.5"/><use xlink:href="#h" transform="matrix(4.5 0 0 4.5 62.2 439)" color="#009E73"/><use xlink:href="#h" transform="matrix(4.5 0 0 4.5 104.7 90.6)" color="#009E73"/><use xlink:href="#h" transform="matrix(4.5 0 0 4.5 147.2 75.6)" color="#009E73"/><use xlink:href="#h" transform="matrix(4.5 0 0 4.5 189.8 48.8)" color="#009E73"/><use xlink:href="#h" transform="matrix(4.5 0 0 4.5 232.3 90.2)" color="#009E73"/><use xlink:href="#h" transform="matrix(4.5 0 0 4.5 274.8 93.2)" color="#009E73"/><use xlink:href="#h" transform="matrix(4.5 0 0 4.5 317.3 175.3)" color="#009E73"/><use xlink:href="#h" transform="matrix(4.5 0 0 4.5 359.9 127.6)" color="#009E73"/><use xlink:href="#h" transform="matrix(4.5 0 0 4.5 402.4 88.4)" color="#009E73"/><use xlink:href="#h" transform="matrix(4.5 0 0 4.5 444.9 167)" color="#009E73"/><use xlink:href="#h" transform="matrix(4.5 0 0 4.5 487.4 207.1)" color="#009E73"/><use xlink:href="#h" transform="matrix(4.5 0 0 4.5 530 192.2)" color="#009E73"/><use xlink:href="#h" transform="matrix(4.5 0 0 4.5 572.5 168.1)" color="#009E73"/><use xlink:href="#h" transform="matrix(4.5 0 0 4.5 615 208.6)" color="#009E73"/><use xlink:href="#h" transform="matrix(4.5 0 0 4.5 209.2 502)" color="#009E73"/></g><text transform="translate(379.7 487.9)" stroke="none" fill="#000" font-family="Arial" font-size="12" text-anchor="end" color="#000"><tspan>p90median</tspan></text><g fill="none" color="#000" stroke="currentColor"><path stroke="#56B4E9" d="M388 484h42.2m-368-45.1l42.5-346.1 42.5-5.9 42.6-58.8 42.5 40.6 42.5 17.4 42.5 121.6 42.6-80.1 42.5-58.8 42.5 98.2 42.5 40.1 42.6 1.2 42.5-40.2 42.5 40.5"/><use xlink:href="#i" transform="matrix(4.5 0 0 4.5 62.2 438.9)" color="#56B4E9"/><use xlink:href="#i" transform="matrix(4.5 0 0 4.5 104.7 92.8)" color="#56B4E9"/><use xlink:href="#i" transform="matrix(4.5 0 0 4.5 147.2 86.9)" color="#56B4E9"/><use xlink:href="#i" transform="matrix(4.5 0 0 4.5 189.8 28.1)" color="#56B4E9"/><use xlink:href="#i" transform="matrix(4.5 0 0 4.5 232.3 68.7)" color="#56B4E9"/><use xlink:href="#i" transform="matrix(4.5 0 0 4.5 274.8 86.1)" color="#56B4E9"/><use xlink:href="#i" transform="matrix(4.5 0 0 4.5 317.3 207.7)" color="#56B4E9"/><use xlink:href="#i" transform="matrix(4.5 0 0 4.5 359.9 127.6)" color="#56B4E9"/><use xlink:href="#i" transform="matrix(4.5 0 0 4.5 402.4 68.8)" color="#56B4E9"/><use xlink:href="#i" transform="matrix(4.5 0 0 4.5 444.9 167)" color="#56B4E9"/><use xlink:href="#i" transform="matrix(4.5 0 0 4.5 487.4 207.1)" color="#56B4E9"/><use xlink:href="#i" transform="matrix(4.5 0 0 4.5 530 208.3)" color="#56B4E9"/><use xlink:href="#i" transform="matrix(4.5 0 0 4.5 572.5 168.1)" color="#56B4E9"/><use xlink:href="#i" transform="matrix(4.5 0 0 4.5 615 208.6)" color="#56B4E9"/><use xlink:href="#i" transform="matrix(4.5 0 0 4.5 409.1 484)" color="#56B4E9"/></g><text transform="translate(379.7 505.9)" stroke="none" fill="#000" font-family="Arial" font-size="12" text-anchor="end" color="#000"><tspan>p90max</tspan></text><g fill="none" color="#000" stroke="currentColor"><path stroke="#E69F00" d="M388 502h42.2m-368-63.9l42.5-376 42.5-35.7 42.6.1 42.5 39.4 42.5.1 42.5-17.6 42.6 78L402.4 67l42.5 99.4 42.5 39.7L530 49.5l42.5 117.8 42.5 41"/><use xlink:href="#d" transform="matrix(4.5 0 0 4.5 62.2 438.1)" color="#E69F00"/><use xlink:href="#d" transform="matrix(4.5 0 0 4.5 104.7 62.1)" color="#E69F00"/><use xlink:href="#d" transform="matrix(4.5 0 0 4.5 147.2 26.4)" color="#E69F00"/><use xlink:href="#d" transform="matrix(4.5 0 0 4.5 189.8 26.5)" color="#E69F00"/><use xlink:href="#d" transform="matrix(4.5 0 0 4.5 232.3 65.9)" color="#E69F00"/><use xlink:href="#d" transform="matrix(4.5 0 0 4.5 274.8 66)" color="#E69F00"/><use xlink:href="#d" transform="matrix(4.5 0 0 4.5 317.3 48.4)" color="#E69F00"/><use xlink:href="#d" transform="matrix(4.5 0 0 4.5 359.9 126.4)" color="#E69F00"/><use xlink:href="#d" transform="matrix(4.5 0 0 4.5 402.4 67)" color="#E69F00"/><use xlink:href="#d" transform="matrix(4.5 0 0 4.5 444.9 166.4)" color="#E69F00"/><use xlink:href="#d" transform="matrix(4.5 0 0 4.5 487.4 206.1)" color="#E69F00"/><use xlink:href="#d" transform="matrix(4.5 0 0 4.5 530 49.5)" color="#E69F00"/><use xlink:href="#d" transform="matrix(4.5 0 0 4.5 572.5 167.3)" color="#E69F00"/><use xlink:href="#d" transform="matrix(4.5 0 0 4.5 615 208.3)" color="#E69F00"/><use xlink:href="#d" transform="matrix(4.5 0 0 4.5 409.1 502)" color="#E69F00"/></g><g><text transform="translate(579.6 487.9)" stroke="none" fill="#000" font-family="Arial" font-size="12" text-anchor="end" color="#000"><tspan>score p10=3572</tspan></text><path stroke="#F0E442" d="M587.9 484h42.2" fill="none" color="#000"/></g><g><text transform="translate(579.6 505.9)" stroke="none" fill="#000" font-family="Arial" font-size="12" text-anchor="end" color="#000"><tspan>score median=6500</tspan></text><path stroke="#0072B2" d="M587.9 502h42.2" fill="none" color="#000"/></g><g fill="none" color="#000" stroke="currentColor"><path stroke="#000" d="M62.2 18.1V448H615V18.1H62.2z"/></g></svg>