<svg width="640" height="500" xmlns="http://www.w3.org/2000/svg" xmlns:xlink="http://www.w3.org/1999/xlink"><path fill="#fff" d="M0 0h640v500H0z"/><defs><path id="d" stroke-width=".222" stroke="currentColor" d="M-1-1h2v2h-2z"/><path id="b" stroke-width=".222" stroke="currentColor" d="M0-1.33l-1.33 2h2.66z"/><path id="f" stroke-width=".222" stroke="currentColor" d="M0 1.33L1.265.411.782-1.067l-1.564-.009-.483 1.487z"/><use xlink:href="#b" id="c" stroke="currentColor" transform="rotate(180)"/><use xlink:href="#d" id="e" stroke="currentColor" transform="rotate(45)"/><circle id="a" stroke-width=".222" stroke="currentColor" cx="0" cy="0" r="1"/></defs><g fill="none" color="#000" stroke="currentColor"><path stroke="#000" d="M70.5 406.1h9m535.5 0h-9"/><text transform="translate(62.2 410)" stroke="none" fill="#000" font-family="Arial" font-size="12" text-anchor="end"><tspan>11000</tspan></text></g><g fill="none" color="#000" stroke="currentColor"><path stroke="#000" d="M70.5 361.6h9m535.5 0h-9"/><text transform="translate(62.2 365.5)" stroke="none" fill="#000" font-family="Arial" font-size="12" text-anchor="end"><tspan>11200</tspan></text></g><g fill="none" color="#000" stroke="currentColor"><path stroke="#000" d="M70.5 317h9m535.5 0h-9"/><text transform="translate(62.2 320.9)" stroke="none" fill="#000" font-family="Arial" font-size="12" text-anchor="end"><tspan>11400</tspan></text></g><g fill="none" color="#000" stroke="currentColor"><path stroke="#000" d="M70.5 272.5h9m535.5 0h-9"/><text transform="translate(62.2 276.4)" stroke="none" fill="#000" font-family="Arial" font-size="12" text-anchor="end"><tspan>11600</tspan></text></g><g fill="none" color="#000" stroke="currentColor"><path stroke="#000" d="M70.5 227.9h9m535.5 0h-9"/><text transform="translate(62.2 231.8)" stroke="none" fill="#000" font-family="Arial" font-size="12" text-anchor="end"><tspan>11800</tspan></text></g><g fill="none" color="#000" stroke="currentColor"><path stroke="#000" d="M70.5 183.3h9m535.5 0h-9"/><text transform="translate(62.2 187.2)" stroke="none" fill="#000" font-family="Arial" font-size="12" text-anchor="end"><tspan>12000</tspan></text></g><g fill="none" color="#000" stroke="currentColor"><path stroke="#000" d="M70.5 138.8h9m535.5 0h-9"/><text transform="translate(62.2 142.7)" stroke="none" fill="#000" font-family="Arial" font-size="12" text-anchor="end"><tspan>12200</tspan></text></g><g fill="none" color="#000" stroke="currentColor"><path stroke="#000" d="M70.5 94.2h9m535.5 0h-9"/><text transform="translate(62.2 98.1)" stroke="none" fill="#000" font-family="Arial" font-size="12" text-anchor="end"><tspan>12400</tspan></text></g><g fill="none" color="#000" stroke="currentColor"><path stroke="#000" d="M70.5 49.7h9m535.5 0h-9"/><text transform="translate(62.2 53.6)" stroke="none" fill="#000" font-family="Arial" font-size="12" text-anchor="end"><tspan>12600</tspan></text></g><g fill="none" color="#000" stroke="currentColor"><path stroke="#000" d="M70.5 428v-9m0-400.9v9"/><text transform="translate(70.5 449.9)" stroke="none" fill="#000" font-family="Arial" font-size="12" text-anchor="middle"><tspan>0</tspan></text></g><g fill="none" color="#000" stroke="currentColor"><path stroke="#000" d="M125.5 428v-9m0-400.9v9"/><text transform="translate(125.5 449.9)" stroke="none" fill="#000" font-family="Arial" font-size="12" text-anchor="middle"><tspan>10</tspan></text></g><g fill="none" color="#000" stroke="currentColor"><path stroke="#000" d="M180.5 428v-9m0-400.9v9"/><text transform="translate(180.5 449.9)" stroke="none" fill="#000" font-family="Arial" font-size="12" text-anchor="middle"><tspan>20</tspan></text></g><g fill="none" color="#000" stroke="currentColor"><path stroke="#000" d="M235.5 428v-9m0-400.9v9"/><text transform="translate(235.5 449.9)" stroke="none" fill="#000" font-family="Arial" font-size="12" text-anchor="middle"><tspan>30</tspan></text></g><g fill="none" color="#000" stroke="currentColor"><path stroke="#000" d="M290.5 428v-9m0-400.9v9"/><text transform="translate(290.5 449.9)" stroke="none" fill="#000" font-family="Arial" font-size="12" text-anchor="middle"><tspan>40</tspan></text></g><g fill="none" color="#000" stroke="currentColor"><path stroke="#000" d="M345.5 428v-9m0-400.9v9"/><text transform="translate(345.5 449.9)" stroke="none" fill="#000" font-family="Arial" font-size="12" text-anchor="middle"><tspan>50</tspan></text></g><g fill="none" color="#000" stroke="currentColor"><path stroke="#000" d="M400.5 428v-9m0-400.9v9"/><text transform="translate(400.5 449.9)" stroke="none" fill="#000" font-family="Arial" font-size="12" text-anchor="middle"><tspan>60</tspan></text></g><g fill="none" color="#000" stroke="currentColor"><path stroke="#000" d="M455.5 428v-9m0-400.9v9"/><text transform="translate(455.5 449.9)" stroke="none" fill="#000" font-family="Arial" font-size="12" text-anchor="middle"><tspan>70</tspan></text></g><g fill="none" color="#000" stroke="currentColor"><path stroke="#000" d="M510.5 428v-9m0-400.9v9"/><text transform="translate(510.5 449.9)" stroke="none" fill="#000" font-family="Arial" font-size="12" text-anchor="middle"><tspan>80</tspan></text></g><g fill="none" color="#000" stroke="currentColor"><path stroke="#000" d="M565.5 428v-9m0-400.9v9"/><text transform="translate(565.5 449.9)" stroke="none" fill="#000" font-family="Arial" font-size="12" text-anchor="middle"><tspan>90</tspan></text></g><path stroke="#000" d="M70.5 18.1V428H615V18.1H70.5z" fill="none" color="#000"/><text transform="translate(283.9 467.9)" stroke="none" fill="#000" font-family="Arial" font-size="12" text-anchor="end" color="#000"><tspan>pages</tspan></text><path stroke="#9400D3" d="M292.2 464h42.2M70.5 318.9l5.5-26.7 5.5-.2 5.5-.6 5.5-6.4 5.5-5.3 5.5-.6 5.5-.4 5.5-.3 5.5-.5 5.5-.9 5.5-.1 5.5-.2 5.5-.2 5.5-.2 5.5-.4 5.5-.3 5.5-.6 5.5-1.2 5.5-.2 5.5-3.2 5.5-7 5.5-.5 5.5-.4 5.5-.1 5.5-.3 5.5-.4 5.5-.1 5.5-.3 5.5-.1 5.5-.2 5.5-.1h5.5l5.5-.2 5.5-.2 5.5-.4 5.5-.3 5.5-.3 5.5-.1 5.5-.1 5.5-.2h5.5l5.5-.1 5.5-.2 5.5-.2 5.5-.4 5.5-.2 5.5-.1 5.5-.2 5.5-.1h5.5l5.5-.3 5.5-.3 5.5-.1 5.5-.1h5.5l5.5-.2 5.5-.5 5.5-.1 5.5-.2 5.5-.2 5.5-.2 5.5-1 5.5-3.5 5.5-.1 5.5-.9 5.5-1.9 5.5-1.1 5.5-1 5.5-.1 5.5-1 5.5-.7 5.5-.6 5.5-.2 5.5-.2 5.5-.3 5.5-.4 5.5-.6 5.5-.9 5.5-.3 5.5-.1h11l5.5-.3 5.5-.2 5.5-1.5h5.5l5.5-3.1 5.5-.6 5.5-1 5.5-.9 5.5-2.9 5.5-2.3 5.5-.8 5.5-5.7 5.5-4.8 5.5-2.2 5.5-1.2 5.5-50.1L615 26" fill="none" color="#000"/><text transform="translate(283.9 485.9)" stroke="none" fill="#000" font-family="Arial" font-size="12" text-anchor="end" color="#000"><tspan>pages+cached</tspan></text><path stroke="#009E73" d="M292.2 482h42.2M70.5 420.1l5.5-.8 5.5-.1h11l5.5-.1 5.5-.1 5.5-.2 5.5-.2 5.5-.4h22l5.5-.1h11l5.5-.2h5.5l5.5-.1h11l5.5-.1 5.5-.1 5.5-.1 5.5-.1 5.5-.1h11l5.5-.1h11l5.5-.1h5.5l5.5-.1 5.5-.3h11l5.5-.1 5.5-.1 5.5-.3 5.5-.1h5.5l5.5-.2 5.5-.2h5.5l5.5-.1 5.5-.4 5.5-.1 5.5-.5h11l5.5-.2 5.5-.2 5.5-.1 5.5-.2h5.5l5.5-.5h16.5l5.5-.1h5.5l5.5-.2 5.5-.1 5.5-.1 5.5-.1 5.5-.3 5.5-.1h11l5.5-.2 5.5-.2 5.5-.1h5.5l5.5-.2 5.5-.1H505l5.5-.2h5.5l5.5-.1 5.5-.1 5.5-.1 5.5-.2h5.5l5.5-.1h5.5l5.5-.4h5.5l5.5-.1 5.5-.6 5.5-1.3 5.5-2.3 5.5-.4 5.5-.1 5.5-3.4 5.5-1.9 5.5-105.4" fill="none" color="#000"/><text transform="translate(483.8 467.9)" stroke="none" fill="#000" font-family="Arial" font-size="12" text-anchor="end" color="#000"><tspan>score p10=3785</tspan></text><path stroke="#56B4E9" d="M492.1 464h42.2" fill="none" color="#000"/><g><text transform="translate(483.8 485.9)" stroke="none" fill="#000" font-family="Arial" font-size="12" text-anchor="end" color="#000"><tspan>score median=7300</tspan></text><path stroke="#E69F00" d="M492.1 482h42.2" fill="none" color="#000"/></g><g fill="none" color="#000" stroke="currentColor"><path stroke="#000" d="M70.5 18.1V428H615V18.1H70.5z"/></g></svg>