<svg width="640" height="500" xmlns="http://www.w3.org/2000/svg" xmlns:xlink="http://www.w3.org/1999/xlink"><path fill="#fff" d="M0 0h640v500H0z"/><defs><path id="d" stroke-width=".222" stroke="currentColor" d="M-1-1h2v2h-2z"/><path id="b" stroke-width=".222" stroke="currentColor" d="M0-1.33l-1.33 2h2.66z"/><path id="f" stroke-width=".222" stroke="currentColor" d="M0 1.33L1.265.411.782-1.067l-1.564-.009-.483 1.487z"/><use xlink:href="#b" id="c" stroke="currentColor" transform="rotate(180)"/><use xlink:href="#d" id="e" stroke="currentColor" transform="rotate(45)"/><circle id="a" stroke-width=".222" stroke="currentColor" cx="0" cy="0" r="1"/></defs><g fill="none" color="#000" stroke="currentColor"><path stroke="#000" d="M62.2 386.7h9m543.8 0h-9"/><text transform="translate(53.9 390.6)" stroke="none" fill="#000" font-family="Arial" font-size="12" text-anchor="end"><tspan>1850</tspan></text></g><g fill="none" color="#000" stroke="currentColor"><path stroke="#000" d="M62.2 339.5h9m543.8 0h-9"/><text transform="translate(53.9 343.4)" stroke="none" fill="#000" font-family="Arial" font-size="12" text-anchor="end"><tspan>1900</tspan></text></g><g fill="none" color="#000" stroke="currentColor"><path stroke="#000" d="M62.2 292.3h9m543.8 0h-9"/><text transform="translate(53.9 296.2)" stroke="none" fill="#000" font-family="Arial" font-size="12" text-anchor="end"><tspan>1950</tspan></text></g><g fill="none" color="#000" stroke="currentColor"><path stroke="#000" d="M62.2 245.1h9m543.8 0h-9"/><text transform="translate(53.9 249)" stroke="none" fill="#000" font-family="Arial" font-size="12" text-anchor="end"><tspan>2000</tspan></text></g><g fill="none" color="#000" stroke="currentColor"><path stroke="#000" d="M62.2 197.8h9m543.8 0h-9"/><text transform="translate(53.9 201.7)" stroke="none" fill="#000" font-family="Arial" font-size="12" text-anchor="end"><tspan>2050</tspan></text></g><g fill="none" color="#000" stroke="currentColor"><path stroke="#000" d="M62.2 150.6h9m543.8 0h-9"/><text transform="translate(53.9 154.5)" stroke="none" fill="#000" font-family="Arial" font-size="12" text-anchor="end"><tspan>2100</tspan></text></g><g fill="none" color="#000" stroke="currentColor"><path stroke="#000" d="M62.2 103.4h9m543.8 0h-9"/><text transform="translate(53.9 107.3)" stroke="none" fill="#000" font-family="Arial" font-size="12" text-anchor="end"><tspan>2150</tspan></text></g><g fill="none" color="#000" stroke="currentColor"><path stroke="#000" d="M62.2 56.1h9m543.8 0h-9"/><text transform="translate(53.9 60)" stroke="none" fill="#000" font-family="Arial" font-size="12" text-anchor="end"><tspan>2200</tspan></text></g><g fill="none" color="#000" stroke="currentColor"><path stroke="#000" d="M62.2 428v-9m0-400.9v9"/><text transform="translate(62.2 449.9)" stroke="none" fill="#000" font-family="Arial" font-size="12" text-anchor="middle"><tspan>0</tspan></text></g><g fill="none" color="#000" stroke="currentColor"><path stroke="#000" d="M118 428v-9m0-400.9v9"/><text transform="translate(118 449.9)" stroke="none" fill="#000" font-family="Arial" font-size="12" text-anchor="middle"><tspan>10</tspan></text></g><g fill="none" color="#000" stroke="currentColor"><path stroke="#000" d="M173.9 428v-9m0-400.9v9"/><text transform="translate(173.9 449.9)" stroke="none" fill="#000" font-family="Arial" font-size="12" text-anchor="middle"><tspan>20</tspan></text></g><g fill="none" color="#000" stroke="currentColor"><path stroke="#000" d="M229.7 428v-9m0-400.9v9"/><text transform="translate(229.7 449.9)" stroke="none" fill="#000" font-family="Arial" font-size="12" text-anchor="middle"><tspan>30</tspan></text></g><g fill="none" color="#000" stroke="currentColor"><path stroke="#000" d="M285.6 428v-9m0-400.9v9"/><text transform="translate(285.6 449.9)" stroke="none" fill="#000" font-family="Arial" font-size="12" text-anchor="middle"><tspan>40</tspan></text></g><g fill="none" color="#000" stroke="currentColor"><path stroke="#000" d="M341.4 428v-9m0-400.9v9"/><text transform="translate(341.4 449.9)" stroke="none" fill="#000" font-family="Arial" font-size="12" text-anchor="middle"><tspan>50</tspan></text></g><g fill="none" color="#000" stroke="currentColor"><path stroke="#000" d="M397.2 428v-9m0-400.9v9"/><text transform="translate(397.2 449.9)" stroke="none" fill="#000" font-family="Arial" font-size="12" text-anchor="middle"><tspan>60</tspan></text></g><g fill="none" color="#000" stroke="currentColor"><path stroke="#000" d="M453.1 428v-9m0-400.9v9"/><text transform="translate(453.1 449.9)" stroke="none" fill="#000" font-family="Arial" font-size="12" text-anchor="middle"><tspan>70</tspan></text></g><g fill="none" color="#000" stroke="currentColor"><path stroke="#000" d="M508.9 428v-9m0-400.9v9"/><text transform="translate(508.9 449.9)" stroke="none" fill="#000" font-family="Arial" font-size="12" text-anchor="middle"><tspan>80</tspan></text></g><g fill="none" color="#000" stroke="currentColor"><path stroke="#000" d="M564.7 428v-9m0-400.9v9"/><text transform="translate(564.7 449.9)" stroke="none" fill="#000" font-family="Arial" font-size="12" text-anchor="middle"><tspan>90</tspan></text></g><path stroke="#000" d="M62.2 18.1V428H615V18.1H62.2z" fill="none" color="#000"/><text transform="translate(279.8 467.9)" stroke="none" fill="#000" font-family="Arial" font-size="12" text-anchor="end" color="#000"><tspan>pages+cached+noexternal+nosvg</tspan></text><path stroke="#9400D3" d="M288.1 464h42.2M62.2 419.8l5.6-.7 5.6-.2 5.6-.2h11.1l5.6-.1h5.6l5.6-.1 5.6-.1 5.5-.2 5.6-.1h5.6l5.6-.1 5.6-.1h16.7l5.6-.1h5.6l5.6-.1 5.6-.1H201.8l5.6-.2h5.6l5.5-.2 5.6-.1 5.6-.2 5.6-.1h5.6l5.6-.1h16.7l5.6-.1 5.6-.1h11.2l5.5-.2h11.2l5.6-.1h16.7l5.6-.2 5.6-.1h5.6l5.6-.1h11.1l5.6-.1 5.6-.1h11.2l5.6-.1 5.5-.1h11.2l5.6-.1H430.7l5.6-.1h5.6l5.6-.1h5.6l5.6-.1 5.5-.1 5.6-.1H481l5.6-.1 5.6-.1h11.1l5.6-.1 5.6-.1h5.6l5.6-.2 5.5-.3 5.6-.4H548l5.6-.1 5.6-.3 5.5-.8 5.6-.2 5.6-.4 5.6-208.2 5.6-3.2 5.6-.9h5.5l5.6-2.9 5.6-1.4L615 26" fill="none" color="#000"/><text transform="translate(279.8 485.9)" stroke="none" fill="#000" font-family="Arial" font-size="12" text-anchor="end" color="#000"><tspan>pages+cached+noexternal+noimg</tspan></text><path stroke="#009E73" d="M288.1 482h42.2M62.2 420.1h5.6l5.6-.2 5.6-.2 5.5-.5 5.6-.1 5.6-.1 5.6-.3 5.6-.2 5.6-.3 5.5-.2 5.6-.2H140.4l5.6-.3 5.5-.1h5.6l5.6-.1 5.6-.1 5.6-.2 5.6-.1h5.5l5.6-.1 5.6-.2 5.6-.1h5.6l5.6-.2 5.5-.1h5.6l5.6-.1h5.6l5.6-.4 5.6-.2 5.6-1 5.5-138.3 5.6-.6 5.6-1.1 5.6-.9 5.6-.1 5.6-.2 5.5-.6 5.6-.1 5.6-.8 5.6-.6 5.6-.1 5.6-.1h5.5l5.6-1.1h5.6l5.6-63.4 5.6-1.1 5.6-.5 5.5-.9 5.6-.3 5.6-.2 5.6-.2 5.6-.1h5.6l5.5-.1 5.6-.3 5.6-.4 5.6-.1 5.6-.4h11.1l5.6-.1h11.2l5.6-.2 5.6-.1 5.6-.1 5.5-.1 5.6-.1H481l5.6-.2 5.6-.2h11.1l5.6-.1 5.6-.1h5.6l5.6-.2h5.5l5.6-.1 5.6-.1h5.6l5.6-.1 5.6-.1 5.5-.3 5.6-.3h5.6l5.6-.1 5.6-.2 5.6-.1h5.5l5.6-.6 5.6-.7 5.6-.5" fill="none" color="#000"/><text transform="translate(579.3 467.9)" stroke="none" fill="#000" font-family="Arial" font-size="12" text-anchor="end" color="#000"><tspan>score p10=3785</tspan></text><path stroke="#56B4E9" d="M587.6 464h42.2" fill="none" color="#000"/><g><text transform="translate(579.3 485.9)" stroke="none" fill="#000" font-family="Arial" font-size="12" text-anchor="end" color="#000"><tspan>score median=7300</tspan></text><path stroke="#E69F00" d="M587.6 482h42.2" fill="none" color="#000"/></g><g fill="none" color="#000" stroke="currentColor"><path stroke="#000" d="M62.2 18.1V428H615V18.1H62.2z"/></g></svg>