<svg width="640" height="620" xmlns="http://www.w3.org/2000/svg" xmlns:xlink="http://www.w3.org/1999/xlink"><path fill="#fff" d="M0 0h640v620H0z"/><defs><path id="d" stroke-width=".222" stroke="currentColor" d="M-1-1h2v2h-2z"/><path id="b" stroke-width=".222" stroke="currentColor" d="M0-1.33l-1.33 2h2.66z"/><path id="f" stroke-width=".222" stroke="currentColor" d="M0 1.33L1.265.411.782-1.067l-1.564-.009-.483 1.487z"/><use xlink:href="#b" id="c" stroke="currentColor" transform="rotate(180)"/><use xlink:href="#d" id="e" stroke="currentColor" transform="rotate(45)"/><circle id="a" stroke-width=".222" stroke="currentColor" cx="0" cy="0" r="1"/></defs><g fill="none" color="#000" stroke="currentColor"><path stroke="#000" d="M70.5 260.2h9m535.5 0h-9"/><text transform="translate(62.2 264.1)" stroke="none" fill="#000" font-family="Arial" font-size="12" text-anchor="end"><tspan>2000</tspan></text></g><g fill="none" color="#000" stroke="currentColor"><path stroke="#000" d="M70.5 216h9m535.5 0h-9"/><text transform="translate(62.2 219.9)" stroke="none" fill="#000" font-family="Arial" font-size="12" text-anchor="end"><tspan>4000</tspan></text></g><g fill="none" color="#000" stroke="currentColor"><path stroke="#000" d="M70.5 171.8h9m535.5 0h-9"/><text transform="translate(62.2 175.7)" stroke="none" fill="#000" font-family="Arial" font-size="12" text-anchor="end"><tspan>6000</tspan></text></g><g fill="none" color="#000" stroke="currentColor"><path stroke="#000" d="M70.5 127.5h9m535.5 0h-9"/><text transform="translate(62.2 131.4)" stroke="none" fill="#000" font-family="Arial" font-size="12" text-anchor="end"><tspan>8000</tspan></text></g><g fill="none" color="#000" stroke="currentColor"><path stroke="#000" d="M70.5 83.3h9m535.5 0h-9"/><text transform="translate(62.2 87.2)" stroke="none" fill="#000" font-family="Arial" font-size="12" text-anchor="end"><tspan>10000</tspan></text></g><g fill="none" color="#000" stroke="currentColor"><path stroke="#000" d="M70.5 39.1h9m535.5 0h-9"/><text transform="translate(62.2 43)" stroke="none" fill="#000" font-family="Arial" font-size="12" text-anchor="end"><tspan>12000</tspan></text></g><g fill="none" color="#000" stroke="currentColor"><path stroke="#000" d="M70.5 296v-9m0-268.9v9"/><text transform="translate(70.5 317.9)" stroke="none" fill="#000" font-family="Arial" font-size="12" text-anchor="middle"><tspan>0</tspan></text></g><g fill="none" color="#000" stroke="currentColor"><path stroke="#000" d="M125.5 296v-9m0-268.9v9"/><text transform="translate(125.5 317.9)" stroke="none" fill="#000" font-family="Arial" font-size="12" text-anchor="middle"><tspan>10</tspan></text></g><g fill="none" color="#000" stroke="currentColor"><path stroke="#000" d="M180.5 296v-9m0-268.9v9"/><text transform="translate(180.5 317.9)" stroke="none" fill="#000" font-family="Arial" font-size="12" text-anchor="middle"><tspan>20</tspan></text></g><g fill="none" color="#000" stroke="currentColor"><path stroke="#000" d="M235.5 296v-9m0-268.9v9"/><text transform="translate(235.5 317.9)" stroke="none" fill="#000" font-family="Arial" font-size="12" text-anchor="middle"><tspan>30</tspan></text></g><g fill="none" color="#000" stroke="currentColor"><path stroke="#000" d="M290.5 296v-9m0-268.9v9"/><text transform="translate(290.5 317.9)" stroke="none" fill="#000" font-family="Arial" font-size="12" text-anchor="middle"><tspan>40</tspan></text></g><g fill="none" color="#000" stroke="currentColor"><path stroke="#000" d="M345.5 296v-9m0-268.9v9"/><text transform="translate(345.5 317.9)" stroke="none" fill="#000" font-family="Arial" font-size="12" text-anchor="middle"><tspan>50</tspan></text></g><g fill="none" color="#000" stroke="currentColor"><path stroke="#000" d="M400.5 296v-9m0-268.9v9"/><text transform="translate(400.5 317.9)" stroke="none" fill="#000" font-family="Arial" font-size="12" text-anchor="middle"><tspan>60</tspan></text></g><g fill="none" color="#000" stroke="currentColor"><path stroke="#000" d="M455.5 296v-9m0-268.9v9"/><text transform="translate(455.5 317.9)" stroke="none" fill="#000" font-family="Arial" font-size="12" text-anchor="middle"><tspan>70</tspan></text></g><g fill="none" color="#000" stroke="currentColor"><path stroke="#000" d="M510.5 296v-9m0-268.9v9"/><text transform="translate(510.5 317.9)" stroke="none" fill="#000" font-family="Arial" font-size="12" text-anchor="middle"><tspan>80</tspan></text></g><g fill="none" color="#000" stroke="currentColor"><path stroke="#000" d="M565.5 296v-9m0-268.9v9"/><text transform="translate(565.5 317.9)" stroke="none" fill="#000" font-family="Arial" font-size="12" text-anchor="middle"><tspan>90</tspan></text></g><path stroke="#000" d="M70.5 18.1V296H615V18.1H70.5z" fill="none" color="#000"/><text transform="translate(537.4 335.9)" stroke="none" fill="#000" font-family="Arial" font-size="12" text-anchor="end" color="#000"><tspan>empty</tspan></text><path stroke="#9400D3" d="M545.7 332h42.2M70.5 290.7H98l5.5-.1h429l5.5-.1h66l5.5-.1h5.5" fill="none" color="#000"/><text transform="translate(537.4 353.9)" stroke="none" fill="#000" font-family="Arial" font-size="12" text-anchor="end" color="#000"><tspan>pages</tspan></text><path stroke="#009E73" d="M545.7 350h42.2M70.5 52.5l5.5-2.6h5.5l5.5-.1 5.5-.6 5.5-.6h5.5l5.5-.1h11l5.5-.1h5.5l5.5-.1H153l5.5-.1h5.5l5.5-.2h5.5l5.5-.3 5.5-.7h5.5l5.5-.1h11l5.5-.1h33l5.5-.1h16.5l5.5-.1h33l5.5-.1H329l5.5-.1H373l5.5-.1H395l5.5-.1h5.5l5.5-.1 5.5-.3h5.5l5.5-.1 5.5-.2 5.5-.1 5.5-.1h5.5l5.5-.1 5.5-.1 5.5-.1H483l5.5-.1h5.5l5.5-.1h5.5l5.5-.1h22l5.5-.2h5.5l5.5-.3h5.5l5.5-.1 5.5-.1 5.5-.3 5.5-.2 5.5-.1 5.5-.6 5.5-.5 5.5-.2 5.5-.1 5.5-5 5.5-13.6" fill="none" color="#000"/><text transform="translate(537.4 371.9)" stroke="none" fill="#000" font-family="Arial" font-size="12" text-anchor="end" color="#000"><tspan>pages+cached</tspan></text><path stroke="#56B4E9" d="M545.7 368h42.2M70.5 62.6l5.5-.1h33l5.5-.1H175l5.5-.1h77l5.5-.1h44l5.5-.1h22l5.5-.1h38.5l5.5-.1h49.5l5.5-.1h38.5l5.5-.1h66l5.5-.1H571l5.5-.1 5.5-.1 5.5-.2 5.5-.1h5.5l5.5-.3 5.5-.2 5.5-10.5" fill="none" color="#000"/><text transform="translate(537.4 389.9)" stroke="none" fill="#000" font-family="Arial" font-size="12" text-anchor="end" color="#000"><tspan>pages+cached+nointeractive</tspan></text><path stroke="#E69F00" d="M545.7 386h42.2M70.5 62.6l5.5-.1h22l5.5-.1h77l5.5-.1h99l5.5-.1H417l5.5-.1H472l5.5-.1h5.5l5.5-.1h11l5.5-.1h33l5.5-.1h33l5.5-.1h16.5l5.5-.2 5.5-.1 5.5-.3" fill="none" color="#000"/><text transform="translate(537.4 407.9)" stroke="none" fill="#000" font-family="Arial" font-size="12" text-anchor="end" color="#000"><tspan>pages+cached+noadtech</tspan></text><path stroke="#F0E442" d="M545.7 404h42.2M70.5 264.3h77l5.5-.1h115.5l5.5-.1h11l5.5-3.2 5.5-.1h55l5.5-1.5H373l5.5-.1h99l5.5-.1h110l5.5-.1H615" fill="none" color="#000"/><text transform="translate(537.4 425.9)" stroke="none" fill="#000" font-family="Arial" font-size="12" text-anchor="end" color="#000"><tspan>pages+cached+noexternal</tspan></text><path stroke="#0072B2" d="M545.7 422h42.2M70.5 264.3H153l5.5-.1h154l5.5-3.3 5.5-.1H362l5.5-.1 5.5-1.4h5.5l5.5-.1h104.5l5.5-.1h115.5l5.5-.1" fill="none" color="#000"/><text transform="translate(537.4 443.9)" stroke="none" fill="#000" font-family="Arial" font-size="12" text-anchor="end" color="#000"><tspan>pages+cached+noexternal+nofonts</tspan></text><path stroke="#E51E10" d="M545.7 440h42.2M70.5 271.1H153l5.5-.1H428l5.5-6.6h5.5l5.5-.1h33l5.5-1.6h5.5l5.5-.1h5.5l5.5-.1 5.5-4.8 5.5-.1h49.5l5.5-.1h22l5.5-.1H615" fill="none" color="#000"/><g><text transform="translate(537.4 461.9)" stroke="none" fill="#000" font-family="Arial" font-size="12" text-anchor="end" color="#000"><tspan>pages+cached+noexternal+nosvg</tspan></text><path stroke="#000" d="M545.7 458h42.2M70.5 264.3h264l5.5-.1h236.5l5.5-4.9 5.5-.1h11l5.5-.1h5.5l5.5-4" fill="none" color="#000"/></g><g><text transform="translate(537.4 479.9)" stroke="none" fill="#000" font-family="Arial" font-size="12" text-anchor="end" color="#000"><tspan>pages+cached+noexternal+noimg</tspan></text><path stroke="#9400D3" d="M545.7 476h42.2M70.5 264.3H241l5.5-.1h11l5.5-3.2h5.5l5.5-.1h55l5.5-.1h5.5l5.5-1.5h55l5.5-.1h198l5.5-.1h5.5" fill="none" color="#000"/></g><g><text transform="translate(537.4 497.9)" stroke="none" fill="#000" font-family="Arial" font-size="12" text-anchor="end" color="#000"><tspan>pages+cached+noexternal+nocss</tspan></text><path stroke="#009E73" d="M545.7 494h42.2M70.5 267.7H98l5.5-.1h440l5.5-.1h66" fill="none" color="#000"/></g><g><text transform="translate(537.4 515.9)" stroke="none" fill="#000" font-family="Arial" font-size="12" text-anchor="end" color="#000"><tspan>pages+cached+noexternal+nojs</tspan></text><path stroke="#56B4E9" d="M545.7 512h42.2M70.5 271H494l5.5-.1H593l5.5-.3H615" fill="none" color="#000"/></g><g><text transform="translate(537.4 533.9)" stroke="none" fill="#000" font-family="Arial" font-size="12" text-anchor="end" color="#000"><tspan>pages+cached+noexternal+nofonts+nosvg+noimg</tspan></text><path stroke="#E69F00" d="M545.7 530h42.2M70.5 271.1h407l5.5-.1h11l5.5-6.6H527l5.5-1.7h5.5l5.5-5h22l5.5-.1h33l5.5-.1h5.5" fill="none" color="#000"/></g><g><text transform="translate(537.4 551.9)" stroke="none" fill="#000" font-family="Arial" font-size="12" text-anchor="end" color="#000"><tspan>pages+cached+noexternal+nofonts+nosvg+noimg+nocss</tspan></text><path stroke="#F0E442" d="M545.7 548h42.2M70.5 267.7H472l5.5-.1h121l5.5-.1h5.5l5.5-.1" fill="none" color="#000"/></g><g><text transform="translate(537.4 569.9)" stroke="none" fill="#000" font-family="Arial" font-size="12" text-anchor="end" color="#000"><tspan>pages+cached+noexternal+nofonts+nosvg+noimg+nocss+nojs</tspan></text><path stroke="#0072B2" d="M545.7 566h42.2M70.5 271.2l5.5-.1h539" fill="none" color="#000"/></g><g><text transform="translate(537.4 587.9)" stroke="none" fill="#000" font-family="Arial" font-size="12" text-anchor="end" color="#000"><tspan>score p10=3785</tspan></text><path stroke="#E51E10" d="M545.7 584h42.2M70.5 220.8H615" fill="none" color="#000"/></g><g><text transform="translate(537.4 605.9)" stroke="none" fill="#000" font-family="Arial" font-size="12" text-anchor="end" color="#000"><tspan>score median=7300</tspan></text><path stroke="#000" d="M545.7 602h42.2M70.5 143H615" fill="none" color="#000"/></g><g fill="none" color="#000" stroke="currentColor"><path stroke="#000" d="M70.5 18.1V296H615V18.1H70.5z"/></g></svg>