<svg width="640" height="520" xmlns="http://www.w3.org/2000/svg" xmlns:xlink="http://www.w3.org/1999/xlink"><path fill="#fff" d="M0 0h640v520H0z"/><defs><path id="g" stroke-width=".222" stroke="currentColor" d="M-1 0h2M0-1v2"/><path id="h" stroke-width=".222" stroke="currentColor" d="M-1-1l2 2m0-2l-2 2"/><path id="i" stroke-width=".222" stroke="currentColor" d="M-1 0h2M0-1v2m-1-2l2 2m-2 0l2-2"/><path id="d" stroke-width=".222" stroke="currentColor" d="M-1-1h2v2h-2z"/><path id="b" stroke-width=".222" stroke="currentColor" d="M0-1.33l-1.33 2h2.66z"/><path id="f" stroke-width=".222" stroke="currentColor" d="M0 1.33L1.265.411.782-1.067l-1.564-.009-.483 1.487z"/><use xlink:href="#b" id="c" stroke="currentColor" transform="rotate(180)"/><use xlink:href="#d" id="e" stroke="currentColor" transform="rotate(45)"/><circle id="a" stroke-width=".222" stroke="currentColor" cx="0" cy="0" r="1"/></defs><g fill="none" color="#000" stroke="currentColor"><path stroke="#000" d="M53.9 390.9h9m552.1 0h-9"/><text transform="translate(45.6 394.8)" stroke="none" fill="#000" font-family="Arial" font-size="12" text-anchor="end"><tspan>50</tspan></text></g><g fill="none" color="#000" stroke="currentColor"><path stroke="#000" d="M53.9 319.2h9m552.1 0h-9"/><text transform="translate(45.6 323.1)" stroke="none" fill="#000" font-family="Arial" font-size="12" text-anchor="end"><tspan>100</tspan></text></g><g fill="none" color="#000" stroke="currentColor"><path stroke="#000" d="M53.9 247.4h9m552.1 0h-9"/><text transform="translate(45.6 251.3)" stroke="none" fill="#000" font-family="Arial" font-size="12" text-anchor="end"><tspan>150</tspan></text></g><g fill="none" color="#000" stroke="currentColor"><path stroke="#000" d="M53.9 175.6h9m552.1 0h-9"/><text transform="translate(45.6 179.5)" stroke="none" fill="#000" font-family="Arial" font-size="12" text-anchor="end"><tspan>200</tspan></text></g><g fill="none" color="#000" stroke="currentColor"><path stroke="#000" d="M53.9 103.9h9m552.1 0h-9"/><text transform="translate(45.6 107.8)" stroke="none" fill="#000" font-family="Arial" font-size="12" text-anchor="end"><tspan>250</tspan></text></g><g fill="none" color="#000" stroke="currentColor"><path stroke="#000" d="M53.9 32.1h9m552.1 0h-9"/><text transform="translate(45.6 36)" stroke="none" fill="#000" font-family="Arial" font-size="12" text-anchor="end"><tspan>300</tspan></text></g><g fill="none" color="#000" stroke="currentColor"><path stroke="#000" d="M53.9 448v-9m0-420.9v9"/><text transform="translate(53.9 469.9)" stroke="none" fill="#000" font-family="Arial" font-size="12" text-anchor="middle"><tspan>0</tspan></text></g><g fill="none" color="#000" stroke="currentColor"><path stroke="#000" d="M140.2 448v-9m0-420.9v9"/><text transform="translate(140.2 469.9)" stroke="none" fill="#000" font-family="Arial" font-size="12" text-anchor="middle"><tspan>2</tspan></text></g><g fill="none" color="#000" stroke="currentColor"><path stroke="#000" d="M226.5 448v-9m0-420.9v9"/><text transform="translate(226.5 469.9)" stroke="none" fill="#000" font-family="Arial" font-size="12" text-anchor="middle"><tspan>4</tspan></text></g><g fill="none" color="#000" stroke="currentColor"><path stroke="#000" d="M312.9 448v-9m0-420.9v9"/><text transform="translate(312.9 469.9)" stroke="none" fill="#000" font-family="Arial" font-size="12" text-anchor="middle"><tspan>6</tspan></text></g><g fill="none" color="#000" stroke="currentColor"><path stroke="#000" d="M399.2 448v-9m0-420.9v9"/><text transform="translate(399.2 469.9)" stroke="none" fill="#000" font-family="Arial" font-size="12" text-anchor="middle"><tspan>8</tspan></text></g><g fill="none" color="#000" stroke="currentColor"><path stroke="#000" d="M485.5 448v-9m0-420.9v9"/><text transform="translate(485.5 469.9)" stroke="none" fill="#000" font-family="Arial" font-size="12" text-anchor="middle"><tspan>10</tspan></text></g><g fill="none" color="#000" stroke="currentColor"><path stroke="#000" d="M571.8 448v-9m0-420.9v9"/><text transform="translate(571.8 469.9)" stroke="none" fill="#000" font-family="Arial" font-size="12" text-anchor="middle"><tspan>12</tspan></text></g><path stroke="#000" d="M53.9 18.1V448H615V18.1H53.9z" fill="none" color="#000"/><text transform="translate(179.8 487.9)" stroke="none" fill="#000" font-family="Arial" font-size="12" text-anchor="end" color="#000"><tspan>p90min</tspan></text><g fill="none" color="#000" stroke="currentColor"><path stroke="#9400D3" d="M188.1 484h42.2M53.9 439.7l43.2-376 43.1 11.5 43.2 4.3 43.1 347.3 43.2-1.4H356l43.2 1.4 43.2 12.9h43.1l43.2-7.9 43.1 7.9H615"/><use xlink:href="#g" transform="matrix(4.5 0 0 4.5 53.9 439.7)" color="#9400D3"/><use xlink:href="#g" transform="matrix(4.5 0 0 4.5 97.1 63.7)" color="#9400D3"/><use xlink:href="#g" transform="matrix(4.5 0 0 4.5 140.2 75.2)" color="#9400D3"/><use xlink:href="#g" transform="matrix(4.5 0 0 4.5 183.4 79.5)" color="#9400D3"/><use xlink:href="#g" transform="matrix(4.5 0 0 4.5 226.5 426.8)" color="#9400D3"/><use xlink:href="#g" transform="matrix(4.5 0 0 4.5 269.7 425.4)" color="#9400D3"/><use xlink:href="#g" transform="matrix(4.5 0 0 4.5 312.9 425.4)" color="#9400D3"/><use xlink:href="#g" transform="matrix(4.5 0 0 4.5 356 425.4)" color="#9400D3"/><use xlink:href="#g" transform="matrix(4.5 0 0 4.5 399.2 426.8)" color="#9400D3"/><use xlink:href="#g" transform="matrix(4.5 0 0 4.5 442.4 439.7)" color="#9400D3"/><use xlink:href="#g" transform="matrix(4.5 0 0 4.5 485.5 439.7)" color="#9400D3"/><use xlink:href="#g" transform="matrix(4.5 0 0 4.5 528.7 431.8)" color="#9400D3"/><use xlink:href="#g" transform="matrix(4.5 0 0 4.5 571.8 439.7)" color="#9400D3"/><use xlink:href="#g" transform="matrix(4.5 0 0 4.5 615 439.7)" color="#9400D3"/><use xlink:href="#g" transform="matrix(4.5 0 0 4.5 209.2 484)" color="#9400D3"/></g><text transform="translate(179.8 505.9)" stroke="none" fill="#000" font-family="Arial" font-size="12" text-anchor="end" color="#000"><tspan>p90mean</tspan></text><g fill="none" color="#000" stroke="currentColor"><path stroke="#009E73" d="M188.1 502h42.2M53.9 439.7L97.1 49.3l43.1 5.6 43.2 9.5 43.1 358.9 43.2-.4 43.2-2.4 43.1 2.7 43.2-.4 43.2 16.9h43.1l43.2-16.8 43.1 16.8H615"/><use xlink:href="#h" transform="matrix(4.5 0 0 4.5 53.9 439.7)" color="#009E73"/><use xlink:href="#h" transform="matrix(4.5 0 0 4.5 97.1 49.3)" color="#009E73"/><use xlink:href="#h" transform="matrix(4.5 0 0 4.5 140.2 54.9)" color="#009E73"/><use xlink:href="#h" transform="matrix(4.5 0 0 4.5 183.4 64.4)" color="#009E73"/><use xlink:href="#h" transform="matrix(4.5 0 0 4.5 226.5 423.3)" color="#009E73"/><use xlink:href="#h" transform="matrix(4.5 0 0 4.5 269.7 422.9)" color="#009E73"/><use xlink:href="#h" transform="matrix(4.5 0 0 4.5 312.9 420.5)" color="#009E73"/><use xlink:href="#h" transform="matrix(4.5 0 0 4.5 356 423.2)" color="#009E73"/><use xlink:href="#h" transform="matrix(4.5 0 0 4.5 399.2 422.8)" color="#009E73"/><use xlink:href="#h" transform="matrix(4.5 0 0 4.5 442.4 439.7)" color="#009E73"/><use xlink:href="#h" transform="matrix(4.5 0 0 4.5 485.5 439.7)" color="#009E73"/><use xlink:href="#h" transform="matrix(4.5 0 0 4.5 528.7 422.9)" color="#009E73"/><use xlink:href="#h" transform="matrix(4.5 0 0 4.5 571.8 439.7)" color="#009E73"/><use xlink:href="#h" transform="matrix(4.5 0 0 4.5 615 439.7)" color="#009E73"/><use xlink:href="#h" transform="matrix(4.5 0 0 4.5 209.2 502)" color="#009E73"/></g><text transform="translate(371.4 487.9)" stroke="none" fill="#000" font-family="Arial" font-size="12" text-anchor="end" color="#000"><tspan>p90median</tspan></text><g fill="none" color="#000" stroke="currentColor"><path stroke="#56B4E9" d="M379.7 484h42.2m-368-44.3L97.1 49.3l43.1 12.9 43.2 8.7 43.1 354.5 43.2-1.5 43.2-1.4 43.1 1.4h43.2l43.2 15.8h43.1l43.2-17.2 43.1 17.2H615"/><use xlink:href="#i" transform="matrix(4.5 0 0 4.5 53.9 439.7)" color="#56B4E9"/><use xlink:href="#i" transform="matrix(4.5 0 0 4.5 97.1 49.3)" color="#56B4E9"/><use xlink:href="#i" transform="matrix(4.5 0 0 4.5 140.2 62.2)" color="#56B4E9"/><use xlink:href="#i" transform="matrix(4.5 0 0 4.5 183.4 70.9)" color="#56B4E9"/><use xlink:href="#i" transform="matrix(4.5 0 0 4.5 226.5 425.4)" color="#56B4E9"/><use xlink:href="#i" transform="matrix(4.5 0 0 4.5 269.7 423.9)" color="#56B4E9"/><use xlink:href="#i" transform="matrix(4.5 0 0 4.5 312.9 422.5)" color="#56B4E9"/><use xlink:href="#i" transform="matrix(4.5 0 0 4.5 356 423.9)" color="#56B4E9"/><use xlink:href="#i" transform="matrix(4.5 0 0 4.5 399.2 423.9)" color="#56B4E9"/><use xlink:href="#i" transform="matrix(4.5 0 0 4.5 442.4 439.7)" color="#56B4E9"/><use xlink:href="#i" transform="matrix(4.5 0 0 4.5 485.5 439.7)" color="#56B4E9"/><use xlink:href="#i" transform="matrix(4.5 0 0 4.5 528.7 422.5)" color="#56B4E9"/><use xlink:href="#i" transform="matrix(4.5 0 0 4.5 571.8 439.7)" color="#56B4E9"/><use xlink:href="#i" transform="matrix(4.5 0 0 4.5 615 439.7)" color="#56B4E9"/><use xlink:href="#i" transform="matrix(4.5 0 0 4.5 400.8 484)" color="#56B4E9"/></g><text transform="translate(371.4 505.9)" stroke="none" fill="#000" font-family="Arial" font-size="12" text-anchor="end" color="#000"><tspan>p90max</tspan></text><g fill="none" color="#000" stroke="currentColor"><path stroke="#E69F00" d="M379.7 502h42.2m-368-62.3L97.1 29.2l43.1-2.8 43.2 10 43.1 378.9 43.2 1.5 43.2-4.3 43.1 4.3 43.2-2.9 43.2 25.8h43.1l43.2-24.4 43.1 24.4H615"/><use xlink:href="#d" transform="matrix(4.5 0 0 4.5 53.9 439.7)" color="#E69F00"/><use xlink:href="#d" transform="matrix(4.5 0 0 4.5 97.1 29.2)" color="#E69F00"/><use xlink:href="#d" transform="matrix(4.5 0 0 4.5 140.2 26.4)" color="#E69F00"/><use xlink:href="#d" transform="matrix(4.5 0 0 4.5 183.4 36.4)" color="#E69F00"/><use xlink:href="#d" transform="matrix(4.5 0 0 4.5 226.5 415.3)" color="#E69F00"/><use xlink:href="#d" transform="matrix(4.5 0 0 4.5 269.7 416.8)" color="#E69F00"/><use xlink:href="#d" transform="matrix(4.5 0 0 4.5 312.9 412.5)" color="#E69F00"/><use xlink:href="#d" transform="matrix(4.5 0 0 4.5 356 416.8)" color="#E69F00"/><use xlink:href="#d" transform="matrix(4.5 0 0 4.5 399.2 413.9)" color="#E69F00"/><use xlink:href="#d" transform="matrix(4.5 0 0 4.5 442.4 439.7)" color="#E69F00"/><use xlink:href="#d" transform="matrix(4.5 0 0 4.5 485.5 439.7)" color="#E69F00"/><use xlink:href="#d" transform="matrix(4.5 0 0 4.5 528.7 415.3)" color="#E69F00"/><use xlink:href="#d" transform="matrix(4.5 0 0 4.5 571.8 439.7)" color="#E69F00"/><use xlink:href="#d" transform="matrix(4.5 0 0 4.5 615 439.7)" color="#E69F00"/><use xlink:href="#d" transform="matrix(4.5 0 0 4.5 400.8 502)" color="#E69F00"/></g><g><text transform="translate(563 487.9)" stroke="none" fill="#000" font-family="Arial" font-size="12" text-anchor="end" color="#000"><tspan>score p10=130</tspan></text><path stroke="#F0E442" d="M571.3 484h42.2M53.9 276.1H615" fill="none" color="#000"/></g><g><text transform="translate(563 505.9)" stroke="none" fill="#000" font-family="Arial" font-size="12" text-anchor="end" color="#000"><tspan>score median=250</tspan></text><path stroke="#0072B2" d="M571.3 502h42.2M53.9 103.9H615" fill="none" color="#000"/></g><g fill="none" color="#000" stroke="currentColor"><path stroke="#000" d="M53.9 18.1V448H615V18.1H53.9z"/></g></svg>