<svg width="640" height="490" xmlns="http://www.w3.org/2000/svg" xmlns:xlink="http://www.w3.org/1999/xlink"><path fill="#fff" d="M0 0h640v490H0z"/><defs><path id="d" stroke-width=".222" stroke="currentColor" d="M-1-1h2v2h-2z"/><path id="b" stroke-width=".222" stroke="currentColor" d="M0-1.33l-1.33 2h2.66z"/><path id="f" stroke-width=".222" stroke="currentColor" d="M0 1.33L1.265.411.782-1.067l-1.564-.009-.483 1.487z"/><use xlink:href="#b" id="c" stroke="currentColor" transform="rotate(180)"/><use xlink:href="#d" id="e" stroke="currentColor" transform="rotate(45)"/><circle id="a" stroke-width=".222" stroke="currentColor" cx="0" cy="0" r="1"/></defs><g fill="none" color="#000" stroke="currentColor"><path stroke="#000" d="M112 410.3h9m494 0h-9"/><text transform="translate(103.7 414.2)" stroke="none" fill="#000" font-family="Arial" font-size="12" text-anchor="end"><tspan>6.35673x10</tspan><tspan font-size="9.6" dy="-6">6</tspan></text></g><g fill="none" color="#000" stroke="currentColor"><path stroke="#000" d="M112 359.7h9m494 0h-9"/><text transform="translate(103.7 363.6)" stroke="none" fill="#000" font-family="Arial" font-size="12" text-anchor="end"><tspan>6.35674x10</tspan><tspan font-size="9.6" dy="-6">6</tspan></text></g><g fill="none" color="#000" stroke="currentColor"><path stroke="#000" d="M112 309.1h9m494 0h-9"/><text transform="translate(103.7 313)" stroke="none" fill="#000" font-family="Arial" font-size="12" text-anchor="end"><tspan>6.35674x10</tspan><tspan font-size="9.6" dy="-6">6</tspan></text></g><g fill="none" color="#000" stroke="currentColor"><path stroke="#000" d="M112 258.5h9m494 0h-9"/><text transform="translate(103.7 262.4)" stroke="none" fill="#000" font-family="Arial" font-size="12" text-anchor="end"><tspan>6.35674x10</tspan><tspan font-size="9.6" dy="-6">6</tspan></text></g><g fill="none" color="#000" stroke="currentColor"><path stroke="#000" d="M112 207.9h9m494 0h-9"/><text transform="translate(103.7 211.8)" stroke="none" fill="#000" font-family="Arial" font-size="12" text-anchor="end"><tspan>6.35675x10</tspan><tspan font-size="9.6" dy="-6">6</tspan></text></g><g fill="none" color="#000" stroke="currentColor"><path stroke="#000" d="M112 157.3h9m494 0h-9"/><text transform="translate(103.7 161.2)" stroke="none" fill="#000" font-family="Arial" font-size="12" text-anchor="end"><tspan>6.35676x10</tspan><tspan font-size="9.6" dy="-6">6</tspan></text></g><g fill="none" color="#000" stroke="currentColor"><path stroke="#000" d="M112 106.7h9m494 0h-9"/><text transform="translate(103.7 110.6)" stroke="none" fill="#000" font-family="Arial" font-size="12" text-anchor="end"><tspan>6.35676x10</tspan><tspan font-size="9.6" dy="-6">6</tspan></text></g><g fill="none" color="#000" stroke="currentColor"><path stroke="#000" d="M112 56.1h9m494 0h-9"/><text transform="translate(103.7 60)" stroke="none" fill="#000" font-family="Arial" font-size="12" text-anchor="end"><tspan>6.35676x10</tspan><tspan font-size="9.6" dy="-6">6</tspan></text></g><g fill="none" color="#000" stroke="currentColor"><path stroke="#000" d="M112 418v-9m0-390.9v9"/><text transform="translate(112 439.9)" stroke="none" fill="#000" font-family="Arial" font-size="12" text-anchor="middle"><tspan>0</tspan></text></g><g fill="none" color="#000" stroke="currentColor"><path stroke="#000" d="M162.8 418v-9m0-390.9v9"/><text transform="translate(162.8 439.9)" stroke="none" fill="#000" font-family="Arial" font-size="12" text-anchor="middle"><tspan>10</tspan></text></g><g fill="none" color="#000" stroke="currentColor"><path stroke="#000" d="M213.6 418v-9m0-390.9v9"/><text transform="translate(213.6 439.9)" stroke="none" fill="#000" font-family="Arial" font-size="12" text-anchor="middle"><tspan>20</tspan></text></g><g fill="none" color="#000" stroke="currentColor"><path stroke="#000" d="M264.4 418v-9m0-390.9v9"/><text transform="translate(264.4 439.9)" stroke="none" fill="#000" font-family="Arial" font-size="12" text-anchor="middle"><tspan>30</tspan></text></g><g fill="none" color="#000" stroke="currentColor"><path stroke="#000" d="M315.2 418v-9m0-390.9v9"/><text transform="translate(315.2 439.9)" stroke="none" fill="#000" font-family="Arial" font-size="12" text-anchor="middle"><tspan>40</tspan></text></g><g fill="none" color="#000" stroke="currentColor"><path stroke="#000" d="M366 418v-9m0-390.9v9"/><text transform="translate(366 439.9)" stroke="none" fill="#000" font-family="Arial" font-size="12" text-anchor="middle"><tspan>50</tspan></text></g><g fill="none" color="#000" stroke="currentColor"><path stroke="#000" d="M416.8 418v-9m0-390.9v9"/><text transform="translate(416.8 439.9)" stroke="none" fill="#000" font-family="Arial" font-size="12" text-anchor="middle"><tspan>60</tspan></text></g><g fill="none" color="#000" stroke="currentColor"><path stroke="#000" d="M467.7 418v-9m0-390.9v9"/><text transform="translate(467.7 439.9)" stroke="none" fill="#000" font-family="Arial" font-size="12" text-anchor="middle"><tspan>70</tspan></text></g><g fill="none" color="#000" stroke="currentColor"><path stroke="#000" d="M518.5 418v-9m0-390.9v9"/><text transform="translate(518.5 439.9)" stroke="none" fill="#000" font-family="Arial" font-size="12" text-anchor="middle"><tspan>80</tspan></text></g><g fill="none" color="#000" stroke="currentColor"><path stroke="#000" d="M569.3 418v-9m0-390.9v9"/><text transform="translate(569.3 439.9)" stroke="none" fill="#000" font-family="Arial" font-size="12" text-anchor="middle"><tspan>90</tspan></text></g><path stroke="#000" d="M112 18.1V418h503V18.1H112z" fill="none" color="#000"/><text transform="translate(304.7 457.9)" stroke="none" fill="#000" font-family="Arial" font-size="12" text-anchor="end" color="#000"><tspan>raw</tspan></text><path stroke="#9400D3" d="M313 454h42.2M112 106.7l5.1 131.6 5.1-30.4 5-60.7 5.1 30.4 5.1-141.7 5.1 202.4 5.1-60.7 5 202.4 5.1-60.8 5.1-202.3 5.1 30.3 5.1 121.4 5.1 20.3 5-161.9 5.1 50.6 5.1 30.3 5.1-151.8 5.1 40.5 5-20.2 5.1 141.6 5.1-50.5 5.1 91 5.1-141.6 5 222.6L239 56.1l5.1 81 5.1 80.9 5.1-20.2 5 70.8 5.1-182.1 5.1 30.4 5.1 151.7L279.7 46l5 172 5.1-50.5 5.1-30.4 5.1 30.4 5.1 60.7 5.1 91 5-141.6 5.1 10.1 5.1-50.6 5.1 263.1 5.1-151.8 5 40.5 5.1-131.6 5.1 30.4 5.1 212.5 5.1-131.6 5 10.2 5.1-182.2 5.1 151.8 5.1-80.9 5.1 20.2 5-60.7 5.1-20.3 5.1 91.1 5.1-50.6 5.1 50.6h5l5.1-111.3 5.1 91.1 5.1 222.6 5.1-242.9 5.1 81 5-81 5.1-91 5.1 70.8 5.1 121.4 5.1 10.1 5-121.4 5.1-121.4 5.1 263.1 5.1-81 5.1 161.9 5-222.6 5.1 131.6 5.1 50.6 5.1-60.8 5.1-10.1 5-222.6 5.1 212.5 5.1-91.1 5.1-101.2 5.1-20.2 5 323.8 5.1-192.2 5.1 60.7 5.1 40.4 5.1-111.3 5.1-20.2 5 242.9 5.1-293.5 5.1-20.2 5.1-30.4 5.1 81 5-70.9 5.1 364.3 5.1-182.1" fill="none" color="#000"/><text transform="translate(304.7 475.9)" stroke="none" fill="#000" font-family="Arial" font-size="12" text-anchor="end" color="#000"><tspan>score p10=2731008</tspan></text><path stroke="#009E73" d="M313 472h42.2" fill="none" color="#000"/><text transform="translate(529.5 457.9)" stroke="none" fill="#000" font-family="Arial" font-size="12" text-anchor="end" color="#000"><tspan>score median=4096000</tspan></text><path stroke="#56B4E9" d="M537.8 454H580" fill="none" color="#000"/><g fill="none" color="#000" stroke="currentColor"><path stroke="#000" d="M112 18.1V418h503V18.1H112z"/></g></svg>