<svg width="640" height="500" xmlns="http://www.w3.org/2000/svg" xmlns:xlink="http://www.w3.org/1999/xlink"><path fill="#fff" d="M0 0h640v500H0z"/><defs><path id="d" stroke-width=".222" stroke="currentColor" d="M-1-1h2v2h-2z"/><path id="b" stroke-width=".222" stroke="currentColor" d="M0-1.33l-1.33 2h2.66z"/><path id="f" stroke-width=".222" stroke="currentColor" d="M0 1.33L1.265.411.782-1.067l-1.564-.009-.483 1.487z"/><use xlink:href="#b" id="c" stroke="currentColor" transform="rotate(180)"/><use xlink:href="#d" id="e" stroke="currentColor" transform="rotate(45)"/><circle id="a" stroke-width=".222" stroke="currentColor" cx="0" cy="0" r="1"/></defs><g fill="none" color="#000" stroke="currentColor"><path stroke="#000" d="M62.2 415.9h9m543.8 0h-9"/><text transform="translate(53.9 419.8)" stroke="none" fill="#000" font-family="Arial" font-size="12" text-anchor="end"><tspan>1950</tspan></text></g><g fill="none" color="#000" stroke="currentColor"><path stroke="#000" d="M62.2 373.2h9m543.8 0h-9"/><text transform="translate(53.9 377.1)" stroke="none" fill="#000" font-family="Arial" font-size="12" text-anchor="end"><tspan>2000</tspan></text></g><g fill="none" color="#000" stroke="currentColor"><path stroke="#000" d="M62.2 330.6h9m543.8 0h-9"/><text transform="translate(53.9 334.5)" stroke="none" fill="#000" font-family="Arial" font-size="12" text-anchor="end"><tspan>2050</tspan></text></g><g fill="none" color="#000" stroke="currentColor"><path stroke="#000" d="M62.2 288h9m543.8 0h-9"/><text transform="translate(53.9 291.9)" stroke="none" fill="#000" font-family="Arial" font-size="12" text-anchor="end"><tspan>2100</tspan></text></g><g fill="none" color="#000" stroke="currentColor"><path stroke="#000" d="M62.2 245.4h9m543.8 0h-9"/><text transform="translate(53.9 249.3)" stroke="none" fill="#000" font-family="Arial" font-size="12" text-anchor="end"><tspan>2150</tspan></text></g><g fill="none" color="#000" stroke="currentColor"><path stroke="#000" d="M62.2 202.7h9m543.8 0h-9"/><text transform="translate(53.9 206.6)" stroke="none" fill="#000" font-family="Arial" font-size="12" text-anchor="end"><tspan>2200</tspan></text></g><g fill="none" color="#000" stroke="currentColor"><path stroke="#000" d="M62.2 160.1h9m543.8 0h-9"/><text transform="translate(53.9 164)" stroke="none" fill="#000" font-family="Arial" font-size="12" text-anchor="end"><tspan>2250</tspan></text></g><g fill="none" color="#000" stroke="currentColor"><path stroke="#000" d="M62.2 117.5h9m543.8 0h-9"/><text transform="translate(53.9 121.4)" stroke="none" fill="#000" font-family="Arial" font-size="12" text-anchor="end"><tspan>2300</tspan></text></g><g fill="none" color="#000" stroke="currentColor"><path stroke="#000" d="M62.2 74.9h9m543.8 0h-9"/><text transform="translate(53.9 78.8)" stroke="none" fill="#000" font-family="Arial" font-size="12" text-anchor="end"><tspan>2350</tspan></text></g><g fill="none" color="#000" stroke="currentColor"><path stroke="#000" d="M62.2 32.3h9m543.8 0h-9"/><text transform="translate(53.9 36.2)" stroke="none" fill="#000" font-family="Arial" font-size="12" text-anchor="end"><tspan>2400</tspan></text></g><g fill="none" color="#000" stroke="currentColor"><path stroke="#000" d="M62.2 428v-9m0-400.9v9"/><text transform="translate(62.2 449.9)" stroke="none" fill="#000" font-family="Arial" font-size="12" text-anchor="middle"><tspan>0</tspan></text></g><g fill="none" color="#000" stroke="currentColor"><path stroke="#000" d="M118 428v-9m0-400.9v9"/><text transform="translate(118 449.9)" stroke="none" fill="#000" font-family="Arial" font-size="12" text-anchor="middle"><tspan>10</tspan></text></g><g fill="none" color="#000" stroke="currentColor"><path stroke="#000" d="M173.9 428v-9m0-400.9v9"/><text transform="translate(173.9 449.9)" stroke="none" fill="#000" font-family="Arial" font-size="12" text-anchor="middle"><tspan>20</tspan></text></g><g fill="none" color="#000" stroke="currentColor"><path stroke="#000" d="M229.7 428v-9m0-400.9v9"/><text transform="translate(229.7 449.9)" stroke="none" fill="#000" font-family="Arial" font-size="12" text-anchor="middle"><tspan>30</tspan></text></g><g fill="none" color="#000" stroke="currentColor"><path stroke="#000" d="M285.6 428v-9m0-400.9v9"/><text transform="translate(285.6 449.9)" stroke="none" fill="#000" font-family="Arial" font-size="12" text-anchor="middle"><tspan>40</tspan></text></g><g fill="none" color="#000" stroke="currentColor"><path stroke="#000" d="M341.4 428v-9m0-400.9v9"/><text transform="translate(341.4 449.9)" stroke="none" fill="#000" font-family="Arial" font-size="12" text-anchor="middle"><tspan>50</tspan></text></g><g fill="none" color="#000" stroke="currentColor"><path stroke="#000" d="M397.2 428v-9m0-400.9v9"/><text transform="translate(397.2 449.9)" stroke="none" fill="#000" font-family="Arial" font-size="12" text-anchor="middle"><tspan>60</tspan></text></g><g fill="none" color="#000" stroke="currentColor"><path stroke="#000" d="M453.1 428v-9m0-400.9v9"/><text transform="translate(453.1 449.9)" stroke="none" fill="#000" font-family="Arial" font-size="12" text-anchor="middle"><tspan>70</tspan></text></g><g fill="none" color="#000" stroke="currentColor"><path stroke="#000" d="M508.9 428v-9m0-400.9v9"/><text transform="translate(508.9 449.9)" stroke="none" fill="#000" font-family="Arial" font-size="12" text-anchor="middle"><tspan>80</tspan></text></g><g fill="none" color="#000" stroke="currentColor"><path stroke="#000" d="M564.7 428v-9m0-400.9v9"/><text transform="translate(564.7 449.9)" stroke="none" fill="#000" font-family="Arial" font-size="12" text-anchor="middle"><tspan>90</tspan></text></g><path stroke="#000" d="M62.2 18.1V428H615V18.1H62.2z" fill="none" color="#000"/><text transform="translate(279.8 467.9)" stroke="none" fill="#000" font-family="Arial" font-size="12" text-anchor="end" color="#000"><tspan>pages</tspan></text><path stroke="#9400D3" d="M288.1 464h42.2M62.2 420.1h5.6l5.6-.1H79l5.5-.4 5.6-.1h5.6l5.6-.3 5.6-.1h5.6l5.5-.1 5.6-.1h5.6l5.6-.3 5.6-.1h5.6l5.5-.1h5.6l5.6-.2 5.6-.1 5.6-.1h5.6l5.5-.7h5.6l5.6-.2h5.6l5.6-.1 5.6-.1 5.5-.3 5.6-.1 5.6-.2 5.6-.1 5.6-.2 5.6-.2 5.6-.1h5.5l5.6-.3h5.6l5.6-.1 5.6-.1 5.6-.1 5.5-.2 5.6-.4 5.6-.1 5.6-.2 5.6-.1 5.6-.1h5.5l5.6-.2 5.6-.3 5.6-.1 5.6-.1 5.6-.2h5.5l5.6-.1h5.6l5.6-.4 5.6-.3 5.6-.2 5.5-.2 5.6-.1 5.6-.3 5.6-.1 5.6-.1 5.6-.1h11.1l5.6-.7 5.6-.3h5.6l5.6-.1 5.6-.3 5.5-.5 5.6-.3 5.6-.3 5.6-.1 5.6-.1 5.6-.7 5.5-.1 5.6-.4 5.6-.7 5.6-.8 5.6-5.7 5.6-22.2 5.5-11.9 5.6-5.1 5.6-.3 5.6-2 5.6-7.1 5.6-3.9 5.5-16.2 5.6-10.3 5.6-6.9 5.6-34.3 5.6-21.4 5.6-14.4 5.5-19.9 5.6-3.6 5.6-4.7L615 26" fill="none" color="#000"/><text transform="translate(279.8 485.9)" stroke="none" fill="#000" font-family="Arial" font-size="12" text-anchor="end" color="#000"><tspan>pages+cached</tspan></text><path stroke="#009E73" d="M288.1 482h42.2M62.2 417.6l5.6-18.3 5.6-1.1 5.6-.6 5.5-.1h5.6l5.6-.1 5.6-.2 5.6-.1h5.6l5.5-.1 5.6-.1 5.6-.2H146l5.5-.1 5.6-.1h11.2l5.6-.1 5.6-.2h5.5l5.6-.1h5.6l5.6-.1h5.6l5.6-.1h11.1l5.6-.1h5.6l5.6-.1 5.6-.1h5.6l5.5-.1h11.2l5.6-.1h11.2l5.5-.2 5.6-.1h11.2l5.6-.2 5.6-.2 5.5-.1H341.4l5.6-.1 5.6-.2h11.1l5.6-.1 5.6-.1h5.6l5.6-.1h5.5l5.6-.1 5.6-.1 5.6-.3h5.6l5.6-.1 5.5-.4 5.6-.1h5.6l5.6-.5h5.6l5.6-.7 5.6-4.4 5.5-57.3 5.6-62.3 5.6-2.4 5.6-1.9 5.6-.2 5.6-1.2 5.5-60.1 5.6-.3 5.6-.2 5.6-.6 5.6-.2 5.6-.2 5.5-.1 5.6-.8 5.6-.6 5.6-.1 5.6-.5 5.6-.2 5.5-.5H581.5l5.6-.4 5.6-.3 5.5-.2 5.6-.3 5.6-.1 5.6-1.9" fill="none" color="#000"/><text transform="translate(479.7 467.9)" stroke="none" fill="#000" font-family="Arial" font-size="12" text-anchor="end" color="#000"><tspan>score p10=2336</tspan></text><path stroke="#56B4E9" d="M488 464h42.2M62.2 86.8H615" fill="none" color="#000"/><g><text transform="translate(479.7 485.9)" stroke="none" fill="#000" font-family="Arial" font-size="12" text-anchor="end" color="#000"><tspan>score median=4000</tspan></text><path stroke="#E69F00" d="M488 482h42.2" fill="none" color="#000"/></g><g fill="none" color="#000" stroke="currentColor"><path stroke="#000" d="M62.2 18.1V428H615V18.1H62.2z"/></g></svg>