<svg width="640" height="620" xmlns="http://www.w3.org/2000/svg" xmlns:xlink="http://www.w3.org/1999/xlink"><path fill="#fff" d="M0 0h640v620H0z"/><defs><path id="d" stroke-width=".222" stroke="currentColor" d="M-1-1h2v2h-2z"/><path id="b" stroke-width=".222" stroke="currentColor" d="M0-1.33l-1.33 2h2.66z"/><path id="f" stroke-width=".222" stroke="currentColor" d="M0 1.33L1.265.411.782-1.067l-1.564-.009-.483 1.487z"/><use xlink:href="#b" id="c" stroke="currentColor" transform="rotate(180)"/><use xlink:href="#d" id="e" stroke="currentColor" transform="rotate(45)"/><circle id="a" stroke-width=".222" stroke="currentColor" cx="0" cy="0" r="1"/></defs><g fill="none" color="#000" stroke="currentColor"><path stroke="#000" d="M62.2 294.4h9m543.8 0h-9"/><text transform="translate(53.9 298.3)" stroke="none" fill="#000" font-family="Arial" font-size="12" text-anchor="end"><tspan>600</tspan></text></g><g fill="none" color="#000" stroke="currentColor"><path stroke="#000" d="M62.2 264.4h9m543.8 0h-9"/><text transform="translate(53.9 268.3)" stroke="none" fill="#000" font-family="Arial" font-size="12" text-anchor="end"><tspan>800</tspan></text></g><g fill="none" color="#000" stroke="currentColor"><path stroke="#000" d="M62.2 234.5h9m543.8 0h-9"/><text transform="translate(53.9 238.4)" stroke="none" fill="#000" font-family="Arial" font-size="12" text-anchor="end"><tspan>1000</tspan></text></g><g fill="none" color="#000" stroke="currentColor"><path stroke="#000" d="M62.2 204.5h9m543.8 0h-9"/><text transform="translate(53.9 208.4)" stroke="none" fill="#000" font-family="Arial" font-size="12" text-anchor="end"><tspan>1200</tspan></text></g><g fill="none" color="#000" stroke="currentColor"><path stroke="#000" d="M62.2 174.5h9m543.8 0h-9"/><text transform="translate(53.9 178.4)" stroke="none" fill="#000" font-family="Arial" font-size="12" text-anchor="end"><tspan>1400</tspan></text></g><g fill="none" color="#000" stroke="currentColor"><path stroke="#000" d="M62.2 144.5h9m543.8 0h-9"/><text transform="translate(53.9 148.4)" stroke="none" fill="#000" font-family="Arial" font-size="12" text-anchor="end"><tspan>1600</tspan></text></g><g fill="none" color="#000" stroke="currentColor"><path stroke="#000" d="M62.2 114.5h9m543.8 0h-9"/><text transform="translate(53.9 118.4)" stroke="none" fill="#000" font-family="Arial" font-size="12" text-anchor="end"><tspan>1800</tspan></text></g><g fill="none" color="#000" stroke="currentColor"><path stroke="#000" d="M62.2 84.5h9m543.8 0h-9"/><text transform="translate(53.9 88.4)" stroke="none" fill="#000" font-family="Arial" font-size="12" text-anchor="end"><tspan>2000</tspan></text></g><g fill="none" color="#000" stroke="currentColor"><path stroke="#000" d="M62.2 54.5h9m543.8 0h-9"/><text transform="translate(53.9 58.4)" stroke="none" fill="#000" font-family="Arial" font-size="12" text-anchor="end"><tspan>2200</tspan></text></g><g fill="none" color="#000" stroke="currentColor"><path stroke="#000" d="M62.2 24.5h9m543.8 0h-9"/><text transform="translate(53.9 28.4)" stroke="none" fill="#000" font-family="Arial" font-size="12" text-anchor="end"><tspan>2400</tspan></text></g><g fill="none" color="#000" stroke="currentColor"><path stroke="#000" d="M62.2 296v-9m0-268.9v9"/><text transform="translate(62.2 317.9)" stroke="none" fill="#000" font-family="Arial" font-size="12" text-anchor="middle"><tspan>0</tspan></text></g><g fill="none" color="#000" stroke="currentColor"><path stroke="#000" d="M118 296v-9m0-268.9v9"/><text transform="translate(118 317.9)" stroke="none" fill="#000" font-family="Arial" font-size="12" text-anchor="middle"><tspan>10</tspan></text></g><g fill="none" color="#000" stroke="currentColor"><path stroke="#000" d="M173.9 296v-9m0-268.9v9"/><text transform="translate(173.9 317.9)" stroke="none" fill="#000" font-family="Arial" font-size="12" text-anchor="middle"><tspan>20</tspan></text></g><g fill="none" color="#000" stroke="currentColor"><path stroke="#000" d="M229.7 296v-9m0-268.9v9"/><text transform="translate(229.7 317.9)" stroke="none" fill="#000" font-family="Arial" font-size="12" text-anchor="middle"><tspan>30</tspan></text></g><g fill="none" color="#000" stroke="currentColor"><path stroke="#000" d="M285.6 296v-9m0-268.9v9"/><text transform="translate(285.6 317.9)" stroke="none" fill="#000" font-family="Arial" font-size="12" text-anchor="middle"><tspan>40</tspan></text></g><g fill="none" color="#000" stroke="currentColor"><path stroke="#000" d="M341.4 296v-9m0-268.9v9"/><text transform="translate(341.4 317.9)" stroke="none" fill="#000" font-family="Arial" font-size="12" text-anchor="middle"><tspan>50</tspan></text></g><g fill="none" color="#000" stroke="currentColor"><path stroke="#000" d="M397.2 296v-9m0-268.9v9"/><text transform="translate(397.2 317.9)" stroke="none" fill="#000" font-family="Arial" font-size="12" text-anchor="middle"><tspan>60</tspan></text></g><g fill="none" color="#000" stroke="currentColor"><path stroke="#000" d="M453.1 296v-9m0-268.9v9"/><text transform="translate(453.1 317.9)" stroke="none" fill="#000" font-family="Arial" font-size="12" text-anchor="middle"><tspan>70</tspan></text></g><g fill="none" color="#000" stroke="currentColor"><path stroke="#000" d="M508.9 296v-9m0-268.9v9"/><text transform="translate(508.9 317.9)" stroke="none" fill="#000" font-family="Arial" font-size="12" text-anchor="middle"><tspan>80</tspan></text></g><g fill="none" color="#000" stroke="currentColor"><path stroke="#000" d="M564.7 296v-9m0-268.9v9"/><text transform="translate(564.7 317.9)" stroke="none" fill="#000" font-family="Arial" font-size="12" text-anchor="middle"><tspan>90</tspan></text></g><path stroke="#000" d="M62.2 18.1V296H615V18.1H62.2z" fill="none" color="#000"/><text transform="translate(533.3 335.9)" stroke="none" fill="#000" font-family="Arial" font-size="12" text-anchor="end" color="#000"><tspan>empty</tspan></text><path stroke="#9400D3" d="M541.6 332h42.2M62.2 290.7h5.6l5.6-.1h33.5l5.6-.1H146l5.5-.1h22.4l5.6-.1h39l5.6-.1H436.3l5.6-.1h27.9l5.6-.1H531.2l5.6-.1H553.6l5.6-.1h5.5l5.6-.1h5.6l5.6-.1 5.6-.1h5.6l5.5-.1h5.6l5.6-.4 5.6-.1" fill="none" color="#000"/><text transform="translate(533.3 353.9)" stroke="none" fill="#000" font-family="Arial" font-size="12" text-anchor="end" color="#000"><tspan>pages</tspan></text><path stroke="#009E73" d="M541.6 350h42.2M62.2 92.8h5.6l5.6-.1H95.7l5.6-.1h27.9l5.6-.1H157.1l5.6-.1H179.5l5.5-.1h5.6l5.6-.1H213l5.5-.1H235.3l5.6-.1h16.7l5.6-.1h27.9l5.6-.1h5.6l5.6-.1H330.2l5.6-.1H347l5.6-.1H374.9l5.6-.1h5.6l5.5-.1h11.2l5.6-.1H430.7l5.6-.1 5.6-.1h11.2l5.6-.1h5.5l5.6-.1h5.6l5.6-.1h5.6l5.6-.1h5.5l5.6-.1 5.6-.1 5.6-.2 5.6-.9 5.6-4 5.5-2 5.6-1h5.6l5.6-.4 5.6-1.2 5.6-.7 5.5-2.8 5.6-1.9 5.6-1.2 5.6-6 5.6-3.8 5.6-2.5 5.5-3.5 5.6-.6 5.6-.9 5.6-33.4" fill="none" color="#000"/><text transform="translate(533.3 371.9)" stroke="none" fill="#000" font-family="Arial" font-size="12" text-anchor="end" color="#000"><tspan>pages+cached</tspan></text><path stroke="#56B4E9" d="M541.6 368h42.2M62.2 92.3l5.6-3.2 5.6-.2 5.6-.1h16.7l5.6-.1h27.9l5.6-.1H185l5.6-.1H252.1l5.5-.1H307.9l5.6-.1H347l5.6-.1h44.6l5.6-.1H419.6l5.5-.1h11.2l5.6-.1h5.6l5.6-.1 5.6-.8 5.5-10.1 5.6-10.9 5.6-.5 5.6-.3h5.6l5.6-.2 5.5-10.6 5.6-.1h5.6l5.6-.1h5.6l5.6-.1h5.5l5.6-.1 5.6-.1 5.6-.1h5.6l5.6-.1 5.5-.1h22.4l5.6-.1h5.5l5.6-.1h5.6l5.6-.3" fill="none" color="#000"/><text transform="translate(533.3 389.9)" stroke="none" fill="#000" font-family="Arial" font-size="12" text-anchor="end" color="#000"><tspan>pages+cached+nointeractive</tspan></text><path stroke="#E69F00" d="M541.6 386h42.2M62.2 89.5l5.6-.3 5.6-.2H79l5.5-.1 5.6-.1h5.6l5.6-.1h27.9l5.6-.1h39.1l5.6-.1h44.6l5.6-.1h11.2l5.6-.1h11.1l5.6-.4 5.6-22.1 5.6-.1h5.6l5.6-.1 5.5-.1h11.2l5.6-.1H330.2l5.6-.2 5.6-.3 5.6-10 5.6-.3h16.7l5.6-.1 5.6-.1H402.8l5.6-.1h44.7l5.6-.1h11.1l5.6-.1h44.7l5.6-.1h33.5l5.5-.1h22.4l5.6-.1h11.1l5.6-.1h5.6" fill="none" color="#000"/><text transform="translate(533.3 407.9)" stroke="none" fill="#000" font-family="Arial" font-size="12" text-anchor="end" color="#000"><tspan>pages+cached+noadtech</tspan></text><path stroke="#F0E442" d="M541.6 404h42.2M62.2 112.1l5.6-.1h16.7l5.6-.1H106.9l5.6-.1h5.5l5.6-.1H140.4l5.6-.1h5.5l5.6-.1h22.4l5.5-.1H201.8l5.6-.1h33.5l5.6-.1 5.6-.1h5.5l5.6-.1 5.6-.1 5.6-.2 5.6-.1 5.6-21.5 5.5-.6 5.6-.1h11.2l5.6-.1 5.6-.2h11.1l5.6-.1H347l5.6-9.9 5.5-.1 5.6-.1 5.6-.1 5.6-.1 5.6-.1h5.6l5.5-.1 5.6-.1h5.6l5.6-.2h33.5l5.6-.1H481l5.6-.1h5.6l5.5-.1h33.5l5.6-.1h22.4l5.5-.1H581.5l5.6-.1 5.6-.1 5.5-.2H615" fill="none" color="#000"/><text transform="translate(533.3 425.9)" stroke="none" fill="#000" font-family="Arial" font-size="12" text-anchor="end" color="#000"><tspan>pages+cached+noexternal</tspan></text><path stroke="#0072B2" d="M541.6 422h42.2M62.2 112h5.6l5.6-.1h16.7l5.6-.1H112.5l5.5-.1h28l5.5-.1h28l5.5-.1h33.5l5.6-.1h39.1l5.6-.1H291.1l5.6-.1h5.6l5.6-.1 5.6-22.1 5.6-.4h5.5l5.6-.1 5.6-.1H347l5.6-.3 5.5-.1 5.6-.1 5.6-10 5.6-.1 5.6-.1 5.6-.1h11.1l5.6-.1H414l5.6-.1h5.5l5.6-.1 5.6-.1h22.4l5.5-.1h39.1l5.6-.1H548l5.6-.1h11.1l5.6-.1h22.4l5.5-.1 5.6-.3H615" fill="none" color="#000"/><text transform="translate(533.3 443.9)" stroke="none" fill="#000" font-family="Arial" font-size="12" text-anchor="end" color="#000"><tspan>pages+cached+noexternal+nofonts</tspan></text><path stroke="#E51E10" d="M541.6 440h42.2M62.2 157.9H79l5.5-.1H146l5.5-.1H246.5l5.6-.1H341.4l5.6-.1H408.4l5.6-.1 5.6-.1 5.5-.1 5.6-44.8 5.6-.1h5.6l5.6-.1h5.6l5.6-.1h16.7L481 101l5.6-.1 5.6-.2 5.5-.5 5.6-.4 5.6-32.8 5.6-.2 5.6-.1h11.1l5.6-.1 5.6-.1h5.6l5.6-.1h5.6l5.5-.1 5.6-.2h5.6l5.6-.2 5.6-.2h5.6l5.5-.1 5.6-.1 5.6-.1h5.6" fill="none" color="#000"/><g><text transform="translate(533.3 461.9)" stroke="none" fill="#000" font-family="Arial" font-size="12" text-anchor="end" color="#000"><tspan>pages+cached+noexternal+nosvg</tspan></text><path stroke="#000" d="M541.6 458h42.2M62.2 112.3l5.6-.1 5.6-.1h33.5l5.6-.1h44.6l5.6-.1H213l5.5-.1H274.4l5.6-.1H335.8l5.6-.1H414l5.6-.1h72.6l5.5-.1h33.5l5.6-.1H553.6l5.6-.1h5.5l5.6-.1 5.6-.1h5.6l5.6-33.1 5.6-.5 5.5-.1h5.6l5.6-.5 5.6-.2" fill="none" color="#000"/></g><g><text transform="translate(533.3 479.9)" stroke="none" fill="#000" font-family="Arial" font-size="12" text-anchor="end" color="#000"><tspan>pages+cached+noexternal+noimg</tspan></text><path stroke="#9400D3" d="M541.6 476h42.2M62.2 112.3h11.2l5.6-.1h5.5l5.6-.1H106.9l5.6-.1h5.5l5.6-.1h44.7l5.6-.1H196.2l5.6-.1h33.5l5.6-.1h5.6l5.6-.2 5.5-21.9 5.6-.1 5.6-.2 5.6-.1 5.6-.1h5.6l5.5-.1h5.6l5.6-.1 5.6-.1h5.6l5.6-.1h5.5l5.6-.1h5.6l5.6-10.1 5.6-.2 5.6-.1 5.5-.1h5.6l5.6-.1H391.6l5.6-.1h5.6l5.6-.1h27.9l5.6-.1H481l5.6-.1h33.5l5.6-.1h33.5l5.5-.1H581.5l5.6-.1h11.1l5.6-.1 5.6-.1 5.6-.1" fill="none" color="#000"/></g><g><text transform="translate(533.3 497.9)" stroke="none" fill="#000" font-family="Arial" font-size="12" text-anchor="end" color="#000"><tspan>pages+cached+noexternal+nocss</tspan></text><path stroke="#009E73" d="M541.6 494h42.2M62.2 134.9l5.6-.1H79l5.5-.1h11.2l5.6-.1h39.1l5.6-.1h44.6l5.6-.1h44.7l5.6-.1H358.1l5.6-.1H464.2l5.6-.1h67l5.6-.1h39.1l5.6-.1h5.6l5.5-.2 5.6-.1h5.6l5.6-.1" fill="none" color="#000"/></g><g><text transform="translate(533.3 515.9)" stroke="none" fill="#000" font-family="Arial" font-size="12" text-anchor="end" color="#000"><tspan>pages+cached+noexternal+nojs</tspan></text><path stroke="#56B4E9" d="M541.6 512h42.2M62.2 157.6H79l5.5-.1H140.4l5.6-.1H207.4l5.6-.1H341.4l5.6-.1H436.3l5.6-.1H497.7l5.6-.1h33.5l5.6-.1h27.9l5.6-.1 5.6-.1h5.6l5.6-.2 5.5-1.7 5.6-.1 5.6-.1 5.6-.2" fill="none" color="#000"/></g><g><text transform="translate(533.3 533.9)" stroke="none" fill="#000" font-family="Arial" font-size="12" text-anchor="end" color="#000"><tspan>pages+cached+noexternal+nofonts+nosvg+noimg</tspan></text><path stroke="#E69F00" d="M541.6 530h42.2M62.2 158.3l5.6-.1h16.7l5.6-.1H151.5l5.6-.1H291.1l5.6-.1H425.1l5.6-.1h44.7l5.6-.1h11.2l5.5-45 5.6-.1h5.6l5.6-.1h5.6l5.6-.1 5.5-11.4 5.6-.1 5.6-33.6h5.6l5.6-.1 5.6-.3h16.7l5.6-.1h5.6l5.6-.1h5.5l5.6-.2 5.6-.4 5.6-.1" fill="none" color="#000"/></g><g><text transform="translate(533.3 551.9)" stroke="none" fill="#000" font-family="Arial" font-size="12" text-anchor="end" color="#000"><tspan>pages+cached+noexternal+nofonts+nosvg+noimg+nocss</tspan></text><path stroke="#F0E442" d="M541.6 548h42.2M62.2 135.4l5.6-.1h16.7l5.6-.1h33.5l5.6-.1H179.5l5.5-.1H285.6l5.5-.1H391.6l5.6-.1H458.7l5.5-.1h44.7l5.6-.1h39.1l5.6-.1H581.5l5.6-.1h11.1l5.6-.3 5.6-.1 5.6-.2" fill="none" color="#000"/></g><g><text transform="translate(533.3 569.9)" stroke="none" fill="#000" font-family="Arial" font-size="12" text-anchor="end" color="#000"><tspan>pages+cached+noexternal+nofonts+nosvg+noimg+nocss+nojs</tspan></text><path stroke="#0072B2" d="M541.6 566h42.2M62.2 158.4h39.1l5.6-.1h67l5.6-.1H302.3l5.6-.1H503.3l5.6-.1H598.2l5.6-.1H615" fill="none" color="#000"/></g><g><text transform="translate(533.3 587.9)" stroke="none" fill="#000" font-family="Arial" font-size="12" text-anchor="end" color="#000"><tspan>score p10=2336</tspan></text><path stroke="#E51E10" d="M541.6 584h42.2M62.2 34.1H615" fill="none" color="#000"/></g><g><text transform="translate(533.3 605.9)" stroke="none" fill="#000" font-family="Arial" font-size="12" text-anchor="end" color="#000"><tspan>score median=4000</tspan></text><path stroke="#000" d="M541.6 602h42.2" fill="none" color="#000"/></g><g fill="none" color="#000" stroke="currentColor"><path stroke="#000" d="M62.2 18.1V296H615V18.1H62.2z"/></g></svg>