<svg width="640" height="620" xmlns="http://www.w3.org/2000/svg" xmlns:xlink="http://www.w3.org/1999/xlink"><path fill="#fff" d="M0 0h640v620H0z"/><defs><path id="d" stroke-width=".222" stroke="currentColor" d="M-1-1h2v2h-2z"/><path id="b" stroke-width=".222" stroke="currentColor" d="M0-1.33l-1.33 2h2.66z"/><path id="f" stroke-width=".222" stroke="currentColor" d="M0 1.33L1.265.411.782-1.067l-1.564-.009-.483 1.487z"/><use xlink:href="#b" id="c" stroke="currentColor" transform="rotate(180)"/><use xlink:href="#d" id="e" stroke="currentColor" transform="rotate(45)"/><circle id="a" stroke-width=".222" stroke="currentColor" cx="0" cy="0" r="1"/></defs><g fill="none" color="#000" stroke="currentColor"><path stroke="#000" d="M62.2 290.8h9m543.8 0h-9"/><text transform="translate(53.9 294.7)" stroke="none" fill="#000" font-family="Arial" font-size="12" text-anchor="end"><tspan>0.9</tspan></text></g><g fill="none" color="#000" stroke="currentColor"><path stroke="#000" d="M62.2 237.5h9m543.8 0h-9"/><text transform="translate(53.9 241.4)" stroke="none" fill="#000" font-family="Arial" font-size="12" text-anchor="end"><tspan>0.92</tspan></text></g><g fill="none" color="#000" stroke="currentColor"><path stroke="#000" d="M62.2 184.2h9m543.8 0h-9"/><text transform="translate(53.9 188.1)" stroke="none" fill="#000" font-family="Arial" font-size="12" text-anchor="end"><tspan>0.94</tspan></text></g><g fill="none" color="#000" stroke="currentColor"><path stroke="#000" d="M62.2 130.8h9m543.8 0h-9"/><text transform="translate(53.9 134.7)" stroke="none" fill="#000" font-family="Arial" font-size="12" text-anchor="end"><tspan>0.96</tspan></text></g><g fill="none" color="#000" stroke="currentColor"><path stroke="#000" d="M62.2 77.5h9m543.8 0h-9"/><text transform="translate(53.9 81.4)" stroke="none" fill="#000" font-family="Arial" font-size="12" text-anchor="end"><tspan>0.98</tspan></text></g><g fill="none" color="#000" stroke="currentColor"><path stroke="#000" d="M62.2 24.1h9m543.8 0h-9"/><text transform="translate(53.9 28)" stroke="none" fill="#000" font-family="Arial" font-size="12" text-anchor="end"><tspan>1</tspan></text></g><g fill="none" color="#000" stroke="currentColor"><path stroke="#000" d="M62.2 332v-9m0-304.9v9"/><text transform="translate(62.2 353.9)" stroke="none" fill="#000" font-family="Arial" font-size="12" text-anchor="middle"><tspan>0</tspan></text></g><g fill="none" color="#000" stroke="currentColor"><path stroke="#000" d="M118 332v-9m0-304.9v9"/><text transform="translate(118 353.9)" stroke="none" fill="#000" font-family="Arial" font-size="12" text-anchor="middle"><tspan>10</tspan></text></g><g fill="none" color="#000" stroke="currentColor"><path stroke="#000" d="M173.9 332v-9m0-304.9v9"/><text transform="translate(173.9 353.9)" stroke="none" fill="#000" font-family="Arial" font-size="12" text-anchor="middle"><tspan>20</tspan></text></g><g fill="none" color="#000" stroke="currentColor"><path stroke="#000" d="M229.7 332v-9m0-304.9v9"/><text transform="translate(229.7 353.9)" stroke="none" fill="#000" font-family="Arial" font-size="12" text-anchor="middle"><tspan>30</tspan></text></g><g fill="none" color="#000" stroke="currentColor"><path stroke="#000" d="M285.6 332v-9m0-304.9v9"/><text transform="translate(285.6 353.9)" stroke="none" fill="#000" font-family="Arial" font-size="12" text-anchor="middle"><tspan>40</tspan></text></g><g fill="none" color="#000" stroke="currentColor"><path stroke="#000" d="M341.4 332v-9m0-304.9v9"/><text transform="translate(341.4 353.9)" stroke="none" fill="#000" font-family="Arial" font-size="12" text-anchor="middle"><tspan>50</tspan></text></g><g fill="none" color="#000" stroke="currentColor"><path stroke="#000" d="M397.2 332v-9m0-304.9v9"/><text transform="translate(397.2 353.9)" stroke="none" fill="#000" font-family="Arial" font-size="12" text-anchor="middle"><tspan>60</tspan></text></g><g fill="none" color="#000" stroke="currentColor"><path stroke="#000" d="M453.1 332v-9m0-304.9v9"/><text transform="translate(453.1 353.9)" stroke="none" fill="#000" font-family="Arial" font-size="12" text-anchor="middle"><tspan>70</tspan></text></g><g fill="none" color="#000" stroke="currentColor"><path stroke="#000" d="M508.9 332v-9m0-304.9v9"/><text transform="translate(508.9 353.9)" stroke="none" fill="#000" font-family="Arial" font-size="12" text-anchor="middle"><tspan>80</tspan></text></g><g fill="none" color="#000" stroke="currentColor"><path stroke="#000" d="M564.7 332v-9m0-304.9v9"/><text transform="translate(564.7 353.9)" stroke="none" fill="#000" font-family="Arial" font-size="12" text-anchor="middle"><tspan>90</tspan></text></g><path stroke="#000" d="M62.2 18.1V332H615V18.1H62.2z" fill="none" color="#000"/><text transform="translate(533.3 371.9)" stroke="none" fill="#000" font-family="Arial" font-size="12" text-anchor="end" color="#000"><tspan>empty</tspan></text><path stroke="#9400D3" d="M541.6 368h42.2M62.2 24.1H615" fill="none" color="#000"/><text transform="translate(533.3 389.9)" stroke="none" fill="#000" font-family="Arial" font-size="12" text-anchor="end" color="#000"><tspan>pages</tspan></text><path stroke="#009E73" d="M541.6 386h42.2M62.2 326l5.6-102.5 5.6-2.2 5.6-1.7 5.5-9.4 5.6-6.7 5.6-9.5 5.6-14.8 5.6-2.8 5.6-4.3 5.5-6.5 5.6-1.6 5.6-2.7 5.6-.8 5.6-.1 5.6-2 5.5-4.5 5.6-8.2 5.6-2.1 5.6-.3 5.6-.2 5.6-.2h5.5l5.6-.3h11.2l5.6-.1 5.6-.1 5.5-.2 5.6-.1 5.6-.1h5.6l5.6-.1 5.6-.2h11.1l5.6-.1h11.2l5.6-.1 5.6-.1h5.5l5.6-.1 5.6-.1 5.6-.2h16.7l5.6-.1h11.2l5.6-.1 5.6-.1h11.1l5.6-.1h5.6l5.6-.1 5.6-.1 5.5-.1h5.6l5.6-.1H414l5.6-.1h5.5l5.6-.1h5.6l5.6-.1h5.6l5.6-.1h5.6l5.5-.1 5.6-.1H481l5.6-.1h5.6l5.5-.2h5.6l5.6-.1h11.2l5.6-.1h16.7l5.6-.1h5.6l5.6-.1h11.1l5.6-.1h11.2l5.6-.1 5.5-.1h11.2l5.6-.1" fill="none" color="#000"/><text transform="translate(533.3 407.9)" stroke="none" fill="#000" font-family="Arial" font-size="12" text-anchor="end" color="#000"><tspan>pages+cached</tspan></text><path stroke="#56B4E9" d="M541.6 404h42.2M62.2 234l5.6-.9 5.6-.1 5.6-.1 5.5-.1 5.6-.2 5.6-.2H112.5l5.5-.2 5.6-.1 5.6-.3h5.6l5.6-.3 5.6-.4h5.5l5.6-.1 5.6-.1 5.6-.3 5.6-.1 5.6-.2L185 202l5.6-.6 5.6-.1 5.6-.8 5.6-1.1 5.6-26.7 5.5-22.4 5.6-1.5 5.6-.3h5.6l5.6-.2h11.2l5.5-.2h11.2l5.6-.1 5.6-.1H302.3l5.6-.1h16.7l5.6-.1h27.9l5.6-.1 5.6-.1H386.1l5.5-.1h28l5.5-.1h11.2l5.6-.1h27.9l5.6-.1H497.7l5.6-.1h22.4l5.5-.1H548l5.6-.1h16.7l5.6-.1h5.6l5.6-.1h11.1l5.6-.2 5.6-.4 5.6-6.6" fill="none" color="#000"/><text transform="translate(533.3 425.9)" stroke="none" fill="#000" font-family="Arial" font-size="12" text-anchor="end" color="#000"><tspan>pages+cached+nointeractive</tspan></text><path stroke="#E69F00" d="M541.6 422h42.2M62.2 232.2h5.6l5.6-.1H79l5.5-.3h11.2l5.6-.1h5.6l5.6-.1 5.5-.1 5.6-.1h11.2l5.6-.1h11.1l5.6-.1H173.9l5.6-.1h11.1l5.6-.1h5.6l5.6-.1h11.1l5.6-.2 5.6-.1H246.5l5.6-.1h16.7l5.6-.2h5.6l5.6-.1h11.1l5.6-.2 5.6-.2 5.6-.1h11.1l5.6-.9 5.6-26.6 5.6-.9 5.6-.4 5.6-.1h11.1l5.6-.1h5.6l5.6-.1h5.6l5.5-.3 5.6-.2 5.6-.1 5.6-.2 5.6-51.4 5.6-.7h5.5l5.6-.1 5.6-.1h11.2l5.6-.2h5.6l5.5-.1h33.5l5.6-.1h11.2l5.6-.1h11.1l5.6-.1H548l5.6-.1h11.1l5.6-.1h11.2l5.6-.1 5.6-.2 5.5-.1 5.6-.1 5.6-.4 5.6-.6" fill="none" color="#000"/><text transform="translate(533.3 443.9)" stroke="none" fill="#000" font-family="Arial" font-size="12" text-anchor="end" color="#000"><tspan>pages+cached+noadtech</tspan></text><path stroke="#F0E442" d="M541.6 440h42.2M62.2 174.2h5.6l5.6-.1 5.6-.1 5.5-.4 5.6-.1 5.6-.3 5.6-.1H118l5.6-.1h11.2l5.6-.1 5.6-.1 5.5-.1H168.3l5.6-.1H185l5.6-.1 5.6-.2H213l5.5-.1h11.2l5.6-.1H252.1l5.5-.1h11.2l5.6-.3 5.6-.1 5.6-.3 5.5-.2h5.6l5.6-.2 5.6-.3 5.6-.3h5.6l5.5-.4 5.6-21.6h5.6l5.6-.1 5.6-.1 5.6-.1h5.5l5.6-.4 5.6-.1h5.6l5.6-.1 5.6-.1 5.5-1.3 5.6-39.6 5.6-.1 5.6-.3 5.6-.2 5.6-.2 5.5-.1h5.6l5.6-.2H453.1l5.6-.1H481l5.6-.1h5.6l5.5-.1H514.5l5.6-.1 5.6-.1 5.5-.1h5.6l5.6-.1h11.2l5.6-.1 5.5-.1h11.2l5.6-.1h5.6l5.6-.1h5.5l5.6-.1h5.6l5.6-.1" fill="none" color="#000"/><text transform="translate(533.3 461.9)" stroke="none" fill="#000" font-family="Arial" font-size="12" text-anchor="end" color="#000"><tspan>pages+cached+noexternal</tspan></text><path stroke="#0072B2" d="M541.6 458h42.2M62.2 174l5.6-.2h5.6l5.6-.7 5.5-.1H101.3l5.6-.1 5.6-.2h11.1l5.6-.1 5.6-.1h16.7l5.6-.1h22.4l5.5-.1H201.8l5.6-.1h5.6l5.5-.1h11.2l5.6-.1h5.6l5.6-.1 5.6-.2h5.5l5.6-.2 5.6-.1 5.6-.2h11.2l5.5-.1 5.6-.3 5.6-.1 5.6-.2 5.6-22 5.6-.1 5.5-.3 5.6-.7h5.6l5.6-.1h5.6l5.6-.2h5.5l5.6-.9 5.6-40.6 5.6-.1 5.6-.1 5.6-.1h11.1l5.6-.1H425.1l5.6-.1h28l5.5-.1H481l5.6-.1h5.6l5.5-.1h28l5.5-.1h5.6l5.6-.1H564.7l5.6-.1h5.6l5.6-.1h16.7l5.6-.1 5.6-.1h5.6" fill="none" color="#000"/><text transform="translate(533.3 479.9)" stroke="none" fill="#000" font-family="Arial" font-size="12" text-anchor="end" color="#000"><tspan>pages+cached+noexternal+nofonts</tspan></text><path stroke="#E51E10" d="M541.6 476h42.2M62.2 201l5.6-.2 5.6-.3 5.6-.1 5.5-.4h5.6l5.6-.4 5.6-.5 5.6-.1 5.6-.4 5.5-.3h5.6l5.6-.2h5.6l5.6-.4 5.6-.2h5.5l5.6-.1 5.6-.2 5.6-.3 5.6-71.8 5.6-.8 5.5-.9 5.6-.3 5.6-.3 5.6-18.8H213l5.5-.1h11.2l5.6-.2 5.6-.1h5.6l5.6-51.9h5.5l5.6-.1 5.6-.1H369.3l5.6-.1H525.7l5.5-.1h72.6l5.6-.1h5.6" fill="none" color="#000"/><g><text transform="translate(533.3 497.9)" stroke="none" fill="#000" font-family="Arial" font-size="12" text-anchor="end" color="#000"><tspan>pages+cached+noexternal+nosvg</tspan></text><path stroke="#000" d="M541.6 494h42.2M62.2 173.4l5.6-.5 5.6-1H79l5.5-.3 5.6-1.2 5.6-64.6 5.6-.1h5.6l5.6-.2 5.5-.1h11.2l5.6-.1h5.6l5.6-.1 5.5-.1H185l5.6-.1h27.9l5.6-.1H285.6l5.5-.1h39.1l5.6-.1h39.1l5.6-.1h50.2l5.6-.1H453.1l5.6-.1h11.1l5.6-.1h39.1l5.6-.1h39.1l5.5-.1H581.5l5.6-.1h16.7l5.6-.1 5.6-.1" fill="none" color="#000"/></g><g><text transform="translate(533.3 515.9)" stroke="none" fill="#000" font-family="Arial" font-size="12" text-anchor="end" color="#000"><tspan>pages+cached+noexternal+noimg</tspan></text><path stroke="#9400D3" d="M541.6 512h42.2M62.2 172.7l5.6-.2 5.6-.2 5.6-.3h11.1l5.6-.1h11.2l5.6-.2 5.5-.1H134.8l5.6-.1h11.1l5.6-.1H185l5.6-.1 5.6-.1H213l5.5-.1h11.2l5.6-.1H252.1l5.5-.1h5.6l5.6-.1h5.6l5.6-.2 5.6-.1h16.7l5.6-.2h5.6l5.6-.1 5.5-.3 5.6-.2 5.6-.4 5.6-22h5.6l5.6-.4h16.7l5.6-.3 5.6-.2h5.6l5.5-.2 5.6-.1h5.6l5.6-.3 5.6-.4 5.6-.2 5.5-40.1 5.6-.3h5.6l5.6-.1H458.7l5.5-.1H481l5.6-.1h16.7l5.6-.1H531.2l5.6-.1H553.6l5.6-.1h5.5l5.6-.1h5.6l5.6-.1 5.6-.1h5.6l5.5-.1 5.6-.1H615" fill="none" color="#000"/></g><g><text transform="translate(533.3 533.9)" stroke="none" fill="#000" font-family="Arial" font-size="12" text-anchor="end" color="#000"><tspan>pages+cached+noexternal+nocss</tspan></text><path stroke="#009E73" d="M541.6 530h42.2M62.2 74.6l5.6-.1 5.6-.1H79l5.5-.3h22.4l5.6-.1H134.8l5.6-.1H196.2l5.6-.1H296.7l5.6-.1H419.6l5.5-.1h39.1l5.6-.1h33.5l5.6-.1h33.5l5.6-.1h27.9l5.6-.1h11.2l5.5-.1h11.2l5.6-.1" fill="none" color="#000"/></g><g><text transform="translate(533.3 551.9)" stroke="none" fill="#000" font-family="Arial" font-size="12" text-anchor="end" color="#000"><tspan>pages+cached+noexternal+nojs</tspan></text><path stroke="#56B4E9" d="M541.6 548h42.2M62.2 53.9l5.6-.1 5.6-.1 5.6-.1 5.5-1.3 5.6-.1h5.6l5.6-.1 5.6-.1h27.9l5.6-.1H196.2l5.6-.1H302.3l5.6-.1H464.2l5.6-.1H559.2l5.5-.1h39.1l5.6-.1h5.6" fill="none" color="#000"/></g><g><text transform="translate(533.3 569.9)" stroke="none" fill="#000" font-family="Arial" font-size="12" text-anchor="end" color="#000"><tspan>pages+cached+noexternal+nofonts+nosvg+noimg</tspan></text><path stroke="#E69F00" d="M541.6 566h42.2M62.2 199.3l5.6-.3 5.6-.9 5.6-.6 5.5-.1 5.6-.1 5.6-.1 5.6-.1 5.6-.1H118l5.6-.9 5.6-.1h5.6l5.6-72.9 5.6-.2 5.5-19.3 5.6-.1 5.6-.1 5.6-.1 5.6-.1 5.6-.1 5.5-51.7h11.2l5.6-.1H307.9l5.6-.1H458.7l5.5-.1H581.5l5.6-.1H609.4l5.6-.1" fill="none" color="#000"/></g><g><text transform="translate(533.3 587.9)" stroke="none" fill="#000" font-family="Arial" font-size="12" text-anchor="end" color="#000"><tspan>pages+cached+noexternal+nofonts+nosvg+noimg+nocss</tspan></text><path stroke="#F0E442" d="M541.6 584h42.2M62.2 74.2l5.6-.2 5.6-.1 5.6-.3 5.5-.1H101.3l5.6-.1h27.9l5.6-.1h27.9l5.6-.1H213l5.5-.1H274.4l5.6-.1h72.6l5.5-.1H447.5l5.6-.1h67l5.6-.1h50.2l5.6-.1h11.2l5.5-.1h11.2l5.6-.1" fill="none" color="#000"/></g><g><text transform="translate(533.3 605.9)" stroke="none" fill="#000" font-family="Arial" font-size="12" text-anchor="end" color="#000"><tspan>pages+cached+noexternal+nofonts+nosvg+noimg+nocss+nojs</tspan></text><path stroke="#0072B2" d="M541.6 602h42.2M62.2 51.2h27.9l5.6-.1H341.4l5.6-.1H514.5l5.6-.1h72.6l5.5-.1H615" fill="none" color="#000"/></g><g fill="none" color="#000" stroke="currentColor"><path stroke="#000" d="M62.2 18.1V332H615V18.1H62.2z"/></g></svg>