<svg width="640" height="500" xmlns="http://www.w3.org/2000/svg" xmlns:xlink="http://www.w3.org/1999/xlink"><path fill="#fff" d="M0 0h640v500H0z"/><defs><path id="d" stroke-width=".222" stroke="currentColor" d="M-1-1h2v2h-2z"/><path id="b" stroke-width=".222" stroke="currentColor" d="M0-1.33l-1.33 2h2.66z"/><path id="f" stroke-width=".222" stroke="currentColor" d="M0 1.33L1.265.411.782-1.067l-1.564-.009-.483 1.487z"/><use xlink:href="#b" id="c" stroke="currentColor" transform="rotate(180)"/><use xlink:href="#d" id="e" stroke="currentColor" transform="rotate(45)"/><circle id="a" stroke-width=".222" stroke="currentColor" cx="0" cy="0" r="1"/></defs><g fill="none" color="#000" stroke="currentColor"><path stroke="#000" d="M45.6 352.2h9m560.4 0h-9"/><text transform="translate(37.3 356.1)" stroke="none" fill="#000" font-family="Arial" font-size="12" text-anchor="end"><tspan>15</tspan></text></g><g fill="none" color="#000" stroke="currentColor"><path stroke="#000" d="M45.6 303.7h9m560.4 0h-9"/><text transform="translate(37.3 307.6)" stroke="none" fill="#000" font-family="Arial" font-size="12" text-anchor="end"><tspan>20</tspan></text></g><g fill="none" color="#000" stroke="currentColor"><path stroke="#000" d="M45.6 255.1h9m560.4 0h-9"/><text transform="translate(37.3 259)" stroke="none" fill="#000" font-family="Arial" font-size="12" text-anchor="end"><tspan>25</tspan></text></g><g fill="none" color="#000" stroke="currentColor"><path stroke="#000" d="M45.6 206.6h9m560.4 0h-9"/><text transform="translate(37.3 210.5)" stroke="none" fill="#000" font-family="Arial" font-size="12" text-anchor="end"><tspan>30</tspan></text></g><g fill="none" color="#000" stroke="currentColor"><path stroke="#000" d="M45.6 158.1h9m560.4 0h-9"/><text transform="translate(37.3 162)" stroke="none" fill="#000" font-family="Arial" font-size="12" text-anchor="end"><tspan>35</tspan></text></g><g fill="none" color="#000" stroke="currentColor"><path stroke="#000" d="M45.6 109.5h9m560.4 0h-9"/><text transform="translate(37.3 113.4)" stroke="none" fill="#000" font-family="Arial" font-size="12" text-anchor="end"><tspan>40</tspan></text></g><g fill="none" color="#000" stroke="currentColor"><path stroke="#000" d="M45.6 61h9M615 61h-9"/><text transform="translate(37.3 64.9)" stroke="none" fill="#000" font-family="Arial" font-size="12" text-anchor="end"><tspan>45</tspan></text></g><g fill="none" color="#000" stroke="currentColor"><path stroke="#000" d="M45.6 392v-9m0-364.9v9"/><text transform="translate(45.6 413.9)" stroke="none" fill="#000" font-family="Arial" font-size="12" text-anchor="middle"><tspan>0</tspan></text></g><g fill="none" color="#000" stroke="currentColor"><path stroke="#000" d="M103.1 392v-9m0-364.9v9"/><text transform="translate(103.1 413.9)" stroke="none" fill="#000" font-family="Arial" font-size="12" text-anchor="middle"><tspan>10</tspan></text></g><g fill="none" color="#000" stroke="currentColor"><path stroke="#000" d="M160.6 392v-9m0-364.9v9"/><text transform="translate(160.6 413.9)" stroke="none" fill="#000" font-family="Arial" font-size="12" text-anchor="middle"><tspan>20</tspan></text></g><g fill="none" color="#000" stroke="currentColor"><path stroke="#000" d="M218.1 392v-9m0-364.9v9"/><text transform="translate(218.1 413.9)" stroke="none" fill="#000" font-family="Arial" font-size="12" text-anchor="middle"><tspan>30</tspan></text></g><g fill="none" color="#000" stroke="currentColor"><path stroke="#000" d="M275.7 392v-9m0-364.9v9"/><text transform="translate(275.7 413.9)" stroke="none" fill="#000" font-family="Arial" font-size="12" text-anchor="middle"><tspan>40</tspan></text></g><g fill="none" color="#000" stroke="currentColor"><path stroke="#000" d="M333.2 392v-9m0-364.9v9"/><text transform="translate(333.2 413.9)" stroke="none" fill="#000" font-family="Arial" font-size="12" text-anchor="middle"><tspan>50</tspan></text></g><g fill="none" color="#000" stroke="currentColor"><path stroke="#000" d="M390.7 392v-9m0-364.9v9"/><text transform="translate(390.7 413.9)" stroke="none" fill="#000" font-family="Arial" font-size="12" text-anchor="middle"><tspan>60</tspan></text></g><g fill="none" color="#000" stroke="currentColor"><path stroke="#000" d="M448.2 392v-9m0-364.9v9"/><text transform="translate(448.2 413.9)" stroke="none" fill="#000" font-family="Arial" font-size="12" text-anchor="middle"><tspan>70</tspan></text></g><g fill="none" color="#000" stroke="currentColor"><path stroke="#000" d="M505.7 392v-9m0-364.9v9"/><text transform="translate(505.7 413.9)" stroke="none" fill="#000" font-family="Arial" font-size="12" text-anchor="middle"><tspan>80</tspan></text></g><g fill="none" color="#000" stroke="currentColor"><path stroke="#000" d="M563.2 392v-9m0-364.9v9"/><text transform="translate(563.2 413.9)" stroke="none" fill="#000" font-family="Arial" font-size="12" text-anchor="middle"><tspan>90</tspan></text></g><path stroke="#000" d="M45.6 18.1V392H615V18.1H45.6z" fill="none" color="#000"/><text transform="translate(479.3 431.9)" stroke="none" fill="#000" font-family="Arial" font-size="12" text-anchor="end" color="#000"><tspan>pages+cached+noexternal+nojs</tspan></text><path stroke="#9400D3" d="M487.6 428h42.2M45.6 368.3l5.8 3.4 5.7-4.1 5.8-13.8 5.7 7 5.8 7.2 5.7 6.7 5.8-5.8 5.7-4.2 5.8-5.3 5.7 11.5 5.8-14.4 5.7 19.5 5.8-16.2 5.7-.8 5.8 6.2 5.7-1.5 5.8 2.2 5.7 2.6 5.8.8 5.7-6.8 5.8 5.2 5.7-2.3 5.8 5.5 5.7-10 5.8 10.2 5.7-8.1 5.8-5.1 5.7 8.9 5.8-1.2 5.7-13.8 5.8 22.2 5.7-23.6 5.8 18.8 5.8-6.9 5.7.4 5.8 3 5.7 3.8 5.8 3.4 5.7-.9 5.8-9.4 5.7-3.8 5.8 20.3 5.7-20.5 5.8 4.5 5.7 4.5 5.8 13.2 5.7-7.1 5.8-13.9 5.7-3.9 5.8 14.2 5.7-7.7 5.8-.7 5.7-7 5.8 3.6 5.7 11.9 5.8-1.9 5.7 3.3 5.8 4.2 5.7 9 5.8-30.2 5.7 1.9 5.8 5.2 5.7 1.3 5.8-7.5 5.7 3.1 5.8 8.4 5.8-6 5.7 1.1 5.8 5.1 5.7-6.5 5.8 18.9 5.7-18 5.8 18.9 5.7 1.4 5.8-3.4 5.7-14.3 5.8 14 5.7 3.2 5.8-16.2 5.7-2.9 5.8 4 5.7-.5L523 380l5.7-20.7 5.8 7.9 5.7 14.8 5.8-17.4 5.7 15.6 5.8-13.5 5.7-.8 5.8 2.5 5.7 7 5.8-5 5.7 6 5.8.5 5.7-14.3 5.8 14.2 5.7-11.6 5.8 12.2" fill="none" color="#000"/><text transform="translate(479.3 449.9)" stroke="none" fill="#000" font-family="Arial" font-size="12" text-anchor="end" color="#000"><tspan>pages+cached+noexternal+nofonts+nosvg+noimg</tspan></text><path stroke="#009E73" d="M487.6 446h42.2M45.6 116.4l5.8 11.9 5.7-.7 5.8 3.8 5.7 1.4 5.8-8.8 5.7-10.9 5.8 3.7 5.7-5.7 5.8 10.2 5.7-26.7 5.8 25.3 5.7-16.5 5.8 9.8 5.7-5.7 5.8 28.4 5.7-16.7 5.8 2.1 5.7-6.1 5.8-3 5.7 8.6 5.8 1.8 5.7-28.4 5.8 23.5 5.7 18.8 5.8-35 5.7 31.7 5.8-11.8 5.7-13.4 5.8 22.2 5.7-1.1 5.8-26.6 5.7 11.4 5.8 1.9 5.8 7.5 5.7-4.2 5.8 2.4 5.7 8.2 5.8-18.5 5.7-.9 5.8-2 5.7 3.7 5.8 11.5 5.7 7.9 5.8-16.7 5.7-6.5 5.8 17.5 5.7-15.5 5.8 21.6 5.7-13.4 5.8 10.2 5.7-4.5 5.8-47.9 5.7 34.6 5.8 13.6 5.7-2.4h5.8l5.7-8.8 5.8 15.2 5.7-2.3 5.8-33.3 5.7 26.9 5.8-13.4 5.7 3.6 5.8-6.4 5.7 29.1 5.8-31.1 5.8 38.8 5.7-25.8 5.8-16.5 5.7-23.6L454 121l5.7-6.4 5.8-89.3 5.7 87 5.8 5 5.7-5.4 5.8 21.3 5.7-24.8 5.8 24.3 5.7-13.5 5.8-6.2 5.7 13.3 5.8 4.1 5.7-22.5 5.8 7.9 5.7.1 5.8 7.7 5.7 1.4 5.8-2.1 5.7 2.4 5.8-15.1 5.7.5 5.8-10.1 5.7 19.9 5.8 12.6 5.7-25.1 5.8 21.7 5.7-21.4 5.8 7.2" fill="none" color="#000"/><text transform="translate(479.3 467.9)" stroke="none" fill="#000" font-family="Arial" font-size="12" text-anchor="end" color="#000"><tspan>score p10=1282</tspan></text><path stroke="#56B4E9" d="M487.6 464h42.2" fill="none" color="#000"/><g><text transform="translate(479.3 485.9)" stroke="none" fill="#000" font-family="Arial" font-size="12" text-anchor="end" color="#000"><tspan>score median=3500</tspan></text><path stroke="#E69F00" d="M487.6 482h42.2" fill="none" color="#000"/></g><g fill="none" color="#000" stroke="currentColor"><path stroke="#000" d="M45.6 18.1V392H615V18.1H45.6z"/></g></svg>