<svg width="640" height="500" xmlns="http://www.w3.org/2000/svg" xmlns:xlink="http://www.w3.org/1999/xlink"><path fill="#fff" d="M0 0h640v500H0z"/><defs><path id="d" stroke-width=".222" stroke="currentColor" d="M-1-1h2v2h-2z"/><path id="b" stroke-width=".222" stroke="currentColor" d="M0-1.33l-1.33 2h2.66z"/><path id="f" stroke-width=".222" stroke="currentColor" d="M0 1.33L1.265.411.782-1.067l-1.564-.009-.483 1.487z"/><use xlink:href="#b" id="c" stroke="currentColor" transform="rotate(180)"/><use xlink:href="#d" id="e" stroke="currentColor" transform="rotate(45)"/><circle id="a" stroke-width=".222" stroke="currentColor" cx="0" cy="0" r="1"/></defs><g fill="none" color="#000" stroke="currentColor"><path stroke="#000" d="M45.6 340.8h9m560.4 0h-9"/><text transform="translate(37.3 344.7)" stroke="none" fill="#000" font-family="Arial" font-size="12" text-anchor="end"><tspan>20</tspan></text></g><g fill="none" color="#000" stroke="currentColor"><path stroke="#000" d="M45.6 286.6h9m560.4 0h-9"/><text transform="translate(37.3 290.5)" stroke="none" fill="#000" font-family="Arial" font-size="12" text-anchor="end"><tspan>25</tspan></text></g><g fill="none" color="#000" stroke="currentColor"><path stroke="#000" d="M45.6 232.3h9m560.4 0h-9"/><text transform="translate(37.3 236.2)" stroke="none" fill="#000" font-family="Arial" font-size="12" text-anchor="end"><tspan>30</tspan></text></g><g fill="none" color="#000" stroke="currentColor"><path stroke="#000" d="M45.6 178.1h9m560.4 0h-9"/><text transform="translate(37.3 182)" stroke="none" fill="#000" font-family="Arial" font-size="12" text-anchor="end"><tspan>35</tspan></text></g><g fill="none" color="#000" stroke="currentColor"><path stroke="#000" d="M45.6 123.9h9m560.4 0h-9"/><text transform="translate(37.3 127.8)" stroke="none" fill="#000" font-family="Arial" font-size="12" text-anchor="end"><tspan>40</tspan></text></g><g fill="none" color="#000" stroke="currentColor"><path stroke="#000" d="M45.6 69.6h9m560.4 0h-9"/><text transform="translate(37.3 73.5)" stroke="none" fill="#000" font-family="Arial" font-size="12" text-anchor="end"><tspan>45</tspan></text></g><g fill="none" color="#000" stroke="currentColor"><path stroke="#000" d="M45.6 392v-9m0-364.9v9"/><text transform="translate(45.6 413.9)" stroke="none" fill="#000" font-family="Arial" font-size="12" text-anchor="middle"><tspan>0</tspan></text></g><g fill="none" color="#000" stroke="currentColor"><path stroke="#000" d="M103.1 392v-9m0-364.9v9"/><text transform="translate(103.1 413.9)" stroke="none" fill="#000" font-family="Arial" font-size="12" text-anchor="middle"><tspan>10</tspan></text></g><g fill="none" color="#000" stroke="currentColor"><path stroke="#000" d="M160.6 392v-9m0-364.9v9"/><text transform="translate(160.6 413.9)" stroke="none" fill="#000" font-family="Arial" font-size="12" text-anchor="middle"><tspan>20</tspan></text></g><g fill="none" color="#000" stroke="currentColor"><path stroke="#000" d="M218.1 392v-9m0-364.9v9"/><text transform="translate(218.1 413.9)" stroke="none" fill="#000" font-family="Arial" font-size="12" text-anchor="middle"><tspan>30</tspan></text></g><g fill="none" color="#000" stroke="currentColor"><path stroke="#000" d="M275.7 392v-9m0-364.9v9"/><text transform="translate(275.7 413.9)" stroke="none" fill="#000" font-family="Arial" font-size="12" text-anchor="middle"><tspan>40</tspan></text></g><g fill="none" color="#000" stroke="currentColor"><path stroke="#000" d="M333.2 392v-9m0-364.9v9"/><text transform="translate(333.2 413.9)" stroke="none" fill="#000" font-family="Arial" font-size="12" text-anchor="middle"><tspan>50</tspan></text></g><g fill="none" color="#000" stroke="currentColor"><path stroke="#000" d="M390.7 392v-9m0-364.9v9"/><text transform="translate(390.7 413.9)" stroke="none" fill="#000" font-family="Arial" font-size="12" text-anchor="middle"><tspan>60</tspan></text></g><g fill="none" color="#000" stroke="currentColor"><path stroke="#000" d="M448.2 392v-9m0-364.9v9"/><text transform="translate(448.2 413.9)" stroke="none" fill="#000" font-family="Arial" font-size="12" text-anchor="middle"><tspan>70</tspan></text></g><g fill="none" color="#000" stroke="currentColor"><path stroke="#000" d="M505.7 392v-9m0-364.9v9"/><text transform="translate(505.7 413.9)" stroke="none" fill="#000" font-family="Arial" font-size="12" text-anchor="middle"><tspan>80</tspan></text></g><g fill="none" color="#000" stroke="currentColor"><path stroke="#000" d="M563.2 392v-9m0-364.9v9"/><text transform="translate(563.2 413.9)" stroke="none" fill="#000" font-family="Arial" font-size="12" text-anchor="middle"><tspan>90</tspan></text></g><path stroke="#000" d="M45.6 18.1V392H615V18.1H45.6z" fill="none" color="#000"/><text transform="translate(504.2 431.9)" stroke="none" fill="#000" font-family="Arial" font-size="12" text-anchor="end" color="#000"><tspan>pages+cached+noexternal+nofonts+nosvg+noimg</tspan></text><path stroke="#9400D3" d="M512.5 428h42.2M45.6 131.5l5.8 13.3 5.7-.8 5.8 4.3 5.7 1.5 5.8-9.8 5.7-12.2 5.8 4.2 5.7-6.5 5.8 11.5 5.7-29.9 5.8 28.3 5.7-18.5 5.8 11.1 5.7-6.5 5.8 31.9 5.7-18.7 5.8 2.3 5.7-6.9 5.8-3.3 5.7 9.6 5.8 2.1 5.7-31.7 5.8 26.2 5.7 21 5.8-39.1 5.7 35.4 5.8-13.2 5.7-14.9 5.8 24.8 5.7-1.2 5.8-29.8 5.7 12.7 5.8 2.1 5.8 8.5 5.7-4.8 5.8 2.7 5.7 9.2 5.8-20.6 5.7-1.1 5.8-2.2 5.7 4.1 5.8 12.9 5.7 8.8 5.8-18.7 5.7-7.2 5.8 19.5 5.7-17.3 5.8 24.2 5.7-15.1 5.8 11.5 5.7-5.1 5.8-53.5 5.7 38.6 5.8 15.3 5.7-2.8h5.8l5.7-9.7 5.8 16.9 5.7-2.5 5.8-37.3 5.7 30.1 5.8-15 5.7 4 5.8-7.1 5.7 32.5 5.8-34.7 5.8 43.3 5.7-28.8 5.8-18.4 5.7-26.4 5.8 52.1 5.7-7.2 5.8-99.8 5.7 97.2 5.8 5.6 5.7-6 5.8 23.8 5.7-27.7 5.8 27.2 5.7-15.2 5.8-6.9 5.7 14.9 5.8 4.6 5.7-25.2 5.8 8.8 5.7.1 5.8 8.7 5.7 1.5 5.8-2.4 5.7 2.7 5.8-16.9 5.7.7 5.8-11.3 5.7 22.2 5.8 14.1 5.7-28 5.8 24.2 5.7-23.9 5.8 8" fill="none" color="#000"/><text transform="translate(504.2 449.9)" stroke="none" fill="#000" font-family="Arial" font-size="12" text-anchor="end" color="#000"><tspan>pages+cached+noexternal+nofonts+nosvg+noimg+nocss</tspan></text><path stroke="#009E73" d="M512.5 446h42.2M45.6 369.7l5.8-13.6 5.7 6.1 5.8.7 5.7-6 5.8-8.2 5.7 16.4 5.8 2 5.7 4.3 5.8-17.2 5.7 2.8 5.8 12.6 5.7-5.1 5.8 20.3 5.7-20.1 5.8-19.9 5.7 23.7 5.8-19.6 5.7-6.1 5.8 13 5.7-330.5 5.8 337.1 5.7-3.3 5.8.8 5.7 8.3 5.8 4.3 5.7-22.1 5.8 12 5.7-12.3 5.8 18.5 5.7-6.7 5.8-.6 5.7-.4 5.8.7 5.8 10.9 5.7-14.5 5.8 9.7 5.7-.8 5.8-2.7 5.7-.9 5.8-4.1 5.7 19.4 5.8-20.3 5.7.2 5.8-1.9 5.7-8 5.8 10.2 5.7 13.5 5.8-17.2 5.7 21 5.8-16.7 5.7 7 5.8-14.9 5.7 1.3 5.8 2.5 5.7 2.9 5.8 11.4 5.7 1.7 5.8-4.3 5.7-17.9 5.8 33.6 5.7-11 5.8-28.7 5.7 33.1 5.8-6.1 5.7-11.3 5.8 1.7 5.8-8.2 5.7 5.2 5.8-7.4 5.7-.2 5.8 26.9 5.7-18.4 5.8 12.1 5.7-11.8 5.8 12.9 5.7-23.6 5.8 16.4 5.7 12.8 5.8-7.6 5.7-4.7 5.8-3.5 5.7-13 5.8-2.3 5.7 8.7 5.8 21.1 5.7-11.3 5.8-8.2 5.7-7.5 5.8 4.8 5.7 14.5 5.8-1.1 5.7-1.5 5.8-3.2 5.7-4 5.8 13.6 5.7-8.6 5.8 13.3 5.7-34.5 5.8 23.1" fill="none" color="#000"/><text transform="translate(504.2 467.9)" stroke="none" fill="#000" font-family="Arial" font-size="12" text-anchor="end" color="#000"><tspan>score p10=1282</tspan></text><path stroke="#56B4E9" d="M512.5 464h42.2" fill="none" color="#000"/><g><text transform="translate(504.2 485.9)" stroke="none" fill="#000" font-family="Arial" font-size="12" text-anchor="end" color="#000"><tspan>score median=3500</tspan></text><path stroke="#E69F00" d="M512.5 482h42.2" fill="none" color="#000"/></g><g fill="none" color="#000" stroke="currentColor"><path stroke="#000" d="M45.6 18.1V392H615V18.1H45.6z"/></g></svg>