<svg width="640" height="500" xmlns="http://www.w3.org/2000/svg" xmlns:xlink="http://www.w3.org/1999/xlink"><path fill="#fff" d="M0 0h640v500H0z"/><defs><path id="d" stroke-width=".222" stroke="currentColor" d="M-1-1h2v2h-2z"/><path id="b" stroke-width=".222" stroke="currentColor" d="M0-1.33l-1.33 2h2.66z"/><path id="f" stroke-width=".222" stroke="currentColor" d="M0 1.33L1.265.411.782-1.067l-1.564-.009-.483 1.487z"/><use xlink:href="#b" id="c" stroke="currentColor" transform="rotate(180)"/><use xlink:href="#d" id="e" stroke="currentColor" transform="rotate(45)"/><circle id="a" stroke-width=".222" stroke="currentColor" cx="0" cy="0" r="1"/></defs><g fill="none" color="#000" stroke="currentColor"><path stroke="#000" d="M45.6 391.6h9m560.4 0h-9"/><text transform="translate(37.3 395.5)" stroke="none" fill="#000" font-family="Arial" font-size="12" text-anchor="end"><tspan>5</tspan></text></g><g fill="none" color="#000" stroke="currentColor"><path stroke="#000" d="M45.6 350h9m560.4 0h-9"/><text transform="translate(37.3 353.9)" stroke="none" fill="#000" font-family="Arial" font-size="12" text-anchor="end"><tspan>10</tspan></text></g><g fill="none" color="#000" stroke="currentColor"><path stroke="#000" d="M45.6 308.5h9m560.4 0h-9"/><text transform="translate(37.3 312.4)" stroke="none" fill="#000" font-family="Arial" font-size="12" text-anchor="end"><tspan>15</tspan></text></g><g fill="none" color="#000" stroke="currentColor"><path stroke="#000" d="M45.6 267h9m560.4 0h-9"/><text transform="translate(37.3 270.9)" stroke="none" fill="#000" font-family="Arial" font-size="12" text-anchor="end"><tspan>20</tspan></text></g><g fill="none" color="#000" stroke="currentColor"><path stroke="#000" d="M45.6 225.4h9m560.4 0h-9"/><text transform="translate(37.3 229.3)" stroke="none" fill="#000" font-family="Arial" font-size="12" text-anchor="end"><tspan>25</tspan></text></g><g fill="none" color="#000" stroke="currentColor"><path stroke="#000" d="M45.6 183.9h9m560.4 0h-9"/><text transform="translate(37.3 187.8)" stroke="none" fill="#000" font-family="Arial" font-size="12" text-anchor="end"><tspan>30</tspan></text></g><g fill="none" color="#000" stroke="currentColor"><path stroke="#000" d="M45.6 142.3h9m560.4 0h-9"/><text transform="translate(37.3 146.2)" stroke="none" fill="#000" font-family="Arial" font-size="12" text-anchor="end"><tspan>35</tspan></text></g><g fill="none" color="#000" stroke="currentColor"><path stroke="#000" d="M45.6 100.8h9m560.4 0h-9"/><text transform="translate(37.3 104.7)" stroke="none" fill="#000" font-family="Arial" font-size="12" text-anchor="end"><tspan>40</tspan></text></g><g fill="none" color="#000" stroke="currentColor"><path stroke="#000" d="M45.6 59.2h9m560.4 0h-9"/><text transform="translate(37.3 63.1)" stroke="none" fill="#000" font-family="Arial" font-size="12" text-anchor="end"><tspan>45</tspan></text></g><g fill="none" color="#000" stroke="currentColor"><path stroke="#000" d="M45.6 392v-9m0-364.9v9"/><text transform="translate(45.6 413.9)" stroke="none" fill="#000" font-family="Arial" font-size="12" text-anchor="middle"><tspan>0</tspan></text></g><g fill="none" color="#000" stroke="currentColor"><path stroke="#000" d="M103.1 392v-9m0-364.9v9"/><text transform="translate(103.1 413.9)" stroke="none" fill="#000" font-family="Arial" font-size="12" text-anchor="middle"><tspan>10</tspan></text></g><g fill="none" color="#000" stroke="currentColor"><path stroke="#000" d="M160.6 392v-9m0-364.9v9"/><text transform="translate(160.6 413.9)" stroke="none" fill="#000" font-family="Arial" font-size="12" text-anchor="middle"><tspan>20</tspan></text></g><g fill="none" color="#000" stroke="currentColor"><path stroke="#000" d="M218.1 392v-9m0-364.9v9"/><text transform="translate(218.1 413.9)" stroke="none" fill="#000" font-family="Arial" font-size="12" text-anchor="middle"><tspan>30</tspan></text></g><g fill="none" color="#000" stroke="currentColor"><path stroke="#000" d="M275.7 392v-9m0-364.9v9"/><text transform="translate(275.7 413.9)" stroke="none" fill="#000" font-family="Arial" font-size="12" text-anchor="middle"><tspan>40</tspan></text></g><g fill="none" color="#000" stroke="currentColor"><path stroke="#000" d="M333.2 392v-9m0-364.9v9"/><text transform="translate(333.2 413.9)" stroke="none" fill="#000" font-family="Arial" font-size="12" text-anchor="middle"><tspan>50</tspan></text></g><g fill="none" color="#000" stroke="currentColor"><path stroke="#000" d="M390.7 392v-9m0-364.9v9"/><text transform="translate(390.7 413.9)" stroke="none" fill="#000" font-family="Arial" font-size="12" text-anchor="middle"><tspan>60</tspan></text></g><g fill="none" color="#000" stroke="currentColor"><path stroke="#000" d="M448.2 392v-9m0-364.9v9"/><text transform="translate(448.2 413.9)" stroke="none" fill="#000" font-family="Arial" font-size="12" text-anchor="middle"><tspan>70</tspan></text></g><g fill="none" color="#000" stroke="currentColor"><path stroke="#000" d="M505.7 392v-9m0-364.9v9"/><text transform="translate(505.7 413.9)" stroke="none" fill="#000" font-family="Arial" font-size="12" text-anchor="middle"><tspan>80</tspan></text></g><g fill="none" color="#000" stroke="currentColor"><path stroke="#000" d="M563.2 392v-9m0-364.9v9"/><text transform="translate(563.2 413.9)" stroke="none" fill="#000" font-family="Arial" font-size="12" text-anchor="middle"><tspan>90</tspan></text></g><path stroke="#000" d="M45.6 18.1V392H615V18.1H45.6z" fill="none" color="#000"/><text transform="translate(525 431.9)" stroke="none" fill="#000" font-family="Arial" font-size="12" text-anchor="end" color="#000"><tspan>pages+cached+noexternal+nofonts+nosvg+noimg+nocss</tspan></text><path stroke="#9400D3" d="M533.3 428h42.2M45.6 289.1l5.8-10.5 5.7 4.7 5.8.6 5.7-4.6 5.8-6.3 5.7 12.6 5.8 1.4 5.7 3.4 5.8-13.2 5.7 2.2 5.8 9.6 5.7-3.9 5.8 15.5 5.7-15.4 5.8-15.2 5.7 18.1 5.8-15 5.7-4.7 5.8 10 5.7-253.1 5.8 258.2 5.7-2.6 5.8.7 5.7 6.3 5.8 3.3 5.7-16.9 5.8 9.2 5.7-9.4 5.8 14.1 5.7-5.1 5.8-.5 5.7-.3 5.8.5 5.8 8.4 5.7-11.1 5.8 7.4 5.7-.6 5.8-2.1 5.7-.6 5.8-3.2 5.7 14.9 5.8-15.6 5.7.2 5.8-1.5 5.7-6.1 5.8 7.8 5.7 10.3 5.8-13.1 5.7 16.1 5.8-12.9 5.7 5.4 5.8-11.4 5.7 1 5.8 1.9 5.7 2.2 5.8 8.8 5.7 1.3 5.8-3.3 5.7-13.7 5.8 25.7 5.7-8.4 5.8-22 5.7 25.3 5.8-4.6 5.7-8.7 5.8 1.3 5.8-6.3 5.7 4 5.8-5.7 5.7-.1 5.8 20.6 5.7-14.1 5.8 9.3 5.7-9.1 5.8 10 5.7-18.1 5.8 12.5 5.7 9.8 5.8-5.8 5.7-3.6 5.8-2.7 5.7-9.9 5.8-1.8 5.7 6.7 5.8 16.1 5.7-8.6 5.8-6.3 5.7-5.8 5.8 3.7 5.7 11.1 5.8-.8 5.7-1.2 5.8-2.4 5.7-3.1 5.8 10.5 5.7-6.7 5.8 10.2 5.7-26.3 5.8 17.6" fill="none" color="#000"/><text transform="translate(525 449.9)" stroke="none" fill="#000" font-family="Arial" font-size="12" text-anchor="end" color="#000"><tspan>pages+cached+noexternal+nofonts+nosvg+noimg+nocss+nojs</tspan></text><path stroke="#009E73" d="M533.3 446h42.2M45.6 368.4l5.8 9.2 5.7-1.4 5.8-3.9 5.7 3 5.8-12.5 5.7 10.7 5.8 3.6 5.7-8.5 5.8 6.4 5.7 1.7 5.8-5.3 5.7 6.4 5.8-2.2 5.7 3.1 5.8-6.6 5.7 9.5 5.8-1.4 5.7-2.9 5.8-2.3 5.7-10.2 5.8 6.9 5.7-12.8 5.8 5.2 5.7 9.9 5.8 4.9 5.7-6.6 5.8 2.7 5.7 2.4 5.8-12.5 5.7 4.8 5.8-.6 5.7 2.5 5.8 5.7h5.8l5.7 1.9 5.8-2.3 5.7-.2 5.8-2 5.7 3.6 5.8.2 5.7-12.8 5.8 5.3 5.7 4.3 5.8 3.1 5.7-10.9 5.8 3.7 5.7.9 5.8 4.7 5.7.7 5.8-2.8 5.7 3.1 5.8 1 5.7-3.8 5.8 1.4 5.7-1.6 5.8 2.9 5.7-9.8 5.8 8.6 5.7 8.3 5.8-14.1 5.7 4.2 5.8.4 5.7 6 5.8-4.7 5.7-4.1 5.8.5 5.8-5.9 5.7 6.1 5.8 4.6 5.7-1.3 5.8-6.9 5.7.8 5.8 5.4 5.7 3 5.8-8.9 5.7 5.6 5.8-5.1 5.7 3.6 5.8-3.6 5.7 3.7 5.8-6.9 5.7 7.9 5.8-4.2 5.7-.8 5.8 2.7 5.7 6.4L546 366l5.7 13.9 5.8-8.9 5.7 9.5 5.8 2.4 5.7-4.2 5.8.4 5.7-7.3 5.8 3 5.7-4.8h5.8l5.7 3.6 5.8-7.6" fill="none" color="#000"/><text transform="translate(525 467.9)" stroke="none" fill="#000" font-family="Arial" font-size="12" text-anchor="end" color="#000"><tspan>score p10=1282</tspan></text><path stroke="#56B4E9" d="M533.3 464h42.2" fill="none" color="#000"/><g><text transform="translate(525 485.9)" stroke="none" fill="#000" font-family="Arial" font-size="12" text-anchor="end" color="#000"><tspan>score median=3500</tspan></text><path stroke="#E69F00" d="M533.3 482h42.2" fill="none" color="#000"/></g><g fill="none" color="#000" stroke="currentColor"><path stroke="#000" d="M45.6 18.1V392H615V18.1H45.6z"/></g></svg>