<svg width="640" height="500" xmlns="http://www.w3.org/2000/svg" xmlns:xlink="http://www.w3.org/1999/xlink"><path fill="#fff" d="M0 0h640v500H0z"/><defs><path id="d" stroke-width=".222" stroke="currentColor" d="M-1-1h2v2h-2z"/><path id="b" stroke-width=".222" stroke="currentColor" d="M0-1.33l-1.33 2h2.66z"/><path id="f" stroke-width=".222" stroke="currentColor" d="M0 1.33L1.265.411.782-1.067l-1.564-.009-.483 1.487z"/><use xlink:href="#b" id="c" stroke="currentColor" transform="rotate(180)"/><use xlink:href="#d" id="e" stroke="currentColor" transform="rotate(45)"/><circle id="a" stroke-width=".222" stroke="currentColor" cx="0" cy="0" r="1"/></defs><g fill="none" color="#000" stroke="currentColor"><path stroke="#000" d="M53.9 396.8h9m552.1 0h-9"/><text transform="translate(45.6 400.7)" stroke="none" fill="#000" font-family="Arial" font-size="12" text-anchor="end"><tspan>550</tspan></text></g><g fill="none" color="#000" stroke="currentColor"><path stroke="#000" d="M53.9 301.8h9m552.1 0h-9"/><text transform="translate(45.6 305.7)" stroke="none" fill="#000" font-family="Arial" font-size="12" text-anchor="end"><tspan>600</tspan></text></g><g fill="none" color="#000" stroke="currentColor"><path stroke="#000" d="M53.9 206.8h9m552.1 0h-9"/><text transform="translate(45.6 210.7)" stroke="none" fill="#000" font-family="Arial" font-size="12" text-anchor="end"><tspan>650</tspan></text></g><g fill="none" color="#000" stroke="currentColor"><path stroke="#000" d="M53.9 111.8h9m552.1 0h-9"/><text transform="translate(45.6 115.7)" stroke="none" fill="#000" font-family="Arial" font-size="12" text-anchor="end"><tspan>700</tspan></text></g><g fill="none" color="#000" stroke="currentColor"><path stroke="#000" d="M53.9 428v-9m0-400.9v9"/><text transform="translate(53.9 449.9)" stroke="none" fill="#000" font-family="Arial" font-size="12" text-anchor="middle"><tspan>0</tspan></text></g><g fill="none" color="#000" stroke="currentColor"><path stroke="#000" d="M110.6 428v-9m0-400.9v9"/><text transform="translate(110.6 449.9)" stroke="none" fill="#000" font-family="Arial" font-size="12" text-anchor="middle"><tspan>10</tspan></text></g><g fill="none" color="#000" stroke="currentColor"><path stroke="#000" d="M167.3 428v-9m0-400.9v9"/><text transform="translate(167.3 449.9)" stroke="none" fill="#000" font-family="Arial" font-size="12" text-anchor="middle"><tspan>20</tspan></text></g><g fill="none" color="#000" stroke="currentColor"><path stroke="#000" d="M223.9 428v-9m0-400.9v9"/><text transform="translate(223.9 449.9)" stroke="none" fill="#000" font-family="Arial" font-size="12" text-anchor="middle"><tspan>30</tspan></text></g><g fill="none" color="#000" stroke="currentColor"><path stroke="#000" d="M280.6 428v-9m0-400.9v9"/><text transform="translate(280.6 449.9)" stroke="none" fill="#000" font-family="Arial" font-size="12" text-anchor="middle"><tspan>40</tspan></text></g><g fill="none" color="#000" stroke="currentColor"><path stroke="#000" d="M337.3 428v-9m0-400.9v9"/><text transform="translate(337.3 449.9)" stroke="none" fill="#000" font-family="Arial" font-size="12" text-anchor="middle"><tspan>50</tspan></text></g><g fill="none" color="#000" stroke="currentColor"><path stroke="#000" d="M394 428v-9m0-400.9v9"/><text transform="translate(394 449.9)" stroke="none" fill="#000" font-family="Arial" font-size="12" text-anchor="middle"><tspan>60</tspan></text></g><g fill="none" color="#000" stroke="currentColor"><path stroke="#000" d="M450.6 428v-9m0-400.9v9"/><text transform="translate(450.6 449.9)" stroke="none" fill="#000" font-family="Arial" font-size="12" text-anchor="middle"><tspan>70</tspan></text></g><g fill="none" color="#000" stroke="currentColor"><path stroke="#000" d="M507.3 428v-9m0-400.9v9"/><text transform="translate(507.3 449.9)" stroke="none" fill="#000" font-family="Arial" font-size="12" text-anchor="middle"><tspan>80</tspan></text></g><g fill="none" color="#000" stroke="currentColor"><path stroke="#000" d="M564 428v-9m0-400.9v9"/><text transform="translate(564 449.9)" stroke="none" fill="#000" font-family="Arial" font-size="12" text-anchor="middle"><tspan>90</tspan></text></g><path stroke="#000" d="M53.9 18.1V428H615V18.1H53.9z" fill="none" color="#000"/><text transform="translate(275.6 467.9)" stroke="none" fill="#000" font-family="Arial" font-size="12" text-anchor="end" color="#000"><tspan>pages</tspan></text><path stroke="#9400D3" d="M283.9 464h42.2M53.9 26l5.7 105.1 5.6 240.5 5.7-56.6 5.7 36.5 5.6-70.5 5.7 56.1 5.7-1.7 5.6-42.2 5.7-.4 5.7 38.4 5.6 42 5.7-17.3 5.7-35.5 5.6 53.1 5.7-72.3 5.7 19.3 5.7-14.1 5.6 18.4 5.7-37.3 5.7 1.5 5.6 22.3 5.7 30.2 5.7 5 5.6-53.2 5.7 23.1 5.7 8.7 5.6 44.4 5.7-31 5.7 6.7 5.6-48.7 5.7-9.4 5.7 65.5 5.6-22.5 5.7 25.4 5.7-21.7 5.6.7 5.7 4.2 5.7-28.6 5.6-.2 5.7 20 5.7 5.7 5.6-.4 5.7-65 5.7 13.3 5.6 22.9 5.7-7.2 5.7 39.2 5.6-9 5.7-43.3 5.7 54.4 5.7 17.4 5.6 30.3 5.7-64.6 5.7.9 5.6-16.1 5.7 52.4 5.7-56.5 5.6 30.1 5.7-2.8 5.7-24.3 5.6 36.4 5.7-54.7 5.7 46 5.6-12.6 5.7-9L428 302l5.6 46.6 5.7-41.7L445 373l5.6-47.1 5.7 45.9 5.7-21.6 5.6-80.1 5.7 50.8 5.7-.3 5.6-.1 5.7 17.8 5.7-46.4 5.6 57.6 5.7-16.9 5.7-15 5.6 10.6 5.7-15.6 5.7 10.1 5.7-43.9 5.6-180 5.7 234.6 5.7-9.4 5.6 13.9 5.7-23.4 5.7 52.1 5.6-43.8 5.7 2.9 5.7-36.2 5.6 42.1 5.7-8.1 5.7-20.6 5.6 22 5.7-30.2" fill="none" color="#000"/><text transform="translate(275.6 485.9)" stroke="none" fill="#000" font-family="Arial" font-size="12" text-anchor="end" color="#000"><tspan>pages+cached</tspan></text><path stroke="#009E73" d="M283.9 482h42.2M53.9 361l5.7-9.3 5.6 25.7 5.7-27.7 5.7 4.6 5.6-81.3 5.7 128.9 5.7-67.9 5.6 51.7 5.7-27.7 5.7 40.7 5.6-4.3 5.7-37.8 5.7-111.9 5.6 109.7 5.7-25.1 5.7 70.5 5.7-78.6 5.6 25.8 5.7 52.1 5.7-44.6 5.6-2.3 5.7-9 5.7 54.1 5.6-57.4 5.7-28.7 5.7 83.9 5.6-46.4 5.7 13.5 5.7 23.7 5.6-35.9 5.7 39.6 5.7 13.9 5.6 3.9 5.7 5.3 5.7-87.5 5.6 49.2 5.7-128.4 5.7 144.7 5.6-11.5 5.7-28 5.7.4 5.6-15.8 5.7-26.9 5.7 84 5.6-54.5 5.7 60.3 5.7-98.4 5.6 106 5.7-59.9 5.7 47.4 5.7-96.1 5.6 83.6 5.7 7.2 5.7-46.3 5.6 33.5 5.7-2.7 5.7 13.6 5.6-24.4 5.7-17.9 5.7 60.4 5.6-22 5.7 28.9L411 380l5.6-36.3 5.7-19.4 5.7 74.9 5.6-39.1 5.7 24.4 5.7 16.1 5.6 2.6 5.7-4.9 5.7-66.8 5.6 44.8 5.7-18.6 5.7 33.7 5.6 10.8 5.7 17.9 5.7-24.8 5.6-38.7 5.7-21.4 5.7 27.2 5.6-7.5 5.7 52.2 5.7-12 5.7 10.8 5.6-10.9 5.7 4 5.7 2.2 5.6 1.1 5.7-49.9 5.7 37.3 5.6-3.7 5.7 14.8 5.7-53.9 5.6 55.6 5.7-4.1 5.7-.4 5.6-56.7 5.7 3" fill="none" color="#000"/><text transform="translate(475.5 467.9)" stroke="none" fill="#000" font-family="Arial" font-size="12" text-anchor="end" color="#000"><tspan>score p10=1282</tspan></text><path stroke="#56B4E9" d="M483.8 464H526" fill="none" color="#000"/><g><text transform="translate(475.5 485.9)" stroke="none" fill="#000" font-family="Arial" font-size="12" text-anchor="end" color="#000"><tspan>score median=3500</tspan></text><path stroke="#E69F00" d="M483.8 482H526" fill="none" color="#000"/></g><g fill="none" color="#000" stroke="currentColor"><path stroke="#000" d="M53.9 18.1V428H615V18.1H53.9z"/></g></svg>