<svg width="640" height="500" xmlns="http://www.w3.org/2000/svg" xmlns:xlink="http://www.w3.org/1999/xlink"><path fill="#fff" d="M0 0h640v500H0z"/><defs><path id="d" stroke-width=".222" stroke="currentColor" d="M-1-1h2v2h-2z"/><path id="b" stroke-width=".222" stroke="currentColor" d="M0-1.33l-1.33 2h2.66z"/><path id="f" stroke-width=".222" stroke="currentColor" d="M0 1.33L1.265.411.782-1.067l-1.564-.009-.483 1.487z"/><use xlink:href="#b" id="c" stroke="currentColor" transform="rotate(180)"/><use xlink:href="#d" id="e" stroke="currentColor" transform="rotate(45)"/><circle id="a" stroke-width=".222" stroke="currentColor" cx="0" cy="0" r="1"/></defs><g fill="none" color="#000" stroke="currentColor"><path stroke="#000" d="M53.9 410.5h9m552.1 0h-9"/><text transform="translate(45.6 414.4)" stroke="none" fill="#000" font-family="Arial" font-size="12" text-anchor="end"><tspan>540</tspan></text></g><g fill="none" color="#000" stroke="currentColor"><path stroke="#000" d="M53.9 367.8h9m552.1 0h-9"/><text transform="translate(45.6 371.7)" stroke="none" fill="#000" font-family="Arial" font-size="12" text-anchor="end"><tspan>550</tspan></text></g><g fill="none" color="#000" stroke="currentColor"><path stroke="#000" d="M53.9 325.1h9m552.1 0h-9"/><text transform="translate(45.6 329)" stroke="none" fill="#000" font-family="Arial" font-size="12" text-anchor="end"><tspan>560</tspan></text></g><g fill="none" color="#000" stroke="currentColor"><path stroke="#000" d="M53.9 282.4h9m552.1 0h-9"/><text transform="translate(45.6 286.3)" stroke="none" fill="#000" font-family="Arial" font-size="12" text-anchor="end"><tspan>570</tspan></text></g><g fill="none" color="#000" stroke="currentColor"><path stroke="#000" d="M53.9 239.7h9m552.1 0h-9"/><text transform="translate(45.6 243.6)" stroke="none" fill="#000" font-family="Arial" font-size="12" text-anchor="end"><tspan>580</tspan></text></g><g fill="none" color="#000" stroke="currentColor"><path stroke="#000" d="M53.9 197h9m552.1 0h-9"/><text transform="translate(45.6 200.9)" stroke="none" fill="#000" font-family="Arial" font-size="12" text-anchor="end"><tspan>590</tspan></text></g><g fill="none" color="#000" stroke="currentColor"><path stroke="#000" d="M53.9 154.4h9m552.1 0h-9"/><text transform="translate(45.6 158.3)" stroke="none" fill="#000" font-family="Arial" font-size="12" text-anchor="end"><tspan>600</tspan></text></g><g fill="none" color="#000" stroke="currentColor"><path stroke="#000" d="M53.9 111.7h9m552.1 0h-9"/><text transform="translate(45.6 115.6)" stroke="none" fill="#000" font-family="Arial" font-size="12" text-anchor="end"><tspan>610</tspan></text></g><g fill="none" color="#000" stroke="currentColor"><path stroke="#000" d="M53.9 69h9M615 69h-9"/><text transform="translate(45.6 72.9)" stroke="none" fill="#000" font-family="Arial" font-size="12" text-anchor="end"><tspan>620</tspan></text></g><g fill="none" color="#000" stroke="currentColor"><path stroke="#000" d="M53.9 26.3h9m552.1 0h-9"/><text transform="translate(45.6 30.2)" stroke="none" fill="#000" font-family="Arial" font-size="12" text-anchor="end"><tspan>630</tspan></text></g><g fill="none" color="#000" stroke="currentColor"><path stroke="#000" d="M53.9 428v-9m0-400.9v9"/><text transform="translate(53.9 449.9)" stroke="none" fill="#000" font-family="Arial" font-size="12" text-anchor="middle"><tspan>0</tspan></text></g><g fill="none" color="#000" stroke="currentColor"><path stroke="#000" d="M110.6 428v-9m0-400.9v9"/><text transform="translate(110.6 449.9)" stroke="none" fill="#000" font-family="Arial" font-size="12" text-anchor="middle"><tspan>10</tspan></text></g><g fill="none" color="#000" stroke="currentColor"><path stroke="#000" d="M167.3 428v-9m0-400.9v9"/><text transform="translate(167.3 449.9)" stroke="none" fill="#000" font-family="Arial" font-size="12" text-anchor="middle"><tspan>20</tspan></text></g><g fill="none" color="#000" stroke="currentColor"><path stroke="#000" d="M223.9 428v-9m0-400.9v9"/><text transform="translate(223.9 449.9)" stroke="none" fill="#000" font-family="Arial" font-size="12" text-anchor="middle"><tspan>30</tspan></text></g><g fill="none" color="#000" stroke="currentColor"><path stroke="#000" d="M280.6 428v-9m0-400.9v9"/><text transform="translate(280.6 449.9)" stroke="none" fill="#000" font-family="Arial" font-size="12" text-anchor="middle"><tspan>40</tspan></text></g><g fill="none" color="#000" stroke="currentColor"><path stroke="#000" d="M337.3 428v-9m0-400.9v9"/><text transform="translate(337.3 449.9)" stroke="none" fill="#000" font-family="Arial" font-size="12" text-anchor="middle"><tspan>50</tspan></text></g><g fill="none" color="#000" stroke="currentColor"><path stroke="#000" d="M394 428v-9m0-400.9v9"/><text transform="translate(394 449.9)" stroke="none" fill="#000" font-family="Arial" font-size="12" text-anchor="middle"><tspan>60</tspan></text></g><g fill="none" color="#000" stroke="currentColor"><path stroke="#000" d="M450.6 428v-9m0-400.9v9"/><text transform="translate(450.6 449.9)" stroke="none" fill="#000" font-family="Arial" font-size="12" text-anchor="middle"><tspan>70</tspan></text></g><g fill="none" color="#000" stroke="currentColor"><path stroke="#000" d="M507.3 428v-9m0-400.9v9"/><text transform="translate(507.3 449.9)" stroke="none" fill="#000" font-family="Arial" font-size="12" text-anchor="middle"><tspan>80</tspan></text></g><g fill="none" color="#000" stroke="currentColor"><path stroke="#000" d="M564 428v-9m0-400.9v9"/><text transform="translate(564 449.9)" stroke="none" fill="#000" font-family="Arial" font-size="12" text-anchor="middle"><tspan>90</tspan></text></g><path stroke="#000" d="M53.9 18.1V428H615V18.1H53.9z" fill="none" color="#000"/><text transform="translate(275.6 467.9)" stroke="none" fill="#000" font-family="Arial" font-size="12" text-anchor="end" color="#000"><tspan>pages+cached</tspan></text><path stroke="#9400D3" d="M283.9 464h42.2M53.9 287.3l5.7-20.9 5.6 57.6 5.7-62.1 5.7 10.4 5.6-182.7 5.7 289.6 5.7-152.6 5.6 116.2 5.7-62.3 5.7 91.5 5.6-9.6 5.7-84.9L127.6 26l5.6 246.4 5.7-56.4 5.7 158.5 5.7-176.7 5.6 58.1 5.7 117.1 5.7-100.3 5.6-5.1 5.7-20.3 5.7 121.5 5.6-128.9 5.7-64.5 5.7 188.5 5.6-104.2 5.7 30.3 5.7 53.2 5.6-80.6 5.7 89 5.7 31.2 5.6 8.7 5.7 12.1 5.7-196.8 5.6 110.6 5.7-288.6 5.7 325.3 5.6-25.9 5.7-62.9 5.7.8 5.6-35.5 5.7-60.3 5.7 188.6 5.6-122.3 5.7 135.4 5.7-221 5.6 238 5.7-134.6 5.7 106.5L343 145l5.6 188 5.7 16 5.7-104 5.6 75.3 5.7-6 5.7 30.6 5.6-55 5.7-40.1 5.7 135.7 5.6-49.5 5.7 64.9L411 330l5.6-81.7 5.7-43.4 5.7 168.3 5.6-87.8 5.7 54.8 5.7 36 5.6 5.9 5.7-10.9L462 221l5.6 100.8 5.7-41.9 5.7 75.7 5.6 24.2 5.7 40.3 5.7-55.7 5.6-87.1 5.7-48 5.7 61.1 5.6-16.7 5.7 117.1L530 364l5.7 24.2 5.6-24.5 5.7 8.9 5.7 5.1 5.6 2.3 5.7-112.1 5.7 83.9 5.6-8.4 5.7 33.3 5.7-121.2 5.6 125 5.7-9.2 5.7-1 5.6-127.4 5.7 6.8" fill="none" color="#000"/><text transform="translate(275.6 485.9)" stroke="none" fill="#000" font-family="Arial" font-size="12" text-anchor="end" color="#000"><tspan>pages+cached+nointeractive</tspan></text><path stroke="#009E73" d="M283.9 482h42.2M53.9 238.8l5.7 154 5.6-232.2 5.7 135.2 5.7-37.3 5.6 112.2 5.7-129 5.7 143.2 5.6-120.6 5.7-130.4 5.7 158.7 5.6-29.4 5.7 39.4 5.7-44.5 5.6 133.3 5.7-3.9 5.7-109.8 5.7 124.5 5.6-35.1 5.7-94.9 5.7 111.9 5.6-10.5 5.7 14.5 5.7-106 5.6-101.7 5.7 179.2 5.7 29.4 5.6 1.1 5.7-8 5.7 19 5.6-121.4 5.7 108.1 5.7 1.4 5.6-133.3 5.7 138.3 5.7 7.3 5.6-64.9 5.7-1.3 5.7-58.2 5.6 83.9 5.7 21.4 5.7-97 5.6 130.3 5.7-135.5 5.7 107 5.6-26 5.7 8.6 5.7-33.6 5.6-15.4 5.7 60.3 5.7-11.9 5.7-5.4 5.6-.7 5.7 25.5 5.7-34.4 5.6 30.3 5.7-154.1 5.7 55.4 5.6 87.9 5.7 30.7 5.7-21.3 5.6-100.7 5.7 95.9 5.7 20.6 5.6-4.1 5.7-32.3 5.7 23.2 5.6-1.6 5.7-91 5.7 74.1 5.6-114.4 5.7 13.5 5.7 95.6 5.6-91.4 5.7 95.7 5.7 10.3 5.6 10.5 5.7.6 5.7 7.2 5.6 19 5.7-77.6 5.7 20.1 5.6-39.8 5.7 70 5.7-7 5.7-139.6 5.6 136.8 5.7-132 5.7 123.8 5.6 1 5.7 23 5.7-98.5 5.6 101.6 5.7-5.6 5.7-41 5.6-64.9 5.7 105.2 5.7-15.6 5.6-102.2 5.7 56.2" fill="none" color="#000"/><text transform="translate(550.2 467.9)" stroke="none" fill="#000" font-family="Arial" font-size="12" text-anchor="end" color="#000"><tspan>score p10=1282</tspan></text><path stroke="#56B4E9" d="M558.5 464h42.2" fill="none" color="#000"/><g><text transform="translate(550.2 485.9)" stroke="none" fill="#000" font-family="Arial" font-size="12" text-anchor="end" color="#000"><tspan>score median=3500</tspan></text><path stroke="#E69F00" d="M558.5 482h42.2" fill="none" color="#000"/></g><g fill="none" color="#000" stroke="currentColor"><path stroke="#000" d="M53.9 18.1V428H615V18.1H53.9z"/></g></svg>