<svg width="640" height="500" xmlns="http://www.w3.org/2000/svg" xmlns:xlink="http://www.w3.org/1999/xlink"><path fill="#fff" d="M0 0h640v500H0z"/><defs><path id="d" stroke-width=".222" stroke="currentColor" d="M-1-1h2v2h-2z"/><path id="b" stroke-width=".222" stroke="currentColor" d="M0-1.33l-1.33 2h2.66z"/><path id="f" stroke-width=".222" stroke="currentColor" d="M0 1.33L1.265.411.782-1.067l-1.564-.009-.483 1.487z"/><use xlink:href="#b" id="c" stroke="currentColor" transform="rotate(180)"/><use xlink:href="#d" id="e" stroke="currentColor" transform="rotate(45)"/><circle id="a" stroke-width=".222" stroke="currentColor" cx="0" cy="0" r="1"/></defs><g fill="none" color="#000" stroke="currentColor"><path stroke="#000" d="M45.6 413.7h9m560.4 0h-9"/><text transform="translate(37.3 417.6)" stroke="none" fill="#000" font-family="Arial" font-size="12" text-anchor="end"><tspan>38</tspan></text></g><g fill="none" color="#000" stroke="currentColor"><path stroke="#000" d="M45.6 371.8h9m560.4 0h-9"/><text transform="translate(37.3 375.7)" stroke="none" fill="#000" font-family="Arial" font-size="12" text-anchor="end"><tspan>39</tspan></text></g><g fill="none" color="#000" stroke="currentColor"><path stroke="#000" d="M45.6 329.8h9m560.4 0h-9"/><text transform="translate(37.3 333.7)" stroke="none" fill="#000" font-family="Arial" font-size="12" text-anchor="end"><tspan>40</tspan></text></g><g fill="none" color="#000" stroke="currentColor"><path stroke="#000" d="M45.6 287.8h9m560.4 0h-9"/><text transform="translate(37.3 291.7)" stroke="none" fill="#000" font-family="Arial" font-size="12" text-anchor="end"><tspan>41</tspan></text></g><g fill="none" color="#000" stroke="currentColor"><path stroke="#000" d="M45.6 245.8h9m560.4 0h-9"/><text transform="translate(37.3 249.7)" stroke="none" fill="#000" font-family="Arial" font-size="12" text-anchor="end"><tspan>42</tspan></text></g><g fill="none" color="#000" stroke="currentColor"><path stroke="#000" d="M45.6 203.8h9m560.4 0h-9"/><text transform="translate(37.3 207.7)" stroke="none" fill="#000" font-family="Arial" font-size="12" text-anchor="end"><tspan>43</tspan></text></g><g fill="none" color="#000" stroke="currentColor"><path stroke="#000" d="M45.6 161.8h9m560.4 0h-9"/><text transform="translate(37.3 165.7)" stroke="none" fill="#000" font-family="Arial" font-size="12" text-anchor="end"><tspan>44</tspan></text></g><g fill="none" color="#000" stroke="currentColor"><path stroke="#000" d="M45.6 119.9h9m560.4 0h-9"/><text transform="translate(37.3 123.8)" stroke="none" fill="#000" font-family="Arial" font-size="12" text-anchor="end"><tspan>45</tspan></text></g><g fill="none" color="#000" stroke="currentColor"><path stroke="#000" d="M45.6 77.9h9m560.4 0h-9"/><text transform="translate(37.3 81.8)" stroke="none" fill="#000" font-family="Arial" font-size="12" text-anchor="end"><tspan>46</tspan></text></g><g fill="none" color="#000" stroke="currentColor"><path stroke="#000" d="M45.6 35.9h9m560.4 0h-9"/><text transform="translate(37.3 39.8)" stroke="none" fill="#000" font-family="Arial" font-size="12" text-anchor="end"><tspan>47</tspan></text></g><g fill="none" color="#000" stroke="currentColor"><path stroke="#000" d="M45.6 428v-9m0-400.9v9"/><text transform="translate(45.6 449.9)" stroke="none" fill="#000" font-family="Arial" font-size="12" text-anchor="middle"><tspan>0</tspan></text></g><g fill="none" color="#000" stroke="currentColor"><path stroke="#000" d="M103.1 428v-9m0-400.9v9"/><text transform="translate(103.1 449.9)" stroke="none" fill="#000" font-family="Arial" font-size="12" text-anchor="middle"><tspan>10</tspan></text></g><g fill="none" color="#000" stroke="currentColor"><path stroke="#000" d="M160.6 428v-9m0-400.9v9"/><text transform="translate(160.6 449.9)" stroke="none" fill="#000" font-family="Arial" font-size="12" text-anchor="middle"><tspan>20</tspan></text></g><g fill="none" color="#000" stroke="currentColor"><path stroke="#000" d="M218.1 428v-9m0-400.9v9"/><text transform="translate(218.1 449.9)" stroke="none" fill="#000" font-family="Arial" font-size="12" text-anchor="middle"><tspan>30</tspan></text></g><g fill="none" color="#000" stroke="currentColor"><path stroke="#000" d="M275.7 428v-9m0-400.9v9"/><text transform="translate(275.7 449.9)" stroke="none" fill="#000" font-family="Arial" font-size="12" text-anchor="middle"><tspan>40</tspan></text></g><g fill="none" color="#000" stroke="currentColor"><path stroke="#000" d="M333.2 428v-9m0-400.9v9"/><text transform="translate(333.2 449.9)" stroke="none" fill="#000" font-family="Arial" font-size="12" text-anchor="middle"><tspan>50</tspan></text></g><g fill="none" color="#000" stroke="currentColor"><path stroke="#000" d="M390.7 428v-9m0-400.9v9"/><text transform="translate(390.7 449.9)" stroke="none" fill="#000" font-family="Arial" font-size="12" text-anchor="middle"><tspan>60</tspan></text></g><g fill="none" color="#000" stroke="currentColor"><path stroke="#000" d="M448.2 428v-9m0-400.9v9"/><text transform="translate(448.2 449.9)" stroke="none" fill="#000" font-family="Arial" font-size="12" text-anchor="middle"><tspan>70</tspan></text></g><g fill="none" color="#000" stroke="currentColor"><path stroke="#000" d="M505.7 428v-9m0-400.9v9"/><text transform="translate(505.7 449.9)" stroke="none" fill="#000" font-family="Arial" font-size="12" text-anchor="middle"><tspan>80</tspan></text></g><g fill="none" color="#000" stroke="currentColor"><path stroke="#000" d="M563.2 428v-9m0-400.9v9"/><text transform="translate(563.2 449.9)" stroke="none" fill="#000" font-family="Arial" font-size="12" text-anchor="middle"><tspan>90</tspan></text></g><path stroke="#000" d="M45.6 18.1V428H615V18.1H45.6z" fill="none" color="#000"/><text transform="translate(271.5 467.9)" stroke="none" fill="#000" font-family="Arial" font-size="12" text-anchor="end" color="#000"><tspan>pages+cached+noadtech</tspan></text><path stroke="#9400D3" d="M279.8 464H322M45.6 262.1l5.8 72 5.7-45.8 5.8-24.5 5.7 37.1 5.8 11.7 5.7 21.5 5.8 3.9 5.7-14.4 5.8-46.7 5.7 11.1 5.8-32.6 5.7 60.8 5.8-2.9 5.7 6.2 5.8-1.8 5.7 4 5.8 16.8 5.7-45.8 5.8-7.1 5.7 7.4 5.8 44.5 5.7 82.6 5.8-136.8 5.7 31 5.8-32.1 5.7 21 5.8.7 5.7 33.3 5.8-28.3 5.7-182.8 5.8 260.1 5.7-7.2 5.8-61.5 5.8-42 5.7-21.8 5.8 70.4 5.7 10.7 5.8-23.8 5.7 16.1 5.8-58.1 5.7 58.8 5.8-9.8 5.7-56.7 5.8 16.7 5.7 7.4 5.8 14.1 5.7-52.2 5.8 19.2 5.7 24.8 5.8 40.5 5.7-74.2 5.8 74.2 5.7-69.9 5.8 47.2 5.7 10.8 5.8-65.9 5.7 34.6 5.8 39.2 5.7-34.1 5.8 32.4 5.7-14.6 5.8 26 5.7-44.2 5.8 88.5 5.7-72.5 5.8 13.9 5.8-5.4 5.7-29 5.8 55.7 5.7-147.6 5.8 101.8 5.7 32.9 5.8-93.4 5.7 39.8 5.8 74.1 5.7-59.6 5.8 9.6 5.7 71.5 5.8-110.7 5.7 13.3 5.8 77.4 5.7-63.1 5.8-69.9 5.7 150.3 5.8-28 5.7-45.5 5.8-14.7 5.7 61 5.8-43 5.7-6.9 5.8 19 5.7-27.7 5.8 34.1 5.7 16.1L592 254l5.7 49.7 5.8 37.7 5.7-41.7 5.8-30.4" fill="none" color="#000"/><text transform="translate(271.5 485.9)" stroke="none" fill="#000" font-family="Arial" font-size="12" text-anchor="end" color="#000"><tspan>pages+cached+noexternal</tspan></text><path stroke="#009E73" d="M279.8 482H322M45.6 171.2l5.8-31 5.7-55.4 5.8 73.8 5.7-22.3 5.8-14.8 5.7 7.1 5.8 71.5 5.7-30.7 5.8-27.5 5.7 4.2 5.8 12.4 5.7 12.1 5.8 16.4 5.7 25.4 5.8-114.2 5.7 36.4 5.8-11.6 5.7 26.9 5.8-94.2 5.7 79.4 5.8 15.2 5.7-38.8 5.8 15.1 5.7 47.2 5.8-48.4 5.7 56.6 5.8 23.7 5.7-60.3 5.8.1 5.7-33 5.8 4 5.7-48.9 5.8 73.6 5.8-29.1 5.7-3 5.8 136.9 5.7-123.6 5.8 48.5 5.7-16.3 5.8 24.2 5.7-25.5 5.8-10.1L292.9 26l5.8 199.5 5.7-120.6 5.8 77.6 5.7-11.9 5.8 4 5.7-28 5.8-4.4 5.7 6.2 5.8-17.3 5.7-6 5.8-57.5 5.7 81 5.8 56.9 5.7-36.3 5.8-20.8 5.7-47 5.8 23.7 5.7 19.1 5.8-13.8 5.7-14.9 5.8-20.3 5.7 45.8 5.8 45.9 5.8-57.8 5.7 3.7 5.8 26 5.7-61.6 5.8 84.1 5.7-61.1 5.8 27.9 5.7 29.4 5.8-41.4 5.7 20.4 5.8-12.6 5.7 25.7 5.8-38.5 5.7 15.8 5.8-7.7 5.7 36.2 5.8-45.8 5.7 36.8 5.8-24.4 5.7 25.5 5.8-57.7 5.7 14.8 5.8 7.9 5.7 23.8 5.8-43.7 5.7-15.8 5.8 70.1 5.7-10.9 5.8 10.9 5.7-31.9 5.8 39.3 5.7-92.2 5.8 36.2" fill="none" color="#000"/><text transform="translate(521.2 467.9)" stroke="none" fill="#000" font-family="Arial" font-size="12" text-anchor="end" color="#000"><tspan>score p10=1282</tspan></text><path stroke="#56B4E9" d="M529.5 464h42.2" fill="none" color="#000"/><g><text transform="translate(521.2 485.9)" stroke="none" fill="#000" font-family="Arial" font-size="12" text-anchor="end" color="#000"><tspan>score median=3500</tspan></text><path stroke="#E69F00" d="M529.5 482h42.2" fill="none" color="#000"/></g><g fill="none" color="#000" stroke="currentColor"><path stroke="#000" d="M45.6 18.1V428H615V18.1H45.6z"/></g></svg>