<svg width="640" height="500" xmlns="http://www.w3.org/2000/svg" xmlns:xlink="http://www.w3.org/1999/xlink"><path fill="#fff" d="M0 0h640v500H0z"/><defs><path id="d" stroke-width=".222" stroke="currentColor" d="M-1-1h2v2h-2z"/><path id="b" stroke-width=".222" stroke="currentColor" d="M0-1.33l-1.33 2h2.66z"/><path id="f" stroke-width=".222" stroke="currentColor" d="M0 1.33L1.265.411.782-1.067l-1.564-.009-.483 1.487z"/><use xlink:href="#b" id="c" stroke="currentColor" transform="rotate(180)"/><use xlink:href="#d" id="e" stroke="currentColor" transform="rotate(45)"/><circle id="a" stroke-width=".222" stroke="currentColor" cx="0" cy="0" r="1"/></defs><g fill="none" color="#000" stroke="currentColor"><path stroke="#000" d="M45.6 392h9m560.4 0h-9"/><text transform="translate(37.3 395.9)" stroke="none" fill="#000" font-family="Arial" font-size="12" text-anchor="end"><tspan>38</tspan></text></g><g fill="none" color="#000" stroke="currentColor"><path stroke="#000" d="M45.6 340h9m560.4 0h-9"/><text transform="translate(37.3 343.9)" stroke="none" fill="#000" font-family="Arial" font-size="12" text-anchor="end"><tspan>40</tspan></text></g><g fill="none" color="#000" stroke="currentColor"><path stroke="#000" d="M45.6 288.1h9m560.4 0h-9"/><text transform="translate(37.3 292)" stroke="none" fill="#000" font-family="Arial" font-size="12" text-anchor="end"><tspan>42</tspan></text></g><g fill="none" color="#000" stroke="currentColor"><path stroke="#000" d="M45.6 236.2h9m560.4 0h-9"/><text transform="translate(37.3 240.1)" stroke="none" fill="#000" font-family="Arial" font-size="12" text-anchor="end"><tspan>44</tspan></text></g><g fill="none" color="#000" stroke="currentColor"><path stroke="#000" d="M45.6 184.3h9m560.4 0h-9"/><text transform="translate(37.3 188.2)" stroke="none" fill="#000" font-family="Arial" font-size="12" text-anchor="end"><tspan>46</tspan></text></g><g fill="none" color="#000" stroke="currentColor"><path stroke="#000" d="M45.6 132.3h9m560.4 0h-9"/><text transform="translate(37.3 136.2)" stroke="none" fill="#000" font-family="Arial" font-size="12" text-anchor="end"><tspan>48</tspan></text></g><g fill="none" color="#000" stroke="currentColor"><path stroke="#000" d="M45.6 80.4h9m560.4 0h-9"/><text transform="translate(37.3 84.3)" stroke="none" fill="#000" font-family="Arial" font-size="12" text-anchor="end"><tspan>50</tspan></text></g><g fill="none" color="#000" stroke="currentColor"><path stroke="#000" d="M45.6 28.5h9m560.4 0h-9"/><text transform="translate(37.3 32.4)" stroke="none" fill="#000" font-family="Arial" font-size="12" text-anchor="end"><tspan>52</tspan></text></g><g fill="none" color="#000" stroke="currentColor"><path stroke="#000" d="M45.6 428v-9m0-400.9v9"/><text transform="translate(45.6 449.9)" stroke="none" fill="#000" font-family="Arial" font-size="12" text-anchor="middle"><tspan>0</tspan></text></g><g fill="none" color="#000" stroke="currentColor"><path stroke="#000" d="M103.1 428v-9m0-400.9v9"/><text transform="translate(103.1 449.9)" stroke="none" fill="#000" font-family="Arial" font-size="12" text-anchor="middle"><tspan>10</tspan></text></g><g fill="none" color="#000" stroke="currentColor"><path stroke="#000" d="M160.6 428v-9m0-400.9v9"/><text transform="translate(160.6 449.9)" stroke="none" fill="#000" font-family="Arial" font-size="12" text-anchor="middle"><tspan>20</tspan></text></g><g fill="none" color="#000" stroke="currentColor"><path stroke="#000" d="M218.1 428v-9m0-400.9v9"/><text transform="translate(218.1 449.9)" stroke="none" fill="#000" font-family="Arial" font-size="12" text-anchor="middle"><tspan>30</tspan></text></g><g fill="none" color="#000" stroke="currentColor"><path stroke="#000" d="M275.7 428v-9m0-400.9v9"/><text transform="translate(275.7 449.9)" stroke="none" fill="#000" font-family="Arial" font-size="12" text-anchor="middle"><tspan>40</tspan></text></g><g fill="none" color="#000" stroke="currentColor"><path stroke="#000" d="M333.2 428v-9m0-400.9v9"/><text transform="translate(333.2 449.9)" stroke="none" fill="#000" font-family="Arial" font-size="12" text-anchor="middle"><tspan>50</tspan></text></g><g fill="none" color="#000" stroke="currentColor"><path stroke="#000" d="M390.7 428v-9m0-400.9v9"/><text transform="translate(390.7 449.9)" stroke="none" fill="#000" font-family="Arial" font-size="12" text-anchor="middle"><tspan>60</tspan></text></g><g fill="none" color="#000" stroke="currentColor"><path stroke="#000" d="M448.2 428v-9m0-400.9v9"/><text transform="translate(448.2 449.9)" stroke="none" fill="#000" font-family="Arial" font-size="12" text-anchor="middle"><tspan>70</tspan></text></g><g fill="none" color="#000" stroke="currentColor"><path stroke="#000" d="M505.7 428v-9m0-400.9v9"/><text transform="translate(505.7 449.9)" stroke="none" fill="#000" font-family="Arial" font-size="12" text-anchor="middle"><tspan>80</tspan></text></g><g fill="none" color="#000" stroke="currentColor"><path stroke="#000" d="M563.2 428v-9m0-400.9v9"/><text transform="translate(563.2 449.9)" stroke="none" fill="#000" font-family="Arial" font-size="12" text-anchor="middle"><tspan>90</tspan></text></g><path stroke="#000" d="M45.6 18.1V428H615V18.1H45.6z" fill="none" color="#000"/><text transform="translate(271.5 467.9)" stroke="none" fill="#000" font-family="Arial" font-size="12" text-anchor="end" color="#000"><tspan>pages+cached+noexternal+nosvg</tspan></text><path stroke="#9400D3" d="M279.8 464H322M45.6 361.9l5.8-9.6 5.7-27.9 5.8 15.1 5.7 63.2 5.8-49.7 5.7 31.2 5.8-14.3 5.7 11.8 5.8-4.7 5.7 7.4L108.9 26l5.7 349.1 5.8-1.1 5.7-31.9 5.8-1.2 5.7 23.8 5.8 11.5 5.7 8 5.8 9.1 5.7-6.6 5.8-11.7 5.7 22.9 5.8-53.3 5.7 48.8 5.8-23 5.7-26.3 5.8 26.7 5.7 7.8 5.8 41.5 5.7-19.3 5.8-21.4 5.7-21.9 5.8 3.5 5.8 33.6 5.7-42.5 5.8-33.7 5.7 11.6 5.8 46.6 5.7 22 5.8-44.3 5.7-18.4 5.8 46.5 5.7 8.4 5.8 5.4 5.7-3.2 5.8-30.9 5.7-10.4 5.8 25.2 5.7-23.9 5.8 19 5.7-71.7 5.8 86.2 5.7-17.3 5.8 11.1 5.7-82.1 5.8 65 5.7 4.5 5.8-23.2 5.7 22.2 5.8-28.1 5.7 63.6 5.8-41.8 5.7-16.5 5.8 16.9 5.7 7.2 5.8 9.4 5.8-59.1 5.7 56.3 5.8-46.1 5.7 55.6 5.8-3.4 5.7 20.7 5.8-62.3 5.7 34.6 5.8-6.5 5.7 16.8 5.8.8 5.7-14.3L500 360l5.7-20.3 5.8 22.6 5.7 5.4 5.8 6.6 5.7-19.1 5.8 26.1 5.7-.5 5.8-22.7 5.7.4 5.8 47.4 5.7-35.9 5.8 17.9 5.7-37.4 5.8 28.2 5.7 18.7 5.8-59.3 5.7 40.2 5.8 2.1 5.7-14.7 5.8-3.3" fill="none" color="#000"/><text transform="translate(271.5 485.9)" stroke="none" fill="#000" font-family="Arial" font-size="12" text-anchor="end" color="#000"><tspan>pages+cached+noexternal+noimg</tspan></text><path stroke="#009E73" d="M279.8 482H322M45.6 204.4l5.8 55.2 5.7-40.7 5.8 2.6 5.7 31.3 5.8-28.9 5.7 33.7 5.8 6.9 5.7-1.5 5.8-19.4 5.7-12.2 5.8 8.7 5.7 4.7 5.8-53.7 5.7-2.3 5.8-29.8 5.7 47 5.8 14.6 5.7 38 5.8 1 5.7-23.9 5.8 55 5.7-96.4 5.8-7.1 5.7 34.1 5.8-13.5 5.7 9.8 5.8 14.1 5.7 24 5.8-33.9 5.7 24.2 5.8-46.2h5.7l5.8 34.2 5.8 10.6 5.7 36.8 5.8-36.5 5.7-7.9 5.8-15.9 5.7 5.1 5.8 30.8 5.7-52.7 5.8 23.1 5.7 28.5 5.8-56.4 5.7 27.3 5.8-9.3 5.7 23.3 5.8 18.1 5.7-12.8 5.8-37 5.7 18.2 5.8 22 5.7-25.1 5.8 122.5 5.7-169.7 5.8 50 5.7 28.2 5.8-23.4 5.7 15.8 5.8 3 5.7-65.1 5.8 78.7 5.7-32.6 5.8 36.2 5.7-80.9 5.8 87.1 5.8-13.4 5.7-18.8 5.8-16.4 5.7-17.6 5.8-29.9 5.7 45.6 5.8 10.8 5.7-27.1 5.8 37.1 5.7-121.6 5.8 151.8 5.7-10.5 5.8-31.3 5.7 8.9 5.8-21.6 5.7 15.4 5.8-70.2 5.7 45.6 5.8 29.4 5.7-40.3 5.8 41.6 5.7 25.4 5.8-34.7 5.7-40.2 5.8 29.9 5.7 9.5 5.8-13.6 5.7 19.7 5.8-37 5.7 57.3 5.8-83.5 5.7 70.6 5.8 1.5" fill="none" color="#000"/><text transform="translate(571 467.9)" stroke="none" fill="#000" font-family="Arial" font-size="12" text-anchor="end" color="#000"><tspan>score p10=1282</tspan></text><path stroke="#56B4E9" d="M579.3 464h42.2" fill="none" color="#000"/><g><text transform="translate(571 485.9)" stroke="none" fill="#000" font-family="Arial" font-size="12" text-anchor="end" color="#000"><tspan>score median=3500</tspan></text><path stroke="#E69F00" d="M579.3 482h42.2" fill="none" color="#000"/></g><g fill="none" color="#000" stroke="currentColor"><path stroke="#000" d="M45.6 18.1V428H615V18.1H45.6z"/></g></svg>