<svg width="640" height="500" xmlns="http://www.w3.org/2000/svg" xmlns:xlink="http://www.w3.org/1999/xlink"><path fill="#fff" d="M0 0h640v500H0z"/><defs><path id="d" stroke-width=".222" stroke="currentColor" d="M-1-1h2v2h-2z"/><path id="b" stroke-width=".222" stroke="currentColor" d="M0-1.33l-1.33 2h2.66z"/><path id="f" stroke-width=".222" stroke="currentColor" d="M0 1.33L1.265.411.782-1.067l-1.564-.009-.483 1.487z"/><use xlink:href="#b" id="c" stroke="currentColor" transform="rotate(180)"/><use xlink:href="#d" id="e" stroke="currentColor" transform="rotate(45)"/><circle id="a" stroke-width=".222" stroke="currentColor" cx="0" cy="0" r="1"/></defs><g fill="none" color="#000" stroke="currentColor"><path stroke="#000" d="M45.6 386.5h9m560.4 0h-9"/><text transform="translate(37.3 390.4)" stroke="none" fill="#000" font-family="Arial" font-size="12" text-anchor="end"><tspan>15</tspan></text></g><g fill="none" color="#000" stroke="currentColor"><path stroke="#000" d="M45.6 336.4h9m560.4 0h-9"/><text transform="translate(37.3 340.3)" stroke="none" fill="#000" font-family="Arial" font-size="12" text-anchor="end"><tspan>20</tspan></text></g><g fill="none" color="#000" stroke="currentColor"><path stroke="#000" d="M45.6 286.3h9m560.4 0h-9"/><text transform="translate(37.3 290.2)" stroke="none" fill="#000" font-family="Arial" font-size="12" text-anchor="end"><tspan>25</tspan></text></g><g fill="none" color="#000" stroke="currentColor"><path stroke="#000" d="M45.6 236.2h9m560.4 0h-9"/><text transform="translate(37.3 240.1)" stroke="none" fill="#000" font-family="Arial" font-size="12" text-anchor="end"><tspan>30</tspan></text></g><g fill="none" color="#000" stroke="currentColor"><path stroke="#000" d="M45.6 186.2h9m560.4 0h-9"/><text transform="translate(37.3 190.1)" stroke="none" fill="#000" font-family="Arial" font-size="12" text-anchor="end"><tspan>35</tspan></text></g><g fill="none" color="#000" stroke="currentColor"><path stroke="#000" d="M45.6 136.1h9m560.4 0h-9"/><text transform="translate(37.3 140)" stroke="none" fill="#000" font-family="Arial" font-size="12" text-anchor="end"><tspan>40</tspan></text></g><g fill="none" color="#000" stroke="currentColor"><path stroke="#000" d="M45.6 86h9M615 86h-9"/><text transform="translate(37.3 89.9)" stroke="none" fill="#000" font-family="Arial" font-size="12" text-anchor="end"><tspan>45</tspan></text></g><g fill="none" color="#000" stroke="currentColor"><path stroke="#000" d="M45.6 36h9M615 36h-9"/><text transform="translate(37.3 39.9)" stroke="none" fill="#000" font-family="Arial" font-size="12" text-anchor="end"><tspan>50</tspan></text></g><g fill="none" color="#000" stroke="currentColor"><path stroke="#000" d="M45.6 428v-9m0-400.9v9"/><text transform="translate(45.6 449.9)" stroke="none" fill="#000" font-family="Arial" font-size="12" text-anchor="middle"><tspan>0</tspan></text></g><g fill="none" color="#000" stroke="currentColor"><path stroke="#000" d="M103.1 428v-9m0-400.9v9"/><text transform="translate(103.1 449.9)" stroke="none" fill="#000" font-family="Arial" font-size="12" text-anchor="middle"><tspan>10</tspan></text></g><g fill="none" color="#000" stroke="currentColor"><path stroke="#000" d="M160.6 428v-9m0-400.9v9"/><text transform="translate(160.6 449.9)" stroke="none" fill="#000" font-family="Arial" font-size="12" text-anchor="middle"><tspan>20</tspan></text></g><g fill="none" color="#000" stroke="currentColor"><path stroke="#000" d="M218.1 428v-9m0-400.9v9"/><text transform="translate(218.1 449.9)" stroke="none" fill="#000" font-family="Arial" font-size="12" text-anchor="middle"><tspan>30</tspan></text></g><g fill="none" color="#000" stroke="currentColor"><path stroke="#000" d="M275.7 428v-9m0-400.9v9"/><text transform="translate(275.7 449.9)" stroke="none" fill="#000" font-family="Arial" font-size="12" text-anchor="middle"><tspan>40</tspan></text></g><g fill="none" color="#000" stroke="currentColor"><path stroke="#000" d="M333.2 428v-9m0-400.9v9"/><text transform="translate(333.2 449.9)" stroke="none" fill="#000" font-family="Arial" font-size="12" text-anchor="middle"><tspan>50</tspan></text></g><g fill="none" color="#000" stroke="currentColor"><path stroke="#000" d="M390.7 428v-9m0-400.9v9"/><text transform="translate(390.7 449.9)" stroke="none" fill="#000" font-family="Arial" font-size="12" text-anchor="middle"><tspan>60</tspan></text></g><g fill="none" color="#000" stroke="currentColor"><path stroke="#000" d="M448.2 428v-9m0-400.9v9"/><text transform="translate(448.2 449.9)" stroke="none" fill="#000" font-family="Arial" font-size="12" text-anchor="middle"><tspan>70</tspan></text></g><g fill="none" color="#000" stroke="currentColor"><path stroke="#000" d="M505.7 428v-9m0-400.9v9"/><text transform="translate(505.7 449.9)" stroke="none" fill="#000" font-family="Arial" font-size="12" text-anchor="middle"><tspan>80</tspan></text></g><g fill="none" color="#000" stroke="currentColor"><path stroke="#000" d="M563.2 428v-9m0-400.9v9"/><text transform="translate(563.2 449.9)" stroke="none" fill="#000" font-family="Arial" font-size="12" text-anchor="middle"><tspan>90</tspan></text></g><path stroke="#000" d="M45.6 18.1V428H615V18.1H45.6z" fill="none" color="#000"/><text transform="translate(271.5 467.9)" stroke="none" fill="#000" font-family="Arial" font-size="12" text-anchor="end" color="#000"><tspan>pages+cached+noexternal+nocss</tspan></text><path stroke="#9400D3" d="M279.8 464H322M45.6 296.7l5.8 2.2 5.7 3.8 5.8-3.3 5.7 12.1 5.8-20.2 5.7 2 5.8 14.8 5.7-13 5.8 4.9 5.7-15.2 5.8 14.3 5.7-6.2 5.8 12.9 5.7-17.2 5.8 17.5 5.7-38.1 5.8 27 5.7 6.2 5.8-14 5.7 24 5.8-8.9 5.7-7.6 5.8 5 5.7-20.6 5.8 21.7 5.7-6.3 5.8 11.8 5.7-17.6 5.8 6.5 5.7 12.4 5.8-9.2 5.7 1.1 5.8 4 5.8-3.9 5.7-9.9 5.8 9.8 5.7-3.6 5.8-3.1 5.7 2.7 5.8-8.1 5.7 16.3 5.8-8.6 5.7 8.2 5.8-13.9 5.7 4.3 5.8 3 5.7-8.3 5.8 6.6 5.7 2.2 5.8 31 5.7-27.1 5.8 2.9 5.7-16.7 5.8 1.1 5.7 8.9 5.8 1.9 5.7 9.8 5.8-7.9 5.7-7.7 5.8 16.8 5.7-5.5 5.8-7.4 5.7 2 5.8 7.1 5.7-15 5.8-2 5.8 12 5.7-17.4 5.8 21.9 5.7-5.8 5.8-11.8 5.7-5.8 5.8 26.1 5.7-22 5.8 9.7 5.7 1.6 5.8 1.5 5.7 7.5 5.8-15 5.7 15.9 5.8 20.1 5.7-29.4 5.8.8 5.7-18.7 5.8 23.5 5.7-3.7 5.8-2.5 5.7 2.4L557.5 26l5.7 270.2 5.8 1.3 5.7-15.9 5.8 19.2 5.7-5.7 5.8-3.1 5.7 7.3 5.8-11.9 5.7 7.4 5.8-6.6" fill="none" color="#000"/><text transform="translate(271.5 485.9)" stroke="none" fill="#000" font-family="Arial" font-size="12" text-anchor="end" color="#000"><tspan>pages+cached+noexternal+nojs</tspan></text><path stroke="#009E73" d="M279.8 482H322M45.6 403.1l5.8 3.5 5.7-4.2 5.8-14.3 5.7 7.2 5.8 7.4 5.7 7 5.8-6 5.7-4.4 5.8-5.4 5.7 11.9 5.8-14.9 5.7 20.1 5.8-16.7 5.7-.8 5.8 6.4 5.7-1.6 5.8 2.3 5.7 2.7 5.8.8 5.7-7 5.8 5.4 5.7-2.4 5.8 5.7 5.7-10.4 5.8 10.6 5.7-8.4 5.8-5.3 5.7 9.2 5.8-1.2 5.7-14.3 5.8 23 5.7-24.4 5.8 19.4 5.8-7.2 5.7.5 5.8 3.1 5.7 3.9 5.8 3.5 5.7-.9 5.8-9.7 5.7-4 5.8 21 5.7-21.1 5.8 4.6 5.7 4.7 5.8 13.6 5.7-7.3 5.8-14.3 5.7-4.1 5.8 14.7 5.7-8 5.8-.7 5.7-7.2 5.8 3.7 5.7 12.2 5.8-1.9 5.7 3.4 5.8 4.3 5.7 9.3 5.8-31.2 5.7 2 5.8 5.4 5.7 1.3 5.8-7.7 5.7 3.2 5.8 8.7 5.8-6.3 5.7 1.1 5.8 5.3 5.7-6.7 5.8 19.5 5.7-18.5 5.8 19.4 5.7 1.5 5.8-3.5 5.7-14.8 5.8 14.5 5.7 3.3 5.8-16.7 5.7-3 5.8 4.1 5.7-.5 5.8 14.6 5.7-21.3 5.8 8.2 5.7 15.2 5.8-18 5.7 16.2 5.8-14 5.7-.8 5.8 2.6 5.7 7.2 5.8-5.2 5.7 6.3 5.8.4 5.7-14.7 5.8 14.7 5.7-12 5.8 12.6" fill="none" color="#000"/><text transform="translate(571 467.9)" stroke="none" fill="#000" font-family="Arial" font-size="12" text-anchor="end" color="#000"><tspan>score p10=1282</tspan></text><path stroke="#56B4E9" d="M579.3 464h42.2" fill="none" color="#000"/><g><text transform="translate(571 485.9)" stroke="none" fill="#000" font-family="Arial" font-size="12" text-anchor="end" color="#000"><tspan>score median=3500</tspan></text><path stroke="#E69F00" d="M579.3 482h42.2" fill="none" color="#000"/></g><g fill="none" color="#000" stroke="currentColor"><path stroke="#000" d="M45.6 18.1V428H615V18.1H45.6z"/></g></svg>