<svg width="640" height="490" xmlns="http://www.w3.org/2000/svg" xmlns:xlink="http://www.w3.org/1999/xlink"><path fill="#fff" d="M0 0h640v490H0z"/><defs><path id="d" stroke-width=".222" stroke="currentColor" d="M-1-1h2v2h-2z"/><path id="b" stroke-width=".222" stroke="currentColor" d="M0-1.33l-1.33 2h2.66z"/><path id="f" stroke-width=".222" stroke="currentColor" d="M0 1.33L1.265.411.782-1.067l-1.564-.009-.483 1.487z"/><use xlink:href="#b" id="c" stroke="currentColor" transform="rotate(180)"/><use xlink:href="#d" id="e" stroke="currentColor" transform="rotate(45)"/><circle id="a" stroke-width=".222" stroke="currentColor" cx="0" cy="0" r="1"/></defs><g fill="none" color="#000" stroke="currentColor"><path stroke="#000" d="M62.2 387.2h9m543.8 0h-9"/><text transform="translate(53.9 391.1)" stroke="none" fill="#000" font-family="Arial" font-size="12" text-anchor="end"><tspan>12</tspan></text></g><g fill="none" color="#000" stroke="currentColor"><path stroke="#000" d="M62.2 330.6h9m543.8 0h-9"/><text transform="translate(53.9 334.5)" stroke="none" fill="#000" font-family="Arial" font-size="12" text-anchor="end"><tspan>12.5</tspan></text></g><g fill="none" color="#000" stroke="currentColor"><path stroke="#000" d="M62.2 273.9h9m543.8 0h-9"/><text transform="translate(53.9 277.8)" stroke="none" fill="#000" font-family="Arial" font-size="12" text-anchor="end"><tspan>13</tspan></text></g><g fill="none" color="#000" stroke="currentColor"><path stroke="#000" d="M62.2 217.3h9m543.8 0h-9"/><text transform="translate(53.9 221.2)" stroke="none" fill="#000" font-family="Arial" font-size="12" text-anchor="end"><tspan>13.5</tspan></text></g><g fill="none" color="#000" stroke="currentColor"><path stroke="#000" d="M62.2 160.7h9m543.8 0h-9"/><text transform="translate(53.9 164.6)" stroke="none" fill="#000" font-family="Arial" font-size="12" text-anchor="end"><tspan>14</tspan></text></g><g fill="none" color="#000" stroke="currentColor"><path stroke="#000" d="M62.2 104.1h9m543.8 0h-9"/><text transform="translate(53.9 108)" stroke="none" fill="#000" font-family="Arial" font-size="12" text-anchor="end"><tspan>14.5</tspan></text></g><g fill="none" color="#000" stroke="currentColor"><path stroke="#000" d="M62.2 47.4h9m543.8 0h-9"/><text transform="translate(53.9 51.3)" stroke="none" fill="#000" font-family="Arial" font-size="12" text-anchor="end"><tspan>15</tspan></text></g><g fill="none" color="#000" stroke="currentColor"><path stroke="#000" d="M62.2 436v-9m0-408.9v9"/><text transform="translate(62.2 457.9)" stroke="none" fill="#000" font-family="Arial" font-size="12" text-anchor="middle"><tspan>0</tspan></text></g><g fill="none" color="#000" stroke="currentColor"><path stroke="#000" d="M118 436v-9m0-408.9v9"/><text transform="translate(118 457.9)" stroke="none" fill="#000" font-family="Arial" font-size="12" text-anchor="middle"><tspan>10</tspan></text></g><g fill="none" color="#000" stroke="currentColor"><path stroke="#000" d="M173.9 436v-9m0-408.9v9"/><text transform="translate(173.9 457.9)" stroke="none" fill="#000" font-family="Arial" font-size="12" text-anchor="middle"><tspan>20</tspan></text></g><g fill="none" color="#000" stroke="currentColor"><path stroke="#000" d="M229.7 436v-9m0-408.9v9"/><text transform="translate(229.7 457.9)" stroke="none" fill="#000" font-family="Arial" font-size="12" text-anchor="middle"><tspan>30</tspan></text></g><g fill="none" color="#000" stroke="currentColor"><path stroke="#000" d="M285.6 436v-9m0-408.9v9"/><text transform="translate(285.6 457.9)" stroke="none" fill="#000" font-family="Arial" font-size="12" text-anchor="middle"><tspan>40</tspan></text></g><g fill="none" color="#000" stroke="currentColor"><path stroke="#000" d="M341.4 436v-9m0-408.9v9"/><text transform="translate(341.4 457.9)" stroke="none" fill="#000" font-family="Arial" font-size="12" text-anchor="middle"><tspan>50</tspan></text></g><g fill="none" color="#000" stroke="currentColor"><path stroke="#000" d="M397.2 436v-9m0-408.9v9"/><text transform="translate(397.2 457.9)" stroke="none" fill="#000" font-family="Arial" font-size="12" text-anchor="middle"><tspan>60</tspan></text></g><g fill="none" color="#000" stroke="currentColor"><path stroke="#000" d="M453.1 436v-9m0-408.9v9"/><text transform="translate(453.1 457.9)" stroke="none" fill="#000" font-family="Arial" font-size="12" text-anchor="middle"><tspan>70</tspan></text></g><g fill="none" color="#000" stroke="currentColor"><path stroke="#000" d="M508.9 436v-9m0-408.9v9"/><text transform="translate(508.9 457.9)" stroke="none" fill="#000" font-family="Arial" font-size="12" text-anchor="middle"><tspan>80</tspan></text></g><g fill="none" color="#000" stroke="currentColor"><path stroke="#000" d="M564.7 436v-9m0-408.9v9"/><text transform="translate(564.7 457.9)" stroke="none" fill="#000" font-family="Arial" font-size="12" text-anchor="middle"><tspan>90</tspan></text></g><path stroke="#000" d="M62.2 18.1V436H615V18.1H62.2z" fill="none" color="#000"/><text transform="translate(179.8 475.9)" stroke="none" fill="#000" font-family="Arial" font-size="12" text-anchor="end" color="#000"><tspan>raw</tspan></text><path stroke="#9400D3" d="M188.1 472h42.2M62.2 235.4l5.6 39.4 5.6-47.5L79 66l5.5 81.5 5.6 83.9 5.6 78.3 5.6-67.5 5.6-49.4 5.6-61.6 5.5 135 5.6-168.5 5.6 227.4 5.6-188.9 5.6-9 5.6 72.4 5.5-18.5 5.6 26.2 5.6 29.9 5.6 10 5.6-79.3 5.6 60.3 5.5-26.7 5.6 64.7 5.6-117.3 5.6 119.1 5.6-94.2 5.6-60.2 5.5 104.2 5.6-13.6 5.6-161.8 5.6 259.6 5.6-275.9 5.6 219.8 5.6-81.1 5.5 4.9 5.6 35.4 5.6 43.9 5.6 39.9L280 278l5.6-108.7 5.5-45.3 5.6 236.9 5.6-238.3 5.6 52.1 5.6 52.6 5.6 154 5.5-82.4 5.6-162.2 5.6-45.8 5.6 165.8 5.6-90.6 5.6-7.7 5.5-81.5 5.6 42.1 5.6 138.2 5.6-22.2 5.6 38.5 5.6 49.4 5.5 105.1 5.6-352.9 5.6 22.2 5.6 61.1 5.6 15 5.6-87 5.5 35.8 5.6 98.3 5.6-70.7 5.6 12.7 5.6 59.8 5.6-75.7 5.6 220.7 5.5-209.8 5.6 219.7 5.6 16.8 5.6-39.9 5.6-167.1 5.6 164.4 5.5 37.2 5.6-189.4 5.6-33.5 5.6 46.2 5.6-5.5 5.6 164.9 5.5-240.5 5.6 91.9 5.6 172.2 5.6-203 5.6 182.6 5.6-158.1 5.5-8.6 5.6 28.5 5.6 82 5.6-58.9 5.6 70.7 5.6 5 5.5-165.8 5.6 165.3 5.6-135 5.6 141.8" fill="none" color="#000"/><text transform="translate(379.7 475.9)" stroke="none" fill="#000" font-family="Arial" font-size="12" text-anchor="end" color="#000"><tspan>score p10=1282</tspan></text><path stroke="#009E73" d="M388 472h42.2" fill="none" color="#000"/><text transform="translate(579.6 475.9)" stroke="none" fill="#000" font-family="Arial" font-size="12" text-anchor="end" color="#000"><tspan>score median=3500</tspan></text><path stroke="#56B4E9" d="M587.9 472h42.2" fill="none" color="#000"/><g fill="none" color="#000" stroke="currentColor"><path stroke="#000" d="M62.2 18.1V436H615V18.1H62.2z"/></g></svg>