<svg width="640" height="620" xmlns="http://www.w3.org/2000/svg" xmlns:xlink="http://www.w3.org/1999/xlink"><path fill="#fff" d="M0 0h640v620H0z"/><defs><path id="d" stroke-width=".222" stroke="currentColor" d="M-1-1h2v2h-2z"/><path id="b" stroke-width=".222" stroke="currentColor" d="M0-1.33l-1.33 2h2.66z"/><path id="f" stroke-width=".222" stroke="currentColor" d="M0 1.33L1.265.411.782-1.067l-1.564-.009-.483 1.487z"/><use xlink:href="#b" id="c" stroke="currentColor" transform="rotate(180)"/><use xlink:href="#d" id="e" stroke="currentColor" transform="rotate(45)"/><circle id="a" stroke-width=".222" stroke="currentColor" cx="0" cy="0" r="1"/></defs><g fill="none" color="#000" stroke="currentColor"><path stroke="#000" d="M53.9 332h9m552.1 0h-9"/><text transform="translate(45.6 335.9)" stroke="none" fill="#000" font-family="Arial" font-size="12" text-anchor="end"><tspan>0</tspan></text></g><g fill="none" color="#000" stroke="currentColor"><path stroke="#000" d="M53.9 269.2h9m552.1 0h-9"/><text transform="translate(45.6 273.1)" stroke="none" fill="#000" font-family="Arial" font-size="12" text-anchor="end"><tspan>20</tspan></text></g><g fill="none" color="#000" stroke="currentColor"><path stroke="#000" d="M53.9 206.4h9m552.1 0h-9"/><text transform="translate(45.6 210.3)" stroke="none" fill="#000" font-family="Arial" font-size="12" text-anchor="end"><tspan>40</tspan></text></g><g fill="none" color="#000" stroke="currentColor"><path stroke="#000" d="M53.9 143.7h9m552.1 0h-9"/><text transform="translate(45.6 147.6)" stroke="none" fill="#000" font-family="Arial" font-size="12" text-anchor="end"><tspan>60</tspan></text></g><g fill="none" color="#000" stroke="currentColor"><path stroke="#000" d="M53.9 80.9h9m552.1 0h-9"/><text transform="translate(45.6 84.8)" stroke="none" fill="#000" font-family="Arial" font-size="12" text-anchor="end"><tspan>80</tspan></text></g><g fill="none" color="#000" stroke="currentColor"><path stroke="#000" d="M53.9 18.1h9m552.1 0h-9"/><text transform="translate(45.6 22)" stroke="none" fill="#000" font-family="Arial" font-size="12" text-anchor="end"><tspan>100</tspan></text></g><g fill="none" color="#000" stroke="currentColor"><path stroke="#000" d="M101.5 332v-9m0-304.9v9"/><text transform="translate(101.5 353.9)" stroke="none" fill="#000" font-family="Arial" font-size="12" text-anchor="middle"><tspan>0.1</tspan></text></g><g fill="none" color="#000" stroke="currentColor"><path stroke="#000" d="M158.5 332v-9m0-304.9v9"/><text transform="translate(158.5 353.9)" stroke="none" fill="#000" font-family="Arial" font-size="12" text-anchor="middle"><tspan>0.2</tspan></text></g><g fill="none" color="#000" stroke="currentColor"><path stroke="#000" d="M215.6 332v-9m0-304.9v9"/><text transform="translate(215.6 353.9)" stroke="none" fill="#000" font-family="Arial" font-size="12" text-anchor="middle"><tspan>0.3</tspan></text></g><g fill="none" color="#000" stroke="currentColor"><path stroke="#000" d="M272.7 332v-9m0-304.9v9"/><text transform="translate(272.7 353.9)" stroke="none" fill="#000" font-family="Arial" font-size="12" text-anchor="middle"><tspan>0.4</tspan></text></g><g fill="none" color="#000" stroke="currentColor"><path stroke="#000" d="M329.7 332v-9m0-304.9v9"/><text transform="translate(329.7 353.9)" stroke="none" fill="#000" font-family="Arial" font-size="12" text-anchor="middle"><tspan>0.5</tspan></text></g><g fill="none" color="#000" stroke="currentColor"><path stroke="#000" d="M386.8 332v-9m0-304.9v9"/><text transform="translate(386.8 353.9)" stroke="none" fill="#000" font-family="Arial" font-size="12" text-anchor="middle"><tspan>0.6</tspan></text></g><g fill="none" color="#000" stroke="currentColor"><path stroke="#000" d="M443.8 332v-9m0-304.9v9"/><text transform="translate(443.8 353.9)" stroke="none" fill="#000" font-family="Arial" font-size="12" text-anchor="middle"><tspan>0.7</tspan></text></g><g fill="none" color="#000" stroke="currentColor"><path stroke="#000" d="M500.9 332v-9m0-304.9v9"/><text transform="translate(500.9 353.9)" stroke="none" fill="#000" font-family="Arial" font-size="12" text-anchor="middle"><tspan>0.8</tspan></text></g><g fill="none" color="#000" stroke="currentColor"><path stroke="#000" d="M557.9 332v-9m0-304.9v9"/><text transform="translate(557.9 353.9)" stroke="none" fill="#000" font-family="Arial" font-size="12" text-anchor="middle"><tspan>0.9</tspan></text></g><g fill="none" color="#000" stroke="currentColor"><path stroke="#000" d="M615 332v-9m0-304.9v9"/><text transform="translate(615 353.9)" stroke="none" fill="#000" font-family="Arial" font-size="12" text-anchor="middle"><tspan>1</tspan></text></g><path stroke="#000" d="M53.9 18.1V332H615V18.1H53.9z" fill="none" color="#000"/><text transform="translate(529.1 371.9)" stroke="none" fill="#000" font-family="Arial" font-size="12" text-anchor="end" color="#000"><tspan>empty</tspan></text><g stroke="none" shape-rendering="geometricPrecision" fill="#9400D3" fill-opacity=".5" color="#000"><path d="M537.4 372.5h42.2v-9h-42.2zM431.9 332h183.2V18H431.9z"/></g><text transform="translate(529.1 389.9)" stroke="none" fill="#000" font-family="Arial" font-size="12" text-anchor="end" color="#000"><tspan>pages</tspan></text><g stroke="none" shape-rendering="crispEdges" fill="#009E73" fill-opacity=".5" color="#000"><path d="M537.4 390.5h42.2v-9h-42.2zM173.6 332H432V228.3H173.6z"/><path d="M53.9 332h119.8V121.6H53.9z"/></g><text transform="translate(529.1 407.9)" stroke="none" fill="#000" font-family="Arial" font-size="12" text-anchor="end" color="#000"><tspan>pages+cached</tspan></text><g stroke="none" shape-rendering="crispEdges" fill="#56B4E9" fill-opacity=".5" color="#000"><path d="M537.4 408.5h42.2v-9h-42.2zM173.6 332H432V27.4H173.6z"/><path d="M431.9 332h183.2v-9.5H431.9z"/></g><text transform="translate(529.1 425.9)" stroke="none" fill="#000" font-family="Arial" font-size="12" text-anchor="end" color="#000"><tspan>pages+cached+nointeractive</tspan></text><g stroke="none" shape-rendering="crispEdges" fill="#E69F00" fill-opacity=".5" color="#000"><path d="M537.4 426.5h42.2v-9h-42.2zM173.6 332H432V33.7H173.6z"/><path d="M431.9 332h183.2v-15.8H431.9z"/></g><text transform="translate(529.1 443.9)" stroke="none" fill="#000" font-family="Arial" font-size="12" text-anchor="end" color="#000"><tspan>pages+cached+noadtech</tspan></text><g stroke="none" shape-rendering="crispEdges" fill="#F0E442" fill-opacity=".5" color="#000"><path d="M537.4 444.5h42.2v-9h-42.2zM173.6 332H432V127.9H173.6z"/><path d="M431.9 332h183.2V222H431.9z"/></g><text transform="translate(529.1 461.9)" stroke="none" fill="#000" font-family="Arial" font-size="12" text-anchor="end" color="#000"><tspan>pages+cached+noexternal</tspan></text><g stroke="none" shape-rendering="crispEdges" fill="#0072B2" fill-opacity=".5" color="#000"><path d="M537.4 462.5h42.2v-9h-42.2zM53.9 332h119.8v-12.7H53.9z"/><path d="M173.6 332H432V80.8H173.6z"/><path d="M431.9 332h183.2v-50.3H431.9z"/></g><text transform="translate(529.1 479.9)" stroke="none" fill="#000" font-family="Arial" font-size="12" text-anchor="end" color="#000"><tspan>pages+cached+noexternal+nofonts</tspan></text><g stroke="none" shape-rendering="crispEdges" fill="#E51E10" fill-opacity=".5" color="#000"><path d="M537.4 480.5h42.2v-9h-42.2zM431.9 332h183.2V134.1H431.9z"/><path d="M173.6 332H432V215.8H173.6z"/></g><g><text transform="translate(529.1 497.9)" stroke="none" fill="#000" font-family="Arial" font-size="12" text-anchor="end" color="#000"><tspan>pages+cached+noexternal+nosvg</tspan></text><g stroke="none" shape-rendering="crispEdges" fill="#000" fill-opacity=".5" color="#000"><path d="M537.4 498.5h42.2v-9h-42.2zM431.9 332h183.2v-69.2H431.9z"/><path d="M173.6 332H432V109H173.6z"/><path d="M53.9 332h119.8v-22.1H53.9z"/></g></g><g><text transform="translate(529.1 515.9)" stroke="none" fill="#000" font-family="Arial" font-size="12" text-anchor="end" color="#000"><tspan>pages+cached+noexternal+noimg</tspan></text><g stroke="none" shape-rendering="crispEdges" fill="#9400D3" fill-opacity=".5" color="#000"><path d="M537.4 516.5h42.2v-9h-42.2zM173.6 332H432V77.6H173.6z"/><path d="M431.9 332h183.2v-56.6H431.9zM53.9 332h119.8v-3.2H53.9z"/></g></g><g><text transform="translate(529.1 533.9)" stroke="none" fill="#000" font-family="Arial" font-size="12" text-anchor="end" color="#000"><tspan>pages+cached+noexternal+nocss</tspan></text><g stroke="none" shape-rendering="crispEdges" fill="#009E73" fill-opacity=".5" color="#000"><path d="M537.4 534.5h42.2v-9h-42.2zM173.6 332H432V33.7H173.6z"/><path d="M53.9 332h119.8v-15.8H53.9z"/></g></g><g><text transform="translate(529.1 551.9)" stroke="none" fill="#000" font-family="Arial" font-size="12" text-anchor="end" color="#000"><tspan>pages+cached+noexternal+nojs</tspan></text><g stroke="none" shape-rendering="crispEdges" fill="#56B4E9" fill-opacity=".5" color="#000"><path d="M537.4 552.5h42.2v-9h-42.2zM431.9 332h183.2V18H431.9z"/></g></g><g><text transform="translate(529.1 569.9)" stroke="none" fill="#000" font-family="Arial" font-size="12" text-anchor="end" color="#000"><tspan>pages+cached+noexternal+nofonts+nosvg+noimg</tspan></text><g stroke="none" shape-rendering="crispEdges" fill="#E69F00" fill-opacity=".5" color="#000"><path d="M537.4 570.5h42.2v-9h-42.2zM173.6 332H432V83.9H173.6z"/><path d="M431.9 332h183.2v-66H431.9z"/></g></g><g><text transform="translate(529.1 587.9)" stroke="none" fill="#000" font-family="Arial" font-size="12" text-anchor="end" color="#000"><tspan>pages+cached+noexternal+nofonts+nosvg+noimg+nocss</tspan></text><g stroke="none" shape-rendering="crispEdges" fill="#F0E442" fill-opacity=".5" color="#000"><path d="M537.4 588.5h42.2v-9h-42.2zM173.6 332H432V18H173.6z"/></g></g><g><text transform="translate(529.1 605.9)" stroke="none" fill="#000" font-family="Arial" font-size="12" text-anchor="end" color="#000"><tspan>pages+cached+noexternal+nofonts+nosvg+noimg+nocss+nojs</tspan></text><g stroke="none" shape-rendering="crispEdges" fill="#0072B2" fill-opacity=".5" color="#000"><path d="M537.4 606.5h42.2v-9h-42.2zM431.9 332h183.2V18H431.9z"/></g></g><g fill="none" color="#000" stroke="currentColor"><path stroke="#000" d="M53.9 18.1V332H615V18.1H53.9z"/></g></svg>