<svg width="640" height="500" xmlns="http://www.w3.org/2000/svg" xmlns:xlink="http://www.w3.org/1999/xlink"><path fill="#fff" d="M0 0h640v500H0z"/><defs><path id="d" stroke-width=".222" stroke="currentColor" d="M-1-1h2v2h-2z"/><path id="b" stroke-width=".222" stroke="currentColor" d="M0-1.33l-1.33 2h2.66z"/><path id="f" stroke-width=".222" stroke="currentColor" d="M0 1.33L1.265.411.782-1.067l-1.564-.009-.483 1.487z"/><use xlink:href="#b" id="c" stroke="currentColor" transform="rotate(180)"/><use xlink:href="#d" id="e" stroke="currentColor" transform="rotate(45)"/><circle id="a" stroke-width=".222" stroke="currentColor" cx="0" cy="0" r="1"/></defs><g fill="none" color="#000" stroke="currentColor"><path stroke="#000" d="M53.9 438.2h9m552.1 0h-9"/><text transform="translate(45.6 442.1)" stroke="none" fill="#000" font-family="Arial" font-size="12" text-anchor="end"><tspan>0</tspan></text></g><g fill="none" color="#000" stroke="currentColor"><path stroke="#000" d="M53.9 394.6h9m552.1 0h-9"/><text transform="translate(45.6 398.5)" stroke="none" fill="#000" font-family="Arial" font-size="12" text-anchor="end"><tspan>100</tspan></text></g><g fill="none" color="#000" stroke="currentColor"><path stroke="#000" d="M53.9 351.1h9m552.1 0h-9"/><text transform="translate(45.6 355)" stroke="none" fill="#000" font-family="Arial" font-size="12" text-anchor="end"><tspan>200</tspan></text></g><g fill="none" color="#000" stroke="currentColor"><path stroke="#000" d="M53.9 307.5h9m552.1 0h-9"/><text transform="translate(45.6 311.4)" stroke="none" fill="#000" font-family="Arial" font-size="12" text-anchor="end"><tspan>300</tspan></text></g><g fill="none" color="#000" stroke="currentColor"><path stroke="#000" d="M53.9 263.9h9m552.1 0h-9"/><text transform="translate(45.6 267.8)" stroke="none" fill="#000" font-family="Arial" font-size="12" text-anchor="end"><tspan>400</tspan></text></g><g fill="none" color="#000" stroke="currentColor"><path stroke="#000" d="M53.9 220.3h9m552.1 0h-9"/><text transform="translate(45.6 224.2)" stroke="none" fill="#000" font-family="Arial" font-size="12" text-anchor="end"><tspan>500</tspan></text></g><g fill="none" color="#000" stroke="currentColor"><path stroke="#000" d="M53.9 176.7h9m552.1 0h-9"/><text transform="translate(45.6 180.6)" stroke="none" fill="#000" font-family="Arial" font-size="12" text-anchor="end"><tspan>600</tspan></text></g><g fill="none" color="#000" stroke="currentColor"><path stroke="#000" d="M53.9 133.1h9m552.1 0h-9"/><text transform="translate(45.6 137)" stroke="none" fill="#000" font-family="Arial" font-size="12" text-anchor="end"><tspan>700</tspan></text></g><g fill="none" color="#000" stroke="currentColor"><path stroke="#000" d="M53.9 89.5h9m552.1 0h-9"/><text transform="translate(45.6 93.4)" stroke="none" fill="#000" font-family="Arial" font-size="12" text-anchor="end"><tspan>800</tspan></text></g><g fill="none" color="#000" stroke="currentColor"><path stroke="#000" d="M53.9 46h9M615 46h-9"/><text transform="translate(45.6 49.9)" stroke="none" fill="#000" font-family="Arial" font-size="12" text-anchor="end"><tspan>900</tspan></text></g><g fill="none" color="#000" stroke="currentColor"><path stroke="#000" d="M53.9 446v-9m0-418.9v9"/><text transform="translate(53.9 467.9)" stroke="none" fill="#000" font-family="Arial" font-size="12" text-anchor="middle"><tspan>0</tspan></text></g><g fill="none" color="#000" stroke="currentColor"><path stroke="#000" d="M110.6 446v-9m0-418.9v9"/><text transform="translate(110.6 467.9)" stroke="none" fill="#000" font-family="Arial" font-size="12" text-anchor="middle"><tspan>10</tspan></text></g><g fill="none" color="#000" stroke="currentColor"><path stroke="#000" d="M167.3 446v-9m0-418.9v9"/><text transform="translate(167.3 467.9)" stroke="none" fill="#000" font-family="Arial" font-size="12" text-anchor="middle"><tspan>20</tspan></text></g><g fill="none" color="#000" stroke="currentColor"><path stroke="#000" d="M223.9 446v-9m0-418.9v9"/><text transform="translate(223.9 467.9)" stroke="none" fill="#000" font-family="Arial" font-size="12" text-anchor="middle"><tspan>30</tspan></text></g><g fill="none" color="#000" stroke="currentColor"><path stroke="#000" d="M280.6 446v-9m0-418.9v9"/><text transform="translate(280.6 467.9)" stroke="none" fill="#000" font-family="Arial" font-size="12" text-anchor="middle"><tspan>40</tspan></text></g><g fill="none" color="#000" stroke="currentColor"><path stroke="#000" d="M337.3 446v-9m0-418.9v9"/><text transform="translate(337.3 467.9)" stroke="none" fill="#000" font-family="Arial" font-size="12" text-anchor="middle"><tspan>50</tspan></text></g><g fill="none" color="#000" stroke="currentColor"><path stroke="#000" d="M394 446v-9m0-418.9v9"/><text transform="translate(394 467.9)" stroke="none" fill="#000" font-family="Arial" font-size="12" text-anchor="middle"><tspan>60</tspan></text></g><g fill="none" color="#000" stroke="currentColor"><path stroke="#000" d="M450.6 446v-9m0-418.9v9"/><text transform="translate(450.6 467.9)" stroke="none" fill="#000" font-family="Arial" font-size="12" text-anchor="middle"><tspan>70</tspan></text></g><g fill="none" color="#000" stroke="currentColor"><path stroke="#000" d="M507.3 446v-9m0-418.9v9"/><text transform="translate(507.3 467.9)" stroke="none" fill="#000" font-family="Arial" font-size="12" text-anchor="middle"><tspan>80</tspan></text></g><g fill="none" color="#000" stroke="currentColor"><path stroke="#000" d="M564 446v-9m0-418.9v9"/><text transform="translate(564 467.9)" stroke="none" fill="#000" font-family="Arial" font-size="12" text-anchor="middle"><tspan>90</tspan></text></g><path stroke="#000" d="M53.9 18.1V446H615V18.1H53.9z" fill="none" color="#000"/><text transform="translate(275.6 485.9)" stroke="none" fill="#000" font-family="Arial" font-size="12" text-anchor="end" color="#000"><tspan>empty</tspan></text><path stroke="#9400D3" d="M283.9 482h42.2M53.9 437.8l5.7-.1H524.3l5.7-.1H592.3l5.7-.1h11.3l5.7-2.8" fill="none" color="#000"/><text transform="translate(375.9 485.9)" stroke="none" fill="#000" font-family="Arial" font-size="12" text-anchor="end" color="#000"><tspan>pages</tspan></text><path stroke="#009E73" d="M384.2 482h42.2M53.9 127.7l5.7-.4 5.6-.1 5.7-.1 5.7-.2 5.6-.5 5.7-.3h5.7l5.6-.1 5.7-.1 5.7-.2 5.6-.1h5.7l5.7-.4h17l5.7-.1h5.6l5.7-.1h5.7l5.6-.2 5.7-.2 5.7-.1h5.6l5.7-.2h5.7l5.6-.2 5.7-.1h5.7l5.6-.2 5.7-.2h5.7l5.6-.1h5.7l5.7-.1 5.6-.3h5.7l5.7-.1 5.6-.2 5.7-.3 5.7-.5 5.6-.4h5.7l5.7-.2h5.6l5.7-.6 5.7-.3h5.6l5.7-.1 5.7-.2h5.7l5.6-.2 5.7-.5h5.7l5.6-.1H377l5.6-.3 5.7-.2 5.7-.1 5.6-.1 5.7-.5 5.7-.1h5.6l5.7-.1h5.7l5.6-.5 5.7-.3 5.7-.2 5.6-.1H462l5.6-.1 5.7-.5h5.7l5.6-.2 5.7-.1h11.3l5.7-.4h5.7l5.6-.7 5.7-.5 5.7-.7 5.7-.1 5.6-.1 5.7-1.2 5.7-.1 5.6-.3L564 89l5.7-9.2 5.6-7.8 5.7-.5 5.7-2.2 5.6-.8 5.7-1.7 5.7-1.3h5.6l5.7-39.2" fill="none" color="#000"/><g fill="none" color="#000" stroke="currentColor"><path stroke="#000" d="M53.9 18.1V446H615V18.1H53.9z"/></g></svg>