<svg width="640" height="500" xmlns="http://www.w3.org/2000/svg" xmlns:xlink="http://www.w3.org/1999/xlink"><path fill="#fff" d="M0 0h640v500H0z"/><defs><path id="d" stroke-width=".222" stroke="currentColor" d="M-1-1h2v2h-2z"/><path id="b" stroke-width=".222" stroke="currentColor" d="M0-1.33l-1.33 2h2.66z"/><path id="f" stroke-width=".222" stroke="currentColor" d="M0 1.33L1.265.411.782-1.067l-1.564-.009-.483 1.487z"/><use xlink:href="#b" id="c" stroke="currentColor" transform="rotate(180)"/><use xlink:href="#d" id="e" stroke="currentColor" transform="rotate(45)"/><circle id="a" stroke-width=".222" stroke="currentColor" cx="0" cy="0" r="1"/></defs><g fill="none" color="#000" stroke="currentColor"><path stroke="#000" d="M37.3 427.3h9m568.7 0h-9"/><text transform="translate(29 431.2)" stroke="none" fill="#000" font-family="Arial" font-size="12" text-anchor="end"><tspan>1</tspan></text></g><g fill="none" color="#000" stroke="currentColor"><path stroke="#000" d="M37.3 369.6h9m568.7 0h-9"/><text transform="translate(29 373.5)" stroke="none" fill="#000" font-family="Arial" font-size="12" text-anchor="end"><tspan>2</tspan></text></g><g fill="none" color="#000" stroke="currentColor"><path stroke="#000" d="M37.3 311.8h9m568.7 0h-9"/><text transform="translate(29 315.7)" stroke="none" fill="#000" font-family="Arial" font-size="12" text-anchor="end"><tspan>3</tspan></text></g><g fill="none" color="#000" stroke="currentColor"><path stroke="#000" d="M37.3 254.1h9m568.7 0h-9"/><text transform="translate(29 258)" stroke="none" fill="#000" font-family="Arial" font-size="12" text-anchor="end"><tspan>4</tspan></text></g><g fill="none" color="#000" stroke="currentColor"><path stroke="#000" d="M37.3 196.3h9m568.7 0h-9"/><text transform="translate(29 200.2)" stroke="none" fill="#000" font-family="Arial" font-size="12" text-anchor="end"><tspan>5</tspan></text></g><g fill="none" color="#000" stroke="currentColor"><path stroke="#000" d="M37.3 138.6h9m568.7 0h-9"/><text transform="translate(29 142.5)" stroke="none" fill="#000" font-family="Arial" font-size="12" text-anchor="end"><tspan>6</tspan></text></g><g fill="none" color="#000" stroke="currentColor"><path stroke="#000" d="M37.3 80.8h9m568.7 0h-9"/><text transform="translate(29 84.7)" stroke="none" fill="#000" font-family="Arial" font-size="12" text-anchor="end"><tspan>7</tspan></text></g><g fill="none" color="#000" stroke="currentColor"><path stroke="#000" d="M37.3 23.1h9m568.7 0h-9"/><text transform="translate(29 27)" stroke="none" fill="#000" font-family="Arial" font-size="12" text-anchor="end"><tspan>8</tspan></text></g><g fill="none" color="#000" stroke="currentColor"><path stroke="#000" d="M37.3 428v-9m0-400.9v9"/><text transform="translate(37.3 449.9)" stroke="none" fill="#000" font-family="Arial" font-size="12" text-anchor="middle"><tspan>0</tspan></text></g><g fill="none" color="#000" stroke="currentColor"><path stroke="#000" d="M95.7 428v-9m0-400.9v9"/><text transform="translate(95.7 449.9)" stroke="none" fill="#000" font-family="Arial" font-size="12" text-anchor="middle"><tspan>10</tspan></text></g><g fill="none" color="#000" stroke="currentColor"><path stroke="#000" d="M154 428v-9m0-400.9v9"/><text transform="translate(154 449.9)" stroke="none" fill="#000" font-family="Arial" font-size="12" text-anchor="middle"><tspan>20</tspan></text></g><g fill="none" color="#000" stroke="currentColor"><path stroke="#000" d="M212.4 428v-9m0-400.9v9"/><text transform="translate(212.4 449.9)" stroke="none" fill="#000" font-family="Arial" font-size="12" text-anchor="middle"><tspan>30</tspan></text></g><g fill="none" color="#000" stroke="currentColor"><path stroke="#000" d="M270.7 428v-9m0-400.9v9"/><text transform="translate(270.7 449.9)" stroke="none" fill="#000" font-family="Arial" font-size="12" text-anchor="middle"><tspan>40</tspan></text></g><g fill="none" color="#000" stroke="currentColor"><path stroke="#000" d="M329.1 428v-9m0-400.9v9"/><text transform="translate(329.1 449.9)" stroke="none" fill="#000" font-family="Arial" font-size="12" text-anchor="middle"><tspan>50</tspan></text></g><g fill="none" color="#000" stroke="currentColor"><path stroke="#000" d="M387.4 428v-9m0-400.9v9"/><text transform="translate(387.4 449.9)" stroke="none" fill="#000" font-family="Arial" font-size="12" text-anchor="middle"><tspan>60</tspan></text></g><g fill="none" color="#000" stroke="currentColor"><path stroke="#000" d="M445.8 428v-9m0-400.9v9"/><text transform="translate(445.8 449.9)" stroke="none" fill="#000" font-family="Arial" font-size="12" text-anchor="middle"><tspan>70</tspan></text></g><g fill="none" color="#000" stroke="currentColor"><path stroke="#000" d="M504.1 428v-9m0-400.9v9"/><text transform="translate(504.1 449.9)" stroke="none" fill="#000" font-family="Arial" font-size="12" text-anchor="middle"><tspan>80</tspan></text></g><g fill="none" color="#000" stroke="currentColor"><path stroke="#000" d="M562.5 428v-9m0-400.9v9"/><text transform="translate(562.5 449.9)" stroke="none" fill="#000" font-family="Arial" font-size="12" text-anchor="middle"><tspan>90</tspan></text></g><path stroke="#000" d="M37.3 18.1V428H615V18.1H37.3z" fill="none" color="#000"/><text transform="translate(475.2 467.9)" stroke="none" fill="#000" font-family="Arial" font-size="12" text-anchor="end" color="#000"><tspan>pages+cached+noexternal+nojs</tspan></text><path stroke="#9400D3" d="M483.5 464h42.2M37.3 420.1l5.8-43.2 5.9-44.3 5.8-60.1 5.8-38.4 5.9-13.6 5.8-15.6 5.8-5 5.9-3.1 5.8-6.4 5.9-1.1 5.8-1.7 5.8-.3 5.9-1.9 5.8-4.2 5.8-2.3 5.9-.7 5.8-.3 5.8-.4 5.9-.4 5.8-3.7 5.8-1 5.9-.4 5.8-.1 5.8-.6 5.9-.2 5.8-2.9h5.9l5.8-.9 5.8-1.6 5.9-1.5 5.8-.3 5.8-1.7 5.9-.7 5.8-2.3 5.8-.3 5.9-.5 5.8-.6 5.8-.9 5.9-.7 5.8-.4 5.8-.8 5.9-.8 5.8-2.9 5.9-.6 5.8-1.5 5.8-.3 5.9-.1 5.8-.3 5.8-.3 5.9-3.4 5.8-.3 5.8-1.3h5.9l5.8-2 5.8-3.3 5.9-.2 5.8-1.1h5.9l5.8-2 5.8-1 5.9-1.4 5.8-.7 5.8-1.8 5.9-.5 5.8-1 5.8-.3 5.9-3 5.8-2.1 5.8-.3 5.9-1.6 5.8-.5 5.8-.1 5.9-5.5 5.8-1.6 5.9-.9 5.8-1.8 5.8-4 5.9-4.1 5.8-1 5.8-.4 5.9-.8 5.8-.1 5.8-1.6 5.9-.4 5.8-1 5.8-1.5 5.9-5.7 5.8-1.4 5.8-.2 5.9-6.5 5.8-5.3 5.9-2.4 5.8-.7 5.8-6.6 5.9-4.2 5.8-7.1 5.8-1.7 5.9-25.5L615 26" fill="none" color="#000"/><text transform="translate(475.2 485.9)" stroke="none" fill="#000" font-family="Arial" font-size="12" text-anchor="end" color="#000"><tspan>pages+cached+noexternal+nofonts+nosvg+noimg</tspan></text><path stroke="#009E73" d="M483.5 482h42.2M37.3 296.8l5.8-1.5 5.9-1.4 5.8-2.2 5.8-.5 5.9-3.6 5.8-3.8 5.8-.1 5.9-1.2 5.8-.1 5.9-.1 5.8-1.2 5.8-.7 5.9-1.3 5.8-.7 5.8-.5 5.9-.3h5.8l5.8-.1 5.9-.3 5.8-2.7 5.8-1.4 5.9-.7 5.8-.6 5.8-.6 5.9-.2 5.8-.8 5.9-1.4 5.8-1.6 5.8-.4 5.9-.4 5.8-1 5.8-.3 5.9-.7 5.8-.5 5.8-.7 5.9-.1 5.8-1 5.8-.8 5.9-.3 5.8-.2 5.8-1.7 5.9-.2h5.8l5.9-.1 5.8-1 5.8-.9 5.9-.2 5.8-.6 5.8-.1 5.9-.3 5.8-.2 5.8-.3 5.9-.4 5.8-.1 5.8-1.2 5.9-.2 5.8-.7 5.9-.5 5.8-2.1 5.8-.6 5.9-.8 5.8-.4 5.8-.3 5.9-.3h5.8l5.8-.2 5.9-.2 5.8-1.8 5.8-.1 5.9-1.4 5.8-3.6 5.8-.9h5.9l5.8-.6 5.9-1.8 5.8-2.3 5.8-3 5.9-2.2 5.8-.5 5.8-1.3 5.9-.6h5.8l5.8-.3 5.9-1.3 5.8-.5h5.8l5.9-.6 5.8-2.4 5.8-1.6 5.9-4 5.8-3.2 5.9-.3 5.8-1.8 5.8-.9 5.9-1.5 5.8-.3 5.8-11 5.9-4.5 5.8-.9" fill="none" color="#000"/><g fill="none" color="#000" stroke="currentColor"><path stroke="#000" d="M37.3 18.1V428H615V18.1H37.3z"/></g></svg>