<svg width="640" height="500" xmlns="http://www.w3.org/2000/svg" xmlns:xlink="http://www.w3.org/1999/xlink"><path fill="#fff" d="M0 0h640v500H0z"/><defs><path id="d" stroke-width=".222" stroke="currentColor" d="M-1-1h2v2h-2z"/><path id="b" stroke-width=".222" stroke="currentColor" d="M0-1.33l-1.33 2h2.66z"/><path id="f" stroke-width=".222" stroke="currentColor" d="M0 1.33L1.265.411.782-1.067l-1.564-.009-.483 1.487z"/><use xlink:href="#b" id="c" stroke="currentColor" transform="rotate(180)"/><use xlink:href="#d" id="e" stroke="currentColor" transform="rotate(45)"/><circle id="a" stroke-width=".222" stroke="currentColor" cx="0" cy="0" r="1"/></defs><g fill="none" color="#000" stroke="currentColor"><path stroke="#000" d="M45.6 400.7h9m560.4 0h-9"/><text transform="translate(37.3 404.6)" stroke="none" fill="#000" font-family="Arial" font-size="12" text-anchor="end"><tspan>5</tspan></text></g><g fill="none" color="#000" stroke="currentColor"><path stroke="#000" d="M45.6 343h9m560.4 0h-9"/><text transform="translate(37.3 346.9)" stroke="none" fill="#000" font-family="Arial" font-size="12" text-anchor="end"><tspan>6</tspan></text></g><g fill="none" color="#000" stroke="currentColor"><path stroke="#000" d="M45.6 285.4h9m560.4 0h-9"/><text transform="translate(37.3 289.3)" stroke="none" fill="#000" font-family="Arial" font-size="12" text-anchor="end"><tspan>7</tspan></text></g><g fill="none" color="#000" stroke="currentColor"><path stroke="#000" d="M45.6 227.7h9m560.4 0h-9"/><text transform="translate(37.3 231.6)" stroke="none" fill="#000" font-family="Arial" font-size="12" text-anchor="end"><tspan>8</tspan></text></g><g fill="none" color="#000" stroke="currentColor"><path stroke="#000" d="M45.6 170.1h9m560.4 0h-9"/><text transform="translate(37.3 174)" stroke="none" fill="#000" font-family="Arial" font-size="12" text-anchor="end"><tspan>9</tspan></text></g><g fill="none" color="#000" stroke="currentColor"><path stroke="#000" d="M45.6 112.4h9m560.4 0h-9"/><text transform="translate(37.3 116.3)" stroke="none" fill="#000" font-family="Arial" font-size="12" text-anchor="end"><tspan>10</tspan></text></g><g fill="none" color="#000" stroke="currentColor"><path stroke="#000" d="M45.6 54.8h9m560.4 0h-9"/><text transform="translate(37.3 58.7)" stroke="none" fill="#000" font-family="Arial" font-size="12" text-anchor="end"><tspan>11</tspan></text></g><g fill="none" color="#000" stroke="currentColor"><path stroke="#000" d="M45.6 446v-9m0-418.9v9"/><text transform="translate(45.6 467.9)" stroke="none" fill="#000" font-family="Arial" font-size="12" text-anchor="middle"><tspan>0</tspan></text></g><g fill="none" color="#000" stroke="currentColor"><path stroke="#000" d="M103.1 446v-9m0-418.9v9"/><text transform="translate(103.1 467.9)" stroke="none" fill="#000" font-family="Arial" font-size="12" text-anchor="middle"><tspan>10</tspan></text></g><g fill="none" color="#000" stroke="currentColor"><path stroke="#000" d="M160.6 446v-9m0-418.9v9"/><text transform="translate(160.6 467.9)" stroke="none" fill="#000" font-family="Arial" font-size="12" text-anchor="middle"><tspan>20</tspan></text></g><g fill="none" color="#000" stroke="currentColor"><path stroke="#000" d="M218.1 446v-9m0-418.9v9"/><text transform="translate(218.1 467.9)" stroke="none" fill="#000" font-family="Arial" font-size="12" text-anchor="middle"><tspan>30</tspan></text></g><g fill="none" color="#000" stroke="currentColor"><path stroke="#000" d="M275.7 446v-9m0-418.9v9"/><text transform="translate(275.7 467.9)" stroke="none" fill="#000" font-family="Arial" font-size="12" text-anchor="middle"><tspan>40</tspan></text></g><g fill="none" color="#000" stroke="currentColor"><path stroke="#000" d="M333.2 446v-9m0-418.9v9"/><text transform="translate(333.2 467.9)" stroke="none" fill="#000" font-family="Arial" font-size="12" text-anchor="middle"><tspan>50</tspan></text></g><g fill="none" color="#000" stroke="currentColor"><path stroke="#000" d="M390.7 446v-9m0-418.9v9"/><text transform="translate(390.7 467.9)" stroke="none" fill="#000" font-family="Arial" font-size="12" text-anchor="middle"><tspan>60</tspan></text></g><g fill="none" color="#000" stroke="currentColor"><path stroke="#000" d="M448.2 446v-9m0-418.9v9"/><text transform="translate(448.2 467.9)" stroke="none" fill="#000" font-family="Arial" font-size="12" text-anchor="middle"><tspan>70</tspan></text></g><g fill="none" color="#000" stroke="currentColor"><path stroke="#000" d="M505.7 446v-9m0-418.9v9"/><text transform="translate(505.7 467.9)" stroke="none" fill="#000" font-family="Arial" font-size="12" text-anchor="middle"><tspan>80</tspan></text></g><g fill="none" color="#000" stroke="currentColor"><path stroke="#000" d="M563.2 446v-9m0-418.9v9"/><text transform="translate(563.2 467.9)" stroke="none" fill="#000" font-family="Arial" font-size="12" text-anchor="middle"><tspan>90</tspan></text></g><path stroke="#000" d="M45.6 18.1V446H615V18.1H45.6z" fill="none" color="#000"/><text transform="translate(271.5 485.9)" stroke="none" fill="#000" font-family="Arial" font-size="12" text-anchor="end" color="#000"><tspan>pages+cached+noadtech</tspan></text><path stroke="#9400D3" d="M279.8 482H322M45.6 437.8l5.8-34.1 5.7-21.2 5.8-.4 5.7-13.6 5.8-9.7 5.7-5.5 5.8-.7 5.7-2.3 5.8-.6 5.7-1.8 5.8-12.9 5.7-1.3 5.8-.2 5.7-6.1 5.8-1 5.7-.4 5.8-3.1 5.7-1.2 5.8-4.2 5.7-3 5.8-.4 5.7-1.9 5.8-.9 5.7-.3 5.8-3 5.7-.8 5.8-2.9 5.7-2.4 5.8-.6 5.7-.2 5.8-.2h5.7l5.8-1.6 5.8-3.9 5.7-2.1 5.8-.3 5.7-3.5 5.8-7.4 5.7-.2 5.8-.3 5.7-1.2 5.8-.9 5.7-1 5.8-.2 5.7-.5 5.8-1.1 5.7-.9 5.8-.2 5.7-1.8 5.8-.1 5.7-1.5 5.8-1 5.7-.3 5.8-.3 5.7-1.6 5.8-1.8 5.7-.6 5.8-4.5 5.7-1.3 5.8-3.3 5.7-.3h5.8l5.7-2.1 5.8-.9 5.7-1.3 5.8-1.2 5.8-.1 5.7-4.5 5.8-.4 5.7-1.3 5.8-.8 5.7-1 5.8-.3 5.7-1.6 5.8-1.1 5.7-4.1 5.8-2.2 5.7-2.8 5.8-.3 5.7-1.9 5.8-1.6 5.7-2.3 5.8-.5 5.7-1.7 5.8-8.3 5.7-.1 5.8-.3 5.7-9.1 5.8-1.2 5.7-1 5.8-2.2 5.7-1.1 5.8-1.6 5.7-.7 5.8-1.1 5.7-.7 5.8-14.6 5.7-51.9 5.8-103" fill="none" color="#000"/><text transform="translate(521.2 485.9)" stroke="none" fill="#000" font-family="Arial" font-size="12" text-anchor="end" color="#000"><tspan>pages+cached+noexternal</tspan></text><path stroke="#009E73" d="M529.5 482h42.2M45.6 421.9l5.8-4.5 5.7-4.8 5.8-2.8 5.7-5.4 5.8-.1 5.7-1.3 5.8-2.4 5.7-1.6 5.8-3.1 5.7-.7 5.8-1.1 5.7-.7 5.8-2.7 5.7-2.1 5.8-.6 5.7-.9 5.8-.7 5.7-.4 5.8-1.7 5.7-3.7 5.8-2 5.7-.2 5.8-.4 5.7-.5 5.8-.1 5.7-.3 5.8-.1 5.7-.3 5.8-.9 5.7-1.2 5.8-5.9 5.7-.2 5.8-.5 5.8-1.6 5.7-.1 5.8-.6 5.7-1.1 5.8-.6 5.7-1.6 5.8-.5 5.7-.5 5.8-.1 5.7-.4 5.8-.5 5.7-.2h5.8l5.7-.6 5.8-1.4 5.7-.6 5.8-1.3 5.7-.8 5.8-.8 5.7-2.1 5.8-.6 5.7-.5 5.8-.9 5.7-.2 5.8-.7 5.7-2.2h5.8l5.7-3.7 5.8-1.2 5.7-1.3 5.8-1.2 5.7-2.9 5.8-.8 5.8-1.8h5.7l5.8-.4 5.7-.1 5.8-.8 5.7-2.2 5.8-1.5 5.7-.8 5.8-.1 5.7-.8 5.8-1.4 5.7-3.3 5.8-.7 5.7-2.1 5.8-1 5.7-2.2 5.8-.3 5.7-.2 5.8-.3 5.7-2.2 5.8-.3 5.7-1 5.8-2.4 5.7-2.6 5.8-.2 5.7-.6 5.8-1.3 5.7-5.6 5.8-.5 5.7-12.4 5.8-26.6 5.7-1.5 5.8-13.5" fill="none" color="#000"/><g fill="none" color="#000" stroke="currentColor"><path stroke="#000" d="M45.6 18.1V446H615V18.1H45.6z"/></g></svg>