<svg width="640" height="620" xmlns="http://www.w3.org/2000/svg" xmlns:xlink="http://www.w3.org/1999/xlink"><path fill="#fff" d="M0 0h640v620H0z"/><defs><path id="d" stroke-width=".222" stroke="currentColor" d="M-1-1h2v2h-2z"/><path id="b" stroke-width=".222" stroke="currentColor" d="M0-1.33l-1.33 2h2.66z"/><path id="f" stroke-width=".222" stroke="currentColor" d="M0 1.33L1.265.411.782-1.067l-1.564-.009-.483 1.487z"/><use xlink:href="#b" id="c" stroke="currentColor" transform="rotate(180)"/><use xlink:href="#d" id="e" stroke="currentColor" transform="rotate(45)"/><circle id="a" stroke-width=".222" stroke="currentColor" cx="0" cy="0" r="1"/></defs><g fill="none" color="#000" stroke="currentColor"><path stroke="#000" d="M53.9 326.3h9m552.1 0h-9"/><text transform="translate(45.6 330.2)" stroke="none" fill="#000" font-family="Arial" font-size="12" text-anchor="end"><tspan>0</tspan></text></g><g fill="none" color="#000" stroke="currentColor"><path stroke="#000" d="M53.9 294.3h9m552.1 0h-9"/><text transform="translate(45.6 298.2)" stroke="none" fill="#000" font-family="Arial" font-size="12" text-anchor="end"><tspan>100</tspan></text></g><g fill="none" color="#000" stroke="currentColor"><path stroke="#000" d="M53.9 262.3h9m552.1 0h-9"/><text transform="translate(45.6 266.2)" stroke="none" fill="#000" font-family="Arial" font-size="12" text-anchor="end"><tspan>200</tspan></text></g><g fill="none" color="#000" stroke="currentColor"><path stroke="#000" d="M53.9 230.4h9m552.1 0h-9"/><text transform="translate(45.6 234.3)" stroke="none" fill="#000" font-family="Arial" font-size="12" text-anchor="end"><tspan>300</tspan></text></g><g fill="none" color="#000" stroke="currentColor"><path stroke="#000" d="M53.9 198.4h9m552.1 0h-9"/><text transform="translate(45.6 202.3)" stroke="none" fill="#000" font-family="Arial" font-size="12" text-anchor="end"><tspan>400</tspan></text></g><g fill="none" color="#000" stroke="currentColor"><path stroke="#000" d="M53.9 166.4h9m552.1 0h-9"/><text transform="translate(45.6 170.3)" stroke="none" fill="#000" font-family="Arial" font-size="12" text-anchor="end"><tspan>500</tspan></text></g><g fill="none" color="#000" stroke="currentColor"><path stroke="#000" d="M53.9 134.5h9m552.1 0h-9"/><text transform="translate(45.6 138.4)" stroke="none" fill="#000" font-family="Arial" font-size="12" text-anchor="end"><tspan>600</tspan></text></g><g fill="none" color="#000" stroke="currentColor"><path stroke="#000" d="M53.9 102.5h9m552.1 0h-9"/><text transform="translate(45.6 106.4)" stroke="none" fill="#000" font-family="Arial" font-size="12" text-anchor="end"><tspan>700</tspan></text></g><g fill="none" color="#000" stroke="currentColor"><path stroke="#000" d="M53.9 70.5h9m552.1 0h-9"/><text transform="translate(45.6 74.4)" stroke="none" fill="#000" font-family="Arial" font-size="12" text-anchor="end"><tspan>800</tspan></text></g><g fill="none" color="#000" stroke="currentColor"><path stroke="#000" d="M53.9 38.5h9m552.1 0h-9"/><text transform="translate(45.6 42.4)" stroke="none" fill="#000" font-family="Arial" font-size="12" text-anchor="end"><tspan>900</tspan></text></g><g fill="none" color="#000" stroke="currentColor"><path stroke="#000" d="M53.9 332v-9m0-304.9v9"/><text transform="translate(53.9 353.9)" stroke="none" fill="#000" font-family="Arial" font-size="12" text-anchor="middle"><tspan>0</tspan></text></g><g fill="none" color="#000" stroke="currentColor"><path stroke="#000" d="M110.6 332v-9m0-304.9v9"/><text transform="translate(110.6 353.9)" stroke="none" fill="#000" font-family="Arial" font-size="12" text-anchor="middle"><tspan>10</tspan></text></g><g fill="none" color="#000" stroke="currentColor"><path stroke="#000" d="M167.3 332v-9m0-304.9v9"/><text transform="translate(167.3 353.9)" stroke="none" fill="#000" font-family="Arial" font-size="12" text-anchor="middle"><tspan>20</tspan></text></g><g fill="none" color="#000" stroke="currentColor"><path stroke="#000" d="M223.9 332v-9m0-304.9v9"/><text transform="translate(223.9 353.9)" stroke="none" fill="#000" font-family="Arial" font-size="12" text-anchor="middle"><tspan>30</tspan></text></g><g fill="none" color="#000" stroke="currentColor"><path stroke="#000" d="M280.6 332v-9m0-304.9v9"/><text transform="translate(280.6 353.9)" stroke="none" fill="#000" font-family="Arial" font-size="12" text-anchor="middle"><tspan>40</tspan></text></g><g fill="none" color="#000" stroke="currentColor"><path stroke="#000" d="M337.3 332v-9m0-304.9v9"/><text transform="translate(337.3 353.9)" stroke="none" fill="#000" font-family="Arial" font-size="12" text-anchor="middle"><tspan>50</tspan></text></g><g fill="none" color="#000" stroke="currentColor"><path stroke="#000" d="M394 332v-9m0-304.9v9"/><text transform="translate(394 353.9)" stroke="none" fill="#000" font-family="Arial" font-size="12" text-anchor="middle"><tspan>60</tspan></text></g><g fill="none" color="#000" stroke="currentColor"><path stroke="#000" d="M450.6 332v-9m0-304.9v9"/><text transform="translate(450.6 353.9)" stroke="none" fill="#000" font-family="Arial" font-size="12" text-anchor="middle"><tspan>70</tspan></text></g><g fill="none" color="#000" stroke="currentColor"><path stroke="#000" d="M507.3 332v-9m0-304.9v9"/><text transform="translate(507.3 353.9)" stroke="none" fill="#000" font-family="Arial" font-size="12" text-anchor="middle"><tspan>80</tspan></text></g><g fill="none" color="#000" stroke="currentColor"><path stroke="#000" d="M564 332v-9m0-304.9v9"/><text transform="translate(564 353.9)" stroke="none" fill="#000" font-family="Arial" font-size="12" text-anchor="middle"><tspan>90</tspan></text></g><path stroke="#000" d="M53.9 18.1V332H615V18.1H53.9z" fill="none" color="#000"/><text transform="translate(529.1 371.9)" stroke="none" fill="#000" font-family="Arial" font-size="12" text-anchor="end" color="#000"><tspan>empty</tspan></text><path stroke="#9400D3" d="M537.4 368h42.2M53.9 326l5.7-.1H564l5.7-.1h39.6l5.7-2.1" fill="none" color="#000"/><text transform="translate(529.1 389.9)" stroke="none" fill="#000" font-family="Arial" font-size="12" text-anchor="end" color="#000"><tspan>pages</tspan></text><path stroke="#009E73" d="M537.4 386h42.2M53.9 98.5l5.7-.3 5.6-.1 5.7-.1 5.7-.1 5.6-.4 5.7-.2h5.7l5.6-.1h5.7l5.7-.2h5.6l5.7-.1 5.7-.2 5.6-.1H161.6l5.7-.1 5.6-.1 5.7-.2 5.7-.1h5.6l5.7-.1h5.7l5.6-.1 5.7-.1h5.7l5.6-.1 5.7-.2h5.7l5.6-.1h11.4l5.6-.3h5.7l5.7-.1 5.6-.1 5.7-.2 5.7-.4 5.6-.3h5.7l5.7-.1h5.6l5.7-.5 5.7-.2h5.6l5.7-.1 5.7-.1h5.7l5.6-.1 5.7-.4h5.7l5.6-.1H377l5.6-.2 5.7-.2h5.7l5.6-.1 5.7-.3 5.7-.1 5.6-.1H428l5.6-.4 5.7-.2 5.7-.1 5.6-.1H462l5.6-.1 5.7-.4h5.7l5.6-.1 5.7-.1h11.3l5.7-.3h5.7l5.6-.5 5.7-.3 5.7-.6h5.7l5.6-.1 5.7-.9 5.7-.1 5.6-.2 5.7-16.8 5.7-6.7 5.6-5.7 5.7-.4 5.7-1.6 5.6-.7 5.7-1.2 5.7-.9h5.6l5.7-28.8" fill="none" color="#000"/><text transform="translate(529.1 407.9)" stroke="none" fill="#000" font-family="Arial" font-size="12" text-anchor="end" color="#000"><tspan>pages+cached</tspan></text><path stroke="#56B4E9" d="M537.4 404h42.2M53.9 324.7l5.7-.1h11.3l5.7-.1H121.9l5.7-.1H201.3l5.6-.1H252.3l5.6-.1H337.3l5.7-.1h17l5.6-.1h22.7l5.7-.1h5.6l5.7-.1h11.3l5.7-.1H445l5.6-.1h5.7l5.7-.1h22.6l5.7-.1H518.6l5.7-.1h17l5.7-.1 5.7-.1h17l5.6-.1 5.7-.1 5.7-.1h5.6l5.7-.1h5.7l5.6-.2L615 92.6" fill="none" color="#000"/><text transform="translate(529.1 425.9)" stroke="none" fill="#000" font-family="Arial" font-size="12" text-anchor="end" color="#000"><tspan>pages+cached+nointeractive</tspan></text><path stroke="#E69F00" d="M537.4 422h42.2M53.9 324.8h5.7l5.6-.1h34l5.7-.1H201.3l5.6-.1H320.3l5.6-.1h90.7l5.7-.1H473.3l5.7-.1h5.6l5.7-.1 5.7-.1h11.3l5.7-.1h5.6l5.7-.1 5.7-.1h22.7l5.6-.1h5.7l5.7-.1H581l5.7-.1H598l5.7-.1h5.6l5.7-.2" fill="none" color="#000"/><text transform="translate(529.1 443.9)" stroke="none" fill="#000" font-family="Arial" font-size="12" text-anchor="end" color="#000"><tspan>pages+cached+noadtech</tspan></text><path stroke="#F0E442" d="M537.4 440h42.2M53.9 324.9l5.7-.2 5.6-.1h5.7l5.7-.1h5.6l5.7-.1h22.7l5.6-.1h39.7l5.7-.1H206.9l5.7-.1H263.6l5.7-.1H377l5.6-.1H433.6l5.7-.1H501.6l5.7-.1H547l5.7-.1H598l5.7-.1 5.6-.3 5.7-.6" fill="none" color="#000"/><text transform="translate(529.1 461.9)" stroke="none" fill="#000" font-family="Arial" font-size="12" text-anchor="end" color="#000"><tspan>pages+cached+noexternal</tspan></text><path stroke="#0072B2" d="M537.4 458h42.2M53.9 324.8h11.3l5.7-.1H121.9l5.7-.1H223.9l5.7-.1H337.3l5.7-.1H416.6l5.7-.1H507.3l5.7-.1H581l5.7-.1H598l5.7-.2h5.6l5.7-.1" fill="none" color="#000"/><text transform="translate(529.1 479.9)" stroke="none" fill="#000" font-family="Arial" font-size="12" text-anchor="end" color="#000"><tspan>pages+cached+noexternal+nofonts</tspan></text><path stroke="#E51E10" d="M537.4 476h42.2M53.9 325.3l5.7-.1h17l5.6-.1H167.3l5.6-.1H388.3l5.7-.1H541.3l5.7-.1H592.3l5.7-.1h17" fill="none" color="#000"/><g><text transform="translate(529.1 497.9)" stroke="none" fill="#000" font-family="Arial" font-size="12" text-anchor="end" color="#000"><tspan>pages+cached+noexternal+nosvg</tspan></text><path stroke="#000" d="M537.4 494h42.2M53.9 325l5.7-.2h22.6l5.7-.1H116.2l5.7-.1H172.9l5.7-.1H286.3l5.6-.1h107.7l5.7-.1H473.3l5.7-.1H541.3l5.7-.1h11.3l5.7-.1H592.3l5.7-.1 5.7-.1h5.6l5.7-.1" fill="none" color="#000"/></g><g><text transform="translate(529.1 515.9)" stroke="none" fill="#000" font-family="Arial" font-size="12" text-anchor="end" color="#000"><tspan>pages+cached+noexternal+noimg</tspan></text><path stroke="#9400D3" d="M537.4 512h42.2M53.9 325.2h5.7l5.6-.1h11.4l5.6-.1h79.4l5.7-.1H382.6l5.7-.1H507.3l5.7-.1H581l5.7-.1h17l5.6-.1 5.7-.2" fill="none" color="#000"/></g><g><text transform="translate(529.1 533.9)" stroke="none" fill="#000" font-family="Arial" font-size="12" text-anchor="end" color="#000"><tspan>pages+cached+noexternal+nocss</tspan></text><path stroke="#009E73" d="M537.4 530h42.2M53.9 325.2l5.7-.1h22.6l5.7-.1H161.6l5.7-.1H263.6l5.7-.1H473.3l5.7-.1H564l5.7-.1h22.6l5.7-.1h5.7l5.6-.1h5.7" fill="none" color="#000"/></g><g><text transform="translate(529.1 551.9)" stroke="none" fill="#000" font-family="Arial" font-size="12" text-anchor="end" color="#000"><tspan>pages+cached+noexternal+nojs</tspan></text><path stroke="#56B4E9" d="M537.4 548h42.2M53.9 325.9l5.7-.2 5.6-.2 5.7-.4 5.7-.2 5.6-.1 5.7-.1h22.7l5.6-.1h79.4l5.7-.1H291.9l5.7-.1H388.3l5.7-.1H462l5.6-.1H530l5.7-.1H564l5.7-.1h22.6l5.7-.1h5.7l5.6-.1h5.7" fill="none" color="#000"/></g><g><text transform="translate(529.1 569.9)" stroke="none" fill="#000" font-family="Arial" font-size="12" text-anchor="end" color="#000"><tspan>pages+cached+noexternal+nofonts+nosvg+noimg</tspan></text><path stroke="#E69F00" d="M537.4 566h42.2M53.9 325.3l5.7-.1H133.2l5.7-.1h141.7l5.7-.1H450.6l5.7-.1H547l5.7-.1H598l5.7-.1H615" fill="none" color="#000"/></g><g><text transform="translate(529.1 587.9)" stroke="none" fill="#000" font-family="Arial" font-size="12" text-anchor="end" color="#000"><tspan>pages+cached+noexternal+nofonts+nosvg+noimg+nocss</tspan></text><path stroke="#F0E442" d="M537.4 584h42.2M53.9 325.3h5.7l5.6-.1h28.4l5.6-.1h136.1l5.6-.1H388.3l5.7-.1H507.3l5.7-.1h39.7l5.6-.1h34l5.7-.1h17" fill="none" color="#000"/></g><g><text transform="translate(529.1 605.9)" stroke="none" fill="#000" font-family="Arial" font-size="12" text-anchor="end" color="#000"><tspan>pages+cached+noexternal+nofonts+nosvg+noimg+nocss+nojs</tspan></text><path stroke="#0072B2" d="M537.4 602h42.2M53.9 325.2l5.7-.1h34l5.6-.1h28.4l5.6-.1h90.7l5.7-.1H360l5.6-.1H524.3l5.7-.1H592.3l5.7-.1h17" fill="none" color="#000"/></g><g fill="none" color="#000" stroke="currentColor"><path stroke="#000" d="M53.9 18.1V332H615V18.1H53.9z"/></g></svg>