<svg width="640" height="520" xmlns="http://www.w3.org/2000/svg" xmlns:xlink="http://www.w3.org/1999/xlink"><path fill="#fff" d="M0 0h640v520H0z"/><defs><path id="g" stroke-width=".222" stroke="currentColor" d="M-1 0h2M0-1v2"/><path id="h" stroke-width=".222" stroke="currentColor" d="M-1-1l2 2m0-2l-2 2"/><path id="i" stroke-width=".222" stroke="currentColor" d="M-1 0h2M0-1v2m-1-2l2 2m-2 0l2-2"/><path id="d" stroke-width=".222" stroke="currentColor" d="M-1-1h2v2h-2z"/><path id="b" stroke-width=".222" stroke="currentColor" d="M0-1.33l-1.33 2h2.66z"/><path id="f" stroke-width=".222" stroke="currentColor" d="M0 1.33L1.265.411.782-1.067l-1.564-.009-.483 1.487z"/><use xlink:href="#b" id="c" stroke="currentColor" transform="rotate(180)"/><use xlink:href="#d" id="e" stroke="currentColor" transform="rotate(45)"/><circle id="a" stroke-width=".222" stroke="currentColor" cx="0" cy="0" r="1"/></defs><g fill="none" color="#000" stroke="currentColor"><path stroke="#000" d="M53.9 424h9m552.1 0h-9"/><text transform="translate(45.6 427.9)" stroke="none" fill="#000" font-family="Arial" font-size="12" text-anchor="end"><tspan>0.5</tspan></text></g><g fill="none" color="#000" stroke="currentColor"><path stroke="#000" d="M53.9 344.5h9m552.1 0h-9"/><text transform="translate(45.6 348.4)" stroke="none" fill="#000" font-family="Arial" font-size="12" text-anchor="end"><tspan>0.6</tspan></text></g><g fill="none" color="#000" stroke="currentColor"><path stroke="#000" d="M53.9 265.1h9m552.1 0h-9"/><text transform="translate(45.6 269)" stroke="none" fill="#000" font-family="Arial" font-size="12" text-anchor="end"><tspan>0.7</tspan></text></g><g fill="none" color="#000" stroke="currentColor"><path stroke="#000" d="M53.9 185.6h9m552.1 0h-9"/><text transform="translate(45.6 189.5)" stroke="none" fill="#000" font-family="Arial" font-size="12" text-anchor="end"><tspan>0.8</tspan></text></g><g fill="none" color="#000" stroke="currentColor"><path stroke="#000" d="M53.9 106.2h9m552.1 0h-9"/><text transform="translate(45.6 110.1)" stroke="none" fill="#000" font-family="Arial" font-size="12" text-anchor="end"><tspan>0.9</tspan></text></g><g fill="none" color="#000" stroke="currentColor"><path stroke="#000" d="M53.9 26.7h9m552.1 0h-9"/><text transform="translate(45.6 30.6)" stroke="none" fill="#000" font-family="Arial" font-size="12" text-anchor="end"><tspan>1</tspan></text></g><g fill="none" color="#000" stroke="currentColor"><path stroke="#000" d="M53.9 466v-9m0-438.9v9"/><text transform="translate(53.9 487.9)" stroke="none" fill="#000" font-family="Arial" font-size="12" text-anchor="middle"><tspan>0</tspan></text></g><g fill="none" color="#000" stroke="currentColor"><path stroke="#000" d="M140.2 466v-9m0-438.9v9"/><text transform="translate(140.2 487.9)" stroke="none" fill="#000" font-family="Arial" font-size="12" text-anchor="middle"><tspan>2</tspan></text></g><g fill="none" color="#000" stroke="currentColor"><path stroke="#000" d="M226.5 466v-9m0-438.9v9"/><text transform="translate(226.5 487.9)" stroke="none" fill="#000" font-family="Arial" font-size="12" text-anchor="middle"><tspan>4</tspan></text></g><g fill="none" color="#000" stroke="currentColor"><path stroke="#000" d="M312.9 466v-9m0-438.9v9"/><text transform="translate(312.9 487.9)" stroke="none" fill="#000" font-family="Arial" font-size="12" text-anchor="middle"><tspan>6</tspan></text></g><g fill="none" color="#000" stroke="currentColor"><path stroke="#000" d="M399.2 466v-9m0-438.9v9"/><text transform="translate(399.2 487.9)" stroke="none" fill="#000" font-family="Arial" font-size="12" text-anchor="middle"><tspan>8</tspan></text></g><g fill="none" color="#000" stroke="currentColor"><path stroke="#000" d="M485.5 466v-9m0-438.9v9"/><text transform="translate(485.5 487.9)" stroke="none" fill="#000" font-family="Arial" font-size="12" text-anchor="middle"><tspan>10</tspan></text></g><g fill="none" color="#000" stroke="currentColor"><path stroke="#000" d="M571.8 466v-9m0-438.9v9"/><text transform="translate(571.8 487.9)" stroke="none" fill="#000" font-family="Arial" font-size="12" text-anchor="middle"><tspan>12</tspan></text></g><path stroke="#000" d="M53.9 18.1V466H615V18.1H53.9z" fill="none" color="#000"/><text transform="translate(142.1 505.9)" stroke="none" fill="#000" font-family="Arial" font-size="12" text-anchor="end" color="#000"><tspan>p90min</tspan></text><g fill="none" color="#000" stroke="currentColor"><path stroke="#9400D3" d="M150.4 502h42.2M53.9 26.7l43.2 430.7 43.1-40.1 43.2-3.1L226.5 259l43.2 3.7 43.2-27.1L356 257l43.2-21.5 43.2-163.4 86.3 16.1 43.1-10.4L615 28.9"/><use xlink:href="#g" transform="matrix(4.5 0 0 4.5 53.9 26.7)" color="#9400D3"/><use xlink:href="#g" transform="matrix(4.5 0 0 4.5 97.1 457.4)" color="#9400D3"/><use xlink:href="#g" transform="matrix(4.5 0 0 4.5 140.2 417.3)" color="#9400D3"/><use xlink:href="#g" transform="matrix(4.5 0 0 4.5 183.4 414.2)" color="#9400D3"/><use xlink:href="#g" transform="matrix(4.5 0 0 4.5 226.5 259)" color="#9400D3"/><use xlink:href="#g" transform="matrix(4.5 0 0 4.5 269.7 262.7)" color="#9400D3"/><use xlink:href="#g" transform="matrix(4.5 0 0 4.5 312.9 235.6)" color="#9400D3"/><use xlink:href="#g" transform="matrix(4.5 0 0 4.5 356 257)" color="#9400D3"/><use xlink:href="#g" transform="matrix(4.5 0 0 4.5 399.2 235.5)" color="#9400D3"/><use xlink:href="#g" transform="matrix(4.5 0 0 4.5 442.4 72.1)" color="#9400D3"/><use xlink:href="#g" transform="matrix(4.5 0 0 4.5 528.7 88.2)" color="#9400D3"/><use xlink:href="#g" transform="matrix(4.5 0 0 4.5 571.8 77.8)" color="#9400D3"/><use xlink:href="#g" transform="matrix(4.5 0 0 4.5 615 28.9)" color="#9400D3"/><use xlink:href="#g" transform="matrix(4.5 0 0 4.5 171.5 502)" color="#9400D3"/></g><text transform="translate(275.6 505.9)" stroke="none" fill="#000" font-family="Arial" font-size="12" text-anchor="end" color="#000"><tspan>p90mean</tspan></text><g fill="none" color="#000" stroke="currentColor"><path stroke="#009E73" d="M283.9 502h42.2M53.9 26.7l43.2 412.6 43.1-42.5 43.2-1.1 43.1-148.4 43.2 2.4 43.2-30.9 43.1 24.3 43.2-17.8 43.2-155.7 86.3 8.3 43.1-1.1L615 28.9"/><use xlink:href="#h" transform="matrix(4.5 0 0 4.5 53.9 26.7)" color="#009E73"/><use xlink:href="#h" transform="matrix(4.5 0 0 4.5 97.1 439.3)" color="#009E73"/><use xlink:href="#h" transform="matrix(4.5 0 0 4.5 140.2 396.8)" color="#009E73"/><use xlink:href="#h" transform="matrix(4.5 0 0 4.5 183.4 395.7)" color="#009E73"/><use xlink:href="#h" transform="matrix(4.5 0 0 4.5 226.5 247.3)" color="#009E73"/><use xlink:href="#h" transform="matrix(4.5 0 0 4.5 269.7 249.7)" color="#009E73"/><use xlink:href="#h" transform="matrix(4.5 0 0 4.5 312.9 218.8)" color="#009E73"/><use xlink:href="#h" transform="matrix(4.5 0 0 4.5 356 243.1)" color="#009E73"/><use xlink:href="#h" transform="matrix(4.5 0 0 4.5 399.2 225.3)" color="#009E73"/><use xlink:href="#h" transform="matrix(4.5 0 0 4.5 442.4 69.6)" color="#009E73"/><use xlink:href="#h" transform="matrix(4.5 0 0 4.5 528.7 77.9)" color="#009E73"/><use xlink:href="#h" transform="matrix(4.5 0 0 4.5 571.8 76.8)" color="#009E73"/><use xlink:href="#h" transform="matrix(4.5 0 0 4.5 615 28.9)" color="#009E73"/><use xlink:href="#h" transform="matrix(4.5 0 0 4.5 305 502)" color="#009E73"/></g><text transform="translate(409.1 505.9)" stroke="none" fill="#000" font-family="Arial" font-size="12" text-anchor="end" color="#000"><tspan>p90median</tspan></text><g fill="none" color="#000" stroke="currentColor"><path stroke="#56B4E9" d="M417.4 502h42.2M53.9 26.7l43.2 418 43.1-48.8 43.2 1.1 43.1-149.3 43.2 1.2 43.2-30.2 43.1 26.4 43.2-14.8L442.4 69l86.3 10.5 43.1-2.7L615 28.9"/><use xlink:href="#i" transform="matrix(4.5 0 0 4.5 53.9 26.7)" color="#56B4E9"/><use xlink:href="#i" transform="matrix(4.5 0 0 4.5 97.1 444.7)" color="#56B4E9"/><use xlink:href="#i" transform="matrix(4.5 0 0 4.5 140.2 395.9)" color="#56B4E9"/><use xlink:href="#i" transform="matrix(4.5 0 0 4.5 183.4 397)" color="#56B4E9"/><use xlink:href="#i" transform="matrix(4.5 0 0 4.5 226.5 247.7)" color="#56B4E9"/><use xlink:href="#i" transform="matrix(4.5 0 0 4.5 269.7 248.9)" color="#56B4E9"/><use xlink:href="#i" transform="matrix(4.5 0 0 4.5 312.9 218.7)" color="#56B4E9"/><use xlink:href="#i" transform="matrix(4.5 0 0 4.5 356 245.1)" color="#56B4E9"/><use xlink:href="#i" transform="matrix(4.5 0 0 4.5 399.2 230.3)" color="#56B4E9"/><use xlink:href="#i" transform="matrix(4.5 0 0 4.5 442.4 69)" color="#56B4E9"/><use xlink:href="#i" transform="matrix(4.5 0 0 4.5 528.7 79.5)" color="#56B4E9"/><use xlink:href="#i" transform="matrix(4.5 0 0 4.5 571.8 76.8)" color="#56B4E9"/><use xlink:href="#i" transform="matrix(4.5 0 0 4.5 615 28.9)" color="#56B4E9"/><use xlink:href="#i" transform="matrix(4.5 0 0 4.5 438.5 502)" color="#56B4E9"/></g><g><text transform="translate(542.6 505.9)" stroke="none" fill="#000" font-family="Arial" font-size="12" text-anchor="end" color="#000"><tspan>p90max</tspan></text><g fill="none" color="#000" stroke="currentColor"><path stroke="#E69F00" d="M550.9 502h42.2M53.9 26.7l43.2 386.5 43.1-32.5 43.2-.5L226.5 233l43.2.3 43.2-27.5 43.1 24.9 43.2-26.8 43.2-135.2 86.3-7.3 43.1 15L615 28.9"/><use xlink:href="#d" transform="matrix(4.5 0 0 4.5 53.9 26.7)" color="#E69F00"/><use xlink:href="#d" transform="matrix(4.5 0 0 4.5 97.1 413.2)" color="#E69F00"/><use xlink:href="#d" transform="matrix(4.5 0 0 4.5 140.2 380.7)" color="#E69F00"/><use xlink:href="#d" transform="matrix(4.5 0 0 4.5 183.4 380.2)" color="#E69F00"/><use xlink:href="#d" transform="matrix(4.5 0 0 4.5 226.5 233)" color="#E69F00"/><use xlink:href="#d" transform="matrix(4.5 0 0 4.5 269.7 233.3)" color="#E69F00"/><use xlink:href="#d" transform="matrix(4.5 0 0 4.5 312.9 205.8)" color="#E69F00"/><use xlink:href="#d" transform="matrix(4.5 0 0 4.5 356 230.7)" color="#E69F00"/><use xlink:href="#d" transform="matrix(4.5 0 0 4.5 399.2 203.9)" color="#E69F00"/><use xlink:href="#d" transform="matrix(4.5 0 0 4.5 442.4 68.7)" color="#E69F00"/><use xlink:href="#d" transform="matrix(4.5 0 0 4.5 528.7 61.4)" color="#E69F00"/><use xlink:href="#d" transform="matrix(4.5 0 0 4.5 571.8 76.4)" color="#E69F00"/><use xlink:href="#d" transform="matrix(4.5 0 0 4.5 615 28.9)" color="#E69F00"/><use xlink:href="#d" transform="matrix(4.5 0 0 4.5 572 502)" color="#E69F00"/></g></g><g fill="none" color="#000" stroke="currentColor"><path stroke="#000" d="M53.9 18.1V466H615V18.1H53.9z"/></g></svg>