<svg width="640" height="500" xmlns="http://www.w3.org/2000/svg" xmlns:xlink="http://www.w3.org/1999/xlink"><path fill="#fff" d="M0 0h640v500H0z"/><defs><path id="g" stroke-width=".222" stroke="currentColor" d="M-1 0h2M0-1v2"/><path id="h" stroke-width=".222" stroke="currentColor" d="M-1-1l2 2m0-2l-2 2"/><path id="d" stroke-width=".222" stroke="currentColor" d="M-1-1h2v2h-2z"/><path id="b" stroke-width=".222" stroke="currentColor" d="M0-1.33l-1.33 2h2.66z"/><path id="f" stroke-width=".222" stroke="currentColor" d="M0 1.33L1.265.411.782-1.067l-1.564-.009-.483 1.487z"/><use xlink:href="#b" id="c" stroke="currentColor" transform="rotate(180)"/><use xlink:href="#d" id="e" stroke="currentColor" transform="rotate(45)"/><circle id="a" stroke-width=".222" stroke="currentColor" cx="0" cy="0" r="1"/></defs><g fill="none" color="#000" stroke="currentColor"><path stroke="#000" d="M37.3 438h9m568.7 0h-9"/><text transform="translate(29 441.9)" stroke="none" fill="#000" font-family="Arial" font-size="12" text-anchor="end"><tspan>0</tspan></text></g><g fill="none" color="#000" stroke="currentColor"><path stroke="#000" d="M37.3 372.2h9m568.7 0h-9"/><text transform="translate(29 376.1)" stroke="none" fill="#000" font-family="Arial" font-size="12" text-anchor="end"><tspan>1</tspan></text></g><g fill="none" color="#000" stroke="currentColor"><path stroke="#000" d="M37.3 306.5h9m568.7 0h-9"/><text transform="translate(29 310.4)" stroke="none" fill="#000" font-family="Arial" font-size="12" text-anchor="end"><tspan>2</tspan></text></g><g fill="none" color="#000" stroke="currentColor"><path stroke="#000" d="M37.3 240.7h9m568.7 0h-9"/><text transform="translate(29 244.6)" stroke="none" fill="#000" font-family="Arial" font-size="12" text-anchor="end"><tspan>3</tspan></text></g><g fill="none" color="#000" stroke="currentColor"><path stroke="#000" d="M37.3 175h9m568.7 0h-9"/><text transform="translate(29 178.9)" stroke="none" fill="#000" font-family="Arial" font-size="12" text-anchor="end"><tspan>4</tspan></text></g><g fill="none" color="#000" stroke="currentColor"><path stroke="#000" d="M37.3 109.2h9m568.7 0h-9"/><text transform="translate(29 113.1)" stroke="none" fill="#000" font-family="Arial" font-size="12" text-anchor="end"><tspan>5</tspan></text></g><g fill="none" color="#000" stroke="currentColor"><path stroke="#000" d="M37.3 43.5h9m568.7 0h-9"/><text transform="translate(29 47.4)" stroke="none" fill="#000" font-family="Arial" font-size="12" text-anchor="end"><tspan>6</tspan></text></g><g fill="none" color="#000" stroke="currentColor"><path stroke="#000" d="M37.3 446v-9m0-418.9v9"/><text transform="translate(37.3 467.9)" stroke="none" fill="#000" font-family="Arial" font-size="12" text-anchor="middle"><tspan>0</tspan></text></g><g fill="none" color="#000" stroke="currentColor"><path stroke="#000" d="M126.2 446v-9m0-418.9v9"/><text transform="translate(126.2 467.9)" stroke="none" fill="#000" font-family="Arial" font-size="12" text-anchor="middle"><tspan>2</tspan></text></g><g fill="none" color="#000" stroke="currentColor"><path stroke="#000" d="M215.1 446v-9m0-418.9v9"/><text transform="translate(215.1 467.9)" stroke="none" fill="#000" font-family="Arial" font-size="12" text-anchor="middle"><tspan>4</tspan></text></g><g fill="none" color="#000" stroke="currentColor"><path stroke="#000" d="M303.9 446v-9m0-418.9v9"/><text transform="translate(303.9 467.9)" stroke="none" fill="#000" font-family="Arial" font-size="12" text-anchor="middle"><tspan>6</tspan></text></g><g fill="none" color="#000" stroke="currentColor"><path stroke="#000" d="M392.8 446v-9m0-418.9v9"/><text transform="translate(392.8 467.9)" stroke="none" fill="#000" font-family="Arial" font-size="12" text-anchor="middle"><tspan>8</tspan></text></g><g fill="none" color="#000" stroke="currentColor"><path stroke="#000" d="M481.7 446v-9m0-418.9v9"/><text transform="translate(481.7 467.9)" stroke="none" fill="#000" font-family="Arial" font-size="12" text-anchor="middle"><tspan>10</tspan></text></g><g fill="none" color="#000" stroke="currentColor"><path stroke="#000" d="M570.6 446v-9m0-418.9v9"/><text transform="translate(570.6 467.9)" stroke="none" fill="#000" font-family="Arial" font-size="12" text-anchor="middle"><tspan>12</tspan></text></g><path stroke="#000" d="M37.3 18.1V446H615V18.1H37.3z" fill="none" color="#000"/><text transform="translate(267.3 485.9)" stroke="none" fill="#000" font-family="Arial" font-size="12" text-anchor="end" color="#000"><tspan>p90stdev</tspan></text><g fill="none" color="#000" stroke="currentColor"><path stroke="#9400D3" d="M275.6 482h42.2M37.3 437.8l44.4-60.7 44.5 55.4 44.4 1.9 44.5 2.7h44.4l44.4.3 44.5-.3 44.4.2h44.4l44.5-1.2 44.4 1.2 44.5.1H615"/><use xlink:href="#g" transform="matrix(4.5 0 0 4.5 37.3 437.8)" color="#9400D3"/><use xlink:href="#g" transform="matrix(4.5 0 0 4.5 81.7 377.1)" color="#9400D3"/><use xlink:href="#g" transform="matrix(4.5 0 0 4.5 126.2 432.5)" color="#9400D3"/><use xlink:href="#g" transform="matrix(4.5 0 0 4.5 170.6 434.4)" color="#9400D3"/><use xlink:href="#g" transform="matrix(4.5 0 0 4.5 215.1 437.1)" color="#9400D3"/><use xlink:href="#g" transform="matrix(4.5 0 0 4.5 259.5 437.1)" color="#9400D3"/><use xlink:href="#g" transform="matrix(4.5 0 0 4.5 303.9 437.4)" color="#9400D3"/><use xlink:href="#g" transform="matrix(4.5 0 0 4.5 348.4 437.1)" color="#9400D3"/><use xlink:href="#g" transform="matrix(4.5 0 0 4.5 392.8 437.3)" color="#9400D3"/><use xlink:href="#g" transform="matrix(4.5 0 0 4.5 437.2 437.3)" color="#9400D3"/><use xlink:href="#g" transform="matrix(4.5 0 0 4.5 481.7 436.1)" color="#9400D3"/><use xlink:href="#g" transform="matrix(4.5 0 0 4.5 526.1 437.3)" color="#9400D3"/><use xlink:href="#g" transform="matrix(4.5 0 0 4.5 570.6 437.4)" color="#9400D3"/><use xlink:href="#g" transform="matrix(4.5 0 0 4.5 615 437.4)" color="#9400D3"/><use xlink:href="#g" transform="matrix(4.5 0 0 4.5 296.7 482)" color="#9400D3"/></g><text transform="translate(467.2 485.9)" stroke="none" fill="#000" font-family="Arial" font-size="12" text-anchor="end" color="#000"><tspan>p90outlandishness</tspan></text><g fill="none" color="#000" stroke="currentColor"><path stroke="#009E73" d="M475.5 482h42.2M37.3 357.8l44.4 16.8 44.5-30 44.4 32.7 44.5-16.6 44.4-8.1 44.4 17.2 44.5-17.9 44.4 6.1 44.4 13.3 44.5-345 44.4 346.1 44.5-1.3L615 374"/><use xlink:href="#h" transform="matrix(4.5 0 0 4.5 37.3 357.8)" color="#009E73"/><use xlink:href="#h" transform="matrix(4.5 0 0 4.5 81.7 374.6)" color="#009E73"/><use xlink:href="#h" transform="matrix(4.5 0 0 4.5 126.2 344.6)" color="#009E73"/><use xlink:href="#h" transform="matrix(4.5 0 0 4.5 170.6 377.3)" color="#009E73"/><use xlink:href="#h" transform="matrix(4.5 0 0 4.5 215.1 360.7)" color="#009E73"/><use xlink:href="#h" transform="matrix(4.5 0 0 4.5 259.5 352.6)" color="#009E73"/><use xlink:href="#h" transform="matrix(4.5 0 0 4.5 303.9 369.8)" color="#009E73"/><use xlink:href="#h" transform="matrix(4.5 0 0 4.5 348.4 351.9)" color="#009E73"/><use xlink:href="#h" transform="matrix(4.5 0 0 4.5 392.8 358)" color="#009E73"/><use xlink:href="#h" transform="matrix(4.5 0 0 4.5 437.2 371.3)" color="#009E73"/><use xlink:href="#h" transform="matrix(4.5 0 0 4.5 481.7 26.3)" color="#009E73"/><use xlink:href="#h" transform="matrix(4.5 0 0 4.5 526.1 372.4)" color="#009E73"/><use xlink:href="#h" transform="matrix(4.5 0 0 4.5 570.6 371.1)" color="#009E73"/><use xlink:href="#h" transform="matrix(4.5 0 0 4.5 615 374)" color="#009E73"/><use xlink:href="#h" transform="matrix(4.5 0 0 4.5 496.6 482)" color="#009E73"/></g><g fill="none" color="#000" stroke="currentColor"><path stroke="#000" d="M37.3 18.1V446H615V18.1H37.3z"/></g></svg>