<svg width="640" height="520" xmlns="http://www.w3.org/2000/svg" xmlns:xlink="http://www.w3.org/1999/xlink"><path fill="#fff" d="M0 0h640v520H0z"/><defs><path id="g" stroke-width=".222" stroke="currentColor" d="M-1 0h2M0-1v2"/><path id="h" stroke-width=".222" stroke="currentColor" d="M-1-1l2 2m0-2l-2 2"/><path id="i" stroke-width=".222" stroke="currentColor" d="M-1 0h2M0-1v2m-1-2l2 2m-2 0l2-2"/><path id="d" stroke-width=".222" stroke="currentColor" d="M-1-1h2v2h-2z"/><path id="b" stroke-width=".222" stroke="currentColor" d="M0-1.33l-1.33 2h2.66z"/><path id="f" stroke-width=".222" stroke="currentColor" d="M0 1.33L1.265.411.782-1.067l-1.564-.009-.483 1.487z"/><use xlink:href="#b" id="c" stroke="currentColor" transform="rotate(180)"/><use xlink:href="#d" id="e" stroke="currentColor" transform="rotate(45)"/><circle id="a" stroke-width=".222" stroke="currentColor" cx="0" cy="0" r="1"/></defs><g fill="none" color="#000" stroke="currentColor"><path stroke="#000" d="M37.3 460h9m568.7 0h-9"/><text transform="translate(29 463.9)" stroke="none" fill="#000" font-family="Arial" font-size="12" text-anchor="end"><tspan>0</tspan></text></g><g fill="none" color="#000" stroke="currentColor"><path stroke="#000" d="M37.3 373.2h9m568.7 0h-9"/><text transform="translate(29 377.1)" stroke="none" fill="#000" font-family="Arial" font-size="12" text-anchor="end"><tspan>1</tspan></text></g><g fill="none" color="#000" stroke="currentColor"><path stroke="#000" d="M37.3 286.4h9m568.7 0h-9"/><text transform="translate(29 290.3)" stroke="none" fill="#000" font-family="Arial" font-size="12" text-anchor="end"><tspan>2</tspan></text></g><g fill="none" color="#000" stroke="currentColor"><path stroke="#000" d="M37.3 199.7h9m568.7 0h-9"/><text transform="translate(29 203.6)" stroke="none" fill="#000" font-family="Arial" font-size="12" text-anchor="end"><tspan>3</tspan></text></g><g fill="none" color="#000" stroke="currentColor"><path stroke="#000" d="M37.3 112.9h9m568.7 0h-9"/><text transform="translate(29 116.8)" stroke="none" fill="#000" font-family="Arial" font-size="12" text-anchor="end"><tspan>4</tspan></text></g><g fill="none" color="#000" stroke="currentColor"><path stroke="#000" d="M37.3 26.1h9m568.7 0h-9"/><text transform="translate(29 30)" stroke="none" fill="#000" font-family="Arial" font-size="12" text-anchor="end"><tspan>5</tspan></text></g><g fill="none" color="#000" stroke="currentColor"><path stroke="#000" d="M37.3 466v-9m0-438.9v9"/><text transform="translate(37.3 487.9)" stroke="none" fill="#000" font-family="Arial" font-size="12" text-anchor="middle"><tspan>0</tspan></text></g><g fill="none" color="#000" stroke="currentColor"><path stroke="#000" d="M126.2 466v-9m0-438.9v9"/><text transform="translate(126.2 487.9)" stroke="none" fill="#000" font-family="Arial" font-size="12" text-anchor="middle"><tspan>2</tspan></text></g><g fill="none" color="#000" stroke="currentColor"><path stroke="#000" d="M215.1 466v-9m0-438.9v9"/><text transform="translate(215.1 487.9)" stroke="none" fill="#000" font-family="Arial" font-size="12" text-anchor="middle"><tspan>4</tspan></text></g><g fill="none" color="#000" stroke="currentColor"><path stroke="#000" d="M303.9 466v-9m0-438.9v9"/><text transform="translate(303.9 487.9)" stroke="none" fill="#000" font-family="Arial" font-size="12" text-anchor="middle"><tspan>6</tspan></text></g><g fill="none" color="#000" stroke="currentColor"><path stroke="#000" d="M392.8 466v-9m0-438.9v9"/><text transform="translate(392.8 487.9)" stroke="none" fill="#000" font-family="Arial" font-size="12" text-anchor="middle"><tspan>8</tspan></text></g><g fill="none" color="#000" stroke="currentColor"><path stroke="#000" d="M481.7 466v-9m0-438.9v9"/><text transform="translate(481.7 487.9)" stroke="none" fill="#000" font-family="Arial" font-size="12" text-anchor="middle"><tspan>10</tspan></text></g><g fill="none" color="#000" stroke="currentColor"><path stroke="#000" d="M570.6 466v-9m0-438.9v9"/><text transform="translate(570.6 487.9)" stroke="none" fill="#000" font-family="Arial" font-size="12" text-anchor="middle"><tspan>12</tspan></text></g><path stroke="#000" d="M37.3 18.1V466H615V18.1H37.3z" fill="none" color="#000"/><text transform="translate(133.8 505.9)" stroke="none" fill="#000" font-family="Arial" font-size="12" text-anchor="end" color="#000"><tspan>p90min</tspan></text><g fill="none" color="#000" stroke="currentColor"><path stroke="#9400D3" d="M142.1 502h42.2m-147-44.6l44.4-128.7 44.5 119.2 44.4-5.7 44.5 13.9 44.4.5 44.4-.8h44.5l44.4.2 44.4-.3 44.5-.2 44.4.3 44.5.2 44.4.3"/><use xlink:href="#g" transform="matrix(4.5 0 0 4.5 37.3 457.4)" color="#9400D3"/><use xlink:href="#g" transform="matrix(4.5 0 0 4.5 81.7 328.7)" color="#9400D3"/><use xlink:href="#g" transform="matrix(4.5 0 0 4.5 126.2 447.9)" color="#9400D3"/><use xlink:href="#g" transform="matrix(4.5 0 0 4.5 170.6 442.2)" color="#9400D3"/><use xlink:href="#g" transform="matrix(4.5 0 0 4.5 215.1 456.1)" color="#9400D3"/><use xlink:href="#g" transform="matrix(4.5 0 0 4.5 259.5 456.6)" color="#9400D3"/><use xlink:href="#g" transform="matrix(4.5 0 0 4.5 303.9 455.8)" color="#9400D3"/><use xlink:href="#g" transform="matrix(4.5 0 0 4.5 348.4 455.8)" color="#9400D3"/><use xlink:href="#g" transform="matrix(4.5 0 0 4.5 392.8 456)" color="#9400D3"/><use xlink:href="#g" transform="matrix(4.5 0 0 4.5 437.2 455.7)" color="#9400D3"/><use xlink:href="#g" transform="matrix(4.5 0 0 4.5 481.7 455.5)" color="#9400D3"/><use xlink:href="#g" transform="matrix(4.5 0 0 4.5 526.1 455.8)" color="#9400D3"/><use xlink:href="#g" transform="matrix(4.5 0 0 4.5 570.6 456)" color="#9400D3"/><use xlink:href="#g" transform="matrix(4.5 0 0 4.5 615 456.3)" color="#9400D3"/><use xlink:href="#g" transform="matrix(4.5 0 0 4.5 163.2 502)" color="#9400D3"/></g><text transform="translate(267.3 505.9)" stroke="none" fill="#000" font-family="Arial" font-size="12" text-anchor="end" color="#000"><tspan>p90mean</tspan></text><g fill="none" color="#000" stroke="currentColor"><path stroke="#009E73" d="M275.6 502h42.2M37.3 457.2l44.4-294 44.5 270.9 44.4-3.7 44.5 23.6 44.4.1 44.4.3 44.5-.5 44.4.2 44.4.1 44.5-1.5 44.4 1.6 44.5.2 44.4.1"/><use xlink:href="#h" transform="matrix(4.5 0 0 4.5 37.3 457.2)" color="#009E73"/><use xlink:href="#h" transform="matrix(4.5 0 0 4.5 81.7 163.2)" color="#009E73"/><use xlink:href="#h" transform="matrix(4.5 0 0 4.5 126.2 434.1)" color="#009E73"/><use xlink:href="#h" transform="matrix(4.5 0 0 4.5 170.6 430.4)" color="#009E73"/><use xlink:href="#h" transform="matrix(4.5 0 0 4.5 215.1 454)" color="#009E73"/><use xlink:href="#h" transform="matrix(4.5 0 0 4.5 259.5 454.1)" color="#009E73"/><use xlink:href="#h" transform="matrix(4.5 0 0 4.5 303.9 454.4)" color="#009E73"/><use xlink:href="#h" transform="matrix(4.5 0 0 4.5 348.4 453.9)" color="#009E73"/><use xlink:href="#h" transform="matrix(4.5 0 0 4.5 392.8 454.1)" color="#009E73"/><use xlink:href="#h" transform="matrix(4.5 0 0 4.5 437.2 454.2)" color="#009E73"/><use xlink:href="#h" transform="matrix(4.5 0 0 4.5 481.7 452.7)" color="#009E73"/><use xlink:href="#h" transform="matrix(4.5 0 0 4.5 526.1 454.3)" color="#009E73"/><use xlink:href="#h" transform="matrix(4.5 0 0 4.5 570.6 454.5)" color="#009E73"/><use xlink:href="#h" transform="matrix(4.5 0 0 4.5 615 454.6)" color="#009E73"/><use xlink:href="#h" transform="matrix(4.5 0 0 4.5 296.7 502)" color="#009E73"/></g><text transform="translate(400.8 505.9)" stroke="none" fill="#000" font-family="Arial" font-size="12" text-anchor="end" color="#000"><tspan>p90median</tspan></text><g fill="none" color="#000" stroke="currentColor"><path stroke="#56B4E9" d="M409.1 502h42.2m-414-44.7l44.4-301.4 44.5 276.8 44.4-3.7 44.5 25.2h44.4l44.4.1 44.5-.2h44.4l44.4.1 44.5-.7 44.4.8h44.5l44.4.1"/><use xlink:href="#i" transform="matrix(4.5 0 0 4.5 37.3 457.3)" color="#56B4E9"/><use xlink:href="#i" transform="matrix(4.5 0 0 4.5 81.7 155.9)" color="#56B4E9"/><use xlink:href="#i" transform="matrix(4.5 0 0 4.5 126.2 432.7)" color="#56B4E9"/><use xlink:href="#i" transform="matrix(4.5 0 0 4.5 170.6 429)" color="#56B4E9"/><use xlink:href="#i" transform="matrix(4.5 0 0 4.5 215.1 454.2)" color="#56B4E9"/><use xlink:href="#i" transform="matrix(4.5 0 0 4.5 259.5 454.2)" color="#56B4E9"/><use xlink:href="#i" transform="matrix(4.5 0 0 4.5 303.9 454.3)" color="#56B4E9"/><use xlink:href="#i" transform="matrix(4.5 0 0 4.5 348.4 454.1)" color="#56B4E9"/><use xlink:href="#i" transform="matrix(4.5 0 0 4.5 392.8 454.1)" color="#56B4E9"/><use xlink:href="#i" transform="matrix(4.5 0 0 4.5 437.2 454.2)" color="#56B4E9"/><use xlink:href="#i" transform="matrix(4.5 0 0 4.5 481.7 453.5)" color="#56B4E9"/><use xlink:href="#i" transform="matrix(4.5 0 0 4.5 526.1 454.3)" color="#56B4E9"/><use xlink:href="#i" transform="matrix(4.5 0 0 4.5 570.6 454.3)" color="#56B4E9"/><use xlink:href="#i" transform="matrix(4.5 0 0 4.5 615 454.4)" color="#56B4E9"/><use xlink:href="#i" transform="matrix(4.5 0 0 4.5 430.2 502)" color="#56B4E9"/></g><g><text transform="translate(534.3 505.9)" stroke="none" fill="#000" font-family="Arial" font-size="12" text-anchor="end" color="#000"><tspan>p90max</tspan></text><g fill="none" color="#000" stroke="currentColor"><path stroke="#E69F00" d="M542.6 502h42.2M37.3 456.4L81.7 26.7l44.5 390.8 44.4 4.8 44.5 28.3 44.4-1.5 44.4 3.9 44.5-2.8 44.4.6 44.4 1.9 44.5-7.4 44.4 7.6 44.5-.1 44.4.1"/><use xlink:href="#d" transform="matrix(4.5 0 0 4.5 37.3 456.4)" color="#E69F00"/><use xlink:href="#d" transform="matrix(4.5 0 0 4.5 81.7 26.7)" color="#E69F00"/><use xlink:href="#d" transform="matrix(4.5 0 0 4.5 126.2 417.5)" color="#E69F00"/><use xlink:href="#d" transform="matrix(4.5 0 0 4.5 170.6 422.3)" color="#E69F00"/><use xlink:href="#d" transform="matrix(4.5 0 0 4.5 215.1 450.6)" color="#E69F00"/><use xlink:href="#d" transform="matrix(4.5 0 0 4.5 259.5 449.1)" color="#E69F00"/><use xlink:href="#d" transform="matrix(4.5 0 0 4.5 303.9 453)" color="#E69F00"/><use xlink:href="#d" transform="matrix(4.5 0 0 4.5 348.4 450.2)" color="#E69F00"/><use xlink:href="#d" transform="matrix(4.5 0 0 4.5 392.8 450.8)" color="#E69F00"/><use xlink:href="#d" transform="matrix(4.5 0 0 4.5 437.2 452.7)" color="#E69F00"/><use xlink:href="#d" transform="matrix(4.5 0 0 4.5 481.7 445.3)" color="#E69F00"/><use xlink:href="#d" transform="matrix(4.5 0 0 4.5 526.1 452.9)" color="#E69F00"/><use xlink:href="#d" transform="matrix(4.5 0 0 4.5 570.6 452.8)" color="#E69F00"/><use xlink:href="#d" transform="matrix(4.5 0 0 4.5 615 452.9)" color="#E69F00"/><use xlink:href="#d" transform="matrix(4.5 0 0 4.5 563.7 502)" color="#E69F00"/></g></g><g fill="none" color="#000" stroke="currentColor"><path stroke="#000" d="M37.3 18.1V466H615V18.1H37.3z"/></g></svg>