<svg width="640" height="490" xmlns="http://www.w3.org/2000/svg" xmlns:xlink="http://www.w3.org/1999/xlink"><path fill="#fff" d="M0 0h640v490H0z"/><defs><path id="d" stroke-width=".222" stroke="currentColor" d="M-1-1h2v2h-2z"/><path id="b" stroke-width=".222" stroke="currentColor" d="M0-1.33l-1.33 2h2.66z"/><path id="f" stroke-width=".222" stroke="currentColor" d="M0 1.33L1.265.411.782-1.067l-1.564-.009-.483 1.487z"/><use xlink:href="#b" id="c" stroke="currentColor" transform="rotate(180)"/><use xlink:href="#d" id="e" stroke="currentColor" transform="rotate(45)"/><circle id="a" stroke-width=".222" stroke="currentColor" cx="0" cy="0" r="1"/></defs><g fill="none" color="#000" stroke="currentColor"><path stroke="#000" d="M45.6 424.8h9m560.4 0h-9"/><text transform="translate(37.3 428.7)" stroke="none" fill="#000" font-family="Arial" font-size="12" text-anchor="end"><tspan>40</tspan></text></g><g fill="none" color="#000" stroke="currentColor"><path stroke="#000" d="M45.6 382.9h9m560.4 0h-9"/><text transform="translate(37.3 386.8)" stroke="none" fill="#000" font-family="Arial" font-size="12" text-anchor="end"><tspan>41</tspan></text></g><g fill="none" color="#000" stroke="currentColor"><path stroke="#000" d="M45.6 341.1h9m560.4 0h-9"/><text transform="translate(37.3 345)" stroke="none" fill="#000" font-family="Arial" font-size="12" text-anchor="end"><tspan>42</tspan></text></g><g fill="none" color="#000" stroke="currentColor"><path stroke="#000" d="M45.6 299.3h9m560.4 0h-9"/><text transform="translate(37.3 303.2)" stroke="none" fill="#000" font-family="Arial" font-size="12" text-anchor="end"><tspan>43</tspan></text></g><g fill="none" color="#000" stroke="currentColor"><path stroke="#000" d="M45.6 257.4h9m560.4 0h-9"/><text transform="translate(37.3 261.3)" stroke="none" fill="#000" font-family="Arial" font-size="12" text-anchor="end"><tspan>44</tspan></text></g><g fill="none" color="#000" stroke="currentColor"><path stroke="#000" d="M45.6 215.6h9m560.4 0h-9"/><text transform="translate(37.3 219.5)" stroke="none" fill="#000" font-family="Arial" font-size="12" text-anchor="end"><tspan>45</tspan></text></g><g fill="none" color="#000" stroke="currentColor"><path stroke="#000" d="M45.6 173.7h9m560.4 0h-9"/><text transform="translate(37.3 177.6)" stroke="none" fill="#000" font-family="Arial" font-size="12" text-anchor="end"><tspan>46</tspan></text></g><g fill="none" color="#000" stroke="currentColor"><path stroke="#000" d="M45.6 131.9h9m560.4 0h-9"/><text transform="translate(37.3 135.8)" stroke="none" fill="#000" font-family="Arial" font-size="12" text-anchor="end"><tspan>47</tspan></text></g><g fill="none" color="#000" stroke="currentColor"><path stroke="#000" d="M45.6 90.1h9m560.4 0h-9"/><text transform="translate(37.3 94)" stroke="none" fill="#000" font-family="Arial" font-size="12" text-anchor="end"><tspan>48</tspan></text></g><g fill="none" color="#000" stroke="currentColor"><path stroke="#000" d="M45.6 48.2h9m560.4 0h-9"/><text transform="translate(37.3 52.1)" stroke="none" fill="#000" font-family="Arial" font-size="12" text-anchor="end"><tspan>49</tspan></text></g><g fill="none" color="#000" stroke="currentColor"><path stroke="#000" d="M45.6 436v-9m0-408.9v9"/><text transform="translate(45.6 457.9)" stroke="none" fill="#000" font-family="Arial" font-size="12" text-anchor="middle"><tspan>0</tspan></text></g><g fill="none" color="#000" stroke="currentColor"><path stroke="#000" d="M103.1 436v-9m0-408.9v9"/><text transform="translate(103.1 457.9)" stroke="none" fill="#000" font-family="Arial" font-size="12" text-anchor="middle"><tspan>10</tspan></text></g><g fill="none" color="#000" stroke="currentColor"><path stroke="#000" d="M160.6 436v-9m0-408.9v9"/><text transform="translate(160.6 457.9)" stroke="none" fill="#000" font-family="Arial" font-size="12" text-anchor="middle"><tspan>20</tspan></text></g><g fill="none" color="#000" stroke="currentColor"><path stroke="#000" d="M218.1 436v-9m0-408.9v9"/><text transform="translate(218.1 457.9)" stroke="none" fill="#000" font-family="Arial" font-size="12" text-anchor="middle"><tspan>30</tspan></text></g><g fill="none" color="#000" stroke="currentColor"><path stroke="#000" d="M275.7 436v-9m0-408.9v9"/><text transform="translate(275.7 457.9)" stroke="none" fill="#000" font-family="Arial" font-size="12" text-anchor="middle"><tspan>40</tspan></text></g><g fill="none" color="#000" stroke="currentColor"><path stroke="#000" d="M333.2 436v-9m0-408.9v9"/><text transform="translate(333.2 457.9)" stroke="none" fill="#000" font-family="Arial" font-size="12" text-anchor="middle"><tspan>50</tspan></text></g><g fill="none" color="#000" stroke="currentColor"><path stroke="#000" d="M390.7 436v-9m0-408.9v9"/><text transform="translate(390.7 457.9)" stroke="none" fill="#000" font-family="Arial" font-size="12" text-anchor="middle"><tspan>60</tspan></text></g><g fill="none" color="#000" stroke="currentColor"><path stroke="#000" d="M448.2 436v-9m0-408.9v9"/><text transform="translate(448.2 457.9)" stroke="none" fill="#000" font-family="Arial" font-size="12" text-anchor="middle"><tspan>70</tspan></text></g><g fill="none" color="#000" stroke="currentColor"><path stroke="#000" d="M505.7 436v-9m0-408.9v9"/><text transform="translate(505.7 457.9)" stroke="none" fill="#000" font-family="Arial" font-size="12" text-anchor="middle"><tspan>80</tspan></text></g><g fill="none" color="#000" stroke="currentColor"><path stroke="#000" d="M563.2 436v-9m0-408.9v9"/><text transform="translate(563.2 457.9)" stroke="none" fill="#000" font-family="Arial" font-size="12" text-anchor="middle"><tspan>90</tspan></text></g><path stroke="#000" d="M45.6 18.1V436H615V18.1H45.6z" fill="none" color="#000"/><text transform="translate(171.5 475.9)" stroke="none" fill="#000" font-family="Arial" font-size="12" text-anchor="end" color="#000"><tspan>raw</tspan></text><path stroke="#9400D3" d="M179.8 472H222M45.6 180.8l5.8 58 5.7-37.4 5.8-38.4 5.7 65 5.8 11.9 5.7-57.6 5.8 8.2 5.7 8.9 5.8 26.9 5.7-64.6 5.8 23.1 5.7 24.9 5.8 4.4 5.7-6 5.8-.7 5.7-2.4 5.8 12.4 5.7-53.7 5.8 40.2 5.7 71.1 5.8-35.6 5.7 188.6 5.8-235.7 5.7-21.7 5.8-2.7 5.7 7 5.8 65.8 5.7 12.4 5.8-4.7 5.7-15.1 5.8 3.4 5.7 11.2 5.8-100.8 5.8 136.9 5.7-105.4 5.8 53.9 5.7 23.3 5.8-93.4 5.7 94.5 5.8-26.1 5.7-122.5 5.8 153.8 5.7-47.2 5.8 42.4 5.7-8.7 5.8-21.8 5.7-29 5.8 64 5.7-89.7 5.8 50 5.7 75.7 5.8-68 5.7-38.1 5.8 11.2 5.7-87.1 5.8 39.4 5.7 89.3 5.8-49.2 5.7 26 5.8 65.4 5.7 52.9 5.8-166.4 5.7 56.1 5.8-96.4 5.7 101.4 5.8-70.6 5.8 92.2 5.7 6.4 5.8-56.9 5.7 61.9 5.8-80.7 5.7-97.4 5.8 159.4 5.7 19.5 5.8-59.9 5.7-10.5 5.8 47.2 5.7.3 5.8-110.4 5.7 82.5 5.8 8.3 5.7 35.5 5.8-23.3 5.7-5.5 5.8-80.8 5.7 29.6 5.8 12.6 5.7 63.9 5.8 60.7 5.7-104.4 5.8-51 5.7 102.6 5.8 5.8 5.7 38.3 5.8-125.3 5.7-158.2 5.8 199 5.7 9.2 5.8 7.2" fill="none" color="#000"/><text transform="translate(371.4 475.9)" stroke="none" fill="#000" font-family="Arial" font-size="12" text-anchor="end" color="#000"><tspan>score p10=1282</tspan></text><path stroke="#009E73" d="M379.7 472h42.2" fill="none" color="#000"/><text transform="translate(571.3 475.9)" stroke="none" fill="#000" font-family="Arial" font-size="12" text-anchor="end" color="#000"><tspan>score median=3500</tspan></text><path stroke="#56B4E9" d="M579.6 472h42.2" fill="none" color="#000"/><g fill="none" color="#000" stroke="currentColor"><path stroke="#000" d="M45.6 18.1V436H615V18.1H45.6z"/></g></svg>