<svg width="640" height="520" xmlns="http://www.w3.org/2000/svg" xmlns:xlink="http://www.w3.org/1999/xlink"><path fill="#fff" d="M0 0h640v520H0z"/><defs><path id="g" stroke-width=".222" stroke="currentColor" d="M-1 0h2M0-1v2"/><path id="h" stroke-width=".222" stroke="currentColor" d="M-1-1l2 2m0-2l-2 2"/><path id="i" stroke-width=".222" stroke="currentColor" d="M-1 0h2M0-1v2m-1-2l2 2m-2 0l2-2"/><path id="d" stroke-width=".222" stroke="currentColor" d="M-1-1h2v2h-2z"/><path id="b" stroke-width=".222" stroke="currentColor" d="M0-1.33l-1.33 2h2.66z"/><path id="f" stroke-width=".222" stroke="currentColor" d="M0 1.33L1.265.411.782-1.067l-1.564-.009-.483 1.487z"/><use xlink:href="#b" id="c" stroke="currentColor" transform="rotate(180)"/><use xlink:href="#d" id="e" stroke="currentColor" transform="rotate(45)"/><circle id="a" stroke-width=".222" stroke="currentColor" cx="0" cy="0" r="1"/></defs><g fill="none" color="#000" stroke="currentColor"><path stroke="#000" d="M53.9 441.4h9m552.1 0h-9"/><text transform="translate(45.6 445.3)" stroke="none" fill="#000" font-family="Arial" font-size="12" text-anchor="end"><tspan>0.4</tspan></text></g><g fill="none" color="#000" stroke="currentColor"><path stroke="#000" d="M53.9 372.2h9m552.1 0h-9"/><text transform="translate(45.6 376.1)" stroke="none" fill="#000" font-family="Arial" font-size="12" text-anchor="end"><tspan>0.5</tspan></text></g><g fill="none" color="#000" stroke="currentColor"><path stroke="#000" d="M53.9 303h9m552.1 0h-9"/><text transform="translate(45.6 306.9)" stroke="none" fill="#000" font-family="Arial" font-size="12" text-anchor="end"><tspan>0.6</tspan></text></g><g fill="none" color="#000" stroke="currentColor"><path stroke="#000" d="M53.9 233.9h9m552.1 0h-9"/><text transform="translate(45.6 237.8)" stroke="none" fill="#000" font-family="Arial" font-size="12" text-anchor="end"><tspan>0.7</tspan></text></g><g fill="none" color="#000" stroke="currentColor"><path stroke="#000" d="M53.9 164.7h9m552.1 0h-9"/><text transform="translate(45.6 168.6)" stroke="none" fill="#000" font-family="Arial" font-size="12" text-anchor="end"><tspan>0.8</tspan></text></g><g fill="none" color="#000" stroke="currentColor"><path stroke="#000" d="M53.9 95.5h9m552.1 0h-9"/><text transform="translate(45.6 99.4)" stroke="none" fill="#000" font-family="Arial" font-size="12" text-anchor="end"><tspan>0.9</tspan></text></g><g fill="none" color="#000" stroke="currentColor"><path stroke="#000" d="M53.9 26.4h9m552.1 0h-9"/><text transform="translate(45.6 30.3)" stroke="none" fill="#000" font-family="Arial" font-size="12" text-anchor="end"><tspan>1</tspan></text></g><g fill="none" color="#000" stroke="currentColor"><path stroke="#000" d="M53.9 448v-9m0-420.9v9"/><text transform="translate(53.9 469.9)" stroke="none" fill="#000" font-family="Arial" font-size="12" text-anchor="middle"><tspan>0</tspan></text></g><g fill="none" color="#000" stroke="currentColor"><path stroke="#000" d="M140.2 448v-9m0-420.9v9"/><text transform="translate(140.2 469.9)" stroke="none" fill="#000" font-family="Arial" font-size="12" text-anchor="middle"><tspan>2</tspan></text></g><g fill="none" color="#000" stroke="currentColor"><path stroke="#000" d="M226.5 448v-9m0-420.9v9"/><text transform="translate(226.5 469.9)" stroke="none" fill="#000" font-family="Arial" font-size="12" text-anchor="middle"><tspan>4</tspan></text></g><g fill="none" color="#000" stroke="currentColor"><path stroke="#000" d="M312.9 448v-9m0-420.9v9"/><text transform="translate(312.9 469.9)" stroke="none" fill="#000" font-family="Arial" font-size="12" text-anchor="middle"><tspan>6</tspan></text></g><g fill="none" color="#000" stroke="currentColor"><path stroke="#000" d="M399.2 448v-9m0-420.9v9"/><text transform="translate(399.2 469.9)" stroke="none" fill="#000" font-family="Arial" font-size="12" text-anchor="middle"><tspan>8</tspan></text></g><g fill="none" color="#000" stroke="currentColor"><path stroke="#000" d="M485.5 448v-9m0-420.9v9"/><text transform="translate(485.5 469.9)" stroke="none" fill="#000" font-family="Arial" font-size="12" text-anchor="middle"><tspan>10</tspan></text></g><g fill="none" color="#000" stroke="currentColor"><path stroke="#000" d="M571.8 448v-9m0-420.9v9"/><text transform="translate(571.8 469.9)" stroke="none" fill="#000" font-family="Arial" font-size="12" text-anchor="middle"><tspan>12</tspan></text></g><path stroke="#000" d="M53.9 18.1V448H615V18.1H53.9z" fill="none" color="#000"/><text transform="translate(275.6 487.9)" stroke="none" fill="#000" font-family="Arial" font-size="12" text-anchor="end" color="#000"><tspan>score:p90min</tspan></text><g fill="none" color="#000" stroke="currentColor"><path stroke="#9400D3" d="M283.9 484h42.2M53.9 26.4l43.2 413.3 43.1-174.6 43.2-.6 43.1-214.8 43.2.1 43.2-17.7L356 45.2l43.2 4.3 43.2-22.1 86.3 4.6 43.1-4.6 43.2-.6"/><use xlink:href="#g" transform="matrix(4.5 0 0 4.5 53.9 26.4)" color="#9400D3"/><use xlink:href="#g" transform="matrix(4.5 0 0 4.5 97.1 439.7)" color="#9400D3"/><use xlink:href="#g" transform="matrix(4.5 0 0 4.5 140.2 265.1)" color="#9400D3"/><use xlink:href="#g" transform="matrix(4.5 0 0 4.5 183.4 264.5)" color="#9400D3"/><use xlink:href="#g" transform="matrix(4.5 0 0 4.5 226.5 49.7)" color="#9400D3"/><use xlink:href="#g" transform="matrix(4.5 0 0 4.5 269.7 49.8)" color="#9400D3"/><use xlink:href="#g" transform="matrix(4.5 0 0 4.5 312.9 32.1)" color="#9400D3"/><use xlink:href="#g" transform="matrix(4.5 0 0 4.5 356 45.2)" color="#9400D3"/><use xlink:href="#g" transform="matrix(4.5 0 0 4.5 399.2 49.5)" color="#9400D3"/><use xlink:href="#g" transform="matrix(4.5 0 0 4.5 442.4 27.4)" color="#9400D3"/><use xlink:href="#g" transform="matrix(4.5 0 0 4.5 528.7 32)" color="#9400D3"/><use xlink:href="#g" transform="matrix(4.5 0 0 4.5 571.8 27.4)" color="#9400D3"/><use xlink:href="#g" transform="matrix(4.5 0 0 4.5 615 26.8)" color="#9400D3"/><use xlink:href="#g" transform="matrix(4.5 0 0 4.5 305 484)" color="#9400D3"/></g><text transform="translate(275.6 505.9)" stroke="none" fill="#000" font-family="Arial" font-size="12" text-anchor="end" color="#000"><tspan>score:p90mean</tspan></text><g fill="none" color="#000" stroke="currentColor"><path stroke="#009E73" d="M283.9 502h42.2M53.9 26.4l43.2 341.3 43.1-167.1 43.2.6 43.1-154.1 43.2-.2 43.2-19.2L356 43.8l43.2 2.7 43.2-19.1 86.3-.1 43.1.1 43.2-.6"/><use xlink:href="#h" transform="matrix(4.5 0 0 4.5 53.9 26.4)" color="#009E73"/><use xlink:href="#h" transform="matrix(4.5 0 0 4.5 97.1 367.7)" color="#009E73"/><use xlink:href="#h" transform="matrix(4.5 0 0 4.5 140.2 200.6)" color="#009E73"/><use xlink:href="#h" transform="matrix(4.5 0 0 4.5 183.4 201.2)" color="#009E73"/><use xlink:href="#h" transform="matrix(4.5 0 0 4.5 226.5 47.1)" color="#009E73"/><use xlink:href="#h" transform="matrix(4.5 0 0 4.5 269.7 46.9)" color="#009E73"/><use xlink:href="#h" transform="matrix(4.5 0 0 4.5 312.9 27.7)" color="#009E73"/><use xlink:href="#h" transform="matrix(4.5 0 0 4.5 356 43.8)" color="#009E73"/><use xlink:href="#h" transform="matrix(4.5 0 0 4.5 399.2 46.5)" color="#009E73"/><use xlink:href="#h" transform="matrix(4.5 0 0 4.5 442.4 27.4)" color="#009E73"/><use xlink:href="#h" transform="matrix(4.5 0 0 4.5 528.7 27.3)" color="#009E73"/><use xlink:href="#h" transform="matrix(4.5 0 0 4.5 571.8 27.4)" color="#009E73"/><use xlink:href="#h" transform="matrix(4.5 0 0 4.5 615 26.8)" color="#009E73"/><use xlink:href="#h" transform="matrix(4.5 0 0 4.5 305 502)" color="#009E73"/></g><text transform="translate(458.9 487.9)" stroke="none" fill="#000" font-family="Arial" font-size="12" text-anchor="end" color="#000"><tspan>score:p90median</tspan></text><g fill="none" color="#000" stroke="currentColor"><path stroke="#56B4E9" d="M467.2 484h42.2M53.9 26.4l43.2 352.2 43.1-193.1 43.2 5.4L226.5 48l43.2.2 43.2-21.4L356 43.7l43.2 3.7 43.2-20 86.3-.6 43.1.6 43.2-.6"/><use xlink:href="#i" transform="matrix(4.5 0 0 4.5 53.9 26.4)" color="#56B4E9"/><use xlink:href="#i" transform="matrix(4.5 0 0 4.5 97.1 378.6)" color="#56B4E9"/><use xlink:href="#i" transform="matrix(4.5 0 0 4.5 140.2 185.5)" color="#56B4E9"/><use xlink:href="#i" transform="matrix(4.5 0 0 4.5 183.4 190.9)" color="#56B4E9"/><use xlink:href="#i" transform="matrix(4.5 0 0 4.5 226.5 48)" color="#56B4E9"/><use xlink:href="#i" transform="matrix(4.5 0 0 4.5 269.7 48.2)" color="#56B4E9"/><use xlink:href="#i" transform="matrix(4.5 0 0 4.5 312.9 26.8)" color="#56B4E9"/><use xlink:href="#i" transform="matrix(4.5 0 0 4.5 356 43.7)" color="#56B4E9"/><use xlink:href="#i" transform="matrix(4.5 0 0 4.5 399.2 47.4)" color="#56B4E9"/><use xlink:href="#i" transform="matrix(4.5 0 0 4.5 442.4 27.4)" color="#56B4E9"/><use xlink:href="#i" transform="matrix(4.5 0 0 4.5 528.7 26.8)" color="#56B4E9"/><use xlink:href="#i" transform="matrix(4.5 0 0 4.5 571.8 27.4)" color="#56B4E9"/><use xlink:href="#i" transform="matrix(4.5 0 0 4.5 615 26.8)" color="#56B4E9"/><use xlink:href="#i" transform="matrix(4.5 0 0 4.5 488.3 484)" color="#56B4E9"/></g><g><text transform="translate(458.9 505.9)" stroke="none" fill="#000" font-family="Arial" font-size="12" text-anchor="end" color="#000"><tspan>score:p90max</tspan></text><g fill="none" color="#000" stroke="currentColor"><path stroke="#E69F00" d="M467.2 502h42.2M53.9 26.4l43.2 269.8 43.1-118.7 43.2-27.8 43.1-106.1 43.2.1 43.2-16.9L356 42.9h43.2l43.2-15.5 86.3-.6 43.1.6 43.2-.6"/><use xlink:href="#d" transform="matrix(4.5 0 0 4.5 53.9 26.4)" color="#E69F00"/><use xlink:href="#d" transform="matrix(4.5 0 0 4.5 97.1 296.2)" color="#E69F00"/><use xlink:href="#d" transform="matrix(4.5 0 0 4.5 140.2 177.5)" color="#E69F00"/><use xlink:href="#d" transform="matrix(4.5 0 0 4.5 183.4 149.7)" color="#E69F00"/><use xlink:href="#d" transform="matrix(4.5 0 0 4.5 226.5 43.6)" color="#E69F00"/><use xlink:href="#d" transform="matrix(4.5 0 0 4.5 269.7 43.7)" color="#E69F00"/><use xlink:href="#d" transform="matrix(4.5 0 0 4.5 312.9 26.8)" color="#E69F00"/><use xlink:href="#d" transform="matrix(4.5 0 0 4.5 356 42.9)" color="#E69F00"/><use xlink:href="#d" transform="matrix(4.5 0 0 4.5 399.2 42.9)" color="#E69F00"/><use xlink:href="#d" transform="matrix(4.5 0 0 4.5 442.4 27.4)" color="#E69F00"/><use xlink:href="#d" transform="matrix(4.5 0 0 4.5 528.7 26.8)" color="#E69F00"/><use xlink:href="#d" transform="matrix(4.5 0 0 4.5 571.8 27.4)" color="#E69F00"/><use xlink:href="#d" transform="matrix(4.5 0 0 4.5 615 26.8)" color="#E69F00"/><use xlink:href="#d" transform="matrix(4.5 0 0 4.5 488.3 502)" color="#E69F00"/></g></g><g fill="none" color="#000" stroke="currentColor"><path stroke="#000" d="M53.9 18.1V448H615V18.1H53.9z"/></g></svg>