<svg width="640" height="500" xmlns="http://www.w3.org/2000/svg" xmlns:xlink="http://www.w3.org/1999/xlink"><path fill="#fff" d="M0 0h640v500H0z"/><defs><path id="g" stroke-width=".222" stroke="currentColor" d="M-1 0h2M0-1v2"/><path id="h" stroke-width=".222" stroke="currentColor" d="M-1-1l2 2m0-2l-2 2"/><path id="d" stroke-width=".222" stroke="currentColor" d="M-1-1h2v2h-2z"/><path id="b" stroke-width=".222" stroke="currentColor" d="M0-1.33l-1.33 2h2.66z"/><path id="f" stroke-width=".222" stroke="currentColor" d="M0 1.33L1.265.411.782-1.067l-1.564-.009-.483 1.487z"/><use xlink:href="#b" id="c" stroke="currentColor" transform="rotate(180)"/><use xlink:href="#d" id="e" stroke="currentColor" transform="rotate(45)"/><circle id="a" stroke-width=".222" stroke="currentColor" cx="0" cy="0" r="1"/></defs><g fill="none" color="#000" stroke="currentColor"><path stroke="#000" d="M53.9 438.5h9m552.1 0h-9"/><text transform="translate(45.6 442.4)" stroke="none" fill="#000" font-family="Arial" font-size="12" text-anchor="end"><tspan>0</tspan></text></g><g fill="none" color="#000" stroke="currentColor"><path stroke="#000" d="M53.9 376.1h9m552.1 0h-9"/><text transform="translate(45.6 380)" stroke="none" fill="#000" font-family="Arial" font-size="12" text-anchor="end"><tspan>50</tspan></text></g><g fill="none" color="#000" stroke="currentColor"><path stroke="#000" d="M53.9 313.6h9m552.1 0h-9"/><text transform="translate(45.6 317.5)" stroke="none" fill="#000" font-family="Arial" font-size="12" text-anchor="end"><tspan>100</tspan></text></g><g fill="none" color="#000" stroke="currentColor"><path stroke="#000" d="M53.9 251.2h9m552.1 0h-9"/><text transform="translate(45.6 255.1)" stroke="none" fill="#000" font-family="Arial" font-size="12" text-anchor="end"><tspan>150</tspan></text></g><g fill="none" color="#000" stroke="currentColor"><path stroke="#000" d="M53.9 188.7h9m552.1 0h-9"/><text transform="translate(45.6 192.6)" stroke="none" fill="#000" font-family="Arial" font-size="12" text-anchor="end"><tspan>200</tspan></text></g><g fill="none" color="#000" stroke="currentColor"><path stroke="#000" d="M53.9 126.2h9m552.1 0h-9"/><text transform="translate(45.6 130.1)" stroke="none" fill="#000" font-family="Arial" font-size="12" text-anchor="end"><tspan>250</tspan></text></g><g fill="none" color="#000" stroke="currentColor"><path stroke="#000" d="M53.9 63.8h9m552.1 0h-9"/><text transform="translate(45.6 67.7)" stroke="none" fill="#000" font-family="Arial" font-size="12" text-anchor="end"><tspan>300</tspan></text></g><g fill="none" color="#000" stroke="currentColor"><path stroke="#000" d="M53.9 446v-9m0-418.9v9"/><text transform="translate(53.9 467.9)" stroke="none" fill="#000" font-family="Arial" font-size="12" text-anchor="middle"><tspan>0</tspan></text></g><g fill="none" color="#000" stroke="currentColor"><path stroke="#000" d="M140.2 446v-9m0-418.9v9"/><text transform="translate(140.2 467.9)" stroke="none" fill="#000" font-family="Arial" font-size="12" text-anchor="middle"><tspan>2</tspan></text></g><g fill="none" color="#000" stroke="currentColor"><path stroke="#000" d="M226.5 446v-9m0-418.9v9"/><text transform="translate(226.5 467.9)" stroke="none" fill="#000" font-family="Arial" font-size="12" text-anchor="middle"><tspan>4</tspan></text></g><g fill="none" color="#000" stroke="currentColor"><path stroke="#000" d="M312.9 446v-9m0-418.9v9"/><text transform="translate(312.9 467.9)" stroke="none" fill="#000" font-family="Arial" font-size="12" text-anchor="middle"><tspan>6</tspan></text></g><g fill="none" color="#000" stroke="currentColor"><path stroke="#000" d="M399.2 446v-9m0-418.9v9"/><text transform="translate(399.2 467.9)" stroke="none" fill="#000" font-family="Arial" font-size="12" text-anchor="middle"><tspan>8</tspan></text></g><g fill="none" color="#000" stroke="currentColor"><path stroke="#000" d="M485.5 446v-9m0-418.9v9"/><text transform="translate(485.5 467.9)" stroke="none" fill="#000" font-family="Arial" font-size="12" text-anchor="middle"><tspan>10</tspan></text></g><g fill="none" color="#000" stroke="currentColor"><path stroke="#000" d="M571.8 446v-9m0-418.9v9"/><text transform="translate(571.8 467.9)" stroke="none" fill="#000" font-family="Arial" font-size="12" text-anchor="middle"><tspan>12</tspan></text></g><path stroke="#000" d="M53.9 18.1V446H615V18.1H53.9z" fill="none" color="#000"/><text transform="translate(275.6 485.9)" stroke="none" fill="#000" font-family="Arial" font-size="12" text-anchor="end" color="#000"><tspan>p90stdev</tspan></text><g fill="none" color="#000" stroke="currentColor"><path stroke="#9400D3" d="M283.9 482h42.2M53.9 436.9L97.1 26.3l43.1 95.4 43.2 30 43.1 225.4 43.2-5.3 43.2-201.7L356 421.7l43.2-40.7 43.2 56 86.3-198.3 43.1 198.2 43.2.9"/><use xlink:href="#g" transform="matrix(4.5 0 0 4.5 53.9 436.9)" color="#9400D3"/><use xlink:href="#g" transform="matrix(4.5 0 0 4.5 97.1 26.3)" color="#9400D3"/><use xlink:href="#g" transform="matrix(4.5 0 0 4.5 140.2 121.7)" color="#9400D3"/><use xlink:href="#g" transform="matrix(4.5 0 0 4.5 183.4 151.7)" color="#9400D3"/><use xlink:href="#g" transform="matrix(4.5 0 0 4.5 226.5 377.1)" color="#9400D3"/><use xlink:href="#g" transform="matrix(4.5 0 0 4.5 269.7 371.8)" color="#9400D3"/><use xlink:href="#g" transform="matrix(4.5 0 0 4.5 312.9 170.1)" color="#9400D3"/><use xlink:href="#g" transform="matrix(4.5 0 0 4.5 356 421.7)" color="#9400D3"/><use xlink:href="#g" transform="matrix(4.5 0 0 4.5 399.2 381)" color="#9400D3"/><use xlink:href="#g" transform="matrix(4.5 0 0 4.5 442.4 437)" color="#9400D3"/><use xlink:href="#g" transform="matrix(4.5 0 0 4.5 528.7 238.7)" color="#9400D3"/><use xlink:href="#g" transform="matrix(4.5 0 0 4.5 571.8 436.9)" color="#9400D3"/><use xlink:href="#g" transform="matrix(4.5 0 0 4.5 615 437.8)" color="#9400D3"/><use xlink:href="#g" transform="matrix(4.5 0 0 4.5 305 482)" color="#9400D3"/></g><text transform="translate(475.5 485.9)" stroke="none" fill="#000" font-family="Arial" font-size="12" text-anchor="end" color="#000"><tspan>p90outlandishness</tspan></text><g fill="none" color="#000" stroke="currentColor"><path stroke="#009E73" d="M483.8 482H526M53.9 437.3l43.2-.2 43.1.2h129.5l43.2-.1 43.1.1h86.4l86.3-.1 43.1.1H615"/><use xlink:href="#h" transform="matrix(4.5 0 0 4.5 53.9 437.3)" color="#009E73"/><use xlink:href="#h" transform="matrix(4.5 0 0 4.5 97.1 437.1)" color="#009E73"/><use xlink:href="#h" transform="matrix(4.5 0 0 4.5 140.2 437.3)" color="#009E73"/><use xlink:href="#h" transform="matrix(4.5 0 0 4.5 183.4 437.3)" color="#009E73"/><use xlink:href="#h" transform="matrix(4.5 0 0 4.5 226.5 437.3)" color="#009E73"/><use xlink:href="#h" transform="matrix(4.5 0 0 4.5 269.7 437.3)" color="#009E73"/><use xlink:href="#h" transform="matrix(4.5 0 0 4.5 312.9 437.2)" color="#009E73"/><use xlink:href="#h" transform="matrix(4.5 0 0 4.5 356 437.3)" color="#009E73"/><use xlink:href="#h" transform="matrix(4.5 0 0 4.5 399.2 437.3)" color="#009E73"/><use xlink:href="#h" transform="matrix(4.5 0 0 4.5 442.4 437.3)" color="#009E73"/><use xlink:href="#h" transform="matrix(4.5 0 0 4.5 528.7 437.2)" color="#009E73"/><use xlink:href="#h" transform="matrix(4.5 0 0 4.5 571.8 437.3)" color="#009E73"/><use xlink:href="#h" transform="matrix(4.5 0 0 4.5 615 437.3)" color="#009E73"/><use xlink:href="#h" transform="matrix(4.5 0 0 4.5 504.9 482)" color="#009E73"/></g><g fill="none" color="#000" stroke="currentColor"><path stroke="#000" d="M53.9 18.1V446H615V18.1H53.9z"/></g></svg>