<svg width="640" height="520" xmlns="http://www.w3.org/2000/svg" xmlns:xlink="http://www.w3.org/1999/xlink"><path fill="#fff" d="M0 0h640v520H0z"/><defs><path id="g" stroke-width=".222" stroke="currentColor" d="M-1 0h2M0-1v2"/><path id="h" stroke-width=".222" stroke="currentColor" d="M-1-1l2 2m0-2l-2 2"/><path id="i" stroke-width=".222" stroke="currentColor" d="M-1 0h2M0-1v2m-1-2l2 2m-2 0l2-2"/><path id="d" stroke-width=".222" stroke="currentColor" d="M-1-1h2v2h-2z"/><path id="b" stroke-width=".222" stroke="currentColor" d="M0-1.33l-1.33 2h2.66z"/><path id="f" stroke-width=".222" stroke="currentColor" d="M0 1.33L1.265.411.782-1.067l-1.564-.009-.483 1.487z"/><use xlink:href="#b" id="c" stroke="currentColor" transform="rotate(180)"/><use xlink:href="#d" id="e" stroke="currentColor" transform="rotate(45)"/><circle id="a" stroke-width=".222" stroke="currentColor" cx="0" cy="0" r="1"/></defs><g fill="none" color="#000" stroke="currentColor"><path stroke="#000" d="M62.2 413.8h9m543.8 0h-9"/><text transform="translate(53.9 417.7)" stroke="none" fill="#000" font-family="Arial" font-size="12" text-anchor="end"><tspan>1000</tspan></text></g><g fill="none" color="#000" stroke="currentColor"><path stroke="#000" d="M62.2 344.6h9m543.8 0h-9"/><text transform="translate(53.9 348.5)" stroke="none" fill="#000" font-family="Arial" font-size="12" text-anchor="end"><tspan>2000</tspan></text></g><g fill="none" color="#000" stroke="currentColor"><path stroke="#000" d="M62.2 275.4h9m543.8 0h-9"/><text transform="translate(53.9 279.3)" stroke="none" fill="#000" font-family="Arial" font-size="12" text-anchor="end"><tspan>3000</tspan></text></g><g fill="none" color="#000" stroke="currentColor"><path stroke="#000" d="M62.2 206.2h9m543.8 0h-9"/><text transform="translate(53.9 210.1)" stroke="none" fill="#000" font-family="Arial" font-size="12" text-anchor="end"><tspan>4000</tspan></text></g><g fill="none" color="#000" stroke="currentColor"><path stroke="#000" d="M62.2 137h9m543.8 0h-9"/><text transform="translate(53.9 140.9)" stroke="none" fill="#000" font-family="Arial" font-size="12" text-anchor="end"><tspan>5000</tspan></text></g><g fill="none" color="#000" stroke="currentColor"><path stroke="#000" d="M62.2 67.9h9m543.8 0h-9"/><text transform="translate(53.9 71.8)" stroke="none" fill="#000" font-family="Arial" font-size="12" text-anchor="end"><tspan>6000</tspan></text></g><g fill="none" color="#000" stroke="currentColor"><path stroke="#000" d="M62.2 448v-9m0-420.9v9"/><text transform="translate(62.2 469.9)" stroke="none" fill="#000" font-family="Arial" font-size="12" text-anchor="middle"><tspan>0</tspan></text></g><g fill="none" color="#000" stroke="currentColor"><path stroke="#000" d="M147.2 448v-9m0-420.9v9"/><text transform="translate(147.2 469.9)" stroke="none" fill="#000" font-family="Arial" font-size="12" text-anchor="middle"><tspan>2</tspan></text></g><g fill="none" color="#000" stroke="currentColor"><path stroke="#000" d="M232.3 448v-9m0-420.9v9"/><text transform="translate(232.3 469.9)" stroke="none" fill="#000" font-family="Arial" font-size="12" text-anchor="middle"><tspan>4</tspan></text></g><g fill="none" color="#000" stroke="currentColor"><path stroke="#000" d="M317.3 448v-9m0-420.9v9"/><text transform="translate(317.3 469.9)" stroke="none" fill="#000" font-family="Arial" font-size="12" text-anchor="middle"><tspan>6</tspan></text></g><g fill="none" color="#000" stroke="currentColor"><path stroke="#000" d="M402.4 448v-9m0-420.9v9"/><text transform="translate(402.4 469.9)" stroke="none" fill="#000" font-family="Arial" font-size="12" text-anchor="middle"><tspan>8</tspan></text></g><g fill="none" color="#000" stroke="currentColor"><path stroke="#000" d="M487.4 448v-9m0-420.9v9"/><text transform="translate(487.4 469.9)" stroke="none" fill="#000" font-family="Arial" font-size="12" text-anchor="middle"><tspan>10</tspan></text></g><g fill="none" color="#000" stroke="currentColor"><path stroke="#000" d="M572.5 448v-9m0-420.9v9"/><text transform="translate(572.5 469.9)" stroke="none" fill="#000" font-family="Arial" font-size="12" text-anchor="middle"><tspan>12</tspan></text></g><path stroke="#000" d="M62.2 18.1V448H615V18.1H62.2z" fill="none" color="#000"/><text transform="translate(179.8 487.9)" stroke="none" fill="#000" font-family="Arial" font-size="12" text-anchor="end" color="#000"><tspan>p90min</tspan></text><g fill="none" color="#000" stroke="currentColor"><path stroke="#9400D3" d="M188.1 484h42.2M62.2 439.7l42.5-313.9 42.5 67.6 42.6 17.1 42.5 96.4 42.5-.2 42.5 71.8 42.6-70.4 42.5-.1 42.5 59.8 85.1 10.9 42.5-10.7 42.5 10.7"/><use xlink:href="#g" transform="matrix(4.5 0 0 4.5 62.2 439.7)" color="#9400D3"/><use xlink:href="#g" transform="matrix(4.5 0 0 4.5 104.7 125.8)" color="#9400D3"/><use xlink:href="#g" transform="matrix(4.5 0 0 4.5 147.2 193.4)" color="#9400D3"/><use xlink:href="#g" transform="matrix(4.5 0 0 4.5 189.8 210.5)" color="#9400D3"/><use xlink:href="#g" transform="matrix(4.5 0 0 4.5 232.3 306.9)" color="#9400D3"/><use xlink:href="#g" transform="matrix(4.5 0 0 4.5 274.8 306.7)" color="#9400D3"/><use xlink:href="#g" transform="matrix(4.5 0 0 4.5 317.3 378.5)" color="#9400D3"/><use xlink:href="#g" transform="matrix(4.5 0 0 4.5 359.9 308.1)" color="#9400D3"/><use xlink:href="#g" transform="matrix(4.5 0 0 4.5 402.4 308)" color="#9400D3"/><use xlink:href="#g" transform="matrix(4.5 0 0 4.5 444.9 367.8)" color="#9400D3"/><use xlink:href="#g" transform="matrix(4.5 0 0 4.5 530 378.7)" color="#9400D3"/><use xlink:href="#g" transform="matrix(4.5 0 0 4.5 572.5 368)" color="#9400D3"/><use xlink:href="#g" transform="matrix(4.5 0 0 4.5 615 378.7)" color="#9400D3"/><use xlink:href="#g" transform="matrix(4.5 0 0 4.5 209.2 484)" color="#9400D3"/></g><text transform="translate(179.8 505.9)" stroke="none" fill="#000" font-family="Arial" font-size="12" text-anchor="end" color="#000"><tspan>p90mean</tspan></text><g fill="none" color="#000" stroke="currentColor"><path stroke="#009E73" d="M188.1 502h42.2M62.2 439.5l42.5-356.7 42.5 97.3 42.6-.4 42.5 121.2 42.5.2 42.5 68.7 42.6-63.2 42.5-4.9 42.5 65.9 85.1 6.6 42.5-6.3 42.5 10.7"/><use xlink:href="#h" transform="matrix(4.5 0 0 4.5 62.2 439.5)" color="#009E73"/><use xlink:href="#h" transform="matrix(4.5 0 0 4.5 104.7 82.8)" color="#009E73"/><use xlink:href="#h" transform="matrix(4.5 0 0 4.5 147.2 180.1)" color="#009E73"/><use xlink:href="#h" transform="matrix(4.5 0 0 4.5 189.8 179.7)" color="#009E73"/><use xlink:href="#h" transform="matrix(4.5 0 0 4.5 232.3 300.9)" color="#009E73"/><use xlink:href="#h" transform="matrix(4.5 0 0 4.5 274.8 301.1)" color="#009E73"/><use xlink:href="#h" transform="matrix(4.5 0 0 4.5 317.3 369.8)" color="#009E73"/><use xlink:href="#h" transform="matrix(4.5 0 0 4.5 359.9 306.6)" color="#009E73"/><use xlink:href="#h" transform="matrix(4.5 0 0 4.5 402.4 301.7)" color="#009E73"/><use xlink:href="#h" transform="matrix(4.5 0 0 4.5 444.9 367.6)" color="#009E73"/><use xlink:href="#h" transform="matrix(4.5 0 0 4.5 530 374.2)" color="#009E73"/><use xlink:href="#h" transform="matrix(4.5 0 0 4.5 572.5 367.9)" color="#009E73"/><use xlink:href="#h" transform="matrix(4.5 0 0 4.5 615 378.6)" color="#009E73"/><use xlink:href="#h" transform="matrix(4.5 0 0 4.5 209.2 502)" color="#009E73"/></g><text transform="translate(379.7 487.9)" stroke="none" fill="#000" font-family="Arial" font-size="12" text-anchor="end" color="#000"><tspan>p90median</tspan></text><g fill="none" color="#000" stroke="currentColor"><path stroke="#56B4E9" d="M388 484h42.2m-368-44.5l42.5-361.9 42.5 111.1 42.6-3.2 42.5 113.9 42.5-.4 42.5 79.3 42.6-71.7 42.5-6.3 42.5 67.3 85.1 10.9 42.5-10.6 42.5 10.7"/><use xlink:href="#i" transform="matrix(4.5 0 0 4.5 62.2 439.5)" color="#56B4E9"/><use xlink:href="#i" transform="matrix(4.5 0 0 4.5 104.7 77.6)" color="#56B4E9"/><use xlink:href="#i" transform="matrix(4.5 0 0 4.5 147.2 188.7)" color="#56B4E9"/><use xlink:href="#i" transform="matrix(4.5 0 0 4.5 189.8 185.5)" color="#56B4E9"/><use xlink:href="#i" transform="matrix(4.5 0 0 4.5 232.3 299.4)" color="#56B4E9"/><use xlink:href="#i" transform="matrix(4.5 0 0 4.5 274.8 299)" color="#56B4E9"/><use xlink:href="#i" transform="matrix(4.5 0 0 4.5 317.3 378.3)" color="#56B4E9"/><use xlink:href="#i" transform="matrix(4.5 0 0 4.5 359.9 306.6)" color="#56B4E9"/><use xlink:href="#i" transform="matrix(4.5 0 0 4.5 402.4 300.3)" color="#56B4E9"/><use xlink:href="#i" transform="matrix(4.5 0 0 4.5 444.9 367.6)" color="#56B4E9"/><use xlink:href="#i" transform="matrix(4.5 0 0 4.5 530 378.5)" color="#56B4E9"/><use xlink:href="#i" transform="matrix(4.5 0 0 4.5 572.5 367.9)" color="#56B4E9"/><use xlink:href="#i" transform="matrix(4.5 0 0 4.5 615 378.6)" color="#56B4E9"/><use xlink:href="#i" transform="matrix(4.5 0 0 4.5 409.1 484)" color="#56B4E9"/></g><text transform="translate(379.7 505.9)" stroke="none" fill="#000" font-family="Arial" font-size="12" text-anchor="end" color="#000"><tspan>p90max</tspan></text><g fill="none" color="#000" stroke="currentColor"><path stroke="#E69F00" d="M388 502h42.2m-368-62.7l42.5-412.9 42.5 117.1 42.6.3 42.5 153 42.5-.5 42.5 39.9 42.6-32.2 42.5-7.1 42.5 70.5 85.1-30.9 42.5 31.2 42.5 10.8"/><use xlink:href="#d" transform="matrix(4.5 0 0 4.5 62.2 439.3)" color="#E69F00"/><use xlink:href="#d" transform="matrix(4.5 0 0 4.5 104.7 26.4)" color="#E69F00"/><use xlink:href="#d" transform="matrix(4.5 0 0 4.5 147.2 143.5)" color="#E69F00"/><use xlink:href="#d" transform="matrix(4.5 0 0 4.5 189.8 143.8)" color="#E69F00"/><use xlink:href="#d" transform="matrix(4.5 0 0 4.5 232.3 296.8)" color="#E69F00"/><use xlink:href="#d" transform="matrix(4.5 0 0 4.5 274.8 296.3)" color="#E69F00"/><use xlink:href="#d" transform="matrix(4.5 0 0 4.5 317.3 336.2)" color="#E69F00"/><use xlink:href="#d" transform="matrix(4.5 0 0 4.5 359.9 304)" color="#E69F00"/><use xlink:href="#d" transform="matrix(4.5 0 0 4.5 402.4 296.9)" color="#E69F00"/><use xlink:href="#d" transform="matrix(4.5 0 0 4.5 444.9 367.4)" color="#E69F00"/><use xlink:href="#d" transform="matrix(4.5 0 0 4.5 530 336.5)" color="#E69F00"/><use xlink:href="#d" transform="matrix(4.5 0 0 4.5 572.5 367.7)" color="#E69F00"/><use xlink:href="#d" transform="matrix(4.5 0 0 4.5 615 378.5)" color="#E69F00"/><use xlink:href="#d" transform="matrix(4.5 0 0 4.5 409.1 502)" color="#E69F00"/></g><g><text transform="translate(579.6 487.9)" stroke="none" fill="#000" font-family="Arial" font-size="12" text-anchor="end" color="#000"><tspan>score p10=3387</tspan></text><path stroke="#F0E442" d="M587.9 484h42.2M62.2 248.6H615" fill="none" color="#000"/></g><g><text transform="translate(579.6 505.9)" stroke="none" fill="#000" font-family="Arial" font-size="12" text-anchor="end" color="#000"><tspan>score median=5800</tspan></text><path stroke="#0072B2" d="M587.9 502h42.2M62.2 81.7H615" fill="none" color="#000"/></g><g fill="none" color="#000" stroke="currentColor"><path stroke="#000" d="M62.2 18.1V448H615V18.1H62.2z"/></g></svg>