<svg width="640" height="500" xmlns="http://www.w3.org/2000/svg" xmlns:xlink="http://www.w3.org/1999/xlink"><path fill="#fff" d="M0 0h640v500H0z"/><defs><path id="d" stroke-width=".222" stroke="currentColor" d="M-1-1h2v2h-2z"/><path id="b" stroke-width=".222" stroke="currentColor" d="M0-1.33l-1.33 2h2.66z"/><path id="f" stroke-width=".222" stroke="currentColor" d="M0 1.33L1.265.411.782-1.067l-1.564-.009-.483 1.487z"/><use xlink:href="#b" id="c" stroke="currentColor" transform="rotate(180)"/><use xlink:href="#d" id="e" stroke="currentColor" transform="rotate(45)"/><circle id="a" stroke-width=".222" stroke="currentColor" cx="0" cy="0" r="1"/></defs><g fill="none" color="#000" stroke="currentColor"><path stroke="#000" d="M53.9 437.8h9m552.1 0h-9"/><text transform="translate(45.6 441.7)" stroke="none" fill="#000" font-family="Arial" font-size="12" text-anchor="end"><tspan>0</tspan></text></g><g fill="none" color="#000" stroke="currentColor"><path stroke="#000" d="M53.9 375.4h9m552.1 0h-9"/><text transform="translate(45.6 379.3)" stroke="none" fill="#000" font-family="Arial" font-size="12" text-anchor="end"><tspan>50</tspan></text></g><g fill="none" color="#000" stroke="currentColor"><path stroke="#000" d="M53.9 313.1h9m552.1 0h-9"/><text transform="translate(45.6 317)" stroke="none" fill="#000" font-family="Arial" font-size="12" text-anchor="end"><tspan>100</tspan></text></g><g fill="none" color="#000" stroke="currentColor"><path stroke="#000" d="M53.9 250.8h9m552.1 0h-9"/><text transform="translate(45.6 254.7)" stroke="none" fill="#000" font-family="Arial" font-size="12" text-anchor="end"><tspan>150</tspan></text></g><g fill="none" color="#000" stroke="currentColor"><path stroke="#000" d="M53.9 188.4h9m552.1 0h-9"/><text transform="translate(45.6 192.3)" stroke="none" fill="#000" font-family="Arial" font-size="12" text-anchor="end"><tspan>200</tspan></text></g><g fill="none" color="#000" stroke="currentColor"><path stroke="#000" d="M53.9 126.1h9m552.1 0h-9"/><text transform="translate(45.6 130)" stroke="none" fill="#000" font-family="Arial" font-size="12" text-anchor="end"><tspan>250</tspan></text></g><g fill="none" color="#000" stroke="currentColor"><path stroke="#000" d="M53.9 63.7h9m552.1 0h-9"/><text transform="translate(45.6 67.6)" stroke="none" fill="#000" font-family="Arial" font-size="12" text-anchor="end"><tspan>300</tspan></text></g><g fill="none" color="#000" stroke="currentColor"><path stroke="#000" d="M53.9 446v-9m0-418.9v9"/><text transform="translate(53.9 467.9)" stroke="none" fill="#000" font-family="Arial" font-size="12" text-anchor="middle"><tspan>0</tspan></text></g><g fill="none" color="#000" stroke="currentColor"><path stroke="#000" d="M110.6 446v-9m0-418.9v9"/><text transform="translate(110.6 467.9)" stroke="none" fill="#000" font-family="Arial" font-size="12" text-anchor="middle"><tspan>10</tspan></text></g><g fill="none" color="#000" stroke="currentColor"><path stroke="#000" d="M167.3 446v-9m0-418.9v9"/><text transform="translate(167.3 467.9)" stroke="none" fill="#000" font-family="Arial" font-size="12" text-anchor="middle"><tspan>20</tspan></text></g><g fill="none" color="#000" stroke="currentColor"><path stroke="#000" d="M223.9 446v-9m0-418.9v9"/><text transform="translate(223.9 467.9)" stroke="none" fill="#000" font-family="Arial" font-size="12" text-anchor="middle"><tspan>30</tspan></text></g><g fill="none" color="#000" stroke="currentColor"><path stroke="#000" d="M280.6 446v-9m0-418.9v9"/><text transform="translate(280.6 467.9)" stroke="none" fill="#000" font-family="Arial" font-size="12" text-anchor="middle"><tspan>40</tspan></text></g><g fill="none" color="#000" stroke="currentColor"><path stroke="#000" d="M337.3 446v-9m0-418.9v9"/><text transform="translate(337.3 467.9)" stroke="none" fill="#000" font-family="Arial" font-size="12" text-anchor="middle"><tspan>50</tspan></text></g><g fill="none" color="#000" stroke="currentColor"><path stroke="#000" d="M394 446v-9m0-418.9v9"/><text transform="translate(394 467.9)" stroke="none" fill="#000" font-family="Arial" font-size="12" text-anchor="middle"><tspan>60</tspan></text></g><g fill="none" color="#000" stroke="currentColor"><path stroke="#000" d="M450.6 446v-9m0-418.9v9"/><text transform="translate(450.6 467.9)" stroke="none" fill="#000" font-family="Arial" font-size="12" text-anchor="middle"><tspan>70</tspan></text></g><g fill="none" color="#000" stroke="currentColor"><path stroke="#000" d="M507.3 446v-9m0-418.9v9"/><text transform="translate(507.3 467.9)" stroke="none" fill="#000" font-family="Arial" font-size="12" text-anchor="middle"><tspan>80</tspan></text></g><g fill="none" color="#000" stroke="currentColor"><path stroke="#000" d="M564 446v-9m0-418.9v9"/><text transform="translate(564 467.9)" stroke="none" fill="#000" font-family="Arial" font-size="12" text-anchor="middle"><tspan>90</tspan></text></g><path stroke="#000" d="M53.9 18.1V446H615V18.1H53.9z" fill="none" color="#000"/><text transform="translate(275.6 485.9)" stroke="none" fill="#000" font-family="Arial" font-size="12" text-anchor="end" color="#000"><tspan>pages+cached+noexternal+noimg</tspan></text><path stroke="#9400D3" d="M283.9 482h42.2M53.9 26.3l5.7 12.5 5.6-12.5 5.7 187 5.7-174.5 5.6 199.5 5.7-187 5.7-12.5 5.6 12.5 5.7 174.5 5.7 12.5 5.6-212 5.7 212 5.7-199.5 5.6-12.5 5.7 212 5.7-187 5.7 187 5.6-212h5.7l5.7 25h5.6l5.7-25 5.7 212 5.6-199.5 5.7 12.5 5.7 187h5.6l5.7-187 5.7 187 5.6-199.5 5.7-12.5 5.7 12.5 5.6 12.5 5.7 187 5.7-212h5.6l5.7 12.5 5.7 12.5h5.6l5.7-25h5.7l5.6 212 5.7-12.5 5.7-187 5.6-12.5 5.7 25 5.7 174.5 5.6-174.5h5.7l5.7 187 5.7-212h5.6l5.7 212h5.7l5.6-25 5.7-174.5 5.7 199.5 5.6-212 5.7 25 5.7-12.5 5.6-12.5 5.7 12.5 5.7-12.5 5.6 212h5.7L428 38.8h5.6l5.7 12.5 5.7-25 5.6 199.5 5.7 12.5L462 38.8l5.6-12.5 5.7 212L479 38.8h5.6l5.7 12.5 5.7-25 5.6 199.5 5.7 12.5 5.7-187h5.6l5.7 187 5.7-212 5.7 12.5 5.6-12.5h11.4l5.6 187L564 38.8l5.7 12.5 5.6-25h5.7l5.7 25 5.6 187 5.7-212 5.7 187 5.6 25 5.7-212" fill="none" color="#000"/><text transform="translate(575.1 485.9)" stroke="none" fill="#000" font-family="Arial" font-size="12" text-anchor="end" color="#000"><tspan>pages+cached+noexternal+nocss</tspan></text><path stroke="#009E73" d="M583.4 482h42.2M53.9 63.7H110.6l5.6 187.1 5.7-187.1h28.4l5.6 374.1 5.7-199.5 5.7-187 5.6 12.4 5.7-12.4 5.7 12.4h17l5.6-12.4 5.7 12.4h5.7l5.6-12.4 5.7 12.4h17l5.7-12.4 5.6 386.5 5.7-374.1H291.9l5.7 374.1 5.7-374.1h17l5.6-12.4 5.7 12.4h22.7l5.7-12.4h5.6l5.7 12.4H394l5.6 187.1 5.7-187.1h17l5.7-12.4 5.6 12.4H479l5.6-12.4 5.7 187L496 63.7H547l5.7-12.4 5.6 12.4h28.4l5.6 187.1L598 63.7h5.7l5.6 374.1L615 63.7" fill="none" color="#000"/><g fill="none" color="#000" stroke="currentColor"><path stroke="#000" d="M53.9 18.1V446H615V18.1H53.9z"/></g></svg>