<svg width="640" height="4440" xmlns="http://www.w3.org/2000/svg" xmlns:xlink="http://www.w3.org/1999/xlink"><path fill="#fff" d="M0 0h640v4440H0z"/><defs><path id="d" stroke-width=".222" stroke="currentColor" d="M-1-1h2v2h-2z"/><path id="b" stroke-width=".222" stroke="currentColor" d="M0-1.33l-1.33 2h2.66z"/><path id="f" stroke-width=".222" stroke="currentColor" d="M0 1.33L1.265.411.782-1.067l-1.564-.009-.483 1.487z"/><use xlink:href="#b" id="c" stroke="currentColor" transform="rotate(180)"/><use xlink:href="#d" id="e" stroke="currentColor" transform="rotate(45)"/><circle id="a" stroke-width=".222" stroke="currentColor" cx="0" cy="0" r="1"/></defs><path stroke="#000" d="M20.7 18.1v4405.3H615V18.1H20.7z" fill="none" color="#000"/><path stroke="#9400D3" d="M20.7 4364.2H615" fill="none" color="#000"/><path stroke="#009E73" d="M20.7 4210.1l6 73.1 6-70.7 6 79.8 6-9.6 6-30.4 6-10.3 6-2.1 6 35.7 6-52.6 6 43.6 6 22.5 6-42.9 6 35.9 6-20.7 6-13.9 6 32.6 6.1-72.7 6 19.4 6 18.1 6-52.2 6 59.7 6-23.9 6-12.1 6 67.5 6-29.9 6 4.3 6-41.2 6 43.2 6-17.5 6-34.9 6 68.5 6-59.8 6 43 6-25.7 6 41.3 6-28.7 6 13.6 6-44.3 6 35 6-20.3 6 33 6-46.5 6 26.6 6 43.3 6-68.5 6 1.6 6 29.4 6-99.4 6 106.7 6.1 18.7 6-47.3 6 51.1 6 5 6-29.3 6 20.1 6-21.2 6-11.7 6 18.4 6-32.5 6 4.1 6 21.9 6 8.5 6-22 6 8.2 6 32.4 6-5.2 6-87 6 59.7 6 20.8 6-6 6-34 6 57.5 6-8.5 6-38.2 6-27.4 6 32.8 6-46.7 6 82.5 6-70.5 6-6.9 6 73.2 6-37 6.1-18 6-22.4 6 17.8 6-51.1 6 60.1 6-16 6 43.6 6 27.2 6-50.7 6 12.1 6 23.1 6 20.7 6-25.5 6-4.6 6-64.6 6 90.2 6-5.1" fill="none" color="#000"/><path stroke="#56B4E9" d="M20.7 4127.3H615" fill="none" color="#000"/><path stroke="#E69F00" d="M20.7 4008.9H615" fill="none" color="#000"/><path stroke="#F0E442" d="M20.7 3890.5H615" fill="none" color="#000"/><path stroke="#0072B2" d="M20.7 3772.1H615" fill="none" color="#000"/><path stroke="#E51E10" d="M20.7 3653.7H615" fill="none" color="#000"/><path stroke="#000" d="M20.7 3535.2H615" fill="none" color="#000"/><path stroke="#9400D3" d="M20.7 3416.8H615" fill="none" color="#000"/><path stroke="#009E73" d="M20.7 3251.2l6 82.9 6-82.9 6 82.9h18l6-82.9h24l6 82.9h18l6-82.9h30.1l6 82.9h6l6-82.9 6 82.9 6-82.9h12l6 82.9h24l6-82.9 6 82.9 6-82.9 6 82.9h6l6-82.9 6 82.9 6-82.9 6 82.9h18l6-82.9 6 82.9h12l6.1-82.9h6l6 82.9 6-82.9h6l6 82.9 6-82.9 6 82.9 6-82.9h6l6 82.9 6-82.9h6l6 82.9h6l6-82.9 6 82.9 6-82.9 6 82.9 6-82.9 6 82.9h6l6-82.9 6 82.9h6l6-82.9h6l6 82.9h6l6-5.5 6-77.4h6l6 82.9H525l6-82.9 6 82.9 6-82.9 6 82.9h48l6-82.9h6l6 82.9" fill="none" color="#000"/><path stroke="#56B4E9" d="M20.7 3180H615" fill="none" color="#000"/><path stroke="#E69F00" d="M20.7 3061.5H615" fill="none" color="#000"/><path stroke="#F0E442" d="M20.7 2943.1H615" fill="none" color="#000"/><path stroke="#0072B2" d="M20.7 2824.7H615" fill="none" color="#000"/><path stroke="#E51E10" d="M20.7 2706.3H615" fill="none" color="#000"/><path stroke="#000" d="M20.7 2587.9H615" fill="none" color="#000"/><path stroke="#9400D3" d="M20.7 2469.4H615" fill="none" color="#000"/><path stroke="#009E73" d="M20.7 2351H615" fill="none" color="#000"/><path stroke="#56B4E9" d="M20.7 2232.6H615" fill="none" color="#000"/><path stroke="#E69F00" d="M20.7 2134.3l6-21.8 6-38.9 6 51.9 6-15.7 6-10.4 6 5 6 50.2 6-21.6 6-19.3 6 2.9 6 8.8 6 8.4 6 11.6 6 17.8 6-80.2 6 25.6 6.1-8.1 6 18.8 6-66.1 6 55.8 6 10.6 6-27.3 6 10.6 6 33.2 6-34 6 39.8 6 16.6 6-42.3 6 .1 6-23.3 6 2.9 6-34.3 6 51.6 6-20.4 6-2.1 6 96.1 6-86.8 6 34.1 6-11.5 6 17 6-17.9 6-7.1 6-82.3 6 140.1 6-84.7 6 54.5 6-8.4 6 2.9 6-19.7 6.1-3.1 6 4.4 6-12.2 6-4.2 6-40.3 6 56.8 6 40 6-25.5 6-14.6 6-33 6 16.6 6 13.4 6-9.6 6-10.5 6-14.3 6 32.2 6 32.2 6-40.6 6 2.6 6 18.3 6-43.3 6 59.1 6-42.9 6 19.5 6 20.7 6-29 6 14.2 6-8.8 6 18 6-27 6 11.1 6-5.4 6 25.5 6.1-32.2 6 25.8 6-17.1 6 17.9 6-40.5 6 10.3 6 5.6 6 16.7 6-30.6 6-11.1 6 49.1 6-7.6 6 7.6 6-22.4 6 27.6 6-64.7 6 25.5" fill="none" color="#000"/><path stroke="#F0E442" d="M20.7 1996.8l6 17.1 6-48.8 6 53.7 6 21.9 6-58.5 6 4.9 6-34.1 6 48.7 6-29.2 6 26.8 6 7.3 6 4.9 6 24.4 6-41.5 6 7.3 6 41.5 6.1-34.2 6 26.9 6-41.5 6-41.4 6 70.7 6-63.4 6 41.4 6-4.9 6-4.8 6 12.2 6-39.1 6 56.1 6-36.5 6 4.8 6 22 6-36.6 6 36.6 6-4.9 6-19.5 6-7.3 6 24.4 6 48.7 6-43.9 6-7.3 6 9.8 6-41.5 6 24.4 6-2.4 6-22 6 43.9 6-9.7 6 19.5 6-26.9 6.1 2.5 6 48.7 6-58.5 6-2.4 6-17.1 6 14.7 6-14.7 6 14.7 6-9.8 6 46.3 6-65.8 6 56.1 6-26.8 6 14.6 6 21.9 6-36.5 6 14.6h6l6-7.3 6 17 6-34.1 6 31.7 6-75.6 6 65.8 6-12.1 6-12.2 6 29.2 6 22 6-51.2 6 17 6-14.6 6 31.7 6-31.7 6.1 24.4 6 19.5 6-39 6 31.7h6l6-7.3 6-4.9h6l6-29.3 6 36.6 6-61 6 48.8 6-46.3 6 90.2 6-19.5 6-43.9 6 12.2" fill="none" color="#000"/><g><path stroke="#0072B2" d="M20.7 1854.9l6 41.5h6l6-55.3 6 55.3h6l6 13.8h6l6-13.8h18l6-13.8h6l6-96.7 6 96.7h12.1l6 13.8 6-27.6 6 13.8 6-27.7 6 27.7 6 13.8h6l6-13.8 6 13.8 6 13.8 6-27.6 6-55.3 6 55.3 6 13.8h6l6-110.5 6 110.5h6l6 13.8 6-138.2 6 110.6 6 27.6 6-27.6h6l6 13.8 6-13.8 6-96.7 6 110.5h6l6-96.7 6 27.6 6-41.4 6.1 110.5h6l6-13.8 6 13.8 6-13.8 6-82.9 6 69.1 6 13.8 6 13.8h24l6-13.8h6l6 13.8 6-96.7 6 96.7 6-13.8 6 13.8 6-13.8 6 13.8h6l6-13.8 6 27.6 6-13.8 6-41.5 6-27.6 6 55.3 6 13.8h12l6-69.1 6.1 41.5 6 13.8 6 13.8h12l6-69.1 6-55.3 6 110.6 6 13.8 6-27.6 6 27.6 6-13.8h6l6 13.8 6 13.8 6-27.6 6 13.8" fill="none" color="#000"/></g><g><path stroke="#E51E10" d="M20.7 1800.4l6-40.8 6-24.1 6 32.7 6-2.8 6 8.5 6-19.9 6 28 6-31.6 6 5.8 6-3.9 6-7.6 6-4.3 6-10 6 56.9 6-45.9 6 3.1 6.1-5.3 6 42.2 6-27.1 6-18.2 6 53.7 6-38.6 6-24.8 6 30.1 6-5.2 6 18.9 6 33.3 6-56.5 6 46.5 6-26.7 6-13.5 6 6.5 6 53.6 6-68.9 6-22.5 6 61.7 6 8.3 6-30.1 6 16.6 6 1.6 6 1.8 6-52.2 6-4 6 96 6-67.3 6 14.5 6 47.1 6-22.2 6 17.2 6.1-76 6 19.4 6-16.8 6-4.6 6-43.4 6 113 6 2.1 6-76.7 6 19.4 6 37.5 6-48.9 6 18.3 6-5.2 6-7.6 6-.9 6 7.3 6 18.6 6-7.8 6-38.1 6 68 6-29.4 6-4.6 6 33 6-50.4 6 36.7 6-27.9 6 45.2 6-35.5 6-81.1 6 62.8 6 39.9 6-66.6 6 27.5 6.1 12.4 6 5.4 6 7.4 6-22 6 37.6 6-4.5 6-9.4 6-34.3 6 36.4 6-74.9 6 87.4 6-40.8 6 25 6-6.8 6 35 6-26.9 6-2.1" fill="none" color="#000"/></g><g><path stroke="#000" d="M20.7 1759.9h48l6 41.4 6-41.4h24l6 41.4 6-41.4 6.1-41.5 6 82.9 6-41.4 6 41.4 6-82.9 6 41.5h30l6-41.5 6 82.9 6-41.4h30l6 41.4 6-41.4h18l6 41.4 6-41.4h6l6 41.4 6-41.4h6l6 41.4h6l6-41.4h12.1l1.6-1741.8m8.6 0l1.8 1783.2 6-41.4 6 41.4 6-41.4h30l6-41.5 1.6-1700.3m8.7 0l1.7 1783.2 6-41.4h24l6 41.4h6l6-41.4h12l6 41.4 6-41.4h36l6.1 41.4 6-82.9 6 82.9 6-41.4h78" fill="none" color="#000"/></g><g><path stroke="#9400D3" d="M20.7 1564.2l6-.7 6 .4 6-81 6 80.5 6-.2 6 .3 6 .3 6-80.6 6 .7 6-1.3 6 .2 6-.3 6 .6 6 81.1 6-53.3 6-1.3 6.1-28.1 6 3.3 6-2.6 6 1.9 6 78.6 6 .9 6 .6 6-.3 6-.7 6 .7 6-80.5 6 24.9 6-23.7 6 79 6-81.3 6 81.2 6 .2 6-81 6 80.9 6 .9 6-1.2 6-80.2h6l6 .6 6 80.7 6-81.6 6 81 6 1 6-.9 6-55.4 6 55.9 6-80.1 6 79.6 6.1-80.9 6-.1 6-.5 6 1.5 6 79.2 6 1.5 6-1.3 6-54.6 6-25.7 6-.3 6 81.2 6-81.5 6-1 6 .1 6 3.1 6 25.3 6 53.3 6-80.9 6 1.1 6 81 6 .2 6 .1 6-.7 6-80.7 6 80.4 6-79.5 6 79.1 6-80.5 6 81.3 6-81.2 6 80.5 6-53.7 6-26.8 6.1 81.8 6-1.8 6-78.8 6 25.5 6 .1 6-26.5 6 80.9 6-81.5 6 81.7 6-81.2 6 .6 6 26.2 6-26.8 6 80.4 6-80.1 6-.4 6 80.5" fill="none" color="#000"/></g><g><path stroke="#009E73" d="M20.7 1445.8l6-.7 6 .3 6-80.9 6 80.5 6-.2 6 .3 6 .2 6-80.5 6 .7 6-1.3 6 .2 6-.4 6 .7 6 81.1 6-53.3 6-1.3 6.1-28.1 6 3.3 6-2.6 6 1.9 6 78.6 6 .9 6 .6 6-.4 6-.6 6 .7 6-80.5 6 24.9 6-23.7 6 78.9 6-81.2 6 81.2 6 .2 6-81.1 6 81 6 .9 6-1.2 6-80.3 6 .1 6 .5 6 80.8 6-81.6 6 81 6 1 6-.9 6-55.4 6 55.9 6-80.1 6 79.6 6.1-80.9 6-.2 6-.4 6 1.5 6 79.1 6 1.6 6-1.3 6-54.6 6-25.7 6-.3 6 81.2 6-81.5 6-1.1 6 .2 6 3.1 6 25.3 6 53.2 6-80.8 6 1 6 81.1 6 .1 6 .2 6-.7 6-80.8 6 80.5 6-79.5 6 79.1 6-80.5 6 81.3 6-81.2 6 80.4 6-53.7 6-26.7 6.1 81.7 6-1.7 6-78.8 6 25.5 6 .1 6-26.5 6 80.9 6-81.5 6 81.6 6-81.1 6 .5 6 26.3 6-26.8 6 80.4 6-80.1 6-.5 6 80.6" fill="none" color="#000"/></g><g><path stroke="#56B4E9" d="M20.7 1246l6 67.3 6-67.3 6 74.3 6-7.1 6-.2 6 7.1 6-74.6 6-6.5 6 .6 6 5.6 6-6.6 6 74.5 6 .5 6 7.2 6 .9 6-75.9 6.1-8.4 6 3.2 6 4.2 6 1.7 6-8.9 6 75.8 6 7.4 6-75.2 6 74.1 6-73.8h6l6-1.3 6 77.1 6-8.4 6 6.5 6-6.5 6 7 6-81.8 6 81.7 6-73.8 6 66.7 6 .5 6-68 6 68.5 6-67.8 6 73.9 6 .3 6-5.8 6-1 6-69 6 76.3 6 .4 6-7.7 6.1-68.2 6-.1 6 74.4 6-80.2 6 5.1 6 69.7 6-69.4 6 74.8 6-81 6 6.5 6 75.3 6-82.4 6-.9 6 81.8 6 2.6 6-82.4 6 73.6 6-68 6 75.7 6-74.4 6 68.2 6 .3 6-68.9 6 74.8 6-.3 6-73.7 6-8.3 6 81.9 6-6.3 6-.4 6-74.9 6 .7 6 81 6.1-5.8 6-1.9 6-72.8 6 74 6-67.9 6 74.6 6-6.5 6 6 6 .9 6-.5 6-6.3h6l6 6.4 6-7.2 6-67.4 6-7.2 6 74.6" fill="none" color="#000"/></g><g><path stroke="#E69F00" d="M20.7 1204.6l6 1.9 6-.6 6-70.3 6 69.4 6-4.1 6-.7 6 15.5 6-68.3 6-3.2 6-7.3 6 7.8 6-5.3 6-1.9 6 45.8 6-44.8 6-3.6 6.1 1.2 6 14.9 6-14.2 6-1.9 6 64.4 6 4.4 6-8 6 8.3 6-7.3 6 6.4 6-49.3 6-19.4 6-.6 6 67.3 6-64.3 6 66.8 6-18.2 6-40.6 6 55.5 6 13.9 6-32.8 6-42.3 6 9.6 6-15.1 6 76.4 6-77 6 59.9 6 1.7 6 14.1 6-61 6 45.2 6-60.6 6 55.6 6.1-47.7 6-.7 6-19.3 6 28.6 6 49.9 6-3.2 6 9.4 6-68.6 6 6.9 6 4.5 6 45 6-51.4 6-3.7 6-11.8 6 15.1 6 4.5 6 43.8 6-53.9 6 4.9 6 74.9 6-7.7 6 6.5 6-.7 6-88.9 6 74.7 6-49.6 6 51.8 6-72.7 6 62.6 6-49 6 67 6-70.8 6-8 6.1 71.1 6-.5 6-54 6-4.8 6-.5 6-10.9 6 48.4 6-43.1 6 63.9 6-62.8 6 8.3 6-7 6-1.4 6 70.3 6-55.2 6-13.6 6 66.3" fill="none" color="#000"/></g><g><path stroke="#F0E442" d="M20.7 1090.5l6-.7 6 .4 6-80.9 6 80.4 6-.2 6 .3 6 .3 6-80.6 6 .8 6-1.4 6 .2 6-.3 6 .6 6 81.1 6-53.3 6-1.3 6.1-28.1 6 3.4 6-2.7 6 1.9 6 78.6 6 .9 6 .6 6-.3 6-.7 6 .7 6-80.5 6 24.9 6-23.7 6 79 6-81.3 6 81.2 6 .2 6-81 6 80.9 6 .9 6-1.2 6-80.2h6l6 .6 6 80.8 6-81.7 6 81 6 1 6-.9 6-55.4 6 55.9 6-80.1 6 79.6 6.1-80.9 6-.1 6-.5 6 1.5 6 79.2 6 1.5 6-1.3 6-54.6 6-25.7 6-.3 6 81.2 6-81.5 6-1 6 .1 6 3.1 6 25.3 6 53.3 6-80.9 6 1.1 6 81 6 .2 6 .1 6-.6 6-80.8 6 80.4 6-79.5 6 79.1 6-80.4 6 81.2 6-81.1 6 80.4 6-53.7 6-26.8 6.1 81.8 6-1.8 6-78.8 6 25.5 6 .1 6-26.4 6 80.9 6-81.6 6 81.7 6-81.1 6 .5 6 26.2 6-26.7 6 80.3 6-80.1 6-.4 6 80.5" fill="none" color="#000"/></g><g><path stroke="#0072B2" d="M20.7 972.1l6-.7 6 .4 6-81 6 80.5 6-.2 6 .3 6 .3 6-80.6 6 .7 6-1.3 6 .2 6-.3 6 .6 6 81.1 6-53.3 6-1.3 6.1-28.1 6 3.3 6-2.6 6 1.9 6 78.6 6 .9 6 .6 6-.4 6-.6 6 .7 6-80.5 6 24.9 6-23.7 6 78.9 6-81.2 6 81.2 6 .2 6-81 6 80.9 6 .9 6-1.2 6-80.2h6l6 .6 6 80.7 6-81.6 6 81 6 1 6-.9 6-55.4 6 55.9 6-80.1 6 79.6 6.1-80.9 6-.2 6-.4 6 1.5 6 79.2 6 1.5 6-1.3 6-54.6 6-25.7 6-.3 6 81.2 6-81.5 6-1.1 6 .2 6 3.1 6 25.3 6 53.2 6-80.8 6 1.1 6 81 6 .1 6 .2 6-.7 6-80.8 6 80.5 6-79.5 6 79.1 6-80.5 6 81.3 6-81.2 6 80.4 6-53.7 6-26.7 6.1 81.7 6-1.7 6-78.8 6 25.5 6 .1 6-26.5 6 80.9 6-81.5 6 81.6 6-81.1 6 .6 6 26.2 6-26.8 6 80.4 6-80.1 6-.4 6 80.5" fill="none" color="#000"/></g><g><path stroke="#E51E10" d="M20.7 824.4l6-22.2 6-62.8 6 86.2 6-13.3 6 2.6 6-112.4 6 145.1 6-9.4 6-25 6 35.3 6-39.6 6 16.1 6-7 6 3.3 6-6.2 6 22.3 6.1-13.5 6 10.8 6-30.8 6 11.4 6-14 6 19.9 6-15.9 6 17.9 6-6.6 6-6.6 6 16.4 6-2.9 6-7 6 4.8 6-7.8 6-57.5 6-10.6 6 83 6-6.8 6 16.1 6-19.7 6 10.7 6-7.7 6-55.4 6 50.1 6 2.6 6-204.9 6 223.2 6-13.5 6-6.3 6 10.7 6-13.6 6 10.9 6.1 9.1 6-11.6 6 4.8 6-9.6 6 5.5 6 12.3 6-97.4 6 81.8 6 1.1 6 9.9 6-7.2 6-.7 6 3.4 6-5.1 6 6.8 6 8.4 6-64.5 6 57 6-12.4 6 6.1 6-4.6 6 6.9 6 .3 6 3.7 6-6.1 6-25.2 6-45.2 6 83.8 6-25.9 6 27.1 6-18.2 6-111.9 6 88.7 6.1 40.3 6-16.6 6-2.5 6 2.5 6-5.6 6 1.4 6 4.2 6-4.9 6 9.1 6 5.6 6 3.6 6-109.7 6 76.3 6 23.6 6 7.7 6-15.2 6-2" fill="none" color="#000"/></g><g><path stroke="#000" d="M20.7 659.6l6 78.3 6-78.3 6 78.3 6-82.9 6 69.1h6l6-64.5h24l6 64.5 6 4.6h12l6-69.1h30.1l6 64.5 6 4.6 6-69.1 6 78.3 6-78.3h18l6 64.5h12l6 4.6 6-69.1 6 64.5 6-64.5 6 64.5 6-64.5h6l6 69.1 6-69.1 6 78.3h6l6-9.2h6l6-69.1 6 69.1h12l6.1-138.2 6 69.1 6 64.5 6-64.5h6l6 69.1 6-69.1 6 64.5 6-64.5h6l6 69.1 6-69.1h6l6 64.5 6 13.8 6-78.3 6 64.5 6-133.6 6 138.2 6-69.1 6 69.1 6 9.2 6-147.4 6 138.2h6l6-69.1h6l6 69.1 6 9.2 6-9.2 6-69.1 6-69.1 6 138.2h6.1l6-73.7 6 4.6 6 78.3 6-78.3h6l6 78.3h6l6-9.2h18l6 9.2 6-13.8 6-64.5h6l6 64.5" fill="none" color="#000"/></g><g><path stroke="#9400D3" d="M20.7 619.5l6-.6 6 .8 6-81.5 6 81h18l6-81 6 .7 6-1.3 6 .3 6-.5 6 .8 6 81.3 6-80.3 6-1 6.1-1.1 6 2.6 6-2.3 6 1.5 6 79.8 6 .5 6 .5 6-.5 6-.3 6 .6 6-81.3 6-1.1 6 2.1 6 80.3 6-82.1 6 81.8 6 .5 6-81.8 6 81.3 6 .3 6-.6 6-81 6 .3 6 .5 6 81 6-81.8 6 81.8h6l6-.2 6-82.1 6 82.3 6-80.8 6 80.3 6.1-81.3h6l6-.3 6 1.1 6 80 6 1 6-.8 6-81.3 6 .6 6-.6 6 82.1 6-82.3 6-.6h6l6 2.4 6-1 6 80.7 6-81.5 6 1 6 81.1 6 .2 6 .3 6-.5 6-81.1 6 80.8 6-80.3 6 80 6-81 6 81.6 6-81.3 6 81.3 6-81.1 6-.2 6.1 81.5 6-.8 6-80 6-.5 6-.2 6 .2 6 81.1 6-81.6 6 81.8 6-81.3 6-.2 6 .5 6-.5 6 81 6-81 6 .2 6 80.8" fill="none" color="#000"/></g><g><path stroke="#009E73" d="M20.7 203.6l6 266.6 6 5.5 6-36.8 6 31.3h6l6 8.8 6-3.3 6-8.8h6l6 8.8 6-8.8 6 3.3h6l6 33.5 6-82.9 6 54.9 6.1-8.8 6 8.8h12l6-272.1 6 266.6 6 8.8 6-3.3 6-22.6 6 22.6h12l6-36.8 6 31.3 6-49.4 6 49.4 6 33.5 6-36.8 6 12.1 6-3.3 6 28 6-33.5 6 5.5 6-5.5 6 5.5 6 3.3 6-58.2 6 82.9 6-33.5 6 5.5 6 28 6-64.8 6 64.8 6.1-28h6l6-54.9 6 46.1 6 8.8 6 28 6-300.1 6 217.2 6 46.1 6 8.8 6 3.3 6-12.1h6l6-46.1h6l6 46.1 6 36.8 6-28 6-54.9 6 54.9 6-5.5h6l6 5.5 6-54.9 6 58.2 6-3.3 6-272.1 6 235.3 6 31.3h6l6 5.5h6l6-36.8 6.1 31.3h6l6-3.3 6 3.3 6 5.5 6-36.8 6 64.8 6-82.9 6 58.2 6-58.2 6 49.4h6l6-49.4 6 49.4 6 5.5 6-8.8 6 3.3" fill="none" color="#000"/></g><g><path stroke="#56B4E9" d="M20.7 264.9l6 106 6-26.9 6-80.3 6 80.2 6 6.7 6 21.7 6-32.7 6 9.2 6-10.9 6 6.2 6-2.2 6-37.5 6 43.9 6 7.1 6 3.1 6-49.4 6.1.7 6 30.4 6 17.4 6-39.3 6 27 6 25 6 8.8 6-43.5 6-24 6 45.5 6-11.4 6-31.2 6-28.5 6 62.9 6-4.1 6 27 6-24.3 6 11.1 6-39.6 6-11.6 6 36.1 6 13.8 6-61.4 6 93.6 6-42.5 6-39.9 6 49.3 6-30.7 6 8.2 6-32.1 6 48.4 6-13.9 6 42.8 6.1-50.1 6-16.7 6 6.6 6 25.7 6-7.6 6 31.2 6-3.4 6-55.4 6 7.7 6 40.3 6-104.5 6 53.4 6 31.1 6 3.5 6-20.1 6 10.1 6-28.7 6 60.9 6-39.8 6 52.8 6-31.2 6 5.9 6-20.9 6 12.4 6 35.7 6-54.8 6 42.1 6-51.3 6 60.8 6-51.2 6 10.3 6 51.7 6-60.5 6.1 2.9 6-8.3 6 40.5 6-59.5 6 21.9 6 13.5 6 22 6-34.5 6 42.5 6 .4 6-2 6 28.5 6-9.6 6-81 6 7.1 6 48.2 6-61.5" fill="none" color="#000"/></g><g><path stroke="#E69F00" d="M20.7 261.4l6-.7 6 .7 6-81.2 6 80.5h6l6 .3h6l6-80.4 6 .7 6-1.4 6 .3 6-.3 6 .7 6 80.8 6-53.1 6-1.4 6.1-28.1 6 3.6 6-2.9 6 1.8 6 78.7 6 1 6 .4 6-.4 6-.3 6 .7 6-80.4 6 24.5 6-23.5 6 79 6-81.5 6 81.2 6 .3 6-81.1 6 81.1 6 .7 6-1 6-80.1h6l6 .4 6 80.7 6-81.5 6 80.8 6 1.1 6-.7 6-55.5 6 55.8 6-80 6 79.7 6.1-81.2h6l6-.3 6 1.4 6 79 6 1.8 6-1.4 6-54.5 6-26h6l6 81.2 6-81.5 6-1.1h6l6 3.2 6 25.3 6 53 6-80.8 6 1.1 6 81.1h6l6 .4 6-.7 6-80.8 6 80.4 6-79.3 6 79 6-80.5 6 81.2 6-81.2 6 80.5 6-53.8 6-26.7 6.1 81.9 6-1.8 6-78.6 6 25.2h6l6-26.3 6 80.8 6-81.5 6 81.8 6-81.1 6 .4 6 26.3 6-26.7 6 80.1 6-80.1 6-.4 6 80.5" fill="none" color="#000"/></g><g><path stroke="#F0E442" d="M20.7 158l6-68.2 6-2.4 6 39.6 6-37.2 6 .2 6-9.6 6 6.7 6 21.1h6l6-8.6 6 8.7 6-6.5h6l6-47.2 6 78.5 6-37 6.1 12.8 6-10 6 .8 6-.3 6 59.2 6-68.8 6-9.4 6 7.1 6 17.5 6-17.5 6 11.3 6-2.5 6 30.5 6-36.9 6 47.2 6-47.2 6-35.3 6 53.7 6-27.9 6 6.7 6-31.9 6 46.5 6-2.6 6 2.7 6-14.6 6 5.3 6 32.8 6-70.8 6 35.1 6 6.1 6-41.5 6 72.7 6-72 6.1 44.5 6 .1 6 38.3 6-29.8 6-20.2 6-33.3 6 103.6 6-24.5 6-25.2 6-9.2 6-18.6 6 27.9 6 .4 6 28.8 6-1.2 6-31.8 6-49.7 6 44.7 6 37.1 6-49.7 6 2.5 6-.3 6-2.1 6 50.2 6-57 6 18.5 6 59.5 6-31.1 6-37.1 6 11.4 6-14 6 8.5 6 31.1 6.1-37.5 6 .3 6 18 6-10 6-2.2 6 31.4 6-72 6 81.9 6-56.8 6 56.7 6-35.6 6-3.3 6 38.9 6-47.3 6 9.2 6 9.6 6-18.7" fill="none" color="#000"/></g><g fill="none" color="#000" stroke="currentColor"><path stroke="#000" d="M20.7 18.1v4405.3H615V18.1H20.7z"/><text transform="translate(34.9 4308.9)" stroke="none" fill="#000" font-family="Arial" font-size="12"><tspan>total-blocking-time, p90stdev=0, score:p90stdev=0, range=[0:0]</tspan></text><text transform="translate(34.9 4190.5)" stroke="none" fill="#000" font-family="Arial" font-size="12"><tspan>server-response-time, p90stdev=0.263, score:p90stdev=0, range=[1.274:2.838]</tspan></text><text transform="translate(34.9 4072)" stroke="none" fill="#000" font-family="Arial" font-size="12"><tspan>redirects, p90stdev=0, score:p90stdev=0, range=[0:0]</tspan></text><text transform="translate(34.9 3953.6)" stroke="none" fill="#000" font-family="Arial" font-size="12"><tspan>uses-rel-preconnect, p90stdev=0, score:p90stdev=0, range=[0:0]</tspan></text><text transform="translate(34.9 3835.2)" stroke="none" fill="#000" font-family="Arial" font-size="12"><tspan>offscreen-images, p90stdev=0, score:p90stdev=0, range=[0:0]</tspan></text><text transform="translate(34.9 3716.8)" stroke="none" fill="#000" font-family="Arial" font-size="12"><tspan>unminified-css, p90stdev=0, score:p90stdev=0, range=[0:0]</tspan></text><text transform="translate(34.9 3598.3)" stroke="none" fill="#000" font-family="Arial" font-size="12"><tspan>unminified-javascript, p90stdev=0, score:p90stdev=0, range=[0:0]</tspan></text><text transform="translate(34.9 3479.9)" stroke="none" fill="#000" font-family="Arial" font-size="12"><tspan>unused-css-rules, p90stdev=0, score:p90stdev=0, range=[300:300]</tspan></text><text transform="translate(34.9 3361.5)" stroke="none" fill="#000" font-family="Arial" font-size="12"><tspan>unused-javascript, p90stdev=0, score:p90stdev=0, range=[0:0]</tspan></text><text transform="translate(34.9 3243.1)" stroke="none" fill="#000" font-family="Arial" font-size="12"><tspan>uses-webp-images, p90stdev=72.488, score:p90stdev=0, range=[27450:27600]</tspan></text><text transform="translate(34.9 3124.7)" stroke="none" fill="#000" font-family="Arial" font-size="12"><tspan>uses-optimized-images, p90stdev=0, score:p90stdev=0, range=[0:0]</tspan></text><text transform="translate(34.9 3006.2)" stroke="none" fill="#000" font-family="Arial" font-size="12"><tspan>uses-responsive-images, p90stdev=0, score:p90stdev=0, range=[0:0]</tspan></text><text transform="translate(34.9 2887.8)" stroke="none" fill="#000" font-family="Arial" font-size="12"><tspan>efficient-animated-content, p90stdev=0, score:p90stdev=0, range=[0:0]</tspan></text><text transform="translate(34.9 2769.4)" stroke="none" fill="#000" font-family="Arial" font-size="12"><tspan>duplicated-javascript, p90stdev=0, score:p90stdev=0, range=[0:0]</tspan></text><text transform="translate(34.9 2651)" stroke="none" fill="#000" font-family="Arial" font-size="12"><tspan>legacy-javascript, p90stdev=0, score:p90stdev=0, range=[0:0]</tspan></text><text transform="translate(34.9 2532.5)" stroke="none" fill="#000" font-family="Arial" font-size="12"><tspan>estimated-input-latency, p90stdev=0, score:p90stdev=0, range=[12.8:12.8]</tspan></text><text transform="translate(34.9 2414.1)" stroke="none" fill="#000" font-family="Arial" font-size="12"><tspan>uses-long-cache-ttl, p90stdev=0, score:p90stdev=0, range=[1098:1098]</tspan></text><text transform="translate(34.9 2295.7)" stroke="none" fill="#000" font-family="Arial" font-size="12"><tspan>uses-text-compression, p90stdev=0, score:p90stdev=0, range=[450:450]</tspan></text><text transform="translate(34.9 2177.3)" stroke="none" fill="#000" font-family="Arial" font-size="12"><tspan>dom-size, p90stdev=0, score:p90stdev=0, range=[172:172]</tspan></text><text transform="translate(34.9 2058.9)" stroke="none" fill="#000" font-family="Arial" font-size="12"><tspan>bootup-time, p90stdev=0.607, score:p90stdev=0, range=[41.996:47.236]</tspan></text><text transform="translate(34.9 1940.4)" stroke="none" fill="#000" font-family="Arial" font-size="12"><tspan>total-byte-weight, p90stdev=7.341, score:p90stdev=0, range=[6777187:6777237]</tspan></text><text transform="translate(34.9 1822)" stroke="none" fill="#000" font-family="Arial" font-size="12"><tspan>max-potential-fid, p90stdev=1.365, score:p90stdev=0, range=[26:36]</tspan></text><text transform="translate(34.9 1703.6)" stroke="none" fill="#000" font-family="Arial" font-size="12"><tspan>mainthread-work-breakdown, p90stdev=16.128, score:p90stdev=0, range=[770.008:885.884]</tspan></text><text transform="translate(34.9 1585.2)" stroke="none" fill="#000" font-family="Arial" font-size="12"><tspan>uses-rel-preload, p90stdev=0.414, score:p90stdev=0, range=[454:606]</tspan></text><text transform="translate(34.9 1466.7)" stroke="none" fill="#000" font-family="Arial" font-size="12"><tspan>interactive, p90stdev=107.806, score:p90stdev=0.002, range=[1816.829:2054.368]</tspan></text><text transform="translate(34.9 1348.3)" stroke="none" fill="#000" font-family="Arial" font-size="12"><tspan>first-cpu-idle, p90stdev=107.806, score:p90stdev=0.002, range=[1816.829:2054.368]</tspan></text><text transform="translate(34.9 1229.9)" stroke="none" fill="#000" font-family="Arial" font-size="12"><tspan>largest-contentful-paint, p90stdev=393.17, score:p90stdev=0.003, range=[8916.469:9853.073]</tspan></text><text transform="translate(34.9 1111.5)" stroke="none" fill="#000" font-family="Arial" font-size="12"><tspan>speed-index, p90stdev=53.42, score:p90stdev=0.003, range=[2535.891:2708.715]</tspan></text><text transform="translate(34.9 993.1)" stroke="none" fill="#000" font-family="Arial" font-size="12"><tspan>first-contentful-paint, p90stdev=107.806, score:p90stdev=0.012, range=[1816.829:2054.368]</tspan></text><text transform="translate(34.9 874.6)" stroke="none" fill="#000" font-family="Arial" font-size="12"><tspan>first-meaningful-paint, p90stdev=107.806, score:p90stdev=0.012, range=[1816.829:2054.368]</tspan></text><text transform="translate(34.9 756.2)" stroke="none" fill="#000" font-family="Arial" font-size="12"><tspan>network-rtt, p90stdev=0.013, score:p90stdev=0.013, range=[0.039:0.285]</tspan></text><text transform="translate(34.9 637.8)" stroke="none" fill="#000" font-family="Arial" font-size="12"><tspan>uses-http2, p90stdev=75.408, score:p90stdev=0.063, range=[0:320]</tspan></text><text transform="translate(34.9 519.4)" stroke="none" fill="#000" font-family="Arial" font-size="12"><tspan>render-blocking-resources, p90stdev=151.269, score:p90stdev=0.103, range=[158:475]</tspan></text><text transform="translate(34.9 401)" stroke="none" fill="#000" font-family="Arial" font-size="12"><tspan>cumulative-layout-shift, p90stdev=0.071, score:p90stdev=0.149, range=[0.094:1.129]</tspan></text><text transform="translate(34.9 282.5)" stroke="none" fill="#000" font-family="Arial" font-size="12"><tspan>network-server-latency, p90stdev=0.479, score:p90stdev=0.479, range=[4.632:7.689]</tspan></text><text transform="translate(34.9 164.1)" stroke="none" fill="#000" font-family="Arial" font-size="12"><tspan>metrics, p90stdev=107.775, score:p90stdev=107.775, range=[1817:2054]</tspan></text><text transform="translate(34.9 45.7)" stroke="none" fill="#000" font-family="Arial" font-size="12"><tspan>score, p90stdev=0.009, score:p90stdev=0.009, range=[0.694:0.74]</tspan></text></g></svg>