<svg width="640" height="520" xmlns="http://www.w3.org/2000/svg" xmlns:xlink="http://www.w3.org/1999/xlink"><path fill="#fff" d="M0 0h640v520H0z"/><defs><path id="g" stroke-width=".222" stroke="currentColor" d="M-1 0h2M0-1v2"/><path id="h" stroke-width=".222" stroke="currentColor" d="M-1-1l2 2m0-2l-2 2"/><path id="i" stroke-width=".222" stroke="currentColor" d="M-1 0h2M0-1v2m-1-2l2 2m-2 0l2-2"/><path id="d" stroke-width=".222" stroke="currentColor" d="M-1-1h2v2h-2z"/><path id="b" stroke-width=".222" stroke="currentColor" d="M0-1.33l-1.33 2h2.66z"/><path id="f" stroke-width=".222" stroke="currentColor" d="M0 1.33L1.265.411.782-1.067l-1.564-.009-.483 1.487z"/><use xlink:href="#b" id="c" stroke="currentColor" transform="rotate(180)"/><use xlink:href="#d" id="e" stroke="currentColor" transform="rotate(45)"/><circle id="a" stroke-width=".222" stroke="currentColor" cx="0" cy="0" r="1"/></defs><g fill="none" color="#000" stroke="currentColor"><path stroke="#000" d="M53.9 402.2h9m552.1 0h-9"/><text transform="translate(45.6 406.1)" stroke="none" fill="#000" font-family="Arial" font-size="12" text-anchor="end"><tspan>0.2</tspan></text></g><g fill="none" color="#000" stroke="currentColor"><path stroke="#000" d="M53.9 355.2h9m552.1 0h-9"/><text transform="translate(45.6 359.1)" stroke="none" fill="#000" font-family="Arial" font-size="12" text-anchor="end"><tspan>0.3</tspan></text></g><g fill="none" color="#000" stroke="currentColor"><path stroke="#000" d="M53.9 308.2h9m552.1 0h-9"/><text transform="translate(45.6 312.1)" stroke="none" fill="#000" font-family="Arial" font-size="12" text-anchor="end"><tspan>0.4</tspan></text></g><g fill="none" color="#000" stroke="currentColor"><path stroke="#000" d="M53.9 261.3h9m552.1 0h-9"/><text transform="translate(45.6 265.2)" stroke="none" fill="#000" font-family="Arial" font-size="12" text-anchor="end"><tspan>0.5</tspan></text></g><g fill="none" color="#000" stroke="currentColor"><path stroke="#000" d="M53.9 214.3h9m552.1 0h-9"/><text transform="translate(45.6 218.2)" stroke="none" fill="#000" font-family="Arial" font-size="12" text-anchor="end"><tspan>0.6</tspan></text></g><g fill="none" color="#000" stroke="currentColor"><path stroke="#000" d="M53.9 167.3h9m552.1 0h-9"/><text transform="translate(45.6 171.2)" stroke="none" fill="#000" font-family="Arial" font-size="12" text-anchor="end"><tspan>0.7</tspan></text></g><g fill="none" color="#000" stroke="currentColor"><path stroke="#000" d="M53.9 120.3h9m552.1 0h-9"/><text transform="translate(45.6 124.2)" stroke="none" fill="#000" font-family="Arial" font-size="12" text-anchor="end"><tspan>0.8</tspan></text></g><g fill="none" color="#000" stroke="currentColor"><path stroke="#000" d="M53.9 73.3h9m552.1 0h-9"/><text transform="translate(45.6 77.2)" stroke="none" fill="#000" font-family="Arial" font-size="12" text-anchor="end"><tspan>0.9</tspan></text></g><g fill="none" color="#000" stroke="currentColor"><path stroke="#000" d="M53.9 26.4h9m552.1 0h-9"/><text transform="translate(45.6 30.3)" stroke="none" fill="#000" font-family="Arial" font-size="12" text-anchor="end"><tspan>1</tspan></text></g><g fill="none" color="#000" stroke="currentColor"><path stroke="#000" d="M53.9 448v-9m0-420.9v9"/><text transform="translate(53.9 469.9)" stroke="none" fill="#000" font-family="Arial" font-size="12" text-anchor="middle"><tspan>0</tspan></text></g><g fill="none" color="#000" stroke="currentColor"><path stroke="#000" d="M140.2 448v-9m0-420.9v9"/><text transform="translate(140.2 469.9)" stroke="none" fill="#000" font-family="Arial" font-size="12" text-anchor="middle"><tspan>2</tspan></text></g><g fill="none" color="#000" stroke="currentColor"><path stroke="#000" d="M226.5 448v-9m0-420.9v9"/><text transform="translate(226.5 469.9)" stroke="none" fill="#000" font-family="Arial" font-size="12" text-anchor="middle"><tspan>4</tspan></text></g><g fill="none" color="#000" stroke="currentColor"><path stroke="#000" d="M312.9 448v-9m0-420.9v9"/><text transform="translate(312.9 469.9)" stroke="none" fill="#000" font-family="Arial" font-size="12" text-anchor="middle"><tspan>6</tspan></text></g><g fill="none" color="#000" stroke="currentColor"><path stroke="#000" d="M399.2 448v-9m0-420.9v9"/><text transform="translate(399.2 469.9)" stroke="none" fill="#000" font-family="Arial" font-size="12" text-anchor="middle"><tspan>8</tspan></text></g><g fill="none" color="#000" stroke="currentColor"><path stroke="#000" d="M485.5 448v-9m0-420.9v9"/><text transform="translate(485.5 469.9)" stroke="none" fill="#000" font-family="Arial" font-size="12" text-anchor="middle"><tspan>10</tspan></text></g><g fill="none" color="#000" stroke="currentColor"><path stroke="#000" d="M571.8 448v-9m0-420.9v9"/><text transform="translate(571.8 469.9)" stroke="none" fill="#000" font-family="Arial" font-size="12" text-anchor="middle"><tspan>12</tspan></text></g><path stroke="#000" d="M53.9 18.1V448H615V18.1H53.9z" fill="none" color="#000"/><text transform="translate(275.6 487.9)" stroke="none" fill="#000" font-family="Arial" font-size="12" text-anchor="end" color="#000"><tspan>score:p90min</tspan></text><g fill="none" color="#000" stroke="currentColor"><path stroke="#9400D3" d="M283.9 484h42.2M53.9 26.4l43.2 413.3 43.1-63.9h43.2l43.1-53 43.2 42.1 43.2-136.1 43.1 73.5 43.2 62.6 43.2-108.5 43.1-230 43.2 297.4 43.1-85.1L615 26.4"/><use xlink:href="#g" transform="matrix(4.5 0 0 4.5 53.9 26.4)" color="#9400D3"/><use xlink:href="#g" transform="matrix(4.5 0 0 4.5 97.1 439.7)" color="#9400D3"/><use xlink:href="#g" transform="matrix(4.5 0 0 4.5 140.2 375.8)" color="#9400D3"/><use xlink:href="#g" transform="matrix(4.5 0 0 4.5 183.4 375.8)" color="#9400D3"/><use xlink:href="#g" transform="matrix(4.5 0 0 4.5 226.5 322.8)" color="#9400D3"/><use xlink:href="#g" transform="matrix(4.5 0 0 4.5 269.7 364.9)" color="#9400D3"/><use xlink:href="#g" transform="matrix(4.5 0 0 4.5 312.9 228.8)" color="#9400D3"/><use xlink:href="#g" transform="matrix(4.5 0 0 4.5 356 302.3)" color="#9400D3"/><use xlink:href="#g" transform="matrix(4.5 0 0 4.5 399.2 364.9)" color="#9400D3"/><use xlink:href="#g" transform="matrix(4.5 0 0 4.5 442.4 256.4)" color="#9400D3"/><use xlink:href="#g" transform="matrix(4.5 0 0 4.5 485.5 26.4)" color="#9400D3"/><use xlink:href="#g" transform="matrix(4.5 0 0 4.5 528.7 323.8)" color="#9400D3"/><use xlink:href="#g" transform="matrix(4.5 0 0 4.5 571.8 238.7)" color="#9400D3"/><use xlink:href="#g" transform="matrix(4.5 0 0 4.5 615 26.4)" color="#9400D3"/><use xlink:href="#g" transform="matrix(4.5 0 0 4.5 305 484)" color="#9400D3"/></g><text transform="translate(275.6 505.9)" stroke="none" fill="#000" font-family="Arial" font-size="12" text-anchor="end" color="#000"><tspan>score:p90mean</tspan></text><g fill="none" color="#000" stroke="currentColor"><path stroke="#009E73" d="M283.9 502h42.2M53.9 26.4l43.2 357.5 43.1-90 43.2-14.5 43.1-77.1 43.2 25.9 43.2-89.7 43.1 45.6 43.2 13.2 43.2 59.1 43.1-230 43.2 169.2 43.1 42.4L615 26.4"/><use xlink:href="#h" transform="matrix(4.5 0 0 4.5 53.9 26.4)" color="#009E73"/><use xlink:href="#h" transform="matrix(4.5 0 0 4.5 97.1 383.9)" color="#009E73"/><use xlink:href="#h" transform="matrix(4.5 0 0 4.5 140.2 293.9)" color="#009E73"/><use xlink:href="#h" transform="matrix(4.5 0 0 4.5 183.4 279.4)" color="#009E73"/><use xlink:href="#h" transform="matrix(4.5 0 0 4.5 226.5 202.3)" color="#009E73"/><use xlink:href="#h" transform="matrix(4.5 0 0 4.5 269.7 228.2)" color="#009E73"/><use xlink:href="#h" transform="matrix(4.5 0 0 4.5 312.9 138.5)" color="#009E73"/><use xlink:href="#h" transform="matrix(4.5 0 0 4.5 356 184.1)" color="#009E73"/><use xlink:href="#h" transform="matrix(4.5 0 0 4.5 399.2 197.3)" color="#009E73"/><use xlink:href="#h" transform="matrix(4.5 0 0 4.5 442.4 256.4)" color="#009E73"/><use xlink:href="#h" transform="matrix(4.5 0 0 4.5 485.5 26.4)" color="#009E73"/><use xlink:href="#h" transform="matrix(4.5 0 0 4.5 528.7 195.6)" color="#009E73"/><use xlink:href="#h" transform="matrix(4.5 0 0 4.5 571.8 238)" color="#009E73"/><use xlink:href="#h" transform="matrix(4.5 0 0 4.5 615 26.4)" color="#009E73"/><use xlink:href="#h" transform="matrix(4.5 0 0 4.5 305 502)" color="#009E73"/></g><text transform="translate(458.9 487.9)" stroke="none" fill="#000" font-family="Arial" font-size="12" text-anchor="end" color="#000"><tspan>score:p90median</tspan></text><g fill="none" color="#000" stroke="currentColor"><path stroke="#56B4E9" d="M467.2 484h42.2M53.9 26.4l43.2 413.3 43.1-183.5h43.2l43.1-64.4 43.2 23.5 43.2-38.2 43.1 33.1 43.2-18.4 43.2 64.6 43.1-230 43.2 173.1 43.1 38.3L615 26.4"/><use xlink:href="#i" transform="matrix(4.5 0 0 4.5 53.9 26.4)" color="#56B4E9"/><use xlink:href="#i" transform="matrix(4.5 0 0 4.5 97.1 439.7)" color="#56B4E9"/><use xlink:href="#i" transform="matrix(4.5 0 0 4.5 140.2 256.2)" color="#56B4E9"/><use xlink:href="#i" transform="matrix(4.5 0 0 4.5 183.4 256.2)" color="#56B4E9"/><use xlink:href="#i" transform="matrix(4.5 0 0 4.5 226.5 191.8)" color="#56B4E9"/><use xlink:href="#i" transform="matrix(4.5 0 0 4.5 269.7 215.3)" color="#56B4E9"/><use xlink:href="#i" transform="matrix(4.5 0 0 4.5 312.9 177.1)" color="#56B4E9"/><use xlink:href="#i" transform="matrix(4.5 0 0 4.5 356 210.2)" color="#56B4E9"/><use xlink:href="#i" transform="matrix(4.5 0 0 4.5 399.2 191.8)" color="#56B4E9"/><use xlink:href="#i" transform="matrix(4.5 0 0 4.5 442.4 256.4)" color="#56B4E9"/><use xlink:href="#i" transform="matrix(4.5 0 0 4.5 485.5 26.4)" color="#56B4E9"/><use xlink:href="#i" transform="matrix(4.5 0 0 4.5 528.7 199.5)" color="#56B4E9"/><use xlink:href="#i" transform="matrix(4.5 0 0 4.5 571.8 237.8)" color="#56B4E9"/><use xlink:href="#i" transform="matrix(4.5 0 0 4.5 615 26.4)" color="#56B4E9"/><use xlink:href="#i" transform="matrix(4.5 0 0 4.5 488.3 484)" color="#56B4E9"/></g><g><text transform="translate(458.9 505.9)" stroke="none" fill="#000" font-family="Arial" font-size="12" text-anchor="end" color="#000"><tspan>score:p90max</tspan></text><g fill="none" color="#000" stroke="currentColor"><path stroke="#E69F00" d="M467.2 502h42.2M53.9 26.4l43.2 202.5 43.1-37.1h43.2l43.1-125.3h43.2l43.2-27 43.1 3.8 43.2 23.2 43.2 189.9 43.1-230 43.2 2.2 43.1 209.2L615 26.4"/><use xlink:href="#d" transform="matrix(4.5 0 0 4.5 53.9 26.4)" color="#E69F00"/><use xlink:href="#d" transform="matrix(4.5 0 0 4.5 97.1 228.9)" color="#E69F00"/><use xlink:href="#d" transform="matrix(4.5 0 0 4.5 140.2 191.8)" color="#E69F00"/><use xlink:href="#d" transform="matrix(4.5 0 0 4.5 183.4 191.8)" color="#E69F00"/><use xlink:href="#d" transform="matrix(4.5 0 0 4.5 226.5 66.5)" color="#E69F00"/><use xlink:href="#d" transform="matrix(4.5 0 0 4.5 269.7 66.5)" color="#E69F00"/><use xlink:href="#d" transform="matrix(4.5 0 0 4.5 312.9 39.5)" color="#E69F00"/><use xlink:href="#d" transform="matrix(4.5 0 0 4.5 356 43.3)" color="#E69F00"/><use xlink:href="#d" transform="matrix(4.5 0 0 4.5 399.2 66.5)" color="#E69F00"/><use xlink:href="#d" transform="matrix(4.5 0 0 4.5 442.4 256.4)" color="#E69F00"/><use xlink:href="#d" transform="matrix(4.5 0 0 4.5 485.5 26.4)" color="#E69F00"/><use xlink:href="#d" transform="matrix(4.5 0 0 4.5 528.7 28.6)" color="#E69F00"/><use xlink:href="#d" transform="matrix(4.5 0 0 4.5 571.8 237.8)" color="#E69F00"/><use xlink:href="#d" transform="matrix(4.5 0 0 4.5 615 26.4)" color="#E69F00"/><use xlink:href="#d" transform="matrix(4.5 0 0 4.5 488.3 502)" color="#E69F00"/></g></g><g fill="none" color="#000" stroke="currentColor"><path stroke="#000" d="M53.9 18.1V448H615V18.1H53.9z"/></g></svg>