<svg width="640" height="620" xmlns="http://www.w3.org/2000/svg" xmlns:xlink="http://www.w3.org/1999/xlink"><path fill="#fff" d="M0 0h640v620H0z"/><defs><path id="d" stroke-width=".222" stroke="currentColor" d="M-1-1h2v2h-2z"/><path id="b" stroke-width=".222" stroke="currentColor" d="M0-1.33l-1.33 2h2.66z"/><path id="f" stroke-width=".222" stroke="currentColor" d="M0 1.33L1.265.411.782-1.067l-1.564-.009-.483 1.487z"/><use xlink:href="#b" id="c" stroke="currentColor" transform="rotate(180)"/><use xlink:href="#d" id="e" stroke="currentColor" transform="rotate(45)"/><circle id="a" stroke-width=".222" stroke="currentColor" cx="0" cy="0" r="1"/></defs><g fill="none" color="#000" stroke="currentColor"><path stroke="#000" d="M53.9 290.7h9m552.1 0h-9"/><text transform="translate(45.6 294.6)" stroke="none" fill="#000" font-family="Arial" font-size="12" text-anchor="end"><tspan>0</tspan></text></g><g fill="none" color="#000" stroke="currentColor"><path stroke="#000" d="M53.9 256.7h9m552.1 0h-9"/><text transform="translate(45.6 260.6)" stroke="none" fill="#000" font-family="Arial" font-size="12" text-anchor="end"><tspan>50</tspan></text></g><g fill="none" color="#000" stroke="currentColor"><path stroke="#000" d="M53.9 222.8h9m552.1 0h-9"/><text transform="translate(45.6 226.7)" stroke="none" fill="#000" font-family="Arial" font-size="12" text-anchor="end"><tspan>100</tspan></text></g><g fill="none" color="#000" stroke="currentColor"><path stroke="#000" d="M53.9 188.9h9m552.1 0h-9"/><text transform="translate(45.6 192.8)" stroke="none" fill="#000" font-family="Arial" font-size="12" text-anchor="end"><tspan>150</tspan></text></g><g fill="none" color="#000" stroke="currentColor"><path stroke="#000" d="M53.9 155h9m552.1 0h-9"/><text transform="translate(45.6 158.9)" stroke="none" fill="#000" font-family="Arial" font-size="12" text-anchor="end"><tspan>200</tspan></text></g><g fill="none" color="#000" stroke="currentColor"><path stroke="#000" d="M53.9 121.1h9m552.1 0h-9"/><text transform="translate(45.6 125)" stroke="none" fill="#000" font-family="Arial" font-size="12" text-anchor="end"><tspan>250</tspan></text></g><g fill="none" color="#000" stroke="currentColor"><path stroke="#000" d="M53.9 87.2h9m552.1 0h-9"/><text transform="translate(45.6 91.1)" stroke="none" fill="#000" font-family="Arial" font-size="12" text-anchor="end"><tspan>300</tspan></text></g><g fill="none" color="#000" stroke="currentColor"><path stroke="#000" d="M53.9 53.3h9m552.1 0h-9"/><text transform="translate(45.6 57.2)" stroke="none" fill="#000" font-family="Arial" font-size="12" text-anchor="end"><tspan>350</tspan></text></g><g fill="none" color="#000" stroke="currentColor"><path stroke="#000" d="M53.9 19.4h9m552.1 0h-9"/><text transform="translate(45.6 23.3)" stroke="none" fill="#000" font-family="Arial" font-size="12" text-anchor="end"><tspan>400</tspan></text></g><g fill="none" color="#000" stroke="currentColor"><path stroke="#000" d="M53.9 296v-9m0-268.9v9"/><text transform="translate(53.9 317.9)" stroke="none" fill="#000" font-family="Arial" font-size="12" text-anchor="middle"><tspan>0</tspan></text></g><g fill="none" color="#000" stroke="currentColor"><path stroke="#000" d="M110.6 296v-9m0-268.9v9"/><text transform="translate(110.6 317.9)" stroke="none" fill="#000" font-family="Arial" font-size="12" text-anchor="middle"><tspan>10</tspan></text></g><g fill="none" color="#000" stroke="currentColor"><path stroke="#000" d="M167.3 296v-9m0-268.9v9"/><text transform="translate(167.3 317.9)" stroke="none" fill="#000" font-family="Arial" font-size="12" text-anchor="middle"><tspan>20</tspan></text></g><g fill="none" color="#000" stroke="currentColor"><path stroke="#000" d="M223.9 296v-9m0-268.9v9"/><text transform="translate(223.9 317.9)" stroke="none" fill="#000" font-family="Arial" font-size="12" text-anchor="middle"><tspan>30</tspan></text></g><g fill="none" color="#000" stroke="currentColor"><path stroke="#000" d="M280.6 296v-9m0-268.9v9"/><text transform="translate(280.6 317.9)" stroke="none" fill="#000" font-family="Arial" font-size="12" text-anchor="middle"><tspan>40</tspan></text></g><g fill="none" color="#000" stroke="currentColor"><path stroke="#000" d="M337.3 296v-9m0-268.9v9"/><text transform="translate(337.3 317.9)" stroke="none" fill="#000" font-family="Arial" font-size="12" text-anchor="middle"><tspan>50</tspan></text></g><g fill="none" color="#000" stroke="currentColor"><path stroke="#000" d="M394 296v-9m0-268.9v9"/><text transform="translate(394 317.9)" stroke="none" fill="#000" font-family="Arial" font-size="12" text-anchor="middle"><tspan>60</tspan></text></g><g fill="none" color="#000" stroke="currentColor"><path stroke="#000" d="M450.6 296v-9m0-268.9v9"/><text transform="translate(450.6 317.9)" stroke="none" fill="#000" font-family="Arial" font-size="12" text-anchor="middle"><tspan>70</tspan></text></g><g fill="none" color="#000" stroke="currentColor"><path stroke="#000" d="M507.3 296v-9m0-268.9v9"/><text transform="translate(507.3 317.9)" stroke="none" fill="#000" font-family="Arial" font-size="12" text-anchor="middle"><tspan>80</tspan></text></g><g fill="none" color="#000" stroke="currentColor"><path stroke="#000" d="M564 296v-9m0-268.9v9"/><text transform="translate(564 317.9)" stroke="none" fill="#000" font-family="Arial" font-size="12" text-anchor="middle"><tspan>90</tspan></text></g><path stroke="#000" d="M53.9 18.1V296H615V18.1H53.9z" fill="none" color="#000"/><text transform="translate(529.1 335.9)" stroke="none" fill="#000" font-family="Arial" font-size="12" text-anchor="end" color="#000"><tspan>empty</tspan></text><path stroke="#9400D3" d="M537.4 332h42.2M53.9 290.7H615" fill="none" color="#000"/><text transform="translate(529.1 353.9)" stroke="none" fill="#000" font-family="Arial" font-size="12" text-anchor="end" color="#000"><tspan>pages</tspan></text><path stroke="#009E73" d="M537.4 350h42.2M53.9 169.9l5.7-11.8 5.6-10.2 5.7-41.9 5.7-2.5h5.6l5.7-2.7h5.7l5.6-.7 5.7-.7h11.3l5.7-.7h5.7l5.6-1.3h5.7l5.7-.7h11.3l5.7-.7h11.3l5.7-.7h22.7l5.6-.6h5.7l5.7-.7h34l5.6-.7h17l5.7-.7h17l5.7-.7h17l5.6-.6h11.4l5.7-.7h22.6l5.7-.7h11.3l5.7-.7H411l5.6-.6h5.7l5.7-.7h34l5.6-.7h5.7l5.7-.7h22.6l5.7-.7h11.3l5.7-.6h11.4l5.6-.7 5.7-.7h11.3l5.7-.7 5.7-.7 5.6-.6 5.7-.7h11.3l5.7-2 5.7-1.4 5.6-11.5 5.7-42.8" fill="none" color="#000"/><text transform="translate(529.1 371.9)" stroke="none" fill="#000" font-family="Arial" font-size="12" text-anchor="end" color="#000"><tspan>pages+cached</tspan></text><path stroke="#56B4E9" d="M537.4 368h42.2M53.9 169.9l5.7-17.4 5.6-43.6h17l5.7-.7h17l5.7-.7h22.6l5.7-.6H189.9l5.7-.7h17l5.7-.7h17l5.6-.7h22.7l5.7-.6h5.6l5.7-.7h11.3l5.7-.7h5.7l5.6-1.4h5.7l5.7-.6h11.3l5.7-.7h5.7l5.6-4.1 5.7-1.3 5.7-2.1 5.6-.7h17l5.7-.6h11.3l5.7-.7h5.7l5.6-.7h22.7l5.7-.7h28.3l5.7-.6h17l5.6-.7h17l5.7-1.4h5.7l5.7-.7h5.6l5.7-1.3h11.3l5.7-1.4 5.7-.7 5.6-1.3 5.7-2 5.7-3.4 5.6-4.8 5.7-10.2 5.7-1.3 5.6-6.1 5.7-2" fill="none" color="#000"/><text transform="translate(529.1 389.9)" stroke="none" fill="#000" font-family="Arial" font-size="12" text-anchor="end" color="#000"><tspan>pages+cached+nointeractive</tspan></text><path stroke="#E69F00" d="M537.4 386h42.2M53.9 111.6l5.7-.7 5.6-.6h11.4l5.6-.7 5.7-.7h17l5.7-.7h22.6l5.7-.7H201.3l5.6-.6H252.3l5.6-.7H303.3l5.6-.7H343l5.6-.7h22.7l5.7-.6h17l5.6-.7h5.7l5.7-2.1 5.6-1.3h5.7L428 98l5.6-.6h5.7l5.7-.7 5.6-2.7 5.7-.7h5.7l5.6-.7h5.7l5.7-1.3h11.3l5.7-.7h28.3l5.7-.7H558.3l5.7-.7h11.3l5.7-.6 5.7-2.8 5.6-.6 5.7-2.1h5.7l5.6-9.5 5.7-4.7" fill="none" color="#000"/><text transform="translate(529.1 407.9)" stroke="none" fill="#000" font-family="Arial" font-size="12" text-anchor="end" color="#000"><tspan>pages+cached+noadtech</tspan></text><path stroke="#F0E442" d="M537.4 404h42.2M53.9 290.7H615" fill="none" color="#000"/><text transform="translate(529.1 425.9)" stroke="none" fill="#000" font-family="Arial" font-size="12" text-anchor="end" color="#000"><tspan>pages+cached+noexternal</tspan></text><path stroke="#0072B2" d="M537.4 422h42.2M53.9 290.7H615" fill="none" color="#000"/><text transform="translate(529.1 443.9)" stroke="none" fill="#000" font-family="Arial" font-size="12" text-anchor="end" color="#000"><tspan>pages+cached+noexternal+nofonts</tspan></text><path stroke="#E51E10" d="M537.4 440h42.2M53.9 290.7H615" fill="none" color="#000"/><g><text transform="translate(529.1 461.9)" stroke="none" fill="#000" font-family="Arial" font-size="12" text-anchor="end" color="#000"><tspan>pages+cached+noexternal+nosvg</tspan></text><path stroke="#000" d="M537.4 458h42.2M53.9 290.7H609.3l5.7-20.1" fill="none" color="#000"/></g><g><text transform="translate(529.1 479.9)" stroke="none" fill="#000" font-family="Arial" font-size="12" text-anchor="end" color="#000"><tspan>pages+cached+noexternal+noimg</tspan></text><path stroke="#9400D3" d="M537.4 476h42.2M53.9 290.7H615" fill="none" color="#000"/></g><g><text transform="translate(529.1 497.9)" stroke="none" fill="#000" font-family="Arial" font-size="12" text-anchor="end" color="#000"><tspan>pages+cached+noexternal+nocss</tspan></text><path stroke="#009E73" d="M537.4 494h42.2M53.9 290.7H615" fill="none" color="#000"/></g><g><text transform="translate(529.1 515.9)" stroke="none" fill="#000" font-family="Arial" font-size="12" text-anchor="end" color="#000"><tspan>pages+cached+noexternal+nojs</tspan></text><path stroke="#56B4E9" d="M537.4 512h42.2M53.9 290.7H615" fill="none" color="#000"/></g><g><text transform="translate(529.1 533.9)" stroke="none" fill="#000" font-family="Arial" font-size="12" text-anchor="end" color="#000"><tspan>pages+cached+noexternal+nofonts+nosvg+noimg</tspan></text><path stroke="#E69F00" d="M537.4 530h42.2M53.9 290.7H615" fill="none" color="#000"/></g><g><text transform="translate(529.1 551.9)" stroke="none" fill="#000" font-family="Arial" font-size="12" text-anchor="end" color="#000"><tspan>pages+cached+noexternal+nofonts+nosvg+noimg+nocss</tspan></text><path stroke="#F0E442" d="M537.4 548h42.2M53.9 290.7H615" fill="none" color="#000"/></g><g><text transform="translate(529.1 569.9)" stroke="none" fill="#000" font-family="Arial" font-size="12" text-anchor="end" color="#000"><tspan>pages+cached+noexternal+nofonts+nosvg+noimg+nocss+nojs</tspan></text><path stroke="#0072B2" d="M537.4 566h42.2M53.9 290.7H615" fill="none" color="#000"/></g><g><text transform="translate(529.1 587.9)" stroke="none" fill="#000" font-family="Arial" font-size="12" text-anchor="end" color="#000"><tspan>score p10=287</tspan></text><path stroke="#E51E10" d="M537.4 584h42.2M53.9 96H615" fill="none" color="#000"/></g><g><text transform="translate(529.1 605.9)" stroke="none" fill="#000" font-family="Arial" font-size="12" text-anchor="end" color="#000"><tspan>score median=600</tspan></text><path stroke="#000" d="M537.4 602h42.2" fill="none" color="#000"/></g><g fill="none" color="#000" stroke="currentColor"><path stroke="#000" d="M53.9 18.1V296H615V18.1H53.9z"/></g></svg>