<svg width="640" height="520" xmlns="http://www.w3.org/2000/svg" xmlns:xlink="http://www.w3.org/1999/xlink"><path fill="#fff" d="M0 0h640v520H0z"/><defs><path id="g" stroke-width=".222" stroke="currentColor" d="M-1 0h2M0-1v2"/><path id="h" stroke-width=".222" stroke="currentColor" d="M-1-1l2 2m0-2l-2 2"/><path id="i" stroke-width=".222" stroke="currentColor" d="M-1 0h2M0-1v2m-1-2l2 2m-2 0l2-2"/><path id="d" stroke-width=".222" stroke="currentColor" d="M-1-1h2v2h-2z"/><path id="b" stroke-width=".222" stroke="currentColor" d="M0-1.33l-1.33 2h2.66z"/><path id="f" stroke-width=".222" stroke="currentColor" d="M0 1.33L1.265.411.782-1.067l-1.564-.009-.483 1.487z"/><use xlink:href="#b" id="c" stroke="currentColor" transform="rotate(180)"/><use xlink:href="#d" id="e" stroke="currentColor" transform="rotate(45)"/><circle id="a" stroke-width=".222" stroke="currentColor" cx="0" cy="0" r="1"/></defs><g fill="none" color="#000" stroke="currentColor"><path stroke="#000" d="M78.8 422.1h9m527.2 0h-9"/><text transform="translate(70.5 426)" stroke="none" fill="#000" font-family="Arial" font-size="12" text-anchor="end"><tspan>0</tspan></text></g><g fill="none" color="#000" stroke="currentColor"><path stroke="#000" d="M78.8 351.3h9m527.2 0h-9"/><text transform="translate(70.5 355.2)" stroke="none" fill="#000" font-family="Arial" font-size="12" text-anchor="end"><tspan>100000</tspan></text></g><g fill="none" color="#000" stroke="currentColor"><path stroke="#000" d="M78.8 280.6h9m527.2 0h-9"/><text transform="translate(70.5 284.5)" stroke="none" fill="#000" font-family="Arial" font-size="12" text-anchor="end"><tspan>200000</tspan></text></g><g fill="none" color="#000" stroke="currentColor"><path stroke="#000" d="M78.8 209.8h9m527.2 0h-9"/><text transform="translate(70.5 213.7)" stroke="none" fill="#000" font-family="Arial" font-size="12" text-anchor="end"><tspan>300000</tspan></text></g><g fill="none" color="#000" stroke="currentColor"><path stroke="#000" d="M78.8 139.1h9m527.2 0h-9"/><text transform="translate(70.5 143)" stroke="none" fill="#000" font-family="Arial" font-size="12" text-anchor="end"><tspan>400000</tspan></text></g><g fill="none" color="#000" stroke="currentColor"><path stroke="#000" d="M78.8 68.3h9m527.2 0h-9"/><text transform="translate(70.5 72.2)" stroke="none" fill="#000" font-family="Arial" font-size="12" text-anchor="end"><tspan>500000</tspan></text></g><g fill="none" color="#000" stroke="currentColor"><path stroke="#000" d="M78.8 430v-9m0-402.9v9"/><text transform="translate(78.8 451.9)" stroke="none" fill="#000" font-family="Arial" font-size="12" text-anchor="middle"><tspan>0</tspan></text></g><g fill="none" color="#000" stroke="currentColor"><path stroke="#000" d="M161.3 430v-9m0-402.9v9"/><text transform="translate(161.3 451.9)" stroke="none" fill="#000" font-family="Arial" font-size="12" text-anchor="middle"><tspan>2</tspan></text></g><g fill="none" color="#000" stroke="currentColor"><path stroke="#000" d="M243.8 430v-9m0-402.9v9"/><text transform="translate(243.8 451.9)" stroke="none" fill="#000" font-family="Arial" font-size="12" text-anchor="middle"><tspan>4</tspan></text></g><g fill="none" color="#000" stroke="currentColor"><path stroke="#000" d="M326.3 430v-9m0-402.9v9"/><text transform="translate(326.3 451.9)" stroke="none" fill="#000" font-family="Arial" font-size="12" text-anchor="middle"><tspan>6</tspan></text></g><g fill="none" color="#000" stroke="currentColor"><path stroke="#000" d="M408.8 430v-9m0-402.9v9"/><text transform="translate(408.8 451.9)" stroke="none" fill="#000" font-family="Arial" font-size="12" text-anchor="middle"><tspan>8</tspan></text></g><g fill="none" color="#000" stroke="currentColor"><path stroke="#000" d="M491.3 430v-9m0-402.9v9"/><text transform="translate(491.3 451.9)" stroke="none" fill="#000" font-family="Arial" font-size="12" text-anchor="middle"><tspan>10</tspan></text></g><g fill="none" color="#000" stroke="currentColor"><path stroke="#000" d="M573.8 430v-9m0-402.9v9"/><text transform="translate(573.8 451.9)" stroke="none" fill="#000" font-family="Arial" font-size="12" text-anchor="middle"><tspan>12</tspan></text></g><path stroke="#000" d="M78.8 18.1V430H615V18.1H78.8z" fill="none" color="#000"/><text transform="translate(288.1 469.9)" stroke="none" fill="#000" font-family="Arial" font-size="12" text-anchor="end" color="#000"><tspan>p90min</tspan></text><g fill="none" color="#000" stroke="currentColor"><path stroke="#9400D3" d="M296.4 466h42.2M78.8 422.1L120 27.2l41.3-.8h41.2l41.3 359.5 41.2 35.4 41.3-.1 41.2-.2 41.3-.2 41.2.2 41.3.6 41.2-1.2 41.3-.2 41.2 1.2"/><use xlink:href="#g" transform="matrix(4.5 0 0 4.5 78.8 422.1)" color="#9400D3"/><use xlink:href="#g" transform="matrix(4.5 0 0 4.5 120 27.2)" color="#9400D3"/><use xlink:href="#g" transform="matrix(4.5 0 0 4.5 161.3 26.4)" color="#9400D3"/><use xlink:href="#g" transform="matrix(4.5 0 0 4.5 202.5 26.4)" color="#9400D3"/><use xlink:href="#g" transform="matrix(4.5 0 0 4.5 243.8 385.9)" color="#9400D3"/><use xlink:href="#g" transform="matrix(4.5 0 0 4.5 285 421.3)" color="#9400D3"/><use xlink:href="#g" transform="matrix(4.5 0 0 4.5 326.3 421.2)" color="#9400D3"/><use xlink:href="#g" transform="matrix(4.5 0 0 4.5 367.5 421)" color="#9400D3"/><use xlink:href="#g" transform="matrix(4.5 0 0 4.5 408.8 420.8)" color="#9400D3"/><use xlink:href="#g" transform="matrix(4.5 0 0 4.5 450 421)" color="#9400D3"/><use xlink:href="#g" transform="matrix(4.5 0 0 4.5 491.3 421.6)" color="#9400D3"/><use xlink:href="#g" transform="matrix(4.5 0 0 4.5 532.5 420.4)" color="#9400D3"/><use xlink:href="#g" transform="matrix(4.5 0 0 4.5 573.8 420.2)" color="#9400D3"/><use xlink:href="#g" transform="matrix(4.5 0 0 4.5 615 421.4)" color="#9400D3"/><use xlink:href="#g" transform="matrix(4.5 0 0 4.5 317.5 466)" color="#9400D3"/></g><text transform="translate(288.1 487.9)" stroke="none" fill="#000" font-family="Arial" font-size="12" text-anchor="end" color="#000"><tspan>p90mean</tspan></text><g fill="none" color="#000" stroke="currentColor"><path stroke="#009E73" d="M296.4 484h42.2M78.8 422.1L120 26.7l41.3-.3h41.2l41.3 359.5 41.2 35.4 41.3-.1 41.2-.2 41.3-.2 41.2.2 41.3.6 41.2-1.2 41.3-.2 41.2 1.2"/><use xlink:href="#h" transform="matrix(4.5 0 0 4.5 78.8 422.1)" color="#009E73"/><use xlink:href="#h" transform="matrix(4.5 0 0 4.5 120 26.7)" color="#009E73"/><use xlink:href="#h" transform="matrix(4.5 0 0 4.5 161.3 26.4)" color="#009E73"/><use xlink:href="#h" transform="matrix(4.5 0 0 4.5 202.5 26.4)" color="#009E73"/><use xlink:href="#h" transform="matrix(4.5 0 0 4.5 243.8 385.9)" color="#009E73"/><use xlink:href="#h" transform="matrix(4.5 0 0 4.5 285 421.3)" color="#009E73"/><use xlink:href="#h" transform="matrix(4.5 0 0 4.5 326.3 421.2)" color="#009E73"/><use xlink:href="#h" transform="matrix(4.5 0 0 4.5 367.5 421)" color="#009E73"/><use xlink:href="#h" transform="matrix(4.5 0 0 4.5 408.8 420.8)" color="#009E73"/><use xlink:href="#h" transform="matrix(4.5 0 0 4.5 450 421)" color="#009E73"/><use xlink:href="#h" transform="matrix(4.5 0 0 4.5 491.3 421.6)" color="#009E73"/><use xlink:href="#h" transform="matrix(4.5 0 0 4.5 532.5 420.4)" color="#009E73"/><use xlink:href="#h" transform="matrix(4.5 0 0 4.5 573.8 420.2)" color="#009E73"/><use xlink:href="#h" transform="matrix(4.5 0 0 4.5 615 421.4)" color="#009E73"/><use xlink:href="#h" transform="matrix(4.5 0 0 4.5 317.5 484)" color="#009E73"/></g><text transform="translate(288.1 505.9)" stroke="none" fill="#000" font-family="Arial" font-size="12" text-anchor="end" color="#000"><tspan>p90median</tspan></text><g fill="none" color="#000" stroke="currentColor"><path stroke="#56B4E9" d="M296.4 502h42.2M78.8 422.1L120 26.8l41.3-.4h41.2l41.3 359.5 41.2 35.4 41.3-.1 41.2-.2 41.3-.2 41.2.2 41.3.6 41.2-1.2 41.3-.2 41.2 1.2"/><use xlink:href="#i" transform="matrix(4.5 0 0 4.5 78.8 422.1)" color="#56B4E9"/><use xlink:href="#i" transform="matrix(4.5 0 0 4.5 120 26.8)" color="#56B4E9"/><use xlink:href="#i" transform="matrix(4.5 0 0 4.5 161.3 26.4)" color="#56B4E9"/><use xlink:href="#i" transform="matrix(4.5 0 0 4.5 202.5 26.4)" color="#56B4E9"/><use xlink:href="#i" transform="matrix(4.5 0 0 4.5 243.8 385.9)" color="#56B4E9"/><use xlink:href="#i" transform="matrix(4.5 0 0 4.5 285 421.3)" color="#56B4E9"/><use xlink:href="#i" transform="matrix(4.5 0 0 4.5 326.3 421.2)" color="#56B4E9"/><use xlink:href="#i" transform="matrix(4.5 0 0 4.5 367.5 421)" color="#56B4E9"/><use xlink:href="#i" transform="matrix(4.5 0 0 4.5 408.8 420.8)" color="#56B4E9"/><use xlink:href="#i" transform="matrix(4.5 0 0 4.5 450 421)" color="#56B4E9"/><use xlink:href="#i" transform="matrix(4.5 0 0 4.5 491.3 421.6)" color="#56B4E9"/><use xlink:href="#i" transform="matrix(4.5 0 0 4.5 532.5 420.4)" color="#56B4E9"/><use xlink:href="#i" transform="matrix(4.5 0 0 4.5 573.8 420.2)" color="#56B4E9"/><use xlink:href="#i" transform="matrix(4.5 0 0 4.5 615 421.4)" color="#56B4E9"/><use xlink:href="#i" transform="matrix(4.5 0 0 4.5 317.5 502)" color="#56B4E9"/></g><text transform="translate(504.6 469.9)" stroke="none" fill="#000" font-family="Arial" font-size="12" text-anchor="end" color="#000"><tspan>p90max</tspan></text><g fill="none" color="#000" stroke="currentColor"><path stroke="#E69F00" d="M512.9 466h42.2M78.8 422.1L120 26l41.3.4h41.2l41.3 359.5 41.2 35.4 41.3-.1 41.2-.2 41.3-.2 41.2.2 41.3.6 41.2-1.2 41.3-.2 41.2 1.2"/><use xlink:href="#d" transform="matrix(4.5 0 0 4.5 78.8 422.1)" color="#E69F00"/><use xlink:href="#d" transform="matrix(4.5 0 0 4.5 120 26)" color="#E69F00"/><use xlink:href="#d" transform="matrix(4.5 0 0 4.5 161.3 26.4)" color="#E69F00"/><use xlink:href="#d" transform="matrix(4.5 0 0 4.5 202.5 26.4)" color="#E69F00"/><use xlink:href="#d" transform="matrix(4.5 0 0 4.5 243.8 385.9)" color="#E69F00"/><use xlink:href="#d" transform="matrix(4.5 0 0 4.5 285 421.3)" color="#E69F00"/><use xlink:href="#d" transform="matrix(4.5 0 0 4.5 326.3 421.2)" color="#E69F00"/><use xlink:href="#d" transform="matrix(4.5 0 0 4.5 367.5 421)" color="#E69F00"/><use xlink:href="#d" transform="matrix(4.5 0 0 4.5 408.8 420.8)" color="#E69F00"/><use xlink:href="#d" transform="matrix(4.5 0 0 4.5 450 421)" color="#E69F00"/><use xlink:href="#d" transform="matrix(4.5 0 0 4.5 491.3 421.6)" color="#E69F00"/><use xlink:href="#d" transform="matrix(4.5 0 0 4.5 532.5 420.4)" color="#E69F00"/><use xlink:href="#d" transform="matrix(4.5 0 0 4.5 573.8 420.2)" color="#E69F00"/><use xlink:href="#d" transform="matrix(4.5 0 0 4.5 615 421.4)" color="#E69F00"/><use xlink:href="#d" transform="matrix(4.5 0 0 4.5 534 466)" color="#E69F00"/></g><g><text transform="translate(504.6 487.9)" stroke="none" fill="#000" font-family="Arial" font-size="12" text-anchor="end" color="#000"><tspan>score p10=28672</tspan></text><path stroke="#F0E442" d="M512.9 484h42.2M78.8 401.8H615" fill="none" color="#000"/></g><g><text transform="translate(504.6 505.9)" stroke="none" fill="#000" font-family="Arial" font-size="12" text-anchor="end" color="#000"><tspan>score median=131072</tspan></text><path stroke="#0072B2" d="M512.9 502h42.2M78.8 329.3H615" fill="none" color="#000"/></g><g fill="none" color="#000" stroke="currentColor"><path stroke="#000" d="M78.8 18.1V430H615V18.1H78.8z"/></g></svg>