<svg width="640" height="490" xmlns="http://www.w3.org/2000/svg" xmlns:xlink="http://www.w3.org/1999/xlink"><path fill="#fff" d="M0 0h640v490H0z"/><defs><path id="d" stroke-width=".222" stroke="currentColor" d="M-1-1h2v2h-2z"/><path id="b" stroke-width=".222" stroke="currentColor" d="M0-1.33l-1.33 2h2.66z"/><path id="f" stroke-width=".222" stroke="currentColor" d="M0 1.33L1.265.411.782-1.067l-1.564-.009-.483 1.487z"/><use xlink:href="#b" id="c" stroke="currentColor" transform="rotate(180)"/><use xlink:href="#d" id="e" stroke="currentColor" transform="rotate(45)"/><circle id="a" stroke-width=".222" stroke="currentColor" cx="0" cy="0" r="1"/></defs><g fill="none" color="#000" stroke="currentColor"><path stroke="#000" d="M37.3 435.3h9m568.7 0h-9"/><text transform="translate(29 439.2)" stroke="none" fill="#000" font-family="Arial" font-size="12" text-anchor="end"><tspan>1</tspan></text></g><g fill="none" color="#000" stroke="currentColor"><path stroke="#000" d="M37.3 376.4h9m568.7 0h-9"/><text transform="translate(29 380.3)" stroke="none" fill="#000" font-family="Arial" font-size="12" text-anchor="end"><tspan>2</tspan></text></g><g fill="none" color="#000" stroke="currentColor"><path stroke="#000" d="M37.3 317.6h9m568.7 0h-9"/><text transform="translate(29 321.5)" stroke="none" fill="#000" font-family="Arial" font-size="12" text-anchor="end"><tspan>3</tspan></text></g><g fill="none" color="#000" stroke="currentColor"><path stroke="#000" d="M37.3 258.7h9m568.7 0h-9"/><text transform="translate(29 262.6)" stroke="none" fill="#000" font-family="Arial" font-size="12" text-anchor="end"><tspan>4</tspan></text></g><g fill="none" color="#000" stroke="currentColor"><path stroke="#000" d="M37.3 199.8h9m568.7 0h-9"/><text transform="translate(29 203.7)" stroke="none" fill="#000" font-family="Arial" font-size="12" text-anchor="end"><tspan>5</tspan></text></g><g fill="none" color="#000" stroke="currentColor"><path stroke="#000" d="M37.3 140.9h9m568.7 0h-9"/><text transform="translate(29 144.8)" stroke="none" fill="#000" font-family="Arial" font-size="12" text-anchor="end"><tspan>6</tspan></text></g><g fill="none" color="#000" stroke="currentColor"><path stroke="#000" d="M37.3 82.1h9m568.7 0h-9"/><text transform="translate(29 86)" stroke="none" fill="#000" font-family="Arial" font-size="12" text-anchor="end"><tspan>7</tspan></text></g><g fill="none" color="#000" stroke="currentColor"><path stroke="#000" d="M37.3 23.2h9m568.7 0h-9"/><text transform="translate(29 27.1)" stroke="none" fill="#000" font-family="Arial" font-size="12" text-anchor="end"><tspan>8</tspan></text></g><g fill="none" color="#000" stroke="currentColor"><path stroke="#000" d="M37.3 436v-9m0-408.9v9"/><text transform="translate(37.3 457.9)" stroke="none" fill="#000" font-family="Arial" font-size="12" text-anchor="middle"><tspan>0</tspan></text></g><g fill="none" color="#000" stroke="currentColor"><path stroke="#000" d="M95.7 436v-9m0-408.9v9"/><text transform="translate(95.7 457.9)" stroke="none" fill="#000" font-family="Arial" font-size="12" text-anchor="middle"><tspan>10</tspan></text></g><g fill="none" color="#000" stroke="currentColor"><path stroke="#000" d="M154 436v-9m0-408.9v9"/><text transform="translate(154 457.9)" stroke="none" fill="#000" font-family="Arial" font-size="12" text-anchor="middle"><tspan>20</tspan></text></g><g fill="none" color="#000" stroke="currentColor"><path stroke="#000" d="M212.4 436v-9m0-408.9v9"/><text transform="translate(212.4 457.9)" stroke="none" fill="#000" font-family="Arial" font-size="12" text-anchor="middle"><tspan>30</tspan></text></g><g fill="none" color="#000" stroke="currentColor"><path stroke="#000" d="M270.7 436v-9m0-408.9v9"/><text transform="translate(270.7 457.9)" stroke="none" fill="#000" font-family="Arial" font-size="12" text-anchor="middle"><tspan>40</tspan></text></g><g fill="none" color="#000" stroke="currentColor"><path stroke="#000" d="M329.1 436v-9m0-408.9v9"/><text transform="translate(329.1 457.9)" stroke="none" fill="#000" font-family="Arial" font-size="12" text-anchor="middle"><tspan>50</tspan></text></g><g fill="none" color="#000" stroke="currentColor"><path stroke="#000" d="M387.4 436v-9m0-408.9v9"/><text transform="translate(387.4 457.9)" stroke="none" fill="#000" font-family="Arial" font-size="12" text-anchor="middle"><tspan>60</tspan></text></g><g fill="none" color="#000" stroke="currentColor"><path stroke="#000" d="M445.8 436v-9m0-408.9v9"/><text transform="translate(445.8 457.9)" stroke="none" fill="#000" font-family="Arial" font-size="12" text-anchor="middle"><tspan>70</tspan></text></g><g fill="none" color="#000" stroke="currentColor"><path stroke="#000" d="M504.1 436v-9m0-408.9v9"/><text transform="translate(504.1 457.9)" stroke="none" fill="#000" font-family="Arial" font-size="12" text-anchor="middle"><tspan>80</tspan></text></g><g fill="none" color="#000" stroke="currentColor"><path stroke="#000" d="M562.5 436v-9m0-408.9v9"/><text transform="translate(562.5 457.9)" stroke="none" fill="#000" font-family="Arial" font-size="12" text-anchor="middle"><tspan>90</tspan></text></g><path stroke="#000" d="M37.3 18.1V436H615V18.1H37.3z" fill="none" color="#000"/><text transform="translate(309.2 475.9)" stroke="none" fill="#000" font-family="Arial" font-size="12" text-anchor="end" color="#000"><tspan>raw</tspan></text><path stroke="#9400D3" d="M317.5 472h42.2M37.3 428l5.8-44.1 5.9-45.2 5.8-61.2 5.8-39.2 5.9-13.9 5.8-15.8 5.8-5.1 5.9-3.2 5.8-6.6 5.9-1 5.8-1.8 5.8-.3 5.9-2 5.8-4.2 5.8-2.4 5.9-.7 5.8-.3 5.8-.3 5.9-.5 5.8-3.8 5.8-1 5.9-.4 5.8-.1 5.8-.7 5.9-.1 5.8-2.9 5.9-.1 5.8-.8 5.8-1.7 5.9-1.6 5.8-.3 5.8-1.7 5.9-.7 5.8-2.3 5.8-.4 5.9-.5 5.8-.5 5.8-1 5.9-.7 5.8-.4 5.8-.8 5.9-.8 5.8-3 5.9-.6 5.8-1.5 5.8-.3 5.9-.2 5.8-.2 5.8-.3 5.9-3.5 5.8-.4 5.8-1.2 5.9-.1 5.8-2 5.8-3.4 5.9-.2 5.8-1.1h5.9l5.8-2.1 5.8-1 5.9-1.4 5.8-.7 5.8-1.9 5.9-.4 5.8-1.1 5.8-.3 5.9-3 5.8-2.2 5.8-.3 5.9-1.6 5.8-.5 5.8-.1 5.9-5.7 5.8-1.5 5.9-.9 5.8-1.9 5.8-4.1 5.9-4.1 5.8-1.1 5.8-.4 5.9-.8 5.8-.1 5.8-1.6 5.9-.4 5.8-1.1 5.8-1.4 5.9-5.9 5.8-1.4 5.8-.2 5.9-6.6 5.8-5.5 5.9-2.5 5.8-.6 5.8-6.8 5.9-4.2 5.8-7.2 5.8-1.8 5.9-26 5.8-2.4" fill="none" color="#000"/><g fill="none" color="#000" stroke="currentColor"><path stroke="#000" d="M37.3 18.1V436H615V18.1H37.3z"/></g></svg>