<svg width="640" height="500" xmlns="http://www.w3.org/2000/svg" xmlns:xlink="http://www.w3.org/1999/xlink"><path fill="#fff" d="M0 0h640v500H0z"/><defs><path id="d" stroke-width=".222" stroke="currentColor" d="M-1-1h2v2h-2z"/><path id="b" stroke-width=".222" stroke="currentColor" d="M0-1.33l-1.33 2h2.66z"/><path id="f" stroke-width=".222" stroke="currentColor" d="M0 1.33L1.265.411.782-1.067l-1.564-.009-.483 1.487z"/><use xlink:href="#b" id="c" stroke="currentColor" transform="rotate(180)"/><use xlink:href="#d" id="e" stroke="currentColor" transform="rotate(45)"/><circle id="a" stroke-width=".222" stroke="currentColor" cx="0" cy="0" r="1"/></defs><g fill="none" color="#000" stroke="currentColor"><path stroke="#000" d="M62.2 396.4h9m543.8 0h-9"/><text transform="translate(53.9 400.3)" stroke="none" fill="#000" font-family="Arial" font-size="12" text-anchor="end"><tspan>2540</tspan></text></g><g fill="none" color="#000" stroke="currentColor"><path stroke="#000" d="M62.2 352.5h9m543.8 0h-9"/><text transform="translate(53.9 356.4)" stroke="none" fill="#000" font-family="Arial" font-size="12" text-anchor="end"><tspan>2560</tspan></text></g><g fill="none" color="#000" stroke="currentColor"><path stroke="#000" d="M62.2 308.6h9m543.8 0h-9"/><text transform="translate(53.9 312.5)" stroke="none" fill="#000" font-family="Arial" font-size="12" text-anchor="end"><tspan>2580</tspan></text></g><g fill="none" color="#000" stroke="currentColor"><path stroke="#000" d="M62.2 264.7h9m543.8 0h-9"/><text transform="translate(53.9 268.6)" stroke="none" fill="#000" font-family="Arial" font-size="12" text-anchor="end"><tspan>2600</tspan></text></g><g fill="none" color="#000" stroke="currentColor"><path stroke="#000" d="M62.2 220.8h9m543.8 0h-9"/><text transform="translate(53.9 224.7)" stroke="none" fill="#000" font-family="Arial" font-size="12" text-anchor="end"><tspan>2620</tspan></text></g><g fill="none" color="#000" stroke="currentColor"><path stroke="#000" d="M62.2 176.8h9m543.8 0h-9"/><text transform="translate(53.9 180.7)" stroke="none" fill="#000" font-family="Arial" font-size="12" text-anchor="end"><tspan>2640</tspan></text></g><g fill="none" color="#000" stroke="currentColor"><path stroke="#000" d="M62.2 132.9h9m543.8 0h-9"/><text transform="translate(53.9 136.8)" stroke="none" fill="#000" font-family="Arial" font-size="12" text-anchor="end"><tspan>2660</tspan></text></g><g fill="none" color="#000" stroke="currentColor"><path stroke="#000" d="M62.2 89h9M615 89h-9"/><text transform="translate(53.9 92.9)" stroke="none" fill="#000" font-family="Arial" font-size="12" text-anchor="end"><tspan>2680</tspan></text></g><g fill="none" color="#000" stroke="currentColor"><path stroke="#000" d="M62.2 45.1h9m543.8 0h-9"/><text transform="translate(53.9 49)" stroke="none" fill="#000" font-family="Arial" font-size="12" text-anchor="end"><tspan>2700</tspan></text></g><g fill="none" color="#000" stroke="currentColor"><path stroke="#000" d="M62.2 428v-9m0-400.9v9"/><text transform="translate(62.2 449.9)" stroke="none" fill="#000" font-family="Arial" font-size="12" text-anchor="middle"><tspan>0</tspan></text></g><g fill="none" color="#000" stroke="currentColor"><path stroke="#000" d="M118 428v-9m0-400.9v9"/><text transform="translate(118 449.9)" stroke="none" fill="#000" font-family="Arial" font-size="12" text-anchor="middle"><tspan>10</tspan></text></g><g fill="none" color="#000" stroke="currentColor"><path stroke="#000" d="M173.9 428v-9m0-400.9v9"/><text transform="translate(173.9 449.9)" stroke="none" fill="#000" font-family="Arial" font-size="12" text-anchor="middle"><tspan>20</tspan></text></g><g fill="none" color="#000" stroke="currentColor"><path stroke="#000" d="M229.7 428v-9m0-400.9v9"/><text transform="translate(229.7 449.9)" stroke="none" fill="#000" font-family="Arial" font-size="12" text-anchor="middle"><tspan>30</tspan></text></g><g fill="none" color="#000" stroke="currentColor"><path stroke="#000" d="M285.6 428v-9m0-400.9v9"/><text transform="translate(285.6 449.9)" stroke="none" fill="#000" font-family="Arial" font-size="12" text-anchor="middle"><tspan>40</tspan></text></g><g fill="none" color="#000" stroke="currentColor"><path stroke="#000" d="M341.4 428v-9m0-400.9v9"/><text transform="translate(341.4 449.9)" stroke="none" fill="#000" font-family="Arial" font-size="12" text-anchor="middle"><tspan>50</tspan></text></g><g fill="none" color="#000" stroke="currentColor"><path stroke="#000" d="M397.2 428v-9m0-400.9v9"/><text transform="translate(397.2 449.9)" stroke="none" fill="#000" font-family="Arial" font-size="12" text-anchor="middle"><tspan>60</tspan></text></g><g fill="none" color="#000" stroke="currentColor"><path stroke="#000" d="M453.1 428v-9m0-400.9v9"/><text transform="translate(453.1 449.9)" stroke="none" fill="#000" font-family="Arial" font-size="12" text-anchor="middle"><tspan>70</tspan></text></g><g fill="none" color="#000" stroke="currentColor"><path stroke="#000" d="M508.9 428v-9m0-400.9v9"/><text transform="translate(508.9 449.9)" stroke="none" fill="#000" font-family="Arial" font-size="12" text-anchor="middle"><tspan>80</tspan></text></g><g fill="none" color="#000" stroke="currentColor"><path stroke="#000" d="M564.7 428v-9m0-400.9v9"/><text transform="translate(564.7 449.9)" stroke="none" fill="#000" font-family="Arial" font-size="12" text-anchor="middle"><tspan>90</tspan></text></g><path stroke="#000" d="M62.2 18.1V428H615V18.1H62.2z" fill="none" color="#000"/><text transform="translate(279.8 467.9)" stroke="none" fill="#000" font-family="Arial" font-size="12" text-anchor="end" color="#000"><tspan>pages+cached+noadtech</tspan></text><path stroke="#9400D3" d="M288.1 464h42.2M62.2 420.1l5.6-.1 5.6-5.8 5.6-5.9 5.5-12 5.6-.1 5.6-1.1 5.6-6.5 5.6-.3 5.6-4.3 5.5-1.1 5.6-2.9 5.6-7 5.6-1.6 5.6-3.3 5.6-4.5 5.5-5.8 5.6-3.6 5.6-1 5.6-.5 5.6-2.5 5.6-3.6 5.5-.3 5.6-2.6 5.6-.3 5.6-3.9 5.6-1.1 5.6-3.1 5.5-6.6 5.6-3.8h5.6l5.6-.2 5.6-.7 5.6-11.6 5.6-3.2 5.5-8.7 5.6-4.3 5.6-2.2 5.6-.2 5.6-9.7 5.6-98.3 5.5-9.1 5.6-4.8 5.6-2.7 5.6-5.2 5.6-6.2 5.6-1 5.5-1.1 5.6-1 5.6-1.5 5.6-3.8 5.6-.3 5.6-.1 5.5-.6 5.6-.8 5.6-1.4 5.6-7.2 5.6-.2 5.6-1.8 5.5-1.8 5.6-2.5 5.6-1.8 5.6-1 5.6-.4h5.6l5.5-1.7 5.6-2.3 5.6-3.7 5.6-.1 5.6-7.5 5.6-2.3 5.6-.4 5.5-.3 5.6-.6 5.6-2 5.6-.1 5.6-.6 5.6-1.5 5.5-5.5 5.6-.2 5.6-3.6 5.6-.8 5.6-.1 5.6-.5 5.5-2.6 5.6-.2 5.6-.3 5.6-.5 5.6-.5 5.6-.3 5.5-2.7 5.6-2.3 5.6-1.2 5.6-.3 5.6-5.9 5.6-.2 5.5-2.1 5.6-2.4 5.6-.5 5.6-9.2" fill="none" color="#000"/><text transform="translate(279.8 485.9)" stroke="none" fill="#000" font-family="Arial" font-size="12" text-anchor="end" color="#000"><tspan>pages+cached+noexternal</tspan></text><path stroke="#009E73" d="M288.1 482h42.2M62.2 405.4l5.6-2.5 5.6-3.7 5.6-.9 5.5-2.9 5.6-12.9 5.6-3.3 5.6-1.7 5.6-5.2 5.6-.4 5.5-3.2 5.6-2.3 5.6-3.6 5.6-.5 5.6-.2 5.6-1 5.5-2.1 5.6-1.3 5.6-.5 5.6-1.8 5.6-6.9 5.6-.8 5.5-.3 5.6-.8 5.6-.2 5.6-2.1 5.6-.7 5.6-1 5.5-2.3 5.6-1.1 5.6-1.3 5.6-8.1 5.6-3.7 5.6-1.1 5.6-3.5 5.5-6.6 5.6-.1 5.6-.7 5.6-6.6 5.6-7.4 5.6-5.2 5.5-10.1 5.6-8 5.6-7.7 5.6-8.9 5.6-100.7 5.6-6.7 5.5-4.2 5.6-6.7 5.6-2.4 5.6-.2 5.6-3.8 5.6-.1 5.5-1.3 5.6-2 5.6-6 5.6-.1 5.6-2 5.6-.5 5.5-2 5.6-4.1 5.6-4.2h5.6l5.6-2.1 5.6-1.2 5.5-1.6 5.6-2.6 5.6-.3 5.6-2.4 5.6-.5 5.6-1.3 5.6-2.5h5.5l5.6-.4 5.6-.3 5.6-2.7 5.6-.6 5.6-1.5 5.5-.2 5.6-.4 5.6-.4 5.6-.3 5.6-1.8 5.6-.6 5.5-.8 5.6-1.2 5.6-1.4 5.6-1.5 5.6-.1 5.6-2.1 5.5-2.3 5.6-.8 5.6-2.2 5.6-2.8 5.6-6.3 5.6-1.7 5.5-7.3 5.6-10.6 5.6-5.9L615 26" fill="none" color="#000"/><text transform="translate(529.5 467.9)" stroke="none" fill="#000" font-family="Arial" font-size="12" text-anchor="end" color="#000"><tspan>score p10=3387</tspan></text><path stroke="#56B4E9" d="M537.8 464H580" fill="none" color="#000"/><g><text transform="translate(529.5 485.9)" stroke="none" fill="#000" font-family="Arial" font-size="12" text-anchor="end" color="#000"><tspan>score median=5800</tspan></text><path stroke="#E69F00" d="M537.8 482H580" fill="none" color="#000"/></g><g fill="none" color="#000" stroke="currentColor"><path stroke="#000" d="M62.2 18.1V428H615V18.1H62.2z"/></g></svg>