<svg width="640" height="610" xmlns="http://www.w3.org/2000/svg" xmlns:xlink="http://www.w3.org/1999/xlink"><path fill="#fff" d="M0 0h640v610H0z"/><defs><path id="d" stroke-width=".222" stroke="currentColor" d="M-1-1h2v2h-2z"/><path id="b" stroke-width=".222" stroke="currentColor" d="M0-1.33l-1.33 2h2.66z"/><path id="f" stroke-width=".222" stroke="currentColor" d="M0 1.33L1.265.411.782-1.067l-1.564-.009-.483 1.487z"/><use xlink:href="#b" id="c" stroke="currentColor" transform="rotate(180)"/><use xlink:href="#d" id="e" stroke="currentColor" transform="rotate(45)"/><circle id="a" stroke-width=".222" stroke="currentColor" cx="0" cy="0" r="1"/></defs><g fill="none" color="#000" stroke="currentColor"><path stroke="#000" d="M70.5 304.5h9m535.5 0h-9"/><text transform="translate(62.2 308.4)" stroke="none" fill="#000" font-family="Arial" font-size="12" text-anchor="end"><tspan>0</tspan></text></g><g fill="none" color="#000" stroke="currentColor"><path stroke="#000" d="M70.5 256.8h9m535.5 0h-9"/><text transform="translate(62.2 260.7)" stroke="none" fill="#000" font-family="Arial" font-size="12" text-anchor="end"><tspan>5000</tspan></text></g><g fill="none" color="#000" stroke="currentColor"><path stroke="#000" d="M70.5 209.2h9m535.5 0h-9"/><text transform="translate(62.2 213.1)" stroke="none" fill="#000" font-family="Arial" font-size="12" text-anchor="end"><tspan>10000</tspan></text></g><g fill="none" color="#000" stroke="currentColor"><path stroke="#000" d="M70.5 161.5h9m535.5 0h-9"/><text transform="translate(62.2 165.4)" stroke="none" fill="#000" font-family="Arial" font-size="12" text-anchor="end"><tspan>15000</tspan></text></g><g fill="none" color="#000" stroke="currentColor"><path stroke="#000" d="M70.5 113.9h9m535.5 0h-9"/><text transform="translate(62.2 117.8)" stroke="none" fill="#000" font-family="Arial" font-size="12" text-anchor="end"><tspan>20000</tspan></text></g><g fill="none" color="#000" stroke="currentColor"><path stroke="#000" d="M70.5 66.3h9m535.5 0h-9"/><text transform="translate(62.2 70.2)" stroke="none" fill="#000" font-family="Arial" font-size="12" text-anchor="end"><tspan>25000</tspan></text></g><g fill="none" color="#000" stroke="currentColor"><path stroke="#000" d="M70.5 18.6h9m535.5 0h-9"/><text transform="translate(62.2 22.5)" stroke="none" fill="#000" font-family="Arial" font-size="12" text-anchor="end"><tspan>30000</tspan></text></g><g fill="none" color="#000" stroke="currentColor"><path stroke="#000" d="M70.5 304v-9m0-276.9v9"/><text transform="translate(70.5 325.9)" stroke="none" fill="#000" font-family="Arial" font-size="12" text-anchor="middle"><tspan>0</tspan></text></g><g fill="none" color="#000" stroke="currentColor"><path stroke="#000" d="M125.5 304v-9m0-276.9v9"/><text transform="translate(125.5 325.9)" stroke="none" fill="#000" font-family="Arial" font-size="12" text-anchor="middle"><tspan>10</tspan></text></g><g fill="none" color="#000" stroke="currentColor"><path stroke="#000" d="M180.5 304v-9m0-276.9v9"/><text transform="translate(180.5 325.9)" stroke="none" fill="#000" font-family="Arial" font-size="12" text-anchor="middle"><tspan>20</tspan></text></g><g fill="none" color="#000" stroke="currentColor"><path stroke="#000" d="M235.5 304v-9m0-276.9v9"/><text transform="translate(235.5 325.9)" stroke="none" fill="#000" font-family="Arial" font-size="12" text-anchor="middle"><tspan>30</tspan></text></g><g fill="none" color="#000" stroke="currentColor"><path stroke="#000" d="M290.5 304v-9m0-276.9v9"/><text transform="translate(290.5 325.9)" stroke="none" fill="#000" font-family="Arial" font-size="12" text-anchor="middle"><tspan>40</tspan></text></g><g fill="none" color="#000" stroke="currentColor"><path stroke="#000" d="M345.5 304v-9m0-276.9v9"/><text transform="translate(345.5 325.9)" stroke="none" fill="#000" font-family="Arial" font-size="12" text-anchor="middle"><tspan>50</tspan></text></g><g fill="none" color="#000" stroke="currentColor"><path stroke="#000" d="M400.5 304v-9m0-276.9v9"/><text transform="translate(400.5 325.9)" stroke="none" fill="#000" font-family="Arial" font-size="12" text-anchor="middle"><tspan>60</tspan></text></g><g fill="none" color="#000" stroke="currentColor"><path stroke="#000" d="M455.5 304v-9m0-276.9v9"/><text transform="translate(455.5 325.9)" stroke="none" fill="#000" font-family="Arial" font-size="12" text-anchor="middle"><tspan>70</tspan></text></g><g fill="none" color="#000" stroke="currentColor"><path stroke="#000" d="M510.5 304v-9m0-276.9v9"/><text transform="translate(510.5 325.9)" stroke="none" fill="#000" font-family="Arial" font-size="12" text-anchor="middle"><tspan>80</tspan></text></g><g fill="none" color="#000" stroke="currentColor"><path stroke="#000" d="M565.5 304v-9m0-276.9v9"/><text transform="translate(565.5 325.9)" stroke="none" fill="#000" font-family="Arial" font-size="12" text-anchor="middle"><tspan>90</tspan></text></g><path stroke="#000" d="M70.5 18.1V304H615V18.1H70.5z" fill="none" color="#000"/><text transform="translate(537.4 343.9)" stroke="none" fill="#000" font-family="Arial" font-size="12" text-anchor="end" color="#000"><tspan>empty</tspan></text><path stroke="#9400D3" d="M545.7 340h42.2M70.5 298.5h484l5.5-.1h55" fill="none" color="#000"/><text transform="translate(537.4 361.9)" stroke="none" fill="#000" font-family="Arial" font-size="12" text-anchor="end" color="#000"><tspan>pages</tspan></text><path stroke="#009E73" d="M545.7 358h42.2M70.5 255.5l5.5-.1h16.5l5.5-.1h11l5.5-.1h5.5l5.5-.1h5.5l5.5-.1h5.5l5.5-.1 5.5-.1h16.5l5.5-.1h5.5l5.5-.1 5.5-.1 5.5-.2h5.5l5.5-1.9h5.5l5.5-.8 5.5-2.2 5.5-.1 5.5-.1h5.5l5.5-.1H263l5.5-.1h5.5l5.5-.1h5.5l5.5-.1H307l5.5-.1H351l5.5-.1h11l5.5-.1 5.5-.1h22l5.5-.1h5.5l5.5-.1h33l5.5-.1 5.5-.1h5.5l5.5-.1 5.5-.2h5.5l5.5-.1h22l5.5-.2 5.5-.1h5.5l5.5-.1h5.5l5.5-.3 5.5-.3 5.5-.2h5.5l5.5-.4h5.5l5.5-.2 5.5-1.3 5.5-.8 5.5-.5h5.5l5.5-1.6 5.5-158.8 5.5-59.2" fill="none" color="#000"/><text transform="translate(537.4 379.9)" stroke="none" fill="#000" font-family="Arial" font-size="12" text-anchor="end" color="#000"><tspan>pages+cached</tspan></text><path stroke="#56B4E9" d="M545.7 376h42.2M70.5 264.6H76l5.5-.1h33l5.5-.1h22l5.5-.1H197l5.5-.1h44l5.5-.1h33l5.5-.1h22l5.5-.1h27.5l5.5-.2h5.5l5.5-.1h11l5.5-.1h22l5.5-.1h11l5.5-.1 5.5-.1h16.5l5.5-.1 5.5-.4 5.5-.1 5.5-4.1h5.5l5.5-.1h5.5l5.5-.1h11l5.5-.1h11l5.5-.2h5.5l5.5-.1h11l5.5-.1h11l5.5-.1h5.5l5.5-.1 5.5-.2h11l5.5-.1 5.5-4.4 5.5-.1 5.5-2.6" fill="none" color="#000"/><text transform="translate(537.4 397.9)" stroke="none" fill="#000" font-family="Arial" font-size="12" text-anchor="end" color="#000"><tspan>pages+cached+nointeractive</tspan></text><path stroke="#E69F00" d="M545.7 394h42.2M70.5 268l5.5-1.1 5.5-2.4 5.5-.1h16.5l5.5-.1h22l5.5-.1h11l5.5-.1h11l5.5-.1H186l5.5-.1h5.5l5.5-.1h5.5l5.5-.1h22l5.5-.1h38.5l5.5-.1h66l5.5-.1h44l5.5-.1h33l5.5-.1h11l5.5-.1h5.5l5.5-.1 5.5-.4 5.5-3.4 5.5-.5 5.5-.2h11l5.5-.1h11l5.5-.1 5.5-.1h5.5l5.5-.1 5.5-.2h5.5l5.5-.1h5.5l5.5-.1h5.5l5.5-.1 5.5-.1H604l5.5-.1 5.5-.1" fill="none" color="#000"/><text transform="translate(537.4 415.9)" stroke="none" fill="#000" font-family="Arial" font-size="12" text-anchor="end" color="#000"><tspan>pages+cached+noadtech</tspan></text><path stroke="#F0E442" d="M545.7 412h42.2M70.5 280.4H76l5.5-.1h22l5.5-.1h27.5l5.5-.1h38.5l5.5-.1h38.5l5.5-.1h27.5l5.5-.1h22l5.5-.5H307l5.5-.1H373l5.5-.1h66l5.5-.1h77l5.5-.1h77l5.5-.1" fill="none" color="#000"/><text transform="translate(537.4 433.9)" stroke="none" fill="#000" font-family="Arial" font-size="12" text-anchor="end" color="#000"><tspan>pages+cached+noexternal</tspan></text><path stroke="#0072B2" d="M545.7 430h42.2M70.5 280.3h22l5.5-.1h22l5.5-.1H175l5.5-.1h66l5.5-.1h27.5l5.5-.1h11l5.5-.1h11l5.5-.5h16.5l5.5-.1h55l5.5-.1H483l5.5-.1H582l5.5-.1h11l5.5-.1h5.5l5.5-.1" fill="none" color="#000"/><text transform="translate(537.4 451.9)" stroke="none" fill="#000" font-family="Arial" font-size="12" text-anchor="end" color="#000"><tspan>pages+cached+noexternal+nofonts</tspan></text><path stroke="#E51E10" d="M545.7 448h42.2M70.5 290.1H252l5.5-.1H428l5.5-2.8h44l5.5-.7 5.5-.1H505l5.5-2.1h44l5.5-.1h55" fill="none" color="#000"/><g><text transform="translate(537.4 469.9)" stroke="none" fill="#000" font-family="Arial" font-size="12" text-anchor="end" color="#000"><tspan>pages+cached+noexternal+nosvg</tspan></text><path stroke="#000" d="M545.7 466h42.2M70.5 280.4h22l5.5-.1h115.5l5.5-.1h137.5l5.5-.1h121l5.5-.1H538l5.5-.1H571l5.5-.1 5.5-.3 5.5-.5H604l5.5-.1h5.5" fill="none" color="#000"/></g><g><text transform="translate(537.4 487.9)" stroke="none" fill="#000" font-family="Arial" font-size="12" text-anchor="end" color="#000"><tspan>pages+cached+noexternal+noimg</tspan></text><path stroke="#9400D3" d="M545.7 484h42.2M70.5 281.7l5.5-1.1 5.5-.1H87l5.5-.1H120l5.5-.1h33l5.5-.1h16.5l5.5-.1h27.5l5.5-.1h38.5l5.5-.1 5.5-.4h5.5l5.5-.1H296l5.5-.1H406l5.5-.1h110l5.5-.1h55l5.5-.1H604l5.5-.2h5.5" fill="none" color="#000"/></g><g><text transform="translate(537.4 505.9)" stroke="none" fill="#000" font-family="Arial" font-size="12" text-anchor="end" color="#000"><tspan>pages+cached+noexternal+nocss</tspan></text><path stroke="#009E73" d="M545.7 502h42.2M70.5 288.6H538l5.5-.1H615" fill="none" color="#000"/></g><g><text transform="translate(537.4 523.9)" stroke="none" fill="#000" font-family="Arial" font-size="12" text-anchor="end" color="#000"><tspan>pages+cached+noexternal+nofonts+nosvg+noimg</tspan></text><path stroke="#56B4E9" d="M545.7 520h42.2M70.5 290.1H494l5.5-2.9H527l5.5-.8h5.5l5.5-2.1H604l5.5-.1h5.5" fill="none" color="#000"/></g><g><text transform="translate(537.4 541.9)" stroke="none" fill="#000" font-family="Arial" font-size="12" text-anchor="end" color="#000"><tspan>pages+cached+noexternal+nofonts+nosvg+noimg+nocss</tspan></text><path stroke="#E69F00" d="M545.7 538h42.2M70.5 288.6H604l5.5-.1h5.5" fill="none" color="#000"/></g><g><text transform="translate(537.4 559.9)" stroke="none" fill="#000" font-family="Arial" font-size="12" text-anchor="end" color="#000"><tspan>pages+cached+noexternal+nofonts+nosvg+noimg+nocss+nojs</tspan></text><path stroke="#F0E442" d="M545.7 556h42.2M70.5 290.1H615" fill="none" color="#000"/></g><g><text transform="translate(537.4 577.9)" stroke="none" fill="#000" font-family="Arial" font-size="12" text-anchor="end" color="#000"><tspan>score p10=3387</tspan></text><path stroke="#0072B2" d="M545.7 574h42.2M70.5 272.2H615" fill="none" color="#000"/></g><g><text transform="translate(537.4 595.9)" stroke="none" fill="#000" font-family="Arial" font-size="12" text-anchor="end" color="#000"><tspan>score median=5800</tspan></text><path stroke="#E51E10" d="M545.7 592h42.2M70.5 249.2H615" fill="none" color="#000"/></g><g fill="none" color="#000" stroke="currentColor"><path stroke="#000" d="M70.5 18.1V304H615V18.1H70.5z"/></g></svg>