<svg width="640" height="500" xmlns="http://www.w3.org/2000/svg" xmlns:xlink="http://www.w3.org/1999/xlink"><path fill="#fff" d="M0 0h640v500H0z"/><defs><path id="d" stroke-width=".222" stroke="currentColor" d="M-1-1h2v2h-2z"/><path id="b" stroke-width=".222" stroke="currentColor" d="M0-1.33l-1.33 2h2.66z"/><path id="f" stroke-width=".222" stroke="currentColor" d="M0 1.33L1.265.411.782-1.067l-1.564-.009-.483 1.487z"/><use xlink:href="#b" id="c" stroke="currentColor" transform="rotate(180)"/><use xlink:href="#d" id="e" stroke="currentColor" transform="rotate(45)"/><circle id="a" stroke-width=".222" stroke="currentColor" cx="0" cy="0" r="1"/></defs><g fill="none" color="#000" stroke="currentColor"><path stroke="#000" d="M62.2 418.4h9m543.8 0h-9"/><text transform="translate(53.9 422.3)" stroke="none" fill="#000" font-family="Arial" font-size="12" text-anchor="end"><tspan>1950</tspan></text></g><g fill="none" color="#000" stroke="currentColor"><path stroke="#000" d="M62.2 375.2h9m543.8 0h-9"/><text transform="translate(53.9 379.1)" stroke="none" fill="#000" font-family="Arial" font-size="12" text-anchor="end"><tspan>2000</tspan></text></g><g fill="none" color="#000" stroke="currentColor"><path stroke="#000" d="M62.2 332h9m543.8 0h-9"/><text transform="translate(53.9 335.9)" stroke="none" fill="#000" font-family="Arial" font-size="12" text-anchor="end"><tspan>2050</tspan></text></g><g fill="none" color="#000" stroke="currentColor"><path stroke="#000" d="M62.2 288.9h9m543.8 0h-9"/><text transform="translate(53.9 292.8)" stroke="none" fill="#000" font-family="Arial" font-size="12" text-anchor="end"><tspan>2100</tspan></text></g><g fill="none" color="#000" stroke="currentColor"><path stroke="#000" d="M62.2 245.7h9m543.8 0h-9"/><text transform="translate(53.9 249.6)" stroke="none" fill="#000" font-family="Arial" font-size="12" text-anchor="end"><tspan>2150</tspan></text></g><g fill="none" color="#000" stroke="currentColor"><path stroke="#000" d="M62.2 202.6h9m543.8 0h-9"/><text transform="translate(53.9 206.5)" stroke="none" fill="#000" font-family="Arial" font-size="12" text-anchor="end"><tspan>2200</tspan></text></g><g fill="none" color="#000" stroke="currentColor"><path stroke="#000" d="M62.2 159.4h9m543.8 0h-9"/><text transform="translate(53.9 163.3)" stroke="none" fill="#000" font-family="Arial" font-size="12" text-anchor="end"><tspan>2250</tspan></text></g><g fill="none" color="#000" stroke="currentColor"><path stroke="#000" d="M62.2 116.2h9m543.8 0h-9"/><text transform="translate(53.9 120.1)" stroke="none" fill="#000" font-family="Arial" font-size="12" text-anchor="end"><tspan>2300</tspan></text></g><g fill="none" color="#000" stroke="currentColor"><path stroke="#000" d="M62.2 73.1h9m543.8 0h-9"/><text transform="translate(53.9 77)" stroke="none" fill="#000" font-family="Arial" font-size="12" text-anchor="end"><tspan>2350</tspan></text></g><g fill="none" color="#000" stroke="currentColor"><path stroke="#000" d="M62.2 29.9h9m543.8 0h-9"/><text transform="translate(53.9 33.8)" stroke="none" fill="#000" font-family="Arial" font-size="12" text-anchor="end"><tspan>2400</tspan></text></g><g fill="none" color="#000" stroke="currentColor"><path stroke="#000" d="M62.2 428v-9m0-400.9v9"/><text transform="translate(62.2 449.9)" stroke="none" fill="#000" font-family="Arial" font-size="12" text-anchor="middle"><tspan>0</tspan></text></g><g fill="none" color="#000" stroke="currentColor"><path stroke="#000" d="M118 428v-9m0-400.9v9"/><text transform="translate(118 449.9)" stroke="none" fill="#000" font-family="Arial" font-size="12" text-anchor="middle"><tspan>10</tspan></text></g><g fill="none" color="#000" stroke="currentColor"><path stroke="#000" d="M173.9 428v-9m0-400.9v9"/><text transform="translate(173.9 449.9)" stroke="none" fill="#000" font-family="Arial" font-size="12" text-anchor="middle"><tspan>20</tspan></text></g><g fill="none" color="#000" stroke="currentColor"><path stroke="#000" d="M229.7 428v-9m0-400.9v9"/><text transform="translate(229.7 449.9)" stroke="none" fill="#000" font-family="Arial" font-size="12" text-anchor="middle"><tspan>30</tspan></text></g><g fill="none" color="#000" stroke="currentColor"><path stroke="#000" d="M285.6 428v-9m0-400.9v9"/><text transform="translate(285.6 449.9)" stroke="none" fill="#000" font-family="Arial" font-size="12" text-anchor="middle"><tspan>40</tspan></text></g><g fill="none" color="#000" stroke="currentColor"><path stroke="#000" d="M341.4 428v-9m0-400.9v9"/><text transform="translate(341.4 449.9)" stroke="none" fill="#000" font-family="Arial" font-size="12" text-anchor="middle"><tspan>50</tspan></text></g><g fill="none" color="#000" stroke="currentColor"><path stroke="#000" d="M397.2 428v-9m0-400.9v9"/><text transform="translate(397.2 449.9)" stroke="none" fill="#000" font-family="Arial" font-size="12" text-anchor="middle"><tspan>60</tspan></text></g><g fill="none" color="#000" stroke="currentColor"><path stroke="#000" d="M453.1 428v-9m0-400.9v9"/><text transform="translate(453.1 449.9)" stroke="none" fill="#000" font-family="Arial" font-size="12" text-anchor="middle"><tspan>70</tspan></text></g><g fill="none" color="#000" stroke="currentColor"><path stroke="#000" d="M508.9 428v-9m0-400.9v9"/><text transform="translate(508.9 449.9)" stroke="none" fill="#000" font-family="Arial" font-size="12" text-anchor="middle"><tspan>80</tspan></text></g><g fill="none" color="#000" stroke="currentColor"><path stroke="#000" d="M564.7 428v-9m0-400.9v9"/><text transform="translate(564.7 449.9)" stroke="none" fill="#000" font-family="Arial" font-size="12" text-anchor="middle"><tspan>90</tspan></text></g><path stroke="#000" d="M62.2 18.1V428H615V18.1H62.2z" fill="none" color="#000"/><text transform="translate(279.8 467.9)" stroke="none" fill="#000" font-family="Arial" font-size="12" text-anchor="end" color="#000"><tspan>pages+cached</tspan></text><path stroke="#9400D3" d="M288.1 464h42.2M62.2 420.1l5.6-18.5 5.6-1.1 5.6-.6 5.5-.1 5.6-.1 5.6-.1 5.6-.1 5.6-.1 5.6-.1h5.5l5.6-.1 5.6-.2h11.2l5.6-.1 5.5-.1h11.2l5.6-.1h5.6l5.6-.2h5.5l5.6-.1 5.6-.1h11.2l5.6-.1h11.1l5.6-.2h5.6l5.6-.1h11.2l5.5-.2h28l5.5-.3H307.9l5.6-.2 5.6-.3h5.5l5.6-.1H347l5.6-.3h11.1l5.6-.1 5.6-.1h5.6l5.6-.1h5.5l5.6-.1h5.6l5.6-.4h5.6l5.6-.1 5.5-.4 5.6-.1h5.6l5.6-.5h5.6l5.6-.7 5.6-4.4 5.5-121.2 5.6-2.4 5.6-1.9 5.6-.2 5.6-1.2 5.6-60.9 5.5-.3 5.6-.2 5.6-.6 5.6-.2 5.6-.2 5.6-.1 5.5-.8 5.6-.7h5.6l5.6-.5 5.6-.3 5.6-.4h5.5l5.6-.1h5.6l5.6-.3 5.6-.4 5.6-.2 5.5-.3 5.6-.1 5.6-1.9L615 26" fill="none" color="#000"/><text transform="translate(279.8 485.9)" stroke="none" fill="#000" font-family="Arial" font-size="12" text-anchor="end" color="#000"><tspan>pages+cached+nointeractive</tspan></text><path stroke="#009E73" d="M288.1 482h42.2M62.2 403.8l5.6-1.8 5.6-1 5.6-.2 5.5-.5 5.6-.4 5.6-.3 5.6-.1 5.6-.1h5.6l5.5-.1h5.6l5.6-.2 5.6-.2h5.6l5.6-.2h5.5l5.6-.1h5.6l5.6-.1 5.6-.1 5.6-.1h5.5l5.6-.1h5.6l5.6-.1H213l5.5-.2h5.6l5.6-.5 5.6-.1h5.6l5.6-.2 5.6-.2 5.5-.1 5.6-1.9 5.6-127.5 5.6-.4 5.6-.2 5.6-.5 5.5-.6 5.6-.1 5.6-.1 5.6-.1 5.6-.1h5.6l5.5-.2 5.6-.1 5.6-.9 5.6-1.9 5.6-57.4 5.6-1.8h11.1l5.6-.2 5.6-.4 5.6-.5h11.1l5.6-.2h5.6l5.6-.3h11.2l5.5-.1 5.6-.1 5.6-.1h11.2l5.6-.2 5.6-.4h11.1l5.6-.2 5.6-.1 5.6-.1h5.6l5.5-.1h5.6l5.6-.1h5.6l5.6-.1 5.6-.1 5.5-.1h11.2l5.6-.1h5.6l5.6-.2 5.5-.3 5.6-.1 5.6-.1 5.6-.1h5.6l5.6-.1 5.5-.5 5.6-.1 5.6-.2 5.6-.1" fill="none" color="#000"/><text transform="translate(554.4 467.9)" stroke="none" fill="#000" font-family="Arial" font-size="12" text-anchor="end" color="#000"><tspan>score p10=3572</tspan></text><path stroke="#56B4E9" d="M562.7 464h42.2" fill="none" color="#000"/><g><text transform="translate(554.4 485.9)" stroke="none" fill="#000" font-family="Arial" font-size="12" text-anchor="end" color="#000"><tspan>score median=6500</tspan></text><path stroke="#E69F00" d="M562.7 482h42.2" fill="none" color="#000"/></g><g fill="none" color="#000" stroke="currentColor"><path stroke="#000" d="M62.2 18.1V428H615V18.1H62.2z"/></g></svg>