<svg width="640" height="620" xmlns="http://www.w3.org/2000/svg" xmlns:xlink="http://www.w3.org/1999/xlink"><path fill="#fff" d="M0 0h640v620H0z"/><defs><path id="d" stroke-width=".222" stroke="currentColor" d="M-1-1h2v2h-2z"/><path id="b" stroke-width=".222" stroke="currentColor" d="M0-1.33l-1.33 2h2.66z"/><path id="f" stroke-width=".222" stroke="currentColor" d="M0 1.33L1.265.411.782-1.067l-1.564-.009-.483 1.487z"/><use xlink:href="#b" id="c" stroke="currentColor" transform="rotate(180)"/><use xlink:href="#d" id="e" stroke="currentColor" transform="rotate(45)"/><circle id="a" stroke-width=".222" stroke="currentColor" cx="0" cy="0" r="1"/></defs><g fill="none" color="#000" stroke="currentColor"><path stroke="#000" d="M62.2 327.1h9m543.8 0h-9"/><text transform="translate(53.9 331)" stroke="none" fill="#000" font-family="Arial" font-size="12" text-anchor="end"><tspan>0.7</tspan></text></g><g fill="none" color="#000" stroke="currentColor"><path stroke="#000" d="M62.2 276.6h9m543.8 0h-9"/><text transform="translate(53.9 280.5)" stroke="none" fill="#000" font-family="Arial" font-size="12" text-anchor="end"><tspan>0.75</tspan></text></g><g fill="none" color="#000" stroke="currentColor"><path stroke="#000" d="M62.2 226.1h9m543.8 0h-9"/><text transform="translate(53.9 230)" stroke="none" fill="#000" font-family="Arial" font-size="12" text-anchor="end"><tspan>0.8</tspan></text></g><g fill="none" color="#000" stroke="currentColor"><path stroke="#000" d="M62.2 175.6h9m543.8 0h-9"/><text transform="translate(53.9 179.5)" stroke="none" fill="#000" font-family="Arial" font-size="12" text-anchor="end"><tspan>0.85</tspan></text></g><g fill="none" color="#000" stroke="currentColor"><path stroke="#000" d="M62.2 125.1h9m543.8 0h-9"/><text transform="translate(53.9 129)" stroke="none" fill="#000" font-family="Arial" font-size="12" text-anchor="end"><tspan>0.9</tspan></text></g><g fill="none" color="#000" stroke="currentColor"><path stroke="#000" d="M62.2 74.6h9m543.8 0h-9"/><text transform="translate(53.9 78.5)" stroke="none" fill="#000" font-family="Arial" font-size="12" text-anchor="end"><tspan>0.95</tspan></text></g><g fill="none" color="#000" stroke="currentColor"><path stroke="#000" d="M62.2 24.1h9m543.8 0h-9"/><text transform="translate(53.9 28)" stroke="none" fill="#000" font-family="Arial" font-size="12" text-anchor="end"><tspan>1</tspan></text></g><g fill="none" color="#000" stroke="currentColor"><path stroke="#000" d="M62.2 332v-9m0-304.9v9"/><text transform="translate(62.2 353.9)" stroke="none" fill="#000" font-family="Arial" font-size="12" text-anchor="middle"><tspan>0</tspan></text></g><g fill="none" color="#000" stroke="currentColor"><path stroke="#000" d="M118 332v-9m0-304.9v9"/><text transform="translate(118 353.9)" stroke="none" fill="#000" font-family="Arial" font-size="12" text-anchor="middle"><tspan>10</tspan></text></g><g fill="none" color="#000" stroke="currentColor"><path stroke="#000" d="M173.9 332v-9m0-304.9v9"/><text transform="translate(173.9 353.9)" stroke="none" fill="#000" font-family="Arial" font-size="12" text-anchor="middle"><tspan>20</tspan></text></g><g fill="none" color="#000" stroke="currentColor"><path stroke="#000" d="M229.7 332v-9m0-304.9v9"/><text transform="translate(229.7 353.9)" stroke="none" fill="#000" font-family="Arial" font-size="12" text-anchor="middle"><tspan>30</tspan></text></g><g fill="none" color="#000" stroke="currentColor"><path stroke="#000" d="M285.6 332v-9m0-304.9v9"/><text transform="translate(285.6 353.9)" stroke="none" fill="#000" font-family="Arial" font-size="12" text-anchor="middle"><tspan>40</tspan></text></g><g fill="none" color="#000" stroke="currentColor"><path stroke="#000" d="M341.4 332v-9m0-304.9v9"/><text transform="translate(341.4 353.9)" stroke="none" fill="#000" font-family="Arial" font-size="12" text-anchor="middle"><tspan>50</tspan></text></g><g fill="none" color="#000" stroke="currentColor"><path stroke="#000" d="M397.2 332v-9m0-304.9v9"/><text transform="translate(397.2 353.9)" stroke="none" fill="#000" font-family="Arial" font-size="12" text-anchor="middle"><tspan>60</tspan></text></g><g fill="none" color="#000" stroke="currentColor"><path stroke="#000" d="M453.1 332v-9m0-304.9v9"/><text transform="translate(453.1 353.9)" stroke="none" fill="#000" font-family="Arial" font-size="12" text-anchor="middle"><tspan>70</tspan></text></g><g fill="none" color="#000" stroke="currentColor"><path stroke="#000" d="M508.9 332v-9m0-304.9v9"/><text transform="translate(508.9 353.9)" stroke="none" fill="#000" font-family="Arial" font-size="12" text-anchor="middle"><tspan>80</tspan></text></g><g fill="none" color="#000" stroke="currentColor"><path stroke="#000" d="M564.7 332v-9m0-304.9v9"/><text transform="translate(564.7 353.9)" stroke="none" fill="#000" font-family="Arial" font-size="12" text-anchor="middle"><tspan>90</tspan></text></g><path stroke="#000" d="M62.2 18.1V332H615V18.1H62.2z" fill="none" color="#000"/><text transform="translate(533.3 371.9)" stroke="none" fill="#000" font-family="Arial" font-size="12" text-anchor="end" color="#000"><tspan>empty</tspan></text><path stroke="#9400D3" d="M541.6 368h42.2M62.2 24.1H615" fill="none" color="#000"/><text transform="translate(533.3 389.9)" stroke="none" fill="#000" font-family="Arial" font-size="12" text-anchor="end" color="#000"><tspan>pages</tspan></text><path stroke="#009E73" d="M541.6 386h42.2M62.2 326l5.6-32.5 5.6-238.7L79 34l5.5-.1 5.6-.1 5.6-.6 5.6-1.9 5.6-.1 5.6-.3 5.5-.3 5.6-.1 5.6-.2h11.2l5.6-.1 5.5-.3 5.6-.4 5.6-.1 5.6-.1H263.2l5.6-.1H458.7l5.5-.1H615" fill="none" color="#000"/><text transform="translate(533.3 407.9)" stroke="none" fill="#000" font-family="Arial" font-size="12" text-anchor="end" color="#000"><tspan>pages+cached</tspan></text><path stroke="#56B4E9" d="M541.6 404h42.2M62.2 40.9l5.6-6.2 5.6-.1h67l5.6-.1h39l5.6-1.8h11.2l5.6-.1 5.6-.1 5.5-2.8 5.6-.1H447.5l5.6-.1H609.4l5.6-.4" fill="none" color="#000"/><text transform="translate(533.3 425.9)" stroke="none" fill="#000" font-family="Arial" font-size="12" text-anchor="end" color="#000"><tspan>pages+cached+nointeractive</tspan></text><path stroke="#E69F00" d="M541.6 422h42.2M62.2 34.6h33.5l5.6-.1H296.7l5.6-.1h27.9l5.6-1.7h5.6l5.6-.1H408.4l5.6-3H469.8l5.6-.1H609.4l5.6-.1" fill="none" color="#000"/><text transform="translate(533.3 443.9)" stroke="none" fill="#000" font-family="Arial" font-size="12" text-anchor="end" color="#000"><tspan>pages+cached+noadtech</tspan></text><path stroke="#F0E442" d="M541.6 440h42.2M62.2 31.1h11.2L79 31H190.6l5.6-.1H302.3l5.6-.1h16.7l5.6-1.2H386.1l5.5-.1 5.6-2 5.6-.1H587.1l5.6-.1H615" fill="none" color="#000"/><text transform="translate(533.3 461.9)" stroke="none" fill="#000" font-family="Arial" font-size="12" text-anchor="end" color="#000"><tspan>pages+cached+noexternal</tspan></text><path stroke="#0072B2" d="M541.6 458h42.2M62.2 31H173.9l5.6-.1H302.3l5.6-.1 5.6-1.2H347l5.6-.1h11.1l5.6-2.1H603.8l5.6-.1h5.6" fill="none" color="#000"/><text transform="translate(533.3 479.9)" stroke="none" fill="#000" font-family="Arial" font-size="12" text-anchor="end" color="#000"><tspan>pages+cached+noexternal+nofonts</tspan></text><path stroke="#E51E10" d="M541.6 476h42.2M62.2 32.6h33.5l5.6-.1h33.5l5.6-.1h27.9l5.6-4 5.6-.1h16.7l5.6-1h44.7l5.6-2.2h11.1l5.6-.1H615" fill="none" color="#000"/><g><text transform="translate(533.3 497.9)" stroke="none" fill="#000" font-family="Arial" font-size="12" text-anchor="end" color="#000"><tspan>pages+cached+noexternal+nosvg</tspan></text><path stroke="#000" d="M541.6 494h42.2M62.2 31h5.6l5.6-.1h11.1l5.6-.1 5.6-3.4H514.5l5.6-.1H615" fill="none" color="#000"/></g><g><text transform="translate(533.3 515.9)" stroke="none" fill="#000" font-family="Arial" font-size="12" text-anchor="end" color="#000"><tspan>pages+cached+noexternal+noimg</tspan></text><path stroke="#9400D3" d="M541.6 512h42.2M62.2 31h5.6l5.6-.1H280l5.6-.1h50.2l5.6-1.2h5.6l5.6-.1H414l5.6-.1 5.5-2H548l5.6-.1H615" fill="none" color="#000"/></g><g><text transform="translate(533.3 533.9)" stroke="none" fill="#000" font-family="Arial" font-size="12" text-anchor="end" color="#000"><tspan>pages+cached+noexternal+nocss</tspan></text><path stroke="#009E73" d="M541.6 530h42.2M62.2 26H430.7l5.6-.1H615" fill="none" color="#000"/></g><g><text transform="translate(533.3 551.9)" stroke="none" fill="#000" font-family="Arial" font-size="12" text-anchor="end" color="#000"><tspan>pages+cached+noexternal+nojs</tspan></text><path stroke="#56B4E9" d="M541.6 548h42.2M62.2 25.1H553.6l5.6-.1H615" fill="none" color="#000"/></g><g><text transform="translate(533.3 569.9)" stroke="none" fill="#000" font-family="Arial" font-size="12" text-anchor="end" color="#000"><tspan>pages+cached+noexternal+nofonts+nosvg+noimg</tspan></text><path stroke="#E69F00" d="M541.6 566h42.2M62.2 32.5h11.2l5.6-.1h39l5.6-.1h11.2l5.6-4h5.6l5.5-1h28L185 25H615" fill="none" color="#000"/></g><g><text transform="translate(533.3 587.9)" stroke="none" fill="#000" font-family="Arial" font-size="12" text-anchor="end" color="#000"><tspan>pages+cached+noexternal+nofonts+nosvg+noimg+nocss</tspan></text><path stroke="#F0E442" d="M541.6 584h42.2M62.2 26H79l5.5-.1H615" fill="none" color="#000"/></g><g><text transform="translate(533.3 605.9)" stroke="none" fill="#000" font-family="Arial" font-size="12" text-anchor="end" color="#000"><tspan>pages+cached+noexternal+nofonts+nosvg+noimg+nocss+nojs</tspan></text><path stroke="#0072B2" d="M541.6 602h42.2M62.2 25H615" fill="none" color="#000"/></g><g fill="none" color="#000" stroke="currentColor"><path stroke="#000" d="M62.2 18.1V332H615V18.1H62.2z"/></g></svg>