<svg width="640" height="520" xmlns="http://www.w3.org/2000/svg" xmlns:xlink="http://www.w3.org/1999/xlink"><path fill="#fff" d="M0 0h640v520H0z"/><defs><path id="g" stroke-width=".222" stroke="currentColor" d="M-1 0h2M0-1v2"/><path id="h" stroke-width=".222" stroke="currentColor" d="M-1-1l2 2m0-2l-2 2"/><path id="i" stroke-width=".222" stroke="currentColor" d="M-1 0h2M0-1v2m-1-2l2 2m-2 0l2-2"/><path id="d" stroke-width=".222" stroke="currentColor" d="M-1-1h2v2h-2z"/><path id="b" stroke-width=".222" stroke="currentColor" d="M0-1.33l-1.33 2h2.66z"/><path id="f" stroke-width=".222" stroke="currentColor" d="M0 1.33L1.265.411.782-1.067l-1.564-.009-.483 1.487z"/><use xlink:href="#b" id="c" stroke="currentColor" transform="rotate(180)"/><use xlink:href="#d" id="e" stroke="currentColor" transform="rotate(45)"/><circle id="a" stroke-width=".222" stroke="currentColor" cx="0" cy="0" r="1"/></defs><g fill="none" color="#000" stroke="currentColor"><path stroke="#000" d="M70.5 457.4h9m535.5 0h-9"/><text transform="translate(62.2 461.3)" stroke="none" fill="#000" font-family="Arial" font-size="12" text-anchor="end"><tspan>0</tspan></text></g><g fill="none" color="#000" stroke="currentColor"><path stroke="#000" d="M70.5 380.2h9m535.5 0h-9"/><text transform="translate(62.2 384.1)" stroke="none" fill="#000" font-family="Arial" font-size="12" text-anchor="end"><tspan>5000</tspan></text></g><g fill="none" color="#000" stroke="currentColor"><path stroke="#000" d="M70.5 303h9m535.5 0h-9"/><text transform="translate(62.2 306.9)" stroke="none" fill="#000" font-family="Arial" font-size="12" text-anchor="end"><tspan>10000</tspan></text></g><g fill="none" color="#000" stroke="currentColor"><path stroke="#000" d="M70.5 225.8h9m535.5 0h-9"/><text transform="translate(62.2 229.7)" stroke="none" fill="#000" font-family="Arial" font-size="12" text-anchor="end"><tspan>15000</tspan></text></g><g fill="none" color="#000" stroke="currentColor"><path stroke="#000" d="M70.5 148.7h9m535.5 0h-9"/><text transform="translate(62.2 152.6)" stroke="none" fill="#000" font-family="Arial" font-size="12" text-anchor="end"><tspan>20000</tspan></text></g><g fill="none" color="#000" stroke="currentColor"><path stroke="#000" d="M70.5 71.5h9m535.5 0h-9"/><text transform="translate(62.2 75.4)" stroke="none" fill="#000" font-family="Arial" font-size="12" text-anchor="end"><tspan>25000</tspan></text></g><g fill="none" color="#000" stroke="currentColor"><path stroke="#000" d="M70.5 466v-9m0-438.9v9"/><text transform="translate(70.5 487.9)" stroke="none" fill="#000" font-family="Arial" font-size="12" text-anchor="middle"><tspan>0</tspan></text></g><g fill="none" color="#000" stroke="currentColor"><path stroke="#000" d="M154.3 466v-9m0-438.9v9"/><text transform="translate(154.3 487.9)" stroke="none" fill="#000" font-family="Arial" font-size="12" text-anchor="middle"><tspan>2</tspan></text></g><g fill="none" color="#000" stroke="currentColor"><path stroke="#000" d="M238 466v-9m0-438.9v9"/><text transform="translate(238 487.9)" stroke="none" fill="#000" font-family="Arial" font-size="12" text-anchor="middle"><tspan>4</tspan></text></g><g fill="none" color="#000" stroke="currentColor"><path stroke="#000" d="M321.8 466v-9m0-438.9v9"/><text transform="translate(321.8 487.9)" stroke="none" fill="#000" font-family="Arial" font-size="12" text-anchor="middle"><tspan>6</tspan></text></g><g fill="none" color="#000" stroke="currentColor"><path stroke="#000" d="M405.6 466v-9m0-438.9v9"/><text transform="translate(405.6 487.9)" stroke="none" fill="#000" font-family="Arial" font-size="12" text-anchor="middle"><tspan>8</tspan></text></g><g fill="none" color="#000" stroke="currentColor"><path stroke="#000" d="M489.3 466v-9m0-438.9v9"/><text transform="translate(489.3 487.9)" stroke="none" fill="#000" font-family="Arial" font-size="12" text-anchor="middle"><tspan>10</tspan></text></g><g fill="none" color="#000" stroke="currentColor"><path stroke="#000" d="M573.1 466v-9m0-438.9v9"/><text transform="translate(573.1 487.9)" stroke="none" fill="#000" font-family="Arial" font-size="12" text-anchor="middle"><tspan>12</tspan></text></g><path stroke="#000" d="M70.5 18.1V466H615V18.1H70.5z" fill="none" color="#000"/><text transform="translate(150.4 505.9)" stroke="none" fill="#000" font-family="Arial" font-size="12" text-anchor="end" color="#000"><tspan>p90min</tspan></text><g fill="none" color="#000" stroke="currentColor"><path stroke="#9400D3" d="M158.7 502h42.2M70.5 457.4l41.9-426.1 41.9 2.4h209.4l41.9 423.7 41.9-426.1 41.8 426.1H615"/><use xlink:href="#g" transform="matrix(4.5 0 0 4.5 70.5 457.4)" color="#9400D3"/><use xlink:href="#g" transform="matrix(4.5 0 0 4.5 112.4 31.3)" color="#9400D3"/><use xlink:href="#g" transform="matrix(4.5 0 0 4.5 154.3 33.7)" color="#9400D3"/><use xlink:href="#g" transform="matrix(4.5 0 0 4.5 196.2 33.7)" color="#9400D3"/><use xlink:href="#g" transform="matrix(4.5 0 0 4.5 238 33.7)" color="#9400D3"/><use xlink:href="#g" transform="matrix(4.5 0 0 4.5 279.9 33.7)" color="#9400D3"/><use xlink:href="#g" transform="matrix(4.5 0 0 4.5 321.8 33.7)" color="#9400D3"/><use xlink:href="#g" transform="matrix(4.5 0 0 4.5 363.7 33.7)" color="#9400D3"/><use xlink:href="#g" transform="matrix(4.5 0 0 4.5 405.6 457.4)" color="#9400D3"/><use xlink:href="#g" transform="matrix(4.5 0 0 4.5 447.5 31.3)" color="#9400D3"/><use xlink:href="#g" transform="matrix(4.5 0 0 4.5 489.3 457.4)" color="#9400D3"/><use xlink:href="#g" transform="matrix(4.5 0 0 4.5 531.2 457.4)" color="#9400D3"/><use xlink:href="#g" transform="matrix(4.5 0 0 4.5 573.1 457.4)" color="#9400D3"/><use xlink:href="#g" transform="matrix(4.5 0 0 4.5 615 457.4)" color="#9400D3"/><use xlink:href="#g" transform="matrix(4.5 0 0 4.5 179.8 502)" color="#9400D3"/></g><text transform="translate(283.9 505.9)" stroke="none" fill="#000" font-family="Arial" font-size="12" text-anchor="end" color="#000"><tspan>p90mean</tspan></text><g fill="none" color="#000" stroke="currentColor"><path stroke="#009E73" d="M292.2 502h42.2M70.5 457.4L112.4 29l41.9 3.3 41.9-.4L238 33l41.9-.2 41.9.4 41.9.5 41.9 423.7 41.9-426.1 41.8 426.1H615"/><use xlink:href="#h" transform="matrix(4.5 0 0 4.5 70.5 457.4)" color="#009E73"/><use xlink:href="#h" transform="matrix(4.5 0 0 4.5 112.4 29)" color="#009E73"/><use xlink:href="#h" transform="matrix(4.5 0 0 4.5 154.3 32.3)" color="#009E73"/><use xlink:href="#h" transform="matrix(4.5 0 0 4.5 196.2 31.9)" color="#009E73"/><use xlink:href="#h" transform="matrix(4.5 0 0 4.5 238 33)" color="#009E73"/><use xlink:href="#h" transform="matrix(4.5 0 0 4.5 279.9 32.8)" color="#009E73"/><use xlink:href="#h" transform="matrix(4.5 0 0 4.5 321.8 33.2)" color="#009E73"/><use xlink:href="#h" transform="matrix(4.5 0 0 4.5 363.7 33.7)" color="#009E73"/><use xlink:href="#h" transform="matrix(4.5 0 0 4.5 405.6 457.4)" color="#009E73"/><use xlink:href="#h" transform="matrix(4.5 0 0 4.5 447.5 31.3)" color="#009E73"/><use xlink:href="#h" transform="matrix(4.5 0 0 4.5 489.3 457.4)" color="#009E73"/><use xlink:href="#h" transform="matrix(4.5 0 0 4.5 531.2 457.4)" color="#009E73"/><use xlink:href="#h" transform="matrix(4.5 0 0 4.5 573.1 457.4)" color="#009E73"/><use xlink:href="#h" transform="matrix(4.5 0 0 4.5 615 457.4)" color="#009E73"/><use xlink:href="#h" transform="matrix(4.5 0 0 4.5 313.3 502)" color="#009E73"/></g><text transform="translate(417.4 505.9)" stroke="none" fill="#000" font-family="Arial" font-size="12" text-anchor="end" color="#000"><tspan>p90median</tspan></text><g fill="none" color="#000" stroke="currentColor"><path stroke="#56B4E9" d="M425.7 502h42.2M70.5 457.4L112.4 29l41.9 2.3h41.9l41.8 2.4H363.7l41.9 423.7 41.9-426.1 41.8 426.1H615"/><use xlink:href="#i" transform="matrix(4.5 0 0 4.5 70.5 457.4)" color="#56B4E9"/><use xlink:href="#i" transform="matrix(4.5 0 0 4.5 112.4 29)" color="#56B4E9"/><use xlink:href="#i" transform="matrix(4.5 0 0 4.5 154.3 31.3)" color="#56B4E9"/><use xlink:href="#i" transform="matrix(4.5 0 0 4.5 196.2 31.3)" color="#56B4E9"/><use xlink:href="#i" transform="matrix(4.5 0 0 4.5 238 33.7)" color="#56B4E9"/><use xlink:href="#i" transform="matrix(4.5 0 0 4.5 279.9 33.7)" color="#56B4E9"/><use xlink:href="#i" transform="matrix(4.5 0 0 4.5 321.8 33.7)" color="#56B4E9"/><use xlink:href="#i" transform="matrix(4.5 0 0 4.5 363.7 33.7)" color="#56B4E9"/><use xlink:href="#i" transform="matrix(4.5 0 0 4.5 405.6 457.4)" color="#56B4E9"/><use xlink:href="#i" transform="matrix(4.5 0 0 4.5 447.5 31.3)" color="#56B4E9"/><use xlink:href="#i" transform="matrix(4.5 0 0 4.5 489.3 457.4)" color="#56B4E9"/><use xlink:href="#i" transform="matrix(4.5 0 0 4.5 531.2 457.4)" color="#56B4E9"/><use xlink:href="#i" transform="matrix(4.5 0 0 4.5 573.1 457.4)" color="#56B4E9"/><use xlink:href="#i" transform="matrix(4.5 0 0 4.5 615 457.4)" color="#56B4E9"/><use xlink:href="#i" transform="matrix(4.5 0 0 4.5 446.8 502)" color="#56B4E9"/></g><g><text transform="translate(550.9 505.9)" stroke="none" fill="#000" font-family="Arial" font-size="12" text-anchor="end" color="#000"><tspan>p90max</tspan></text><g fill="none" color="#000" stroke="currentColor"><path stroke="#E69F00" d="M559.2 502h42.2M70.5 457.4l41.9-430.7 41.9 4.6h167.5l41.9 2.4 41.9 423.7 41.9-426.1 41.8 426.1H615"/><use xlink:href="#d" transform="matrix(4.5 0 0 4.5 70.5 457.4)" color="#E69F00"/><use xlink:href="#d" transform="matrix(4.5 0 0 4.5 112.4 26.7)" color="#E69F00"/><use xlink:href="#d" transform="matrix(4.5 0 0 4.5 154.3 31.3)" color="#E69F00"/><use xlink:href="#d" transform="matrix(4.5 0 0 4.5 196.2 31.3)" color="#E69F00"/><use xlink:href="#d" transform="matrix(4.5 0 0 4.5 238 31.3)" color="#E69F00"/><use xlink:href="#d" transform="matrix(4.5 0 0 4.5 279.9 31.3)" color="#E69F00"/><use xlink:href="#d" transform="matrix(4.5 0 0 4.5 321.8 31.3)" color="#E69F00"/><use xlink:href="#d" transform="matrix(4.5 0 0 4.5 363.7 33.7)" color="#E69F00"/><use xlink:href="#d" transform="matrix(4.5 0 0 4.5 405.6 457.4)" color="#E69F00"/><use xlink:href="#d" transform="matrix(4.5 0 0 4.5 447.5 31.3)" color="#E69F00"/><use xlink:href="#d" transform="matrix(4.5 0 0 4.5 489.3 457.4)" color="#E69F00"/><use xlink:href="#d" transform="matrix(4.5 0 0 4.5 531.2 457.4)" color="#E69F00"/><use xlink:href="#d" transform="matrix(4.5 0 0 4.5 573.1 457.4)" color="#E69F00"/><use xlink:href="#d" transform="matrix(4.5 0 0 4.5 615 457.4)" color="#E69F00"/><use xlink:href="#d" transform="matrix(4.5 0 0 4.5 580.3 502)" color="#E69F00"/></g></g><g fill="none" color="#000" stroke="currentColor"><path stroke="#000" d="M70.5 18.1V466H615V18.1H70.5z"/></g></svg>