<svg width="640" height="490" xmlns="http://www.w3.org/2000/svg" xmlns:xlink="http://www.w3.org/1999/xlink"><path fill="#fff" d="M0 0h640v490H0z"/><defs><path id="d" stroke-width=".222" stroke="currentColor" d="M-1-1h2v2h-2z"/><path id="b" stroke-width=".222" stroke="currentColor" d="M0-1.33l-1.33 2h2.66z"/><path id="f" stroke-width=".222" stroke="currentColor" d="M0 1.33L1.265.411.782-1.067l-1.564-.009-.483 1.487z"/><use xlink:href="#b" id="c" stroke="currentColor" transform="rotate(180)"/><use xlink:href="#d" id="e" stroke="currentColor" transform="rotate(45)"/><circle id="a" stroke-width=".222" stroke="currentColor" cx="0" cy="0" r="1"/></defs><g fill="none" color="#000" stroke="currentColor"><path stroke="#000" d="M53.9 398.4h9m552.1 0h-9"/><text transform="translate(45.6 402.3)" stroke="none" fill="#000" font-family="Arial" font-size="12" text-anchor="end"><tspan>626</tspan></text></g><g fill="none" color="#000" stroke="currentColor"><path stroke="#000" d="M53.9 327.8h9m552.1 0h-9"/><text transform="translate(45.6 331.7)" stroke="none" fill="#000" font-family="Arial" font-size="12" text-anchor="end"><tspan>628</tspan></text></g><g fill="none" color="#000" stroke="currentColor"><path stroke="#000" d="M53.9 257.2h9m552.1 0h-9"/><text transform="translate(45.6 261.1)" stroke="none" fill="#000" font-family="Arial" font-size="12" text-anchor="end"><tspan>630</tspan></text></g><g fill="none" color="#000" stroke="currentColor"><path stroke="#000" d="M53.9 186.7h9m552.1 0h-9"/><text transform="translate(45.6 190.6)" stroke="none" fill="#000" font-family="Arial" font-size="12" text-anchor="end"><tspan>632</tspan></text></g><g fill="none" color="#000" stroke="currentColor"><path stroke="#000" d="M53.9 116.1h9m552.1 0h-9"/><text transform="translate(45.6 120)" stroke="none" fill="#000" font-family="Arial" font-size="12" text-anchor="end"><tspan>634</tspan></text></g><g fill="none" color="#000" stroke="currentColor"><path stroke="#000" d="M53.9 45.5h9m552.1 0h-9"/><text transform="translate(45.6 49.4)" stroke="none" fill="#000" font-family="Arial" font-size="12" text-anchor="end"><tspan>636</tspan></text></g><g fill="none" color="#000" stroke="currentColor"><path stroke="#000" d="M53.9 436v-9m0-408.9v9"/><text transform="translate(53.9 457.9)" stroke="none" fill="#000" font-family="Arial" font-size="12" text-anchor="middle"><tspan>0</tspan></text></g><g fill="none" color="#000" stroke="currentColor"><path stroke="#000" d="M110.6 436v-9m0-408.9v9"/><text transform="translate(110.6 457.9)" stroke="none" fill="#000" font-family="Arial" font-size="12" text-anchor="middle"><tspan>10</tspan></text></g><g fill="none" color="#000" stroke="currentColor"><path stroke="#000" d="M167.3 436v-9m0-408.9v9"/><text transform="translate(167.3 457.9)" stroke="none" fill="#000" font-family="Arial" font-size="12" text-anchor="middle"><tspan>20</tspan></text></g><g fill="none" color="#000" stroke="currentColor"><path stroke="#000" d="M223.9 436v-9m0-408.9v9"/><text transform="translate(223.9 457.9)" stroke="none" fill="#000" font-family="Arial" font-size="12" text-anchor="middle"><tspan>30</tspan></text></g><g fill="none" color="#000" stroke="currentColor"><path stroke="#000" d="M280.6 436v-9m0-408.9v9"/><text transform="translate(280.6 457.9)" stroke="none" fill="#000" font-family="Arial" font-size="12" text-anchor="middle"><tspan>40</tspan></text></g><g fill="none" color="#000" stroke="currentColor"><path stroke="#000" d="M337.3 436v-9m0-408.9v9"/><text transform="translate(337.3 457.9)" stroke="none" fill="#000" font-family="Arial" font-size="12" text-anchor="middle"><tspan>50</tspan></text></g><g fill="none" color="#000" stroke="currentColor"><path stroke="#000" d="M394 436v-9m0-408.9v9"/><text transform="translate(394 457.9)" stroke="none" fill="#000" font-family="Arial" font-size="12" text-anchor="middle"><tspan>60</tspan></text></g><g fill="none" color="#000" stroke="currentColor"><path stroke="#000" d="M450.6 436v-9m0-408.9v9"/><text transform="translate(450.6 457.9)" stroke="none" fill="#000" font-family="Arial" font-size="12" text-anchor="middle"><tspan>70</tspan></text></g><g fill="none" color="#000" stroke="currentColor"><path stroke="#000" d="M507.3 436v-9m0-408.9v9"/><text transform="translate(507.3 457.9)" stroke="none" fill="#000" font-family="Arial" font-size="12" text-anchor="middle"><tspan>80</tspan></text></g><g fill="none" color="#000" stroke="currentColor"><path stroke="#000" d="M564 436v-9m0-408.9v9"/><text transform="translate(564 457.9)" stroke="none" fill="#000" font-family="Arial" font-size="12" text-anchor="middle"><tspan>90</tspan></text></g><path stroke="#000" d="M53.9 18.1V436H615V18.1H53.9z" fill="none" color="#000"/><text transform="translate(175.7 475.9)" stroke="none" fill="#000" font-family="Arial" font-size="12" text-anchor="end" color="#000"><tspan>raw</tspan></text><path stroke="#9400D3" d="M184 472h42.2M53.9 43.1l5.7 368 5.6-94.1 5.7-96.4 5.7 95.1 5.6-33.8 5.7 61.9 5.7-28.9 5.6 38.4 5.7 61.8 5.7 8 5.6-102.6 5.7-3.3 5.7-139.4 5.6 103h5.7l5.7 40.3 5.7-1.7 5.6-33.9 5.7 34.7 5.7-.5 5.6 68.8 5.7-67.3 5.7.5 5.6 1.6 5.7 32.1 5.7-35.6 5.6.6 5.7-36.1 5.7-.1 5.6-138.7 5.7 140.2 5.7-.1 5.6-1.1 5.7-141.2 5.7 141.3 5.6 100.7 5.7-64.1 5.7 36.2 5.6-44.5 5.7 42.2 5.7-33.7 5.6.6 5.7-38.8 5.7 75.4 5.6 30.8 5.7-70.1 5.7-4.8 5.6-100.8 5.7-187.6 5.7 364.5 5.7-138.4 5.6 1.2 5.7-109.8 5.7 71.7 5.6 108.5 5.7-2.2 5.7-36.5 5.6 98.4 5.7-59.4 5.7-74 5.6 105.4 5.7-36.1 5.7 1.2 5.6 35.3 5.7-33.5 5.7 104.5 5.6-69.1 5.7-146.2 5.7 73 5.6 35.9 5.7 105.9 5.7-106.3 5.6 1.6 5.7-33 5.7 33.8 5.6.8 5.7 61 5.7-98.6 5.6 35.7 5.7 106.6 5.7-108.3 5.6 36.6 5.7-70.5 5.7 68.3 5.7 30.5 5.6 30 5.7-96.5 5.7 38.5 5.6-34.5 5.7-1.8 5.7-3 5.6 107.1 5.7-141.5 5.7 39.2 5.6-75.2 5.7 75.7 5.7 29.8 5.6 72.6 5.7-280.2" fill="none" color="#000"/><text transform="translate(375.6 475.9)" stroke="none" fill="#000" font-family="Arial" font-size="12" text-anchor="end" color="#000"><tspan>score p10=2500</tspan></text><path stroke="#009E73" d="M383.9 472h42.2" fill="none" color="#000"/><text transform="translate(575.5 475.9)" stroke="none" fill="#000" font-family="Arial" font-size="12" text-anchor="end" color="#000"><tspan>score median=4000</tspan></text><path stroke="#56B4E9" d="M583.8 472H626" fill="none" color="#000"/><g fill="none" color="#000" stroke="currentColor"><path stroke="#000" d="M53.9 18.1V436H615V18.1H53.9z"/></g></svg>