<svg width="640" height="490" xmlns="http://www.w3.org/2000/svg" xmlns:xlink="http://www.w3.org/1999/xlink"><path fill="#fff" d="M0 0h640v490H0z"/><defs><path id="d" stroke-width=".222" stroke="currentColor" d="M-1-1h2v2h-2z"/><path id="b" stroke-width=".222" stroke="currentColor" d="M0-1.33l-1.33 2h2.66z"/><path id="f" stroke-width=".222" stroke="currentColor" d="M0 1.33L1.265.411.782-1.067l-1.564-.009-.483 1.487z"/><use xlink:href="#b" id="c" stroke="currentColor" transform="rotate(180)"/><use xlink:href="#d" id="e" stroke="currentColor" transform="rotate(45)"/><circle id="a" stroke-width=".222" stroke="currentColor" cx="0" cy="0" r="1"/></defs><g fill="none" color="#000" stroke="currentColor"><path stroke="#000" d="M45.6 391.7h9m560.4 0h-9"/><text transform="translate(37.3 395.6)" stroke="none" fill="#000" font-family="Arial" font-size="12" text-anchor="end"><tspan>5</tspan></text></g><g fill="none" color="#000" stroke="currentColor"><path stroke="#000" d="M45.6 335.4h9m560.4 0h-9"/><text transform="translate(37.3 339.3)" stroke="none" fill="#000" font-family="Arial" font-size="12" text-anchor="end"><tspan>6</tspan></text></g><g fill="none" color="#000" stroke="currentColor"><path stroke="#000" d="M45.6 279.1h9m560.4 0h-9"/><text transform="translate(37.3 283)" stroke="none" fill="#000" font-family="Arial" font-size="12" text-anchor="end"><tspan>7</tspan></text></g><g fill="none" color="#000" stroke="currentColor"><path stroke="#000" d="M45.6 222.8h9m560.4 0h-9"/><text transform="translate(37.3 226.7)" stroke="none" fill="#000" font-family="Arial" font-size="12" text-anchor="end"><tspan>8</tspan></text></g><g fill="none" color="#000" stroke="currentColor"><path stroke="#000" d="M45.6 166.5h9m560.4 0h-9"/><text transform="translate(37.3 170.4)" stroke="none" fill="#000" font-family="Arial" font-size="12" text-anchor="end"><tspan>9</tspan></text></g><g fill="none" color="#000" stroke="currentColor"><path stroke="#000" d="M45.6 110.2h9m560.4 0h-9"/><text transform="translate(37.3 114.1)" stroke="none" fill="#000" font-family="Arial" font-size="12" text-anchor="end"><tspan>10</tspan></text></g><g fill="none" color="#000" stroke="currentColor"><path stroke="#000" d="M45.6 53.9h9m560.4 0h-9"/><text transform="translate(37.3 57.8)" stroke="none" fill="#000" font-family="Arial" font-size="12" text-anchor="end"><tspan>11</tspan></text></g><g fill="none" color="#000" stroke="currentColor"><path stroke="#000" d="M45.6 436v-9m0-408.9v9"/><text transform="translate(45.6 457.9)" stroke="none" fill="#000" font-family="Arial" font-size="12" text-anchor="middle"><tspan>0</tspan></text></g><g fill="none" color="#000" stroke="currentColor"><path stroke="#000" d="M103.1 436v-9m0-408.9v9"/><text transform="translate(103.1 457.9)" stroke="none" fill="#000" font-family="Arial" font-size="12" text-anchor="middle"><tspan>10</tspan></text></g><g fill="none" color="#000" stroke="currentColor"><path stroke="#000" d="M160.6 436v-9m0-408.9v9"/><text transform="translate(160.6 457.9)" stroke="none" fill="#000" font-family="Arial" font-size="12" text-anchor="middle"><tspan>20</tspan></text></g><g fill="none" color="#000" stroke="currentColor"><path stroke="#000" d="M218.1 436v-9m0-408.9v9"/><text transform="translate(218.1 457.9)" stroke="none" fill="#000" font-family="Arial" font-size="12" text-anchor="middle"><tspan>30</tspan></text></g><g fill="none" color="#000" stroke="currentColor"><path stroke="#000" d="M275.7 436v-9m0-408.9v9"/><text transform="translate(275.7 457.9)" stroke="none" fill="#000" font-family="Arial" font-size="12" text-anchor="middle"><tspan>40</tspan></text></g><g fill="none" color="#000" stroke="currentColor"><path stroke="#000" d="M333.2 436v-9m0-408.9v9"/><text transform="translate(333.2 457.9)" stroke="none" fill="#000" font-family="Arial" font-size="12" text-anchor="middle"><tspan>50</tspan></text></g><g fill="none" color="#000" stroke="currentColor"><path stroke="#000" d="M390.7 436v-9m0-408.9v9"/><text transform="translate(390.7 457.9)" stroke="none" fill="#000" font-family="Arial" font-size="12" text-anchor="middle"><tspan>60</tspan></text></g><g fill="none" color="#000" stroke="currentColor"><path stroke="#000" d="M448.2 436v-9m0-408.9v9"/><text transform="translate(448.2 457.9)" stroke="none" fill="#000" font-family="Arial" font-size="12" text-anchor="middle"><tspan>70</tspan></text></g><g fill="none" color="#000" stroke="currentColor"><path stroke="#000" d="M505.7 436v-9m0-408.9v9"/><text transform="translate(505.7 457.9)" stroke="none" fill="#000" font-family="Arial" font-size="12" text-anchor="middle"><tspan>80</tspan></text></g><g fill="none" color="#000" stroke="currentColor"><path stroke="#000" d="M563.2 436v-9m0-408.9v9"/><text transform="translate(563.2 457.9)" stroke="none" fill="#000" font-family="Arial" font-size="12" text-anchor="middle"><tspan>90</tspan></text></g><path stroke="#000" d="M45.6 18.1V436H615V18.1H45.6z" fill="none" color="#000"/><text transform="translate(313.3 475.9)" stroke="none" fill="#000" font-family="Arial" font-size="12" text-anchor="end" color="#000"><tspan>raw</tspan></text><path stroke="#9400D3" d="M321.6 472h42.2M45.6 261.4l5.8-37 5.7 36.4 5.8 33.9 5.7-53.4 5.8 13.8 5.7 17.1 5.8-30.5 5.7-42.8 5.8 119.9 5.7-80.5 5.8 81.8 5.7-50.3 5.8-34.4 5.7-108.7 5.8 73.2 5.7 104.2 5.8-31.7 5.7-46.2 5.8-32.1 5.7 16.2 5.8 52.9 5.7 63.2 5.8-76.8 5.7 90.6 5.8-44.9 5.7-1 5.8-73.8 5.7 77.1 5.8 28.5 5.7-133.8 5.8 100.4 5.7-19.3 5.8-8.4 5.8 9.3 5.7-64.4 5.8 36.4 5.7 61.3 5.8-31.9 5.7 43.5 5.8-13.9 5.7-56.6 5.8 26.7 5.7-46.2 5.8 42.6 5.7-40.4 5.8 8.7 5.7 24.6 5.8 39.7 5.7-9.9 5.8-74.5 5.7 27.4 5.8-24.6 5.7 64 5.8-.2 5.7-60.1 5.8 25.1 5.7 31.6 5.8-89.8 5.7-167.3 5.8 170.6 5.7 4.3 5.8 227 5.7-120.9 5.8-37.5 5.7 1.1 5.8-31.4 5.8 71.2 5.7 17.1 5.8-27.2 5.7-44 5.8-4.5 5.7 122.1 5.8-107.7 5.7-28.2 5.8 29.7 5.7-90.5 5.8 137.3 5.7 1.2 5.8-26.9 5.7-42.8 5.8 148.6 5.7-93.5 5.8-105.5 5.7 55.9 5.8 13.6 5.7 85.6 5.8-5.4 5.7-77.7 5.8-57.5 5.7 134.6 5.8-126.4 5.7 155.1 5.8-79.2 5.7 48.3 5.8-151 5.7 150.4 5.8 18.3 5.7-123.9 5.8 39.5" fill="none" color="#000"/><g fill="none" color="#000" stroke="currentColor"><path stroke="#000" d="M45.6 18.1V436H615V18.1H45.6z"/></g></svg>