<svg width="640" height="500" xmlns="http://www.w3.org/2000/svg" xmlns:xlink="http://www.w3.org/1999/xlink"><path fill="#fff" d="M0 0h640v500H0z"/><defs><path id="d" stroke-width=".222" stroke="currentColor" d="M-1-1h2v2h-2z"/><path id="b" stroke-width=".222" stroke="currentColor" d="M0-1.33l-1.33 2h2.66z"/><path id="f" stroke-width=".222" stroke="currentColor" d="M0 1.33L1.265.411.782-1.067l-1.564-.009-.483 1.487z"/><use xlink:href="#b" id="c" stroke="currentColor" transform="rotate(180)"/><use xlink:href="#d" id="e" stroke="currentColor" transform="rotate(45)"/><circle id="a" stroke-width=".222" stroke="currentColor" cx="0" cy="0" r="1"/></defs><g fill="none" color="#000" stroke="currentColor"><path stroke="#000" d="M53.9 411.3h9m552.1 0h-9"/><text transform="translate(45.6 415.2)" stroke="none" fill="#000" font-family="Arial" font-size="12" text-anchor="end"><tspan>270</tspan></text></g><g fill="none" color="#000" stroke="currentColor"><path stroke="#000" d="M53.9 367h9m552.1 0h-9"/><text transform="translate(45.6 370.9)" stroke="none" fill="#000" font-family="Arial" font-size="12" text-anchor="end"><tspan>280</tspan></text></g><g fill="none" color="#000" stroke="currentColor"><path stroke="#000" d="M53.9 322.7h9m552.1 0h-9"/><text transform="translate(45.6 326.6)" stroke="none" fill="#000" font-family="Arial" font-size="12" text-anchor="end"><tspan>290</tspan></text></g><g fill="none" color="#000" stroke="currentColor"><path stroke="#000" d="M53.9 278.4h9m552.1 0h-9"/><text transform="translate(45.6 282.3)" stroke="none" fill="#000" font-family="Arial" font-size="12" text-anchor="end"><tspan>300</tspan></text></g><g fill="none" color="#000" stroke="currentColor"><path stroke="#000" d="M53.9 234.1h9m552.1 0h-9"/><text transform="translate(45.6 238)" stroke="none" fill="#000" font-family="Arial" font-size="12" text-anchor="end"><tspan>310</tspan></text></g><g fill="none" color="#000" stroke="currentColor"><path stroke="#000" d="M53.9 189.8h9m552.1 0h-9"/><text transform="translate(45.6 193.7)" stroke="none" fill="#000" font-family="Arial" font-size="12" text-anchor="end"><tspan>320</tspan></text></g><g fill="none" color="#000" stroke="currentColor"><path stroke="#000" d="M53.9 145.6h9m552.1 0h-9"/><text transform="translate(45.6 149.5)" stroke="none" fill="#000" font-family="Arial" font-size="12" text-anchor="end"><tspan>330</tspan></text></g><g fill="none" color="#000" stroke="currentColor"><path stroke="#000" d="M53.9 101.3h9m552.1 0h-9"/><text transform="translate(45.6 105.2)" stroke="none" fill="#000" font-family="Arial" font-size="12" text-anchor="end"><tspan>340</tspan></text></g><g fill="none" color="#000" stroke="currentColor"><path stroke="#000" d="M53.9 57h9M615 57h-9"/><text transform="translate(45.6 60.9)" stroke="none" fill="#000" font-family="Arial" font-size="12" text-anchor="end"><tspan>350</tspan></text></g><g fill="none" color="#000" stroke="currentColor"><path stroke="#000" d="M53.9 428v-9m0-400.9v9"/><text transform="translate(53.9 449.9)" stroke="none" fill="#000" font-family="Arial" font-size="12" text-anchor="middle"><tspan>0</tspan></text></g><g fill="none" color="#000" stroke="currentColor"><path stroke="#000" d="M110.6 428v-9m0-400.9v9"/><text transform="translate(110.6 449.9)" stroke="none" fill="#000" font-family="Arial" font-size="12" text-anchor="middle"><tspan>10</tspan></text></g><g fill="none" color="#000" stroke="currentColor"><path stroke="#000" d="M167.3 428v-9m0-400.9v9"/><text transform="translate(167.3 449.9)" stroke="none" fill="#000" font-family="Arial" font-size="12" text-anchor="middle"><tspan>20</tspan></text></g><g fill="none" color="#000" stroke="currentColor"><path stroke="#000" d="M223.9 428v-9m0-400.9v9"/><text transform="translate(223.9 449.9)" stroke="none" fill="#000" font-family="Arial" font-size="12" text-anchor="middle"><tspan>30</tspan></text></g><g fill="none" color="#000" stroke="currentColor"><path stroke="#000" d="M280.6 428v-9m0-400.9v9"/><text transform="translate(280.6 449.9)" stroke="none" fill="#000" font-family="Arial" font-size="12" text-anchor="middle"><tspan>40</tspan></text></g><g fill="none" color="#000" stroke="currentColor"><path stroke="#000" d="M337.3 428v-9m0-400.9v9"/><text transform="translate(337.3 449.9)" stroke="none" fill="#000" font-family="Arial" font-size="12" text-anchor="middle"><tspan>50</tspan></text></g><g fill="none" color="#000" stroke="currentColor"><path stroke="#000" d="M394 428v-9m0-400.9v9"/><text transform="translate(394 449.9)" stroke="none" fill="#000" font-family="Arial" font-size="12" text-anchor="middle"><tspan>60</tspan></text></g><g fill="none" color="#000" stroke="currentColor"><path stroke="#000" d="M450.6 428v-9m0-400.9v9"/><text transform="translate(450.6 449.9)" stroke="none" fill="#000" font-family="Arial" font-size="12" text-anchor="middle"><tspan>70</tspan></text></g><g fill="none" color="#000" stroke="currentColor"><path stroke="#000" d="M507.3 428v-9m0-400.9v9"/><text transform="translate(507.3 449.9)" stroke="none" fill="#000" font-family="Arial" font-size="12" text-anchor="middle"><tspan>80</tspan></text></g><g fill="none" color="#000" stroke="currentColor"><path stroke="#000" d="M564 428v-9m0-400.9v9"/><text transform="translate(564 449.9)" stroke="none" fill="#000" font-family="Arial" font-size="12" text-anchor="middle"><tspan>90</tspan></text></g><path stroke="#000" d="M53.9 18.1V428H615V18.1H53.9z" fill="none" color="#000"/><text transform="translate(275.6 467.9)" stroke="none" fill="#000" font-family="Arial" font-size="12" text-anchor="end" color="#000"><tspan>pages</tspan></text><path stroke="#9400D3" d="M283.9 464h42.2M53.9 26l5.7 323.3 5.6 4.4 5.7 4.4 5.7-4.4 5.6-4.4 5.7-31 5.7 22.1 5.6-97.4 5.7 75.3 5.7 26.5 5.6 31 5.7-57.5 5.7-26.6 5.6 101.8 5.7-70.8h5.7l5.7 48.7 5.6-70.9 5.7 62 5.7-39.8 5.6 35.4 5.7-31 5.7 35.4 5.6-39.8 5.7 13.3 5.7 26.5 5.6 8.9 5.7-35.4 5.7 8.8 5.6-44.3 5.7-31 5.7 66.5 5.6-22.2 5.7 39.9 5.7-57.6 5.6 53.2 5.7-22.2 5.7-31 5.6-13.3 5.7 44.3 5.7 4.4 5.6 8.9 5.7-137.3 5.7 97.4 5.6 101.9 5.7-66.4 5.7-8.9 5.6 4.4 5.7-39.8 5.7 53.1 5.7 17.7 5.6 13.3 5.7-48.7 5.7-13.3 5.6-22.1 5.7 70.8 5.7-8.8 5.6-44.3 5.7 17.7 5.7-57.6 5.6 93 5.7-57.5 5.7 57.5 5.6-79.7 5.7 66.5 5.7-62 5.6 57.5 5.7-39.8 5.7 4.4 5.6 4.4 5.7 44.3 5.7-4.4 5.6-84.2 5.7 48.8 5.7 13.2 5.6-66.4 5.7 48.7 5.7-4.4 5.6 35.4 5.7 8.9 5.7-88.6 5.6 75.3 5.7-17.7 5.7 31 5.7-26.6 5.6 8.9 5.7 17.7 5.7-53.2 5.6 62 5.7 8.9 5.7-4.4 5.6-57.6 5.7 13.3h5.7l5.6-17.7 5.7 17.7h5.7l5.6 8.8 5.7-31" fill="none" color="#000"/><text transform="translate(275.6 485.9)" stroke="none" fill="#000" font-family="Arial" font-size="12" text-anchor="end" color="#000"><tspan>pages+cached</tspan></text><path stroke="#009E73" d="M283.9 482h42.2M53.9 340.4l5.7-53.1 5.6 84.1 5.7-79.7 5.7 22.1 5.6-186 5.7 292.3 5.7-128.4L99.2 398l5.7-101.9 5.7 124 5.6-13.3 5.7-119.5 5.7-124 5.6 146.1 5.7-17.7 5.7 110.7 5.7-106.3 5.6 4.4 5.7 106.3 5.7-119.5h11.3l5.7 97.4 5.6-106.3 5.7-31 5.7 150.6 5.6-106.3 5.7 8.8 5.7 97.5 5.6-124 5.7 110.7 5.7 17.7 5.6 4.4 5.7 4.5 5.7-150.6 5.6 66.4 5.7-274.5 5.7 305.5h5.6l5.7-62 5.7 13.3 5.6-22.1 5.7-84.2 5.7 190.4 5.6-128.4 5.7 146.2 5.7-31 5.6 22.1 5.7-110.7 5.7 119.6L343 181l5.6 225.8 5.7-13.3 5.7-106.2 5.6 97.4H377l5.6-93 5.7 4.4 5.7 115.2 5.6-26.6 5.7 17.7L411 367l5.6-84.2 5.7-8.8 5.7 137.3 5.6-110.8 5.7 79.8 5.7 22.1h5.6l5.7-8.9 5.7-146.1 5.6 66.4 5.7-13.3 5.7 88.6 5.6-53.1 5.7 53.1 5.7 13.3 5.6-97.4 5.7-35.5L513 305l5.6-17.7 5.7 115.1 5.7-13.3 5.7 22.2 5.6-8.9h5.7l5.7-8.9 5.6 13.3 5.7-119.5 5.7 110.7 5.6 8.8 5.7-4.4 5.7-106.3 5.6 106.3h5.7l5.7-8.9 5.6-110.7h5.7" fill="none" color="#000"/><text transform="translate(467.2 467.9)" stroke="none" fill="#000" font-family="Arial" font-size="12" text-anchor="end" color="#000"><tspan>score p10=130</tspan></text><path stroke="#56B4E9" d="M475.5 464h42.2" fill="none" color="#000"/><g><text transform="translate(467.2 485.9)" stroke="none" fill="#000" font-family="Arial" font-size="12" text-anchor="end" color="#000"><tspan>score median=250</tspan></text><path stroke="#E69F00" d="M475.5 482h42.2" fill="none" color="#000"/></g><g fill="none" color="#000" stroke="currentColor"><path stroke="#000" d="M53.9 18.1V428H615V18.1H53.9z"/></g></svg>