<svg width="640" height="500" xmlns="http://www.w3.org/2000/svg" xmlns:xlink="http://www.w3.org/1999/xlink"><path fill="#fff" d="M0 0h640v500H0z"/><defs><path id="d" stroke-width=".222" stroke="currentColor" d="M-1-1h2v2h-2z"/><path id="b" stroke-width=".222" stroke="currentColor" d="M0-1.33l-1.33 2h2.66z"/><path id="f" stroke-width=".222" stroke="currentColor" d="M0 1.33L1.265.411.782-1.067l-1.564-.009-.483 1.487z"/><use xlink:href="#b" id="c" stroke="currentColor" transform="rotate(180)"/><use xlink:href="#d" id="e" stroke="currentColor" transform="rotate(45)"/><circle id="a" stroke-width=".222" stroke="currentColor" cx="0" cy="0" r="1"/></defs><g fill="none" color="#000" stroke="currentColor"><path stroke="#000" d="M53.9 387.8h9m552.1 0h-9"/><text transform="translate(45.6 391.7)" stroke="none" fill="#000" font-family="Arial" font-size="12" text-anchor="end"><tspan>50</tspan></text></g><g fill="none" color="#000" stroke="currentColor"><path stroke="#000" d="M53.9 323.2h9m552.1 0h-9"/><text transform="translate(45.6 327.1)" stroke="none" fill="#000" font-family="Arial" font-size="12" text-anchor="end"><tspan>100</tspan></text></g><g fill="none" color="#000" stroke="currentColor"><path stroke="#000" d="M53.9 258.6h9m552.1 0h-9"/><text transform="translate(45.6 262.5)" stroke="none" fill="#000" font-family="Arial" font-size="12" text-anchor="end"><tspan>150</tspan></text></g><g fill="none" color="#000" stroke="currentColor"><path stroke="#000" d="M53.9 194h9m552.1 0h-9"/><text transform="translate(45.6 197.9)" stroke="none" fill="#000" font-family="Arial" font-size="12" text-anchor="end"><tspan>200</tspan></text></g><g fill="none" color="#000" stroke="currentColor"><path stroke="#000" d="M53.9 129.4h9m552.1 0h-9"/><text transform="translate(45.6 133.3)" stroke="none" fill="#000" font-family="Arial" font-size="12" text-anchor="end"><tspan>250</tspan></text></g><g fill="none" color="#000" stroke="currentColor"><path stroke="#000" d="M53.9 64.8h9m552.1 0h-9"/><text transform="translate(45.6 68.7)" stroke="none" fill="#000" font-family="Arial" font-size="12" text-anchor="end"><tspan>300</tspan></text></g><g fill="none" color="#000" stroke="currentColor"><path stroke="#000" d="M53.9 428v-9m0-400.9v9"/><text transform="translate(53.9 449.9)" stroke="none" fill="#000" font-family="Arial" font-size="12" text-anchor="middle"><tspan>0</tspan></text></g><g fill="none" color="#000" stroke="currentColor"><path stroke="#000" d="M110.6 428v-9m0-400.9v9"/><text transform="translate(110.6 449.9)" stroke="none" fill="#000" font-family="Arial" font-size="12" text-anchor="middle"><tspan>10</tspan></text></g><g fill="none" color="#000" stroke="currentColor"><path stroke="#000" d="M167.3 428v-9m0-400.9v9"/><text transform="translate(167.3 449.9)" stroke="none" fill="#000" font-family="Arial" font-size="12" text-anchor="middle"><tspan>20</tspan></text></g><g fill="none" color="#000" stroke="currentColor"><path stroke="#000" d="M223.9 428v-9m0-400.9v9"/><text transform="translate(223.9 449.9)" stroke="none" fill="#000" font-family="Arial" font-size="12" text-anchor="middle"><tspan>30</tspan></text></g><g fill="none" color="#000" stroke="currentColor"><path stroke="#000" d="M280.6 428v-9m0-400.9v9"/><text transform="translate(280.6 449.9)" stroke="none" fill="#000" font-family="Arial" font-size="12" text-anchor="middle"><tspan>40</tspan></text></g><g fill="none" color="#000" stroke="currentColor"><path stroke="#000" d="M337.3 428v-9m0-400.9v9"/><text transform="translate(337.3 449.9)" stroke="none" fill="#000" font-family="Arial" font-size="12" text-anchor="middle"><tspan>50</tspan></text></g><g fill="none" color="#000" stroke="currentColor"><path stroke="#000" d="M394 428v-9m0-400.9v9"/><text transform="translate(394 449.9)" stroke="none" fill="#000" font-family="Arial" font-size="12" text-anchor="middle"><tspan>60</tspan></text></g><g fill="none" color="#000" stroke="currentColor"><path stroke="#000" d="M450.6 428v-9m0-400.9v9"/><text transform="translate(450.6 449.9)" stroke="none" fill="#000" font-family="Arial" font-size="12" text-anchor="middle"><tspan>70</tspan></text></g><g fill="none" color="#000" stroke="currentColor"><path stroke="#000" d="M507.3 428v-9m0-400.9v9"/><text transform="translate(507.3 449.9)" stroke="none" fill="#000" font-family="Arial" font-size="12" text-anchor="middle"><tspan>80</tspan></text></g><g fill="none" color="#000" stroke="currentColor"><path stroke="#000" d="M564 428v-9m0-400.9v9"/><text transform="translate(564 449.9)" stroke="none" fill="#000" font-family="Arial" font-size="12" text-anchor="middle"><tspan>90</tspan></text></g><path stroke="#000" d="M53.9 18.1V428H615V18.1H53.9z" fill="none" color="#000"/><text transform="translate(275.6 467.9)" stroke="none" fill="#000" font-family="Arial" font-size="12" text-anchor="end" color="#000"><tspan>pages+cached+nointeractive</tspan></text><path stroke="#9400D3" d="M283.9 464h42.2M53.9 59.6l5.7 41.3 5.6-59.4 5.7 33.6h5.7l5.6 24.5 5.7-21.9 5.7 24.5 5.6-16.8 5.7-59.4 5.7 43.9 5.6 1.3 5.7 18.1 5.7-18.1 5.6 31h5.7l5.7-33.6 5.7 33.6 5.6-2.6 5.7-27.1 5.7 27.1 5.6-2.5 5.7 3.8 5.7-32.3 5.6 33.6h5.7l5.7 2.6 5.6-1.3 5.7-2.6h5.7l5.6-33.6 5.7 27.2 5.7 7.7 5.6-31 5.7 29.7 5.7 3.9 5.6-11.6 5.7 5.1 5.7-28.4 5.6 28.4 5.7 3.9 5.7-37.4 5.6 42.6 5.7-36.2 5.7 29.7 5.6-3.8 5.7-1.3 5.7 2.5 5.6-1.2 5.7 3.8 5.7 1.3 5.7-5.1 5.6-2.6 5.7 11.6 5.7-6.5h5.6l5.7-37.4 5.7 12.9 5.6 23.2 5.7 5.2 5.7-2.6 5.6-31 5.7 28.4 5.7 6.5 5.6 1.3 5.7-5.2 5.7-2.6 5.6 5.2 5.7-19.4 5.7 16.8 5.6-38.7 5.7 7.7 5.7 29.7 5.6-31 5.7 34.9 5.7-3.9 5.6 1.3 5.7 1.3 5.7-3.9 5.6 6.5 5.7-18.1 5.7 16.8 5.6-29.7 5.7 27.1h5.7l5.7-46.5 5.6 45.2 5.7-31 5.7 32.3 5.6-10.3 5.7 6.5 5.7-24.6 5.6 27.1 5.7 3.9 5.7-2.6 5.6-28.4 5.7 32.3 5.7-1.3 5.6-3.9L615 88" fill="none" color="#000"/><text transform="translate(275.6 485.9)" stroke="none" fill="#000" font-family="Arial" font-size="12" text-anchor="end" color="#000"><tspan>pages+cached+noadtech</tspan></text><path stroke="#009E73" d="M283.9 482h42.2M53.9 420.1l5.7-10.3h5.6l5.7 6.4 5.7 3.9h5.6l5.7-7.7 5.7 7.7 5.6-10.3 5.7 2.6 5.7 5.1 5.6 1.3 5.7-9 5.7 9h5.6l5.7-6.4 5.7 7.7 5.7-1.3 5.6 1.3 5.7-2.6 5.7-7.7 5.6 10.3 5.7-7.7 5.7 5.1 5.6-7.7 5.7 2.6 5.7 5.1 5.6 2.6h5.7l5.7-1.3 5.6-2.6 5.7-5.1 5.7 9 5.6-6.4 5.7-3.9 5.7 10.3 5.6-1.3 5.7-9 5.7 9h5.6l5.7-6.4 5.7 7.7 5.6-2.6 5.7 1.3 5.7-1.3 5.6 1.3 5.7-1.3 5.7-9 5.6 10.3 5.7-6.4 5.7 6.4 5.7-6.4h5.6l5.7 7.7 5.7-1.3h11.3l5.7-5.1 5.6 5.1 5.7-9 5.7 9 5.6-1.3 5.7 1.3 5.7-11.6 5.6 11.6 5.7-1.3h5.7l5.6-7.7 5.7 1.3 5.7 7.7h5.6l5.7 1.3 5.7-2.6 5.6 1.3 5.7 1.3 5.7-6.4h5.6l5.7-3.9 5.7 9 5.6-6.4 5.7 7.7 5.7-6.4 5.6 5.1 5.7-6.4 5.7 6.4h11.3l5.7-1.3 5.7 1.3 5.6-5.1 5.7 3.8 5.7-7.7 5.6 7.7 5.7 1.3 5.7 1.3 5.6-1.3h5.7l5.7-1.3h5.6l5.7 1.3" fill="none" color="#000"/><text transform="translate(550.2 467.9)" stroke="none" fill="#000" font-family="Arial" font-size="12" text-anchor="end" color="#000"><tspan>score p10=130</tspan></text><path stroke="#56B4E9" d="M558.5 464h42.2M53.9 284.4H615" fill="none" color="#000"/><g><text transform="translate(550.2 485.9)" stroke="none" fill="#000" font-family="Arial" font-size="12" text-anchor="end" color="#000"><tspan>score median=250</tspan></text><path stroke="#E69F00" d="M558.5 482h42.2M53.9 129.4H615" fill="none" color="#000"/></g><g fill="none" color="#000" stroke="currentColor"><path stroke="#000" d="M53.9 18.1V428H615V18.1H53.9z"/></g></svg>