<svg width="640" height="500" xmlns="http://www.w3.org/2000/svg" xmlns:xlink="http://www.w3.org/1999/xlink"><path fill="#fff" d="M0 0h640v500H0z"/><defs><path id="d" stroke-width=".222" stroke="currentColor" d="M-1-1h2v2h-2z"/><path id="b" stroke-width=".222" stroke="currentColor" d="M0-1.33l-1.33 2h2.66z"/><path id="f" stroke-width=".222" stroke="currentColor" d="M0 1.33L1.265.411.782-1.067l-1.564-.009-.483 1.487z"/><use xlink:href="#b" id="c" stroke="currentColor" transform="rotate(180)"/><use xlink:href="#d" id="e" stroke="currentColor" transform="rotate(45)"/><circle id="a" stroke-width=".222" stroke="currentColor" cx="0" cy="0" r="1"/></defs><g fill="none" color="#000" stroke="currentColor"><path stroke="#000" d="M45.6 353.9h9m560.4 0h-9"/><text transform="translate(37.3 357.8)" stroke="none" fill="#000" font-family="Arial" font-size="12" text-anchor="end"><tspan>30</tspan></text></g><g fill="none" color="#000" stroke="currentColor"><path stroke="#000" d="M45.6 315.2h9m560.4 0h-9"/><text transform="translate(37.3 319.1)" stroke="none" fill="#000" font-family="Arial" font-size="12" text-anchor="end"><tspan>35</tspan></text></g><g fill="none" color="#000" stroke="currentColor"><path stroke="#000" d="M45.6 276.6h9m560.4 0h-9"/><text transform="translate(37.3 280.5)" stroke="none" fill="#000" font-family="Arial" font-size="12" text-anchor="end"><tspan>40</tspan></text></g><g fill="none" color="#000" stroke="currentColor"><path stroke="#000" d="M45.6 237.9h9m560.4 0h-9"/><text transform="translate(37.3 241.8)" stroke="none" fill="#000" font-family="Arial" font-size="12" text-anchor="end"><tspan>45</tspan></text></g><g fill="none" color="#000" stroke="currentColor"><path stroke="#000" d="M45.6 199.3h9m560.4 0h-9"/><text transform="translate(37.3 203.2)" stroke="none" fill="#000" font-family="Arial" font-size="12" text-anchor="end"><tspan>50</tspan></text></g><g fill="none" color="#000" stroke="currentColor"><path stroke="#000" d="M45.6 160.6h9m560.4 0h-9"/><text transform="translate(37.3 164.5)" stroke="none" fill="#000" font-family="Arial" font-size="12" text-anchor="end"><tspan>55</tspan></text></g><g fill="none" color="#000" stroke="currentColor"><path stroke="#000" d="M45.6 121.9h9m560.4 0h-9"/><text transform="translate(37.3 125.8)" stroke="none" fill="#000" font-family="Arial" font-size="12" text-anchor="end"><tspan>60</tspan></text></g><g fill="none" color="#000" stroke="currentColor"><path stroke="#000" d="M45.6 83.3h9m560.4 0h-9"/><text transform="translate(37.3 87.2)" stroke="none" fill="#000" font-family="Arial" font-size="12" text-anchor="end"><tspan>65</tspan></text></g><g fill="none" color="#000" stroke="currentColor"><path stroke="#000" d="M45.6 44.6h9m560.4 0h-9"/><text transform="translate(37.3 48.5)" stroke="none" fill="#000" font-family="Arial" font-size="12" text-anchor="end"><tspan>70</tspan></text></g><g fill="none" color="#000" stroke="currentColor"><path stroke="#000" d="M45.6 392v-9m0-364.9v9"/><text transform="translate(45.6 413.9)" stroke="none" fill="#000" font-family="Arial" font-size="12" text-anchor="middle"><tspan>0</tspan></text></g><g fill="none" color="#000" stroke="currentColor"><path stroke="#000" d="M103.1 392v-9m0-364.9v9"/><text transform="translate(103.1 413.9)" stroke="none" fill="#000" font-family="Arial" font-size="12" text-anchor="middle"><tspan>10</tspan></text></g><g fill="none" color="#000" stroke="currentColor"><path stroke="#000" d="M160.6 392v-9m0-364.9v9"/><text transform="translate(160.6 413.9)" stroke="none" fill="#000" font-family="Arial" font-size="12" text-anchor="middle"><tspan>20</tspan></text></g><g fill="none" color="#000" stroke="currentColor"><path stroke="#000" d="M218.1 392v-9m0-364.9v9"/><text transform="translate(218.1 413.9)" stroke="none" fill="#000" font-family="Arial" font-size="12" text-anchor="middle"><tspan>30</tspan></text></g><g fill="none" color="#000" stroke="currentColor"><path stroke="#000" d="M275.7 392v-9m0-364.9v9"/><text transform="translate(275.7 413.9)" stroke="none" fill="#000" font-family="Arial" font-size="12" text-anchor="middle"><tspan>40</tspan></text></g><g fill="none" color="#000" stroke="currentColor"><path stroke="#000" d="M333.2 392v-9m0-364.9v9"/><text transform="translate(333.2 413.9)" stroke="none" fill="#000" font-family="Arial" font-size="12" text-anchor="middle"><tspan>50</tspan></text></g><g fill="none" color="#000" stroke="currentColor"><path stroke="#000" d="M390.7 392v-9m0-364.9v9"/><text transform="translate(390.7 413.9)" stroke="none" fill="#000" font-family="Arial" font-size="12" text-anchor="middle"><tspan>60</tspan></text></g><g fill="none" color="#000" stroke="currentColor"><path stroke="#000" d="M448.2 392v-9m0-364.9v9"/><text transform="translate(448.2 413.9)" stroke="none" fill="#000" font-family="Arial" font-size="12" text-anchor="middle"><tspan>70</tspan></text></g><g fill="none" color="#000" stroke="currentColor"><path stroke="#000" d="M505.7 392v-9m0-364.9v9"/><text transform="translate(505.7 413.9)" stroke="none" fill="#000" font-family="Arial" font-size="12" text-anchor="middle"><tspan>80</tspan></text></g><g fill="none" color="#000" stroke="currentColor"><path stroke="#000" d="M563.2 392v-9m0-364.9v9"/><text transform="translate(563.2 413.9)" stroke="none" fill="#000" font-family="Arial" font-size="12" text-anchor="middle"><tspan>90</tspan></text></g><path stroke="#000" d="M45.6 18.1V392H615V18.1H45.6z" fill="none" color="#000"/><text transform="translate(429.5 431.9)" stroke="none" fill="#000" font-family="Arial" font-size="12" text-anchor="end" color="#000"><tspan>pages+cached+noexternal+nofonts</tspan></text><path stroke="#9400D3" d="M437.8 428H480M45.6 377.1l5.8-61.9 5.7 69.6 5.8-7.7h11.5l5.7-61.9 5.8 61.9 5.7-61.9 5.8 31 5.7 30.9 5.8-61.9 5.7 61.9 5.8-61.9 5.7 61.9 5.8-7.8 5.7 7.8 5.8 7.7 5.7-7.7 5.8-54.1 5.7-7.8 5.8 31 5.7 23.1h23l5.8 7.8 5.7-7.8 5.8 15.5 5.7-38.6 5.8-31 5.7 61.9h5.8l5.8-54.1 5.7 23.2 5.8-23.2 5.7 54.1 5.8-15.5 5.7 7.7 5.8-46.3 5.7-7.8 5.8 7.8 5.7 54.1 5.8 7.7 5.7-7.7h5.8l5.7-38.7 5.8-23.2h5.7l5.8 7.8 5.7 61.8 5.8-7.7h5.7l5.8-54.1 5.7 46.3 5.8 7.8 5.7-54.1 5.8 54.1h5.7l5.8-61.9 5.7 61.9 5.8-54.1 5.7 23.2 5.8-38.7 5.7 7.7 5.8 7.8 5.8 54.1 5.7-30.9 5.8 30.9H454l5.7-7.8 5.8-46.3h5.7l5.8 54.1 5.7-54.1 5.8 54.1 5.7-7.8 5.8 7.8 5.7-7.8 5.8 7.8 5.7-54.1 5.8-7.8 5.7 54.1h5.8l5.7-54.1 5.8-7.7 5.7 69.6 5.8-30.9 5.7 30.9h11.5l5.8-61.9 5.7 31 5.8-46.4 5.7 77.3h5.8l5.7-7.8 5.8 7.8" fill="none" color="#000"/><text transform="translate(429.5 449.9)" stroke="none" fill="#000" font-family="Arial" font-size="12" text-anchor="end" color="#000"><tspan>pages+cached+noexternal+nosvg</tspan></text><path stroke="#009E73" d="M437.8 446H480M45.6 369.3l5.8 7.8 5.7-7.8h5.8l5.7 15.5 5.8-15.5 5.7 7.8 5.8-15.5 5.7 7.7 5.8 7.8h5.7l5.8-351.8 5.7 336.3 5.8 15.5h11.5l5.7-7.8 5.8 7.8h5.7l5.8-38.7 5.7 30.9 5.8 15.5h5.7l5.8-7.7h5.7l5.8-7.8 5.7 7.8h5.8l5.7-38.7 5.8 46.4 5.7-7.7 5.8-7.8 5.7 7.8h5.8l5.8 7.7 5.7-7.7 5.8-15.5 5.7 15.5 5.8 7.7 5.7-15.5 5.8 7.8 5.7-7.8 5.8-30.9 5.7 38.7 5.8-7.8 5.7-30.9h11.5l5.8 38.7h5.7l5.8-38.7 5.7 30.9 5.8 7.8h5.7l5.8 7.7 5.7-7.7 5.8 7.7 5.7-7.7 5.8-15.5 5.7 15.5 5.8-7.8h5.7l5.8 7.8 5.7-7.8h5.8l5.7 7.8h5.8l5.8-7.8 5.7 7.8 5.8-46.4 5.7 46.4h17.3l5.7 7.7 5.8-7.7 5.7 7.7 5.8-23.2 5.7 7.7h5.8l5.7 7.8h5.8l5.7-38.7h5.8l5.7 30.9h5.8l5.7 7.8h11.5l5.8-38.7 5.7 7.8 5.8 30.9h23l5.7-38.7 5.8 30.9 5.7 7.8h5.8" fill="none" color="#000"/><text transform="translate(429.5 467.9)" stroke="none" fill="#000" font-family="Arial" font-size="12" text-anchor="end" color="#000"><tspan>score p10=130</tspan></text><path stroke="#56B4E9" d="M437.8 464H480" fill="none" color="#000"/><g><text transform="translate(429.5 485.9)" stroke="none" fill="#000" font-family="Arial" font-size="12" text-anchor="end" color="#000"><tspan>score median=250</tspan></text><path stroke="#E69F00" d="M437.8 482H480" fill="none" color="#000"/></g><g fill="none" color="#000" stroke="currentColor"><path stroke="#000" d="M45.6 18.1V392H615V18.1H45.6z"/></g></svg>