<svg width="640" height="490" xmlns="http://www.w3.org/2000/svg" xmlns:xlink="http://www.w3.org/1999/xlink"><path fill="#fff" d="M0 0h640v490H0z"/><defs><path id="d" stroke-width=".222" stroke="currentColor" d="M-1-1h2v2h-2z"/><path id="b" stroke-width=".222" stroke="currentColor" d="M0-1.33l-1.33 2h2.66z"/><path id="f" stroke-width=".222" stroke="currentColor" d="M0 1.33L1.265.411.782-1.067l-1.564-.009-.483 1.487z"/><use xlink:href="#b" id="c" stroke="currentColor" transform="rotate(180)"/><use xlink:href="#d" id="e" stroke="currentColor" transform="rotate(45)"/><circle id="a" stroke-width=".222" stroke="currentColor" cx="0" cy="0" r="1"/></defs><g fill="none" color="#000" stroke="currentColor"><path stroke="#000" d="M95.4 379.6h9m510.6 0h-9"/><text transform="translate(87.1 383.5)" stroke="none" fill="#000" font-family="Arial" font-size="12" text-anchor="end"><tspan>6.828x10</tspan><tspan font-size="9.6" dy="-6">6</tspan></text></g><g fill="none" color="#000" stroke="currentColor"><path stroke="#000" d="M95.4 306h9m510.6 0h-9"/><text transform="translate(87.1 309.9)" stroke="none" fill="#000" font-family="Arial" font-size="12" text-anchor="end"><tspan>6.83x10</tspan><tspan font-size="9.6" dy="-6">6</tspan></text></g><g fill="none" color="#000" stroke="currentColor"><path stroke="#000" d="M95.4 232.4h9m510.6 0h-9"/><text transform="translate(87.1 236.3)" stroke="none" fill="#000" font-family="Arial" font-size="12" text-anchor="end"><tspan>6.832x10</tspan><tspan font-size="9.6" dy="-6">6</tspan></text></g><g fill="none" color="#000" stroke="currentColor"><path stroke="#000" d="M95.4 158.7h9m510.6 0h-9"/><text transform="translate(87.1 162.6)" stroke="none" fill="#000" font-family="Arial" font-size="12" text-anchor="end"><tspan>6.834x10</tspan><tspan font-size="9.6" dy="-6">6</tspan></text></g><g fill="none" color="#000" stroke="currentColor"><path stroke="#000" d="M95.4 85.1h9m510.6 0h-9"/><text transform="translate(87.1 89)" stroke="none" fill="#000" font-family="Arial" font-size="12" text-anchor="end"><tspan>6.836x10</tspan><tspan font-size="9.6" dy="-6">6</tspan></text></g><g fill="none" color="#000" stroke="currentColor"><path stroke="#000" d="M95.4 418v-9m0-390.9v9"/><text transform="translate(95.4 439.9)" stroke="none" fill="#000" font-family="Arial" font-size="12" text-anchor="middle"><tspan>0</tspan></text></g><g fill="none" color="#000" stroke="currentColor"><path stroke="#000" d="M147.9 418v-9m0-390.9v9"/><text transform="translate(147.9 439.9)" stroke="none" fill="#000" font-family="Arial" font-size="12" text-anchor="middle"><tspan>10</tspan></text></g><g fill="none" color="#000" stroke="currentColor"><path stroke="#000" d="M200.4 418v-9m0-390.9v9"/><text transform="translate(200.4 439.9)" stroke="none" fill="#000" font-family="Arial" font-size="12" text-anchor="middle"><tspan>20</tspan></text></g><g fill="none" color="#000" stroke="currentColor"><path stroke="#000" d="M252.9 418v-9m0-390.9v9"/><text transform="translate(252.9 439.9)" stroke="none" fill="#000" font-family="Arial" font-size="12" text-anchor="middle"><tspan>30</tspan></text></g><g fill="none" color="#000" stroke="currentColor"><path stroke="#000" d="M305.3 418v-9m0-390.9v9"/><text transform="translate(305.3 439.9)" stroke="none" fill="#000" font-family="Arial" font-size="12" text-anchor="middle"><tspan>40</tspan></text></g><g fill="none" color="#000" stroke="currentColor"><path stroke="#000" d="M357.8 418v-9m0-390.9v9"/><text transform="translate(357.8 439.9)" stroke="none" fill="#000" font-family="Arial" font-size="12" text-anchor="middle"><tspan>50</tspan></text></g><g fill="none" color="#000" stroke="currentColor"><path stroke="#000" d="M410.3 418v-9m0-390.9v9"/><text transform="translate(410.3 439.9)" stroke="none" fill="#000" font-family="Arial" font-size="12" text-anchor="middle"><tspan>60</tspan></text></g><g fill="none" color="#000" stroke="currentColor"><path stroke="#000" d="M462.8 418v-9m0-390.9v9"/><text transform="translate(462.8 439.9)" stroke="none" fill="#000" font-family="Arial" font-size="12" text-anchor="middle"><tspan>70</tspan></text></g><g fill="none" color="#000" stroke="currentColor"><path stroke="#000" d="M515.3 418v-9m0-390.9v9"/><text transform="translate(515.3 439.9)" stroke="none" fill="#000" font-family="Arial" font-size="12" text-anchor="middle"><tspan>80</tspan></text></g><g fill="none" color="#000" stroke="currentColor"><path stroke="#000" d="M567.8 418v-9m0-390.9v9"/><text transform="translate(567.8 439.9)" stroke="none" fill="#000" font-family="Arial" font-size="12" text-anchor="middle"><tspan>90</tspan></text></g><path stroke="#000" d="M95.4 18.1V418H615V18.1H95.4z" fill="none" color="#000"/><text transform="translate(296.4 457.9)" stroke="none" fill="#000" font-family="Arial" font-size="12" text-anchor="end" color="#000"><tspan>raw</tspan></text><path stroke="#9400D3" d="M304.7 454h42.2M95.4 410.3l5.2-1 5.3.2 5.2-.4 5.3.1 5.2.2 5.3.3 5.2-.5h5.3l5.2.4 5.3.4 5.2-.4 5.3-.4 5.2.7 5.3.1 5.2-.8 5.3.3 5.2-.5 5.3.1 5.2.8 5.3-.9h5.2l5.3.6 5.2-.7 5.3.5h10.5l5.2.1 5.3.4 5.2-.5h10.5l5.3.1 5.2-.4 5.2.6 5.3-.1 5.2-.1 5.3-.7 5.2.4 5.3.8 5.2-.9 5.3.6 5.2.3 5.3-.3 5.2-.3 5.3.4 5.2-.5 5.3.7 5.2-.9 5.3.6 5.2-.4 5.3.1 5.2.1 5.3.5 5.2-1 5.3.5 5.2.1 5.3-.1 5.2-.3 5.3-.3 5.2-.3 5.3 1 5.2-.4 5.3.1 5.2.9 5.3-.8 5.2-.3 5.2.7 5.3-.5 5.2.5 5.3-.4h10.5l5.2.4 5.3-.4h5.2l5.3.7 5.2-.1 5.3.2 5.2-.6 5.3-.2 5.2.6 5.3-1.1 5.2.3 5.3 1 5.2-.6 5.3-.1 5.2-.4 5.3-.4 5.2 1.1 5.3-.2 5.2.3 5.3-384.1 5.2 382.6 5.3 1.2 5.2-.5 5.3-.3 5.2.1 5.3-.3 5.2 1" fill="none" color="#000"/><text transform="translate(296.4 475.9)" stroke="none" fill="#000" font-family="Arial" font-size="12" text-anchor="end" color="#000"><tspan>score p10=2731008</tspan></text><path stroke="#009E73" d="M304.7 472h42.2" fill="none" color="#000"/><text transform="translate(521.2 457.9)" stroke="none" fill="#000" font-family="Arial" font-size="12" text-anchor="end" color="#000"><tspan>score median=4096000</tspan></text><path stroke="#56B4E9" d="M529.5 454h42.2" fill="none" color="#000"/><g fill="none" color="#000" stroke="currentColor"><path stroke="#000" d="M95.4 18.1V418H615V18.1H95.4z"/></g></svg>