<svg width="640" height="520" xmlns="http://www.w3.org/2000/svg" xmlns:xlink="http://www.w3.org/1999/xlink"><path fill="#fff" d="M0 0h640v520H0z"/><defs><path id="g" stroke-width=".222" stroke="currentColor" d="M-1 0h2M0-1v2"/><path id="h" stroke-width=".222" stroke="currentColor" d="M-1-1l2 2m0-2l-2 2"/><path id="i" stroke-width=".222" stroke="currentColor" d="M-1 0h2M0-1v2m-1-2l2 2m-2 0l2-2"/><path id="d" stroke-width=".222" stroke="currentColor" d="M-1-1h2v2h-2z"/><path id="b" stroke-width=".222" stroke="currentColor" d="M0-1.33l-1.33 2h2.66z"/><path id="f" stroke-width=".222" stroke="currentColor" d="M0 1.33L1.265.411.782-1.067l-1.564-.009-.483 1.487z"/><use xlink:href="#b" id="c" stroke="currentColor" transform="rotate(180)"/><use xlink:href="#d" id="e" stroke="currentColor" transform="rotate(45)"/><circle id="a" stroke-width=".222" stroke="currentColor" cx="0" cy="0" r="1"/></defs><g fill="none" color="#000" stroke="currentColor"><path stroke="#000" d="M53.9 441.7h9m552.1 0h-9"/><text transform="translate(45.6 445.6)" stroke="none" fill="#000" font-family="Arial" font-size="12" text-anchor="end"><tspan>0</tspan></text></g><g fill="none" color="#000" stroke="currentColor"><path stroke="#000" d="M53.9 392.5h9m552.1 0h-9"/><text transform="translate(45.6 396.4)" stroke="none" fill="#000" font-family="Arial" font-size="12" text-anchor="end"><tspan>50</tspan></text></g><g fill="none" color="#000" stroke="currentColor"><path stroke="#000" d="M53.9 343.3h9m552.1 0h-9"/><text transform="translate(45.6 347.2)" stroke="none" fill="#000" font-family="Arial" font-size="12" text-anchor="end"><tspan>100</tspan></text></g><g fill="none" color="#000" stroke="currentColor"><path stroke="#000" d="M53.9 294.1h9m552.1 0h-9"/><text transform="translate(45.6 298)" stroke="none" fill="#000" font-family="Arial" font-size="12" text-anchor="end"><tspan>150</tspan></text></g><g fill="none" color="#000" stroke="currentColor"><path stroke="#000" d="M53.9 244.9h9m552.1 0h-9"/><text transform="translate(45.6 248.8)" stroke="none" fill="#000" font-family="Arial" font-size="12" text-anchor="end"><tspan>200</tspan></text></g><g fill="none" color="#000" stroke="currentColor"><path stroke="#000" d="M53.9 195.7h9m552.1 0h-9"/><text transform="translate(45.6 199.6)" stroke="none" fill="#000" font-family="Arial" font-size="12" text-anchor="end"><tspan>250</tspan></text></g><g fill="none" color="#000" stroke="currentColor"><path stroke="#000" d="M53.9 146.4h9m552.1 0h-9"/><text transform="translate(45.6 150.3)" stroke="none" fill="#000" font-family="Arial" font-size="12" text-anchor="end"><tspan>300</tspan></text></g><g fill="none" color="#000" stroke="currentColor"><path stroke="#000" d="M53.9 97.2h9m552.1 0h-9"/><text transform="translate(45.6 101.1)" stroke="none" fill="#000" font-family="Arial" font-size="12" text-anchor="end"><tspan>350</tspan></text></g><g fill="none" color="#000" stroke="currentColor"><path stroke="#000" d="M53.9 48h9M615 48h-9"/><text transform="translate(45.6 51.9)" stroke="none" fill="#000" font-family="Arial" font-size="12" text-anchor="end"><tspan>400</tspan></text></g><g fill="none" color="#000" stroke="currentColor"><path stroke="#000" d="M53.9 448v-9m0-420.9v9"/><text transform="translate(53.9 469.9)" stroke="none" fill="#000" font-family="Arial" font-size="12" text-anchor="middle"><tspan>0</tspan></text></g><g fill="none" color="#000" stroke="currentColor"><path stroke="#000" d="M140.2 448v-9m0-420.9v9"/><text transform="translate(140.2 469.9)" stroke="none" fill="#000" font-family="Arial" font-size="12" text-anchor="middle"><tspan>2</tspan></text></g><g fill="none" color="#000" stroke="currentColor"><path stroke="#000" d="M226.5 448v-9m0-420.9v9"/><text transform="translate(226.5 469.9)" stroke="none" fill="#000" font-family="Arial" font-size="12" text-anchor="middle"><tspan>4</tspan></text></g><g fill="none" color="#000" stroke="currentColor"><path stroke="#000" d="M312.9 448v-9m0-420.9v9"/><text transform="translate(312.9 469.9)" stroke="none" fill="#000" font-family="Arial" font-size="12" text-anchor="middle"><tspan>6</tspan></text></g><g fill="none" color="#000" stroke="currentColor"><path stroke="#000" d="M399.2 448v-9m0-420.9v9"/><text transform="translate(399.2 469.9)" stroke="none" fill="#000" font-family="Arial" font-size="12" text-anchor="middle"><tspan>8</tspan></text></g><g fill="none" color="#000" stroke="currentColor"><path stroke="#000" d="M485.5 448v-9m0-420.9v9"/><text transform="translate(485.5 469.9)" stroke="none" fill="#000" font-family="Arial" font-size="12" text-anchor="middle"><tspan>10</tspan></text></g><g fill="none" color="#000" stroke="currentColor"><path stroke="#000" d="M571.8 448v-9m0-420.9v9"/><text transform="translate(571.8 469.9)" stroke="none" fill="#000" font-family="Arial" font-size="12" text-anchor="middle"><tspan>12</tspan></text></g><path stroke="#000" d="M53.9 18.1V448H615V18.1H53.9z" fill="none" color="#000"/><text transform="translate(175.7 487.9)" stroke="none" fill="#000" font-family="Arial" font-size="12" text-anchor="end" color="#000"><tspan>p90min</tspan></text><g fill="none" color="#000" stroke="currentColor"><path stroke="#9400D3" d="M184 484h42.2M53.9 439.7L97.1 26.4H183.4l43.1 246H442.4l43.1 111.2 43.2-111.2h43.1L615 383.6"/><use xlink:href="#g" transform="matrix(4.5 0 0 4.5 53.9 439.7)" color="#9400D3"/><use xlink:href="#g" transform="matrix(4.5 0 0 4.5 97.1 26.4)" color="#9400D3"/><use xlink:href="#g" transform="matrix(4.5 0 0 4.5 140.2 26.4)" color="#9400D3"/><use xlink:href="#g" transform="matrix(4.5 0 0 4.5 183.4 26.4)" color="#9400D3"/><use xlink:href="#g" transform="matrix(4.5 0 0 4.5 226.5 272.4)" color="#9400D3"/><use xlink:href="#g" transform="matrix(4.5 0 0 4.5 269.7 272.4)" color="#9400D3"/><use xlink:href="#g" transform="matrix(4.5 0 0 4.5 312.9 272.4)" color="#9400D3"/><use xlink:href="#g" transform="matrix(4.5 0 0 4.5 356 272.4)" color="#9400D3"/><use xlink:href="#g" transform="matrix(4.5 0 0 4.5 399.2 272.4)" color="#9400D3"/><use xlink:href="#g" transform="matrix(4.5 0 0 4.5 442.4 272.4)" color="#9400D3"/><use xlink:href="#g" transform="matrix(4.5 0 0 4.5 485.5 383.6)" color="#9400D3"/><use xlink:href="#g" transform="matrix(4.5 0 0 4.5 528.7 272.4)" color="#9400D3"/><use xlink:href="#g" transform="matrix(4.5 0 0 4.5 571.8 272.4)" color="#9400D3"/><use xlink:href="#g" transform="matrix(4.5 0 0 4.5 615 383.6)" color="#9400D3"/><use xlink:href="#g" transform="matrix(4.5 0 0 4.5 205.1 484)" color="#9400D3"/></g><text transform="translate(175.7 505.9)" stroke="none" fill="#000" font-family="Arial" font-size="12" text-anchor="end" color="#000"><tspan>p90mean</tspan></text><g fill="none" color="#000" stroke="currentColor"><path stroke="#009E73" d="M184 502h42.2M53.9 439.7L97.1 26.4H183.4l43.1 246H442.4l43.1 111.2 43.2-111.2h43.1L615 383.6"/><use xlink:href="#h" transform="matrix(4.5 0 0 4.5 53.9 439.7)" color="#009E73"/><use xlink:href="#h" transform="matrix(4.5 0 0 4.5 97.1 26.4)" color="#009E73"/><use xlink:href="#h" transform="matrix(4.5 0 0 4.5 140.2 26.4)" color="#009E73"/><use xlink:href="#h" transform="matrix(4.5 0 0 4.5 183.4 26.4)" color="#009E73"/><use xlink:href="#h" transform="matrix(4.5 0 0 4.5 226.5 272.4)" color="#009E73"/><use xlink:href="#h" transform="matrix(4.5 0 0 4.5 269.7 272.4)" color="#009E73"/><use xlink:href="#h" transform="matrix(4.5 0 0 4.5 312.9 272.4)" color="#009E73"/><use xlink:href="#h" transform="matrix(4.5 0 0 4.5 356 272.4)" color="#009E73"/><use xlink:href="#h" transform="matrix(4.5 0 0 4.5 399.2 272.4)" color="#009E73"/><use xlink:href="#h" transform="matrix(4.5 0 0 4.5 442.4 272.4)" color="#009E73"/><use xlink:href="#h" transform="matrix(4.5 0 0 4.5 485.5 383.6)" color="#009E73"/><use xlink:href="#h" transform="matrix(4.5 0 0 4.5 528.7 272.4)" color="#009E73"/><use xlink:href="#h" transform="matrix(4.5 0 0 4.5 571.8 272.4)" color="#009E73"/><use xlink:href="#h" transform="matrix(4.5 0 0 4.5 615 383.6)" color="#009E73"/><use xlink:href="#h" transform="matrix(4.5 0 0 4.5 205.1 502)" color="#009E73"/></g><text transform="translate(375.6 487.9)" stroke="none" fill="#000" font-family="Arial" font-size="12" text-anchor="end" color="#000"><tspan>p90median</tspan></text><g fill="none" color="#000" stroke="currentColor"><path stroke="#56B4E9" d="M383.9 484h42.2M53.9 439.7L97.1 26.4H183.4l43.1 246H442.4l43.1 111.2 43.2-111.2h43.1L615 383.6"/><use xlink:href="#i" transform="matrix(4.5 0 0 4.5 53.9 439.7)" color="#56B4E9"/><use xlink:href="#i" transform="matrix(4.5 0 0 4.5 97.1 26.4)" color="#56B4E9"/><use xlink:href="#i" transform="matrix(4.5 0 0 4.5 140.2 26.4)" color="#56B4E9"/><use xlink:href="#i" transform="matrix(4.5 0 0 4.5 183.4 26.4)" color="#56B4E9"/><use xlink:href="#i" transform="matrix(4.5 0 0 4.5 226.5 272.4)" color="#56B4E9"/><use xlink:href="#i" transform="matrix(4.5 0 0 4.5 269.7 272.4)" color="#56B4E9"/><use xlink:href="#i" transform="matrix(4.5 0 0 4.5 312.9 272.4)" color="#56B4E9"/><use xlink:href="#i" transform="matrix(4.5 0 0 4.5 356 272.4)" color="#56B4E9"/><use xlink:href="#i" transform="matrix(4.5 0 0 4.5 399.2 272.4)" color="#56B4E9"/><use xlink:href="#i" transform="matrix(4.5 0 0 4.5 442.4 272.4)" color="#56B4E9"/><use xlink:href="#i" transform="matrix(4.5 0 0 4.5 485.5 383.6)" color="#56B4E9"/><use xlink:href="#i" transform="matrix(4.5 0 0 4.5 528.7 272.4)" color="#56B4E9"/><use xlink:href="#i" transform="matrix(4.5 0 0 4.5 571.8 272.4)" color="#56B4E9"/><use xlink:href="#i" transform="matrix(4.5 0 0 4.5 615 383.6)" color="#56B4E9"/><use xlink:href="#i" transform="matrix(4.5 0 0 4.5 405 484)" color="#56B4E9"/></g><text transform="translate(375.6 505.9)" stroke="none" fill="#000" font-family="Arial" font-size="12" text-anchor="end" color="#000"><tspan>p90max</tspan></text><g fill="none" color="#000" stroke="currentColor"><path stroke="#E69F00" d="M383.9 502h42.2M53.9 439.7L97.1 26.4H183.4l43.1 246H442.4l43.1 111.2 43.2-111.2h43.1L615 383.6"/><use xlink:href="#d" transform="matrix(4.5 0 0 4.5 53.9 439.7)" color="#E69F00"/><use xlink:href="#d" transform="matrix(4.5 0 0 4.5 97.1 26.4)" color="#E69F00"/><use xlink:href="#d" transform="matrix(4.5 0 0 4.5 140.2 26.4)" color="#E69F00"/><use xlink:href="#d" transform="matrix(4.5 0 0 4.5 183.4 26.4)" color="#E69F00"/><use xlink:href="#d" transform="matrix(4.5 0 0 4.5 226.5 272.4)" color="#E69F00"/><use xlink:href="#d" transform="matrix(4.5 0 0 4.5 269.7 272.4)" color="#E69F00"/><use xlink:href="#d" transform="matrix(4.5 0 0 4.5 312.9 272.4)" color="#E69F00"/><use xlink:href="#d" transform="matrix(4.5 0 0 4.5 356 272.4)" color="#E69F00"/><use xlink:href="#d" transform="matrix(4.5 0 0 4.5 399.2 272.4)" color="#E69F00"/><use xlink:href="#d" transform="matrix(4.5 0 0 4.5 442.4 272.4)" color="#E69F00"/><use xlink:href="#d" transform="matrix(4.5 0 0 4.5 485.5 383.6)" color="#E69F00"/><use xlink:href="#d" transform="matrix(4.5 0 0 4.5 528.7 272.4)" color="#E69F00"/><use xlink:href="#d" transform="matrix(4.5 0 0 4.5 571.8 272.4)" color="#E69F00"/><use xlink:href="#d" transform="matrix(4.5 0 0 4.5 615 383.6)" color="#E69F00"/><use xlink:href="#d" transform="matrix(4.5 0 0 4.5 405 502)" color="#E69F00"/></g><g><text transform="translate(575.5 487.9)" stroke="none" fill="#000" font-family="Arial" font-size="12" text-anchor="end" color="#000"><tspan>score p10=818</tspan></text><path stroke="#F0E442" d="M583.8 484H626" fill="none" color="#000"/></g><g><text transform="translate(575.5 505.9)" stroke="none" fill="#000" font-family="Arial" font-size="12" text-anchor="end" color="#000"><tspan>score median=1400</tspan></text><path stroke="#0072B2" d="M583.8 502H626" fill="none" color="#000"/></g><g fill="none" color="#000" stroke="currentColor"><path stroke="#000" d="M53.9 18.1V448H615V18.1H53.9z"/></g></svg>