<svg width="640" height="490" xmlns="http://www.w3.org/2000/svg" xmlns:xlink="http://www.w3.org/1999/xlink"><path fill="#fff" d="M0 0h640v490H0z"/><defs><path id="d" stroke-width=".222" stroke="currentColor" d="M-1-1h2v2h-2z"/><path id="b" stroke-width=".222" stroke="currentColor" d="M0-1.33l-1.33 2h2.66z"/><path id="f" stroke-width=".222" stroke="currentColor" d="M0 1.33L1.265.411.782-1.067l-1.564-.009-.483 1.487z"/><use xlink:href="#b" id="c" stroke="currentColor" transform="rotate(180)"/><use xlink:href="#d" id="e" stroke="currentColor" transform="rotate(45)"/><circle id="a" stroke-width=".222" stroke="currentColor" cx="0" cy="0" r="1"/></defs><g fill="none" color="#000" stroke="currentColor"><path stroke="#000" d="M78.8 375.5h9m527.2 0h-9"/><text transform="translate(70.5 379.4)" stroke="none" fill="#000" font-family="Arial" font-size="12" text-anchor="end"><tspan>559300</tspan></text></g><g fill="none" color="#000" stroke="currentColor"><path stroke="#000" d="M78.8 329.7h9m527.2 0h-9"/><text transform="translate(70.5 333.6)" stroke="none" fill="#000" font-family="Arial" font-size="12" text-anchor="end"><tspan>559305</tspan></text></g><g fill="none" color="#000" stroke="currentColor"><path stroke="#000" d="M78.8 283.9h9m527.2 0h-9"/><text transform="translate(70.5 287.8)" stroke="none" fill="#000" font-family="Arial" font-size="12" text-anchor="end"><tspan>559310</tspan></text></g><g fill="none" color="#000" stroke="currentColor"><path stroke="#000" d="M78.8 238.1h9m527.2 0h-9"/><text transform="translate(70.5 242)" stroke="none" fill="#000" font-family="Arial" font-size="12" text-anchor="end"><tspan>559315</tspan></text></g><g fill="none" color="#000" stroke="currentColor"><path stroke="#000" d="M78.8 192.3h9m527.2 0h-9"/><text transform="translate(70.5 196.2)" stroke="none" fill="#000" font-family="Arial" font-size="12" text-anchor="end"><tspan>559320</tspan></text></g><g fill="none" color="#000" stroke="currentColor"><path stroke="#000" d="M78.8 146.4h9m527.2 0h-9"/><text transform="translate(70.5 150.3)" stroke="none" fill="#000" font-family="Arial" font-size="12" text-anchor="end"><tspan>559325</tspan></text></g><g fill="none" color="#000" stroke="currentColor"><path stroke="#000" d="M78.8 100.6h9m527.2 0h-9"/><text transform="translate(70.5 104.5)" stroke="none" fill="#000" font-family="Arial" font-size="12" text-anchor="end"><tspan>559330</tspan></text></g><g fill="none" color="#000" stroke="currentColor"><path stroke="#000" d="M78.8 54.8h9m527.2 0h-9"/><text transform="translate(70.5 58.7)" stroke="none" fill="#000" font-family="Arial" font-size="12" text-anchor="end"><tspan>559335</tspan></text></g><g fill="none" color="#000" stroke="currentColor"><path stroke="#000" d="M78.8 418v-9m0-390.9v9"/><text transform="translate(78.8 439.9)" stroke="none" fill="#000" font-family="Arial" font-size="12" text-anchor="middle"><tspan>0</tspan></text></g><g fill="none" color="#000" stroke="currentColor"><path stroke="#000" d="M133 418v-9m0-390.9v9"/><text transform="translate(133 439.9)" stroke="none" fill="#000" font-family="Arial" font-size="12" text-anchor="middle"><tspan>10</tspan></text></g><g fill="none" color="#000" stroke="currentColor"><path stroke="#000" d="M187.1 418v-9m0-390.9v9"/><text transform="translate(187.1 439.9)" stroke="none" fill="#000" font-family="Arial" font-size="12" text-anchor="middle"><tspan>20</tspan></text></g><g fill="none" color="#000" stroke="currentColor"><path stroke="#000" d="M241.3 418v-9m0-390.9v9"/><text transform="translate(241.3 439.9)" stroke="none" fill="#000" font-family="Arial" font-size="12" text-anchor="middle"><tspan>30</tspan></text></g><g fill="none" color="#000" stroke="currentColor"><path stroke="#000" d="M295.4 418v-9m0-390.9v9"/><text transform="translate(295.4 439.9)" stroke="none" fill="#000" font-family="Arial" font-size="12" text-anchor="middle"><tspan>40</tspan></text></g><g fill="none" color="#000" stroke="currentColor"><path stroke="#000" d="M349.6 418v-9m0-390.9v9"/><text transform="translate(349.6 439.9)" stroke="none" fill="#000" font-family="Arial" font-size="12" text-anchor="middle"><tspan>50</tspan></text></g><g fill="none" color="#000" stroke="currentColor"><path stroke="#000" d="M403.8 418v-9m0-390.9v9"/><text transform="translate(403.8 439.9)" stroke="none" fill="#000" font-family="Arial" font-size="12" text-anchor="middle"><tspan>60</tspan></text></g><g fill="none" color="#000" stroke="currentColor"><path stroke="#000" d="M457.9 418v-9m0-390.9v9"/><text transform="translate(457.9 439.9)" stroke="none" fill="#000" font-family="Arial" font-size="12" text-anchor="middle"><tspan>70</tspan></text></g><g fill="none" color="#000" stroke="currentColor"><path stroke="#000" d="M512.1 418v-9m0-390.9v9"/><text transform="translate(512.1 439.9)" stroke="none" fill="#000" font-family="Arial" font-size="12" text-anchor="middle"><tspan>80</tspan></text></g><g fill="none" color="#000" stroke="currentColor"><path stroke="#000" d="M566.3 418v-9m0-390.9v9"/><text transform="translate(566.3 439.9)" stroke="none" fill="#000" font-family="Arial" font-size="12" text-anchor="middle"><tspan>90</tspan></text></g><path stroke="#000" d="M78.8 18.1V418H615V18.1H78.8z" fill="none" color="#000"/><text transform="translate(288.1 457.9)" stroke="none" fill="#000" font-family="Arial" font-size="12" text-anchor="end" color="#000"><tspan>raw</tspan></text><path stroke="#9400D3" d="M296.4 454h42.2M78.8 143.6l5.4 197.1 5.4-88.9 5.4 21.1 5.5-43.2 5.4-32.9 5.4-31.1 5.4 84.2 5.4-16.5 5.4 1 5.5-52.6 5.4 148.8 5.4-73.9 5.4-59 5.4 7.4 5.4-1.9 5.5 65.1 5.4 142 5.4-340.9 5.4 110.1 5.4 105.3 5.4-66.9 5.5 100.8 5.4-113.6 5.4 176.8 5.4-124.6 5.4 41.2 5.4-96.2 5.5 183.3 5.4-239.2 5.4 4.6 5.4 32.9 5.4 12.9 5.4 38.5 5.4-88.5 5.5 14.2 5.4 63.3 5.4-11.9 5.4 121.9 5.4-138.4 5.4 54.1 5.5-128 5.4 219.6 5.4-85.2 5.4-138.4 5.4 124.6 5.4-39.4 5.5 16.5 5.4 20.2 5.4 87 5.4-107.2 5.4 171.4 5.4-133.5 5.5-22.3 5.4-117.2 5.4 158.4 5.4 93.5 5.4-106.3 5.4 7.3 5.5-47.6 5.4 20.1 5.4-107.7 5.4 61.9L420 25.8l5.4 136.2 5.5 47.8 5.4-19.4 5.4 33 5.4 76.9 5.4-94.3 5.4-105.6 5.4 103.8 5.5-162.8 5.4 258.9 5.4-146.5 5.4 143.8h5.4l5.4-20.2 5.5-6.4 5.4 36.7 5.4-105.4 5.4 88.9 5.4 24.7 5.4-94.2 5.5 32.1 5.4-84.5 5.4 77.9L550 36.4l5.4 263.9 5.4-57.7 5.5 63.3 5.4 11.8 5.4-40.3 5.4-16.4 5.4-95.4 5.4-27.5 5.5 73.4 5.4-72.4 5.4 211.7 5.4-66" fill="none" color="#000"/><text transform="translate(288.1 475.9)" stroke="none" fill="#000" font-family="Arial" font-size="12" text-anchor="end" color="#000"><tspan>score p10=28672</tspan></text><path stroke="#009E73" d="M296.4 472h42.2" fill="none" color="#000"/><text transform="translate(504.6 457.9)" stroke="none" fill="#000" font-family="Arial" font-size="12" text-anchor="end" color="#000"><tspan>score median=131072</tspan></text><path stroke="#56B4E9" d="M512.9 454h42.2" fill="none" color="#000"/><g fill="none" color="#000" stroke="currentColor"><path stroke="#000" d="M78.8 18.1V418H615V18.1H78.8z"/></g></svg>