<svg width="640" height="500" xmlns="http://www.w3.org/2000/svg" xmlns:xlink="http://www.w3.org/1999/xlink"><path fill="#fff" d="M0 0h640v500H0z"/><defs><path id="d" stroke-width=".222" stroke="currentColor" d="M-1-1h2v2h-2z"/><path id="b" stroke-width=".222" stroke="currentColor" d="M0-1.33l-1.33 2h2.66z"/><path id="f" stroke-width=".222" stroke="currentColor" d="M0 1.33L1.265.411.782-1.067l-1.564-.009-.483 1.487z"/><use xlink:href="#b" id="c" stroke="currentColor" transform="rotate(180)"/><use xlink:href="#d" id="e" stroke="currentColor" transform="rotate(45)"/><circle id="a" stroke-width=".222" stroke="currentColor" cx="0" cy="0" r="1"/></defs><g fill="none" color="#000" stroke="currentColor"><path stroke="#000" d="M53.9 415.6h9m552.1 0h-9"/><text transform="translate(45.6 419.5)" stroke="none" fill="#000" font-family="Arial" font-size="12" text-anchor="end"><tspan>180</tspan></text></g><g fill="none" color="#000" stroke="currentColor"><path stroke="#000" d="M53.9 370.6h9m552.1 0h-9"/><text transform="translate(45.6 374.5)" stroke="none" fill="#000" font-family="Arial" font-size="12" text-anchor="end"><tspan>200</tspan></text></g><g fill="none" color="#000" stroke="currentColor"><path stroke="#000" d="M53.9 325.5h9m552.1 0h-9"/><text transform="translate(45.6 329.4)" stroke="none" fill="#000" font-family="Arial" font-size="12" text-anchor="end"><tspan>220</tspan></text></g><g fill="none" color="#000" stroke="currentColor"><path stroke="#000" d="M53.9 280.5h9m552.1 0h-9"/><text transform="translate(45.6 284.4)" stroke="none" fill="#000" font-family="Arial" font-size="12" text-anchor="end"><tspan>240</tspan></text></g><g fill="none" color="#000" stroke="currentColor"><path stroke="#000" d="M53.9 235.4h9m552.1 0h-9"/><text transform="translate(45.6 239.3)" stroke="none" fill="#000" font-family="Arial" font-size="12" text-anchor="end"><tspan>260</tspan></text></g><g fill="none" color="#000" stroke="currentColor"><path stroke="#000" d="M53.9 190.4h9m552.1 0h-9"/><text transform="translate(45.6 194.3)" stroke="none" fill="#000" font-family="Arial" font-size="12" text-anchor="end"><tspan>280</tspan></text></g><g fill="none" color="#000" stroke="currentColor"><path stroke="#000" d="M53.9 145.3h9m552.1 0h-9"/><text transform="translate(45.6 149.2)" stroke="none" fill="#000" font-family="Arial" font-size="12" text-anchor="end"><tspan>300</tspan></text></g><g fill="none" color="#000" stroke="currentColor"><path stroke="#000" d="M53.9 100.3h9m552.1 0h-9"/><text transform="translate(45.6 104.2)" stroke="none" fill="#000" font-family="Arial" font-size="12" text-anchor="end"><tspan>320</tspan></text></g><g fill="none" color="#000" stroke="currentColor"><path stroke="#000" d="M53.9 55.3h9m552.1 0h-9"/><text transform="translate(45.6 59.2)" stroke="none" fill="#000" font-family="Arial" font-size="12" text-anchor="end"><tspan>340</tspan></text></g><g fill="none" color="#000" stroke="currentColor"><path stroke="#000" d="M53.9 428v-9m0-400.9v9"/><text transform="translate(53.9 449.9)" stroke="none" fill="#000" font-family="Arial" font-size="12" text-anchor="middle"><tspan>0</tspan></text></g><g fill="none" color="#000" stroke="currentColor"><path stroke="#000" d="M110.6 428v-9m0-400.9v9"/><text transform="translate(110.6 449.9)" stroke="none" fill="#000" font-family="Arial" font-size="12" text-anchor="middle"><tspan>10</tspan></text></g><g fill="none" color="#000" stroke="currentColor"><path stroke="#000" d="M167.3 428v-9m0-400.9v9"/><text transform="translate(167.3 449.9)" stroke="none" fill="#000" font-family="Arial" font-size="12" text-anchor="middle"><tspan>20</tspan></text></g><g fill="none" color="#000" stroke="currentColor"><path stroke="#000" d="M223.9 428v-9m0-400.9v9"/><text transform="translate(223.9 449.9)" stroke="none" fill="#000" font-family="Arial" font-size="12" text-anchor="middle"><tspan>30</tspan></text></g><g fill="none" color="#000" stroke="currentColor"><path stroke="#000" d="M280.6 428v-9m0-400.9v9"/><text transform="translate(280.6 449.9)" stroke="none" fill="#000" font-family="Arial" font-size="12" text-anchor="middle"><tspan>40</tspan></text></g><g fill="none" color="#000" stroke="currentColor"><path stroke="#000" d="M337.3 428v-9m0-400.9v9"/><text transform="translate(337.3 449.9)" stroke="none" fill="#000" font-family="Arial" font-size="12" text-anchor="middle"><tspan>50</tspan></text></g><g fill="none" color="#000" stroke="currentColor"><path stroke="#000" d="M394 428v-9m0-400.9v9"/><text transform="translate(394 449.9)" stroke="none" fill="#000" font-family="Arial" font-size="12" text-anchor="middle"><tspan>60</tspan></text></g><g fill="none" color="#000" stroke="currentColor"><path stroke="#000" d="M450.6 428v-9m0-400.9v9"/><text transform="translate(450.6 449.9)" stroke="none" fill="#000" font-family="Arial" font-size="12" text-anchor="middle"><tspan>70</tspan></text></g><g fill="none" color="#000" stroke="currentColor"><path stroke="#000" d="M507.3 428v-9m0-400.9v9"/><text transform="translate(507.3 449.9)" stroke="none" fill="#000" font-family="Arial" font-size="12" text-anchor="middle"><tspan>80</tspan></text></g><g fill="none" color="#000" stroke="currentColor"><path stroke="#000" d="M564 428v-9m0-400.9v9"/><text transform="translate(564 449.9)" stroke="none" fill="#000" font-family="Arial" font-size="12" text-anchor="middle"><tspan>90</tspan></text></g><path stroke="#000" d="M53.9 18.1V428H615V18.1H53.9z" fill="none" color="#000"/><text transform="translate(275.6 467.9)" stroke="none" fill="#000" font-family="Arial" font-size="12" text-anchor="end" color="#000"><tspan>pages+cached</tspan></text><path stroke="#9400D3" d="M283.9 464h42.2M53.9 420.1l5.7-268 5.6 210.1 5.7-207.8 5.7 9 5.6-105.9 5.7 159.9 5.7-184.7 5.6 169 5.7-45.1 5.7 60.8 5.6-4.5 5.7-58.5L127.6 53l5.6 108.1 5.7-20.3 5.7 67.6 5.7-72.1 5.6 15.8 5.7 58.6 5.7-56.3h5.6l5.7-4.5 5.7 49.5 5.6-63.1 5.7-18 5.7 90.1 5.6-58.5 5.7 11.2 5.7 38.3 5.6-51.8 5.7 54.1 5.7 6.7 5.6 2.3 5.7 6.7 5.7-85.6 5.6 42.8L263.6 26l5.7 166.6 5.6-2.2 5.7-36 5.7 4.5 5.6-9 5.7-42.8 5.7 96.8 5.6-60.8 5.7 69.8 5.7-76.6 5.6 74.4 5.7-58.6 5.7 58.6L343 91.3l5.6 105.8 5.7 9.1 5.7-58.6 5.6 42.8 5.7 6.7 5.7 2.3 5.6-42.8 5.7-4.5 5.7 65.3 5.6-24.8 5.7 20.3 5.7-24.8 5.6-45 5.7-13.5 5.7 85.6 5.6-54.1 5.7 27 5.7 22.6 5.6 4.5 5.7-11.3 5.7-78.8 5.6 45 5.7-11.2 5.7 45 5.6-13.5 5.7 24.8 5.7-4.5 5.6-51.8 5.7-18.1 5.7 20.3 5.6-13.5 5.7 65.3 5.7-9 5.7 11.3 5.6-9 5.7 6.7 5.7-6.7 5.6 4.5 5.7-58.6 5.7 54.1 5.6 4.5h5.7l5.7-58.6 5.6 58.6 5.7-2.3 5.7-4.5 5.6-54 5.7-2.3" fill="none" color="#000"/><text transform="translate(275.6 485.9)" stroke="none" fill="#000" font-family="Arial" font-size="12" text-anchor="end" color="#000"><tspan>pages+cached+nointeractive</tspan></text><path stroke="#009E73" d="M283.9 482h42.2M53.9 138.6l5.7 74.3 5.6-112.6 5.7 65.3 5.7-6.7 5.6 51.8 5.7-58.6 5.7 60.8 5.6-49.5 5.7-78.9 5.7 74.4 5.6-2.3 5.7 24.8 5.7-29.3 5.6 60.8 5.7 2.3 5.7-58.6 5.7 56.3 5.6-6.7 5.7-47.3 5.7 49.5 5.6-4.5 5.7 6.8 5.7-54.1h5.6l5.7 49.6 5.7 15.7 5.6-9h5.7l5.7 2.3 5.6-63.1 5.7 54.1 5.7 6.7 5.6-58.5 5.7 58.5 5.7 4.5 5.6-24.8 5.7 6.8 5.7-42.8 5.6 49.6 5.7 6.7 5.7-63 5.6 76.5 5.7-72 5.7 56.3 5.6-11.3 5.7 2.3h5.7l5.6 2.2 5.7 9 5.7-2.2 5.7-6.8 5.6-2.2 5.7 20.2 5.7-13.5 5.6 4.5 5.7-72.1 5.7 24.8 5.6 40.6 5.7 13.5 5.7-11.3 5.6-51.8 5.7 51.8 5.7 6.8 5.6 9 5.7-13.5h5.7l5.6 4.5 5.7-36.1 5.7 27.1 5.6-74.4 5.7 22.6 5.7 54 5.6-54 5.7 51.8 5.7 2.2h5.6l5.7 9 5.7-9 5.6 13.5 5.7-33.8 5.7 22.6 5.6-42.8 5.7 42.8 5.7-2.3 5.7-76.6 5.6 78.9 5.7-56.3 5.7 47.3 5.6-13.6 5.7 15.8 5.7-40.5 5.6 51.8 5.7 2.2 5.7-13.5 5.6-49.5 5.7 63 5.7-4.5 5.6-33.8 5.7-2.2" fill="none" color="#000"/><text transform="translate(550.2 467.9)" stroke="none" fill="#000" font-family="Arial" font-size="12" text-anchor="end" color="#000"><tspan>score p10=287</tspan></text><path stroke="#56B4E9" d="M558.5 464h42.2M53.9 174.6H615" fill="none" color="#000"/><g><text transform="translate(550.2 485.9)" stroke="none" fill="#000" font-family="Arial" font-size="12" text-anchor="end" color="#000"><tspan>score median=600</tspan></text><path stroke="#E69F00" d="M558.5 482h42.2" fill="none" color="#000"/></g><g fill="none" color="#000" stroke="currentColor"><path stroke="#000" d="M53.9 18.1V428H615V18.1H53.9z"/></g></svg>