<svg width="640" height="620" xmlns="http://www.w3.org/2000/svg" xmlns:xlink="http://www.w3.org/1999/xlink"><path fill="#fff" d="M0 0h640v620H0z"/><defs><path id="d" stroke-width=".222" stroke="currentColor" d="M-1-1h2v2h-2z"/><path id="b" stroke-width=".222" stroke="currentColor" d="M0-1.33l-1.33 2h2.66z"/><path id="f" stroke-width=".222" stroke="currentColor" d="M0 1.33L1.265.411.782-1.067l-1.564-.009-.483 1.487z"/><use xlink:href="#b" id="c" stroke="currentColor" transform="rotate(180)"/><use xlink:href="#d" id="e" stroke="currentColor" transform="rotate(45)"/><circle id="a" stroke-width=".222" stroke="currentColor" cx="0" cy="0" r="1"/></defs><g fill="none" color="#000" stroke="currentColor"><path stroke="#000" d="M53.9 290.7h9m552.1 0h-9"/><text transform="translate(45.6 294.6)" stroke="none" fill="#000" font-family="Arial" font-size="12" text-anchor="end"><tspan>0</tspan></text></g><g fill="none" color="#000" stroke="currentColor"><path stroke="#000" d="M53.9 244h9m552.1 0h-9"/><text transform="translate(45.6 247.9)" stroke="none" fill="#000" font-family="Arial" font-size="12" text-anchor="end"><tspan>0.2</tspan></text></g><g fill="none" color="#000" stroke="currentColor"><path stroke="#000" d="M53.9 197.4h9m552.1 0h-9"/><text transform="translate(45.6 201.3)" stroke="none" fill="#000" font-family="Arial" font-size="12" text-anchor="end"><tspan>0.4</tspan></text></g><g fill="none" color="#000" stroke="currentColor"><path stroke="#000" d="M53.9 150.8h9m552.1 0h-9"/><text transform="translate(45.6 154.7)" stroke="none" fill="#000" font-family="Arial" font-size="12" text-anchor="end"><tspan>0.6</tspan></text></g><g fill="none" color="#000" stroke="currentColor"><path stroke="#000" d="M53.9 104.2h9m552.1 0h-9"/><text transform="translate(45.6 108.1)" stroke="none" fill="#000" font-family="Arial" font-size="12" text-anchor="end"><tspan>0.8</tspan></text></g><g fill="none" color="#000" stroke="currentColor"><path stroke="#000" d="M53.9 57.5h9m552.1 0h-9"/><text transform="translate(45.6 61.4)" stroke="none" fill="#000" font-family="Arial" font-size="12" text-anchor="end"><tspan>1</tspan></text></g><g fill="none" color="#000" stroke="currentColor"><path stroke="#000" d="M53.9 296v-9m0-268.9v9"/><text transform="translate(53.9 317.9)" stroke="none" fill="#000" font-family="Arial" font-size="12" text-anchor="middle"><tspan>0</tspan></text></g><g fill="none" color="#000" stroke="currentColor"><path stroke="#000" d="M110.6 296v-9m0-268.9v9"/><text transform="translate(110.6 317.9)" stroke="none" fill="#000" font-family="Arial" font-size="12" text-anchor="middle"><tspan>10</tspan></text></g><g fill="none" color="#000" stroke="currentColor"><path stroke="#000" d="M167.3 296v-9m0-268.9v9"/><text transform="translate(167.3 317.9)" stroke="none" fill="#000" font-family="Arial" font-size="12" text-anchor="middle"><tspan>20</tspan></text></g><g fill="none" color="#000" stroke="currentColor"><path stroke="#000" d="M223.9 296v-9m0-268.9v9"/><text transform="translate(223.9 317.9)" stroke="none" fill="#000" font-family="Arial" font-size="12" text-anchor="middle"><tspan>30</tspan></text></g><g fill="none" color="#000" stroke="currentColor"><path stroke="#000" d="M280.6 296v-9m0-268.9v9"/><text transform="translate(280.6 317.9)" stroke="none" fill="#000" font-family="Arial" font-size="12" text-anchor="middle"><tspan>40</tspan></text></g><g fill="none" color="#000" stroke="currentColor"><path stroke="#000" d="M337.3 296v-9m0-268.9v9"/><text transform="translate(337.3 317.9)" stroke="none" fill="#000" font-family="Arial" font-size="12" text-anchor="middle"><tspan>50</tspan></text></g><g fill="none" color="#000" stroke="currentColor"><path stroke="#000" d="M394 296v-9m0-268.9v9"/><text transform="translate(394 317.9)" stroke="none" fill="#000" font-family="Arial" font-size="12" text-anchor="middle"><tspan>60</tspan></text></g><g fill="none" color="#000" stroke="currentColor"><path stroke="#000" d="M450.6 296v-9m0-268.9v9"/><text transform="translate(450.6 317.9)" stroke="none" fill="#000" font-family="Arial" font-size="12" text-anchor="middle"><tspan>70</tspan></text></g><g fill="none" color="#000" stroke="currentColor"><path stroke="#000" d="M507.3 296v-9m0-268.9v9"/><text transform="translate(507.3 317.9)" stroke="none" fill="#000" font-family="Arial" font-size="12" text-anchor="middle"><tspan>80</tspan></text></g><g fill="none" color="#000" stroke="currentColor"><path stroke="#000" d="M564 296v-9m0-268.9v9"/><text transform="translate(564 317.9)" stroke="none" fill="#000" font-family="Arial" font-size="12" text-anchor="middle"><tspan>90</tspan></text></g><path stroke="#000" d="M53.9 18.1V296H615V18.1H53.9z" fill="none" color="#000"/><text transform="translate(529.1 335.9)" stroke="none" fill="#000" font-family="Arial" font-size="12" text-anchor="end" color="#000"><tspan>empty</tspan></text><path stroke="#9400D3" d="M537.4 332h42.2M53.9 290.7H615" fill="none" color="#000"/><text transform="translate(529.1 353.9)" stroke="none" fill="#000" font-family="Arial" font-size="12" text-anchor="end" color="#000"><tspan>pages</tspan></text><path stroke="#009E73" d="M537.4 350h42.2M53.9 243.5l5.7-4.3H223.9l5.7-19.6h5.7l5.6-35.1h5.7l5.7-.1h11.3l5.7-28.7H615" fill="none" color="#000"/><text transform="translate(529.1 371.9)" stroke="none" fill="#000" font-family="Arial" font-size="12" text-anchor="end" color="#000"><tspan>pages+cached</tspan></text><path stroke="#56B4E9" d="M537.4 368h42.2M53.9 268.8l5.7-19.9h5.6l5.7-2.7h141.7l5.7-9.1H280.6l5.7-3.6H354.3l5.7-7.7 5.6-9.2 5.7-14.5H496l5.6-4.5h107.7l5.7-2.5" fill="none" color="#000"/><text transform="translate(529.1 389.9)" stroke="none" fill="#000" font-family="Arial" font-size="12" text-anchor="end" color="#000"><tspan>pages+cached+nointeractive</tspan></text><path stroke="#E69F00" d="M537.4 386h42.2M53.9 248.9h22.7l5.6-2.7H303.3l5.6-9.1h22.7l5.7-3.6h17l5.7-16.9 5.6-14.5H462l5.6-4.5h141.7l5.7-2.5" fill="none" color="#000"/><text transform="translate(529.1 407.9)" stroke="none" fill="#000" font-family="Arial" font-size="12" text-anchor="end" color="#000"><tspan>pages+cached+noadtech</tspan></text><path stroke="#F0E442" d="M537.4 404h42.2M53.9 275.8l5.7-7H144.6l5.7-19.9H246.6l5.7-2.7H428l5.6-9.1H496l5.6-3.6 5.7-16.9H592.3l5.7-14.5h17" fill="none" color="#000"/><text transform="translate(529.1 425.9)" stroke="none" fill="#000" font-family="Arial" font-size="12" text-anchor="end" color="#000"><tspan>pages+cached+noexternal</tspan></text><path stroke="#0072B2" d="M537.4 422h42.2M53.9 268.8H99.2l5.7-19.9h34l5.7-2.7H291.9l5.7-4.4H416.6l5.7-2.6H484.6l5.7-11.1 5.7-11.5h28.3l5.7-14.5H592.3L598 27.4h17" fill="none" color="#000"/><text transform="translate(529.1 443.9)" stroke="none" fill="#000" font-family="Arial" font-size="12" text-anchor="end" color="#000"><tspan>pages+cached+noexternal+nofonts</tspan></text><path stroke="#E51E10" d="M537.4 440h42.2M53.9 275.8H229.6l5.7-7h5.6l5.7-19.9H405.3l5.7-2.7H535.7l5.6-4.4h17l5.7-2.6h17l5.7-28.6H615" fill="none" color="#000"/><g><text transform="translate(529.1 461.9)" stroke="none" fill="#000" font-family="Arial" font-size="12" text-anchor="end" color="#000"><tspan>pages+cached+noexternal+nosvg</tspan></text><path stroke="#000" d="M537.4 458h42.2M53.9 274.5H172.9l5.7-29.7H263.6l5.7-2H371.3l5.7-5H552.7l5.6-2 5.7-13.4h11.3l5.7-199h34" fill="none" color="#000"/></g><g><text transform="translate(529.1 479.9)" stroke="none" fill="#000" font-family="Arial" font-size="12" text-anchor="end" color="#000"><tspan>pages+cached+noexternal+noimg</tspan></text><path stroke="#9400D3" d="M537.4 476h42.2M53.9 268.8H133.2l5.7-19.9h11.4l5.6-2.7H348.6l5.7-4.4H462l5.6-2.6h34l5.7-22.6H530l5.7-14.5H609.3L615 27.4" fill="none" color="#000"/></g><g><text transform="translate(529.1 497.9)" stroke="none" fill="#000" font-family="Arial" font-size="12" text-anchor="end" color="#000"><tspan>pages+cached+noexternal+nocss</tspan></text><path stroke="#009E73" d="M537.4 494h42.2M53.9 233.5H569.7l5.6-36.3h11.4l5.6-85.4H615" fill="none" color="#000"/></g><g><text transform="translate(529.1 515.9)" stroke="none" fill="#000" font-family="Arial" font-size="12" text-anchor="end" color="#000"><tspan>pages+cached+noexternal+nojs</tspan></text><path stroke="#56B4E9" d="M537.4 512h42.2M53.9 290.7H615" fill="none" color="#000"/></g><g><text transform="translate(529.1 533.9)" stroke="none" fill="#000" font-family="Arial" font-size="12" text-anchor="end" color="#000"><tspan>pages+cached+noexternal+nofonts+nosvg+noimg</tspan></text><path stroke="#E69F00" d="M537.4 530h42.2M53.9 281.6H133.2l5.7-7.1h28.4l5.6-29.7H433.6l5.7-2H513l5.6-5H547l5.7-2H564l5.7-13.4 5.6-6.1H615" fill="none" color="#000"/></g><g><text transform="translate(529.1 551.9)" stroke="none" fill="#000" font-family="Arial" font-size="12" text-anchor="end" color="#000"><tspan>pages+cached+noexternal+nofonts+nosvg+noimg+nocss</tspan></text><path stroke="#F0E442" d="M537.4 548h42.2M53.9 237.4H467.6l5.7-.2H564l5.7-32H615" fill="none" color="#000"/></g><g><text transform="translate(529.1 569.9)" stroke="none" fill="#000" font-family="Arial" font-size="12" text-anchor="end" color="#000"><tspan>pages+cached+noexternal+nofonts+nosvg+noimg+nocss+nojs</tspan></text><path stroke="#0072B2" d="M537.4 566h42.2M53.9 290.7H615" fill="none" color="#000"/></g><g><text transform="translate(529.1 587.9)" stroke="none" fill="#000" font-family="Arial" font-size="12" text-anchor="end" color="#000"><tspan>score p10=0.1</tspan></text><path stroke="#E51E10" d="M537.4 584h42.2M53.9 267.3H615" fill="none" color="#000"/></g><g><text transform="translate(529.1 605.9)" stroke="none" fill="#000" font-family="Arial" font-size="12" text-anchor="end" color="#000"><tspan>score median=0.25</tspan></text><path stroke="#000" d="M537.4 602h42.2M53.9 232.4H615" fill="none" color="#000"/></g><g fill="none" color="#000" stroke="currentColor"><path stroke="#000" d="M53.9 18.1V296H615V18.1H53.9z"/></g></svg>