<svg width="640" height="520" xmlns="http://www.w3.org/2000/svg" xmlns:xlink="http://www.w3.org/1999/xlink"><path fill="#fff" d="M0 0h640v520H0z"/><defs><path id="g" stroke-width=".222" stroke="currentColor" d="M-1 0h2M0-1v2"/><path id="h" stroke-width=".222" stroke="currentColor" d="M-1-1l2 2m0-2l-2 2"/><path id="i" stroke-width=".222" stroke="currentColor" d="M-1 0h2M0-1v2m-1-2l2 2m-2 0l2-2"/><path id="d" stroke-width=".222" stroke="currentColor" d="M-1-1h2v2h-2z"/><path id="b" stroke-width=".222" stroke="currentColor" d="M0-1.33l-1.33 2h2.66z"/><path id="f" stroke-width=".222" stroke="currentColor" d="M0 1.33L1.265.411.782-1.067l-1.564-.009-.483 1.487z"/><use xlink:href="#b" id="c" stroke="currentColor" transform="rotate(180)"/><use xlink:href="#d" id="e" stroke="currentColor" transform="rotate(45)"/><circle id="a" stroke-width=".222" stroke="currentColor" cx="0" cy="0" r="1"/></defs><g fill="none" color="#000" stroke="currentColor"><path stroke="#000" d="M62.2 396.9h9m543.8 0h-9"/><text transform="translate(53.9 400.8)" stroke="none" fill="#000" font-family="Arial" font-size="12" text-anchor="end"><tspan>0.93</tspan></text></g><g fill="none" color="#000" stroke="currentColor"><path stroke="#000" d="M62.2 343.9h9m543.8 0h-9"/><text transform="translate(53.9 347.8)" stroke="none" fill="#000" font-family="Arial" font-size="12" text-anchor="end"><tspan>0.94</tspan></text></g><g fill="none" color="#000" stroke="currentColor"><path stroke="#000" d="M62.2 291h9m543.8 0h-9"/><text transform="translate(53.9 294.9)" stroke="none" fill="#000" font-family="Arial" font-size="12" text-anchor="end"><tspan>0.95</tspan></text></g><g fill="none" color="#000" stroke="currentColor"><path stroke="#000" d="M62.2 238.1h9m543.8 0h-9"/><text transform="translate(53.9 242)" stroke="none" fill="#000" font-family="Arial" font-size="12" text-anchor="end"><tspan>0.96</tspan></text></g><g fill="none" color="#000" stroke="currentColor"><path stroke="#000" d="M62.2 185.1h9m543.8 0h-9"/><text transform="translate(53.9 189)" stroke="none" fill="#000" font-family="Arial" font-size="12" text-anchor="end"><tspan>0.97</tspan></text></g><g fill="none" color="#000" stroke="currentColor"><path stroke="#000" d="M62.2 132.2h9m543.8 0h-9"/><text transform="translate(53.9 136.1)" stroke="none" fill="#000" font-family="Arial" font-size="12" text-anchor="end"><tspan>0.98</tspan></text></g><g fill="none" color="#000" stroke="currentColor"><path stroke="#000" d="M62.2 79.3h9m543.8 0h-9"/><text transform="translate(53.9 83.2)" stroke="none" fill="#000" font-family="Arial" font-size="12" text-anchor="end"><tspan>0.99</tspan></text></g><g fill="none" color="#000" stroke="currentColor"><path stroke="#000" d="M62.2 26.3h9m543.8 0h-9"/><text transform="translate(53.9 30.2)" stroke="none" fill="#000" font-family="Arial" font-size="12" text-anchor="end"><tspan>1</tspan></text></g><g fill="none" color="#000" stroke="currentColor"><path stroke="#000" d="M62.2 448v-9m0-420.9v9"/><text transform="translate(62.2 469.9)" stroke="none" fill="#000" font-family="Arial" font-size="12" text-anchor="middle"><tspan>0</tspan></text></g><g fill="none" color="#000" stroke="currentColor"><path stroke="#000" d="M147.2 448v-9m0-420.9v9"/><text transform="translate(147.2 469.9)" stroke="none" fill="#000" font-family="Arial" font-size="12" text-anchor="middle"><tspan>2</tspan></text></g><g fill="none" color="#000" stroke="currentColor"><path stroke="#000" d="M232.3 448v-9m0-420.9v9"/><text transform="translate(232.3 469.9)" stroke="none" fill="#000" font-family="Arial" font-size="12" text-anchor="middle"><tspan>4</tspan></text></g><g fill="none" color="#000" stroke="currentColor"><path stroke="#000" d="M317.3 448v-9m0-420.9v9"/><text transform="translate(317.3 469.9)" stroke="none" fill="#000" font-family="Arial" font-size="12" text-anchor="middle"><tspan>6</tspan></text></g><g fill="none" color="#000" stroke="currentColor"><path stroke="#000" d="M402.4 448v-9m0-420.9v9"/><text transform="translate(402.4 469.9)" stroke="none" fill="#000" font-family="Arial" font-size="12" text-anchor="middle"><tspan>8</tspan></text></g><g fill="none" color="#000" stroke="currentColor"><path stroke="#000" d="M487.4 448v-9m0-420.9v9"/><text transform="translate(487.4 469.9)" stroke="none" fill="#000" font-family="Arial" font-size="12" text-anchor="middle"><tspan>10</tspan></text></g><g fill="none" color="#000" stroke="currentColor"><path stroke="#000" d="M572.5 448v-9m0-420.9v9"/><text transform="translate(572.5 469.9)" stroke="none" fill="#000" font-family="Arial" font-size="12" text-anchor="middle"><tspan>12</tspan></text></g><path stroke="#000" d="M62.2 18.1V448H615V18.1H62.2z" fill="none" color="#000"/><text transform="translate(279.8 487.9)" stroke="none" fill="#000" font-family="Arial" font-size="12" text-anchor="end" color="#000"><tspan>score:p90min</tspan></text><g fill="none" color="#000" stroke="currentColor"><path stroke="#9400D3" d="M288.1 484h42.2M62.2 26.4l42.5 293.7 42.5 119.6 42.6-.3 42.5-115.2 42.5-.5 42.5 48.8 42.6-184.1 42.5 132.8 42.5-195.6L487.4 82 530 369.3l42.5-245.1L615 80.1"/><use xlink:href="#g" transform="matrix(4.5 0 0 4.5 62.2 26.4)" color="#9400D3"/><use xlink:href="#g" transform="matrix(4.5 0 0 4.5 104.7 320.1)" color="#9400D3"/><use xlink:href="#g" transform="matrix(4.5 0 0 4.5 147.2 439.7)" color="#9400D3"/><use xlink:href="#g" transform="matrix(4.5 0 0 4.5 189.8 439.4)" color="#9400D3"/><use xlink:href="#g" transform="matrix(4.5 0 0 4.5 232.3 324.2)" color="#9400D3"/><use xlink:href="#g" transform="matrix(4.5 0 0 4.5 274.8 323.7)" color="#9400D3"/><use xlink:href="#g" transform="matrix(4.5 0 0 4.5 317.3 372.5)" color="#9400D3"/><use xlink:href="#g" transform="matrix(4.5 0 0 4.5 359.9 188.4)" color="#9400D3"/><use xlink:href="#g" transform="matrix(4.5 0 0 4.5 402.4 321.2)" color="#9400D3"/><use xlink:href="#g" transform="matrix(4.5 0 0 4.5 444.9 125.6)" color="#9400D3"/><use xlink:href="#g" transform="matrix(4.5 0 0 4.5 487.4 82)" color="#9400D3"/><use xlink:href="#g" transform="matrix(4.5 0 0 4.5 530 369.3)" color="#9400D3"/><use xlink:href="#g" transform="matrix(4.5 0 0 4.5 572.5 124.2)" color="#9400D3"/><use xlink:href="#g" transform="matrix(4.5 0 0 4.5 615 80.1)" color="#9400D3"/><use xlink:href="#g" transform="matrix(4.5 0 0 4.5 309.2 484)" color="#9400D3"/></g><text transform="translate(279.8 505.9)" stroke="none" fill="#000" font-family="Arial" font-size="12" text-anchor="end" color="#000"><tspan>score:p90mean</tspan></text><g fill="none" color="#000" stroke="currentColor"><path stroke="#009E73" d="M288.1 502h42.2M62.2 26.4l42.5 234.8 42.5 39.8 42.6 75.4 42.5-107.7 42.5-6.6 42.5-128.3 42.6 52.5 42.5 86 42.5-147.6 42.5-43.6 42.6 24.7 42.5 17.5L615 79.8"/><use xlink:href="#h" transform="matrix(4.5 0 0 4.5 62.2 26.4)" color="#009E73"/><use xlink:href="#h" transform="matrix(4.5 0 0 4.5 104.7 261.2)" color="#009E73"/><use xlink:href="#h" transform="matrix(4.5 0 0 4.5 147.2 301)" color="#009E73"/><use xlink:href="#h" transform="matrix(4.5 0 0 4.5 189.8 376.4)" color="#009E73"/><use xlink:href="#h" transform="matrix(4.5 0 0 4.5 232.3 268.7)" color="#009E73"/><use xlink:href="#h" transform="matrix(4.5 0 0 4.5 274.8 262.1)" color="#009E73"/><use xlink:href="#h" transform="matrix(4.5 0 0 4.5 317.3 133.8)" color="#009E73"/><use xlink:href="#h" transform="matrix(4.5 0 0 4.5 359.9 186.3)" color="#009E73"/><use xlink:href="#h" transform="matrix(4.5 0 0 4.5 402.4 272.3)" color="#009E73"/><use xlink:href="#h" transform="matrix(4.5 0 0 4.5 444.9 124.7)" color="#009E73"/><use xlink:href="#h" transform="matrix(4.5 0 0 4.5 487.4 81.1)" color="#009E73"/><use xlink:href="#h" transform="matrix(4.5 0 0 4.5 530 105.8)" color="#009E73"/><use xlink:href="#h" transform="matrix(4.5 0 0 4.5 572.5 123.3)" color="#009E73"/><use xlink:href="#h" transform="matrix(4.5 0 0 4.5 615 79.8)" color="#009E73"/><use xlink:href="#h" transform="matrix(4.5 0 0 4.5 309.2 502)" color="#009E73"/></g><text transform="translate(463.1 487.9)" stroke="none" fill="#000" font-family="Arial" font-size="12" text-anchor="end" color="#000"><tspan>score:p90median</tspan></text><g fill="none" color="#000" stroke="currentColor"><path stroke="#56B4E9" d="M471.4 484h42.2M62.2 26.4l42.5 231.2 42.5 13.7 42.6 163 42.5-117.8 42.5-43.3 42.5-192.6 42.6 105.6 42.5 130.2 42.5-191.6 42.5-43.7 42.6-1 42.5 43.2L615 79.8"/><use xlink:href="#i" transform="matrix(4.5 0 0 4.5 62.2 26.4)" color="#56B4E9"/><use xlink:href="#i" transform="matrix(4.5 0 0 4.5 104.7 257.6)" color="#56B4E9"/><use xlink:href="#i" transform="matrix(4.5 0 0 4.5 147.2 271.3)" color="#56B4E9"/><use xlink:href="#i" transform="matrix(4.5 0 0 4.5 189.8 434.3)" color="#56B4E9"/><use xlink:href="#i" transform="matrix(4.5 0 0 4.5 232.3 316.5)" color="#56B4E9"/><use xlink:href="#i" transform="matrix(4.5 0 0 4.5 274.8 273.2)" color="#56B4E9"/><use xlink:href="#i" transform="matrix(4.5 0 0 4.5 317.3 80.6)" color="#56B4E9"/><use xlink:href="#i" transform="matrix(4.5 0 0 4.5 359.9 186.2)" color="#56B4E9"/><use xlink:href="#i" transform="matrix(4.5 0 0 4.5 402.4 316.4)" color="#56B4E9"/><use xlink:href="#i" transform="matrix(4.5 0 0 4.5 444.9 124.8)" color="#56B4E9"/><use xlink:href="#i" transform="matrix(4.5 0 0 4.5 487.4 81.1)" color="#56B4E9"/><use xlink:href="#i" transform="matrix(4.5 0 0 4.5 530 80.1)" color="#56B4E9"/><use xlink:href="#i" transform="matrix(4.5 0 0 4.5 572.5 123.3)" color="#56B4E9"/><use xlink:href="#i" transform="matrix(4.5 0 0 4.5 615 79.8)" color="#56B4E9"/><use xlink:href="#i" transform="matrix(4.5 0 0 4.5 492.5 484)" color="#56B4E9"/></g><g><text transform="translate(463.1 505.9)" stroke="none" fill="#000" font-family="Arial" font-size="12" text-anchor="end" color="#000"><tspan>score:p90max</tspan></text><g fill="none" color="#000" stroke="currentColor"><path stroke="#E69F00" d="M471.4 502h42.2M62.2 26.4l42.5 227 42.5 1.8 42.6 14.5 42.5-84 42.5.3 42.5-105.9 42.6 104.8 42.5.3 42.5-61.5 42.5-43 42.6-1.1 42.5 42.8L615 79.5"/><use xlink:href="#d" transform="matrix(4.5 0 0 4.5 62.2 26.4)" color="#E69F00"/><use xlink:href="#d" transform="matrix(4.5 0 0 4.5 104.7 253.4)" color="#E69F00"/><use xlink:href="#d" transform="matrix(4.5 0 0 4.5 147.2 255.2)" color="#E69F00"/><use xlink:href="#d" transform="matrix(4.5 0 0 4.5 189.8 269.7)" color="#E69F00"/><use xlink:href="#d" transform="matrix(4.5 0 0 4.5 232.3 185.7)" color="#E69F00"/><use xlink:href="#d" transform="matrix(4.5 0 0 4.5 274.8 186)" color="#E69F00"/><use xlink:href="#d" transform="matrix(4.5 0 0 4.5 317.3 80.1)" color="#E69F00"/><use xlink:href="#d" transform="matrix(4.5 0 0 4.5 359.9 184.9)" color="#E69F00"/><use xlink:href="#d" transform="matrix(4.5 0 0 4.5 402.4 185.2)" color="#E69F00"/><use xlink:href="#d" transform="matrix(4.5 0 0 4.5 444.9 123.7)" color="#E69F00"/><use xlink:href="#d" transform="matrix(4.5 0 0 4.5 487.4 80.7)" color="#E69F00"/><use xlink:href="#d" transform="matrix(4.5 0 0 4.5 530 79.6)" color="#E69F00"/><use xlink:href="#d" transform="matrix(4.5 0 0 4.5 572.5 122.4)" color="#E69F00"/><use xlink:href="#d" transform="matrix(4.5 0 0 4.5 615 79.5)" color="#E69F00"/><use xlink:href="#d" transform="matrix(4.5 0 0 4.5 492.5 502)" color="#E69F00"/></g></g><g fill="none" color="#000" stroke="currentColor"><path stroke="#000" d="M62.2 18.1V448H615V18.1H62.2z"/></g></svg>