<svg width="640" height="490" xmlns="http://www.w3.org/2000/svg" xmlns:xlink="http://www.w3.org/1999/xlink"><path fill="#fff" d="M0 0h640v490H0z"/><defs><path id="d" stroke-width=".222" stroke="currentColor" d="M-1-1h2v2h-2z"/><path id="b" stroke-width=".222" stroke="currentColor" d="M0-1.33l-1.33 2h2.66z"/><path id="f" stroke-width=".222" stroke="currentColor" d="M0 1.33L1.265.411.782-1.067l-1.564-.009-.483 1.487z"/><use xlink:href="#b" id="c" stroke="currentColor" transform="rotate(180)"/><use xlink:href="#d" id="e" stroke="currentColor" transform="rotate(45)"/><circle id="a" stroke-width=".222" stroke="currentColor" cx="0" cy="0" r="1"/></defs><g fill="none" color="#000" stroke="currentColor"><path stroke="#000" d="M53.9 390.2h9m552.1 0h-9"/><text transform="translate(45.6 394.1)" stroke="none" fill="#000" font-family="Arial" font-size="12" text-anchor="end"><tspan>600</tspan></text></g><g fill="none" color="#000" stroke="currentColor"><path stroke="#000" d="M53.9 331.2h9m552.1 0h-9"/><text transform="translate(45.6 335.1)" stroke="none" fill="#000" font-family="Arial" font-size="12" text-anchor="end"><tspan>620</tspan></text></g><g fill="none" color="#000" stroke="currentColor"><path stroke="#000" d="M53.9 272.1h9m552.1 0h-9"/><text transform="translate(45.6 276)" stroke="none" fill="#000" font-family="Arial" font-size="12" text-anchor="end"><tspan>640</tspan></text></g><g fill="none" color="#000" stroke="currentColor"><path stroke="#000" d="M53.9 213h9m552.1 0h-9"/><text transform="translate(45.6 216.9)" stroke="none" fill="#000" font-family="Arial" font-size="12" text-anchor="end"><tspan>660</tspan></text></g><g fill="none" color="#000" stroke="currentColor"><path stroke="#000" d="M53.9 153.9h9m552.1 0h-9"/><text transform="translate(45.6 157.8)" stroke="none" fill="#000" font-family="Arial" font-size="12" text-anchor="end"><tspan>680</tspan></text></g><g fill="none" color="#000" stroke="currentColor"><path stroke="#000" d="M53.9 94.8h9m552.1 0h-9"/><text transform="translate(45.6 98.7)" stroke="none" fill="#000" font-family="Arial" font-size="12" text-anchor="end"><tspan>700</tspan></text></g><g fill="none" color="#000" stroke="currentColor"><path stroke="#000" d="M53.9 35.8h9m552.1 0h-9"/><text transform="translate(45.6 39.7)" stroke="none" fill="#000" font-family="Arial" font-size="12" text-anchor="end"><tspan>720</tspan></text></g><g fill="none" color="#000" stroke="currentColor"><path stroke="#000" d="M53.9 436v-9m0-408.9v9"/><text transform="translate(53.9 457.9)" stroke="none" fill="#000" font-family="Arial" font-size="12" text-anchor="middle"><tspan>0</tspan></text></g><g fill="none" color="#000" stroke="currentColor"><path stroke="#000" d="M110.6 436v-9m0-408.9v9"/><text transform="translate(110.6 457.9)" stroke="none" fill="#000" font-family="Arial" font-size="12" text-anchor="middle"><tspan>10</tspan></text></g><g fill="none" color="#000" stroke="currentColor"><path stroke="#000" d="M167.3 436v-9m0-408.9v9"/><text transform="translate(167.3 457.9)" stroke="none" fill="#000" font-family="Arial" font-size="12" text-anchor="middle"><tspan>20</tspan></text></g><g fill="none" color="#000" stroke="currentColor"><path stroke="#000" d="M223.9 436v-9m0-408.9v9"/><text transform="translate(223.9 457.9)" stroke="none" fill="#000" font-family="Arial" font-size="12" text-anchor="middle"><tspan>30</tspan></text></g><g fill="none" color="#000" stroke="currentColor"><path stroke="#000" d="M280.6 436v-9m0-408.9v9"/><text transform="translate(280.6 457.9)" stroke="none" fill="#000" font-family="Arial" font-size="12" text-anchor="middle"><tspan>40</tspan></text></g><g fill="none" color="#000" stroke="currentColor"><path stroke="#000" d="M337.3 436v-9m0-408.9v9"/><text transform="translate(337.3 457.9)" stroke="none" fill="#000" font-family="Arial" font-size="12" text-anchor="middle"><tspan>50</tspan></text></g><g fill="none" color="#000" stroke="currentColor"><path stroke="#000" d="M394 436v-9m0-408.9v9"/><text transform="translate(394 457.9)" stroke="none" fill="#000" font-family="Arial" font-size="12" text-anchor="middle"><tspan>60</tspan></text></g><g fill="none" color="#000" stroke="currentColor"><path stroke="#000" d="M450.6 436v-9m0-408.9v9"/><text transform="translate(450.6 457.9)" stroke="none" fill="#000" font-family="Arial" font-size="12" text-anchor="middle"><tspan>70</tspan></text></g><g fill="none" color="#000" stroke="currentColor"><path stroke="#000" d="M507.3 436v-9m0-408.9v9"/><text transform="translate(507.3 457.9)" stroke="none" fill="#000" font-family="Arial" font-size="12" text-anchor="middle"><tspan>80</tspan></text></g><g fill="none" color="#000" stroke="currentColor"><path stroke="#000" d="M564 436v-9m0-408.9v9"/><text transform="translate(564 457.9)" stroke="none" fill="#000" font-family="Arial" font-size="12" text-anchor="middle"><tspan>90</tspan></text></g><path stroke="#000" d="M53.9 18.1V436H615V18.1H53.9z" fill="none" color="#000"/><text transform="translate(175.7 475.9)" stroke="none" fill="#000" font-family="Arial" font-size="12" text-anchor="end" color="#000"><tspan>raw</tspan></text><path stroke="#9400D3" d="M184 472h42.2M53.9 182.8l5.7 105.3 5.6-128.8 5.7-13.2 5.7 9 5.6 17.2 5.7 111.3 5.7-93L99.2 297l5.7-72.1 5.7-71.1 5.6 72 5.7-84.6 5.7 157.9 5.6-98.3 5.7-12.6 5.7-27.2 5.7 27.2 5.6-30.3 5.7 62.8 5.7 80.9 5.6-263.5 5.7 124 5.7-19.4 5.6-17.3 5.7-.5 5.7 49.2 5.6 2.2 5.7 4.2 5.7 43.9 5.6-11.6 5.7-39.5 5.7 2.6 5.6 41.1 5.7 46 5.7-30.4 5.6 59.9 5.7-159.2 5.7-7.1 5.6-100.1 5.7 208.3 5.7 25.9 5.6 22.4 5.7-109.6 5.7-101.7 5.6 160.1 5.7-90.8 5.7 117.8 5.6 86 5.7-87.4 5.7-36.9 5.7-55.8 5.6-4 5.7 26.8L360 244l5.6-55 5.7-10.4 5.7 59.8 5.6-35.3 5.7-43.2 5.7 171.7 5.6-124.8 5.7 66.3 5.7-66.6 5.6 95 5.7-6.3 5.7-85 5.6 29.6 5.7-16.2 5.7-82.2 5.6 16.4 5.7 37.1 5.7-48.5 5.6 212 5.7-106.2 5.7-45 5.6 66.1 5.7-43.8 5.7-80.3 5.6-66.8 5.7 159.8L513 186l5.6 89.4 5.7 65.4 5.7-154.9 5.7 24.5 5.6 23.2 5.7 97.2 5.7-116.9 5.6 31.4 5.7-7.5 5.7-57.4 5.6 5.7 5.7 131.2 5.7 110.7 5.6-188.6L598 155l5.7 58.6 5.6-54.3 5.7 4.7" fill="none" color="#000"/><text transform="translate(375.6 475.9)" stroke="none" fill="#000" font-family="Arial" font-size="12" text-anchor="end" color="#000"><tspan>score p10=2017</tspan></text><path stroke="#009E73" d="M383.9 472h42.2" fill="none" color="#000"/><text transform="translate(575.5 475.9)" stroke="none" fill="#000" font-family="Arial" font-size="12" text-anchor="end" color="#000"><tspan>score median=4000</tspan></text><path stroke="#56B4E9" d="M583.8 472H626" fill="none" color="#000"/><g fill="none" color="#000" stroke="currentColor"><path stroke="#000" d="M53.9 18.1V436H615V18.1H53.9z"/></g></svg>