<svg width="640" height="500" xmlns="http://www.w3.org/2000/svg" xmlns:xlink="http://www.w3.org/1999/xlink"><path fill="#fff" d="M0 0h640v500H0z"/><defs><path id="d" stroke-width=".222" stroke="currentColor" d="M-1-1h2v2h-2z"/><path id="b" stroke-width=".222" stroke="currentColor" d="M0-1.33l-1.33 2h2.66z"/><path id="f" stroke-width=".222" stroke="currentColor" d="M0 1.33L1.265.411.782-1.067l-1.564-.009-.483 1.487z"/><use xlink:href="#b" id="c" stroke="currentColor" transform="rotate(180)"/><use xlink:href="#d" id="e" stroke="currentColor" transform="rotate(45)"/><circle id="a" stroke-width=".222" stroke="currentColor" cx="0" cy="0" r="1"/></defs><g fill="none" color="#000" stroke="currentColor"><path stroke="#000" d="M53.9 392h9m552.1 0h-9"/><text transform="translate(45.6 395.9)" stroke="none" fill="#000" font-family="Arial" font-size="12" text-anchor="end"><tspan>0</tspan></text></g><g fill="none" color="#000" stroke="currentColor"><path stroke="#000" d="M53.9 317.2h9m552.1 0h-9"/><text transform="translate(45.6 321.1)" stroke="none" fill="#000" font-family="Arial" font-size="12" text-anchor="end"><tspan>20</tspan></text></g><g fill="none" color="#000" stroke="currentColor"><path stroke="#000" d="M53.9 242.4h9m552.1 0h-9"/><text transform="translate(45.6 246.3)" stroke="none" fill="#000" font-family="Arial" font-size="12" text-anchor="end"><tspan>40</tspan></text></g><g fill="none" color="#000" stroke="currentColor"><path stroke="#000" d="M53.9 167.7h9m552.1 0h-9"/><text transform="translate(45.6 171.6)" stroke="none" fill="#000" font-family="Arial" font-size="12" text-anchor="end"><tspan>60</tspan></text></g><g fill="none" color="#000" stroke="currentColor"><path stroke="#000" d="M53.9 92.9h9m552.1 0h-9"/><text transform="translate(45.6 96.8)" stroke="none" fill="#000" font-family="Arial" font-size="12" text-anchor="end"><tspan>80</tspan></text></g><g fill="none" color="#000" stroke="currentColor"><path stroke="#000" d="M53.9 18.1h9m552.1 0h-9"/><text transform="translate(45.6 22)" stroke="none" fill="#000" font-family="Arial" font-size="12" text-anchor="end"><tspan>100</tspan></text></g><g fill="none" color="#000" stroke="currentColor"><path stroke="#000" d="M137.8 392v-9m0-364.9v9"/><text transform="translate(137.8 413.9)" stroke="none" fill="#000" font-family="Arial" font-size="12" text-anchor="middle"><tspan>1600</tspan></text></g><g fill="none" color="#000" stroke="currentColor"><path stroke="#000" d="M229 392v-9m0-364.9v9"/><text transform="translate(229 413.9)" stroke="none" fill="#000" font-family="Arial" font-size="12" text-anchor="middle"><tspan>1700</tspan></text></g><g fill="none" color="#000" stroke="currentColor"><path stroke="#000" d="M320.1 392v-9m0-364.9v9"/><text transform="translate(320.1 413.9)" stroke="none" fill="#000" font-family="Arial" font-size="12" text-anchor="middle"><tspan>1800</tspan></text></g><g fill="none" color="#000" stroke="currentColor"><path stroke="#000" d="M411.3 392v-9m0-364.9v9"/><text transform="translate(411.3 413.9)" stroke="none" fill="#000" font-family="Arial" font-size="12" text-anchor="middle"><tspan>1900</tspan></text></g><g fill="none" color="#000" stroke="currentColor"><path stroke="#000" d="M502.5 392v-9m0-364.9v9"/><text transform="translate(502.5 413.9)" stroke="none" fill="#000" font-family="Arial" font-size="12" text-anchor="middle"><tspan>2000</tspan></text></g><g fill="none" color="#000" stroke="currentColor"><path stroke="#000" d="M593.7 392v-9m0-364.9v9"/><text transform="translate(593.7 413.9)" stroke="none" fill="#000" font-family="Arial" font-size="12" text-anchor="middle"><tspan>2100</tspan></text></g><path stroke="#000" d="M53.9 18.1V392H615V18.1H53.9z" fill="none" color="#000"/><text transform="translate(508.4 431.9)" stroke="none" fill="#000" font-family="Arial" font-size="12" text-anchor="end" color="#000"><tspan>pages+cached+noexternal+nofonts+nosvg+noimg</tspan></text><g stroke="none" shape-rendering="geometricPrecision" fill="#9400D3" fill-opacity=".5" color="#000"><path d="M516.7 432.5h42.2v-9h-42.2zM53.9 392h89.2V100.3H53.9zM487.4 392h127.7v-52.4H487.4z"/><path d="M315.2 392h172.3v-30H315.2z"/></g><text transform="translate(508.4 449.9)" stroke="none" fill="#000" font-family="Arial" font-size="12" text-anchor="end" color="#000"><tspan>pages+cached+noexternal+nofonts+nosvg+noimg+nocss</tspan></text><g stroke="none" shape-rendering="crispEdges" fill="#009E73" fill-opacity=".5" color="#000"><path d="M516.7 450.5h42.2v-9h-42.2zM143 392h172.3V18H143z"/></g><text transform="translate(508.4 467.9)" stroke="none" fill="#000" font-family="Arial" font-size="12" text-anchor="end" color="#000"><tspan>score p10=2336</tspan></text><path stroke="#56B4E9" d="M516.7 464h42.2" fill="none" color="#000"/><g><text transform="translate(508.4 485.9)" stroke="none" fill="#000" font-family="Arial" font-size="12" text-anchor="end" color="#000"><tspan>score median=4000</tspan></text><path stroke="#E69F00" d="M516.7 482h42.2" fill="none" color="#000"/></g><g fill="none" color="#000" stroke="currentColor"><path stroke="#000" d="M53.9 18.1V392H615V18.1H53.9z"/></g></svg>