<svg width="640" height="490" xmlns="http://www.w3.org/2000/svg" xmlns:xlink="http://www.w3.org/1999/xlink"><path fill="#fff" d="M0 0h640v490H0z"/><defs><path id="d" stroke-width=".222" stroke="currentColor" d="M-1-1h2v2h-2z"/><path id="b" stroke-width=".222" stroke="currentColor" d="M0-1.33l-1.33 2h2.66z"/><path id="f" stroke-width=".222" stroke="currentColor" d="M0 1.33L1.265.411.782-1.067l-1.564-.009-.483 1.487z"/><use xlink:href="#b" id="c" stroke="currentColor" transform="rotate(180)"/><use xlink:href="#d" id="e" stroke="currentColor" transform="rotate(45)"/><circle id="a" stroke-width=".222" stroke="currentColor" cx="0" cy="0" r="1"/></defs><g fill="none" color="#000" stroke="currentColor"><path stroke="#000" d="M53.9 436h9m552.1 0h-9"/><text transform="translate(45.6 439.9)" stroke="none" fill="#000" font-family="Arial" font-size="12" text-anchor="end"><tspan>0</tspan></text></g><g fill="none" color="#000" stroke="currentColor"><path stroke="#000" d="M53.9 352.4h9m552.1 0h-9"/><text transform="translate(45.6 356.3)" stroke="none" fill="#000" font-family="Arial" font-size="12" text-anchor="end"><tspan>20</tspan></text></g><g fill="none" color="#000" stroke="currentColor"><path stroke="#000" d="M53.9 268.8h9m552.1 0h-9"/><text transform="translate(45.6 272.7)" stroke="none" fill="#000" font-family="Arial" font-size="12" text-anchor="end"><tspan>40</tspan></text></g><g fill="none" color="#000" stroke="currentColor"><path stroke="#000" d="M53.9 185.3h9m552.1 0h-9"/><text transform="translate(45.6 189.2)" stroke="none" fill="#000" font-family="Arial" font-size="12" text-anchor="end"><tspan>60</tspan></text></g><g fill="none" color="#000" stroke="currentColor"><path stroke="#000" d="M53.9 101.7h9m552.1 0h-9"/><text transform="translate(45.6 105.6)" stroke="none" fill="#000" font-family="Arial" font-size="12" text-anchor="end"><tspan>80</tspan></text></g><g fill="none" color="#000" stroke="currentColor"><path stroke="#000" d="M53.9 18.1h9m552.1 0h-9"/><text transform="translate(45.6 22)" stroke="none" fill="#000" font-family="Arial" font-size="12" text-anchor="end"><tspan>100</tspan></text></g><g fill="none" color="#000" stroke="currentColor"><path stroke="#000" d="M92.2 436v-9m0-408.9v9"/><text transform="translate(92.2 457.9)" stroke="none" fill="#000" font-family="Arial" font-size="12" text-anchor="middle"><tspan>0.06</tspan></text></g><g fill="none" color="#000" stroke="currentColor"><path stroke="#000" d="M149 436v-9m0-408.9v9"/><text transform="translate(149 457.9)" stroke="none" fill="#000" font-family="Arial" font-size="12" text-anchor="middle"><tspan>0.08</tspan></text></g><g fill="none" color="#000" stroke="currentColor"><path stroke="#000" d="M205.8 436v-9m0-408.9v9"/><text transform="translate(205.8 457.9)" stroke="none" fill="#000" font-family="Arial" font-size="12" text-anchor="middle"><tspan>0.1</tspan></text></g><g fill="none" color="#000" stroke="currentColor"><path stroke="#000" d="M262.6 436v-9m0-408.9v9"/><text transform="translate(262.6 457.9)" stroke="none" fill="#000" font-family="Arial" font-size="12" text-anchor="middle"><tspan>0.12</tspan></text></g><g fill="none" color="#000" stroke="currentColor"><path stroke="#000" d="M319.4 436v-9m0-408.9v9"/><text transform="translate(319.4 457.9)" stroke="none" fill="#000" font-family="Arial" font-size="12" text-anchor="middle"><tspan>0.14</tspan></text></g><g fill="none" color="#000" stroke="currentColor"><path stroke="#000" d="M376.2 436v-9m0-408.9v9"/><text transform="translate(376.2 457.9)" stroke="none" fill="#000" font-family="Arial" font-size="12" text-anchor="middle"><tspan>0.16</tspan></text></g><g fill="none" color="#000" stroke="currentColor"><path stroke="#000" d="M433 436v-9m0-408.9v9"/><text transform="translate(433 457.9)" stroke="none" fill="#000" font-family="Arial" font-size="12" text-anchor="middle"><tspan>0.18</tspan></text></g><g fill="none" color="#000" stroke="currentColor"><path stroke="#000" d="M489.8 436v-9m0-408.9v9"/><text transform="translate(489.8 457.9)" stroke="none" fill="#000" font-family="Arial" font-size="12" text-anchor="middle"><tspan>0.2</tspan></text></g><g fill="none" color="#000" stroke="currentColor"><path stroke="#000" d="M546.6 436v-9m0-408.9v9"/><text transform="translate(546.6 457.9)" stroke="none" fill="#000" font-family="Arial" font-size="12" text-anchor="middle"><tspan>0.22</tspan></text></g><g fill="none" color="#000" stroke="currentColor"><path stroke="#000" d="M603.4 436v-9m0-408.9v9"/><text transform="translate(603.4 457.9)" stroke="none" fill="#000" font-family="Arial" font-size="12" text-anchor="middle"><tspan>0.24</tspan></text></g><path stroke="#000" d="M53.9 18.1V436H615V18.1H53.9z" fill="none" color="#000"/><text transform="translate(317.5 475.9)" stroke="none" fill="#000" font-family="Arial" font-size="12" text-anchor="end" color="#000"><tspan>raw</tspan></text><g stroke="none" shape-rendering="geometricPrecision" fill="#9400D3" fill-opacity=".5" color="#000"><path d="M325.8 476.5H368v-9h-42.2zM53.9 436h46.5V327.2H53.9zM171.6 436h71.5v-25.2h-71.5z"/><path d="M100.3 436h71.4V172.6h-71.4zM385.7 436h71.5v-4.3h-71.5z"/><path d="M314.4 436h71.4v-8.5h-71.4z"/><path d="M243 436h71.5v-4.3H243zM599.8 436h15.3v-4.3h-15.3z"/></g><g fill="none" color="#000" stroke="currentColor"><path stroke="#000" d="M53.9 18.1V436H615V18.1H53.9z"/></g></svg>