<svg width="640" height="500" xmlns="http://www.w3.org/2000/svg" xmlns:xlink="http://www.w3.org/1999/xlink"><path fill="#fff" d="M0 0h640v500H0z"/><defs><path id="d" stroke-width=".222" stroke="currentColor" d="M-1-1h2v2h-2z"/><path id="b" stroke-width=".222" stroke="currentColor" d="M0-1.33l-1.33 2h2.66z"/><path id="f" stroke-width=".222" stroke="currentColor" d="M0 1.33L1.265.411.782-1.067l-1.564-.009-.483 1.487z"/><use xlink:href="#b" id="c" stroke="currentColor" transform="rotate(180)"/><use xlink:href="#d" id="e" stroke="currentColor" transform="rotate(45)"/><circle id="a" stroke-width=".222" stroke="currentColor" cx="0" cy="0" r="1"/></defs><g fill="none" color="#000" stroke="currentColor"><path stroke="#000" d="M53.9 410.5h9m552.1 0h-9"/><text transform="translate(45.6 414.4)" stroke="none" fill="#000" font-family="Arial" font-size="12" text-anchor="end"><tspan>540</tspan></text></g><g fill="none" color="#000" stroke="currentColor"><path stroke="#000" d="M53.9 367.8h9m552.1 0h-9"/><text transform="translate(45.6 371.7)" stroke="none" fill="#000" font-family="Arial" font-size="12" text-anchor="end"><tspan>550</tspan></text></g><g fill="none" color="#000" stroke="currentColor"><path stroke="#000" d="M53.9 325.1h9m552.1 0h-9"/><text transform="translate(45.6 329)" stroke="none" fill="#000" font-family="Arial" font-size="12" text-anchor="end"><tspan>560</tspan></text></g><g fill="none" color="#000" stroke="currentColor"><path stroke="#000" d="M53.9 282.4h9m552.1 0h-9"/><text transform="translate(45.6 286.3)" stroke="none" fill="#000" font-family="Arial" font-size="12" text-anchor="end"><tspan>570</tspan></text></g><g fill="none" color="#000" stroke="currentColor"><path stroke="#000" d="M53.9 239.7h9m552.1 0h-9"/><text transform="translate(45.6 243.6)" stroke="none" fill="#000" font-family="Arial" font-size="12" text-anchor="end"><tspan>580</tspan></text></g><g fill="none" color="#000" stroke="currentColor"><path stroke="#000" d="M53.9 197h9m552.1 0h-9"/><text transform="translate(45.6 200.9)" stroke="none" fill="#000" font-family="Arial" font-size="12" text-anchor="end"><tspan>590</tspan></text></g><g fill="none" color="#000" stroke="currentColor"><path stroke="#000" d="M53.9 154.4h9m552.1 0h-9"/><text transform="translate(45.6 158.3)" stroke="none" fill="#000" font-family="Arial" font-size="12" text-anchor="end"><tspan>600</tspan></text></g><g fill="none" color="#000" stroke="currentColor"><path stroke="#000" d="M53.9 111.7h9m552.1 0h-9"/><text transform="translate(45.6 115.6)" stroke="none" fill="#000" font-family="Arial" font-size="12" text-anchor="end"><tspan>610</tspan></text></g><g fill="none" color="#000" stroke="currentColor"><path stroke="#000" d="M53.9 69h9M615 69h-9"/><text transform="translate(45.6 72.9)" stroke="none" fill="#000" font-family="Arial" font-size="12" text-anchor="end"><tspan>620</tspan></text></g><g fill="none" color="#000" stroke="currentColor"><path stroke="#000" d="M53.9 26.3h9m552.1 0h-9"/><text transform="translate(45.6 30.2)" stroke="none" fill="#000" font-family="Arial" font-size="12" text-anchor="end"><tspan>630</tspan></text></g><g fill="none" color="#000" stroke="currentColor"><path stroke="#000" d="M53.9 428v-9m0-400.9v9"/><text transform="translate(53.9 449.9)" stroke="none" fill="#000" font-family="Arial" font-size="12" text-anchor="middle"><tspan>0</tspan></text></g><g fill="none" color="#000" stroke="currentColor"><path stroke="#000" d="M110.6 428v-9m0-400.9v9"/><text transform="translate(110.6 449.9)" stroke="none" fill="#000" font-family="Arial" font-size="12" text-anchor="middle"><tspan>10</tspan></text></g><g fill="none" color="#000" stroke="currentColor"><path stroke="#000" d="M167.3 428v-9m0-400.9v9"/><text transform="translate(167.3 449.9)" stroke="none" fill="#000" font-family="Arial" font-size="12" text-anchor="middle"><tspan>20</tspan></text></g><g fill="none" color="#000" stroke="currentColor"><path stroke="#000" d="M223.9 428v-9m0-400.9v9"/><text transform="translate(223.9 449.9)" stroke="none" fill="#000" font-family="Arial" font-size="12" text-anchor="middle"><tspan>30</tspan></text></g><g fill="none" color="#000" stroke="currentColor"><path stroke="#000" d="M280.6 428v-9m0-400.9v9"/><text transform="translate(280.6 449.9)" stroke="none" fill="#000" font-family="Arial" font-size="12" text-anchor="middle"><tspan>40</tspan></text></g><g fill="none" color="#000" stroke="currentColor"><path stroke="#000" d="M337.3 428v-9m0-400.9v9"/><text transform="translate(337.3 449.9)" stroke="none" fill="#000" font-family="Arial" font-size="12" text-anchor="middle"><tspan>50</tspan></text></g><g fill="none" color="#000" stroke="currentColor"><path stroke="#000" d="M394 428v-9m0-400.9v9"/><text transform="translate(394 449.9)" stroke="none" fill="#000" font-family="Arial" font-size="12" text-anchor="middle"><tspan>60</tspan></text></g><g fill="none" color="#000" stroke="currentColor"><path stroke="#000" d="M450.6 428v-9m0-400.9v9"/><text transform="translate(450.6 449.9)" stroke="none" fill="#000" font-family="Arial" font-size="12" text-anchor="middle"><tspan>70</tspan></text></g><g fill="none" color="#000" stroke="currentColor"><path stroke="#000" d="M507.3 428v-9m0-400.9v9"/><text transform="translate(507.3 449.9)" stroke="none" fill="#000" font-family="Arial" font-size="12" text-anchor="middle"><tspan>80</tspan></text></g><g fill="none" color="#000" stroke="currentColor"><path stroke="#000" d="M564 428v-9m0-400.9v9"/><text transform="translate(564 449.9)" stroke="none" fill="#000" font-family="Arial" font-size="12" text-anchor="middle"><tspan>90</tspan></text></g><path stroke="#000" d="M53.9 18.1V428H615V18.1H53.9z" fill="none" color="#000"/><text transform="translate(275.6 467.9)" stroke="none" fill="#000" font-family="Arial" font-size="12" text-anchor="end" color="#000"><tspan>pages+cached</tspan></text><path stroke="#9400D3" d="M283.9 464h42.2M53.9 420.1l5.7-16.5 5.6-2.7 5.7-9.4 5.7-.7 5.6-1.8 5.7-.8 5.7-2.7 5.6-2.7 5.7-.7 5.7-1.6 5.6-.5 5.7-.2 5.7-.6 5.6-1.5 5.7-1 5.7-.5 5.7-1.7 5.6-1.3 5.7-.2 5.7-.4 5.6-.6h5.7l5.7-.7 5.6-.1 5.7-.9 5.7-1.5 5.6-4.4 5.7-.4 5.7-.1 5.6-.2 5.7-1.3 5.7-1.5 5.6-2 5.7-3.3 5.7-1.5 5.6-2.3 5.7-.2 5.7-2.6 5.6-4.1 5.7-1.5 5.7-.2 5.6-.4 5.7-2.6 5.7-4.2 5.6-3 5.7-3 5.7-1.8 5.6-4.2 5.7-2.2 5.7-1.5 5.7-2.9 5.6-3.1 5.7-23.9 5.7-.4 5.6-.1 5.7-2.6 5.7-1.9 5.6-4.9 5.7-.6 5.7-2.4 5.6-.2 5.7-3.6 5.7-1 5.6-.3 5.7-.1 5.7-4.4 5.6-.3 5.7-1.2 5.7-.3 5.6-.8 5.7-2.7 5.7-.7 5.6-2.2 5.7-3.8 5.7-.4 5.6-1.1 5.7-4.6 5.7-.1 5.6-1.4 5.7-1 5.7-2.3 5.6-2.1 5.7-3 5.7-3.3 5.7-6 5.6-1.3 5.7-2.7 5.7-5.6 5.6-5 5.7-9.2 5.7-1.9 5.6-7.1 5.7-22.4 5.7-5.1 5.6-19.3 5.7-6 5.7-55.4 5.6-60.8L615 26" fill="none" color="#000"/><text transform="translate(275.6 485.9)" stroke="none" fill="#000" font-family="Arial" font-size="12" text-anchor="end" color="#000"><tspan>pages+cached+nointeractive</tspan></text><path stroke="#009E73" d="M283.9 482h42.2M53.9 415.7l5.7-1.9 5.6-9.4 5.7-2.2 5.7-.7 5.6-.4 5.7-2.2 5.7-3.3 5.6-.8h5.7l5.7-.6 5.6-1.4 5.7-.3 5.7-1.1 5.6-1.3 5.7-.1 5.7-.7 5.7-.1 5.6-.2 5.7-.4 5.7-.5 5.6-.3 5.7-.2 5.7-.1 5.6-.3 5.7-.2 5.7-.5 5.6-.8 5.7-.8 5.7-.4 5.6-.4h5.7l5.7-1 5.6-.7 5.7-.3 5.7-1 5.6-1.6 5.7-1.2 5.7-1.6 5.6-.2 5.7-2.8h5.7l5.6-.1 5.7-2.9 5.7-.9 5.6-.3 5.7-.3 5.7-.7 5.6-1.3 5.7-.1 5.7-.9 5.7-2.4 5.6-.7 5.7-.6 5.7-.6 5.6-.7 5.7-.2 5.7-1.4 5.6-3.3 5.7-2.1 5.7-5.2 5.6-12.4 5.7-.4h5.7l5.6-.9 5.7-7.6 5.7-6.9 5.6-4.3 5.7-13.9 5.7-6.8 5.6-1.8 5.7-.9 5.7-.5 5.6-6.8 5.7-.4 5.7-1.3 5.6-1.7 5.7-.3 5.7-1.9 5.6-.5 5.7-2 5.7-.6 5.6-4.9 5.7-.7 5.7-1 5.7-4.2 5.6-2 5.7-1.1 5.7-4.7 5.6-.4 5.7-2.2 5.7-3.1 5.6-8.1 5.7-3 5.7-1.8 5.6-1.1 5.7-8.4 5.7-50 5.6-19.8 5.7-26.7" fill="none" color="#000"/><text transform="translate(550.2 467.9)" stroke="none" fill="#000" font-family="Arial" font-size="12" text-anchor="end" color="#000"><tspan>score p10=1282</tspan></text><path stroke="#56B4E9" d="M558.5 464h42.2" fill="none" color="#000"/><g><text transform="translate(550.2 485.9)" stroke="none" fill="#000" font-family="Arial" font-size="12" text-anchor="end" color="#000"><tspan>score median=3500</tspan></text><path stroke="#E69F00" d="M558.5 482h42.2" fill="none" color="#000"/></g><g fill="none" color="#000" stroke="currentColor"><path stroke="#000" d="M53.9 18.1V428H615V18.1H53.9z"/></g></svg>