<svg width="640" height="500" xmlns="http://www.w3.org/2000/svg" xmlns:xlink="http://www.w3.org/1999/xlink"><path fill="#fff" d="M0 0h640v500H0z"/><defs><path id="d" stroke-width=".222" stroke="currentColor" d="M-1-1h2v2h-2z"/><path id="b" stroke-width=".222" stroke="currentColor" d="M0-1.33l-1.33 2h2.66z"/><path id="f" stroke-width=".222" stroke="currentColor" d="M0 1.33L1.265.411.782-1.067l-1.564-.009-.483 1.487z"/><use xlink:href="#b" id="c" stroke="currentColor" transform="rotate(180)"/><use xlink:href="#d" id="e" stroke="currentColor" transform="rotate(45)"/><circle id="a" stroke-width=".222" stroke="currentColor" cx="0" cy="0" r="1"/></defs><g fill="none" color="#000" stroke="currentColor"><path stroke="#000" d="M45.6 359.1h9m560.4 0h-9"/><text transform="translate(37.3 363)" stroke="none" fill="#000" font-family="Arial" font-size="12" text-anchor="end"><tspan>38</tspan></text></g><g fill="none" color="#000" stroke="currentColor"><path stroke="#000" d="M45.6 311.8h9m560.4 0h-9"/><text transform="translate(37.3 315.7)" stroke="none" fill="#000" font-family="Arial" font-size="12" text-anchor="end"><tspan>40</tspan></text></g><g fill="none" color="#000" stroke="currentColor"><path stroke="#000" d="M45.6 264.4h9m560.4 0h-9"/><text transform="translate(37.3 268.3)" stroke="none" fill="#000" font-family="Arial" font-size="12" text-anchor="end"><tspan>42</tspan></text></g><g fill="none" color="#000" stroke="currentColor"><path stroke="#000" d="M45.6 217h9m560.4 0h-9"/><text transform="translate(37.3 220.9)" stroke="none" fill="#000" font-family="Arial" font-size="12" text-anchor="end"><tspan>44</tspan></text></g><g fill="none" color="#000" stroke="currentColor"><path stroke="#000" d="M45.6 169.7h9m560.4 0h-9"/><text transform="translate(37.3 173.6)" stroke="none" fill="#000" font-family="Arial" font-size="12" text-anchor="end"><tspan>46</tspan></text></g><g fill="none" color="#000" stroke="currentColor"><path stroke="#000" d="M45.6 122.3h9m560.4 0h-9"/><text transform="translate(37.3 126.2)" stroke="none" fill="#000" font-family="Arial" font-size="12" text-anchor="end"><tspan>48</tspan></text></g><g fill="none" color="#000" stroke="currentColor"><path stroke="#000" d="M45.6 74.9h9m560.4 0h-9"/><text transform="translate(37.3 78.8)" stroke="none" fill="#000" font-family="Arial" font-size="12" text-anchor="end"><tspan>50</tspan></text></g><g fill="none" color="#000" stroke="currentColor"><path stroke="#000" d="M45.6 27.6h9m560.4 0h-9"/><text transform="translate(37.3 31.5)" stroke="none" fill="#000" font-family="Arial" font-size="12" text-anchor="end"><tspan>52</tspan></text></g><g fill="none" color="#000" stroke="currentColor"><path stroke="#000" d="M45.6 392v-9m0-364.9v9"/><text transform="translate(45.6 413.9)" stroke="none" fill="#000" font-family="Arial" font-size="12" text-anchor="middle"><tspan>0</tspan></text></g><g fill="none" color="#000" stroke="currentColor"><path stroke="#000" d="M103.1 392v-9m0-364.9v9"/><text transform="translate(103.1 413.9)" stroke="none" fill="#000" font-family="Arial" font-size="12" text-anchor="middle"><tspan>10</tspan></text></g><g fill="none" color="#000" stroke="currentColor"><path stroke="#000" d="M160.6 392v-9m0-364.9v9"/><text transform="translate(160.6 413.9)" stroke="none" fill="#000" font-family="Arial" font-size="12" text-anchor="middle"><tspan>20</tspan></text></g><g fill="none" color="#000" stroke="currentColor"><path stroke="#000" d="M218.1 392v-9m0-364.9v9"/><text transform="translate(218.1 413.9)" stroke="none" fill="#000" font-family="Arial" font-size="12" text-anchor="middle"><tspan>30</tspan></text></g><g fill="none" color="#000" stroke="currentColor"><path stroke="#000" d="M275.7 392v-9m0-364.9v9"/><text transform="translate(275.7 413.9)" stroke="none" fill="#000" font-family="Arial" font-size="12" text-anchor="middle"><tspan>40</tspan></text></g><g fill="none" color="#000" stroke="currentColor"><path stroke="#000" d="M333.2 392v-9m0-364.9v9"/><text transform="translate(333.2 413.9)" stroke="none" fill="#000" font-family="Arial" font-size="12" text-anchor="middle"><tspan>50</tspan></text></g><g fill="none" color="#000" stroke="currentColor"><path stroke="#000" d="M390.7 392v-9m0-364.9v9"/><text transform="translate(390.7 413.9)" stroke="none" fill="#000" font-family="Arial" font-size="12" text-anchor="middle"><tspan>60</tspan></text></g><g fill="none" color="#000" stroke="currentColor"><path stroke="#000" d="M448.2 392v-9m0-364.9v9"/><text transform="translate(448.2 413.9)" stroke="none" fill="#000" font-family="Arial" font-size="12" text-anchor="middle"><tspan>70</tspan></text></g><g fill="none" color="#000" stroke="currentColor"><path stroke="#000" d="M505.7 392v-9m0-364.9v9"/><text transform="translate(505.7 413.9)" stroke="none" fill="#000" font-family="Arial" font-size="12" text-anchor="middle"><tspan>80</tspan></text></g><g fill="none" color="#000" stroke="currentColor"><path stroke="#000" d="M563.2 392v-9m0-364.9v9"/><text transform="translate(563.2 413.9)" stroke="none" fill="#000" font-family="Arial" font-size="12" text-anchor="middle"><tspan>90</tspan></text></g><path stroke="#000" d="M45.6 18.1V392H615V18.1H45.6z" fill="none" color="#000"/><text transform="translate(429.5 431.9)" stroke="none" fill="#000" font-family="Arial" font-size="12" text-anchor="end" color="#000"><tspan>pages+cached+noexternal+nofonts</tspan></text><path stroke="#9400D3" d="M437.8 428H480M45.6 313.6l5.8-50.1 5.7-12 5.8-4.9 5.7-6.7 5.8-6.3 5.7-1.5 5.8-5.1 5.7-2.1 5.8-1.8 5.7-.5 5.8-1 5.7-1.8 5.8-.1 5.7-.2 5.8-.4 5.7-2 5.8-.2 5.7-.2 5.8-.5 5.7-.1 5.8-1.5 5.7-2.6h5.8l5.7-.1 5.8-.3 5.7-1.5 5.8-.2 5.7-.2 5.8-1.7 5.7-.4 5.8-.5 5.7-.3 5.8-.3 5.8-.6 5.7-.6 5.8-1.3h5.7l5.8-.6 5.7-.5 5.8-.1 5.7-.8 5.8-.6 5.7-.3 5.8-.7 5.7-.7 5.8-.3 5.7-.4 5.8-.2 5.7-1.8 5.8-.4 5.7-2.2 5.8-.1 5.7-1.3 5.8-.5 5.7-.1 5.8-2.4 5.7-.8 5.8-.1 5.7-.4 5.8-1.1 5.7-.2 5.8-.7 5.7-.5 5.8-.9 5.7-1.1 5.8-.9 5.8-.1 5.7-1.3 5.8-1 5.7-.7 5.8-.4 5.7-.7 5.8-2.1 5.7-1.1 5.8-.3 5.7-1.1 5.8-.7 5.7-.2 5.8-1.2 5.7-2.1 5.8-.9 5.7-.7 5.8-.8 5.7-1.5 5.8-2.4h5.7l5.8-.4 5.7-.1 5.8-.3 5.7-.4 5.8-3.6 5.7-2.1 5.8-2.5 5.7-7 5.8-1 5.7-9.7 5.8-4.3 5.7-10.8 5.8-35.7" fill="none" color="#000"/><text transform="translate(429.5 449.9)" stroke="none" fill="#000" font-family="Arial" font-size="12" text-anchor="end" color="#000"><tspan>pages+cached+noexternal+nosvg</tspan></text><path stroke="#009E73" d="M437.8 446H480M45.6 384.8l5.8-13 5.7-2.9 5.8-.5 5.7-.6 5.8-.6 5.7-2 5.8-.7 5.7-.4 5.8-1.1 5.7-1.5 5.8-1 5.7-.1 5.8-.3 5.7-2 5.8-2.7 5.7-1.1 5.8-.2 5.7-1.5 5.8-.4 5.7-.2h5.8l5.7-.1 5.8-.1 5.7-1.4 5.8-.6 5.7-.4 5.8-.5 5.7-.1 5.8-.2 5.7-.1 5.8-.8 5.7-.7 5.8-.1 5.8-.3 5.7-.7 5.8-.4 5.7-.1 5.8-.3 5.7-.4 5.8-.9 5.7-.1 5.8-.4 5.7-.3 5.8-.3 5.7-.2 5.8-1.6 5.7-1.1 5.8-.3 5.7-.1 5.8-.3 5.7-.1 5.8-.6 5.7-1.1 5.8-.3h5.7l5.8-.5 5.7-.4 5.8-.9 5.7-1 5.8-1.3 5.7-.8 5.8-.1 5.7-.1 5.8-.2 5.7-.8 5.8-.2 5.8-.4 5.7-.3 5.8-1.4 5.7-.3 5.8-.6 5.7-2.1 5.8-.9 5.7-1.1h5.8l5.7-.7 5.8-.1 5.7-.4 5.8-1.1 5.7-5.4 5.8-.1 5.7-.3 5.8-.2 5.7-1.6 5.8-1.2 5.7-1 5.8-.2 5.7-.4 5.8-.5 5.7-.4 5.8-2 5.7-5.4 5.8-1.3 5.7-3.8 5.8-5.4 5.7-.1 5.8-16.5 5.7-1.9L615 25.3" fill="none" color="#000"/><text transform="translate(429.5 467.9)" stroke="none" fill="#000" font-family="Arial" font-size="12" text-anchor="end" color="#000"><tspan>score p10=1282</tspan></text><path stroke="#56B4E9" d="M437.8 464H480" fill="none" color="#000"/><g><text transform="translate(429.5 485.9)" stroke="none" fill="#000" font-family="Arial" font-size="12" text-anchor="end" color="#000"><tspan>score median=3500</tspan></text><path stroke="#E69F00" d="M437.8 482H480" fill="none" color="#000"/></g><g fill="none" color="#000" stroke="currentColor"><path stroke="#000" d="M45.6 18.1V392H615V18.1H45.6z"/></g></svg>