<svg width="640" height="500" xmlns="http://www.w3.org/2000/svg" xmlns:xlink="http://www.w3.org/1999/xlink"><path fill="#fff" d="M0 0h640v500H0z"/><defs><path id="d" stroke-width=".222" stroke="currentColor" d="M-1-1h2v2h-2z"/><path id="b" stroke-width=".222" stroke="currentColor" d="M0-1.33l-1.33 2h2.66z"/><path id="f" stroke-width=".222" stroke="currentColor" d="M0 1.33L1.265.411.782-1.067l-1.564-.009-.483 1.487z"/><use xlink:href="#b" id="c" stroke="currentColor" transform="rotate(180)"/><use xlink:href="#d" id="e" stroke="currentColor" transform="rotate(45)"/><circle id="a" stroke-width=".222" stroke="currentColor" cx="0" cy="0" r="1"/></defs><g fill="none" color="#000" stroke="currentColor"><path stroke="#000" d="M45.6 392h9m560.4 0h-9"/><text transform="translate(37.3 395.9)" stroke="none" fill="#000" font-family="Arial" font-size="12" text-anchor="end"><tspan>38</tspan></text></g><g fill="none" color="#000" stroke="currentColor"><path stroke="#000" d="M45.6 340h9m560.4 0h-9"/><text transform="translate(37.3 343.9)" stroke="none" fill="#000" font-family="Arial" font-size="12" text-anchor="end"><tspan>40</tspan></text></g><g fill="none" color="#000" stroke="currentColor"><path stroke="#000" d="M45.6 288.1h9m560.4 0h-9"/><text transform="translate(37.3 292)" stroke="none" fill="#000" font-family="Arial" font-size="12" text-anchor="end"><tspan>42</tspan></text></g><g fill="none" color="#000" stroke="currentColor"><path stroke="#000" d="M45.6 236.2h9m560.4 0h-9"/><text transform="translate(37.3 240.1)" stroke="none" fill="#000" font-family="Arial" font-size="12" text-anchor="end"><tspan>44</tspan></text></g><g fill="none" color="#000" stroke="currentColor"><path stroke="#000" d="M45.6 184.3h9m560.4 0h-9"/><text transform="translate(37.3 188.2)" stroke="none" fill="#000" font-family="Arial" font-size="12" text-anchor="end"><tspan>46</tspan></text></g><g fill="none" color="#000" stroke="currentColor"><path stroke="#000" d="M45.6 132.3h9m560.4 0h-9"/><text transform="translate(37.3 136.2)" stroke="none" fill="#000" font-family="Arial" font-size="12" text-anchor="end"><tspan>48</tspan></text></g><g fill="none" color="#000" stroke="currentColor"><path stroke="#000" d="M45.6 80.4h9m560.4 0h-9"/><text transform="translate(37.3 84.3)" stroke="none" fill="#000" font-family="Arial" font-size="12" text-anchor="end"><tspan>50</tspan></text></g><g fill="none" color="#000" stroke="currentColor"><path stroke="#000" d="M45.6 28.5h9m560.4 0h-9"/><text transform="translate(37.3 32.4)" stroke="none" fill="#000" font-family="Arial" font-size="12" text-anchor="end"><tspan>52</tspan></text></g><g fill="none" color="#000" stroke="currentColor"><path stroke="#000" d="M45.6 428v-9m0-400.9v9"/><text transform="translate(45.6 449.9)" stroke="none" fill="#000" font-family="Arial" font-size="12" text-anchor="middle"><tspan>0</tspan></text></g><g fill="none" color="#000" stroke="currentColor"><path stroke="#000" d="M103.1 428v-9m0-400.9v9"/><text transform="translate(103.1 449.9)" stroke="none" fill="#000" font-family="Arial" font-size="12" text-anchor="middle"><tspan>10</tspan></text></g><g fill="none" color="#000" stroke="currentColor"><path stroke="#000" d="M160.6 428v-9m0-400.9v9"/><text transform="translate(160.6 449.9)" stroke="none" fill="#000" font-family="Arial" font-size="12" text-anchor="middle"><tspan>20</tspan></text></g><g fill="none" color="#000" stroke="currentColor"><path stroke="#000" d="M218.1 428v-9m0-400.9v9"/><text transform="translate(218.1 449.9)" stroke="none" fill="#000" font-family="Arial" font-size="12" text-anchor="middle"><tspan>30</tspan></text></g><g fill="none" color="#000" stroke="currentColor"><path stroke="#000" d="M275.7 428v-9m0-400.9v9"/><text transform="translate(275.7 449.9)" stroke="none" fill="#000" font-family="Arial" font-size="12" text-anchor="middle"><tspan>40</tspan></text></g><g fill="none" color="#000" stroke="currentColor"><path stroke="#000" d="M333.2 428v-9m0-400.9v9"/><text transform="translate(333.2 449.9)" stroke="none" fill="#000" font-family="Arial" font-size="12" text-anchor="middle"><tspan>50</tspan></text></g><g fill="none" color="#000" stroke="currentColor"><path stroke="#000" d="M390.7 428v-9m0-400.9v9"/><text transform="translate(390.7 449.9)" stroke="none" fill="#000" font-family="Arial" font-size="12" text-anchor="middle"><tspan>60</tspan></text></g><g fill="none" color="#000" stroke="currentColor"><path stroke="#000" d="M448.2 428v-9m0-400.9v9"/><text transform="translate(448.2 449.9)" stroke="none" fill="#000" font-family="Arial" font-size="12" text-anchor="middle"><tspan>70</tspan></text></g><g fill="none" color="#000" stroke="currentColor"><path stroke="#000" d="M505.7 428v-9m0-400.9v9"/><text transform="translate(505.7 449.9)" stroke="none" fill="#000" font-family="Arial" font-size="12" text-anchor="middle"><tspan>80</tspan></text></g><g fill="none" color="#000" stroke="currentColor"><path stroke="#000" d="M563.2 428v-9m0-400.9v9"/><text transform="translate(563.2 449.9)" stroke="none" fill="#000" font-family="Arial" font-size="12" text-anchor="middle"><tspan>90</tspan></text></g><path stroke="#000" d="M45.6 18.1V428H615V18.1H45.6z" fill="none" color="#000"/><text transform="translate(271.5 467.9)" stroke="none" fill="#000" font-family="Arial" font-size="12" text-anchor="end" color="#000"><tspan>pages+cached+noexternal+nosvg</tspan></text><path stroke="#9400D3" d="M279.8 464H322M45.6 420.1l5.8-14.2 5.7-3.2 5.8-.5 5.7-.8 5.8-.6 5.7-2.2 5.8-.7 5.7-.5 5.8-1.2 5.7-1.6 5.8-1.2 5.7-.1 5.8-.3 5.7-2.2 5.8-2.9 5.7-1.2 5.8-.2 5.7-1.7 5.8-.4 5.7-.2h5.8l5.7-.1 5.8-.1 5.7-1.6 5.8-.7 5.7-.4 5.8-.5 5.7-.1 5.8-.3 5.7-.1 5.8-.9 5.7-.7 5.8-.1 5.8-.3 5.7-.9 5.8-.4 5.7-.1 5.8-.3 5.7-.4 5.8-1.1 5.7-.1 5.8-.4 5.7-.3 5.8-.3 5.7-.3 5.8-1.7 5.7-1.2 5.8-.3 5.7-.1 5.8-.4 5.7-.1 5.8-.7 5.7-1.2 5.8-.3h5.7l5.8-.5 5.7-.5 5.8-1 5.7-1 5.8-1.5 5.7-.8 5.8-.1 5.7-.2 5.8-.2 5.7-.9 5.8-.2 5.8-.4 5.7-.4 5.8-1.5 5.7-.4 5.8-.6 5.7-2.3 5.8-.9 5.7-1.3h5.8l5.7-.7 5.8-.2 5.7-.4 5.8-1.2 5.7-5.9 5.8-.1 5.7-.4 5.8-.2 5.7-1.8 5.8-1.2 5.7-1.2 5.8-.2 5.7-.4 5.8-.5 5.7-.5 5.8-2.2 5.7-5.9 5.8-1.5 5.7-4.1 5.8-6 5.7-.1 5.8-18 5.7-2.1L615 26" fill="none" color="#000"/><text transform="translate(271.5 485.9)" stroke="none" fill="#000" font-family="Arial" font-size="12" text-anchor="end" color="#000"><tspan>pages+cached+noexternal+noimg</tspan></text><path stroke="#009E73" d="M279.8 482H322M45.6 346.7l5.8-56 5.7-9.3 5.8-6.9 5.7-.5 5.8-6.2 5.7-.9 5.8-2.4 5.7-.3 5.8-.2 5.7-1 5.8-2.4 5.7-1h5.8l5.7-.7 5.8-.3 5.7-.8 5.8-.2 5.7-.6 5.8-1.1 5.7-.2 5.8-.5 5.7-2.4 5.8-2.2 5.7-1.3 5.8-1.7 5.7-1.2 5.8-.3 5.7-.1 5.8-1.1h5.7l5.8-.1 5.7-.2 5.8-.3 5.8-.7 5.7-1.8 5.8-.2 5.7-.1 5.8-.7 5.7-.6 5.8-.1 5.7-2.6 5.8-.5 5.7-1.3 5.8-.3 5.7-1.1 5.8-.3 5.7-1.3 5.8-.5 5.7-.4 5.8-.1 5.7-.1 5.8-.2h5.7l5.8-4 5.7-.1 5.8-.3 5.7-.2 5.8-.6 5.7-.8 5.8-1.2 5.7-.3 5.8-.4 5.7-1.6 5.8-.1 5.7-.3 5.8-.2 5.8-.2 5.7-.5 5.8-.6 5.7-1.1 5.8-1.1 5.7-.2 5.8-.1 5.7-6.7 5.8-1.7 5.7-1.3h5.8l5.7-.6 5.8-1.2 5.7-1.6 5.8-.1 5.7-3.8 5.8-.6 5.7-.1h5.8l5.7-.3 5.8-5.2 5.7-2.3 5.8-.9 5.7-2.3 5.8-1.6 5.7-.3 5.8-1.4 5.7-7.6 5.8-.9 5.7-2.7 5.8-9.1 5.7-6.2 5.8-36.3" fill="none" color="#000"/><text transform="translate(571 467.9)" stroke="none" fill="#000" font-family="Arial" font-size="12" text-anchor="end" color="#000"><tspan>score p10=1282</tspan></text><path stroke="#56B4E9" d="M579.3 464h42.2" fill="none" color="#000"/><g><text transform="translate(571 485.9)" stroke="none" fill="#000" font-family="Arial" font-size="12" text-anchor="end" color="#000"><tspan>score median=3500</tspan></text><path stroke="#E69F00" d="M579.3 482h42.2" fill="none" color="#000"/></g><g fill="none" color="#000" stroke="currentColor"><path stroke="#000" d="M45.6 18.1V428H615V18.1H45.6z"/></g></svg>