<svg width="640" height="500" xmlns="http://www.w3.org/2000/svg" xmlns:xlink="http://www.w3.org/1999/xlink"><path fill="#fff" d="M0 0h640v500H0z"/><defs><path id="d" stroke-width=".222" stroke="currentColor" d="M-1-1h2v2h-2z"/><path id="b" stroke-width=".222" stroke="currentColor" d="M0-1.33l-1.33 2h2.66z"/><path id="f" stroke-width=".222" stroke="currentColor" d="M0 1.33L1.265.411.782-1.067l-1.564-.009-.483 1.487z"/><use xlink:href="#b" id="c" stroke="currentColor" transform="rotate(180)"/><use xlink:href="#d" id="e" stroke="currentColor" transform="rotate(45)"/><circle id="a" stroke-width=".222" stroke="currentColor" cx="0" cy="0" r="1"/></defs><g fill="none" color="#000" stroke="currentColor"><path stroke="#000" d="M45.6 386.5h9m560.4 0h-9"/><text transform="translate(37.3 390.4)" stroke="none" fill="#000" font-family="Arial" font-size="12" text-anchor="end"><tspan>15</tspan></text></g><g fill="none" color="#000" stroke="currentColor"><path stroke="#000" d="M45.6 336.4h9m560.4 0h-9"/><text transform="translate(37.3 340.3)" stroke="none" fill="#000" font-family="Arial" font-size="12" text-anchor="end"><tspan>20</tspan></text></g><g fill="none" color="#000" stroke="currentColor"><path stroke="#000" d="M45.6 286.3h9m560.4 0h-9"/><text transform="translate(37.3 290.2)" stroke="none" fill="#000" font-family="Arial" font-size="12" text-anchor="end"><tspan>25</tspan></text></g><g fill="none" color="#000" stroke="currentColor"><path stroke="#000" d="M45.6 236.2h9m560.4 0h-9"/><text transform="translate(37.3 240.1)" stroke="none" fill="#000" font-family="Arial" font-size="12" text-anchor="end"><tspan>30</tspan></text></g><g fill="none" color="#000" stroke="currentColor"><path stroke="#000" d="M45.6 186.2h9m560.4 0h-9"/><text transform="translate(37.3 190.1)" stroke="none" fill="#000" font-family="Arial" font-size="12" text-anchor="end"><tspan>35</tspan></text></g><g fill="none" color="#000" stroke="currentColor"><path stroke="#000" d="M45.6 136.1h9m560.4 0h-9"/><text transform="translate(37.3 140)" stroke="none" fill="#000" font-family="Arial" font-size="12" text-anchor="end"><tspan>40</tspan></text></g><g fill="none" color="#000" stroke="currentColor"><path stroke="#000" d="M45.6 86h9M615 86h-9"/><text transform="translate(37.3 89.9)" stroke="none" fill="#000" font-family="Arial" font-size="12" text-anchor="end"><tspan>45</tspan></text></g><g fill="none" color="#000" stroke="currentColor"><path stroke="#000" d="M45.6 36h9M615 36h-9"/><text transform="translate(37.3 39.9)" stroke="none" fill="#000" font-family="Arial" font-size="12" text-anchor="end"><tspan>50</tspan></text></g><g fill="none" color="#000" stroke="currentColor"><path stroke="#000" d="M45.6 428v-9m0-400.9v9"/><text transform="translate(45.6 449.9)" stroke="none" fill="#000" font-family="Arial" font-size="12" text-anchor="middle"><tspan>0</tspan></text></g><g fill="none" color="#000" stroke="currentColor"><path stroke="#000" d="M103.1 428v-9m0-400.9v9"/><text transform="translate(103.1 449.9)" stroke="none" fill="#000" font-family="Arial" font-size="12" text-anchor="middle"><tspan>10</tspan></text></g><g fill="none" color="#000" stroke="currentColor"><path stroke="#000" d="M160.6 428v-9m0-400.9v9"/><text transform="translate(160.6 449.9)" stroke="none" fill="#000" font-family="Arial" font-size="12" text-anchor="middle"><tspan>20</tspan></text></g><g fill="none" color="#000" stroke="currentColor"><path stroke="#000" d="M218.1 428v-9m0-400.9v9"/><text transform="translate(218.1 449.9)" stroke="none" fill="#000" font-family="Arial" font-size="12" text-anchor="middle"><tspan>30</tspan></text></g><g fill="none" color="#000" stroke="currentColor"><path stroke="#000" d="M275.7 428v-9m0-400.9v9"/><text transform="translate(275.7 449.9)" stroke="none" fill="#000" font-family="Arial" font-size="12" text-anchor="middle"><tspan>40</tspan></text></g><g fill="none" color="#000" stroke="currentColor"><path stroke="#000" d="M333.2 428v-9m0-400.9v9"/><text transform="translate(333.2 449.9)" stroke="none" fill="#000" font-family="Arial" font-size="12" text-anchor="middle"><tspan>50</tspan></text></g><g fill="none" color="#000" stroke="currentColor"><path stroke="#000" d="M390.7 428v-9m0-400.9v9"/><text transform="translate(390.7 449.9)" stroke="none" fill="#000" font-family="Arial" font-size="12" text-anchor="middle"><tspan>60</tspan></text></g><g fill="none" color="#000" stroke="currentColor"><path stroke="#000" d="M448.2 428v-9m0-400.9v9"/><text transform="translate(448.2 449.9)" stroke="none" fill="#000" font-family="Arial" font-size="12" text-anchor="middle"><tspan>70</tspan></text></g><g fill="none" color="#000" stroke="currentColor"><path stroke="#000" d="M505.7 428v-9m0-400.9v9"/><text transform="translate(505.7 449.9)" stroke="none" fill="#000" font-family="Arial" font-size="12" text-anchor="middle"><tspan>80</tspan></text></g><g fill="none" color="#000" stroke="currentColor"><path stroke="#000" d="M563.2 428v-9m0-400.9v9"/><text transform="translate(563.2 449.9)" stroke="none" fill="#000" font-family="Arial" font-size="12" text-anchor="middle"><tspan>90</tspan></text></g><path stroke="#000" d="M45.6 18.1V428H615V18.1H45.6z" fill="none" color="#000"/><text transform="translate(271.5 467.9)" stroke="none" fill="#000" font-family="Arial" font-size="12" text-anchor="end" color="#000"><tspan>pages+cached+noexternal+nocss</tspan></text><path stroke="#9400D3" d="M279.8 464H322M45.6 328.2l5.8-.3 5.7-16.4 5.8-.3 5.7-1 5.8-1.2 5.7-.4 5.8-.5 5.7-.3 5.8-.2 5.7-.7 5.8-.5 5.7-.1 5.8-.2 5.7-.2 5.8-.1 5.7-1.1 5.8-.6 5.7-.1 5.8-.3 5.7-.2 5.8-.2 5.7-.6 5.8-.4 5.7-.9 5.8-.2 5.7-.1h5.8l5.7-.3h5.8l5.7-.4 5.8-.1 5.7-.2 5.8-.1 5.8-.3 5.7-.1 5.8-.1h5.7l5.8-.1h5.7l5.8-.1h11.5l5.7-.1 5.8-.1 5.7-.2 5.8-.4 5.7-.1 5.8-.5h5.7l5.8-.4 5.7-.2h5.8l5.7-.1 5.8-.5h5.7l5.8-.4 5.7-.1 5.8-.3 5.7-.4 5.8-.3 5.7-.1h11.5l5.8-.1h5.7l5.8-.2 5.8-.1 5.7-.2 5.8-.8 5.7-.3 5.8-.1 5.7-.4 5.8-.1 5.7-.8 5.8-.1 5.7-.5 5.8-.1 5.7-1.6 5.8-.3h5.7l5.8-.7 5.7-.1 5.8-.2h5.7l5.8-.1 5.7-.1 5.8-.8h5.7l5.8-.1 5.7-.1 5.8-.6 5.7-1.8 5.8-.8 5.7-1.5 5.8-.9 5.7-1 5.8-1.5 5.7-11.1L615 26" fill="none" color="#000"/><text transform="translate(271.5 485.9)" stroke="none" fill="#000" font-family="Arial" font-size="12" text-anchor="end" color="#000"><tspan>pages+cached+noexternal+nojs</tspan></text><path stroke="#009E73" d="M279.8 482H322M45.6 420.1l5.8-2.9 5.7-.1 5.8-.5 5.7-.6 5.8-.4 5.7-.2 5.8-.3 5.7-.4 5.8-.5 5.7-.6 5.8-.3 5.7-.8 5.8-.6h5.7l5.8-.4 5.7-.5 5.8-.2 5.7-.4 5.8-.7 5.7-.7 5.8-.3 5.7-.9 5.8-.9 5.7-.3 5.8-.1 5.7-.5 5.8-.2h5.7l5.8-.6 5.7-.2h5.8l5.7-.7 5.8-.2 5.8-.1 5.7-.3 5.8-.4 5.7-.1 5.8-.1h5.7l5.8-.4 5.7-.2 5.8-.1h5.7l5.8-.4 5.7-.1 5.8-.1 5.7-.3 5.8-.1 5.7-.4 5.8-.4h5.7l5.8-.1 5.7-.1 5.8-.1 5.7-.2 5.8-.2h11.5l5.7-.6 5.8-.1 5.7-.4 5.8-.5 5.7-.6 5.8-.1h5.7l5.8-.3 5.8-.1h5.7l5.8-.1 5.7-.1 5.8-.1 5.7-.1 5.8-.2 5.7-.3h5.8l5.7-.1 5.8-.7 5.7-.1 5.8-.1 5.7-.1 5.8-.8 5.7-.1 5.8-.4 5.7-.1 5.8-.3 5.7-.3 5.8-.1h5.7l5.8-.3 5.7-.5 5.8-1.4h5.7l5.8-.6 5.7-.4 5.8-.8 5.7-.2 5.8-.8 5.7-2.1 5.8-1.4" fill="none" color="#000"/><text transform="translate(571 467.9)" stroke="none" fill="#000" font-family="Arial" font-size="12" text-anchor="end" color="#000"><tspan>score p10=1282</tspan></text><path stroke="#56B4E9" d="M579.3 464h42.2" fill="none" color="#000"/><g><text transform="translate(571 485.9)" stroke="none" fill="#000" font-family="Arial" font-size="12" text-anchor="end" color="#000"><tspan>score median=3500</tspan></text><path stroke="#E69F00" d="M579.3 482h42.2" fill="none" color="#000"/></g><g fill="none" color="#000" stroke="currentColor"><path stroke="#000" d="M45.6 18.1V428H615V18.1H45.6z"/></g></svg>