<svg width="640" height="620" xmlns="http://www.w3.org/2000/svg" xmlns:xlink="http://www.w3.org/1999/xlink"><path fill="#fff" d="M0 0h640v620H0z"/><defs><path id="d" stroke-width=".222" stroke="currentColor" d="M-1-1h2v2h-2z"/><path id="b" stroke-width=".222" stroke="currentColor" d="M0-1.33l-1.33 2h2.66z"/><path id="f" stroke-width=".222" stroke="currentColor" d="M0 1.33L1.265.411.782-1.067l-1.564-.009-.483 1.487z"/><use xlink:href="#b" id="c" stroke="currentColor" transform="rotate(180)"/><use xlink:href="#d" id="e" stroke="currentColor" transform="rotate(45)"/><circle id="a" stroke-width=".222" stroke="currentColor" cx="0" cy="0" r="1"/></defs><g fill="none" color="#000" stroke="currentColor"><path stroke="#000" d="M70.5 329.6h9m535.5 0h-9"/><text transform="translate(62.2 333.5)" stroke="none" fill="#000" font-family="Arial" font-size="12" text-anchor="end"><tspan>0.975</tspan></text></g><g fill="none" color="#000" stroke="currentColor"><path stroke="#000" d="M70.5 269.7h9m535.5 0h-9"/><text transform="translate(62.2 273.6)" stroke="none" fill="#000" font-family="Arial" font-size="12" text-anchor="end"><tspan>0.98</tspan></text></g><g fill="none" color="#000" stroke="currentColor"><path stroke="#000" d="M70.5 209.8h9m535.5 0h-9"/><text transform="translate(62.2 213.7)" stroke="none" fill="#000" font-family="Arial" font-size="12" text-anchor="end"><tspan>0.985</tspan></text></g><g fill="none" color="#000" stroke="currentColor"><path stroke="#000" d="M70.5 149.9h9m535.5 0h-9"/><text transform="translate(62.2 153.8)" stroke="none" fill="#000" font-family="Arial" font-size="12" text-anchor="end"><tspan>0.99</tspan></text></g><g fill="none" color="#000" stroke="currentColor"><path stroke="#000" d="M70.5 90h9M615 90h-9"/><text transform="translate(62.2 93.9)" stroke="none" fill="#000" font-family="Arial" font-size="12" text-anchor="end"><tspan>0.995</tspan></text></g><g fill="none" color="#000" stroke="currentColor"><path stroke="#000" d="M70.5 30.1h9m535.5 0h-9"/><text transform="translate(62.2 34)" stroke="none" fill="#000" font-family="Arial" font-size="12" text-anchor="end"><tspan>1</tspan></text></g><g fill="none" color="#000" stroke="currentColor"><path stroke="#000" d="M70.5 332v-9m0-304.9v9"/><text transform="translate(70.5 353.9)" stroke="none" fill="#000" font-family="Arial" font-size="12" text-anchor="middle"><tspan>0</tspan></text></g><g fill="none" color="#000" stroke="currentColor"><path stroke="#000" d="M125.5 332v-9m0-304.9v9"/><text transform="translate(125.5 353.9)" stroke="none" fill="#000" font-family="Arial" font-size="12" text-anchor="middle"><tspan>10</tspan></text></g><g fill="none" color="#000" stroke="currentColor"><path stroke="#000" d="M180.5 332v-9m0-304.9v9"/><text transform="translate(180.5 353.9)" stroke="none" fill="#000" font-family="Arial" font-size="12" text-anchor="middle"><tspan>20</tspan></text></g><g fill="none" color="#000" stroke="currentColor"><path stroke="#000" d="M235.5 332v-9m0-304.9v9"/><text transform="translate(235.5 353.9)" stroke="none" fill="#000" font-family="Arial" font-size="12" text-anchor="middle"><tspan>30</tspan></text></g><g fill="none" color="#000" stroke="currentColor"><path stroke="#000" d="M290.5 332v-9m0-304.9v9"/><text transform="translate(290.5 353.9)" stroke="none" fill="#000" font-family="Arial" font-size="12" text-anchor="middle"><tspan>40</tspan></text></g><g fill="none" color="#000" stroke="currentColor"><path stroke="#000" d="M345.5 332v-9m0-304.9v9"/><text transform="translate(345.5 353.9)" stroke="none" fill="#000" font-family="Arial" font-size="12" text-anchor="middle"><tspan>50</tspan></text></g><g fill="none" color="#000" stroke="currentColor"><path stroke="#000" d="M400.5 332v-9m0-304.9v9"/><text transform="translate(400.5 353.9)" stroke="none" fill="#000" font-family="Arial" font-size="12" text-anchor="middle"><tspan>60</tspan></text></g><g fill="none" color="#000" stroke="currentColor"><path stroke="#000" d="M455.5 332v-9m0-304.9v9"/><text transform="translate(455.5 353.9)" stroke="none" fill="#000" font-family="Arial" font-size="12" text-anchor="middle"><tspan>70</tspan></text></g><g fill="none" color="#000" stroke="currentColor"><path stroke="#000" d="M510.5 332v-9m0-304.9v9"/><text transform="translate(510.5 353.9)" stroke="none" fill="#000" font-family="Arial" font-size="12" text-anchor="middle"><tspan>80</tspan></text></g><g fill="none" color="#000" stroke="currentColor"><path stroke="#000" d="M565.5 332v-9m0-304.9v9"/><text transform="translate(565.5 353.9)" stroke="none" fill="#000" font-family="Arial" font-size="12" text-anchor="middle"><tspan>90</tspan></text></g><path stroke="#000" d="M70.5 18.1V332H615V18.1H70.5z" fill="none" color="#000"/><text transform="translate(537.4 371.9)" stroke="none" fill="#000" font-family="Arial" font-size="12" text-anchor="end" color="#000"><tspan>empty</tspan></text><path stroke="#9400D3" d="M545.7 368h42.2M70.5 30.1H615" fill="none" color="#000"/><text transform="translate(537.4 389.9)" stroke="none" fill="#000" font-family="Arial" font-size="12" text-anchor="end" color="#000"><tspan>pages</tspan></text><path stroke="#009E73" d="M545.7 386h42.2M70.5 320l5.5-42.9 5.5-17.9 5.5-69h5.5l5.5-3.8 5.5-1 5.5-1.1 5.5-1.1 5.5-.4 5.5-.2 5.5-.7h5.5l5.5-.2 5.5-1 5.5-.4 5.5-.2h5.5l5.5-.6 5.5-.8 5.5-1.2 5.5-.8 5.5-.3 5.5-.4 5.5-.6 5.5-.9h5.5l5.5-.2 5.5-.2 5.5-.5 5.5-.6 5.5-.1 5.5-.5 5.5-.5 5.5-.3 5.5-.5 5.5-.2 5.5-.6 5.5-.5 5.5-1.2h16.5l5.5-.2 5.5-.6 5.5-.1 5.5-.1 5.5-.3h5.5l5.5-.2 5.5-.1 5.5-.2h5.5l5.5-.1 5.5-.3h5.5l5.5-.9 5.5-.5 5.5-.2 5.5-.1 5.5-.5 5.5-.1 5.5-.1 5.5-.3 5.5-.4 5.5-.1 5.5-.3h5.5l5.5-.2 5.5-.1 5.5-.1h5.5l5.5-.6 5.5-.4 5.5-.1 5.5-.1h5.5l5.5-.1 5.5-.7 5.5-.4 5.5-.9 5.5-.6 5.5-.5 5.5-.8 5.5-.4 5.5-.3 5.5-.5 5.5-.4 5.5-1.1 5.5-.2 5.5-.7 5.5-1.2 5.5-2.2 5.5-1.1 5.5-.8h5.5l5.5-.5 5.5-.1 5.5-.1 5.5-5.4" fill="none" color="#000"/><text transform="translate(537.4 407.9)" stroke="none" fill="#000" font-family="Arial" font-size="12" text-anchor="end" color="#000"><tspan>pages+cached</tspan></text><path stroke="#56B4E9" d="M545.7 404h42.2M70.5 201.8l5.5-.5 5.5-12.3 5.5-10.8 5.5-1.1 5.5-3.7 5.5-.9 5.5-4.2 5.5-1.3 5.5-.3 5.5-1.7 5.5-.9 5.5-1 5.5-.5 5.5-.2 5.5-1.1 5.5-.6 5.5-.5 5.5-.4 5.5-.4 5.5-.2 5.5-.2h5.5l5.5-.8 5.5-.2 5.5-.1 5.5-.7 5.5-.3 5.5-.2 5.5-.4 5.5-.2h5.5l5.5-.2 5.5-.1 5.5-.7 5.5-.1h5.5l5.5-.2 5.5-.6h5.5l5.5-.5 5.5-.1 5.5-.8 5.5-.3 5.5-.5h5.5l5.5-.1 5.5-4 5.5-.5 5.5-.5 5.5-.2 5.5-.4 5.5-.7 5.5-.3 5.5-.5 5.5-.5 5.5-.7 5.5-.4 5.5-.1h5.5l5.5-.2 5.5-.7 5.5-.4 5.5-.1 5.5-.3 5.5-.3 5.5-.5 5.5-.3 5.5-.3 5.5-.2h11l5.5-.1 5.5-.7 5.5-.2 5.5-.2h5.5l5.5-.1h5.5l5.5-.1 5.5-.1h5.5l5.5-.2 5.5-.3 5.5-.1 5.5-.1 5.5-.3h5.5l5.5-.1 5.5-.1 5.5-.2 5.5-.1 5.5-.5 5.5-.4 5.5-.1 5.5-.3 5.5-.1 5.5-1.5 5.5-.4 5.5-2.5" fill="none" color="#000"/><text transform="translate(537.4 425.9)" stroke="none" fill="#000" font-family="Arial" font-size="12" text-anchor="end" color="#000"><tspan>pages+cached+nointeractive</tspan></text><path stroke="#E69F00" d="M545.7 422h42.2M70.5 180.3l5.5-5.1 5.5-3.7 5.5-9.1 5.5-1.5 5.5-.2 5.5-.3 5.5-.5 5.5-1.4 5.5-.6 5.5-.4h5.5l5.5-.9 5.5-.2 5.5-.3 5.5-.7 5.5-.2 5.5-.1 5.5-.9 5.5-.1 5.5-.3 5.5-.1 5.5-.3 5.5-.1 5.5-.3 5.5-.2 5.5-.1 5.5-1.1 5.5-.1 5.5-.2 5.5-.3 5.5-1.1 5.5-2.4 5.5-.7 5.5-1.1 5.5-1.3 5.5-.1h5.5l5.5-.1 5.5-2 5.5-.9 5.5-.3 5.5-.5 5.5-.2 5.5-.1 5.5-.1 5.5-.1 5.5-.1 5.5-.1 5.5-.4 5.5-.1h5.5l5.5-.3 5.5-.1h5.5l5.5-.1 5.5-.1 5.5-.5h11l5.5-.4 5.5-.1 5.5-.2 5.5-.2 5.5-.3 5.5-.1 5.5-.1 5.5-.1 5.5-.1h5.5l5.5-.1 5.5-.1 5.5-.1 5.5-.1 5.5-.1h5.5l5.5-.1h11l5.5-.1h5.5l5.5-.1h11l5.5-.2h5.5l5.5-.2 5.5-.1 5.5-.1 5.5-.2 5.5-.1h5.5l5.5-.1 5.5-.6 5.5-.3h5.5l5.5-.2 5.5-.3 5.5-1.5 5.5-.2" fill="none" color="#000"/><text transform="translate(537.4 443.9)" stroke="none" fill="#000" font-family="Arial" font-size="12" text-anchor="end" color="#000"><tspan>pages+cached+noadtech</tspan></text><path stroke="#F0E442" d="M545.7 440h42.2M70.5 30.1H615" fill="none" color="#000"/><text transform="translate(537.4 461.9)" stroke="none" fill="#000" font-family="Arial" font-size="12" text-anchor="end" color="#000"><tspan>pages+cached+noexternal</tspan></text><path stroke="#0072B2" d="M545.7 458h42.2M70.5 30.1H615" fill="none" color="#000"/><text transform="translate(537.4 479.9)" stroke="none" fill="#000" font-family="Arial" font-size="12" text-anchor="end" color="#000"><tspan>pages+cached+noexternal+nofonts</tspan></text><path stroke="#E51E10" d="M545.7 476h42.2M70.5 30.1H615" fill="none" color="#000"/><g><text transform="translate(537.4 497.9)" stroke="none" fill="#000" font-family="Arial" font-size="12" text-anchor="end" color="#000"><tspan>pages+cached+noexternal+nosvg</tspan></text><path stroke="#000" d="M545.7 494h42.2M70.5 30.1H615" fill="none" color="#000"/></g><g><text transform="translate(537.4 515.9)" stroke="none" fill="#000" font-family="Arial" font-size="12" text-anchor="end" color="#000"><tspan>pages+cached+noexternal+noimg</tspan></text><path stroke="#9400D3" d="M545.7 512h42.2M70.5 30.1H615" fill="none" color="#000"/></g><g><text transform="translate(537.4 533.9)" stroke="none" fill="#000" font-family="Arial" font-size="12" text-anchor="end" color="#000"><tspan>pages+cached+noexternal+nocss</tspan></text><path stroke="#009E73" d="M545.7 530h42.2M70.5 30.1H615" fill="none" color="#000"/></g><g><text transform="translate(537.4 551.9)" stroke="none" fill="#000" font-family="Arial" font-size="12" text-anchor="end" color="#000"><tspan>pages+cached+noexternal+nojs</tspan></text><path stroke="#56B4E9" d="M545.7 548h42.2M70.5 30.1H615" fill="none" color="#000"/></g><g><text transform="translate(537.4 569.9)" stroke="none" fill="#000" font-family="Arial" font-size="12" text-anchor="end" color="#000"><tspan>pages+cached+noexternal+nofonts+nosvg+noimg</tspan></text><path stroke="#E69F00" d="M545.7 566h42.2M70.5 30.1H615" fill="none" color="#000"/></g><g><text transform="translate(537.4 587.9)" stroke="none" fill="#000" font-family="Arial" font-size="12" text-anchor="end" color="#000"><tspan>pages+cached+noexternal+nofonts+nosvg+noimg+nocss</tspan></text><path stroke="#F0E442" d="M545.7 584h42.2M70.5 30.1H615" fill="none" color="#000"/></g><g><text transform="translate(537.4 605.9)" stroke="none" fill="#000" font-family="Arial" font-size="12" text-anchor="end" color="#000"><tspan>pages+cached+noexternal+nofonts+nosvg+noimg+nocss+nojs</tspan></text><path stroke="#0072B2" d="M545.7 602h42.2M70.5 30.1H615" fill="none" color="#000"/></g><g fill="none" color="#000" stroke="currentColor"><path stroke="#000" d="M70.5 18.1V332H615V18.1H70.5z"/></g></svg>