<svg width="640" height="490" xmlns="http://www.w3.org/2000/svg" xmlns:xlink="http://www.w3.org/1999/xlink"><path fill="#fff" d="M0 0h640v490H0z"/><defs><path id="d" stroke-width=".222" stroke="currentColor" d="M-1-1h2v2h-2z"/><path id="b" stroke-width=".222" stroke="currentColor" d="M0-1.33l-1.33 2h2.66z"/><path id="f" stroke-width=".222" stroke="currentColor" d="M0 1.33L1.265.411.782-1.067l-1.564-.009-.483 1.487z"/><use xlink:href="#b" id="c" stroke="currentColor" transform="rotate(180)"/><use xlink:href="#d" id="e" stroke="currentColor" transform="rotate(45)"/><circle id="a" stroke-width=".222" stroke="currentColor" cx="0" cy="0" r="1"/></defs><g fill="none" color="#000" stroke="currentColor"><path stroke="#000" d="M70.5 410.7h9m535.5 0h-9"/><text transform="translate(62.2 414.6)" stroke="none" fill="#000" font-family="Arial" font-size="12" text-anchor="end"><tspan>10940</tspan></text></g><g fill="none" color="#000" stroke="currentColor"><path stroke="#000" d="M70.5 353.3h9m535.5 0h-9"/><text transform="translate(62.2 357.2)" stroke="none" fill="#000" font-family="Arial" font-size="12" text-anchor="end"><tspan>10950</tspan></text></g><g fill="none" color="#000" stroke="currentColor"><path stroke="#000" d="M70.5 295.9h9m535.5 0h-9"/><text transform="translate(62.2 299.8)" stroke="none" fill="#000" font-family="Arial" font-size="12" text-anchor="end"><tspan>10960</tspan></text></g><g fill="none" color="#000" stroke="currentColor"><path stroke="#000" d="M70.5 238.5h9m535.5 0h-9"/><text transform="translate(62.2 242.4)" stroke="none" fill="#000" font-family="Arial" font-size="12" text-anchor="end"><tspan>10970</tspan></text></g><g fill="none" color="#000" stroke="currentColor"><path stroke="#000" d="M70.5 181.1h9m535.5 0h-9"/><text transform="translate(62.2 185)" stroke="none" fill="#000" font-family="Arial" font-size="12" text-anchor="end"><tspan>10980</tspan></text></g><g fill="none" color="#000" stroke="currentColor"><path stroke="#000" d="M70.5 123.7h9m535.5 0h-9"/><text transform="translate(62.2 127.6)" stroke="none" fill="#000" font-family="Arial" font-size="12" text-anchor="end"><tspan>10990</tspan></text></g><g fill="none" color="#000" stroke="currentColor"><path stroke="#000" d="M70.5 66.3h9m535.5 0h-9"/><text transform="translate(62.2 70.2)" stroke="none" fill="#000" font-family="Arial" font-size="12" text-anchor="end"><tspan>11000</tspan></text></g><g fill="none" color="#000" stroke="currentColor"><path stroke="#000" d="M70.5 436v-9m0-408.9v9"/><text transform="translate(70.5 457.9)" stroke="none" fill="#000" font-family="Arial" font-size="12" text-anchor="middle"><tspan>0</tspan></text></g><g fill="none" color="#000" stroke="currentColor"><path stroke="#000" d="M125.5 436v-9m0-408.9v9"/><text transform="translate(125.5 457.9)" stroke="none" fill="#000" font-family="Arial" font-size="12" text-anchor="middle"><tspan>10</tspan></text></g><g fill="none" color="#000" stroke="currentColor"><path stroke="#000" d="M180.5 436v-9m0-408.9v9"/><text transform="translate(180.5 457.9)" stroke="none" fill="#000" font-family="Arial" font-size="12" text-anchor="middle"><tspan>20</tspan></text></g><g fill="none" color="#000" stroke="currentColor"><path stroke="#000" d="M235.5 436v-9m0-408.9v9"/><text transform="translate(235.5 457.9)" stroke="none" fill="#000" font-family="Arial" font-size="12" text-anchor="middle"><tspan>30</tspan></text></g><g fill="none" color="#000" stroke="currentColor"><path stroke="#000" d="M290.5 436v-9m0-408.9v9"/><text transform="translate(290.5 457.9)" stroke="none" fill="#000" font-family="Arial" font-size="12" text-anchor="middle"><tspan>40</tspan></text></g><g fill="none" color="#000" stroke="currentColor"><path stroke="#000" d="M345.5 436v-9m0-408.9v9"/><text transform="translate(345.5 457.9)" stroke="none" fill="#000" font-family="Arial" font-size="12" text-anchor="middle"><tspan>50</tspan></text></g><g fill="none" color="#000" stroke="currentColor"><path stroke="#000" d="M400.5 436v-9m0-408.9v9"/><text transform="translate(400.5 457.9)" stroke="none" fill="#000" font-family="Arial" font-size="12" text-anchor="middle"><tspan>60</tspan></text></g><g fill="none" color="#000" stroke="currentColor"><path stroke="#000" d="M455.5 436v-9m0-408.9v9"/><text transform="translate(455.5 457.9)" stroke="none" fill="#000" font-family="Arial" font-size="12" text-anchor="middle"><tspan>70</tspan></text></g><g fill="none" color="#000" stroke="currentColor"><path stroke="#000" d="M510.5 436v-9m0-408.9v9"/><text transform="translate(510.5 457.9)" stroke="none" fill="#000" font-family="Arial" font-size="12" text-anchor="middle"><tspan>80</tspan></text></g><g fill="none" color="#000" stroke="currentColor"><path stroke="#000" d="M565.5 436v-9m0-408.9v9"/><text transform="translate(565.5 457.9)" stroke="none" fill="#000" font-family="Arial" font-size="12" text-anchor="middle"><tspan>90</tspan></text></g><path stroke="#000" d="M70.5 18.1V436H615V18.1H70.5z" fill="none" color="#000"/><text transform="translate(325.8 475.9)" stroke="none" fill="#000" font-family="Arial" font-size="12" text-anchor="end" color="#000"><tspan>raw</tspan></text><path stroke="#9400D3" d="M334.1 472h42.2M70.5 186.9L76 370.6l5.5-264.1L87 221.3l5.5-23L98 336.1l5.5-34.4 5.5 45.9 5.5-17.2L120 26.1l5.5 195.2 5.5-11.5 5.5 91.9 5.5-86.1 5.5 114.8 5.5 22.9 5.5-172.2 5.5 195.2 5.5-11.5 5.5-109 5.5 103.3h5.5l5.5 11.5 5.5-103.4 5.5 126.3 5.5-17.2 5.5-5.7 5.5 40.1 5.5-63.1 5.5 5.7 5.5-166.4 5.5 137.7 5.5 28.7 5.5-63.1 5.5 51.7 5.5 28.7 5.5-63.2 5.5 11.5 5.5-114.8 5.5 120.5 5.5 17.3 5.5-149.3 5.5 178 5.5-183.7 5.5 177.9 5.5-28.7h5.5l5.5-5.7h5.5l5.5 11.5 5.5-5.8h5.5l5.5-22.9 5.5 103.3 5.5-97.6 5.5 11.5 5.5-120.6L384 227l5.5 137.8 5.5-5.7 5.5-34.5 5.5-103.3 5.5 114.8L417 428l5.5-23 5.5-28.7 5.5-45.9 5.5 63.1 5.5-137.7 5.5 57.4 5.5-132.1 5.5 17.2 5.5 137.8L472 273l5.5 137.7 5.5-80.3 5.5 17.2 5.5 17.2 5.5 17.2h5.5l5.5-80.3 5.5 86.1 5.5-160.8 5.5 109.1 5.5 40.2 5.5-252.6 5.5 200.9 5.5-63.1 5.5 86.1 5.5-51.7 5.5 74.7 5.5-74.7 5.5 40.2 5.5 11.5 5.5 23 5.5-137.8 5.5 166.5 5.5-51.7 5.5-5.7 5.5-28.7" fill="none" color="#000"/><g fill="none" color="#000" stroke="currentColor"><path stroke="#000" d="M70.5 18.1V436H615V18.1H70.5z"/></g></svg>