<svg width="640" height="610" xmlns="http://www.w3.org/2000/svg" xmlns:xlink="http://www.w3.org/1999/xlink"><path fill="#fff" d="M0 0h640v610H0z"/><defs><path id="d" stroke-width=".222" stroke="currentColor" d="M-1-1h2v2h-2z"/><path id="b" stroke-width=".222" stroke="currentColor" d="M0-1.33l-1.33 2h2.66z"/><path id="f" stroke-width=".222" stroke="currentColor" d="M0 1.33L1.265.411.782-1.067l-1.564-.009-.483 1.487z"/><use xlink:href="#b" id="c" stroke="currentColor" transform="rotate(180)"/><use xlink:href="#d" id="e" stroke="currentColor" transform="rotate(45)"/><circle id="a" stroke-width=".222" stroke="currentColor" cx="0" cy="0" r="1"/></defs><g fill="none" color="#000" stroke="currentColor"><path stroke="#000" d="M53.9 304h9m552.1 0h-9"/><text transform="translate(45.6 307.9)" stroke="none" fill="#000" font-family="Arial" font-size="12" text-anchor="end"><tspan>0</tspan></text></g><g fill="none" color="#000" stroke="currentColor"><path stroke="#000" d="M53.9 246.8h9m552.1 0h-9"/><text transform="translate(45.6 250.7)" stroke="none" fill="#000" font-family="Arial" font-size="12" text-anchor="end"><tspan>20</tspan></text></g><g fill="none" color="#000" stroke="currentColor"><path stroke="#000" d="M53.9 189.6h9m552.1 0h-9"/><text transform="translate(45.6 193.5)" stroke="none" fill="#000" font-family="Arial" font-size="12" text-anchor="end"><tspan>40</tspan></text></g><g fill="none" color="#000" stroke="currentColor"><path stroke="#000" d="M53.9 132.5h9m552.1 0h-9"/><text transform="translate(45.6 136.4)" stroke="none" fill="#000" font-family="Arial" font-size="12" text-anchor="end"><tspan>60</tspan></text></g><g fill="none" color="#000" stroke="currentColor"><path stroke="#000" d="M53.9 75.3h9m552.1 0h-9"/><text transform="translate(45.6 79.2)" stroke="none" fill="#000" font-family="Arial" font-size="12" text-anchor="end"><tspan>80</tspan></text></g><g fill="none" color="#000" stroke="currentColor"><path stroke="#000" d="M53.9 18.1h9m552.1 0h-9"/><text transform="translate(45.6 22)" stroke="none" fill="#000" font-family="Arial" font-size="12" text-anchor="end"><tspan>100</tspan></text></g><g fill="none" color="#000" stroke="currentColor"><path stroke="#000" d="M138.8 304v-9m0-276.9v9"/><text transform="translate(138.8 325.9)" stroke="none" fill="#000" font-family="Arial" font-size="12" text-anchor="middle"><tspan>5000</tspan></text></g><g fill="none" color="#000" stroke="currentColor"><path stroke="#000" d="M235.9 304v-9m0-276.9v9"/><text transform="translate(235.9 325.9)" stroke="none" fill="#000" font-family="Arial" font-size="12" text-anchor="middle"><tspan>10000</tspan></text></g><g fill="none" color="#000" stroke="currentColor"><path stroke="#000" d="M332.9 304v-9m0-276.9v9"/><text transform="translate(332.9 325.9)" stroke="none" fill="#000" font-family="Arial" font-size="12" text-anchor="middle"><tspan>15000</tspan></text></g><g fill="none" color="#000" stroke="currentColor"><path stroke="#000" d="M430 304v-9m0-276.9v9"/><text transform="translate(430 325.9)" stroke="none" fill="#000" font-family="Arial" font-size="12" text-anchor="middle"><tspan>20000</tspan></text></g><g fill="none" color="#000" stroke="currentColor"><path stroke="#000" d="M527 304v-9m0-276.9v9"/><text transform="translate(527 325.9)" stroke="none" fill="#000" font-family="Arial" font-size="12" text-anchor="middle"><tspan>25000</tspan></text></g><path stroke="#000" d="M53.9 18.1V304H615V18.1H53.9z" fill="none" color="#000"/><text transform="translate(529.1 343.9)" stroke="none" fill="#000" font-family="Arial" font-size="12" text-anchor="end" color="#000"><tspan>empty</tspan></text><g stroke="none" shape-rendering="geometricPrecision" fill="#9400D3" fill-opacity=".5" color="#000"><path d="M537.4 344.5h42.2v-9h-42.2zM53.9 304h74.2V18H53.9z"/></g><text transform="translate(529.1 361.9)" stroke="none" fill="#000" font-family="Arial" font-size="12" text-anchor="end" color="#000"><tspan>pages</tspan></text><g stroke="none" shape-rendering="crispEdges" fill="#009E73" fill-opacity=".5" color="#000"><path d="M537.4 362.5h42.2v-9h-42.2zM300.6 304h172.7V23.7H300.6z"/><path d="M128 304h172.7v-5.8H128z"/></g><text transform="translate(529.1 379.9)" stroke="none" fill="#000" font-family="Arial" font-size="12" text-anchor="end" color="#000"><tspan>pages+cached</tspan></text><g stroke="none" shape-rendering="crispEdges" fill="#56B4E9" fill-opacity=".5" color="#000"><path d="M537.4 380.5h42.2v-9h-42.2zM128 304h172.7v-5.8H128z"/><path d="M300.6 304h172.7V23.7H300.6z"/></g><text transform="translate(529.1 397.9)" stroke="none" fill="#000" font-family="Arial" font-size="12" text-anchor="end" color="#000"><tspan>pages+cached+nointeractive</tspan></text><g stroke="none" shape-rendering="crispEdges" fill="#E69F00" fill-opacity=".5" color="#000"><path d="M537.4 398.5h42.2v-9h-42.2zM300.6 304h172.7V143.8H300.6z"/><path d="M473.2 304h141.9V178.1H473.2z"/></g><text transform="translate(529.1 415.9)" stroke="none" fill="#000" font-family="Arial" font-size="12" text-anchor="end" color="#000"><tspan>pages+cached+noadtech</tspan></text><g stroke="none" shape-rendering="crispEdges" fill="#F0E442" fill-opacity=".5" color="#000"><path d="M537.4 416.5h42.2v-9h-42.2zM128 304h172.7V20.9H128zM473.2 304h141.9v-3H473.2z"/></g><text transform="translate(529.1 433.9)" stroke="none" fill="#000" font-family="Arial" font-size="12" text-anchor="end" color="#000"><tspan>pages+cached+noexternal</tspan></text><g stroke="none" shape-rendering="crispEdges" fill="#0072B2" fill-opacity=".5" color="#000"><path d="M537.4 434.5h42.2v-9h-42.2zM128 304h172.7V18H128z"/></g><text transform="translate(529.1 451.9)" stroke="none" fill="#000" font-family="Arial" font-size="12" text-anchor="end" color="#000"><tspan>pages+cached+noexternal+nofonts</tspan></text><g stroke="none" shape-rendering="crispEdges" fill="#E51E10" fill-opacity=".5" color="#000"><path d="M537.4 452.5h42.2v-9h-42.2zM128 304h172.7V18H128z"/></g><g><text transform="translate(529.1 469.9)" stroke="none" fill="#000" font-family="Arial" font-size="12" text-anchor="end" color="#000"><tspan>pages+cached+noexternal+nosvg</tspan></text><g stroke="none" shape-rendering="crispEdges" fill="#000" fill-opacity=".5" color="#000"><path d="M537.4 470.5h42.2v-9h-42.2zM128 304h172.7V18H128z"/></g></g><g><text transform="translate(529.1 487.9)" stroke="none" fill="#000" font-family="Arial" font-size="12" text-anchor="end" color="#000"><tspan>pages+cached+noexternal+noimg</tspan></text><g stroke="none" shape-rendering="crispEdges" fill="#9400D3" fill-opacity=".5" color="#000"><path d="M537.4 488.5h42.2v-9h-42.2zM128 304h172.7V18H128z"/></g></g><g><text transform="translate(529.1 505.9)" stroke="none" fill="#000" font-family="Arial" font-size="12" text-anchor="end" color="#000"><tspan>pages+cached+noexternal+nocss</tspan></text><g stroke="none" shape-rendering="crispEdges" fill="#009E73" fill-opacity=".5" color="#000"><path d="M537.4 506.5h42.2v-9h-42.2zM53.9 304h74.2V18H53.9z"/></g></g><g><text transform="translate(529.1 523.9)" stroke="none" fill="#000" font-family="Arial" font-size="12" text-anchor="end" color="#000"><tspan>pages+cached+noexternal+nofonts+nosvg+noimg</tspan></text><g stroke="none" shape-rendering="crispEdges" fill="#56B4E9" fill-opacity=".5" color="#000"><path d="M537.4 524.5h42.2v-9h-42.2zM53.9 304h74.2V18H53.9z"/></g></g><g><text transform="translate(529.1 541.9)" stroke="none" fill="#000" font-family="Arial" font-size="12" text-anchor="end" color="#000"><tspan>pages+cached+noexternal+nofonts+nosvg+noimg+nocss</tspan></text><g stroke="none" shape-rendering="crispEdges" fill="#E69F00" fill-opacity=".5" color="#000"><path d="M537.4 542.5h42.2v-9h-42.2zM53.9 304h74.2V18H53.9z"/></g></g><g><text transform="translate(529.1 559.9)" stroke="none" fill="#000" font-family="Arial" font-size="12" text-anchor="end" color="#000"><tspan>pages+cached+noexternal+nofonts+nosvg+noimg+nocss+nojs</tspan></text><g stroke="none" shape-rendering="crispEdges" fill="#F0E442" fill-opacity=".5" color="#000"><path d="M537.4 560.5h42.2v-9h-42.2zM53.9 304h74.2V18H53.9z"/></g></g><g><text transform="translate(529.1 577.9)" stroke="none" fill="#000" font-family="Arial" font-size="12" text-anchor="end" color="#000"><tspan>score p10=2500</tspan></text><path stroke="#0072B2" d="M537.4 574h42.2M90.3 304V289.7" fill="none" color="#000"/></g><g><text transform="translate(529.1 595.9)" stroke="none" fill="#000" font-family="Arial" font-size="12" text-anchor="end" color="#000"><tspan>score median=4000</tspan></text><path stroke="#E51E10" d="M537.4 592h42.2M119.4 304V289.7" fill="none" color="#000"/></g><g fill="none" color="#000" stroke="currentColor"><path stroke="#000" d="M53.9 18.1V304H615V18.1H53.9z"/></g></svg>