<svg width="640" height="500" xmlns="http://www.w3.org/2000/svg" xmlns:xlink="http://www.w3.org/1999/xlink"><path fill="#fff" d="M0 0h640v500H0z"/><defs><path id="d" stroke-width=".222" stroke="currentColor" d="M-1-1h2v2h-2z"/><path id="b" stroke-width=".222" stroke="currentColor" d="M0-1.33l-1.33 2h2.66z"/><path id="f" stroke-width=".222" stroke="currentColor" d="M0 1.33L1.265.411.782-1.067l-1.564-.009-.483 1.487z"/><use xlink:href="#b" id="c" stroke="currentColor" transform="rotate(180)"/><use xlink:href="#d" id="e" stroke="currentColor" transform="rotate(45)"/><circle id="a" stroke-width=".222" stroke="currentColor" cx="0" cy="0" r="1"/></defs><g fill="none" color="#000" stroke="currentColor"><path stroke="#000" d="M53.9 378.8h9m552.1 0h-9"/><text transform="translate(45.6 382.7)" stroke="none" fill="#000" font-family="Arial" font-size="12" text-anchor="end"><tspan>1.4</tspan></text></g><g fill="none" color="#000" stroke="currentColor"><path stroke="#000" d="M53.9 319h9m552.1 0h-9"/><text transform="translate(45.6 322.9)" stroke="none" fill="#000" font-family="Arial" font-size="12" text-anchor="end"><tspan>1.6</tspan></text></g><g fill="none" color="#000" stroke="currentColor"><path stroke="#000" d="M53.9 259.2h9m552.1 0h-9"/><text transform="translate(45.6 263.1)" stroke="none" fill="#000" font-family="Arial" font-size="12" text-anchor="end"><tspan>1.8</tspan></text></g><g fill="none" color="#000" stroke="currentColor"><path stroke="#000" d="M53.9 199.4h9m552.1 0h-9"/><text transform="translate(45.6 203.3)" stroke="none" fill="#000" font-family="Arial" font-size="12" text-anchor="end"><tspan>2</tspan></text></g><g fill="none" color="#000" stroke="currentColor"><path stroke="#000" d="M53.9 139.6h9m552.1 0h-9"/><text transform="translate(45.6 143.5)" stroke="none" fill="#000" font-family="Arial" font-size="12" text-anchor="end"><tspan>2.2</tspan></text></g><g fill="none" color="#000" stroke="currentColor"><path stroke="#000" d="M53.9 79.8h9m552.1 0h-9"/><text transform="translate(45.6 83.7)" stroke="none" fill="#000" font-family="Arial" font-size="12" text-anchor="end"><tspan>2.4</tspan></text></g><g fill="none" color="#000" stroke="currentColor"><path stroke="#000" d="M53.9 20h9M615 20h-9"/><text transform="translate(45.6 23.9)" stroke="none" fill="#000" font-family="Arial" font-size="12" text-anchor="end"><tspan>2.6</tspan></text></g><g fill="none" color="#000" stroke="currentColor"><path stroke="#000" d="M53.9 428v-9m0-400.9v9"/><text transform="translate(53.9 449.9)" stroke="none" fill="#000" font-family="Arial" font-size="12" text-anchor="middle"><tspan>0</tspan></text></g><g fill="none" color="#000" stroke="currentColor"><path stroke="#000" d="M110.6 428v-9m0-400.9v9"/><text transform="translate(110.6 449.9)" stroke="none" fill="#000" font-family="Arial" font-size="12" text-anchor="middle"><tspan>10</tspan></text></g><g fill="none" color="#000" stroke="currentColor"><path stroke="#000" d="M167.3 428v-9m0-400.9v9"/><text transform="translate(167.3 449.9)" stroke="none" fill="#000" font-family="Arial" font-size="12" text-anchor="middle"><tspan>20</tspan></text></g><g fill="none" color="#000" stroke="currentColor"><path stroke="#000" d="M223.9 428v-9m0-400.9v9"/><text transform="translate(223.9 449.9)" stroke="none" fill="#000" font-family="Arial" font-size="12" text-anchor="middle"><tspan>30</tspan></text></g><g fill="none" color="#000" stroke="currentColor"><path stroke="#000" d="M280.6 428v-9m0-400.9v9"/><text transform="translate(280.6 449.9)" stroke="none" fill="#000" font-family="Arial" font-size="12" text-anchor="middle"><tspan>40</tspan></text></g><g fill="none" color="#000" stroke="currentColor"><path stroke="#000" d="M337.3 428v-9m0-400.9v9"/><text transform="translate(337.3 449.9)" stroke="none" fill="#000" font-family="Arial" font-size="12" text-anchor="middle"><tspan>50</tspan></text></g><g fill="none" color="#000" stroke="currentColor"><path stroke="#000" d="M394 428v-9m0-400.9v9"/><text transform="translate(394 449.9)" stroke="none" fill="#000" font-family="Arial" font-size="12" text-anchor="middle"><tspan>60</tspan></text></g><g fill="none" color="#000" stroke="currentColor"><path stroke="#000" d="M450.6 428v-9m0-400.9v9"/><text transform="translate(450.6 449.9)" stroke="none" fill="#000" font-family="Arial" font-size="12" text-anchor="middle"><tspan>70</tspan></text></g><g fill="none" color="#000" stroke="currentColor"><path stroke="#000" d="M507.3 428v-9m0-400.9v9"/><text transform="translate(507.3 449.9)" stroke="none" fill="#000" font-family="Arial" font-size="12" text-anchor="middle"><tspan>80</tspan></text></g><g fill="none" color="#000" stroke="currentColor"><path stroke="#000" d="M564 428v-9m0-400.9v9"/><text transform="translate(564 449.9)" stroke="none" fill="#000" font-family="Arial" font-size="12" text-anchor="middle"><tspan>90</tspan></text></g><path stroke="#000" d="M53.9 18.1V428H615V18.1H53.9z" fill="none" color="#000"/><text transform="translate(508.4 467.9)" stroke="none" fill="#000" font-family="Arial" font-size="12" text-anchor="end" color="#000"><tspan>pages+cached+noexternal+nofonts+nosvg+noimg</tspan></text><path stroke="#9400D3" d="M516.7 464h42.2m-505-47.2l5.7-10.1 5.6-4.2 5.7-2.1 5.7-1.2 5.6-.9 5.7-2.7 5.7-1.5 5.6-.3 5.7-.3 5.7-.3 5.6-3.6 5.7-2.1 5.7-1.8 5.6-.3 5.7-1.5 5.7-.6 5.7-1.5 5.6-.6 5.7-4.4 5.7-4.5 5.6-2.7 5.7-3.3 5.7-5.1 5.6-.3 5.7-1.8 5.7-2.4 5.6-4.5 5.7-3 5.7-8 5.6-.9 5.7-2.7 5.7-1.2 5.6-4.2h5.7l5.7-3.3 5.6-1.8 5.7-11.3 5.7-.9 5.6-.6 5.7-1.8 5.7-.9 5.6-.9 5.7-2.7 5.7-2.7 5.6-.6 5.7-1.2 5.7-5.1 5.6-4.8 5.7-1.8 5.7-.6 5.7-.9 5.6-.3 5.7-1.8h5.7l5.6-1.8h5.7l5.7-2.6 5.6-1.5 5.7-1.2 5.7-.6h5.6l5.7-.6 5.7-.3 5.6-1.5 5.7-5.4 5.7-5.7h5.6l5.7-2.4 5.7-.6 5.6-2.7 5.7-1.2 5.7-3.3 5.6-4.1 5.7-3.9 5.7-2.7h5.6l5.7-9 5.7-.6 5.6-2.4 5.7-1.5 5.7-.3 5.6-5.7 5.7-4.4 5.7-3.3 5.7-1.5 5.6-4.5 5.7-1.5 5.7-1.5 5.6-2.4 5.7-8.7 5.7-4.8 5.6-38.5 5.7-5.7 5.7-2.4 5.6-.6 5.7-.6 5.7-8.7 5.6-29.9L615 26" fill="none" color="#000"/><text transform="translate(508.4 485.9)" stroke="none" fill="#000" font-family="Arial" font-size="12" text-anchor="end" color="#000"><tspan>pages+cached+noexternal+nofonts+nosvg+noimg+nocss</tspan></text><path stroke="#009E73" d="M516.7 482h42.2m-505-61.9l5.7-2.4 5.6-2.1 5.7-.9 5.7-1.8 5.6-2.7 5.7-.3 5.7-8.6 5.6-5.4 5.7-.3 5.7-3.3 5.6-.9 5.7-.3 5.7-4.5 5.6-.3 5.7-1.2 5.7-1.2 5.7-.9 5.6-.6h5.7l5.7-3.3 5.6-2.3 5.7-.9 5.7-2.4 5.6-3.9 5.7-1.5 5.7-.6 5.6-5.7 5.7-1.8 5.7-.6 5.6-.3 5.7-1.2 5.7-1.5 5.6-1.8 5.7-1.8 5.7-1.2 5.6-15.5 5.7-2.1 5.7-1.2 5.6-17.6 5.7-8.1h5.7l5.6-4.5 5.7-1.8h5.7l5.6-.9 5.7-4.8 5.7-1.8 5.6-2.1 5.7-.3 5.7-1.2 5.7-2.1 5.6-1.5 5.7-.3 5.7-.8h5.6l5.7-1.5 5.7-5.7 5.6-1.2 5.7-3 5.7-.9 5.6-4.5 5.7-1.2 5.7-1.8 5.6-1.5h5.7l5.7-2.4 5.6-1.5 5.7-5.6 5.7-4.2 5.6-.3 5.7-3 5.7-8.4 5.6-.3 5.7-3.6 5.7-3 5.6-1.5 5.7-.3 5.7-7.7 5.6-1.8 5.7-.3 5.7-1.5 5.6-2.7 5.7-3.9 5.7-3.3 5.7-3 5.6-3.9 5.7-16.7 5.7-8.1 5.6-1.8 5.7-1.2 5.7-2.4 5.6-9 5.7-21.2 5.7-1.2 5.6-1.5 5.7-7.5 5.7-2.3 5.6-65.2 5.7-30.8" fill="none" color="#000"/><g fill="none" color="#000" stroke="currentColor"><path stroke="#000" d="M53.9 18.1V428H615V18.1H53.9z"/></g></svg>