<svg width="640" height="500" xmlns="http://www.w3.org/2000/svg" xmlns:xlink="http://www.w3.org/1999/xlink"><path fill="#fff" d="M0 0h640v500H0z"/><defs><path id="d" stroke-width=".222" stroke="currentColor" d="M-1-1h2v2h-2z"/><path id="b" stroke-width=".222" stroke="currentColor" d="M0-1.33l-1.33 2h2.66z"/><path id="f" stroke-width=".222" stroke="currentColor" d="M0 1.33L1.265.411.782-1.067l-1.564-.009-.483 1.487z"/><use xlink:href="#b" id="c" stroke="currentColor" transform="rotate(180)"/><use xlink:href="#d" id="e" stroke="currentColor" transform="rotate(45)"/><circle id="a" stroke-width=".222" stroke="currentColor" cx="0" cy="0" r="1"/></defs><g fill="none" color="#000" stroke="currentColor"><path stroke="#000" d="M53.9 390.3h9m552.1 0h-9"/><text transform="translate(45.6 394.2)" stroke="none" fill="#000" font-family="Arial" font-size="12" text-anchor="end"><tspan>1.4</tspan></text></g><g fill="none" color="#000" stroke="currentColor"><path stroke="#000" d="M53.9 347.2h9m552.1 0h-9"/><text transform="translate(45.6 351.1)" stroke="none" fill="#000" font-family="Arial" font-size="12" text-anchor="end"><tspan>1.6</tspan></text></g><g fill="none" color="#000" stroke="currentColor"><path stroke="#000" d="M53.9 304h9m552.1 0h-9"/><text transform="translate(45.6 307.9)" stroke="none" fill="#000" font-family="Arial" font-size="12" text-anchor="end"><tspan>1.8</tspan></text></g><g fill="none" color="#000" stroke="currentColor"><path stroke="#000" d="M53.9 260.8h9m552.1 0h-9"/><text transform="translate(45.6 264.7)" stroke="none" fill="#000" font-family="Arial" font-size="12" text-anchor="end"><tspan>2</tspan></text></g><g fill="none" color="#000" stroke="currentColor"><path stroke="#000" d="M53.9 217.7h9m552.1 0h-9"/><text transform="translate(45.6 221.6)" stroke="none" fill="#000" font-family="Arial" font-size="12" text-anchor="end"><tspan>2.2</tspan></text></g><g fill="none" color="#000" stroke="currentColor"><path stroke="#000" d="M53.9 174.5h9m552.1 0h-9"/><text transform="translate(45.6 178.4)" stroke="none" fill="#000" font-family="Arial" font-size="12" text-anchor="end"><tspan>2.4</tspan></text></g><g fill="none" color="#000" stroke="currentColor"><path stroke="#000" d="M53.9 131.3h9m552.1 0h-9"/><text transform="translate(45.6 135.2)" stroke="none" fill="#000" font-family="Arial" font-size="12" text-anchor="end"><tspan>2.6</tspan></text></g><g fill="none" color="#000" stroke="currentColor"><path stroke="#000" d="M53.9 88.1h9m552.1 0h-9"/><text transform="translate(45.6 92)" stroke="none" fill="#000" font-family="Arial" font-size="12" text-anchor="end"><tspan>2.8</tspan></text></g><g fill="none" color="#000" stroke="currentColor"><path stroke="#000" d="M53.9 45h9M615 45h-9"/><text transform="translate(45.6 48.9)" stroke="none" fill="#000" font-family="Arial" font-size="12" text-anchor="end"><tspan>3</tspan></text></g><g fill="none" color="#000" stroke="currentColor"><path stroke="#000" d="M53.9 428v-9m0-400.9v9"/><text transform="translate(53.9 449.9)" stroke="none" fill="#000" font-family="Arial" font-size="12" text-anchor="middle"><tspan>0</tspan></text></g><g fill="none" color="#000" stroke="currentColor"><path stroke="#000" d="M110.6 428v-9m0-400.9v9"/><text transform="translate(110.6 449.9)" stroke="none" fill="#000" font-family="Arial" font-size="12" text-anchor="middle"><tspan>10</tspan></text></g><g fill="none" color="#000" stroke="currentColor"><path stroke="#000" d="M167.3 428v-9m0-400.9v9"/><text transform="translate(167.3 449.9)" stroke="none" fill="#000" font-family="Arial" font-size="12" text-anchor="middle"><tspan>20</tspan></text></g><g fill="none" color="#000" stroke="currentColor"><path stroke="#000" d="M223.9 428v-9m0-400.9v9"/><text transform="translate(223.9 449.9)" stroke="none" fill="#000" font-family="Arial" font-size="12" text-anchor="middle"><tspan>30</tspan></text></g><g fill="none" color="#000" stroke="currentColor"><path stroke="#000" d="M280.6 428v-9m0-400.9v9"/><text transform="translate(280.6 449.9)" stroke="none" fill="#000" font-family="Arial" font-size="12" text-anchor="middle"><tspan>40</tspan></text></g><g fill="none" color="#000" stroke="currentColor"><path stroke="#000" d="M337.3 428v-9m0-400.9v9"/><text transform="translate(337.3 449.9)" stroke="none" fill="#000" font-family="Arial" font-size="12" text-anchor="middle"><tspan>50</tspan></text></g><g fill="none" color="#000" stroke="currentColor"><path stroke="#000" d="M394 428v-9m0-400.9v9"/><text transform="translate(394 449.9)" stroke="none" fill="#000" font-family="Arial" font-size="12" text-anchor="middle"><tspan>60</tspan></text></g><g fill="none" color="#000" stroke="currentColor"><path stroke="#000" d="M450.6 428v-9m0-400.9v9"/><text transform="translate(450.6 449.9)" stroke="none" fill="#000" font-family="Arial" font-size="12" text-anchor="middle"><tspan>70</tspan></text></g><g fill="none" color="#000" stroke="currentColor"><path stroke="#000" d="M507.3 428v-9m0-400.9v9"/><text transform="translate(507.3 449.9)" stroke="none" fill="#000" font-family="Arial" font-size="12" text-anchor="middle"><tspan>80</tspan></text></g><g fill="none" color="#000" stroke="currentColor"><path stroke="#000" d="M564 428v-9m0-400.9v9"/><text transform="translate(564 449.9)" stroke="none" fill="#000" font-family="Arial" font-size="12" text-anchor="middle"><tspan>90</tspan></text></g><path stroke="#000" d="M53.9 18.1V428H615V18.1H53.9z" fill="none" color="#000"/><text transform="translate(529.1 467.9)" stroke="none" fill="#000" font-family="Arial" font-size="12" text-anchor="end" color="#000"><tspan>pages+cached+noexternal+nofonts+nosvg+noimg+nocss</tspan></text><path stroke="#9400D3" d="M537.4 464h42.2M53.9 420.1l5.7-1.7 5.6-1.5 5.7-.7 5.7-1.3 5.6-1.9 5.7-.2 5.7-6.3 5.6-3.9 5.7-.2 5.7-2.4 5.6-.6 5.7-.2 5.7-3.3 5.6-.2 5.7-.8 5.7-.9 5.7-.6 5.6-.5h5.7l5.7-2.4 5.6-1.7 5.7-.6 5.7-1.8 5.6-2.8 5.7-1 5.7-.5 5.6-4.1 5.7-1.3 5.7-.4 5.6-.2 5.7-.9 5.7-1.1 5.6-1.3 5.7-1.2 5.7-.9 5.6-11.2 5.7-1.5 5.7-.9 5.6-12.7 5.7-5.9h5.7l5.6-3.2 5.7-1.3h5.7l5.6-.7 5.7-3.4 5.7-1.3 5.6-1.5 5.7-.2 5.7-.9 5.7-1.5 5.6-1.1 5.7-.2 5.7-.6h5.6l5.7-1.1 5.7-4.1 5.6-.9 5.7-2.1 5.7-.7 5.6-3.2 5.7-.9 5.7-1.3 5.6-1.1h5.7l5.7-1.7 5.6-1.1 5.7-4.1 5.7-3 5.6-.2 5.7-2.2 5.7-6 5.6-.2 5.7-2.6 5.7-2.2 5.6-1.1 5.7-.2 5.7-5.6 5.6-1.3 5.7-.2 5.7-1.1 5.6-1.9 5.7-2.8 5.7-2.4 5.7-2.2 5.6-2.8 5.7-12.1 5.7-5.8 5.6-1.3 5.7-.8 5.7-1.8 5.6-6.4 5.7-15.4 5.7-.8 5.6-1.1 5.7-5.4 5.7-1.7 5.6-47.1 5.7-22.2" fill="none" color="#000"/><text transform="translate(529.1 485.9)" stroke="none" fill="#000" font-family="Arial" font-size="12" text-anchor="end" color="#000"><tspan>pages+cached+noexternal+nofonts+nosvg+noimg+nocss+nojs</tspan></text><path stroke="#009E73" d="M537.4 482h42.2M53.9 418.8l5.7-.6 5.6-1.5 5.7-6.7 5.7-.5 5.6-.2 5.7-.2h5.7l5.6-1.1 5.7-.6 5.7-1.1 5.6-2.6 5.7-.4 5.7-2h5.6l5.7-.4h5.7l5.7-.9 5.6-.8 5.7-.5 5.7-.4h5.6l5.7-.2 5.7-.4 5.6-.5 5.7-.6h5.7l5.6-.9 5.7-.8 5.7-.9 5.6-1.1 5.7-2.8 5.7-.2 5.6-.9 5.7-.4 5.7-1.7 5.6-3.5 5.7-1.1 5.7-.2 5.6-2.1 5.7-6.3 5.7-.6 5.6-1.1 5.7-.2 5.7-1.5 5.6-5.7 5.7-1 5.7-2 5.6-4.1 5.7-3 5.7-1.9 5.7-6.9 5.6-.9 5.7-.7 5.7-1 5.6-1.3 5.7-2.6 5.7-.5 5.6-4.9 5.7-1.1 5.7-3.2 5.6-1.1 5.7-1.5 5.7-.7 5.6-.8 5.7-1.3 5.7-7.6 5.6-.2 5.7-1.7 5.7-1.5 5.6-.5 5.7-1.7 5.7-.9 5.6-.4 5.7-1.1 5.7-2.6 5.6-2.8 5.7-.8 5.7-1.3 5.6-3.7 5.7-1.1h5.7l5.6-.6 5.7-1.1 5.7-1.1 5.7-4.1 5.6-17.9 5.7-2.4 5.7-7.7 5.6-11.5 5.7-.4 5.7-14 5.6-12.6 5.7-4.3 5.7-5.4 5.6-7.3 5.7-9.3 5.7-23.3 5.6-18.6L615 26" fill="none" color="#000"/><g fill="none" color="#000" stroke="currentColor"><path stroke="#000" d="M53.9 18.1V428H615V18.1H53.9z"/></g></svg>