<svg width="640" height="490" xmlns="http://www.w3.org/2000/svg" xmlns:xlink="http://www.w3.org/1999/xlink"><path fill="#fff" d="M0 0h640v490H0z"/><defs><path id="d" stroke-width=".222" stroke="currentColor" d="M-1-1h2v2h-2z"/><path id="b" stroke-width=".222" stroke="currentColor" d="M0-1.33l-1.33 2h2.66z"/><path id="f" stroke-width=".222" stroke="currentColor" d="M0 1.33L1.265.411.782-1.067l-1.564-.009-.483 1.487z"/><use xlink:href="#b" id="c" stroke="currentColor" transform="rotate(180)"/><use xlink:href="#d" id="e" stroke="currentColor" transform="rotate(45)"/><circle id="a" stroke-width=".222" stroke="currentColor" cx="0" cy="0" r="1"/></defs><g fill="none" color="#000" stroke="currentColor"><path stroke="#000" d="M70.5 397.1h9m535.5 0h-9"/><text transform="translate(62.2 401)" stroke="none" fill="#000" font-family="Arial" font-size="12" text-anchor="end"><tspan>0.211</tspan></text></g><g fill="none" color="#000" stroke="currentColor"><path stroke="#000" d="M70.5 323h9m535.5 0h-9"/><text transform="translate(62.2 326.9)" stroke="none" fill="#000" font-family="Arial" font-size="12" text-anchor="end"><tspan>0.212</tspan></text></g><g fill="none" color="#000" stroke="currentColor"><path stroke="#000" d="M70.5 248.9h9m535.5 0h-9"/><text transform="translate(62.2 252.8)" stroke="none" fill="#000" font-family="Arial" font-size="12" text-anchor="end"><tspan>0.213</tspan></text></g><g fill="none" color="#000" stroke="currentColor"><path stroke="#000" d="M70.5 174.8h9m535.5 0h-9"/><text transform="translate(62.2 178.7)" stroke="none" fill="#000" font-family="Arial" font-size="12" text-anchor="end"><tspan>0.214</tspan></text></g><g fill="none" color="#000" stroke="currentColor"><path stroke="#000" d="M70.5 100.7h9m535.5 0h-9"/><text transform="translate(62.2 104.6)" stroke="none" fill="#000" font-family="Arial" font-size="12" text-anchor="end"><tspan>0.215</tspan></text></g><g fill="none" color="#000" stroke="currentColor"><path stroke="#000" d="M70.5 26.6h9m535.5 0h-9"/><text transform="translate(62.2 30.5)" stroke="none" fill="#000" font-family="Arial" font-size="12" text-anchor="end"><tspan>0.216</tspan></text></g><g fill="none" color="#000" stroke="currentColor"><path stroke="#000" d="M70.5 436v-9m0-408.9v9"/><text transform="translate(70.5 457.9)" stroke="none" fill="#000" font-family="Arial" font-size="12" text-anchor="middle"><tspan>0</tspan></text></g><g fill="none" color="#000" stroke="currentColor"><path stroke="#000" d="M125.5 436v-9m0-408.9v9"/><text transform="translate(125.5 457.9)" stroke="none" fill="#000" font-family="Arial" font-size="12" text-anchor="middle"><tspan>10</tspan></text></g><g fill="none" color="#000" stroke="currentColor"><path stroke="#000" d="M180.5 436v-9m0-408.9v9"/><text transform="translate(180.5 457.9)" stroke="none" fill="#000" font-family="Arial" font-size="12" text-anchor="middle"><tspan>20</tspan></text></g><g fill="none" color="#000" stroke="currentColor"><path stroke="#000" d="M235.5 436v-9m0-408.9v9"/><text transform="translate(235.5 457.9)" stroke="none" fill="#000" font-family="Arial" font-size="12" text-anchor="middle"><tspan>30</tspan></text></g><g fill="none" color="#000" stroke="currentColor"><path stroke="#000" d="M290.5 436v-9m0-408.9v9"/><text transform="translate(290.5 457.9)" stroke="none" fill="#000" font-family="Arial" font-size="12" text-anchor="middle"><tspan>40</tspan></text></g><g fill="none" color="#000" stroke="currentColor"><path stroke="#000" d="M345.5 436v-9m0-408.9v9"/><text transform="translate(345.5 457.9)" stroke="none" fill="#000" font-family="Arial" font-size="12" text-anchor="middle"><tspan>50</tspan></text></g><g fill="none" color="#000" stroke="currentColor"><path stroke="#000" d="M400.5 436v-9m0-408.9v9"/><text transform="translate(400.5 457.9)" stroke="none" fill="#000" font-family="Arial" font-size="12" text-anchor="middle"><tspan>60</tspan></text></g><g fill="none" color="#000" stroke="currentColor"><path stroke="#000" d="M455.5 436v-9m0-408.9v9"/><text transform="translate(455.5 457.9)" stroke="none" fill="#000" font-family="Arial" font-size="12" text-anchor="middle"><tspan>70</tspan></text></g><g fill="none" color="#000" stroke="currentColor"><path stroke="#000" d="M510.5 436v-9m0-408.9v9"/><text transform="translate(510.5 457.9)" stroke="none" fill="#000" font-family="Arial" font-size="12" text-anchor="middle"><tspan>80</tspan></text></g><g fill="none" color="#000" stroke="currentColor"><path stroke="#000" d="M565.5 436v-9m0-408.9v9"/><text transform="translate(565.5 457.9)" stroke="none" fill="#000" font-family="Arial" font-size="12" text-anchor="middle"><tspan>90</tspan></text></g><path stroke="#000" d="M70.5 18.1V436H615V18.1H70.5z" fill="none" color="#000"/><text transform="translate(334.1 475.9)" stroke="none" fill="#000" font-family="Arial" font-size="12" text-anchor="end" color="#000"><tspan>score</tspan></text><path stroke="#9400D3" d="M342.4 472h42.2M70.5 251.8L76 129.6l5.5 178.1 5.5-77.1 5.5 16.8 5.5-92.9 5.5 23.3 5.5-32.4 5.5 11.2 5.5 205.3 5.5-131.1 5.5 8.8 5.5-62.3 5.5 55.6 5.5-76.8 5.5-14.4 5.5 114.4 5.5-129.3 5.5 6.1 5.5 76.2 5.5-70.2h5.5l5.5-8.4 5.5 70.9 5.5-84.6 5.5 10.4 5.5 3.7 5.5-26.7 5.5 41.1 5.5-1.1 5.5 110.1 5.5-93 5.5-20.4 5.5 42 5.5-33 5.5-19.1 5.5 43.9 5.5-9 5.5 77.7 5.5-80 5.5-13.7 5.5 98.7 5.5-117.6 5.5 123.4 5.5-120.5 5.5 21.2 5.5.3 5.5 2.3 5.5.9 5.5-7.1 5.5.8 5.5 3.5 5.5 14.3 5.5-68.7 5.5 65 5.5-7.5 5.5 79.5 5.5-9.8 5.5-92.3 5.5 2.9 5.5 22.1 5.5 71.3 5.5-79.9 5.5-60.3 5.5 17 5.5 17.4 5.5 32.4 5.5-42.5 5.5 91.3 5.5-39.2 5.5 89.1 5.5-10.8 5.5-91.3 5.5 39.7 5.5-91L483 156l5.5-9.8 5.5-12.9 5.5-11 5.5 2.3 5.5 50.7 5.5-56.9 5.5 107 5.5-72.9 5.5-24.5 5.5 167.5 5.5-134.8 5.5 43 5.5-56 5.5 33.9 5.5-49.2 5.5 46.9 5.5-25.7 5.5-8.5 5.5-15.6 5.5 95.1 5.5-113.5 5.5 34.8 5.5 3.7 5.5 21" fill="none" color="#000"/><g fill="none" color="#000" stroke="currentColor"><path stroke="#000" d="M70.5 18.1V436H615V18.1H70.5z"/></g></svg>