<svg width="640" height="620" xmlns="http://www.w3.org/2000/svg" xmlns:xlink="http://www.w3.org/1999/xlink"><path fill="#fff" d="M0 0h640v620H0z"/><defs><path id="d" stroke-width=".222" stroke="currentColor" d="M-1-1h2v2h-2z"/><path id="b" stroke-width=".222" stroke="currentColor" d="M0-1.33l-1.33 2h2.66z"/><path id="f" stroke-width=".222" stroke="currentColor" d="M0 1.33L1.265.411.782-1.067l-1.564-.009-.483 1.487z"/><use xlink:href="#b" id="c" stroke="currentColor" transform="rotate(180)"/><use xlink:href="#d" id="e" stroke="currentColor" transform="rotate(45)"/><circle id="a" stroke-width=".222" stroke="currentColor" cx="0" cy="0" r="1"/></defs><g fill="none" color="#000" stroke="currentColor"><path stroke="#000" d="M53.9 332h9m552.1 0h-9"/><text transform="translate(45.6 335.9)" stroke="none" fill="#000" font-family="Arial" font-size="12" text-anchor="end"><tspan>0</tspan></text></g><g fill="none" color="#000" stroke="currentColor"><path stroke="#000" d="M53.9 269.2h9m552.1 0h-9"/><text transform="translate(45.6 273.1)" stroke="none" fill="#000" font-family="Arial" font-size="12" text-anchor="end"><tspan>20</tspan></text></g><g fill="none" color="#000" stroke="currentColor"><path stroke="#000" d="M53.9 206.4h9m552.1 0h-9"/><text transform="translate(45.6 210.3)" stroke="none" fill="#000" font-family="Arial" font-size="12" text-anchor="end"><tspan>40</tspan></text></g><g fill="none" color="#000" stroke="currentColor"><path stroke="#000" d="M53.9 143.7h9m552.1 0h-9"/><text transform="translate(45.6 147.6)" stroke="none" fill="#000" font-family="Arial" font-size="12" text-anchor="end"><tspan>60</tspan></text></g><g fill="none" color="#000" stroke="currentColor"><path stroke="#000" d="M53.9 80.9h9m552.1 0h-9"/><text transform="translate(45.6 84.8)" stroke="none" fill="#000" font-family="Arial" font-size="12" text-anchor="end"><tspan>80</tspan></text></g><g fill="none" color="#000" stroke="currentColor"><path stroke="#000" d="M53.9 18.1h9m552.1 0h-9"/><text transform="translate(45.6 22)" stroke="none" fill="#000" font-family="Arial" font-size="12" text-anchor="end"><tspan>100</tspan></text></g><g fill="none" color="#000" stroke="currentColor"><path stroke="#000" d="M119.2 332v-9m0-304.9v9"/><text transform="translate(119.2 353.9)" stroke="none" fill="#000" font-family="Arial" font-size="12" text-anchor="middle"><tspan>0.9</tspan></text></g><g fill="none" color="#000" stroke="currentColor"><path stroke="#000" d="M218.4 332v-9m0-304.9v9"/><text transform="translate(218.4 353.9)" stroke="none" fill="#000" font-family="Arial" font-size="12" text-anchor="middle"><tspan>0.92</tspan></text></g><g fill="none" color="#000" stroke="currentColor"><path stroke="#000" d="M317.5 332v-9m0-304.9v9"/><text transform="translate(317.5 353.9)" stroke="none" fill="#000" font-family="Arial" font-size="12" text-anchor="middle"><tspan>0.94</tspan></text></g><g fill="none" color="#000" stroke="currentColor"><path stroke="#000" d="M416.7 332v-9m0-304.9v9"/><text transform="translate(416.7 353.9)" stroke="none" fill="#000" font-family="Arial" font-size="12" text-anchor="middle"><tspan>0.96</tspan></text></g><g fill="none" color="#000" stroke="currentColor"><path stroke="#000" d="M515.9 332v-9m0-304.9v9"/><text transform="translate(515.9 353.9)" stroke="none" fill="#000" font-family="Arial" font-size="12" text-anchor="middle"><tspan>0.98</tspan></text></g><g fill="none" color="#000" stroke="currentColor"><path stroke="#000" d="M615 332v-9m0-304.9v9"/><text transform="translate(615 353.9)" stroke="none" fill="#000" font-family="Arial" font-size="12" text-anchor="middle"><tspan>1</tspan></text></g><path stroke="#000" d="M53.9 18.1V332H615V18.1H53.9z" fill="none" color="#000"/><text transform="translate(529.1 371.9)" stroke="none" fill="#000" font-family="Arial" font-size="12" text-anchor="end" color="#000"><tspan>empty</tspan></text><g stroke="none" shape-rendering="geometricPrecision" fill="#9400D3" fill-opacity=".5" color="#000"><path d="M537.4 372.5h42.2v-9h-42.2zM463.6 332h151.5V18H463.6z"/></g><text transform="translate(529.1 389.9)" stroke="none" fill="#000" font-family="Arial" font-size="12" text-anchor="end" color="#000"><tspan>pages</tspan></text><g stroke="none" shape-rendering="crispEdges" fill="#009E73" fill-opacity=".5" color="#000"><path d="M537.4 390.5h42.2v-9h-42.2zM53.9 332h60.2v-3.2H53.9zM288.8 332h174.9V36.8H288.8z"/><path d="M114 332h174.9v-15.8H114z"/></g><text transform="translate(529.1 407.9)" stroke="none" fill="#000" font-family="Arial" font-size="12" text-anchor="end" color="#000"><tspan>pages+cached</tspan></text><g stroke="none" shape-rendering="crispEdges" fill="#56B4E9" fill-opacity=".5" color="#000"><path d="M537.4 408.5h42.2v-9h-42.2zM288.8 332h174.9V99.6H288.8z"/><path d="M114 332h174.9v-81.7H114z"/></g><text transform="translate(529.1 425.9)" stroke="none" fill="#000" font-family="Arial" font-size="12" text-anchor="end" color="#000"><tspan>pages+cached+nointeractive</tspan></text><g stroke="none" shape-rendering="crispEdges" fill="#E69F00" fill-opacity=".5" color="#000"><path d="M537.4 426.5h42.2v-9h-42.2zM288.8 332h174.9V215.8H288.8z"/><path d="M114 332h174.9V134.1H114z"/></g><text transform="translate(529.1 443.9)" stroke="none" fill="#000" font-family="Arial" font-size="12" text-anchor="end" color="#000"><tspan>pages+cached+noadtech</tspan></text><g stroke="none" shape-rendering="crispEdges" fill="#F0E442" fill-opacity=".5" color="#000"><path d="M537.4 444.5h42.2v-9h-42.2zM288.8 332h174.9V131H288.8z"/><path d="M463.6 332h151.5V218.9H463.6z"/></g><text transform="translate(529.1 461.9)" stroke="none" fill="#000" font-family="Arial" font-size="12" text-anchor="end" color="#000"><tspan>pages+cached+noexternal</tspan></text><g stroke="none" shape-rendering="crispEdges" fill="#0072B2" fill-opacity=".5" color="#000"><path d="M537.4 462.5h42.2v-9h-42.2zM463.6 332h151.5V193.8H463.6z"/><path d="M288.8 332h174.9V156.1H288.8z"/></g><text transform="translate(529.1 479.9)" stroke="none" fill="#000" font-family="Arial" font-size="12" text-anchor="end" color="#000"><tspan>pages+cached+noexternal+nofonts</tspan></text><g stroke="none" shape-rendering="crispEdges" fill="#E51E10" fill-opacity=".5" color="#000"><path d="M537.4 480.5h42.2v-9h-42.2zM463.6 332h151.5V96.5H463.6z"/><path d="M288.8 332h174.9v-56.6H288.8z"/><path d="M114 332h174.9v-22.1H114z"/></g><g><text transform="translate(529.1 497.9)" stroke="none" fill="#000" font-family="Arial" font-size="12" text-anchor="end" color="#000"><tspan>pages+cached+noexternal+nosvg</tspan></text><g stroke="none" shape-rendering="crispEdges" fill="#000" fill-opacity=".5" color="#000"><path d="M537.4 498.5h42.2v-9h-42.2zM463.6 332h151.5V46.3H463.6z"/><path d="M288.8 332h174.9v-28.4H288.8z"/></g></g><g><text transform="translate(529.1 515.9)" stroke="none" fill="#000" font-family="Arial" font-size="12" text-anchor="end" color="#000"><tspan>pages+cached+noexternal+noimg</tspan></text><g stroke="none" shape-rendering="crispEdges" fill="#9400D3" fill-opacity=".5" color="#000"><path d="M537.4 516.5h42.2v-9h-42.2zM463.6 332h151.5V222H463.6z"/><path d="M288.8 332h174.9V127.9H288.8z"/></g></g><g><text transform="translate(529.1 533.9)" stroke="none" fill="#000" font-family="Arial" font-size="12" text-anchor="end" color="#000"><tspan>pages+cached+noexternal+nocss</tspan></text><g stroke="none" shape-rendering="crispEdges" fill="#009E73" fill-opacity=".5" color="#000"><path d="M537.4 534.5h42.2v-9h-42.2zM463.6 332h151.5V18H463.6z"/></g></g><g><text transform="translate(529.1 551.9)" stroke="none" fill="#000" font-family="Arial" font-size="12" text-anchor="end" color="#000"><tspan>pages+cached+noexternal+nojs</tspan></text><g stroke="none" shape-rendering="crispEdges" fill="#56B4E9" fill-opacity=".5" color="#000"><path d="M537.4 552.5h42.2v-9h-42.2zM463.6 332h151.5V18H463.6z"/></g></g><g><text transform="translate(529.1 569.9)" stroke="none" fill="#000" font-family="Arial" font-size="12" text-anchor="end" color="#000"><tspan>pages+cached+noexternal+nofonts+nosvg+noimg</tspan></text><g stroke="none" shape-rendering="crispEdges" fill="#E69F00" fill-opacity=".5" color="#000"><path d="M537.4 570.5h42.2v-9h-42.2zM463.6 332h151.5V68.2H463.6z"/><path d="M288.8 332h174.9v-50.3H288.8z"/></g></g><g><text transform="translate(529.1 587.9)" stroke="none" fill="#000" font-family="Arial" font-size="12" text-anchor="end" color="#000"><tspan>pages+cached+noexternal+nofonts+nosvg+noimg+nocss</tspan></text><g stroke="none" shape-rendering="crispEdges" fill="#F0E442" fill-opacity=".5" color="#000"><path d="M537.4 588.5h42.2v-9h-42.2zM463.6 332h151.5V18H463.6z"/></g></g><g><text transform="translate(529.1 605.9)" stroke="none" fill="#000" font-family="Arial" font-size="12" text-anchor="end" color="#000"><tspan>pages+cached+noexternal+nofonts+nosvg+noimg+nocss+nojs</tspan></text><g stroke="none" shape-rendering="crispEdges" fill="#0072B2" fill-opacity=".5" color="#000"><path d="M537.4 606.5h42.2v-9h-42.2zM463.6 332h151.5V18H463.6z"/></g></g><g fill="none" color="#000" stroke="currentColor"><path stroke="#000" d="M53.9 18.1V332H615V18.1H53.9z"/></g></svg>