<svg width="640" height="490" xmlns="http://www.w3.org/2000/svg" xmlns:xlink="http://www.w3.org/1999/xlink"><path fill="#fff" d="M0 0h640v490H0z"/><defs><path id="d" stroke-width=".222" stroke="currentColor" d="M-1-1h2v2h-2z"/><path id="b" stroke-width=".222" stroke="currentColor" d="M0-1.33l-1.33 2h2.66z"/><path id="f" stroke-width=".222" stroke="currentColor" d="M0 1.33L1.265.411.782-1.067l-1.564-.009-.483 1.487z"/><use xlink:href="#b" id="c" stroke="currentColor" transform="rotate(180)"/><use xlink:href="#d" id="e" stroke="currentColor" transform="rotate(45)"/><circle id="a" stroke-width=".222" stroke="currentColor" cx="0" cy="0" r="1"/></defs><g fill="none" color="#000" stroke="currentColor"><path stroke="#000" d="M62.2 397.2h9m543.8 0h-9"/><text transform="translate(53.9 401.1)" stroke="none" fill="#000" font-family="Arial" font-size="12" text-anchor="end"><tspan>1760</tspan></text></g><g fill="none" color="#000" stroke="currentColor"><path stroke="#000" d="M62.2 341h9m543.8 0h-9"/><text transform="translate(53.9 344.9)" stroke="none" fill="#000" font-family="Arial" font-size="12" text-anchor="end"><tspan>1780</tspan></text></g><g fill="none" color="#000" stroke="currentColor"><path stroke="#000" d="M62.2 284.8h9m543.8 0h-9"/><text transform="translate(53.9 288.7)" stroke="none" fill="#000" font-family="Arial" font-size="12" text-anchor="end"><tspan>1800</tspan></text></g><g fill="none" color="#000" stroke="currentColor"><path stroke="#000" d="M62.2 228.6h9m543.8 0h-9"/><text transform="translate(53.9 232.5)" stroke="none" fill="#000" font-family="Arial" font-size="12" text-anchor="end"><tspan>1820</tspan></text></g><g fill="none" color="#000" stroke="currentColor"><path stroke="#000" d="M62.2 172.5h9m543.8 0h-9"/><text transform="translate(53.9 176.4)" stroke="none" fill="#000" font-family="Arial" font-size="12" text-anchor="end"><tspan>1840</tspan></text></g><g fill="none" color="#000" stroke="currentColor"><path stroke="#000" d="M62.2 116.3h9m543.8 0h-9"/><text transform="translate(53.9 120.2)" stroke="none" fill="#000" font-family="Arial" font-size="12" text-anchor="end"><tspan>1860</tspan></text></g><g fill="none" color="#000" stroke="currentColor"><path stroke="#000" d="M62.2 60.1h9m543.8 0h-9"/><text transform="translate(53.9 64)" stroke="none" fill="#000" font-family="Arial" font-size="12" text-anchor="end"><tspan>1880</tspan></text></g><g fill="none" color="#000" stroke="currentColor"><path stroke="#000" d="M62.2 436v-9m0-408.9v9"/><text transform="translate(62.2 457.9)" stroke="none" fill="#000" font-family="Arial" font-size="12" text-anchor="middle"><tspan>0</tspan></text></g><g fill="none" color="#000" stroke="currentColor"><path stroke="#000" d="M118 436v-9m0-408.9v9"/><text transform="translate(118 457.9)" stroke="none" fill="#000" font-family="Arial" font-size="12" text-anchor="middle"><tspan>10</tspan></text></g><g fill="none" color="#000" stroke="currentColor"><path stroke="#000" d="M173.9 436v-9m0-408.9v9"/><text transform="translate(173.9 457.9)" stroke="none" fill="#000" font-family="Arial" font-size="12" text-anchor="middle"><tspan>20</tspan></text></g><g fill="none" color="#000" stroke="currentColor"><path stroke="#000" d="M229.7 436v-9m0-408.9v9"/><text transform="translate(229.7 457.9)" stroke="none" fill="#000" font-family="Arial" font-size="12" text-anchor="middle"><tspan>30</tspan></text></g><g fill="none" color="#000" stroke="currentColor"><path stroke="#000" d="M285.6 436v-9m0-408.9v9"/><text transform="translate(285.6 457.9)" stroke="none" fill="#000" font-family="Arial" font-size="12" text-anchor="middle"><tspan>40</tspan></text></g><g fill="none" color="#000" stroke="currentColor"><path stroke="#000" d="M341.4 436v-9m0-408.9v9"/><text transform="translate(341.4 457.9)" stroke="none" fill="#000" font-family="Arial" font-size="12" text-anchor="middle"><tspan>50</tspan></text></g><g fill="none" color="#000" stroke="currentColor"><path stroke="#000" d="M397.2 436v-9m0-408.9v9"/><text transform="translate(397.2 457.9)" stroke="none" fill="#000" font-family="Arial" font-size="12" text-anchor="middle"><tspan>60</tspan></text></g><g fill="none" color="#000" stroke="currentColor"><path stroke="#000" d="M453.1 436v-9m0-408.9v9"/><text transform="translate(453.1 457.9)" stroke="none" fill="#000" font-family="Arial" font-size="12" text-anchor="middle"><tspan>70</tspan></text></g><g fill="none" color="#000" stroke="currentColor"><path stroke="#000" d="M508.9 436v-9m0-408.9v9"/><text transform="translate(508.9 457.9)" stroke="none" fill="#000" font-family="Arial" font-size="12" text-anchor="middle"><tspan>80</tspan></text></g><g fill="none" color="#000" stroke="currentColor"><path stroke="#000" d="M564.7 436v-9m0-408.9v9"/><text transform="translate(564.7 457.9)" stroke="none" fill="#000" font-family="Arial" font-size="12" text-anchor="middle"><tspan>90</tspan></text></g><path stroke="#000" d="M62.2 18.1V436H615V18.1H62.2z" fill="none" color="#000"/><text transform="translate(179.8 475.9)" stroke="none" fill="#000" font-family="Arial" font-size="12" text-anchor="end" color="#000"><tspan>raw</tspan></text><path stroke="#9400D3" d="M188.1 472h42.2M62.2 181.8l5.6 119.3L73.4 79 79 285.9l5.5-45.3 5.6 3.7 5.6-35.8 5.6 94.8 5.6-180.9 5.6 9.6 5.5 127.7 5.6 79.2 5.6-158.9 5.6 123.9 5.6-17.7 5.6.9 5.5-33.8 5.6 10.1 5.6-39.6 5.6 95.1 5.6-72.5 5.6 74 5.5.6 5.6-1.6 5.6-293.3 5.6 300.7 5.6 101.2 5.6-79.3 5.5-71.5 5.6-54.1 5.6 14.9 5.6 92.8 5.6-99.7 5.6 102 5.6 71.5 5.5-143.5 5.6-95.3 5.6 142.5 5.6-74.8 5.6 71.7 5.6 40.8 5.5-119.3 5.6 10.3 5.6-124.5 5.6 205.4 5.6-60.7 5.6 47.6 5.5 25.2 5.6-118.1 5.6-32 5.6 148.2 5.6 13.1 5.6-79.2 5.5 20.9 5.6-49.7 5.6-5.3 5.6-71.2 5.6 167.6 5.6-23.8 5.5-137.4 5.6 65.8 5.6 33.2 5.6 48.2 5.6-83 5.6-65.7 5.5 12 5.6 78.6 5.6-52 5.6-15.6 5.6-52.6 5.6-7 5.6 148.1 5.5-105.5 5.6-34.2 5.6 60.7 5.6 118.8 5.6-13.8 5.6-99 5.5 43.2 5.6-15.4 5.6-49.3 5.6 84 5.6-11.1 5.6-54.4 5.5 192.7 5.6-156 5.6-39 5.6-70.7 5.6 156.6 5.6-86.3 5.5 83.8 5.6 11.2 5.6-48.9 5.6-33.5 5.6-25.6 5.6 166.8 5.5-108.1 5.6 22.7 5.6-24.5 5.6-62.6" fill="none" color="#000"/><text transform="translate(379.7 475.9)" stroke="none" fill="#000" font-family="Arial" font-size="12" text-anchor="end" color="#000"><tspan>score p10=2017</tspan></text><path stroke="#009E73" d="M388 472h42.2" fill="none" color="#000"/><text transform="translate(579.6 475.9)" stroke="none" fill="#000" font-family="Arial" font-size="12" text-anchor="end" color="#000"><tspan>score median=4000</tspan></text><path stroke="#56B4E9" d="M587.9 472h42.2" fill="none" color="#000"/><g fill="none" color="#000" stroke="currentColor"><path stroke="#000" d="M62.2 18.1V436H615V18.1H62.2z"/></g></svg>