<svg width="640" height="620" xmlns="http://www.w3.org/2000/svg" xmlns:xlink="http://www.w3.org/1999/xlink"><path fill="#fff" d="M0 0h640v620H0z"/><defs><path id="d" stroke-width=".222" stroke="currentColor" d="M-1-1h2v2h-2z"/><path id="b" stroke-width=".222" stroke="currentColor" d="M0-1.33l-1.33 2h2.66z"/><path id="f" stroke-width=".222" stroke="currentColor" d="M0 1.33L1.265.411.782-1.067l-1.564-.009-.483 1.487z"/><use xlink:href="#b" id="c" stroke="currentColor" transform="rotate(180)"/><use xlink:href="#d" id="e" stroke="currentColor" transform="rotate(45)"/><circle id="a" stroke-width=".222" stroke="currentColor" cx="0" cy="0" r="1"/></defs><g fill="none" color="#000" stroke="currentColor"><path stroke="#000" d="M53.9 332h9m552.1 0h-9"/><text transform="translate(45.6 335.9)" stroke="none" fill="#000" font-family="Arial" font-size="12" text-anchor="end"><tspan>0</tspan></text></g><g fill="none" color="#000" stroke="currentColor"><path stroke="#000" d="M53.9 269.2h9m552.1 0h-9"/><text transform="translate(45.6 273.1)" stroke="none" fill="#000" font-family="Arial" font-size="12" text-anchor="end"><tspan>20</tspan></text></g><g fill="none" color="#000" stroke="currentColor"><path stroke="#000" d="M53.9 206.4h9m552.1 0h-9"/><text transform="translate(45.6 210.3)" stroke="none" fill="#000" font-family="Arial" font-size="12" text-anchor="end"><tspan>40</tspan></text></g><g fill="none" color="#000" stroke="currentColor"><path stroke="#000" d="M53.9 143.7h9m552.1 0h-9"/><text transform="translate(45.6 147.6)" stroke="none" fill="#000" font-family="Arial" font-size="12" text-anchor="end"><tspan>60</tspan></text></g><g fill="none" color="#000" stroke="currentColor"><path stroke="#000" d="M53.9 80.9h9m552.1 0h-9"/><text transform="translate(45.6 84.8)" stroke="none" fill="#000" font-family="Arial" font-size="12" text-anchor="end"><tspan>80</tspan></text></g><g fill="none" color="#000" stroke="currentColor"><path stroke="#000" d="M53.9 18.1h9m552.1 0h-9"/><text transform="translate(45.6 22)" stroke="none" fill="#000" font-family="Arial" font-size="12" text-anchor="end"><tspan>100</tspan></text></g><g fill="none" color="#000" stroke="currentColor"><path stroke="#000" d="M112.7 332v-9m0-304.9v9"/><text transform="translate(112.7 353.9)" stroke="none" fill="#000" font-family="Arial" font-size="12" text-anchor="middle"><tspan>100</tspan></text></g><g fill="none" color="#000" stroke="currentColor"><path stroke="#000" d="M172.2 332v-9m0-304.9v9"/><text transform="translate(172.2 353.9)" stroke="none" fill="#000" font-family="Arial" font-size="12" text-anchor="middle"><tspan>200</tspan></text></g><g fill="none" color="#000" stroke="currentColor"><path stroke="#000" d="M231.6 332v-9m0-304.9v9"/><text transform="translate(231.6 353.9)" stroke="none" fill="#000" font-family="Arial" font-size="12" text-anchor="middle"><tspan>300</tspan></text></g><g fill="none" color="#000" stroke="currentColor"><path stroke="#000" d="M291 332v-9m0-304.9v9"/><text transform="translate(291 353.9)" stroke="none" fill="#000" font-family="Arial" font-size="12" text-anchor="middle"><tspan>400</tspan></text></g><g fill="none" color="#000" stroke="currentColor"><path stroke="#000" d="M350.5 332v-9m0-304.9v9"/><text transform="translate(350.5 353.9)" stroke="none" fill="#000" font-family="Arial" font-size="12" text-anchor="middle"><tspan>500</tspan></text></g><g fill="none" color="#000" stroke="currentColor"><path stroke="#000" d="M409.9 332v-9m0-304.9v9"/><text transform="translate(409.9 353.9)" stroke="none" fill="#000" font-family="Arial" font-size="12" text-anchor="middle"><tspan>600</tspan></text></g><g fill="none" color="#000" stroke="currentColor"><path stroke="#000" d="M469.4 332v-9m0-304.9v9"/><text transform="translate(469.4 353.9)" stroke="none" fill="#000" font-family="Arial" font-size="12" text-anchor="middle"><tspan>700</tspan></text></g><g fill="none" color="#000" stroke="currentColor"><path stroke="#000" d="M528.8 332v-9m0-304.9v9"/><text transform="translate(528.8 353.9)" stroke="none" fill="#000" font-family="Arial" font-size="12" text-anchor="middle"><tspan>800</tspan></text></g><g fill="none" color="#000" stroke="currentColor"><path stroke="#000" d="M588.2 332v-9m0-304.9v9"/><text transform="translate(588.2 353.9)" stroke="none" fill="#000" font-family="Arial" font-size="12" text-anchor="middle"><tspan>900</tspan></text></g><path stroke="#000" d="M53.9 18.1V332H615V18.1H53.9z" fill="none" color="#000"/><text transform="translate(529.1 371.9)" stroke="none" fill="#000" font-family="Arial" font-size="12" text-anchor="end" color="#000"><tspan>empty</tspan></text><g stroke="none" shape-rendering="geometricPrecision" fill="#9400D3" fill-opacity=".5" color="#000"><path d="M537.4 372.5h42.2v-9h-42.2zM56.2 332h2.1v-3.2h-2.1zM53.9 332h.5V21.1h-.5z"/></g><text transform="translate(529.1 389.9)" stroke="none" fill="#000" font-family="Arial" font-size="12" text-anchor="end" color="#000"><tspan>pages</tspan></text><g stroke="none" shape-rendering="crispEdges" fill="#009E73" fill-opacity=".5" color="#000"><path d="M537.4 390.5h42.2v-9h-42.2zM614.9 332h.2v-3.2h-.2zM491.8 332h2.1v-25.2h-2.1zM487.9 332h2.1v-28.4h-2.1z"/><path d="M493.8 332h2v-6.4h-2zM489.9 332h2v-31.5h-2zM480.1 332h2.1v-56.6h-2.1zM476.2 332h2v-15.8h-2z"/><path d="M482.1 332h2v-31.5h-2zM540.7 332h2v-3.2h-2zM486 332h2v-28.4h-2zM495.7 332h2.1v-9.5h-2.1zM478.1 332h2.1v-25.2h-2.1z"/><path d="M497.7 332h2v-9.5h-2zM552.4 332h2v-6.4h-2zM484 332h2.1v-15.8H484zM556.3 332h2v-6.4h-2zM528.9 332h2.1v-3.2h-2.1z"/><path d="M558.2 332h2.1v-3.2h-2.1z"/><path d="M560.2 332h2v-6.4h-2z"/></g><text transform="translate(529.1 407.9)" stroke="none" fill="#000" font-family="Arial" font-size="12" text-anchor="end" color="#000"><tspan>pages+cached</tspan></text><g stroke="none" shape-rendering="crispEdges" fill="#56B4E9" fill-opacity=".5" color="#000"><path d="M537.4 408.5h42.2v-9h-42.2zM486 332h2v-3.2h-2zM58.2 332h2v-94.3h-2z"/><path d="M56.2 332h2.1V118.4h-2.1zM60.1 332h2.1v-3.2h-2.1z"/></g><text transform="translate(529.1 425.9)" stroke="none" fill="#000" font-family="Arial" font-size="12" text-anchor="end" color="#000"><tspan>pages+cached+nointeractive</tspan></text><g stroke="none" shape-rendering="crispEdges" fill="#E69F00" fill-opacity=".5" color="#000"><path d="M537.4 426.5h42.2v-9h-42.2zM56.2 332h2.1V65.1h-2.1z"/><path d="M58.2 332h2v-34.6h-2zM54.3 332h2v-12.7h-2z"/></g><text transform="translate(529.1 443.9)" stroke="none" fill="#000" font-family="Arial" font-size="12" text-anchor="end" color="#000"><tspan>pages+cached+noadtech</tspan></text><g stroke="none" shape-rendering="crispEdges" fill="#F0E442" fill-opacity=".5" color="#000"><path d="M537.4 444.5h42.2v-9h-42.2zM56.2 332h2.1V68.2h-2.1z"/><path d="M58.2 332h2v-47.2h-2zM54.3 332h2v-3.2h-2z"/></g><text transform="translate(529.1 461.9)" stroke="none" fill="#000" font-family="Arial" font-size="12" text-anchor="end" color="#000"><tspan>pages+cached+noexternal</tspan></text><g stroke="none" shape-rendering="crispEdges" fill="#0072B2" fill-opacity=".5" color="#000"><path d="M537.4 462.5h42.2v-9h-42.2zM56.2 332h2.1V30.6h-2.1z"/><path d="M54.3 332h2v-12.7h-2z"/></g><text transform="translate(529.1 479.9)" stroke="none" fill="#000" font-family="Arial" font-size="12" text-anchor="end" color="#000"><tspan>pages+cached+noexternal+nofonts</tspan></text><g stroke="none" shape-rendering="crispEdges" fill="#E51E10" fill-opacity=".5" color="#000"><path d="M537.4 480.5h42.2v-9h-42.2zM56.2 332h2.1v-6.4h-2.1z"/><path d="M54.3 332h2V24.3h-2z"/></g><g><text transform="translate(529.1 497.9)" stroke="none" fill="#000" font-family="Arial" font-size="12" text-anchor="end" color="#000"><tspan>pages+cached+noexternal+nosvg</tspan></text><g stroke="none" shape-rendering="crispEdges" fill="#000" fill-opacity=".5" color="#000"><path d="M537.4 498.5h42.2v-9h-42.2zM56.2 332h2.1V36.8h-2.1z"/><path d="M54.3 332h2v-18.9h-2z"/></g></g><g><text transform="translate(529.1 515.9)" stroke="none" fill="#000" font-family="Arial" font-size="12" text-anchor="end" color="#000"><tspan>pages+cached+noexternal+noimg</tspan></text><g stroke="none" shape-rendering="crispEdges" fill="#9400D3" fill-opacity=".5" color="#000"><path d="M537.4 516.5h42.2v-9h-42.2zM54.3 332h2V68.2h-2z"/><path d="M56.2 332h2.1v-50.3h-2.1z"/></g></g><g><text transform="translate(529.1 533.9)" stroke="none" fill="#000" font-family="Arial" font-size="12" text-anchor="end" color="#000"><tspan>pages+cached+noexternal+nocss</tspan></text><g stroke="none" shape-rendering="crispEdges" fill="#009E73" fill-opacity=".5" color="#000"><path d="M537.4 534.5h42.2v-9h-42.2zM54.3 332h2V77.6h-2z"/><path d="M56.2 332h2.1v-59.7h-2.1z"/></g></g><g><text transform="translate(529.1 551.9)" stroke="none" fill="#000" font-family="Arial" font-size="12" text-anchor="end" color="#000"><tspan>pages+cached+noexternal+nojs</tspan></text><g stroke="none" shape-rendering="crispEdges" fill="#56B4E9" fill-opacity=".5" color="#000"><path d="M537.4 552.5h42.2v-9h-42.2zM56.2 332h2.1V40h-2.1z"/><path d="M54.3 332h2v-18.9h-2z"/><path d="M53.9 332h.5v-3.2h-.5z"/></g></g><g><text transform="translate(529.1 569.9)" stroke="none" fill="#000" font-family="Arial" font-size="12" text-anchor="end" color="#000"><tspan>pages+cached+noexternal+nofonts+nosvg+noimg</tspan></text><g stroke="none" shape-rendering="crispEdges" fill="#E69F00" fill-opacity=".5" color="#000"><path d="M537.4 570.5h42.2v-9h-42.2zM54.3 332h2V27.4h-2z"/><path d="M56.2 332h2.1v-9.5h-2.1z"/></g></g><g><text transform="translate(529.1 587.9)" stroke="none" fill="#000" font-family="Arial" font-size="12" text-anchor="end" color="#000"><tspan>pages+cached+noexternal+nofonts+nosvg+noimg+nocss</tspan></text><g stroke="none" shape-rendering="crispEdges" fill="#F0E442" fill-opacity=".5" color="#000"><path d="M537.4 588.5h42.2v-9h-42.2zM54.3 332h2V43.1h-2z"/><path d="M56.2 332h2.1v-25.2h-2.1z"/></g></g><g><text transform="translate(529.1 605.9)" stroke="none" fill="#000" font-family="Arial" font-size="12" text-anchor="end" color="#000"><tspan>pages+cached+noexternal+nofonts+nosvg+noimg+nocss+nojs</tspan></text><g stroke="none" shape-rendering="crispEdges" fill="#0072B2" fill-opacity=".5" color="#000"><path d="M537.4 606.5h42.2v-9h-42.2zM56.2 332h2.1V225.2h-2.1z"/><path d="M54.3 332h2V124.7h-2z"/></g></g><g fill="none" color="#000" stroke="currentColor"><path stroke="#000" d="M53.9 18.1V332H615V18.1H53.9z"/></g></svg>