<svg width="640" height="4440" xmlns="http://www.w3.org/2000/svg" xmlns:xlink="http://www.w3.org/1999/xlink"><path fill="#fff" d="M0 0h640v4440H0z"/><defs><path id="d" stroke-width=".222" stroke="currentColor" d="M-1-1h2v2h-2z"/><path id="b" stroke-width=".222" stroke="currentColor" d="M0-1.33l-1.33 2h2.66z"/><path id="f" stroke-width=".222" stroke="currentColor" d="M0 1.33L1.265.411.782-1.067l-1.564-.009-.483 1.487z"/><use xlink:href="#b" id="c" stroke="currentColor" transform="rotate(180)"/><use xlink:href="#d" id="e" stroke="currentColor" transform="rotate(45)"/><circle id="a" stroke-width=".222" stroke="currentColor" cx="0" cy="0" r="1"/></defs><path stroke="#000" d="M20.7 18.1v4405.3H615V18.1H20.7z" fill="none" color="#000"/><path stroke="#9400D3" d="M20.7 4364.2H615" fill="none" color="#000"/><path stroke="#009E73" d="M20.7 4245.8H615" fill="none" color="#000"/><path stroke="#56B4E9" d="M20.7 2265.4l6 1772.6 6 91.9 6 69.6 6-79.2 6 10.6 6-65.1 6 47.9 6 23.3 6-67 6 60.9 6 25.2 6-26.5 6 15.4 6-21.8 6-.5 6 37.9 6.1-12.5 6 9.8 6-3.7 6-5 6-18.8 6 31.2 6 3.8 6 11.6 6-24.1 6-1.8 6 4.5 6-6.9 6-1.1 6 18.8 6-7.4 6-.3 6-10.6 6 2.4 6 .6 6-38.2 6 48.7 6 6.1 6-68.8 6 51.6 6 11.9 6 4.3 6-26 6 36 6-34.1 6 4.2 6-40 6 42.7 6-86.1 6.1 86.9 6 22.7 6 8.8 6-29.4 6 7.7 6 20.6 6-16.7 6-8.7 6-57.5 6 85.3 6-26.7 6-2.2 6-6.9 6 9.3h6l6 14.1 6-12 6 11.4 6-37.1 6 15.7 6 7.4 6-.3 6-2.9 6 12.2 6 15.4 6-9.3 6 6.1 6-76.8 6 59.6 6 2.1 6 5.8 6-18.3 6 9.3 6.1 1.3 6-16.9 6-37.9 6-41 6 70.4 6 26.7 6 5.1 6-12.2 6-22.8 6 8.8 6-1.9 6 29.4 6-36.8 6 40.2 6-43.4 6 17.8 6 13.5" fill="none" color="#000"/><path stroke="#E69F00" d="M20.7 4008.9H615" fill="none" color="#000"/><path stroke="#F0E442" d="M20.7 3890.5H615" fill="none" color="#000"/><path stroke="#0072B2" d="M20.7 3772.1H615" fill="none" color="#000"/><path stroke="#E51E10" d="M20.7 3653.7H615" fill="none" color="#000"/><path stroke="#000" d="M20.7 3535.2H615" fill="none" color="#000"/><path stroke="#9400D3" d="M20.7 3416.8H615" fill="none" color="#000"/><path stroke="#009E73" d="M20.7 3298.4H615" fill="none" color="#000"/><path stroke="#56B4E9" d="M20.7 3180H615" fill="none" color="#000"/><path stroke="#E69F00" d="M20.7 3061.5H615" fill="none" color="#000"/><path stroke="#F0E442" d="M20.7 2943.1H615" fill="none" color="#000"/><path stroke="#0072B2" d="M20.7 2824.7H615" fill="none" color="#000"/><path stroke="#E51E10" d="M20.7 2706.3H615" fill="none" color="#000"/><path stroke="#000" d="M20.7 2587.9H615" fill="none" color="#000"/><path stroke="#9400D3" d="M20.7 2469.4H615" fill="none" color="#000"/><path stroke="#009E73" d="M20.7 2351H615" fill="none" color="#000"/><path stroke="#56B4E9" d="M20.7 2232.6H615" fill="none" color="#000"/><path stroke="#E69F00" d="M20.7 2114.2H615" fill="none" color="#000"/><path stroke="#F0E442" d="M20.7 1995.7H615" fill="none" color="#000"/><g><path stroke="#0072B2" d="M20.7 1877.3H615" fill="none" color="#000"/></g><g><path stroke="#E51E10" d="M20.7 1758.9H615" fill="none" color="#000"/></g><g><path stroke="#000" d="M20.7 1630.9l6 17.4 6-24.6 6 4.2 6 23.4 6-19.5 6-1.6 6-10 6 27.4 6-27.6 6-3.3 6-.3 6 14.5 6-55.5 6 74 6-6.9 6-26.5 6.1 35.3 6 3.3 6-43.7 6 42 6-8 6 6.6 6-24.7 6 26.7 6-52.9 6 26.2 6 10.9 6 8.3 6-13.6 6 11 6-10.9 6-8.4 6 53.1 6-25.9 6-73.7 6 68.4 6-48.9 6 52.7 6-15.6 6 3.7 6 24.4 6-57.5 6 47.2 6-62.3 6 50.4 6-8.1 6-.7 6 63.9 6-102.2 6.1 27.8 6 26.6 6-5.3 6-23.3 6 33.2 6 3.1 6-4.7 6 3.8 6-2.5 6-5.7 6-21.7 6 24.4 6-9.9 6 11.2 6 30.5 6-28.1 6-2 6-2.6 6-3.3 6-16.7 6 10.3 6-21.9 6 37.5 6-2 6 .7 6-5.9 6 3.9 6 25.5 6-21.5 6-7.2 6-29.9 6 57.3 6-28.6 6.1 4.9 6-5.3 6 4.6 6 13.2 6-24.6 6 14.1 6-5.5 6 22.8 6 18 6-44.3h6l6 45.3 6-75.8 6 35.3 6 3.1 6-54.2 6 86" fill="none" color="#000"/></g><g><path stroke="#9400D3" d="M20.7 1522.1H615" fill="none" color="#000"/></g><g><path stroke="#009E73" d="M20.7 1403.6H615" fill="none" color="#000"/></g><g><path stroke="#56B4E9" d="M20.7 1278.8l6 32 6-13.7 6-94.9 6 79.4 6 28.4 6 3 6-28.3 6 3.7 6 5.2 6-15.7 6 18.8 6-2.1 6-73.1 6 62.3 6-11.7 6 22.9 6.1-4.5 6 20.2 6-25.9 6 .1 6-4.8 6 34.9 6-24.8 6 21.9 6-38.2 6 21 6 21.1 6-40.9 6-9.6 6-31.2 6 48.6 6-5.4 6-7.7 6-23 6-4.8 6 7.3 6 28.8 6 46.6 6-22.2 6-13.6 6 25.9 6-47.5 6 31 6-9.3 6 11.8 6-8.7 6-36.6 6 12.8 6-173.9 6.1 156.9 6 2.4 6 13.9 6-42.1 6 53.1 6 29.2 6 12.6 6-26.3 6-21.7 6 .1 6-25 6 52.9 6 6.1 6 .3 6 9 6-22.4 6-1.9 6 20.9 6-41.9 6-7.6 6 45.7 6-30.9 6 45.2 6-6.2 6-27.4 6 32.4 6-11.4 6-44.2 6 47.9 6-21 6-19.1 6 38.2 6-76 6.1 67.2 6 10.1 6-33.7 6 2.3 6 .9 6 35.6 6-10.5 6 8.6 6-7.4 6-8.6 6 1.7 6 31.6 6-94.5 6 85.8 6-17.7 6-17.6 6-47.6" fill="none" color="#000"/></g><g><path stroke="#E69F00" d="M20.7 1063.3l6 142 6-36.3 6-37.2 6 36.7 6-13 6 23.9 6-11.2 6 14.8 6 23.9 6 3.1 6-39.6 6-1.3 6-53.8 6 39.8 6-.1 6 15.6 6.1-.6 6-13.1 6 13.4 6-.3 6 26.6 6-25.9 6 .1 6 .7 6 12.3 6-13.7 6 .3 6-14h6l6-53.5 6 54.1 6-.1 6-.4 6-54.5 6 54.5 6 38.9 6-24.7 6 13.9 6-17.1 6 16.2 6-13 6 .2 6-14.9 6 29.1 6 11.9 6-27.1 6-1.9 6-38.8 6-72.4 6.1 140.6 6-53.4 6 .5 6-42.4 6 27.7 6 41.8 6-.8 6-14.1 6 38 6-22.9 6-28.6 6 40.7 6-13.9 6 .4 6 13.6 6-12.9 6 40.3 6-26.6 6-56.5 6 28.2 6 13.9 6 40.8 6-41 6 .6 6-12.7 6 13.1 6 .3 6 23.5 6-38 6 13.7 6 41.1 6-41.7 6 14.1 6.1-27.2 6 26.3 6 11.8 6 11.6 6-37.3 6 14.9 6-13.3 6-.7 6-1.2 6 41.4 6-54.6 6 15.1 6-29 6 29.2 6 11.5 6 28 6-108.1" fill="none" color="#000"/></g><g><path stroke="#F0E442" d="M20.7 944.9l6 142 6-36.3 6-37.2 6 36.7 6-13 6 23.8 6-11.1 6 14.8 6 23.8 6 3.1 6-39.5 6-1.3 6-53.8 6 39.7h6l6 15.6 6.1-.7 6-13.1 6 13.5 6-.3 6 26.6 6-26 6 .2 6 .6 6 12.4 6-13.7 6 .2 6-13.9 6-.1 6-53.5 6 54.1h6l6-.4 6-54.5 6 54.5 6 38.9 6-24.8 6 14 6-17.2 6 16.3 6-13 6 .2 6-14.9 6 29 6 11.9 6-27 6-1.9 6-38.8 6-72.4 6.1 140.6 6-53.4 6 .4 6-42.3 6 27.6 6 41.9 6-.8 6-14.1 6 38 6-23 6-28.5 6 40.7 6-14 6 .5 6 13.6 6-12.9 6 40.3 6-26.7 6-56.4 6 28.2 6 13.9 6 40.8 6-41 6 .6 6-12.7 6 13 6 .4 6 23.5 6-38.1 6 13.8 6 41.1 6-41.8 6 14.2 6.1-27.2 6 26.3 6 11.8 6 11.6 6-37.3 6 14.9 6-13.3 6-.7 6-1.2 6 41.4 6-54.7 6 15.2 6-29.1 6 29.3 6 11.5 6 28 6-108.2" fill="none" color="#000"/></g><g><path stroke="#0072B2" d="M20.7 826.5l6 142 6-36.3 6-37.2 6 36.7 6-13.1 6 23.9 6-11.1 6 14.8 6 23.8 6 3.1 6-39.6 6-1.2 6-53.8 6 39.7h6l6 15.6 6.1-.7 6-13.1 6 13.4 6-.2 6 26.6 6-26 6 .2 6 .6 6 12.4 6-13.7 6 .2 6-13.9 6-.1 6-53.5 6 54.1 6-.1 6-.3 6-54.5 6 54.5 6 38.8 6-24.7 6 14 6-17.2 6 16.3 6-13 6 .2 6-15 6 29.1 6 11.9 6-27 6-1.9 6-38.9 6-72.4 6.1 140.7 6-53.4 6 .4 6-42.3 6 27.6 6 41.9 6-.8 6-14.1 6 37.9 6-22.9 6-28.5 6 40.7 6-14 6 .5 6 13.6 6-12.9 6 40.3 6-26.7 6-56.4 6 28.2 6 13.8 6 40.9 6-41 6 .6 6-12.8 6 13.1 6 .3 6 23.6 6-38.1 6 13.8 6 41.1 6-41.8 6 14.1 6.1-27.2 6 26.4 6 11.8 6 11.5 6-37.2 6 14.9 6-13.4 6-.6 6-1.2 6 41.3 6-54.6 6 15.2 6-29.1 6 29.3 6 11.4 6 28.1 6-108.2" fill="none" color="#000"/></g><g><path stroke="#E51E10" d="M20.7 708.1l6 142 6-36.3 6-37.2 6 36.7 6-13.1 6 23.9 6-11.2 6 14.9 6 23.8 6 3.1 6-39.6 6-1.3 6-53.7 6 39.7h6l6 15.5 6.1-.6 6-13.1 6 13.4 6-.2 6 26.6 6-26 6 .2 6 .6 6 12.4 6-13.7 6 .2 6-14h6l6-53.5 6 54.1 6-.1 6-.4 6-54.5 6 54.5 6 38.9 6-24.7 6 13.9 6-17.1 6 16.2 6-12.9 6 .2 6-15 6 29.1 6 11.9 6-27.1 6-1.8 6-38.9 6-72.4 6.1 140.7 6-53.5 6 .5 6-42.4 6 27.7 6 41.9 6-.8 6-14.1 6 37.9 6-22.9 6-28.6 6 40.7 6-13.9 6 .5 6 13.6 6-12.9 6 40.3 6-26.7 6-56.4 6 28.2 6 13.8 6 40.9 6-41.1 6 .7 6-12.8 6 13.1 6 .3 6 23.5 6-38 6 13.8 6 41.1 6-41.8 6 14.1 6.1-27.2 6 26.4 6 11.7 6 11.6 6-37.2 6 14.8 6-13.3 6-.6 6-1.2 6 41.3 6-54.6 6 15.1 6-29 6 29.2 6 11.5 6 28 6-108.1" fill="none" color="#000"/></g><g><path stroke="#000" d="M20.7 589.7l6 141.9 6-36.3 6-37.2 6 36.7 6-13 6 23.9 6-11.2 6 14.8 6 23.9 6 3.1 6-39.6 6-1.3 6-53.8 6 39.8 6-.1 6 15.6 6.1-.6 6-13.1 6 13.4 6-.2 6 26.5 6-25.9 6 .2 6 .6 6 12.3 6-13.7 6 .3 6-14h6l6-53.5 6 54.1 6-.1 6-.4 6-54.5 6 54.5 6 38.9 6-24.7 6 13.9 6-17.1 6 16.2 6-13 6 .2 6-14.9 6 29.1 6 11.9 6-27.1 6-1.8 6-38.9 6-72.4 6.1 140.7 6-53.5 6 .5 6-42.4 6 27.7 6 41.9 6-.9 6-14.1 6 38 6-22.9 6-28.6 6 40.7 6-13.9 6 .4 6 13.6 6-12.9 6 40.3 6-26.6 6-56.4 6 28.1 6 13.9 6 40.9 6-41.1 6 .7 6-12.8 6 13.1 6 .3 6 23.5 6-38 6 13.7 6 41.2 6-41.8 6 14.1 6.1-27.2 6 26.3 6 11.8 6 11.6 6-37.3 6 14.9 6-13.3 6-.7 6-1.1 6 41.3 6-54.6 6 15.1 6-29 6 29.2 6 11.5 6 28 6-108.1" fill="none" color="#000"/></g><g><path stroke="#9400D3" d="M20.7 471.2l6 142 6-36.3 6-37.2 6 36.7 6-13 6 23.8 6-11.1 6 14.8 6 23.9 6 3 6-39.5 6-1.3 6-53.8 6 39.8 6-.1 6 15.6 6.1-.6 6-13.2 6 13.5 6-.3 6 26.6 6-26 6 .2 6 .6 6 12.4 6-13.7 6 .2 6-13.9h6l6-53.6 6 54.1h6l6-.4 6-54.5 6 54.5 6 38.9 6-24.7 6 13.9 6-17.2 6 16.3 6-13 6 .2 6-14.9 6 29.1 6 11.8 6-27 6-1.9 6-38.8 6-72.4 6.1 140.6 6-53.4 6 .5 6-42.4 6 27.7 6 41.8 6-.8 6-14.1 6 38 6-22.9 6-28.6 6 40.7 6-13.9 6 .4 6 13.6 6-12.9 6 40.3 6-26.7 6-56.4 6 28.2 6 13.9 6 40.8 6-41 6 .6 6-12.7 6 13.1 6 .3 6 23.5 6-38 6 13.7 6 41.1 6-41.8 6 14.2 6.1-27.2 6 26.3 6 11.8 6 11.6 6-37.3 6 14.9 6-13.3 6-.7 6-1.2 6 41.4 6-54.7 6 15.2 6-29 6 29.2 6 11.5 6 28 6-108.1" fill="none" color="#000"/></g><g><path stroke="#009E73" d="M25.4 18.1l1.3 388.4 6 90.2 6-39.9 6 41 6-8.4 6 4.2h6l6-1.1 6-32.5 6 25.2 6 10.5 6-46.2 6 49.3 6-2.1h12l6.1-2.1 6-2.1 6 5.3 6-16.8 6-155.3 6 170 6 1 6-4.2 6-1 6 3.1 6-3.1 6-10.5 6-11.6 6 3.2 6-2.1 6 26.2 6-79.7 6 77.6 6-7.3 6 9.4 6-3.1 6-1.1 6-7.3 6 5.2 6-9.4 6 5.2 6 6.3 6-2.1 6-14.7 6 13.7 6-96.6 6 105 6-63 6.1-5.2 6 62.9 6-2.1 6 2.1 6-17.8 6 21 6-17.9 6 12.6 6-32.5 6 35.7 6-30.5 6 32.6 6-20 6 11.6 6 1 6 7.4 6-37.8 6 18.9 6 14.7 6-76.6 6 74.5 6-6.3 6 10.5 6-2.1 6-36.8 6 35.7h6l6-123.8 6 127 6-14.7 6 14.7 6-3.2 6-12.6 6.1 16.8 6 2.1 6-53.5 6-29.4 6 3.2 6 69.2 6-23.1 6 20h6l6-17.9 6 32.6 6-7.4 6-50.4 6 37.8 6-56.6 6 74.5 6-61.9" fill="none" color="#000"/></g><g><path stroke="#56B4E9" d="M25.8 18.1l.9 232.1 6 88.6 6 71.3 6-80.9 6 11 6-65.5 6 48.1 6 23.4 6-66 6 60.1 6 24.8 6-24.7 6 13.5 6-21.7 6-.5 6 37.9 6.1-12.4 6 9.9 6-3.9 6-4.4 6-12.9 6 24.8 6 3.7 6 11.8 6-24.1 6-2 6 4.7 6-6.5 6-.7 6 18.8 6-7.4 6-1.2 6-7.6 6-.6 6 .8 6-38.6 6 49 6 6.1 6-68.7 6 51.6 6 12.3 6 4 6-26.2 6 36.1 6-33.6 6 3.7 6-36.4 6 38.7 6-83.8 6.1 87.2 6 20.4 6 8.9 6-29.6 6 8.4 6 19.9 6-16 6-9.3 6-56.3 6 84.1 6-25.7 6-3.3 6-6.2 6 8.9h6l6 13.7 6-10.5 6 10.7 6-37.7 6 18.6 6 4.6h6l6-3.4 6 12.3 6 16.8 6-10.6 6 6.1 6-72.3 6 54.9 6 2.7 6 5.3 6-18.2 6 9.7 6.1.7 6-17 6-36 6-40 6 70.5 6 24.2 6 5.9 6-13 6-22.8 6 9.4 6-3.1 6 29.8 6-35 6 38.9 6-41.4 6 15 6 15.9" fill="none" color="#000"/></g><g><path stroke="#E69F00" d="M20.7 112.8l6 138.1 6-27.6 6-41.5 6 41.5 6-13.8 6 13.8h6l6 13.8 6 13.8 6 13.8 6-41.4h6l6-55.3 6 41.5h6l6 13.8h6.1l6-13.8 6 13.8h6l6 27.6 6-27.6h12l6 13.8 6-13.8h6l6-13.8h6l6-55.3 6 55.3h12l6-55.3 6 55.3 6 41.4 6-27.6 6 13.8 6-13.8 6 13.8 6-13.8h6l6-13.8 6 27.6 6 13.8 6-27.6h6l6-41.5 6-82.9 6.1 152 6-55.2h6l6-41.5 6 27.6 6 41.5h6l6-13.8 6 41.4 6-27.6 6-27.6 6 41.4 6-13.8h6l6 13.8 6-13.8 6 41.4 6-27.6 6-55.3 6 27.7 6 13.8 6 41.4 6-41.4h6l6-13.8 6 13.8h6l6 27.6 6-41.4 6 13.8 6 41.4 6-41.4 6 13.8 6.1-27.6 6 27.6 6 13.8h6l6-27.6 6 13.8 6-13.8h12l6 41.4 6-55.2 6 13.8 6-27.6 6 27.6 6 13.8 6 27.6 6-110.5" fill="none" color="#000"/></g><g><path stroke="#F0E442" d="M20.7 210.6l6-147.9 6 35.6 6 38 6-37.5 6 13.2 6-24 6 11.1 6-14.7 6-23.2 6-2.9 6 38.7 6 1.2 6 55.5 6-41.3h6l6-15.7 6.1.7 6 13.2 6-13.5 6 .2 6-26.2 6 25.6 6-.2 6-.6 6-12.3 6 13.6 6-.2 6 14 6 .1 6 55.9 6-56.5h6l6 .4 6 57.1 6-57.1 6-38.6 6 24.4 6-13.8 6 17 6-16.2 6 12.9 6-.2 6 15.1 6-29.1 6-11.6 6 26.6 6 1.9 6 39.8 6 78.9 6.1-147.7 6 53.4 6-.5 6 44.7 6-29.4 6-42.8 6 .8 6 14.2 6-37.7 6 22.6 6 28.9 6-40.9 6 13.8 6-.5 6-13.5 6 12.8 6-39.3 6 25.8 6 57.3 6-29.1 6-13.9 6-39.9 6 40 6-.6 6 12.8 6-13.1 6-.3 6-23.2 6 37.8 6-13.9 6-40.1 6 40.8 6-14 6.1 27.2 6-26.4 6-11.5 6-11.2 6 36.5 6-14.7 6 13.2 6 .6 6 1.2 6-40.4 6 53.8 6-15.3 6 29.5 6-29.7 6-11.4 6-27.1 6 109.7" fill="none" color="#000"/></g><g fill="none" color="#000" stroke="currentColor"><path stroke="#000" d="M20.7 18.1v4405.3H615V18.1H20.7z"/><text transform="translate(34.9 4308.9)" stroke="none" fill="#000" font-family="Arial" font-size="12"><tspan>total-blocking-time, p90stdev=0, score:p90stdev=0, range=[0:0]</tspan></text><text transform="translate(34.9 4190.5)" stroke="none" fill="#000" font-family="Arial" font-size="12"><tspan>cumulative-layout-shift, p90stdev=0, score:p90stdev=0, range=[0:0]</tspan></text><text transform="translate(34.9 4072)" stroke="none" fill="#000" font-family="Arial" font-size="12"><tspan>server-response-time, p90stdev=0.07, score:p90stdev=0, range=[1.074:8.377]</tspan></text><text transform="translate(34.9 3953.6)" stroke="none" fill="#000" font-family="Arial" font-size="12"><tspan>redirects, p90stdev=0, score:p90stdev=0, range=[0:0]</tspan></text><text transform="translate(34.9 3835.2)" stroke="none" fill="#000" font-family="Arial" font-size="12"><tspan>uses-rel-preload, p90stdev=0, score:p90stdev=0, range=[0:0]</tspan></text><text transform="translate(34.9 3716.8)" stroke="none" fill="#000" font-family="Arial" font-size="12"><tspan>uses-rel-preconnect, p90stdev=0, score:p90stdev=0, range=[0:0]</tspan></text><text transform="translate(34.9 3598.3)" stroke="none" fill="#000" font-family="Arial" font-size="12"><tspan>uses-long-cache-ttl, p90stdev=0, score:p90stdev=0, range=[0:0]</tspan></text><text transform="translate(34.9 3479.9)" stroke="none" fill="#000" font-family="Arial" font-size="12"><tspan>total-byte-weight, p90stdev=0, score:p90stdev=0, range=[292:292]</tspan></text><text transform="translate(34.9 3361.5)" stroke="none" fill="#000" font-family="Arial" font-size="12"><tspan>offscreen-images, p90stdev=0, score:p90stdev=0, range=[0:0]</tspan></text><text transform="translate(34.9 3243.1)" stroke="none" fill="#000" font-family="Arial" font-size="12"><tspan>render-blocking-resources, p90stdev=0, score:p90stdev=0, range=[0:0]</tspan></text><text transform="translate(34.9 3124.7)" stroke="none" fill="#000" font-family="Arial" font-size="12"><tspan>unminified-css, p90stdev=0, score:p90stdev=0, range=[0:0]</tspan></text><text transform="translate(34.9 3006.2)" stroke="none" fill="#000" font-family="Arial" font-size="12"><tspan>unminified-javascript, p90stdev=0, score:p90stdev=0, range=[0:0]</tspan></text><text transform="translate(34.9 2887.8)" stroke="none" fill="#000" font-family="Arial" font-size="12"><tspan>unused-css-rules, p90stdev=0, score:p90stdev=0, range=[0:0]</tspan></text><text transform="translate(34.9 2769.4)" stroke="none" fill="#000" font-family="Arial" font-size="12"><tspan>unused-javascript, p90stdev=0, score:p90stdev=0, range=[0:0]</tspan></text><text transform="translate(34.9 2651)" stroke="none" fill="#000" font-family="Arial" font-size="12"><tspan>uses-webp-images, p90stdev=0, score:p90stdev=0, range=[0:0]</tspan></text><text transform="translate(34.9 2532.5)" stroke="none" fill="#000" font-family="Arial" font-size="12"><tspan>uses-optimized-images, p90stdev=0, score:p90stdev=0, range=[0:0]</tspan></text><text transform="translate(34.9 2414.1)" stroke="none" fill="#000" font-family="Arial" font-size="12"><tspan>uses-text-compression, p90stdev=0, score:p90stdev=0, range=[0:0]</tspan></text><text transform="translate(34.9 2295.7)" stroke="none" fill="#000" font-family="Arial" font-size="12"><tspan>uses-responsive-images, p90stdev=0, score:p90stdev=0, range=[0:0]</tspan></text><text transform="translate(34.9 2177.3)" stroke="none" fill="#000" font-family="Arial" font-size="12"><tspan>efficient-animated-content, p90stdev=0, score:p90stdev=0, range=[0:0]</tspan></text><text transform="translate(34.9 2058.9)" stroke="none" fill="#000" font-family="Arial" font-size="12"><tspan>duplicated-javascript, p90stdev=0, score:p90stdev=0, range=[0:0]</tspan></text><text transform="translate(34.9 1940.4)" stroke="none" fill="#000" font-family="Arial" font-size="12"><tspan>legacy-javascript, p90stdev=0, score:p90stdev=0, range=[0:0]</tspan></text><text transform="translate(34.9 1822)" stroke="none" fill="#000" font-family="Arial" font-size="12"><tspan>dom-size, p90stdev=0, score:p90stdev=0, range=[2:2]</tspan></text><text transform="translate(34.9 1703.6)" stroke="none" fill="#000" font-family="Arial" font-size="12"><tspan>uses-http2, p90stdev=0, score:p90stdev=0, range=[0:0]</tspan></text><text transform="translate(34.9 1585.2)" stroke="none" fill="#000" font-family="Arial" font-size="12"><tspan>bootup-time, p90stdev=0.358, score:p90stdev=0, range=[4.844:7.452]</tspan></text><text transform="translate(34.9 1466.7)" stroke="none" fill="#000" font-family="Arial" font-size="12"><tspan>estimated-input-latency, p90stdev=0, score:p90stdev=0, range=[12.8:12.8]</tspan></text><text transform="translate(34.9 1348.3)" stroke="none" fill="#000" font-family="Arial" font-size="12"><tspan>max-potential-fid, p90stdev=0, score:p90stdev=0, range=[16:16]</tspan></text><text transform="translate(34.9 1229.9)" stroke="none" fill="#000" font-family="Arial" font-size="12"><tspan>mainthread-work-breakdown, p90stdev=1.92, score:p90stdev=0, range=[80.164:102.924]</tspan></text><text transform="translate(34.9 1111.5)" stroke="none" fill="#000" font-family="Arial" font-size="12"><tspan>speed-index, p90stdev=1.332, score:p90stdev=0, range=[625.162:636.549]</tspan></text><text transform="translate(34.9 993.1)" stroke="none" fill="#000" font-family="Arial" font-size="12"><tspan>first-cpu-idle, p90stdev=1.332, score:p90stdev=0, range=[625.162:636.549]</tspan></text><text transform="translate(34.9 874.6)" stroke="none" fill="#000" font-family="Arial" font-size="12"><tspan>largest-contentful-paint, p90stdev=1.332, score:p90stdev=0, range=[625.162:636.549]</tspan></text><text transform="translate(34.9 756.2)" stroke="none" fill="#000" font-family="Arial" font-size="12"><tspan>interactive, p90stdev=1.332, score:p90stdev=0, range=[625.162:636.549]</tspan></text><text transform="translate(34.9 637.8)" stroke="none" fill="#000" font-family="Arial" font-size="12"><tspan>first-contentful-paint, p90stdev=1.332, score:p90stdev=0, range=[625.162:636.549]</tspan></text><text transform="translate(34.9 519.4)" stroke="none" fill="#000" font-family="Arial" font-size="12"><tspan>first-meaningful-paint, p90stdev=1.332, score:p90stdev=0, range=[625.162:636.549]</tspan></text><text transform="translate(34.9 401)" stroke="none" fill="#000" font-family="Arial" font-size="12"><tspan>network-rtt, p90stdev=0.003, score:p90stdev=0.003, range=[0.03:0.31]</tspan></text><text transform="translate(34.9 282.5)" stroke="none" fill="#000" font-family="Arial" font-size="12"><tspan>network-server-latency, p90stdev=0.069, score:p90stdev=0.069, range=[1.038:8.067]</tspan></text><text transform="translate(34.9 164.1)" stroke="none" fill="#000" font-family="Arial" font-size="12"><tspan>metrics, p90stdev=1.311, score:p90stdev=1.311, range=[625:637]</tspan></text><text transform="translate(34.9 45.7)" stroke="none" fill="#000" font-family="Arial" font-size="12"><tspan>score, p90stdev=0, score:p90stdev=0, range=[1:1]</tspan></text></g></svg>