<svg width="640" height="490" xmlns="http://www.w3.org/2000/svg" xmlns:xlink="http://www.w3.org/1999/xlink"><path fill="#fff" d="M0 0h640v490H0z"/><defs><path id="d" stroke-width=".222" stroke="currentColor" d="M-1-1h2v2h-2z"/><path id="b" stroke-width=".222" stroke="currentColor" d="M0-1.33l-1.33 2h2.66z"/><path id="f" stroke-width=".222" stroke="currentColor" d="M0 1.33L1.265.411.782-1.067l-1.564-.009-.483 1.487z"/><use xlink:href="#b" id="c" stroke="currentColor" transform="rotate(180)"/><use xlink:href="#d" id="e" stroke="currentColor" transform="rotate(45)"/><circle id="a" stroke-width=".222" stroke="currentColor" cx="0" cy="0" r="1"/></defs><g fill="none" color="#000" stroke="currentColor"><path stroke="#000" d="M78.8 397.5h9m527.2 0h-9"/><text transform="translate(70.5 401.4)" stroke="none" fill="#000" font-family="Arial" font-size="12" text-anchor="end"><tspan>713135</tspan></text></g><g fill="none" color="#000" stroke="currentColor"><path stroke="#000" d="M78.8 333.4h9m527.2 0h-9"/><text transform="translate(70.5 337.3)" stroke="none" fill="#000" font-family="Arial" font-size="12" text-anchor="end"><tspan>713140</tspan></text></g><g fill="none" color="#000" stroke="currentColor"><path stroke="#000" d="M78.8 269.3h9m527.2 0h-9"/><text transform="translate(70.5 273.2)" stroke="none" fill="#000" font-family="Arial" font-size="12" text-anchor="end"><tspan>713145</tspan></text></g><g fill="none" color="#000" stroke="currentColor"><path stroke="#000" d="M78.8 205.2h9m527.2 0h-9"/><text transform="translate(70.5 209.1)" stroke="none" fill="#000" font-family="Arial" font-size="12" text-anchor="end"><tspan>713150</tspan></text></g><g fill="none" color="#000" stroke="currentColor"><path stroke="#000" d="M78.8 141.1h9m527.2 0h-9"/><text transform="translate(70.5 145)" stroke="none" fill="#000" font-family="Arial" font-size="12" text-anchor="end"><tspan>713155</tspan></text></g><g fill="none" color="#000" stroke="currentColor"><path stroke="#000" d="M78.8 77.1h9m527.2 0h-9"/><text transform="translate(70.5 81)" stroke="none" fill="#000" font-family="Arial" font-size="12" text-anchor="end"><tspan>713160</tspan></text></g><g fill="none" color="#000" stroke="currentColor"><path stroke="#000" d="M78.8 418v-9m0-390.9v9"/><text transform="translate(78.8 439.9)" stroke="none" fill="#000" font-family="Arial" font-size="12" text-anchor="middle"><tspan>0</tspan></text></g><g fill="none" color="#000" stroke="currentColor"><path stroke="#000" d="M133 418v-9m0-390.9v9"/><text transform="translate(133 439.9)" stroke="none" fill="#000" font-family="Arial" font-size="12" text-anchor="middle"><tspan>10</tspan></text></g><g fill="none" color="#000" stroke="currentColor"><path stroke="#000" d="M187.1 418v-9m0-390.9v9"/><text transform="translate(187.1 439.9)" stroke="none" fill="#000" font-family="Arial" font-size="12" text-anchor="middle"><tspan>20</tspan></text></g><g fill="none" color="#000" stroke="currentColor"><path stroke="#000" d="M241.3 418v-9m0-390.9v9"/><text transform="translate(241.3 439.9)" stroke="none" fill="#000" font-family="Arial" font-size="12" text-anchor="middle"><tspan>30</tspan></text></g><g fill="none" color="#000" stroke="currentColor"><path stroke="#000" d="M295.4 418v-9m0-390.9v9"/><text transform="translate(295.4 439.9)" stroke="none" fill="#000" font-family="Arial" font-size="12" text-anchor="middle"><tspan>40</tspan></text></g><g fill="none" color="#000" stroke="currentColor"><path stroke="#000" d="M349.6 418v-9m0-390.9v9"/><text transform="translate(349.6 439.9)" stroke="none" fill="#000" font-family="Arial" font-size="12" text-anchor="middle"><tspan>50</tspan></text></g><g fill="none" color="#000" stroke="currentColor"><path stroke="#000" d="M403.8 418v-9m0-390.9v9"/><text transform="translate(403.8 439.9)" stroke="none" fill="#000" font-family="Arial" font-size="12" text-anchor="middle"><tspan>60</tspan></text></g><g fill="none" color="#000" stroke="currentColor"><path stroke="#000" d="M457.9 418v-9m0-390.9v9"/><text transform="translate(457.9 439.9)" stroke="none" fill="#000" font-family="Arial" font-size="12" text-anchor="middle"><tspan>70</tspan></text></g><g fill="none" color="#000" stroke="currentColor"><path stroke="#000" d="M512.1 418v-9m0-390.9v9"/><text transform="translate(512.1 439.9)" stroke="none" fill="#000" font-family="Arial" font-size="12" text-anchor="middle"><tspan>80</tspan></text></g><g fill="none" color="#000" stroke="currentColor"><path stroke="#000" d="M566.3 418v-9m0-390.9v9"/><text transform="translate(566.3 439.9)" stroke="none" fill="#000" font-family="Arial" font-size="12" text-anchor="middle"><tspan>90</tspan></text></g><path stroke="#000" d="M78.8 18.1V418H615V18.1H78.8z" fill="none" color="#000"/><text transform="translate(288.1 457.9)" stroke="none" fill="#000" font-family="Arial" font-size="12" text-anchor="end" color="#000"><tspan>raw</tspan></text><path stroke="#9400D3" d="M296.4 454h42.2M78.8 102.7l5.4 76.9 5.4 25.6 5.4 76.9 5.5-141 5.4 76.9 5.4 77 5.4-115.4 5.4-12.8 5.4 12.8L133 218l5.4-25.6 5.4 25.6h5.4l5.4 38.5 5.4-89.7 5.5 12.8 5.4 12.8 5.4 205.1 5.4-166.6 5.4 102.5 5.4-89.7 5.5-115.4 5.4 89.7 5.4-102.5 5.4-25.6 5.4 128.1 5.4 102.6 5.5-89.7 5.4 25.6 5.4-128.2 5.4 115.4 5.4 64.1 5.4-12.8 5.4-77 5.5 12.9 5.4 12.8 5.4-102.6 5.4 89.8 5.4-51.3 5.4-38.5 5.5 12.9 5.4 153.8 5.4-64.1 5.4-12.8 5.4-115.4 5.4 89.7 5.5 12.8 5.4 38.5 5.4-38.5h5.4l5.4-38.4h5.4l5.5 38.4 5.4-89.7 5.4 64.1 5.4 128.2 5.4-64.1 5.4-141 5.5 12.8 5.4 102.6 5.4-38.5 5.4 12.8h5.4l5.4 12.8 5.5-25.6 5.4 38.5 5.4-51.3 5.4 51.3 5.4 76.9h5.4l5.4-89.8 5.5-76.9 5.4 115.4 5.4-115.4 5.4 115.4 5.4-25.6 5.4 89.7 5.5-115.4 5.4-76.9 5.4-64.1 5.4 179.5 5.4-12.8 5.4-51.3 5.5 230.7 5.4-89.7 5.4-76.9L550 25.8l5.4 153.8 5.4 25.6 5.5-25.6 5.4 38.4 5.4-12.8 5.4 89.8 5.4-115.4 5.4-51.3 5.5 89.7 5.4-128.1 5.4 217.9 5.4 25.6" fill="none" color="#000"/><text transform="translate(288.1 475.9)" stroke="none" fill="#000" font-family="Arial" font-size="12" text-anchor="end" color="#000"><tspan>score p10=2731008</tspan></text><path stroke="#009E73" d="M296.4 472h42.2" fill="none" color="#000"/><text transform="translate(512.9 457.9)" stroke="none" fill="#000" font-family="Arial" font-size="12" text-anchor="end" color="#000"><tspan>score median=4096000</tspan></text><path stroke="#56B4E9" d="M521.2 454h42.2" fill="none" color="#000"/><g fill="none" color="#000" stroke="currentColor"><path stroke="#000" d="M78.8 18.1V418H615V18.1H78.8z"/></g></svg>