<svg width="640" height="520" xmlns="http://www.w3.org/2000/svg" xmlns:xlink="http://www.w3.org/1999/xlink"><path fill="#fff" d="M0 0h640v520H0z"/><defs><path id="g" stroke-width=".222" stroke="currentColor" d="M-1 0h2M0-1v2"/><path id="h" stroke-width=".222" stroke="currentColor" d="M-1-1l2 2m0-2l-2 2"/><path id="i" stroke-width=".222" stroke="currentColor" d="M-1 0h2M0-1v2m-1-2l2 2m-2 0l2-2"/><path id="d" stroke-width=".222" stroke="currentColor" d="M-1-1h2v2h-2z"/><path id="b" stroke-width=".222" stroke="currentColor" d="M0-1.33l-1.33 2h2.66z"/><path id="f" stroke-width=".222" stroke="currentColor" d="M0 1.33L1.265.411.782-1.067l-1.564-.009-.483 1.487z"/><use xlink:href="#b" id="c" stroke="currentColor" transform="rotate(180)"/><use xlink:href="#d" id="e" stroke="currentColor" transform="rotate(45)"/><circle id="a" stroke-width=".222" stroke="currentColor" cx="0" cy="0" r="1"/></defs><g fill="none" color="#000" stroke="currentColor"><path stroke="#000" d="M62.2 400h9m543.8 0h-9"/><text transform="translate(53.9 403.9)" stroke="none" fill="#000" font-family="Arial" font-size="12" text-anchor="end"><tspan>0.86</tspan></text></g><g fill="none" color="#000" stroke="currentColor"><path stroke="#000" d="M62.2 346.6h9m543.8 0h-9"/><text transform="translate(53.9 350.5)" stroke="none" fill="#000" font-family="Arial" font-size="12" text-anchor="end"><tspan>0.88</tspan></text></g><g fill="none" color="#000" stroke="currentColor"><path stroke="#000" d="M62.2 293.2h9m543.8 0h-9"/><text transform="translate(53.9 297.1)" stroke="none" fill="#000" font-family="Arial" font-size="12" text-anchor="end"><tspan>0.9</tspan></text></g><g fill="none" color="#000" stroke="currentColor"><path stroke="#000" d="M62.2 239.9h9m543.8 0h-9"/><text transform="translate(53.9 243.8)" stroke="none" fill="#000" font-family="Arial" font-size="12" text-anchor="end"><tspan>0.92</tspan></text></g><g fill="none" color="#000" stroke="currentColor"><path stroke="#000" d="M62.2 186.5h9m543.8 0h-9"/><text transform="translate(53.9 190.4)" stroke="none" fill="#000" font-family="Arial" font-size="12" text-anchor="end"><tspan>0.94</tspan></text></g><g fill="none" color="#000" stroke="currentColor"><path stroke="#000" d="M62.2 133.1h9m543.8 0h-9"/><text transform="translate(53.9 137)" stroke="none" fill="#000" font-family="Arial" font-size="12" text-anchor="end"><tspan>0.96</tspan></text></g><g fill="none" color="#000" stroke="currentColor"><path stroke="#000" d="M62.2 79.7h9m543.8 0h-9"/><text transform="translate(53.9 83.6)" stroke="none" fill="#000" font-family="Arial" font-size="12" text-anchor="end"><tspan>0.98</tspan></text></g><g fill="none" color="#000" stroke="currentColor"><path stroke="#000" d="M62.2 26.4h9m543.8 0h-9"/><text transform="translate(53.9 30.3)" stroke="none" fill="#000" font-family="Arial" font-size="12" text-anchor="end"><tspan>1</tspan></text></g><g fill="none" color="#000" stroke="currentColor"><path stroke="#000" d="M62.2 448v-9m0-420.9v9"/><text transform="translate(62.2 469.9)" stroke="none" fill="#000" font-family="Arial" font-size="12" text-anchor="middle"><tspan>0</tspan></text></g><g fill="none" color="#000" stroke="currentColor"><path stroke="#000" d="M147.2 448v-9m0-420.9v9"/><text transform="translate(147.2 469.9)" stroke="none" fill="#000" font-family="Arial" font-size="12" text-anchor="middle"><tspan>2</tspan></text></g><g fill="none" color="#000" stroke="currentColor"><path stroke="#000" d="M232.3 448v-9m0-420.9v9"/><text transform="translate(232.3 469.9)" stroke="none" fill="#000" font-family="Arial" font-size="12" text-anchor="middle"><tspan>4</tspan></text></g><g fill="none" color="#000" stroke="currentColor"><path stroke="#000" d="M317.3 448v-9m0-420.9v9"/><text transform="translate(317.3 469.9)" stroke="none" fill="#000" font-family="Arial" font-size="12" text-anchor="middle"><tspan>6</tspan></text></g><g fill="none" color="#000" stroke="currentColor"><path stroke="#000" d="M402.4 448v-9m0-420.9v9"/><text transform="translate(402.4 469.9)" stroke="none" fill="#000" font-family="Arial" font-size="12" text-anchor="middle"><tspan>8</tspan></text></g><g fill="none" color="#000" stroke="currentColor"><path stroke="#000" d="M487.4 448v-9m0-420.9v9"/><text transform="translate(487.4 469.9)" stroke="none" fill="#000" font-family="Arial" font-size="12" text-anchor="middle"><tspan>10</tspan></text></g><g fill="none" color="#000" stroke="currentColor"><path stroke="#000" d="M572.5 448v-9m0-420.9v9"/><text transform="translate(572.5 469.9)" stroke="none" fill="#000" font-family="Arial" font-size="12" text-anchor="middle"><tspan>12</tspan></text></g><path stroke="#000" d="M62.2 18.1V448H615V18.1H62.2z" fill="none" color="#000"/><text transform="translate(279.8 487.9)" stroke="none" fill="#000" font-family="Arial" font-size="12" text-anchor="end" color="#000"><tspan>score:p90min</tspan></text><g fill="none" color="#000" stroke="currentColor"><path stroke="#9400D3" d="M288.1 484h42.2M62.2 26.4l42.5 413.3 42.5-208.6 42.6-4.3 42.5-196 42.5.5 42.5-3.6 42.6 1.9 42.5-.7 42.5-2.4 42.5-.1 42.6.2 42.5-.2H615"/><use xlink:href="#g" transform="matrix(4.5 0 0 4.5 62.2 26.4)" color="#9400D3"/><use xlink:href="#g" transform="matrix(4.5 0 0 4.5 104.7 439.7)" color="#9400D3"/><use xlink:href="#g" transform="matrix(4.5 0 0 4.5 147.2 231.1)" color="#9400D3"/><use xlink:href="#g" transform="matrix(4.5 0 0 4.5 189.8 226.8)" color="#9400D3"/><use xlink:href="#g" transform="matrix(4.5 0 0 4.5 232.3 30.8)" color="#9400D3"/><use xlink:href="#g" transform="matrix(4.5 0 0 4.5 274.8 31.3)" color="#9400D3"/><use xlink:href="#g" transform="matrix(4.5 0 0 4.5 317.3 27.7)" color="#9400D3"/><use xlink:href="#g" transform="matrix(4.5 0 0 4.5 359.9 29.6)" color="#9400D3"/><use xlink:href="#g" transform="matrix(4.5 0 0 4.5 402.4 28.9)" color="#9400D3"/><use xlink:href="#g" transform="matrix(4.5 0 0 4.5 444.9 26.5)" color="#9400D3"/><use xlink:href="#g" transform="matrix(4.5 0 0 4.5 487.4 26.4)" color="#9400D3"/><use xlink:href="#g" transform="matrix(4.5 0 0 4.5 530 26.6)" color="#9400D3"/><use xlink:href="#g" transform="matrix(4.5 0 0 4.5 572.5 26.4)" color="#9400D3"/><use xlink:href="#g" transform="matrix(4.5 0 0 4.5 615 26.4)" color="#9400D3"/><use xlink:href="#g" transform="matrix(4.5 0 0 4.5 309.2 484)" color="#9400D3"/></g><text transform="translate(279.8 505.9)" stroke="none" fill="#000" font-family="Arial" font-size="12" text-anchor="end" color="#000"><tspan>score:p90mean</tspan></text><g fill="none" color="#000" stroke="currentColor"><path stroke="#009E73" d="M288.1 502h42.2M62.2 26.4l42.5 373.2 42.5-189.3 42.6.6 42.5-181.1 42.5.6 42.5-3 42.6 1.6 42.5-.7 42.5-1.8 42.5-.1 42.6.2 42.5-.2H615"/><use xlink:href="#h" transform="matrix(4.5 0 0 4.5 62.2 26.4)" color="#009E73"/><use xlink:href="#h" transform="matrix(4.5 0 0 4.5 104.7 399.6)" color="#009E73"/><use xlink:href="#h" transform="matrix(4.5 0 0 4.5 147.2 210.3)" color="#009E73"/><use xlink:href="#h" transform="matrix(4.5 0 0 4.5 189.8 210.9)" color="#009E73"/><use xlink:href="#h" transform="matrix(4.5 0 0 4.5 232.3 29.8)" color="#009E73"/><use xlink:href="#h" transform="matrix(4.5 0 0 4.5 274.8 30.4)" color="#009E73"/><use xlink:href="#h" transform="matrix(4.5 0 0 4.5 317.3 27.4)" color="#009E73"/><use xlink:href="#h" transform="matrix(4.5 0 0 4.5 359.9 29)" color="#009E73"/><use xlink:href="#h" transform="matrix(4.5 0 0 4.5 402.4 28.3)" color="#009E73"/><use xlink:href="#h" transform="matrix(4.5 0 0 4.5 444.9 26.5)" color="#009E73"/><use xlink:href="#h" transform="matrix(4.5 0 0 4.5 487.4 26.4)" color="#009E73"/><use xlink:href="#h" transform="matrix(4.5 0 0 4.5 530 26.6)" color="#009E73"/><use xlink:href="#h" transform="matrix(4.5 0 0 4.5 572.5 26.4)" color="#009E73"/><use xlink:href="#h" transform="matrix(4.5 0 0 4.5 615 26.4)" color="#009E73"/><use xlink:href="#h" transform="matrix(4.5 0 0 4.5 309.2 502)" color="#009E73"/></g><text transform="translate(463.1 487.9)" stroke="none" fill="#000" font-family="Arial" font-size="12" text-anchor="end" color="#000"><tspan>score:p90median</tspan></text><g fill="none" color="#000" stroke="currentColor"><path stroke="#56B4E9" d="M471.4 484h42.2M62.2 26.4l42.5 376.9 42.5-194.2 42.6 1.7 42.5-180.9 42.5.5 42.5-3 42.6 1.6 42.5-.6 42.5-1.9 42.5-.1 42.6.2 42.5-.2H615"/><use xlink:href="#i" transform="matrix(4.5 0 0 4.5 62.2 26.4)" color="#56B4E9"/><use xlink:href="#i" transform="matrix(4.5 0 0 4.5 104.7 403.3)" color="#56B4E9"/><use xlink:href="#i" transform="matrix(4.5 0 0 4.5 147.2 209.1)" color="#56B4E9"/><use xlink:href="#i" transform="matrix(4.5 0 0 4.5 189.8 210.8)" color="#56B4E9"/><use xlink:href="#i" transform="matrix(4.5 0 0 4.5 232.3 29.9)" color="#56B4E9"/><use xlink:href="#i" transform="matrix(4.5 0 0 4.5 274.8 30.4)" color="#56B4E9"/><use xlink:href="#i" transform="matrix(4.5 0 0 4.5 317.3 27.4)" color="#56B4E9"/><use xlink:href="#i" transform="matrix(4.5 0 0 4.5 359.9 29)" color="#56B4E9"/><use xlink:href="#i" transform="matrix(4.5 0 0 4.5 402.4 28.4)" color="#56B4E9"/><use xlink:href="#i" transform="matrix(4.5 0 0 4.5 444.9 26.5)" color="#56B4E9"/><use xlink:href="#i" transform="matrix(4.5 0 0 4.5 487.4 26.4)" color="#56B4E9"/><use xlink:href="#i" transform="matrix(4.5 0 0 4.5 530 26.6)" color="#56B4E9"/><use xlink:href="#i" transform="matrix(4.5 0 0 4.5 572.5 26.4)" color="#56B4E9"/><use xlink:href="#i" transform="matrix(4.5 0 0 4.5 615 26.4)" color="#56B4E9"/><use xlink:href="#i" transform="matrix(4.5 0 0 4.5 492.5 484)" color="#56B4E9"/></g><g><text transform="translate(463.1 505.9)" stroke="none" fill="#000" font-family="Arial" font-size="12" text-anchor="end" color="#000"><tspan>score:p90max</tspan></text><g fill="none" color="#000" stroke="currentColor"><path stroke="#E69F00" d="M471.4 502h42.2M62.2 26.4l42.5 334.1 42.5-164.8 42.6 2.7 42.5-169.6 42.5.6 42.5-2.4 42.6 1.5 42.5-.6 42.5-1.5h42.5l42.6.1 42.5-.1H615"/><use xlink:href="#d" transform="matrix(4.5 0 0 4.5 62.2 26.4)" color="#E69F00"/><use xlink:href="#d" transform="matrix(4.5 0 0 4.5 104.7 360.5)" color="#E69F00"/><use xlink:href="#d" transform="matrix(4.5 0 0 4.5 147.2 195.7)" color="#E69F00"/><use xlink:href="#d" transform="matrix(4.5 0 0 4.5 189.8 198.4)" color="#E69F00"/><use xlink:href="#d" transform="matrix(4.5 0 0 4.5 232.3 28.8)" color="#E69F00"/><use xlink:href="#d" transform="matrix(4.5 0 0 4.5 274.8 29.4)" color="#E69F00"/><use xlink:href="#d" transform="matrix(4.5 0 0 4.5 317.3 27)" color="#E69F00"/><use xlink:href="#d" transform="matrix(4.5 0 0 4.5 359.9 28.5)" color="#E69F00"/><use xlink:href="#d" transform="matrix(4.5 0 0 4.5 402.4 27.9)" color="#E69F00"/><use xlink:href="#d" transform="matrix(4.5 0 0 4.5 444.9 26.4)" color="#E69F00"/><use xlink:href="#d" transform="matrix(4.5 0 0 4.5 487.4 26.4)" color="#E69F00"/><use xlink:href="#d" transform="matrix(4.5 0 0 4.5 530 26.5)" color="#E69F00"/><use xlink:href="#d" transform="matrix(4.5 0 0 4.5 572.5 26.4)" color="#E69F00"/><use xlink:href="#d" transform="matrix(4.5 0 0 4.5 615 26.4)" color="#E69F00"/><use xlink:href="#d" transform="matrix(4.5 0 0 4.5 492.5 502)" color="#E69F00"/></g></g><g fill="none" color="#000" stroke="currentColor"><path stroke="#000" d="M62.2 18.1V448H615V18.1H62.2z"/></g></svg>