<svg width="640" height="500" xmlns="http://www.w3.org/2000/svg" xmlns:xlink="http://www.w3.org/1999/xlink"><path fill="#fff" d="M0 0h640v500H0z"/><defs><path id="d" stroke-width=".222" stroke="currentColor" d="M-1-1h2v2h-2z"/><path id="b" stroke-width=".222" stroke="currentColor" d="M0-1.33l-1.33 2h2.66z"/><path id="f" stroke-width=".222" stroke="currentColor" d="M0 1.33L1.265.411.782-1.067l-1.564-.009-.483 1.487z"/><use xlink:href="#b" id="c" stroke="currentColor" transform="rotate(180)"/><use xlink:href="#d" id="e" stroke="currentColor" transform="rotate(45)"/><circle id="a" stroke-width=".222" stroke="currentColor" cx="0" cy="0" r="1"/></defs><g fill="none" color="#000" stroke="currentColor"><path stroke="#000" d="M53.9 352.7h9m552.1 0h-9"/><text transform="translate(45.6 356.6)" stroke="none" fill="#000" font-family="Arial" font-size="12" text-anchor="end"><tspan>3.5</tspan></text></g><g fill="none" color="#000" stroke="currentColor"><path stroke="#000" d="M53.9 266.7h9m552.1 0h-9"/><text transform="translate(45.6 270.6)" stroke="none" fill="#000" font-family="Arial" font-size="12" text-anchor="end"><tspan>4</tspan></text></g><g fill="none" color="#000" stroke="currentColor"><path stroke="#000" d="M53.9 180.6h9m552.1 0h-9"/><text transform="translate(45.6 184.5)" stroke="none" fill="#000" font-family="Arial" font-size="12" text-anchor="end"><tspan>4.5</tspan></text></g><g fill="none" color="#000" stroke="currentColor"><path stroke="#000" d="M53.9 94.6h9m552.1 0h-9"/><text transform="translate(45.6 98.5)" stroke="none" fill="#000" font-family="Arial" font-size="12" text-anchor="end"><tspan>5</tspan></text></g><g fill="none" color="#000" stroke="currentColor"><path stroke="#000" d="M53.9 428v-9m0-400.9v9"/><text transform="translate(53.9 449.9)" stroke="none" fill="#000" font-family="Arial" font-size="12" text-anchor="middle"><tspan>0</tspan></text></g><g fill="none" color="#000" stroke="currentColor"><path stroke="#000" d="M110.6 428v-9m0-400.9v9"/><text transform="translate(110.6 449.9)" stroke="none" fill="#000" font-family="Arial" font-size="12" text-anchor="middle"><tspan>10</tspan></text></g><g fill="none" color="#000" stroke="currentColor"><path stroke="#000" d="M167.3 428v-9m0-400.9v9"/><text transform="translate(167.3 449.9)" stroke="none" fill="#000" font-family="Arial" font-size="12" text-anchor="middle"><tspan>20</tspan></text></g><g fill="none" color="#000" stroke="currentColor"><path stroke="#000" d="M223.9 428v-9m0-400.9v9"/><text transform="translate(223.9 449.9)" stroke="none" fill="#000" font-family="Arial" font-size="12" text-anchor="middle"><tspan>30</tspan></text></g><g fill="none" color="#000" stroke="currentColor"><path stroke="#000" d="M280.6 428v-9m0-400.9v9"/><text transform="translate(280.6 449.9)" stroke="none" fill="#000" font-family="Arial" font-size="12" text-anchor="middle"><tspan>40</tspan></text></g><g fill="none" color="#000" stroke="currentColor"><path stroke="#000" d="M337.3 428v-9m0-400.9v9"/><text transform="translate(337.3 449.9)" stroke="none" fill="#000" font-family="Arial" font-size="12" text-anchor="middle"><tspan>50</tspan></text></g><g fill="none" color="#000" stroke="currentColor"><path stroke="#000" d="M394 428v-9m0-400.9v9"/><text transform="translate(394 449.9)" stroke="none" fill="#000" font-family="Arial" font-size="12" text-anchor="middle"><tspan>60</tspan></text></g><g fill="none" color="#000" stroke="currentColor"><path stroke="#000" d="M450.6 428v-9m0-400.9v9"/><text transform="translate(450.6 449.9)" stroke="none" fill="#000" font-family="Arial" font-size="12" text-anchor="middle"><tspan>70</tspan></text></g><g fill="none" color="#000" stroke="currentColor"><path stroke="#000" d="M507.3 428v-9m0-400.9v9"/><text transform="translate(507.3 449.9)" stroke="none" fill="#000" font-family="Arial" font-size="12" text-anchor="middle"><tspan>80</tspan></text></g><g fill="none" color="#000" stroke="currentColor"><path stroke="#000" d="M564 428v-9m0-400.9v9"/><text transform="translate(564 449.9)" stroke="none" fill="#000" font-family="Arial" font-size="12" text-anchor="middle"><tspan>90</tspan></text></g><path stroke="#000" d="M53.9 18.1V428H615V18.1H53.9z" fill="none" color="#000"/><text transform="translate(508.4 467.9)" stroke="none" fill="#000" font-family="Arial" font-size="12" text-anchor="end" color="#000"><tspan>pages+cached+noexternal+nofonts+nosvg+noimg</tspan></text><path stroke="#9400D3" d="M516.7 464h42.2m-505-193.1l5.7 15.9 5.6 40.6 5.7-196 5.7 186.2 5.6 3.6 5.7-52.5 5.7 68.1 5.6 18.4 5.7-161.7 5.7 88.2 5.6-13.1 5.7 2.9 5.7-86.1 5.6-5.3 5.7 67.1 5.7-108.6 5.7 27.7 5.6 178.9 5.7 48.7 5.7-42.5 5.6-215.5 5.7 215.2 5.7-165 5.6 118.5 5.7 85 5.7-22.9 5.6-29.1 5.7-207.2 5.7 57.5 5.6 34.9 5.7 23.9 5.7 50.7 5.6 41.8 5.7-2.9 5.7-19.1 5.6-36.6 5.7-27.8 5.7 84 5.6-64.5 5.7-23.2 5.7 32 5.6-18.9 5.7-14 5.7 52 5.6-6.8 5.7-93.5 5.7 150.7 5.6-77.9 5.7 112.7 5.7-8.1L343 246l5.6 101.2 5.7-160.9 5.7 124.3 5.6-139.4 5.7 132.1 5.7-38.5 5.6 23.3 5.7 31.4 5.7-96.7 5.6-42.8 5.7 155.4 5.7-71 5.6-28.1 5.7-44.3 5.7 58.2 5.6-168.6 5.7 188.5 5.7 7.5 5.6-132.8 5.7 115.8 5.7 13.9 5.6-130.7 5.7 235.1 5.7-131.7 5.6-93 5.7 54.6L496 84.2l5.6 141.3 5.7 129.5 5.7-173.6 5.6 112.5 5.7 29.6 5.7-8.9 5.7-15.1 5.6-18.4 5.7 9.4 5.7-74.8 5.6 38.7 5.7-76.1 5.7 62.3 5.6-19.4L581 296l5.7 45.3 5.6-54.2 5.7 18.7 5.7-65 5.6 34.1L615 97.6" fill="none" color="#000"/><text transform="translate(508.4 485.9)" stroke="none" fill="#000" font-family="Arial" font-size="12" text-anchor="end" color="#000"><tspan>pages+cached+noexternal+nofonts+nosvg+noimg+nocss</tspan></text><path stroke="#009E73" d="M516.7 482h42.2m-505-206.9l5.7-44.4 5.6-133.1 5.7 44.2 5.7 117.1 5.6 77.2 5.7-190.3 5.7 66.1L99.2 348l5.7-35.5 5.7-98.1 5.6 82.3 5.7-183.2 5.7 221.6 5.6-11.2 5.7-112.8 5.7-96.8 5.7-88.3 5.6 131.6 5.7 13.1 5.7-132.8 5.6 255.1 5.7-43.5 5.7-32.3 5.6 180.3 5.7-85.7 5.7-206.6 5.6 87.7 5.7 159.4 5.7-45.7 5.6-2.1 5.7-106.4 5.7 11.4 5.6 150.5 5.7-111 5.7 65 5.6-82.6 5.7 29.2 5.7-180.5 5.6 206.5 5.7-57.3 5.7 80 5.6-43.3 5.7-221.1 5.7 264.2 5.6-17.7 5.7-52.6 5.7 23.4 5.6-73.8 5.7 99.1 5.7-69.8 5.7 91.7 5.6 22.1 5.7-69.9 5.7 1.2 5.6 70 5.7-132.4 5.7-8.1 5.6 45.5 5.7 23.9 5.7-98.5 5.6 153.4 5.7-62 5.7 165.5 5.6-160.1 5.7 51.3 5.7-79.9 5.6 115.8 5.7-106.5 5.7 40.7 5.6 28.2 5.7-107.4 5.7 14.9 5.6 82.8 5.7-220.8 5.7 134.3 5.6 63.5 5.7 4.3 5.7 99.9 5.6-185.5 5.7 52.5 5.7-39.2 5.6-46.8 5.7 85.1 5.7 34.5 5.7-13.5 5.6 59.9 5.7-70.4 5.7 18.2 5.6-48 5.7-90.1 5.7 169.2 5.6-44.6 5.7 92.1 5.7-157.5 5.6 101 5.7-174.6 5.7-7.2 5.6 92.7L615 49.1" fill="none" color="#000"/><g fill="none" color="#000" stroke="currentColor"><path stroke="#000" d="M53.9 18.1V428H615V18.1H53.9z"/></g></svg>