<svg width="640" height="500" xmlns="http://www.w3.org/2000/svg" xmlns:xlink="http://www.w3.org/1999/xlink"><path fill="#fff" d="M0 0h640v500H0z"/><defs><path id="d" stroke-width=".222" stroke="currentColor" d="M-1-1h2v2h-2z"/><path id="b" stroke-width=".222" stroke="currentColor" d="M0-1.33l-1.33 2h2.66z"/><path id="f" stroke-width=".222" stroke="currentColor" d="M0 1.33L1.265.411.782-1.067l-1.564-.009-.483 1.487z"/><use xlink:href="#b" id="c" stroke="currentColor" transform="rotate(180)"/><use xlink:href="#d" id="e" stroke="currentColor" transform="rotate(45)"/><circle id="a" stroke-width=".222" stroke="currentColor" cx="0" cy="0" r="1"/></defs><g fill="none" color="#000" stroke="currentColor"><path stroke="#000" d="M53.9 360.1h9m552.1 0h-9"/><text transform="translate(45.6 364)" stroke="none" fill="#000" font-family="Arial" font-size="12" text-anchor="end"><tspan>3.5</tspan></text></g><g fill="none" color="#000" stroke="currentColor"><path stroke="#000" d="M53.9 283.5h9m552.1 0h-9"/><text transform="translate(45.6 287.4)" stroke="none" fill="#000" font-family="Arial" font-size="12" text-anchor="end"><tspan>4</tspan></text></g><g fill="none" color="#000" stroke="currentColor"><path stroke="#000" d="M53.9 206.9h9m552.1 0h-9"/><text transform="translate(45.6 210.8)" stroke="none" fill="#000" font-family="Arial" font-size="12" text-anchor="end"><tspan>4.5</tspan></text></g><g fill="none" color="#000" stroke="currentColor"><path stroke="#000" d="M53.9 130.3h9m552.1 0h-9"/><text transform="translate(45.6 134.2)" stroke="none" fill="#000" font-family="Arial" font-size="12" text-anchor="end"><tspan>5</tspan></text></g><g fill="none" color="#000" stroke="currentColor"><path stroke="#000" d="M53.9 53.7h9m552.1 0h-9"/><text transform="translate(45.6 57.6)" stroke="none" fill="#000" font-family="Arial" font-size="12" text-anchor="end"><tspan>5.5</tspan></text></g><g fill="none" color="#000" stroke="currentColor"><path stroke="#000" d="M53.9 428v-9m0-400.9v9"/><text transform="translate(53.9 449.9)" stroke="none" fill="#000" font-family="Arial" font-size="12" text-anchor="middle"><tspan>0</tspan></text></g><g fill="none" color="#000" stroke="currentColor"><path stroke="#000" d="M110.6 428v-9m0-400.9v9"/><text transform="translate(110.6 449.9)" stroke="none" fill="#000" font-family="Arial" font-size="12" text-anchor="middle"><tspan>10</tspan></text></g><g fill="none" color="#000" stroke="currentColor"><path stroke="#000" d="M167.3 428v-9m0-400.9v9"/><text transform="translate(167.3 449.9)" stroke="none" fill="#000" font-family="Arial" font-size="12" text-anchor="middle"><tspan>20</tspan></text></g><g fill="none" color="#000" stroke="currentColor"><path stroke="#000" d="M223.9 428v-9m0-400.9v9"/><text transform="translate(223.9 449.9)" stroke="none" fill="#000" font-family="Arial" font-size="12" text-anchor="middle"><tspan>30</tspan></text></g><g fill="none" color="#000" stroke="currentColor"><path stroke="#000" d="M280.6 428v-9m0-400.9v9"/><text transform="translate(280.6 449.9)" stroke="none" fill="#000" font-family="Arial" font-size="12" text-anchor="middle"><tspan>40</tspan></text></g><g fill="none" color="#000" stroke="currentColor"><path stroke="#000" d="M337.3 428v-9m0-400.9v9"/><text transform="translate(337.3 449.9)" stroke="none" fill="#000" font-family="Arial" font-size="12" text-anchor="middle"><tspan>50</tspan></text></g><g fill="none" color="#000" stroke="currentColor"><path stroke="#000" d="M394 428v-9m0-400.9v9"/><text transform="translate(394 449.9)" stroke="none" fill="#000" font-family="Arial" font-size="12" text-anchor="middle"><tspan>60</tspan></text></g><g fill="none" color="#000" stroke="currentColor"><path stroke="#000" d="M450.6 428v-9m0-400.9v9"/><text transform="translate(450.6 449.9)" stroke="none" fill="#000" font-family="Arial" font-size="12" text-anchor="middle"><tspan>70</tspan></text></g><g fill="none" color="#000" stroke="currentColor"><path stroke="#000" d="M507.3 428v-9m0-400.9v9"/><text transform="translate(507.3 449.9)" stroke="none" fill="#000" font-family="Arial" font-size="12" text-anchor="middle"><tspan>80</tspan></text></g><g fill="none" color="#000" stroke="currentColor"><path stroke="#000" d="M564 428v-9m0-400.9v9"/><text transform="translate(564 449.9)" stroke="none" fill="#000" font-family="Arial" font-size="12" text-anchor="middle"><tspan>90</tspan></text></g><path stroke="#000" d="M53.9 18.1V428H615V18.1H53.9z" fill="none" color="#000"/><text transform="translate(529.1 467.9)" stroke="none" fill="#000" font-family="Arial" font-size="12" text-anchor="end" color="#000"><tspan>pages+cached+noexternal+nofonts+nosvg+noimg+nocss</tspan></text><path stroke="#9400D3" d="M537.4 464h42.2M53.9 291l5.7-39.5L65.2 133l5.7 39.3 5.7 104.3 5.6 68.7 5.7-169.4 5.7 58.8 5.6 121.2 5.7-31.6 5.7-87.3 5.6 73.2 5.7-163 5.7 197.2 5.6-9.9 5.7-100.5 5.7-86.2 5.7-78.6 5.6 117.2 5.7 11.7 5.7-118.3 5.6 227.2 5.7-38.8 5.7-28.7 5.6 160.5 5.7-76.3 5.7-184 5.6 78.1 5.7 141.9 5.7-40.7 5.6-1.8 5.7-94.8 5.7 10.2 5.6 134 5.7-98.8 5.7 57.9 5.6-73.6 5.7 26 5.7-160.7 5.6 183.8 5.7-51 5.7 71.2 5.6-38.5L297.6 86l5.7 235.2 5.6-15.6 5.7-46.9 5.7 20.9 5.6-65.8 5.7 88.2 5.7-62.1 5.7 81.7 5.6 19.6 5.7-62.2 5.7 1.1 5.6 62.3 5.7-117.9 5.7-7.2 5.6 40.5 5.7 21.2 5.7-87.7 5.6 136.7 5.7-55.3 5.7 147.4 5.6-142.6 5.7 45.7 5.7-71.1 5.6 103.1 5.7-94.8 5.7 36.2 5.6 25.1 5.7-95.6 5.7 13.2 5.6 73.8 5.7-196.6L479 236l5.6 56.6 5.7 3.8 5.7 89 5.6-165.2 5.7 46.7L513 232l5.6-41.7 5.7 75.8 5.7 30.7 5.7-11.9 5.6 53.3 5.7-62.7 5.7 16.2 5.6-42.7 5.7-80.3 5.7 150.7 5.6-39.7 5.7 82 5.7-140.2 5.6 89.8 5.7-155.4 5.7-6.4 5.6 82.6L615 89.8" fill="none" color="#000"/><text transform="translate(529.1 485.9)" stroke="none" fill="#000" font-family="Arial" font-size="12" text-anchor="end" color="#000"><tspan>pages+cached+noexternal+nofonts+nosvg+noimg+nocss+nojs</tspan></text><path stroke="#009E73" d="M537.4 482h42.2M53.9 99l5.7 181.7 5.6-77.7 5.7 136.2 5.7-190.8L82.2 302l5.7-144.4 5.7 110.8 5.6-132.6 5.7 24.4 5.7 3.5 5.6-64.9 5.7 232 5.7-151.1 5.6-11.2 5.7-34.3 5.7 26.9 5.7-30.5 5.6 54.7 5.7 1.9L167.3 26l5.6 182.7 5.7-29.3 5.7-.8 5.6-52.2 5.7 31.7L201.3 50l5.6 95.5 5.7 47 5.7-97.9 5.6-14.5 5.7 198 5.7-144.9 5.6 11.8 5.7 84.7 5.7-102.6 5.6 122.2 5.7-118.9 5.7 21.2 5.6 103.1 5.7 37.6 5.7-182.8 5.6 111.7 5.7 1.6 5.7 143.8 5.6-216.6 5.7-9.1 5.7-99.5 5.6 9.2 5.7 101.7 5.7 66.7 5.7-8.5 5.6-84.2 5.7 94.4 5.7-112.3 5.6 96.6 5.7-104.1 5.7-14.8 5.6 40.4 5.7-9.9 5.7 65.8 5.6-9 5.7-21.9 5.7-4.5 5.6 103.4 5.7 10.5 5.7-142.8 5.6 18.6 5.7 46.2 5.7 130.9 5.6-157.1 5.7 61.3 5.7-115.7 5.6 13.5 5.7 96.4 5.7-29.3 5.6-98.4 5.7 97.5 5.7-7.7 5.6-18.6 5.7 57.2L513 89.5l5.6 234.3 5.7-229.9L530 230l5.7-97 5.6 50.1 5.7 43.5L552.7 79l5.6 128.7 5.7-61.6 5.7 36.6 5.6-99.7 5.7 68.1 5.7 164 5.6-75.2 5.7-42.1 5.7-36.4 5.6-46.5 5.7 200.5" fill="none" color="#000"/><g fill="none" color="#000" stroke="currentColor"><path stroke="#000" d="M53.9 18.1V428H615V18.1H53.9z"/></g></svg>