<svg width="640" height="500" xmlns="http://www.w3.org/2000/svg" xmlns:xlink="http://www.w3.org/1999/xlink"><path fill="#fff" d="M0 0h640v500H0z"/><defs><path id="d" stroke-width=".222" stroke="currentColor" d="M-1-1h2v2h-2z"/><path id="b" stroke-width=".222" stroke="currentColor" d="M0-1.33l-1.33 2h2.66z"/><path id="f" stroke-width=".222" stroke="currentColor" d="M0 1.33L1.265.411.782-1.067l-1.564-.009-.483 1.487z"/><use xlink:href="#b" id="c" stroke="currentColor" transform="rotate(180)"/><use xlink:href="#d" id="e" stroke="currentColor" transform="rotate(45)"/><circle id="a" stroke-width=".222" stroke="currentColor" cx="0" cy="0" r="1"/></defs><g fill="none" color="#000" stroke="currentColor"><path stroke="#000" d="M45.6 400.7h9m560.4 0h-9"/><text transform="translate(37.3 404.6)" stroke="none" fill="#000" font-family="Arial" font-size="12" text-anchor="end"><tspan>5</tspan></text></g><g fill="none" color="#000" stroke="currentColor"><path stroke="#000" d="M45.6 343h9m560.4 0h-9"/><text transform="translate(37.3 346.9)" stroke="none" fill="#000" font-family="Arial" font-size="12" text-anchor="end"><tspan>6</tspan></text></g><g fill="none" color="#000" stroke="currentColor"><path stroke="#000" d="M45.6 285.4h9m560.4 0h-9"/><text transform="translate(37.3 289.3)" stroke="none" fill="#000" font-family="Arial" font-size="12" text-anchor="end"><tspan>7</tspan></text></g><g fill="none" color="#000" stroke="currentColor"><path stroke="#000" d="M45.6 227.7h9m560.4 0h-9"/><text transform="translate(37.3 231.6)" stroke="none" fill="#000" font-family="Arial" font-size="12" text-anchor="end"><tspan>8</tspan></text></g><g fill="none" color="#000" stroke="currentColor"><path stroke="#000" d="M45.6 170.1h9m560.4 0h-9"/><text transform="translate(37.3 174)" stroke="none" fill="#000" font-family="Arial" font-size="12" text-anchor="end"><tspan>9</tspan></text></g><g fill="none" color="#000" stroke="currentColor"><path stroke="#000" d="M45.6 112.4h9m560.4 0h-9"/><text transform="translate(37.3 116.3)" stroke="none" fill="#000" font-family="Arial" font-size="12" text-anchor="end"><tspan>10</tspan></text></g><g fill="none" color="#000" stroke="currentColor"><path stroke="#000" d="M45.6 54.8h9m560.4 0h-9"/><text transform="translate(37.3 58.7)" stroke="none" fill="#000" font-family="Arial" font-size="12" text-anchor="end"><tspan>11</tspan></text></g><g fill="none" color="#000" stroke="currentColor"><path stroke="#000" d="M45.6 446v-9m0-418.9v9"/><text transform="translate(45.6 467.9)" stroke="none" fill="#000" font-family="Arial" font-size="12" text-anchor="middle"><tspan>0</tspan></text></g><g fill="none" color="#000" stroke="currentColor"><path stroke="#000" d="M103.1 446v-9m0-418.9v9"/><text transform="translate(103.1 467.9)" stroke="none" fill="#000" font-family="Arial" font-size="12" text-anchor="middle"><tspan>10</tspan></text></g><g fill="none" color="#000" stroke="currentColor"><path stroke="#000" d="M160.6 446v-9m0-418.9v9"/><text transform="translate(160.6 467.9)" stroke="none" fill="#000" font-family="Arial" font-size="12" text-anchor="middle"><tspan>20</tspan></text></g><g fill="none" color="#000" stroke="currentColor"><path stroke="#000" d="M218.1 446v-9m0-418.9v9"/><text transform="translate(218.1 467.9)" stroke="none" fill="#000" font-family="Arial" font-size="12" text-anchor="middle"><tspan>30</tspan></text></g><g fill="none" color="#000" stroke="currentColor"><path stroke="#000" d="M275.7 446v-9m0-418.9v9"/><text transform="translate(275.7 467.9)" stroke="none" fill="#000" font-family="Arial" font-size="12" text-anchor="middle"><tspan>40</tspan></text></g><g fill="none" color="#000" stroke="currentColor"><path stroke="#000" d="M333.2 446v-9m0-418.9v9"/><text transform="translate(333.2 467.9)" stroke="none" fill="#000" font-family="Arial" font-size="12" text-anchor="middle"><tspan>50</tspan></text></g><g fill="none" color="#000" stroke="currentColor"><path stroke="#000" d="M390.7 446v-9m0-418.9v9"/><text transform="translate(390.7 467.9)" stroke="none" fill="#000" font-family="Arial" font-size="12" text-anchor="middle"><tspan>60</tspan></text></g><g fill="none" color="#000" stroke="currentColor"><path stroke="#000" d="M448.2 446v-9m0-418.9v9"/><text transform="translate(448.2 467.9)" stroke="none" fill="#000" font-family="Arial" font-size="12" text-anchor="middle"><tspan>70</tspan></text></g><g fill="none" color="#000" stroke="currentColor"><path stroke="#000" d="M505.7 446v-9m0-418.9v9"/><text transform="translate(505.7 467.9)" stroke="none" fill="#000" font-family="Arial" font-size="12" text-anchor="middle"><tspan>80</tspan></text></g><g fill="none" color="#000" stroke="currentColor"><path stroke="#000" d="M563.2 446v-9m0-418.9v9"/><text transform="translate(563.2 467.9)" stroke="none" fill="#000" font-family="Arial" font-size="12" text-anchor="middle"><tspan>90</tspan></text></g><path stroke="#000" d="M45.6 18.1V446H615V18.1H45.6z" fill="none" color="#000"/><text transform="translate(271.5 485.9)" stroke="none" fill="#000" font-family="Arial" font-size="12" text-anchor="end" color="#000"><tspan>pages+cached+noadtech</tspan></text><path stroke="#9400D3" d="M279.8 482H322M45.6 267.2l5.8-37.9 5.7 37.3 5.8 34.7 5.7-54.6 5.8 14.1 5.7 17.5 5.8-31.2 5.7-43.9L97.4 326l5.7-82.4 5.8 83.8 5.7-51.6 5.8-35.2 5.7-111.3 5.8 74.9 5.7 106.8 5.8-32.5 5.7-47.3 5.8-32.9 5.7 16.6 5.8 54.1 5.7 64.7 5.8-78.6 5.7 92.8 5.8-46 5.7-1 5.8-75.5 5.7 78.9 5.8 29.2 5.7-137 5.8 102.8 5.7-19.8 5.8-8.6 5.8 9.5 5.7-65.9 5.8 37.2 5.7 62.8 5.8-32.6 5.7 44.5 5.8-14.2 5.7-58 5.8 27.4 5.7-47.3 5.8 43.5 5.7-41.3 5.8 8.9 5.7 25.2 5.8 40.7 5.7-10.2 5.8-76.2 5.7 28 5.8-25.2 5.7 65.6 5.8-.3 5.7-61.5 5.8 25.7 5.7 32.3 5.8-91.9 5.7-171.3 5.8 174.7 5.7 4.4 5.8 232.4 5.7-123.7 5.8-38.5 5.7 1.1 5.8-32.1 5.8 72.9 5.7 17.5 5.8-27.8 5.7-45.1 5.8-4.6 5.7 125 5.8-110.3 5.7-28.9 5.8 30.5 5.7-92.6 5.8 140.5 5.7 1.2 5.8-27.5 5.7-43.8 5.8 152.1 5.7-95.7 5.8-108.1 5.7 57.3 5.8 14 5.7 87.6 5.8-5.5 5.7-79.6 5.8-58.9 5.7 137.8 5.8-129.4 5.7 158.9 5.8-81.2 5.7 49.4 5.8-154.5 5.7 153.9 5.8 18.8 5.7-126.8 5.8 40.4" fill="none" color="#000"/><text transform="translate(521.2 485.9)" stroke="none" fill="#000" font-family="Arial" font-size="12" text-anchor="end" color="#000"><tspan>pages+cached+noexternal</tspan></text><path stroke="#009E73" d="M529.5 482h42.2M45.6 260.7l5.8 133.4 5.7-33.9 5.8-101 5.7 101 5.8 8.3 5.7 27.4 5.8-41.2 5.7 11.6 5.8-13.7 5.7 7.8 5.8-2.8 5.7-47.1 5.8 55.2 5.7 8.9 5.8 3.8 5.7-62 5.8.8 5.7 38.3 5.8 21.9 5.7-49.5 5.8 34 5.7 31.5 5.8 11 5.7-54.7 5.8-30.3 5.7 57.3 5.8-14.3 5.7-39.2 5.8-35.9 5.7 79.1 5.8-5.1 5.7 33.9 5.8-30.6 5.8 14 5.7-49.8 5.8-14.6 5.7 45.4 5.8 17.4 5.7-77.3 5.8 117.7 5.7-53.4 5.8-50.1 5.7 61.9 5.8-38.6 5.7 10.3 5.8-40.4 5.7 60.9 5.8-17.4 5.7 53.7 5.8-63 5.7-20.9 5.8 8.3 5.7 32.2 5.8-9.4 5.7 39.2 5.8-4.3 5.7-69.7 5.8 9.8 5.7 50.6 5.8-131.4 5.7 67.2 5.8 39.1 5.7 4.3 5.8-25.2 5.7 12.7 5.8-36.1 5.8 76.6 5.7-50.1 5.8 66.4 5.7-39.2 5.8 7.3 5.7-26.1 5.8 15.6 5.7 44.8 5.8-68.9 5.7 53 5.8-64.6 5.7 76.5 5.8-64.4 5.7 12.9 5.8 65.1 5.7-76.2 5.8 3.7 5.7-10.5 5.8 51 5.7-74.8 5.8 27.5 5.7 17.1 5.8 27.6 5.7-43.4L569 388l5.7.6 5.8-2.6 5.7 35.9 5.8-12.1 5.7-101.9 5.8 9 5.7 60.6 5.8-77.3" fill="none" color="#000"/><g fill="none" color="#000" stroke="currentColor"><path stroke="#000" d="M45.6 18.1V446H615V18.1H45.6z"/></g></svg>