<svg width="640" height="500" xmlns="http://www.w3.org/2000/svg" xmlns:xlink="http://www.w3.org/1999/xlink"><path fill="#fff" d="M0 0h640v500H0z"/><defs><path id="d" stroke-width=".222" stroke="currentColor" d="M-1-1h2v2h-2z"/><path id="b" stroke-width=".222" stroke="currentColor" d="M0-1.33l-1.33 2h2.66z"/><path id="f" stroke-width=".222" stroke="currentColor" d="M0 1.33L1.265.411.782-1.067l-1.564-.009-.483 1.487z"/><use xlink:href="#b" id="c" stroke="currentColor" transform="rotate(180)"/><use xlink:href="#d" id="e" stroke="currentColor" transform="rotate(45)"/><circle id="a" stroke-width=".222" stroke="currentColor" cx="0" cy="0" r="1"/></defs><g fill="none" color="#000" stroke="currentColor"><path stroke="#000" d="M53.9 426.9h9m552.1 0h-9"/><text transform="translate(45.6 430.8)" stroke="none" fill="#000" font-family="Arial" font-size="12" text-anchor="end"><tspan>3</tspan></text></g><g fill="none" color="#000" stroke="currentColor"><path stroke="#000" d="M53.9 384.1h9m552.1 0h-9"/><text transform="translate(45.6 388)" stroke="none" fill="#000" font-family="Arial" font-size="12" text-anchor="end"><tspan>3.5</tspan></text></g><g fill="none" color="#000" stroke="currentColor"><path stroke="#000" d="M53.9 341.4h9m552.1 0h-9"/><text transform="translate(45.6 345.3)" stroke="none" fill="#000" font-family="Arial" font-size="12" text-anchor="end"><tspan>4</tspan></text></g><g fill="none" color="#000" stroke="currentColor"><path stroke="#000" d="M53.9 298.6h9m552.1 0h-9"/><text transform="translate(45.6 302.5)" stroke="none" fill="#000" font-family="Arial" font-size="12" text-anchor="end"><tspan>4.5</tspan></text></g><g fill="none" color="#000" stroke="currentColor"><path stroke="#000" d="M53.9 255.9h9m552.1 0h-9"/><text transform="translate(45.6 259.8)" stroke="none" fill="#000" font-family="Arial" font-size="12" text-anchor="end"><tspan>5</tspan></text></g><g fill="none" color="#000" stroke="currentColor"><path stroke="#000" d="M53.9 213.1h9m552.1 0h-9"/><text transform="translate(45.6 217)" stroke="none" fill="#000" font-family="Arial" font-size="12" text-anchor="end"><tspan>5.5</tspan></text></g><g fill="none" color="#000" stroke="currentColor"><path stroke="#000" d="M53.9 170.4h9m552.1 0h-9"/><text transform="translate(45.6 174.3)" stroke="none" fill="#000" font-family="Arial" font-size="12" text-anchor="end"><tspan>6</tspan></text></g><g fill="none" color="#000" stroke="currentColor"><path stroke="#000" d="M53.9 127.6h9m552.1 0h-9"/><text transform="translate(45.6 131.5)" stroke="none" fill="#000" font-family="Arial" font-size="12" text-anchor="end"><tspan>6.5</tspan></text></g><g fill="none" color="#000" stroke="currentColor"><path stroke="#000" d="M53.9 84.9h9m552.1 0h-9"/><text transform="translate(45.6 88.8)" stroke="none" fill="#000" font-family="Arial" font-size="12" text-anchor="end"><tspan>7</tspan></text></g><g fill="none" color="#000" stroke="currentColor"><path stroke="#000" d="M53.9 42.1h9m552.1 0h-9"/><text transform="translate(45.6 46)" stroke="none" fill="#000" font-family="Arial" font-size="12" text-anchor="end"><tspan>7.5</tspan></text></g><g fill="none" color="#000" stroke="currentColor"><path stroke="#000" d="M53.9 428v-9m0-400.9v9"/><text transform="translate(53.9 449.9)" stroke="none" fill="#000" font-family="Arial" font-size="12" text-anchor="middle"><tspan>0</tspan></text></g><g fill="none" color="#000" stroke="currentColor"><path stroke="#000" d="M110.6 428v-9m0-400.9v9"/><text transform="translate(110.6 449.9)" stroke="none" fill="#000" font-family="Arial" font-size="12" text-anchor="middle"><tspan>10</tspan></text></g><g fill="none" color="#000" stroke="currentColor"><path stroke="#000" d="M167.3 428v-9m0-400.9v9"/><text transform="translate(167.3 449.9)" stroke="none" fill="#000" font-family="Arial" font-size="12" text-anchor="middle"><tspan>20</tspan></text></g><g fill="none" color="#000" stroke="currentColor"><path stroke="#000" d="M223.9 428v-9m0-400.9v9"/><text transform="translate(223.9 449.9)" stroke="none" fill="#000" font-family="Arial" font-size="12" text-anchor="middle"><tspan>30</tspan></text></g><g fill="none" color="#000" stroke="currentColor"><path stroke="#000" d="M280.6 428v-9m0-400.9v9"/><text transform="translate(280.6 449.9)" stroke="none" fill="#000" font-family="Arial" font-size="12" text-anchor="middle"><tspan>40</tspan></text></g><g fill="none" color="#000" stroke="currentColor"><path stroke="#000" d="M337.3 428v-9m0-400.9v9"/><text transform="translate(337.3 449.9)" stroke="none" fill="#000" font-family="Arial" font-size="12" text-anchor="middle"><tspan>50</tspan></text></g><g fill="none" color="#000" stroke="currentColor"><path stroke="#000" d="M394 428v-9m0-400.9v9"/><text transform="translate(394 449.9)" stroke="none" fill="#000" font-family="Arial" font-size="12" text-anchor="middle"><tspan>60</tspan></text></g><g fill="none" color="#000" stroke="currentColor"><path stroke="#000" d="M450.6 428v-9m0-400.9v9"/><text transform="translate(450.6 449.9)" stroke="none" fill="#000" font-family="Arial" font-size="12" text-anchor="middle"><tspan>70</tspan></text></g><g fill="none" color="#000" stroke="currentColor"><path stroke="#000" d="M507.3 428v-9m0-400.9v9"/><text transform="translate(507.3 449.9)" stroke="none" fill="#000" font-family="Arial" font-size="12" text-anchor="middle"><tspan>80</tspan></text></g><g fill="none" color="#000" stroke="currentColor"><path stroke="#000" d="M564 428v-9m0-400.9v9"/><text transform="translate(564 449.9)" stroke="none" fill="#000" font-family="Arial" font-size="12" text-anchor="middle"><tspan>90</tspan></text></g><path stroke="#000" d="M53.9 18.1V428H615V18.1H53.9z" fill="none" color="#000"/><text transform="translate(433.7 467.9)" stroke="none" fill="#000" font-family="Arial" font-size="12" text-anchor="end" color="#000"><tspan>pages+cached+noexternal</tspan></text><path stroke="#9400D3" d="M442 464h42.2M53.9 48.3l5.7 197.8 5.6-50.3 5.7-149.7 5.7 149.7 5.6 12.3 5.7 40.6 5.7-61.1 5.6 17.3 5.7-20.4 5.7 11.5 5.6-4.1 5.7-69.9 5.7 81.9 5.6 13.3 5.7 5.6 5.7-92 5.7 1.2 5.6 56.8 5.7 32.5 5.7-73.4 5.6 50.4 5.7 46.7 5.7 16.4 5.6-81.1 5.7-44.9 5.7 84.9 5.6-21.2 5.7-58.2 5.7-53.2 5.6 117.2 5.7-7.5 5.7 50.3 5.6-45.3 5.7 20.7 5.7-73.9 5.6-21.5 5.7 67.3 5.7 25.7 5.6-114.5 5.7 174.5 5.7-79.2 5.6-74.4 5.7 91.9 5.7-57.2 5.6 15.2 5.7-59.9 5.7 90.4 5.6-25.9 5.7 79.7 5.7-93.5 5.7-31 5.6 12.3 5.7 47.8 5.7-14 5.6 58.1 5.7-6.3 5.7-103.5 5.6 14.6 5.7 75.1L394 26l5.6 99.6 5.7 58 5.7 6.4 5.6-37.4 5.7 18.9L428 118l5.6 113.5 5.7-74.3 5.7 98.5 5.6-58.1 5.7 10.9 5.7-38.8 5.6 23.1 5.7 66.5 5.7-102.2 5.6 78.6 5.7-95.8 5.7 113.5 5.6-95.6 5.7 19.1 5.7 96.7 5.6-113 5.7 5.4 5.7-15.5 5.7 75.6 5.6-111L547 156l5.7 25.2 5.6 41 5.7-64.4 5.7 79.3 5.6.8 5.7-3.8 5.7 53.3 5.6-18 5.7-151.1 5.7 13.3 5.6 89.8 5.7-114.6" fill="none" color="#000"/><text transform="translate(433.7 485.9)" stroke="none" fill="#000" font-family="Arial" font-size="12" text-anchor="end" color="#000"><tspan>pages+cached+noexternal+nofonts</tspan></text><path stroke="#009E73" d="M442 482h42.2M53.9 245.3l5.7 63.4 5.6 7.3 5.7-3.2 5.7 14.7 5.6-.6 5.7 17.2 5.7 28.3 5.6-22.6 5.7-26.7 5.7 12.6 5.6 5.8 5.7 6.6 5.7 4.6 5.6-23.1 5.7 7.7 5.7-48.8 5.7 40 5.6 7.3 5.7 45.3 5.7-51.1 5.6-66.4 5.7-13.9 5.7 135.8 5.6-41.5 5.7 14.9 5.7 7.3 5.6-21.9 5.7-10.5 5.7-37.2 5.6 14.1 5.7 52.7 5.7 19.5 5.6-94.4 5.7 80 5.7-16.9 5.6-1.6 5.7-6.6 5.7-51.5 5.6 17.1 5.7 27.4 5.7-31 5.6 114.7 5.7-87.8 5.7-13.3 5.6-5 5.7 23.5 5.7-71.1 5.6 51.7 5.7 33.9 5.7-28.2 5.7 29.9 5.6-22.4 5.7-24 5.7-3.4 5.6 12.9 5.7-25 5.7 77.8 5.6-61.7 5.7 26.1 5.7 28.1 5.6-25.4 5.7-32.3 5.7 44.4 5.6-47.5 5.7 57.1 5.7-25.1 5.6-32.2 5.7 13.2 5.7-29.4 5.6 64.2 5.7-10.4 5.7-6.5 5.6 51.4 5.7-46.1 5.7-26.6 5.6 17.3 5.7 41.7 5.7-27.5 5.6-62.7 5.7 21 5.7 30.2 5.6 40.1 5.7-97.2 5.7 14.1 5.7 20.8 5.6 29.2 5.7 5.5 5.7-21.4 5.6 43.4 5.7-37.2 5.7-12.3 5.6-8.3 5.7-1.8 5.7 35.2 5.6-16.2 5.7 23.9 5.7 16.3 5.6-59.1 5.7 6" fill="none" color="#000"/><g fill="none" color="#000" stroke="currentColor"><path stroke="#000" d="M53.9 18.1V428H615V18.1H53.9z"/></g></svg>