<svg width="640" height="500" xmlns="http://www.w3.org/2000/svg" xmlns:xlink="http://www.w3.org/1999/xlink"><path fill="#fff" d="M0 0h640v500H0z"/><defs><path id="d" stroke-width=".222" stroke="currentColor" d="M-1-1h2v2h-2z"/><path id="b" stroke-width=".222" stroke="currentColor" d="M0-1.33l-1.33 2h2.66z"/><path id="f" stroke-width=".222" stroke="currentColor" d="M0 1.33L1.265.411.782-1.067l-1.564-.009-.483 1.487z"/><use xlink:href="#b" id="c" stroke="currentColor" transform="rotate(180)"/><use xlink:href="#d" id="e" stroke="currentColor" transform="rotate(45)"/><circle id="a" stroke-width=".222" stroke="currentColor" cx="0" cy="0" r="1"/></defs><g fill="none" color="#000" stroke="currentColor"><path stroke="#000" d="M37.3 426.3h9m568.7 0h-9"/><text transform="translate(29 430.2)" stroke="none" fill="#000" font-family="Arial" font-size="12" text-anchor="end"><tspan>3</tspan></text></g><g fill="none" color="#000" stroke="currentColor"><path stroke="#000" d="M37.3 347.6h9m568.7 0h-9"/><text transform="translate(29 351.5)" stroke="none" fill="#000" font-family="Arial" font-size="12" text-anchor="end"><tspan>4</tspan></text></g><g fill="none" color="#000" stroke="currentColor"><path stroke="#000" d="M37.3 269h9m568.7 0h-9"/><text transform="translate(29 272.9)" stroke="none" fill="#000" font-family="Arial" font-size="12" text-anchor="end"><tspan>5</tspan></text></g><g fill="none" color="#000" stroke="currentColor"><path stroke="#000" d="M37.3 190.3h9m568.7 0h-9"/><text transform="translate(29 194.2)" stroke="none" fill="#000" font-family="Arial" font-size="12" text-anchor="end"><tspan>6</tspan></text></g><g fill="none" color="#000" stroke="currentColor"><path stroke="#000" d="M37.3 111.6h9m568.7 0h-9"/><text transform="translate(29 115.5)" stroke="none" fill="#000" font-family="Arial" font-size="12" text-anchor="end"><tspan>7</tspan></text></g><g fill="none" color="#000" stroke="currentColor"><path stroke="#000" d="M37.3 32.9h9m568.7 0h-9"/><text transform="translate(29 36.8)" stroke="none" fill="#000" font-family="Arial" font-size="12" text-anchor="end"><tspan>8</tspan></text></g><g fill="none" color="#000" stroke="currentColor"><path stroke="#000" d="M37.3 428v-9m0-400.9v9"/><text transform="translate(37.3 449.9)" stroke="none" fill="#000" font-family="Arial" font-size="12" text-anchor="middle"><tspan>0</tspan></text></g><g fill="none" color="#000" stroke="currentColor"><path stroke="#000" d="M95.7 428v-9m0-400.9v9"/><text transform="translate(95.7 449.9)" stroke="none" fill="#000" font-family="Arial" font-size="12" text-anchor="middle"><tspan>10</tspan></text></g><g fill="none" color="#000" stroke="currentColor"><path stroke="#000" d="M154 428v-9m0-400.9v9"/><text transform="translate(154 449.9)" stroke="none" fill="#000" font-family="Arial" font-size="12" text-anchor="middle"><tspan>20</tspan></text></g><g fill="none" color="#000" stroke="currentColor"><path stroke="#000" d="M212.4 428v-9m0-400.9v9"/><text transform="translate(212.4 449.9)" stroke="none" fill="#000" font-family="Arial" font-size="12" text-anchor="middle"><tspan>30</tspan></text></g><g fill="none" color="#000" stroke="currentColor"><path stroke="#000" d="M270.7 428v-9m0-400.9v9"/><text transform="translate(270.7 449.9)" stroke="none" fill="#000" font-family="Arial" font-size="12" text-anchor="middle"><tspan>40</tspan></text></g><g fill="none" color="#000" stroke="currentColor"><path stroke="#000" d="M329.1 428v-9m0-400.9v9"/><text transform="translate(329.1 449.9)" stroke="none" fill="#000" font-family="Arial" font-size="12" text-anchor="middle"><tspan>50</tspan></text></g><g fill="none" color="#000" stroke="currentColor"><path stroke="#000" d="M387.4 428v-9m0-400.9v9"/><text transform="translate(387.4 449.9)" stroke="none" fill="#000" font-family="Arial" font-size="12" text-anchor="middle"><tspan>60</tspan></text></g><g fill="none" color="#000" stroke="currentColor"><path stroke="#000" d="M445.8 428v-9m0-400.9v9"/><text transform="translate(445.8 449.9)" stroke="none" fill="#000" font-family="Arial" font-size="12" text-anchor="middle"><tspan>70</tspan></text></g><g fill="none" color="#000" stroke="currentColor"><path stroke="#000" d="M504.1 428v-9m0-400.9v9"/><text transform="translate(504.1 449.9)" stroke="none" fill="#000" font-family="Arial" font-size="12" text-anchor="middle"><tspan>80</tspan></text></g><g fill="none" color="#000" stroke="currentColor"><path stroke="#000" d="M562.5 428v-9m0-400.9v9"/><text transform="translate(562.5 449.9)" stroke="none" fill="#000" font-family="Arial" font-size="12" text-anchor="middle"><tspan>90</tspan></text></g><path stroke="#000" d="M37.3 18.1V428H615V18.1H37.3z" fill="none" color="#000"/><text transform="translate(425.4 467.9)" stroke="none" fill="#000" font-family="Arial" font-size="12" text-anchor="end" color="#000"><tspan>pages+cached+noexternal+nofonts</tspan></text><path stroke="#9400D3" d="M433.7 464h42.2M37.3 259.2l5.8 58.4 5.9 6.7 5.8-2.9 5.8 13.5 5.9-.5 5.8 15.7 5.8 26.1 5.9-20.8 5.8-24.6 5.9 11.6 5.8 5.4 5.8 6 5.9 4.2 5.8-21.2 5.8 7.1 5.9-45 5.8 36.9 5.8 6.8 5.9 41.6 5.8-47.1 5.8-61.1 5.9-12.7 5.8 125 5.8-38.2 5.9 13.7 5.8 6.7 5.9-20.2 5.8-9.7 5.8-34.2 5.9 13 5.8 48.5 5.8 18 5.9-86.9 5.8 73.6 5.8-15.5 5.9-1.5 5.8-6.1 5.8-47.4 5.9 15.7 5.8 25.3 5.8-28.5 5.9 105.5 5.8-80.8 5.9-12.3 5.8-4.5 5.8 21.6 5.9-65.4 5.8 47.6 5.8 31.2 5.9-26.1 5.8 27.6 5.8-20.7 5.9-22.1 5.8-3 5.8 11.8 5.9-23 5.8 71.6 5.9-56.8 5.8 24.1 5.8 25.8 5.9-23.4 5.8-29.7 5.8 40.9 5.9-43.7 5.8 52.5 5.8-23.1 5.9-29.6 5.8 12.2 5.8-27.1 5.9 59 5.8-9.5 5.8-6 5.9 47.3 5.8-42.4 5.9-24.5 5.8 16 5.8 38.3 5.9-25.3 5.8-57.7 5.8 19.4L510 338l5.8 36.9 5.8-89.4 5.9 12.9 5.8 19.2 5.8 26.9 5.9 5.1 5.8-19.8 5.8 39.9 5.9-34.1 5.8-11.4 5.9-7.6 5.8-1.7 5.8 32.4 5.9-14.9 5.8 22 5.8 15 5.9-54.4 5.8 5.5" fill="none" color="#000"/><text transform="translate(425.4 485.9)" stroke="none" fill="#000" font-family="Arial" font-size="12" text-anchor="end" color="#000"><tspan>pages+cached+noexternal+nosvg</tspan></text><path stroke="#009E73" d="M433.7 482h42.2M37.3 168.4l5.8 54.5 5.9 6.9 5.8-53 5.8 63.2 5.9-41.8 5.8 40.5 5.8-20.6 5.9 5.3 5.8-23 5.9-10.4 5.8 111.5 5.8-126.5 5.9 94 5.8-22.3 5.8-25.9 5.9-152.6 5.8 133.9 5.8-114 5.9 95 5.8 89.8 5.8-47 5.9 40.4 5.8-13.2 5.8-41.8L183.2 91l5.8 122.3 5.9 72.5 5.8-139.4 5.8 23 5.9-27.4 5.8 48.9 5.8-73.2 5.9 232.9 5.8-92.1L241.5 26l5.9 260.3 5.8-79.5 5.8-62.4 5.9 63.7 5.8 37.2 5.8-40.9 5.9-47.6 5.8 38.5 5.9 39.2 5.8-52.5 5.8-11.7 5.9-14 5.8-29.4 5.8 64 5.9 33.1 5.8-24.2 5.8 31 5.9-21 5.8-28.4 5.8 39.7 5.9-161.4 5.8 153.5 5.9-108.1 5.8 115.7 5.8-67 5.9 41.9 5.8-6.2 5.8-130.4 5.9 189.3 5.8 6.9 5.8-98.6 5.9 48.9 5.8-50.3 5.8-3.4 5.9-55.9 5.8 83.1 5.8-71.6 5.9 82.6 5.8 97.3 5.9-60 5.8-50.4 5.8-8.9 5.9 71.2 5.8-21.2 5.8-51.4 5.9 72.7 5.8-82.8 5.8 33.2 5.9-41.6 5.8-48.9 5.8 98.4 5.9 6.8 5.8 63.4 5.8-55.5 5.9-89.4 5.8 105.1 5.9 55 5.8-148.6 5.8 39 5.9 24.4 5.8-11.9 5.8 40.3 5.9 39.6 5.8-38.1" fill="none" color="#000"/><g fill="none" color="#000" stroke="currentColor"><path stroke="#000" d="M37.3 18.1V428H615V18.1H37.3z"/></g></svg>