<svg width="640" height="500" xmlns="http://www.w3.org/2000/svg" xmlns:xlink="http://www.w3.org/1999/xlink"><path fill="#fff" d="M0 0h640v500H0z"/><defs><path id="d" stroke-width=".222" stroke="currentColor" d="M-1-1h2v2h-2z"/><path id="b" stroke-width=".222" stroke="currentColor" d="M0-1.33l-1.33 2h2.66z"/><path id="f" stroke-width=".222" stroke="currentColor" d="M0 1.33L1.265.411.782-1.067l-1.564-.009-.483 1.487z"/><use xlink:href="#b" id="c" stroke="currentColor" transform="rotate(180)"/><use xlink:href="#d" id="e" stroke="currentColor" transform="rotate(45)"/><circle id="a" stroke-width=".222" stroke="currentColor" cx="0" cy="0" r="1"/></defs><g fill="none" color="#000" stroke="currentColor"><path stroke="#000" d="M53.9 436.3h9m552.1 0h-9"/><text transform="translate(45.6 440.2)" stroke="none" fill="#000" font-family="Arial" font-size="12" text-anchor="end"><tspan>3.5</tspan></text></g><g fill="none" color="#000" stroke="currentColor"><path stroke="#000" d="M53.9 391.6h9m552.1 0h-9"/><text transform="translate(45.6 395.5)" stroke="none" fill="#000" font-family="Arial" font-size="12" text-anchor="end"><tspan>4</tspan></text></g><g fill="none" color="#000" stroke="currentColor"><path stroke="#000" d="M53.9 346.9h9m552.1 0h-9"/><text transform="translate(45.6 350.8)" stroke="none" fill="#000" font-family="Arial" font-size="12" text-anchor="end"><tspan>4.5</tspan></text></g><g fill="none" color="#000" stroke="currentColor"><path stroke="#000" d="M53.9 302.2h9m552.1 0h-9"/><text transform="translate(45.6 306.1)" stroke="none" fill="#000" font-family="Arial" font-size="12" text-anchor="end"><tspan>5</tspan></text></g><g fill="none" color="#000" stroke="currentColor"><path stroke="#000" d="M53.9 257.6h9m552.1 0h-9"/><text transform="translate(45.6 261.5)" stroke="none" fill="#000" font-family="Arial" font-size="12" text-anchor="end"><tspan>5.5</tspan></text></g><g fill="none" color="#000" stroke="currentColor"><path stroke="#000" d="M53.9 212.9h9m552.1 0h-9"/><text transform="translate(45.6 216.8)" stroke="none" fill="#000" font-family="Arial" font-size="12" text-anchor="end"><tspan>6</tspan></text></g><g fill="none" color="#000" stroke="currentColor"><path stroke="#000" d="M53.9 168.2h9m552.1 0h-9"/><text transform="translate(45.6 172.1)" stroke="none" fill="#000" font-family="Arial" font-size="12" text-anchor="end"><tspan>6.5</tspan></text></g><g fill="none" color="#000" stroke="currentColor"><path stroke="#000" d="M53.9 123.5h9m552.1 0h-9"/><text transform="translate(45.6 127.4)" stroke="none" fill="#000" font-family="Arial" font-size="12" text-anchor="end"><tspan>7</tspan></text></g><g fill="none" color="#000" stroke="currentColor"><path stroke="#000" d="M53.9 78.9h9m552.1 0h-9"/><text transform="translate(45.6 82.8)" stroke="none" fill="#000" font-family="Arial" font-size="12" text-anchor="end"><tspan>7.5</tspan></text></g><g fill="none" color="#000" stroke="currentColor"><path stroke="#000" d="M53.9 34.2h9m552.1 0h-9"/><text transform="translate(45.6 38.1)" stroke="none" fill="#000" font-family="Arial" font-size="12" text-anchor="end"><tspan>8</tspan></text></g><g fill="none" color="#000" stroke="currentColor"><path stroke="#000" d="M53.9 446v-9m0-418.9v9"/><text transform="translate(53.9 467.9)" stroke="none" fill="#000" font-family="Arial" font-size="12" text-anchor="middle"><tspan>0</tspan></text></g><g fill="none" color="#000" stroke="currentColor"><path stroke="#000" d="M110.6 446v-9m0-418.9v9"/><text transform="translate(110.6 467.9)" stroke="none" fill="#000" font-family="Arial" font-size="12" text-anchor="middle"><tspan>10</tspan></text></g><g fill="none" color="#000" stroke="currentColor"><path stroke="#000" d="M167.3 446v-9m0-418.9v9"/><text transform="translate(167.3 467.9)" stroke="none" fill="#000" font-family="Arial" font-size="12" text-anchor="middle"><tspan>20</tspan></text></g><g fill="none" color="#000" stroke="currentColor"><path stroke="#000" d="M223.9 446v-9m0-418.9v9"/><text transform="translate(223.9 467.9)" stroke="none" fill="#000" font-family="Arial" font-size="12" text-anchor="middle"><tspan>30</tspan></text></g><g fill="none" color="#000" stroke="currentColor"><path stroke="#000" d="M280.6 446v-9m0-418.9v9"/><text transform="translate(280.6 467.9)" stroke="none" fill="#000" font-family="Arial" font-size="12" text-anchor="middle"><tspan>40</tspan></text></g><g fill="none" color="#000" stroke="currentColor"><path stroke="#000" d="M337.3 446v-9m0-418.9v9"/><text transform="translate(337.3 467.9)" stroke="none" fill="#000" font-family="Arial" font-size="12" text-anchor="middle"><tspan>50</tspan></text></g><g fill="none" color="#000" stroke="currentColor"><path stroke="#000" d="M394 446v-9m0-418.9v9"/><text transform="translate(394 467.9)" stroke="none" fill="#000" font-family="Arial" font-size="12" text-anchor="middle"><tspan>60</tspan></text></g><g fill="none" color="#000" stroke="currentColor"><path stroke="#000" d="M450.6 446v-9m0-418.9v9"/><text transform="translate(450.6 467.9)" stroke="none" fill="#000" font-family="Arial" font-size="12" text-anchor="middle"><tspan>70</tspan></text></g><g fill="none" color="#000" stroke="currentColor"><path stroke="#000" d="M507.3 446v-9m0-418.9v9"/><text transform="translate(507.3 467.9)" stroke="none" fill="#000" font-family="Arial" font-size="12" text-anchor="middle"><tspan>80</tspan></text></g><g fill="none" color="#000" stroke="currentColor"><path stroke="#000" d="M564 446v-9m0-418.9v9"/><text transform="translate(564 467.9)" stroke="none" fill="#000" font-family="Arial" font-size="12" text-anchor="middle"><tspan>90</tspan></text></g><path stroke="#000" d="M53.9 18.1V446H615V18.1H53.9z" fill="none" color="#000"/><text transform="translate(275.6 485.9)" stroke="none" fill="#000" font-family="Arial" font-size="12" text-anchor="end" color="#000"><tspan>pages+cached+noexternal+nosvg</tspan></text><path stroke="#9400D3" d="M283.9 482h42.2M53.9 188.1l5.7 61.9 5.6 7.7 5.7-60.1 5.7 71.7 5.6-47.4 5.7 45.9 5.7-23.3 5.6 6.1 5.7-26.2 5.7-11.8 5.6 126.6 5.7-143.6 5.7 106.7 5.6-25.3 5.7-29.4 5.7-173.4 5.7 152.1 5.6-129.4 5.7 107.9 5.7 101.9 5.6-53.4 5.7 45.9 5.7-14.9 5.6-47.5 5.7-136.7 5.7 138.9 5.6 82.3 5.7-158.2 5.7 26.1 5.6-31.1 5.7 55.5 5.7-83.1 5.6 264.5 5.7-104.6 5.7-264.1 5.6 295.7 5.7-90.3 5.7-70.8 5.6 72.2 5.7 42.3 5.7-46.5 5.6-54.1 5.7 43.8 5.7 44.5 5.6-59.6 5.7-13.3 5.7-15.9 5.6-33.3 5.7 72.6 5.7 37.6 5.7-27.5 5.6 35.3 5.7-24 5.7-32.2 5.6 45.1 5.7-183.3 5.7 174.3 5.6-122.7 5.7 131.3 5.7-76.1 5.6 47.6 5.7-6.9L411 63.9l5.6 215.1 5.7 7.7 5.7-111.9 5.6 55.4 5.7-57.1 5.7-3.8 5.6-63.4 5.7 94.4 5.7-81.4 5.6 93.8 5.7 110.5 5.7-68.1 5.6-57.3 5.7-10.1 5.7 80.9 5.6-24.1 5.7-58.4 5.7 82.5 5.6-94 5.7 37.8 5.7-47.3 5.7-55.5 5.6 111.7 5.7 7.7 5.7 72.1 5.6-63.1 5.7-101.5 5.7 119.4 5.6 62.4 5.7-168.8 5.7 44.4 5.6 27.6 5.7-13.4 5.7 45.7 5.6 45 5.7-43.3" fill="none" color="#000"/><text transform="translate(575.1 485.9)" stroke="none" fill="#000" font-family="Arial" font-size="12" text-anchor="end" color="#000"><tspan>pages+cached+noexternal+noimg</tspan></text><path stroke="#009E73" d="M583.4 482h42.2M53.9 346.1l5.7-41 5.6 24.3 5.7 10.1 5.7-48.7 5.6 78.7 5.7-21.3 5.7.8 5.6 32.2 5.7-7 5.7-5.9 5.6-29.2 5.7-49.5 5.7 89.5 5.6-80.3 5.7-51.3 5.7 113.6 5.7-53 5.6 48.8 5.7-7.8 5.7-.6 5.6-20.5 5.7 7.4 5.7-7.1 5.6 57.1 5.7-24.5 5.7-9.1 5.6 6.5 5.7-10.6 5.7-74.3 5.6 65.6 5.7-46 5.7 55.2 5.6-19.1 5.7 102.5 5.7-240.2 5.6 111 5.7 95.4 5.7-28.8 5.6-23.8 5.7 2.2 5.7-55.7 5.6-9.8 5.7 92.3 5.7 41.8 5.6-61.9 5.7 38.1 5.7-62.3 5.6 51.4 5.7-65.1 5.7 121.6 5.7-68.1 5.6-20.2 5.7-23 5.7 57.6 5.6-13.4 5.7 35.2 5.7-50.7 5.6-11.9 5.7 40.5 5.7-1.1 5.6-51.4 5.7 42.3 5.7-13.8 5.6-36 5.7 35.2 5.7-14.8 5.6 69.6 5.7-71.8 5.7-14.5 5.6-56.4 5.7 5.3 5.7 122.2 5.6-50.6 5.7-55.7 5.7 64.2 5.6-10.8 5.7 9.2 5.7-7.5 5.6-8.6 5.7 8.3 5.7 11.6 5.6-2.1 5.7 27.3 5.7-16.2 5.7-27.9 5.6-27.4 5.7-4.7 5.7 9.7 5.6 12.5 5.7-13.5 5.7 55.1 5.6-41.8 5.7 2.1 5.7 23.7 5.6-7.6 5.7 19.8 5.7-10.5 5.6 30.1 5.7-18.6" fill="none" color="#000"/><g fill="none" color="#000" stroke="currentColor"><path stroke="#000" d="M53.9 18.1V446H615V18.1H53.9z"/></g></svg>