<svg width="640" height="500" xmlns="http://www.w3.org/2000/svg" xmlns:xlink="http://www.w3.org/1999/xlink"><path fill="#fff" d="M0 0h640v500H0z"/><defs><path id="d" stroke-width=".222" stroke="currentColor" d="M-1-1h2v2h-2z"/><path id="b" stroke-width=".222" stroke="currentColor" d="M0-1.33l-1.33 2h2.66z"/><path id="f" stroke-width=".222" stroke="currentColor" d="M0 1.33L1.265.411.782-1.067l-1.564-.009-.483 1.487z"/><use xlink:href="#b" id="c" stroke="currentColor" transform="rotate(180)"/><use xlink:href="#d" id="e" stroke="currentColor" transform="rotate(45)"/><circle id="a" stroke-width=".222" stroke="currentColor" cx="0" cy="0" r="1"/></defs><g fill="none" color="#000" stroke="currentColor"><path stroke="#000" d="M53.9 435.2h9m552.1 0h-9"/><text transform="translate(45.6 439.1)" stroke="none" fill="#000" font-family="Arial" font-size="12" text-anchor="end"><tspan>3.5</tspan></text></g><g fill="none" color="#000" stroke="currentColor"><path stroke="#000" d="M53.9 360.6h9m552.1 0h-9"/><text transform="translate(45.6 364.5)" stroke="none" fill="#000" font-family="Arial" font-size="12" text-anchor="end"><tspan>4</tspan></text></g><g fill="none" color="#000" stroke="currentColor"><path stroke="#000" d="M53.9 286h9m552.1 0h-9"/><text transform="translate(45.6 289.9)" stroke="none" fill="#000" font-family="Arial" font-size="12" text-anchor="end"><tspan>4.5</tspan></text></g><g fill="none" color="#000" stroke="currentColor"><path stroke="#000" d="M53.9 211.4h9m552.1 0h-9"/><text transform="translate(45.6 215.3)" stroke="none" fill="#000" font-family="Arial" font-size="12" text-anchor="end"><tspan>5</tspan></text></g><g fill="none" color="#000" stroke="currentColor"><path stroke="#000" d="M53.9 136.8h9m552.1 0h-9"/><text transform="translate(45.6 140.7)" stroke="none" fill="#000" font-family="Arial" font-size="12" text-anchor="end"><tspan>5.5</tspan></text></g><g fill="none" color="#000" stroke="currentColor"><path stroke="#000" d="M53.9 62.2h9m552.1 0h-9"/><text transform="translate(45.6 66.1)" stroke="none" fill="#000" font-family="Arial" font-size="12" text-anchor="end"><tspan>6</tspan></text></g><g fill="none" color="#000" stroke="currentColor"><path stroke="#000" d="M53.9 446v-9m0-418.9v9"/><text transform="translate(53.9 467.9)" stroke="none" fill="#000" font-family="Arial" font-size="12" text-anchor="middle"><tspan>0</tspan></text></g><g fill="none" color="#000" stroke="currentColor"><path stroke="#000" d="M110.6 446v-9m0-418.9v9"/><text transform="translate(110.6 467.9)" stroke="none" fill="#000" font-family="Arial" font-size="12" text-anchor="middle"><tspan>10</tspan></text></g><g fill="none" color="#000" stroke="currentColor"><path stroke="#000" d="M167.3 446v-9m0-418.9v9"/><text transform="translate(167.3 467.9)" stroke="none" fill="#000" font-family="Arial" font-size="12" text-anchor="middle"><tspan>20</tspan></text></g><g fill="none" color="#000" stroke="currentColor"><path stroke="#000" d="M223.9 446v-9m0-418.9v9"/><text transform="translate(223.9 467.9)" stroke="none" fill="#000" font-family="Arial" font-size="12" text-anchor="middle"><tspan>30</tspan></text></g><g fill="none" color="#000" stroke="currentColor"><path stroke="#000" d="M280.6 446v-9m0-418.9v9"/><text transform="translate(280.6 467.9)" stroke="none" fill="#000" font-family="Arial" font-size="12" text-anchor="middle"><tspan>40</tspan></text></g><g fill="none" color="#000" stroke="currentColor"><path stroke="#000" d="M337.3 446v-9m0-418.9v9"/><text transform="translate(337.3 467.9)" stroke="none" fill="#000" font-family="Arial" font-size="12" text-anchor="middle"><tspan>50</tspan></text></g><g fill="none" color="#000" stroke="currentColor"><path stroke="#000" d="M394 446v-9m0-418.9v9"/><text transform="translate(394 467.9)" stroke="none" fill="#000" font-family="Arial" font-size="12" text-anchor="middle"><tspan>60</tspan></text></g><g fill="none" color="#000" stroke="currentColor"><path stroke="#000" d="M450.6 446v-9m0-418.9v9"/><text transform="translate(450.6 467.9)" stroke="none" fill="#000" font-family="Arial" font-size="12" text-anchor="middle"><tspan>70</tspan></text></g><g fill="none" color="#000" stroke="currentColor"><path stroke="#000" d="M507.3 446v-9m0-418.9v9"/><text transform="translate(507.3 467.9)" stroke="none" fill="#000" font-family="Arial" font-size="12" text-anchor="middle"><tspan>80</tspan></text></g><g fill="none" color="#000" stroke="currentColor"><path stroke="#000" d="M564 446v-9m0-418.9v9"/><text transform="translate(564 467.9)" stroke="none" fill="#000" font-family="Arial" font-size="12" text-anchor="middle"><tspan>90</tspan></text></g><path stroke="#000" d="M53.9 18.1V446H615V18.1H53.9z" fill="none" color="#000"/><text transform="translate(275.6 485.9)" stroke="none" fill="#000" font-family="Arial" font-size="12" text-anchor="end" color="#000"><tspan>pages+cached+noexternal+noimg</tspan></text><path stroke="#9400D3" d="M283.9 482h42.2M53.9 284.6l5.7-68.5 5.6 40.7 5.7 16.9 5.7-81.4 5.6 131.4 5.7-35.5 5.7 1.3 5.6 53.8 5.7-11.8 5.7-9.8 5.6-48.8 5.7-82.6 5.7 149.4 5.6-134.1 5.7-85.6 5.7 189.6 5.7-88.3 5.6 81.3 5.7-13 5.7-1 5.6-34.1 5.7 12.3 5.7-11.9 5.6 95.5 5.7-40.9 5.7-15.3 5.6 10.8 5.7-17.6 5.7-124.1 5.6 109.5 5.7-76.8 5.7 92.1 5.6-31.8 5.7 171.2 5.7-401.2 5.6 185.4 5.7 159.3 5.7-48.1 5.6-39.7 5.7 3.6 5.7-93 5.6-16.4 5.7 154.2 5.7 69.7 5.6-103.3 5.7 63.6 5.7-104 5.6 85.9 5.7-108.8 5.7 203.1 5.7-113.7 5.6-33.7 5.7-38.5 5.7 96.2 5.6-22.4 5.7 58.8 5.7-84.7 5.6-19.8 5.7 67.7 5.7-1.9 5.6-85.8 5.7 70.6 5.7-23 5.6-60.2 5.7 58.8 5.7-24.7 5.6 116.3 5.7-119.9 5.7-24.3 5.6-94.2 5.7 8.8 5.7 204.1 5.6-84.5 5.7-93.1L479 302l5.6-18 5.7 15.3 5.7-12.5 5.6-14.3 5.7 13.8 5.7 19.4 5.6-3.5 5.7 45.6 5.7-27.1 5.7-46.5 5.6-45.9 5.7-7.7 5.7 16.1 5.6 20.9L564 235l5.7 92 5.6-69.6 5.7 3.4 5.7 39.6 5.6-12.6 5.7 32.9 5.7-17.5 5.6 50.2 5.7-31" fill="none" color="#000"/><text transform="translate(575.1 485.9)" stroke="none" fill="#000" font-family="Arial" font-size="12" text-anchor="end" color="#000"><tspan>pages+cached+noexternal+nocss</tspan></text><path stroke="#009E73" d="M583.4 482h42.2M53.9 279.4l5.7-60.5 5.6 63.1 5.7 72.1 5.7-174.6 5.6 65.1 5.7 66.6 5.7 83.2 5.6-119 5.7 20.2 5.7-52.3 5.6 17.4 5.7-27.5 5.7-29.4 5.6 50 5.7 18.7 5.7 8.4 5.7 45.4 5.6-60.6 5.7-144.8 5.7 68.5 5.6 114.9 5.7-93 5.7 4.3 5.6 125.2 5.7 31.2 5.7-148.1 5.6-164.3 5.7 247.1 5.7-88.3 5.6-42.8 5.7 75.6 5.7 42 5.6-16.9 5.7-25.3 5.7-171 5.6 144.7 5.7 12.3 5.7 15.1 5.6 148.8 5.7-23.1 5.7-93.3 5.6 149.5 5.7-196.8 5.7 63.3 5.6 67.2 5.7-21 5.7-14.1 5.6-212.8 5.7 220.6 5.7-1.8L343 285l5.6 2 5.7-36.9 5.7-57.2 5.6 14.1 5.7 201.9 5.7-138 5.6 55.4 5.7-5.2 5.7 40.3 5.6-47.1 5.7 25L411 254l5.6-17.7 5.7 36.3 5.7-90 5.6 69.3 5.7-20.1 5.7 10.3 5.6 178.5 5.7-178 5.7 39.3 5.6-42.9 5.7-4.1 5.7 50.3 5.6-99.5 5.7 5.3 5.7 62.3 5.6-8.2 5.7 110.3 5.7-139.7 5.6 44.8 5.7-9.5 5.7 24.2 5.7 75.3 5.6-99.8 5.7 56 5.7-117.1 5.6 171.6 5.7-47.5 5.7-50.3 5.6 9.9 5.7 81.3 5.7-58.7 5.6.7L598 256l5.7 7.7 5.6-10.8 5.7-29.5" fill="none" color="#000"/><g fill="none" color="#000" stroke="currentColor"><path stroke="#000" d="M53.9 18.1V446H615V18.1H53.9z"/></g></svg>