<svg width="640" height="500" xmlns="http://www.w3.org/2000/svg" xmlns:xlink="http://www.w3.org/1999/xlink"><path fill="#fff" d="M0 0h640v500H0z"/><defs><path id="d" stroke-width=".222" stroke="currentColor" d="M-1-1h2v2h-2z"/><path id="b" stroke-width=".222" stroke="currentColor" d="M0-1.33l-1.33 2h2.66z"/><path id="f" stroke-width=".222" stroke="currentColor" d="M0 1.33L1.265.411.782-1.067l-1.564-.009-.483 1.487z"/><use xlink:href="#b" id="c" stroke="currentColor" transform="rotate(180)"/><use xlink:href="#d" id="e" stroke="currentColor" transform="rotate(45)"/><circle id="a" stroke-width=".222" stroke="currentColor" cx="0" cy="0" r="1"/></defs><g fill="none" color="#000" stroke="currentColor"><path stroke="#000" d="M37.3 445.3h9m568.7 0h-9"/><text transform="translate(29 449.2)" stroke="none" fill="#000" font-family="Arial" font-size="12" text-anchor="end"><tspan>1</tspan></text></g><g fill="none" color="#000" stroke="currentColor"><path stroke="#000" d="M37.3 385h9m568.7 0h-9"/><text transform="translate(29 388.9)" stroke="none" fill="#000" font-family="Arial" font-size="12" text-anchor="end"><tspan>2</tspan></text></g><g fill="none" color="#000" stroke="currentColor"><path stroke="#000" d="M37.3 324.7h9m568.7 0h-9"/><text transform="translate(29 328.6)" stroke="none" fill="#000" font-family="Arial" font-size="12" text-anchor="end"><tspan>3</tspan></text></g><g fill="none" color="#000" stroke="currentColor"><path stroke="#000" d="M37.3 264.5h9m568.7 0h-9"/><text transform="translate(29 268.4)" stroke="none" fill="#000" font-family="Arial" font-size="12" text-anchor="end"><tspan>4</tspan></text></g><g fill="none" color="#000" stroke="currentColor"><path stroke="#000" d="M37.3 204.2h9m568.7 0h-9"/><text transform="translate(29 208.1)" stroke="none" fill="#000" font-family="Arial" font-size="12" text-anchor="end"><tspan>5</tspan></text></g><g fill="none" color="#000" stroke="currentColor"><path stroke="#000" d="M37.3 143.9h9m568.7 0h-9"/><text transform="translate(29 147.8)" stroke="none" fill="#000" font-family="Arial" font-size="12" text-anchor="end"><tspan>6</tspan></text></g><g fill="none" color="#000" stroke="currentColor"><path stroke="#000" d="M37.3 83.6h9m568.7 0h-9"/><text transform="translate(29 87.5)" stroke="none" fill="#000" font-family="Arial" font-size="12" text-anchor="end"><tspan>7</tspan></text></g><g fill="none" color="#000" stroke="currentColor"><path stroke="#000" d="M37.3 23.3h9m568.7 0h-9"/><text transform="translate(29 27.2)" stroke="none" fill="#000" font-family="Arial" font-size="12" text-anchor="end"><tspan>8</tspan></text></g><g fill="none" color="#000" stroke="currentColor"><path stroke="#000" d="M37.3 446v-9m0-418.9v9"/><text transform="translate(37.3 467.9)" stroke="none" fill="#000" font-family="Arial" font-size="12" text-anchor="middle"><tspan>0</tspan></text></g><g fill="none" color="#000" stroke="currentColor"><path stroke="#000" d="M95.7 446v-9m0-418.9v9"/><text transform="translate(95.7 467.9)" stroke="none" fill="#000" font-family="Arial" font-size="12" text-anchor="middle"><tspan>10</tspan></text></g><g fill="none" color="#000" stroke="currentColor"><path stroke="#000" d="M154 446v-9m0-418.9v9"/><text transform="translate(154 467.9)" stroke="none" fill="#000" font-family="Arial" font-size="12" text-anchor="middle"><tspan>20</tspan></text></g><g fill="none" color="#000" stroke="currentColor"><path stroke="#000" d="M212.4 446v-9m0-418.9v9"/><text transform="translate(212.4 467.9)" stroke="none" fill="#000" font-family="Arial" font-size="12" text-anchor="middle"><tspan>30</tspan></text></g><g fill="none" color="#000" stroke="currentColor"><path stroke="#000" d="M270.7 446v-9m0-418.9v9"/><text transform="translate(270.7 467.9)" stroke="none" fill="#000" font-family="Arial" font-size="12" text-anchor="middle"><tspan>40</tspan></text></g><g fill="none" color="#000" stroke="currentColor"><path stroke="#000" d="M329.1 446v-9m0-418.9v9"/><text transform="translate(329.1 467.9)" stroke="none" fill="#000" font-family="Arial" font-size="12" text-anchor="middle"><tspan>50</tspan></text></g><g fill="none" color="#000" stroke="currentColor"><path stroke="#000" d="M387.4 446v-9m0-418.9v9"/><text transform="translate(387.4 467.9)" stroke="none" fill="#000" font-family="Arial" font-size="12" text-anchor="middle"><tspan>60</tspan></text></g><g fill="none" color="#000" stroke="currentColor"><path stroke="#000" d="M445.8 446v-9m0-418.9v9"/><text transform="translate(445.8 467.9)" stroke="none" fill="#000" font-family="Arial" font-size="12" text-anchor="middle"><tspan>70</tspan></text></g><g fill="none" color="#000" stroke="currentColor"><path stroke="#000" d="M504.1 446v-9m0-418.9v9"/><text transform="translate(504.1 467.9)" stroke="none" fill="#000" font-family="Arial" font-size="12" text-anchor="middle"><tspan>80</tspan></text></g><g fill="none" color="#000" stroke="currentColor"><path stroke="#000" d="M562.5 446v-9m0-418.9v9"/><text transform="translate(562.5 467.9)" stroke="none" fill="#000" font-family="Arial" font-size="12" text-anchor="middle"><tspan>90</tspan></text></g><path stroke="#000" d="M37.3 18.1V446H615V18.1H37.3z" fill="none" color="#000"/><text transform="translate(267.3 485.9)" stroke="none" fill="#000" font-family="Arial" font-size="12" text-anchor="end" color="#000"><tspan>pages+cached+noexternal+nocss</tspan></text><path stroke="#9400D3" d="M275.6 482h42.2M37.3 231.6l5.8-24.4 5.9 25.5 5.8 29.1 5.8-70.5 5.9 26.3 5.8 26.9 5.8 33.6L84 230l5.8 8.2 5.9-21.1 5.8 7 5.8-11.1 5.9-11.9 5.8 20.2 5.8 7.5 5.9 3.4 5.8 18.4 5.8-24.5 5.9-58.5 5.8 27.7 5.8 46.4 5.9-37.6 5.8 1.8 5.8 50.5 5.9 12.7 5.8-59.9 5.9-66.3 5.8 99.8 5.8-35.7 5.9-17.3 5.8 30.6 5.8 16.9 5.9-6.8 5.8-10.2 5.8-69.1 5.9 58.4 5.8 5 5.8 6.1 5.9 60.1 5.8-9.3 5.8-37.7 5.9 60.4 5.8-79.5 5.9 25.6 5.8 27.1 5.8-8.5 5.9-5.7 5.8-85.9 5.8 89.1 5.9-.7 5.8-21.7 5.8.8 5.9-14.9 5.8-23.1 5.8 5.7 5.9 81.6 5.8-55.8 5.9 22.4 5.8-2.1 5.8 16.2 5.9-18.9 5.8 10 5.8-34.4 5.9-7.2 5.8 14.7 5.8-36.4 5.9 28 5.8-8.1 5.8 4.2 5.9 72.1 5.8-71.9 5.8 15.8 5.9-17.3 5.8-1.6L475 234l5.8-40.2 5.8 2.1 5.9 25.2 5.8-3.3 5.8 44.6 5.9-56.5 5.8 18.1 5.8-3.8 5.9 9.7 5.8 30.5 5.8-40.4 5.9 22.7 5.8-47.3 5.8 69.3 5.9-19.2 5.8-20.3 5.9 4L580 262l5.8-23.7 5.9.3 5.8-16.4 5.8 3.1 5.9-4.4L615 209" fill="none" color="#000"/><text transform="translate(566.8 485.9)" stroke="none" fill="#000" font-family="Arial" font-size="12" text-anchor="end" color="#000"><tspan>pages+cached+noexternal+nojs</tspan></text><path stroke="#009E73" d="M575.1 482h42.2m-580-285.1l5.8-67.3L49 76.5l5.8 29.6 5.8 58.4 5.9 28.2 5.8-30.8 5.8-70.5 5.9 26 5.8 36.8 5.9-62.6 5.8 83.2 5.8-7 5.9-26L119 155l5.8-12.1 5.9 45.5 5.8-87.9 5.8 61.8 5.9-20.5 5.8 6.9 5.8-84.2 5.9 62.6 5.8 33.9 5.8-134.7 5.9 120.3L189 163l5.9-58.4 5.8 20.2 5.8 60.1 5.9-81 5.8 139.6 5.8 102.9 5.9-181.3 5.8 8.8 5.8-36.7 5.9 41.6 5.8-42.3L259 28.8l5.9 127.7 5.8 38.3 5.8 13.1 5.9 184.8L288.2 99l5.9 66.4 5.8-80.8 5.8 50 5.9 43.4 5.8-28 5.8 63.1 5.9 70.6 5.8-113.4 5.8-113.1 5.9 137.9 5.8 9.5 5.8 233.2 5.9-299.1 5.8 39.2 5.9-102.1 5.8 26.3 5.8 83.1 5.9-80.1 5.8 75.1 5.8-61.2 5.9 29.7 5.8-38.3 5.8 15 5.9-23.7 5.8 82.4 5.8.4 5.9-9.7 5.8 3.8 5.8-18.4 5.9-91.3 5.8 64.1 5.9-.3 5.8 35.9 5.8-4.6 5.9-9.5 5.8-20.4 5.8-78.7L510 79l5.8 75.7 5.8 17.5 5.9-1.6 5.8-77.5 5.8 23.4 5.9 112.8 5.8-78.9 5.8-7.3 5.9 14 5.8-42.6 5.9 25.2 5.8 39.5 5.8-51.8 5.9 26.5 5.8-50.2 5.8 82.2 5.9 12 5.8-73" fill="none" color="#000"/><g fill="none" color="#000" stroke="currentColor"><path stroke="#000" d="M37.3 18.1V446H615V18.1H37.3z"/></g></svg>