<svg width="640" height="3840" xmlns="http://www.w3.org/2000/svg" xmlns:xlink="http://www.w3.org/1999/xlink"><path fill="#fff" d="M0 0h640v3840H0z"/><defs><path id="d" stroke-width=".222" stroke="currentColor" d="M-1-1h2v2h-2z"/><path id="b" stroke-width=".222" stroke="currentColor" d="M0-1.33l-1.33 2h2.66z"/><path id="f" stroke-width=".222" stroke="currentColor" d="M0 1.33L1.265.411.782-1.067l-1.564-.009-.483 1.487z"/><use xlink:href="#b" id="c" stroke="currentColor" transform="rotate(180)"/><use xlink:href="#d" id="e" stroke="currentColor" transform="rotate(45)"/><circle id="a" stroke-width=".222" stroke="currentColor" cx="0" cy="0" r="1"/></defs><path stroke="#000" d="M20.7 18.1v3805.3H615V18.1H20.7z" fill="none" color="#000"/><path stroke="#9400D3" d="M20.7 3764.3H615" fill="none" color="#000"/><path stroke="#009E73" d="M20.7 3646.1H615" fill="none" color="#000"/><path stroke="#56B4E9" d="M20.7 3586.1l6 10.4 6-7.6 6 11.4 6-51.7 6-52.4 6 12.3 6 45.4 6-8.4 6-17.4 6-51 6 67.5 6-31.5 6 15.7 6-4.6 6-30.1 6-9.1 6.1 77 6-58.5 6 7.4 6 39.8 6-22.7 6-2.4 6 26 6-19.7 6-4.4 6-16.9 6 47.7 6-27.7 6 36.7 6-129.5 6 8.4 6 67.1 6 14.5 6-11.1 6-69.8 6 108.1 6-10.2 6 14 6-56.9 6 26.1 6-18.2 6 42.8 6-35.4 6 6 6 21.4 6-8.6 6-22.9 6 18.2 6 .9 6.1-33.3 6 51.8 6 1.2 6-9.4 6-28.9 6 18.3 6 23.1 6-40.8 6 14.9 6 8.4 6-9.5 6-43.5 6 58.3 6-5.1 6-33 6 57.4 6-12.4 6-16.3 6-14.2 6-28.7 6-1.2 6 54.5 6-77.6 6 57.3 6 19.3 6-27.6 6 .4 6 26.1 6-35.2 6 20 6 34 6 .6 6-1.4 6.1-64.9 6 18 6 12.2 6-5.3 6 21.6 6-7.2 6-37.5 6 43.9 6 10.6 6 6.4 6-40.9 6 18.3 6-23 6-10.5 6 20.9 6 31.7 6-18" fill="none" color="#000"/><path stroke="#E69F00" d="M20.7 3409.8H615" fill="none" color="#000"/><path stroke="#F0E442" d="M20.7 3291.6H615" fill="none" color="#000"/><path stroke="#0072B2" d="M20.7 3173.4H615" fill="none" color="#000"/><path stroke="#E51E10" d="M20.7 3055.2H615" fill="none" color="#000"/><path stroke="#000" d="M20.7 2937.1H615" fill="none" color="#000"/><path stroke="#9400D3" d="M20.7 2818.9H615" fill="none" color="#000"/><path stroke="#009E73" d="M20.7 2700.7H615" fill="none" color="#000"/><path stroke="#56B4E9" d="M20.7 2582.5H615" fill="none" color="#000"/><path stroke="#E69F00" d="M20.7 2464.4H615" fill="none" color="#000"/><path stroke="#F0E442" d="M20.7 2346.2H615" fill="none" color="#000"/><path stroke="#0072B2" d="M20.7 2228H615" fill="none" color="#000"/><path stroke="#E51E10" d="M20.7 2109.8H615" fill="none" color="#000"/><path stroke="#000" d="M20.7 1991.7H615" fill="none" color="#000"/><path stroke="#9400D3" d="M20.7 1873.5H615" fill="none" color="#000"/><path stroke="#009E73" d="M20.7 1755.3H615" fill="none" color="#000"/><path stroke="#56B4E9" d="M20.7 2121.6l6 24.4 6 14.5 6-38.9 6 19.5 6 38.9 6-73 6 53.5 6-17 6-17 6 51.1 6-56 6-2.4 6 17 6 4.9 6-2.4 6 17 6.1-9.7 6-7.3h6l6 2.4 6 19.4 6-21.8 6 2.4 6 17 6-14.6 6 17 6-38.9 6 21.9 6 2.5 6 31.6 6-36.5 6 17 6-12.1 6-2.5 6-2.4 6 17h6l6-34 6 21.9 6 12.1 6-19.4 6 7.3 6 17 .5-2144.9m10.9 0l.6 2176.5 6-114.3 6 94.8 6-17 6-34 6.1 17 6 14.6 6-31.6h6l6 14.6h12l6 7.3 6-7.3h12l6 2.4 6-2.4 6 17 6-34.1 6 21.9 6-4.8 6 19.4 6-36.5 6 17.1 6 19.4 6-34 6 14.6 6 19.4 6-19.4 6 9.7 6-4.9 6 14.6 6-17 6 24.3 6-26.7 6 24.3 6-2.5 6.1 2.5 6-7.3 6 4.8h6l6-2.4 6-46.2 6 31.6 6 12.2 6-14.6 6-2.4 6 2.4 6 17 6-36.5.4-2103.5m11 0l.6 2120.6 6 19.4 6-17" fill="none" color="#000"/><g><path stroke="#E69F00" d="M20.7 1518.9H615" fill="none" color="#000"/></g><g><path stroke="#F0E442" d="M20.7 1400.8H615" fill="none" color="#000"/></g><g><path stroke="#0072B2" d="M20.7 1282.6H615" fill="none" color="#000"/></g><g><path stroke="#E51E10" d="M20.7 1168.6l6 10.9 6-13.2 6-44.5 6 22.5 6 23.2 6 21.6 6-18.6 6-13.7 6-17 6 37.3 6-46.6 6 62.9 6-52.2 6-2.5 6 20 6-5.1 6.1 7.2 6 8.3 6 2.7 6-21.9 6 16.7 6-7.4 6 17.9 6-32.4 6 32.9 6-26 6-16.7 6 28.8 6-3.8 6-44.6 6 71.7 6-76.2 6 60.7 6-22.4 6 1.3 6 9.8 6 12.1 6 11.1 6-3.1 6-30 6-12.5 6 65.4 6-65.8 6 14.4 6 14.5 6 42.6 6-22.8 6-44.8 6-12.6 6.1 45.8 6-25.1 6-2.1 6-22.5 6 11.6 6 38.2 6-6.1 6 10.6 6 13.6 6 29.1 6-97.5 6 6.1 6 16.9 6 4.1 6-24 6 9.9 6 27.2 6-19.6 6 3.5 6 16.6 6-20.9 6 60.9 6-57.9 6 60.7 6 4.6 6-11 6-46.2 6 45.4 6 10.3 6-52.3 6-9.3 6 12.8 6-1.5 6.1 45.5 6-66.4 6 25.4 6 47.5 6-56 6 50.4 6-43.7 6-2.4 6 7.9 6 22.7 6-16.3 6 19.5 6 1.4 6-45.8 6 45.7 6-37.3 6 39.2" fill="none" color="#000"/></g><g><path stroke="#000" d="M20.7 961.7l6 66.1 6-11.9 6 9.8 6 39.4 6 23.6 6-24.2 6-46.3 6-8.1 6-29.1 6 66.9 6-6.3 6 27.7 6-66.5 6 32.6 6-25.6 6 39.9 6.1 30.8 6-77.4 6 34.6 6 14.4 6-3.5 6 8.8 6-10.7 6 26.7 6-4.6 6-42.2 6 19.3 6 53 6-56.3 6 12 6-22.3 6-9.7 6 12.4 6 21.8 6 7.9 6-4.9 6-2.9 6-3.2 6-60.5 6 70.2 6 18.9 6-12.5 6-41.3 6-5.3 6 22.2 6 68.2 6-48.5 6-59.1 6 65.9 6.1 3 6-3 6-36.2 6 20.9 6-43.8 6 23.3 6 19.1 6-55.3 6 49.8 6-8.3 6 5.9 6-25.5 6 27.1 6 16 6-33.2 6 8.9 6-14.4 6 42.7 6-5.7 6 20.4 6-60.6 6 50.6 6-35.9 6 38.5 6 8.5 6-14.7 6-11.5 6-27.8 6 36 6-15 6-15.7 6-37.3 6 71.8 6.1-24.4 6-2.2 6 14.9 6 17 6-50.3 6 36.2 6-5 6-14.4 6-10.7 6 32.9 6 .7 6-57.1 6 47.8 6-27.2 6 3.3 6 18.4 6 20.7" fill="none" color="#000"/></g><g><path stroke="#9400D3" d="M20.7 932l6-48.8 6 60.6 6-7.9 6 9.5 6 31.8 6-44.4 6 9.7 6 1.2 6-42 6-16.2 6 61 6 19.7 6-19.7 6-45.1 6 45.8 6-21.4 6.1-18.6 6 17.7 6 5 6-14.7 6 52.6 6-27.6 6-33.9 6 51.5 6-13 6 .1 6-41.7 6 53.4 6-33.3 6 34.1 6 6.5 6-278.6 6 239.3 6 15.9 6 13.9 6-11.7 6 16.8 6-3 6-8 6-18.5 6 9.3 6-243 6 236.5 6 24.7 6-29.5 6 35.2 6-31.1 6-33 6 44.1 6.1-272.8 6 307.2 6-61.1 6 27.6 6-7.2 6-229.8 6 253.5 6-41.7 6 38.4 6-93.2 6 101.8 6-53.3 6 7.8 6 27.1 6 16.6 6-36.6 6 11.2 6 13.6 6-2.9 6-24.7 6-.9 6 35 6-4.3 6-21.5 6 27.4 6-11.7 6-21.6 6-16.6 6 20.8 6-1 6-14.4 6-2.5 6 30.3 6.1 17.9 6-47.4 6 33.5 6-1.7 6 9.1 6-23.1 6 36.2 6-45.1 6 18.2 6 .3 6-9.3 6 6.2 6 18.1 6-9.4 6-.3 6-8.4 6 34.6" fill="none" color="#000"/></g><g><path stroke="#009E73" d="M20.7 813.8l6-48.8 6 60.6 6-7.9 6 9.5 6 31.9 6-44.5 6 9.7 6 1.2 6-42 6-16.2 6 61 6 19.8 6-19.8 6-45.1 6 45.8 6-21.4 6.1-18.6 6 17.7 6 5 6-14.7 6 52.7 6-27.6 6-34 6 51.5 6-13 6 .1 6-41.7 6 53.4 6-33.3 6 34.1 6 6.5 6-278.6 6 239.3 6 15.9 6 13.9 6-11.6 6 16.7 6-3 6-8 6-18.5 6 9.3 6-242.9 6 236.4 6 24.8 6-29.6 6 35.3 6-31.2 6-33 6 44.2 6.1-272.9 6 307.3 6-61.2 6 27.6 6-7.2 6-229.8 6 253.5 6-41.6 6 38.4 6-93.3 6 101.8 6-53.2 6 7.8 6 27 6 16.6 6-36.6 6 11.2 6 13.6 6-2.8 6-24.8 6-.9 6 35 6-4.3 6-21.5 6 27.4 6-11.7 6-21.6 6-16.6 6 20.8 6-1 6-14.3 6-2.5 6 30.2 6.1 17.9 6-47.4 6 33.5 6-1.7 6 9.1 6-23.1 6 36.3 6-45.2 6 18.3 6 .2 6-9.3 6 6.2 6 18.1 6-9.4 6-.3 6-8.4 6 34.7" fill="none" color="#000"/></g><g><path stroke="#56B4E9" d="M20.7 695.6l6-48.7 6 60.5 6-7.8 6 9.4 6 31.9 6-44.4 6 9.6 6 1.2 6-42 6-16.1 6 60.9 6 19.8 6-19.8 6-45 6 45.7 6-21.3 6.1-18.6 6 17.7 6 5 6-14.8 6 52.7 6-27.6 6-33.9 6 51.5 6-13.1 6 .1 6-41.7 6 53.4 6-33.3 6 34.1 6 6.5 6-278.5 6 239.3 6 15.9 6 13.8 6-11.6 6 16.8 6-3 6-8 6-18.6 6 9.4 6-243 6 236.4 6 24.8 6-29.5 6 35.2 6-31.1 6-33.1 6 44.2 6.1-272.9 6 307.3 6-61.2 6 27.7 6-7.2 6-229.9 6 253.5 6-41.6 6 38.4 6-93.3 6 101.8 6-53.2 6 7.8 6 27.1 6 16.5 6-36.5 6 11.1 6 13.7 6-2.9 6-24.8 6-.9 6 35 6-4.3 6-21.5 6 27.4 6-11.6 6-21.6 6-16.6 6 20.8 6-1.1 6-14.3 6-2.5 6 30.3 6.1 17.8 6-47.3 6 33.5 6-1.7 6 9.1 6-23.1 6 36.2 6-45.2 6 18.3 6 .2 6-9.2 6 6.1 6 18.1 6-9.4 6-.3 6-8.4 6 34.7" fill="none" color="#000"/></g><g><path stroke="#E69F00" d="M20.7 577.5l6-48.8 6 60.6 6-7.9 6 9.5 6 31.8 6-44.4 6 9.7 6 1.1 6-41.9 6-16.2 6 60.9 6 19.8 6-19.7 6-45.1 6 45.7 6-21.3 6.1-18.6 6 17.7 6 5 6-14.8 6 52.7 6-27.6 6-33.9 6 51.5 6-13.1 6 .1 6-41.6 6 53.3 6-33.3 6 34.1 6 6.5 6-278.5 6 239.3 6 15.9 6 13.8 6-11.6 6 16.8 6-3 6-8 6-18.5 6 9.3 6-243 6 236.4 6 24.8 6-29.5 6 35.2 6-31.1 6-33.1 6 44.2 6.1-272.8 6 307.2 6-61.2 6 27.7 6-7.2 6-229.9 6 253.5 6-41.6 6 38.4 6-93.2 6 101.7 6-53.2 6 7.8 6 27.1 6 16.5 6-36.5 6 11.1 6 13.7 6-2.9 6-24.7 6-1 6 35 6-4.2 6-21.6 6 27.5 6-11.7 6-21.6 6-16.6 6 20.8 6-1 6-14.4 6-2.5 6 30.3L519 607l6-47.3 6 33.5 6-1.7 6 9.1 6-23.1 6 36.2 6-45.1 6 18.2 6 .2 6-9.2 6 6.1 6 18.1 6-9.4 6-.3 6-8.4 6 34.7" fill="none" color="#000"/></g><g><path stroke="#F0E442" d="M20.7 428.6l6-33.1 6 66.1 6-16.5 6 16.5 6 16.6 6-49.6 6 16.5h6l6-49.6h6l6 66.1h12l6-49.6 6 49.6 6-33 6.1-33.1 6 33.1 6 16.5 6-33.1 6 66.2 6-33.1 6-33.1 6 66.2 6-33.1 6 16.5 6-49.6 6 49.6 6-33 6 49.6 6-16.6 6 165.5 6-198.5 6 33h12l6 33.1 6-33.1 6 16.6 6-33.1h6l6 182 6-182 6 33.1 6-33.1 6 16.5 6-16.5 6-33.1 6 49.6 6.1 165.5 6-132.4 6-66.1 6 33 6-16.5 6 182 6-148.9 6-49.6 6 33 6-99.2 6 115.8 6-49.6h6l6 33 6 16.6 6-33.1h6l6 16.5h6l6-49.6 6 16.6 6 49.6h6l6-33.1 6 16.5 6 16.6 6-49.6h6l6 16.5h6l6-16.5 6-16.6 6 49.6h6.1l6-33 6 16.5 6 16.5h6l6-16.5 6 33.1 6-33.1 6 16.5 6-16.5 6-16.5 6 16.5 6 33.1h6l6-16.6 6-16.5 6 33.1" fill="none" color="#000"/></g><g><path stroke="#0072B2" d="M20.7 428l6-6.8 6 12 6-.7 6 .7 6 11.8 6-21.9 6 8.5 6 1.1 6-13.8 6-30.5 6 51.6 6-28.4 6 30.1 6-35.5 6 39 6-63.1 6.1 8.7 6 41.3 6 5.1 6-20.1 6 22.1 6-1.5 6-50.3 6 48.1 6-23.6 6 37.3 6-17 6 15.3 6-66.3 6 66.3 6 9.9L208 18.1m9.7 0l1.1 358.3 6 46.4 6-1.3 6 10.6 6 2.9 6 9.6 6-21.4 6 21.4 6-5.6 1-420.9m9.9 0l1.1 415.3 6-1 6-4.6 6 18.8 6-11.5 6-5.6 6 17.3 1.3-428.7m9.5 0l1.3 414.6 6 .5 6-48.9 6 60.2 1-426.4m9.9 0l1.1 417.4 6-70 6 38.6 6 30.3 6-11.1 6-1.4 6-4.7 6 22.4 6-34 6 26.2 6-45.9 6 42.5 6 6.6 6-4.2 6-31.5 6 38.2 6-9.6 6 15.2 6 6.7 6-14.1 6-11.8 6 14.1 6 10.2 6-64.1 6 60.4 6-2.8 6-4.3 6.1 13.1 6-21.8 6 21 6-14 6 1.1 6-1.5 6-4.6 6-36.1 6 50.7 6-7.1 6-55.5 6 45.7 6 10.6 6-6.3 6-3.1 6-14.1 6 2.3" fill="none" color="#000"/></g><g><path stroke="#E51E10" d="M20.7 289.2h6l6-82.7h36l6 82.7 6-82.7h18l6 82.7 6-82.7h42.1l6 82.7 6-82.7h24l6 82.7 6-82.7 6 82.7 6-82.7h42l6 82.7h6l6-77.2 6-5.5 6 82.7 6-82.7h18l6 82.7 6.1-82.7h18l6 82.7 6-77.2 6-5.5H519l6 82.7 6-82.7h6l6 82.7 6-82.7h42l6 82.7 6-82.7h12" fill="none" color="#000"/></g><g><path stroke="#000" d="M20.7 123.3l6-33.8 6-26.6 6 14.9 6 29.3 6 14.1 6-15.4 6-35.4 6 13 6 18.5 6-31.4 6 41.8 6-3.6 6-13 6 6.6 6-6.1 6 22.9 6.1-44.1 6 31 6-10.3 6 3.4 6-42.2 6 31.4 6 17 6-67.6 6 60.4 6 8.2 6-29.3 6 10.1 6 30.2 6-40.7 6 70.2 6 51.6 6-91 6 4.4 6-18.4 6 20.9 6-21.3 6-54.1 6 64.2 6 19.2 6 6.6 6 92.7 6-147.4 6 33.3 6-40.5 6 25 6 21.8 6-14 6 31.7 6.1 35.4 6-56.9 6-56.8 6 69.2 6 4.8 6 117 6-150.1 6 19.7 6-51.2 6 13.1 6 41.8 6-40.3 6 37.7 6-30.7 6 15 6-19.3 6 7.5 6-11.9 6 41.4 6 .2 6-4.9 6 2 6-9.3 6-45.8 6 32.2 6-.2 6 18 6-2.3 6-4.7 6-10.3 6-39.5 6 11.9 6 37.9 6.1 8.8 6-.8 6-38.9 6 11.8 6 56.6 6-39.6 6-3.7 6 7.1 6-21.4 6 12.6 6 19.8 6-26 6 13.4 6-25.3 6 41.3 6 6.1 6-36.7" fill="none" color="#000"/></g><g fill="none" color="#000" stroke="currentColor"><path stroke="#000" d="M20.7 18.1v3805.3H615V18.1H20.7z"/><text transform="translate(34.9 3709.1)" stroke="none" fill="#000" font-family="Arial" font-size="12"><tspan>total-blocking-time, p90stdev=0, score:p90stdev=0, range=[0:0]</tspan></text><text transform="translate(34.9 3590.9)" stroke="none" fill="#000" font-family="Arial" font-size="12"><tspan>cumulative-layout-shift, p90stdev=0, score:p90stdev=0, range=[0:0]</tspan></text><text transform="translate(34.9 3472.8)" stroke="none" fill="#000" font-family="Arial" font-size="12"><tspan>server-response-time, p90stdev=0.124, score:p90stdev=0, range=[1.414:2.398]</tspan></text><text transform="translate(34.9 3354.6)" stroke="none" fill="#000" font-family="Arial" font-size="12"><tspan>redirects, p90stdev=0, score:p90stdev=0, range=[0:0]</tspan></text><text transform="translate(34.9 3236.4)" stroke="none" fill="#000" font-family="Arial" font-size="12"><tspan>uses-rel-preload, p90stdev=0, score:p90stdev=0, range=[0:0]</tspan></text><text transform="translate(34.9 3118.2)" stroke="none" fill="#000" font-family="Arial" font-size="12"><tspan>offscreen-images, p90stdev=0, score:p90stdev=0, range=[0:0]</tspan></text><text transform="translate(34.9 3000.1)" stroke="none" fill="#000" font-family="Arial" font-size="12"><tspan>unminified-css, p90stdev=0, score:p90stdev=0, range=[0:0]</tspan></text><text transform="translate(34.9 2881.9)" stroke="none" fill="#000" font-family="Arial" font-size="12"><tspan>unminified-javascript, p90stdev=0, score:p90stdev=0, range=[0:0]</tspan></text><text transform="translate(34.9 2763.7)" stroke="none" fill="#000" font-family="Arial" font-size="12"><tspan>unused-css-rules, p90stdev=0, score:p90stdev=0, range=[300:300]</tspan></text><text transform="translate(34.9 2645.5)" stroke="none" fill="#000" font-family="Arial" font-size="12"><tspan>unused-javascript, p90stdev=0, score:p90stdev=0, range=[0:0]</tspan></text><text transform="translate(34.9 2527.4)" stroke="none" fill="#000" font-family="Arial" font-size="12"><tspan>uses-webp-images, p90stdev=0, score:p90stdev=0, range=[0:0]</tspan></text><text transform="translate(34.9 2409.2)" stroke="none" fill="#000" font-family="Arial" font-size="12"><tspan>uses-optimized-images, p90stdev=0, score:p90stdev=0, range=[0:0]</tspan></text><text transform="translate(34.9 2291)" stroke="none" fill="#000" font-family="Arial" font-size="12"><tspan>uses-text-compression, p90stdev=0, score:p90stdev=0, range=[300:300]</tspan></text><text transform="translate(34.9 2172.8)" stroke="none" fill="#000" font-family="Arial" font-size="12"><tspan>uses-responsive-images, p90stdev=0, score:p90stdev=0, range=[0:0]</tspan></text><text transform="translate(34.9 2054.6)" stroke="none" fill="#000" font-family="Arial" font-size="12"><tspan>efficient-animated-content, p90stdev=0, score:p90stdev=0, range=[0:0]</tspan></text><text transform="translate(34.9 1936.5)" stroke="none" fill="#000" font-family="Arial" font-size="12"><tspan>duplicated-javascript, p90stdev=0, score:p90stdev=0, range=[0:0]</tspan></text><text transform="translate(34.9 1818.3)" stroke="none" fill="#000" font-family="Arial" font-size="12"><tspan>legacy-javascript, p90stdev=0, score:p90stdev=0, range=[0:0]</tspan></text><text transform="translate(34.9 1700.1)" stroke="none" fill="#000" font-family="Arial" font-size="12"><tspan>estimated-input-latency, p90stdev=0, score:p90stdev=0, range=[12.8:12.8]</tspan></text><text transform="translate(34.9 1581.9)" stroke="none" fill="#000" font-family="Arial" font-size="12"><tspan>total-byte-weight, p90stdev=5.977, score:p90stdev=0, range=[455561:466013]</tspan></text><text transform="translate(34.9 1463.8)" stroke="none" fill="#000" font-family="Arial" font-size="12"><tspan>uses-long-cache-ttl, p90stdev=0, score:p90stdev=0, range=[732:732]</tspan></text><text transform="translate(34.9 1345.6)" stroke="none" fill="#000" font-family="Arial" font-size="12"><tspan>max-potential-fid, p90stdev=0, score:p90stdev=0, range=[16:16]</tspan></text><text transform="translate(34.9 1227.4)" stroke="none" fill="#000" font-family="Arial" font-size="12"><tspan>dom-size, p90stdev=0, score:p90stdev=0, range=[59:59]</tspan></text><text transform="translate(34.9 1109.2)" stroke="none" fill="#000" font-family="Arial" font-size="12"><tspan>bootup-time, p90stdev=0.666, score:p90stdev=0, range=[11.64:15.188]</tspan></text><text transform="translate(34.9 991.1)" stroke="none" fill="#000" font-family="Arial" font-size="12"><tspan>mainthread-work-breakdown, p90stdev=5.044, score:p90stdev=0, range=[412.496:450.98]</tspan></text><text transform="translate(34.9 872.9)" stroke="none" fill="#000" font-family="Arial" font-size="12"><tspan>first-cpu-idle, p90stdev=1.259, score:p90stdev=0, range=[1512.27:1533.681]</tspan></text><text transform="translate(34.9 754.7)" stroke="none" fill="#000" font-family="Arial" font-size="12"><tspan>interactive, p90stdev=1.259, score:p90stdev=0, range=[1512.27:1533.681]</tspan></text><text transform="translate(34.9 636.5)" stroke="none" fill="#000" font-family="Arial" font-size="12"><tspan>first-contentful-paint, p90stdev=1.259, score:p90stdev=0, range=[1512.27:1533.681]</tspan></text><text transform="translate(34.9 518.3)" stroke="none" fill="#000" font-family="Arial" font-size="12"><tspan>first-meaningful-paint, p90stdev=1.259, score:p90stdev=0, range=[1512.27:1533.681]</tspan></text><text transform="translate(34.9 400.2)" stroke="none" fill="#000" font-family="Arial" font-size="12"><tspan>render-blocking-resources, p90stdev=1.238, score:p90stdev=0.001, range=[0:16]</tspan></text><text transform="translate(34.9 282)" stroke="none" fill="#000" font-family="Arial" font-size="12"><tspan>network-rtt, p90stdev=0.028, score:p90stdev=0.028, range=[0.038:3.632]</tspan></text><text transform="translate(34.9 163.8)" stroke="none" fill="#000" font-family="Arial" font-size="12"><tspan>uses-http2, p90stdev=37.195, score:p90stdev=0.031, range=[10:160]</tspan></text><text transform="translate(34.9 45.6)" stroke="none" fill="#000" font-family="Arial" font-size="12"><tspan>network-server-latency, p90stdev=0.601, score:p90stdev=0.601, range=[1.125:7.95]</tspan></text></g></svg>