<svg width="640" height="500" xmlns="http://www.w3.org/2000/svg" xmlns:xlink="http://www.w3.org/1999/xlink"><path fill="#fff" d="M0 0h640v500H0z"/><defs><path id="d" stroke-width=".222" stroke="currentColor" d="M-1-1h2v2h-2z"/><path id="b" stroke-width=".222" stroke="currentColor" d="M0-1.33l-1.33 2h2.66z"/><path id="f" stroke-width=".222" stroke="currentColor" d="M0 1.33L1.265.411.782-1.067l-1.564-.009-.483 1.487z"/><use xlink:href="#b" id="c" stroke="currentColor" transform="rotate(180)"/><use xlink:href="#d" id="e" stroke="currentColor" transform="rotate(45)"/><circle id="a" stroke-width=".222" stroke="currentColor" cx="0" cy="0" r="1"/></defs><g fill="none" color="#000" stroke="currentColor"><path stroke="#000" d="M62.2 445.3h9m543.8 0h-9"/><text transform="translate(53.9 449.2)" stroke="none" fill="#000" font-family="Arial" font-size="12" text-anchor="end"><tspan>0.49</tspan></text></g><g fill="none" color="#000" stroke="currentColor"><path stroke="#000" d="M62.2 389.9h9m543.8 0h-9"/><text transform="translate(53.9 393.8)" stroke="none" fill="#000" font-family="Arial" font-size="12" text-anchor="end"><tspan>0.5</tspan></text></g><g fill="none" color="#000" stroke="currentColor"><path stroke="#000" d="M62.2 334.6h9m543.8 0h-9"/><text transform="translate(53.9 338.5)" stroke="none" fill="#000" font-family="Arial" font-size="12" text-anchor="end"><tspan>0.51</tspan></text></g><g fill="none" color="#000" stroke="currentColor"><path stroke="#000" d="M62.2 279.3h9m543.8 0h-9"/><text transform="translate(53.9 283.2)" stroke="none" fill="#000" font-family="Arial" font-size="12" text-anchor="end"><tspan>0.52</tspan></text></g><g fill="none" color="#000" stroke="currentColor"><path stroke="#000" d="M62.2 223.9h9m543.8 0h-9"/><text transform="translate(53.9 227.8)" stroke="none" fill="#000" font-family="Arial" font-size="12" text-anchor="end"><tspan>0.53</tspan></text></g><g fill="none" color="#000" stroke="currentColor"><path stroke="#000" d="M62.2 168.6h9m543.8 0h-9"/><text transform="translate(53.9 172.5)" stroke="none" fill="#000" font-family="Arial" font-size="12" text-anchor="end"><tspan>0.54</tspan></text></g><g fill="none" color="#000" stroke="currentColor"><path stroke="#000" d="M62.2 113.3h9m543.8 0h-9"/><text transform="translate(53.9 117.2)" stroke="none" fill="#000" font-family="Arial" font-size="12" text-anchor="end"><tspan>0.55</tspan></text></g><g fill="none" color="#000" stroke="currentColor"><path stroke="#000" d="M62.2 57.9h9m543.8 0h-9"/><text transform="translate(53.9 61.8)" stroke="none" fill="#000" font-family="Arial" font-size="12" text-anchor="end"><tspan>0.56</tspan></text></g><g fill="none" color="#000" stroke="currentColor"><path stroke="#000" d="M62.2 446v-9m0-418.9v9"/><text transform="translate(62.2 467.9)" stroke="none" fill="#000" font-family="Arial" font-size="12" text-anchor="middle"><tspan>0</tspan></text></g><g fill="none" color="#000" stroke="currentColor"><path stroke="#000" d="M118 446v-9m0-418.9v9"/><text transform="translate(118 467.9)" stroke="none" fill="#000" font-family="Arial" font-size="12" text-anchor="middle"><tspan>10</tspan></text></g><g fill="none" color="#000" stroke="currentColor"><path stroke="#000" d="M173.9 446v-9m0-418.9v9"/><text transform="translate(173.9 467.9)" stroke="none" fill="#000" font-family="Arial" font-size="12" text-anchor="middle"><tspan>20</tspan></text></g><g fill="none" color="#000" stroke="currentColor"><path stroke="#000" d="M229.7 446v-9m0-418.9v9"/><text transform="translate(229.7 467.9)" stroke="none" fill="#000" font-family="Arial" font-size="12" text-anchor="middle"><tspan>30</tspan></text></g><g fill="none" color="#000" stroke="currentColor"><path stroke="#000" d="M285.6 446v-9m0-418.9v9"/><text transform="translate(285.6 467.9)" stroke="none" fill="#000" font-family="Arial" font-size="12" text-anchor="middle"><tspan>40</tspan></text></g><g fill="none" color="#000" stroke="currentColor"><path stroke="#000" d="M341.4 446v-9m0-418.9v9"/><text transform="translate(341.4 467.9)" stroke="none" fill="#000" font-family="Arial" font-size="12" text-anchor="middle"><tspan>50</tspan></text></g><g fill="none" color="#000" stroke="currentColor"><path stroke="#000" d="M397.2 446v-9m0-418.9v9"/><text transform="translate(397.2 467.9)" stroke="none" fill="#000" font-family="Arial" font-size="12" text-anchor="middle"><tspan>60</tspan></text></g><g fill="none" color="#000" stroke="currentColor"><path stroke="#000" d="M453.1 446v-9m0-418.9v9"/><text transform="translate(453.1 467.9)" stroke="none" fill="#000" font-family="Arial" font-size="12" text-anchor="middle"><tspan>70</tspan></text></g><g fill="none" color="#000" stroke="currentColor"><path stroke="#000" d="M508.9 446v-9m0-418.9v9"/><text transform="translate(508.9 467.9)" stroke="none" fill="#000" font-family="Arial" font-size="12" text-anchor="middle"><tspan>80</tspan></text></g><g fill="none" color="#000" stroke="currentColor"><path stroke="#000" d="M564.7 446v-9m0-418.9v9"/><text transform="translate(564.7 467.9)" stroke="none" fill="#000" font-family="Arial" font-size="12" text-anchor="middle"><tspan>90</tspan></text></g><path stroke="#000" d="M62.2 18.1V446H615V18.1H62.2z" fill="none" color="#000"/><text transform="translate(279.8 485.9)" stroke="none" fill="#000" font-family="Arial" font-size="12" text-anchor="end" color="#000"><tspan>pages+cached</tspan></text><path stroke="#9400D3" d="M288.1 482h42.2M62.2 294.9l5.6 42.4 5.6-169.4 5.6 62.7 5.5-11.4L90.1 338l5.6-249.6 5.6 349.4 5.6-142.8 5.6-51 5.5-128.7 5.6 139.1 5.6-115.9 5.6 272.5 5.6-168.4 5.6 97.9 5.5-204.8 5.6 210.7 5.6-168.4 5.6 108.9 5.6-128.7 5.6 4.6 5.5 125.7 5.6-188.6 5.6 84.1 5.6 4 5.6-51.5 5.6 149.2 5.5-128 5.6 138.4 5.6-47.9 5.6-39.2 5.6-85.2 5.6 8 5.6 106.2 5.5 3.5 5.6-15.3 5.6 132.7 5.6-225.5 5.6 124.4 5.6-123.2 5.5 93.8 5.6 18 5.6 134.1 5.6-192.4 5.6-7.4 5.6 14 5.5-53.1 5.6-48 5.6 148.5 5.6-124.9 5.6 88.5 5.6-102.8 5.5 142.4 5.6.3 5.6-24.3 5.6 113.2 5.6-37.8 5.6-24.8 5.5-110 5.6 232.6 5.6-141.6 5.6-134.9 5.6 34.9 5.6 190.4 5.5-156.4 5.6-96.8 5.6 77.7 5.6-22.9 5.6-21.2 5.6 111.9 5.6-135.9 5.5 201.8 5.6-69.7 5.6-63.2 5.6 24 5.6-48.7 5.6-18.4 5.5-29.7 5.6 72 5.6 209.1 5.6-206.8 5.6 165.3 5.6-104.8 5.5-25.2 5.6-4.3 5.6 87L548 99.3l5.6 114.7 5.6 109.6 5.5-92.3 5.6-36 5.6 5.7 5.6-174.7 5.6 149.3 5.6-43.7 5.5-16.1 5.6-20 5.6 72.1 5.6 203.6" fill="none" color="#000"/><text transform="translate(554.4 485.9)" stroke="none" fill="#000" font-family="Arial" font-size="12" text-anchor="end" color="#000"><tspan>pages+cached+nointeractive</tspan></text><path stroke="#009E73" d="M562.7 482h42.2M62.2 177.3l5.6-43.8 5.6 79.5 5.6-50 5.5 7.2 5.6 14 5.6-15.7 5.6 68 5.6 40.2 5.6 120.3 5.5-118.2 5.6 62.3 5.6-122 5.6 115.5 5.6-204.6 5.6-37.6 5.5 150.8 5.6-111.2 5.6 6.3 5.6 186 5.6-239 5.6 103.6 5.5-94.3 5.6 130 5.6 97.1 5.6-31.2 5.6-72 5.6-94 5.5 78.5 5.6-83.4 5.6 158.7 5.6-152.1 5.6-4.4 5.6 241.7 5.6-38.8 5.5-206.6 5.6 98.6 5.6-110.5 5.6 163 5.6-132.8 5.6-43.7 5.5 195.2 5.6-55.1 5.6-151.1 5.6 113.3 5.6 11.9 5.6-76.7 5.5 97.9 5.6-16.4 5.6 29.1 5.6-105.3 5.6 52.6 5.6 16.8 5.5 12 5.6 15.9 5.6-119.6 5.6 176.9 5.6-33.6 5.6-121.5 5.5-15.8 5.6 15 5.6 65.9 5.6-15.4 5.6-50.9 5.6 97.1 5.5 8.9 5.6-37.5 5.6 33.8 5.6 6.5 5.6-51.8 5.6-5.8 5.6 182.7 5.5-133.6 5.6 48.3 5.6-145.1 5.6 108.8 5.6-109 5.6 101.9 5.5 4 5.6-127.7 5.6 103.5 5.6-86.5 5.6 142.2 5.6-78.6 5.5 88.3 5.6-128.5 5.6 74.4 5.6 56 5.6-59.2 5.6-9.7 5.5-79.6 5.6 119.1 5.6-136.3 5.6 1.7 5.6 123.7 5.6 118.6 5.5-237.1 5.6 82.8 5.6-89.7 5.6 145.4" fill="none" color="#000"/><g fill="none" color="#000" stroke="currentColor"><path stroke="#000" d="M62.2 18.1V446H615V18.1H62.2z"/></g></svg>