<svg width="640" height="500" xmlns="http://www.w3.org/2000/svg" xmlns:xlink="http://www.w3.org/1999/xlink"><path fill="#fff" d="M0 0h640v500H0z"/><defs><path id="d" stroke-width=".222" stroke="currentColor" d="M-1-1h2v2h-2z"/><path id="b" stroke-width=".222" stroke="currentColor" d="M0-1.33l-1.33 2h2.66z"/><path id="f" stroke-width=".222" stroke="currentColor" d="M0 1.33L1.265.411.782-1.067l-1.564-.009-.483 1.487z"/><use xlink:href="#b" id="c" stroke="currentColor" transform="rotate(180)"/><use xlink:href="#d" id="e" stroke="currentColor" transform="rotate(45)"/><circle id="a" stroke-width=".222" stroke="currentColor" cx="0" cy="0" r="1"/></defs><g fill="none" color="#000" stroke="currentColor"><path stroke="#000" d="M62.2 384.5h9m543.8 0h-9"/><text transform="translate(53.9 388.4)" stroke="none" fill="#000" font-family="Arial" font-size="12" text-anchor="end"><tspan>0.7</tspan></text></g><g fill="none" color="#000" stroke="currentColor"><path stroke="#000" d="M62.2 301h9m543.8 0h-9"/><text transform="translate(53.9 304.9)" stroke="none" fill="#000" font-family="Arial" font-size="12" text-anchor="end"><tspan>0.71</tspan></text></g><g fill="none" color="#000" stroke="currentColor"><path stroke="#000" d="M62.2 217.6h9m543.8 0h-9"/><text transform="translate(53.9 221.5)" stroke="none" fill="#000" font-family="Arial" font-size="12" text-anchor="end"><tspan>0.72</tspan></text></g><g fill="none" color="#000" stroke="currentColor"><path stroke="#000" d="M62.2 134.1h9m543.8 0h-9"/><text transform="translate(53.9 138)" stroke="none" fill="#000" font-family="Arial" font-size="12" text-anchor="end"><tspan>0.73</tspan></text></g><g fill="none" color="#000" stroke="currentColor"><path stroke="#000" d="M62.2 50.6h9m543.8 0h-9"/><text transform="translate(53.9 54.5)" stroke="none" fill="#000" font-family="Arial" font-size="12" text-anchor="end"><tspan>0.74</tspan></text></g><g fill="none" color="#000" stroke="currentColor"><path stroke="#000" d="M62.2 446v-9m0-418.9v9"/><text transform="translate(62.2 467.9)" stroke="none" fill="#000" font-family="Arial" font-size="12" text-anchor="middle"><tspan>0</tspan></text></g><g fill="none" color="#000" stroke="currentColor"><path stroke="#000" d="M118 446v-9m0-418.9v9"/><text transform="translate(118 467.9)" stroke="none" fill="#000" font-family="Arial" font-size="12" text-anchor="middle"><tspan>10</tspan></text></g><g fill="none" color="#000" stroke="currentColor"><path stroke="#000" d="M173.9 446v-9m0-418.9v9"/><text transform="translate(173.9 467.9)" stroke="none" fill="#000" font-family="Arial" font-size="12" text-anchor="middle"><tspan>20</tspan></text></g><g fill="none" color="#000" stroke="currentColor"><path stroke="#000" d="M229.7 446v-9m0-418.9v9"/><text transform="translate(229.7 467.9)" stroke="none" fill="#000" font-family="Arial" font-size="12" text-anchor="middle"><tspan>30</tspan></text></g><g fill="none" color="#000" stroke="currentColor"><path stroke="#000" d="M285.6 446v-9m0-418.9v9"/><text transform="translate(285.6 467.9)" stroke="none" fill="#000" font-family="Arial" font-size="12" text-anchor="middle"><tspan>40</tspan></text></g><g fill="none" color="#000" stroke="currentColor"><path stroke="#000" d="M341.4 446v-9m0-418.9v9"/><text transform="translate(341.4 467.9)" stroke="none" fill="#000" font-family="Arial" font-size="12" text-anchor="middle"><tspan>50</tspan></text></g><g fill="none" color="#000" stroke="currentColor"><path stroke="#000" d="M397.2 446v-9m0-418.9v9"/><text transform="translate(397.2 467.9)" stroke="none" fill="#000" font-family="Arial" font-size="12" text-anchor="middle"><tspan>60</tspan></text></g><g fill="none" color="#000" stroke="currentColor"><path stroke="#000" d="M453.1 446v-9m0-418.9v9"/><text transform="translate(453.1 467.9)" stroke="none" fill="#000" font-family="Arial" font-size="12" text-anchor="middle"><tspan>70</tspan></text></g><g fill="none" color="#000" stroke="currentColor"><path stroke="#000" d="M508.9 446v-9m0-418.9v9"/><text transform="translate(508.9 467.9)" stroke="none" fill="#000" font-family="Arial" font-size="12" text-anchor="middle"><tspan>80</tspan></text></g><g fill="none" color="#000" stroke="currentColor"><path stroke="#000" d="M564.7 446v-9m0-418.9v9"/><text transform="translate(564.7 467.9)" stroke="none" fill="#000" font-family="Arial" font-size="12" text-anchor="middle"><tspan>90</tspan></text></g><path stroke="#000" d="M62.2 18.1V446H615V18.1H62.2z" fill="none" color="#000"/><text transform="translate(279.8 485.9)" stroke="none" fill="#000" font-family="Arial" font-size="12" text-anchor="end" color="#000"><tspan>pages+cached+noadtech</tspan></text><path stroke="#9400D3" d="M288.1 482h42.2M62.2 212.7l5.6-163.8 5.6-.5 5.6 97.5 5.5 25.6 5.6 45.8 5.6 100.8 5.6-174.3 5.6-96.1 5.6 272 5.5-146.5 5.6 42.7 5.6-165.6 5.6 194.1 5.6.9 5.6 75.9 5.5-148.6 5.6 71.7 5.6-73.4 5.6 187.7 5.6-311.1 5.6 182.4 5.5 91 5.6 34.8L196.2 49l5.6 271.8 5.6-88.9 5.6-31.3 5.5-28.6 5.6 43.5 5.6 138.4L235.3 47l5.6 96.7 5.6 175.8 5.6-272.9 5.5 168.3 5.6 30.9 5.6-199 5.6 167.1 5.6 1.8 5.6 103.7 5.5-148 5.6 17.3 5.6 13.8 5.6 42.3 5.6-72.3 5.6 72.6 5.5-195.6 5.6 122.4 5.6 147.5 5.6-173 5.6 174.1 5.6-12.4 5.5-136.6 5.6-26.8 5.6 71.9 5.6-70.6 5.6 160.4 5.6-129.5 5.5-150.5 5.6 118.3 5.6 31.9 5.6 37.2L414 49.4l5.6 96.4 5.5 100.6 5.6-57.2 5.6-142.6 5.6.7 5.6 154.4 5.6 68.9 5.6-100.3 5.5 20 5.6-.9 5.6-18.7 5.6 135.8 5.6 14.4L492.2 48l5.5 166.9 5.6-122.7 5.6 122.7 5.6 104.4 5.6-104 5.6 103.4 5.5-103.5 5.6-12.7 5.6-30.6 5.6 19 5.6 24.8 5.6 88.1 5.5-113.7 5.6-140.6 5.6 336.1 5.6-186.3 5.6 3.4 5.6-28 5.5 13.9 5.6-42.5 5.6 98.5 5.6-28.5" fill="none" color="#000"/><text transform="translate(529.5 485.9)" stroke="none" fill="#000" font-family="Arial" font-size="12" text-anchor="end" color="#000"><tspan>pages+cached+noexternal</tspan></text><path stroke="#009E73" d="M537.8 482H580M62.2 435.4l5.6-254.5 5.6-8.7L79 319.9l5.5-138.8 5.6.6 5.6-35.7 5.6 25.1 5.6 78.4h5.6l5.5-31.8 5.6 32.5 5.6-24.3 5.6-.2 5.6-176.2 5.6 293.2 5.5-138.3 5.6 47.9 5.6-37.3 5.6 2.9 5.6-.9 5.6 220.7 5.5-256.5 5.6-35.1 5.6 26.4 5.6 65.4 5.6-65.3 5.6 42.1 5.5-9.5 5.6 113.7 5.6-137.4 5.6 176.2 5.6-176.5 5.6-131.7 5.6 200.7 5.5-104.3 5.6 25L268.8 52l5.6 173.5 5.6-9.9 5.6 10.3 5.5-54.5 5.6 19.5 5.6 122.7 5.6-264.3 5.6 131 5.6 22.9 5.5-155.1 5.6 271.3 5.6-268.6 5.6 166.1 5.6.2 5.6 143 5.5-111.2 5.6-75.3 5.6-124.3 5.6 386.5 5.6-91.3 5.6-94.2 5.5-34.3 5.6-69.3 5.6 104.2 5.6 1.2 5.6 107.8 5.6-4.5 5.5-118.9L430.7 51l5.6 167.1 5.6 138.3 5.6-185.6 5.6 9.3 5.6-.9 5.5-8 5.6 187.6 5.6-212.8 5.6 68.8 5.6 222.3 5.6-116 5.5-138.7 5.6 42.8 5.6-52.3 5.6 31.8 5.6 116 5.6-139.9 5.5 1.1 5.6 67.1 5.6-37.2 5.6-8.5 5.6 117.1 5.6-268.6 5.5 305.7 5.6-211.9 5.6 211.4 5.6-132.8 5.6-12.1 5.6 144.9 5.5-176.2 5.6 34.2 5.6 36 5.6-69.9" fill="none" color="#000"/><g fill="none" color="#000" stroke="currentColor"><path stroke="#000" d="M62.2 18.1V446H615V18.1H62.2z"/></g></svg>