<svg width="640" height="500" xmlns="http://www.w3.org/2000/svg" xmlns:xlink="http://www.w3.org/1999/xlink"><path fill="#fff" d="M0 0h640v500H0z"/><defs><path id="d" stroke-width=".222" stroke="currentColor" d="M-1-1h2v2h-2z"/><path id="b" stroke-width=".222" stroke="currentColor" d="M0-1.33l-1.33 2h2.66z"/><path id="f" stroke-width=".222" stroke="currentColor" d="M0 1.33L1.265.411.782-1.067l-1.564-.009-.483 1.487z"/><use xlink:href="#b" id="c" stroke="currentColor" transform="rotate(180)"/><use xlink:href="#d" id="e" stroke="currentColor" transform="rotate(45)"/><circle id="a" stroke-width=".222" stroke="currentColor" cx="0" cy="0" r="1"/></defs><g fill="none" color="#000" stroke="currentColor"><path stroke="#000" d="M62.2 389.1h9m543.8 0h-9"/><text transform="translate(53.9 393)" stroke="none" fill="#000" font-family="Arial" font-size="12" text-anchor="end"><tspan>0.7</tspan></text></g><g fill="none" color="#000" stroke="currentColor"><path stroke="#000" d="M62.2 340.4h9m543.8 0h-9"/><text transform="translate(53.9 344.3)" stroke="none" fill="#000" font-family="Arial" font-size="12" text-anchor="end"><tspan>0.71</tspan></text></g><g fill="none" color="#000" stroke="currentColor"><path stroke="#000" d="M62.2 291.8h9m543.8 0h-9"/><text transform="translate(53.9 295.7)" stroke="none" fill="#000" font-family="Arial" font-size="12" text-anchor="end"><tspan>0.72</tspan></text></g><g fill="none" color="#000" stroke="currentColor"><path stroke="#000" d="M62.2 243.1h9m543.8 0h-9"/><text transform="translate(53.9 247)" stroke="none" fill="#000" font-family="Arial" font-size="12" text-anchor="end"><tspan>0.73</tspan></text></g><g fill="none" color="#000" stroke="currentColor"><path stroke="#000" d="M62.2 194.4h9m543.8 0h-9"/><text transform="translate(53.9 198.3)" stroke="none" fill="#000" font-family="Arial" font-size="12" text-anchor="end"><tspan>0.74</tspan></text></g><g fill="none" color="#000" stroke="currentColor"><path stroke="#000" d="M62.2 145.7h9m543.8 0h-9"/><text transform="translate(53.9 149.6)" stroke="none" fill="#000" font-family="Arial" font-size="12" text-anchor="end"><tspan>0.75</tspan></text></g><g fill="none" color="#000" stroke="currentColor"><path stroke="#000" d="M62.2 97h9M615 97h-9"/><text transform="translate(53.9 100.9)" stroke="none" fill="#000" font-family="Arial" font-size="12" text-anchor="end"><tspan>0.76</tspan></text></g><g fill="none" color="#000" stroke="currentColor"><path stroke="#000" d="M62.2 48.4h9m543.8 0h-9"/><text transform="translate(53.9 52.3)" stroke="none" fill="#000" font-family="Arial" font-size="12" text-anchor="end"><tspan>0.77</tspan></text></g><g fill="none" color="#000" stroke="currentColor"><path stroke="#000" d="M62.2 428v-9m0-400.9v9"/><text transform="translate(62.2 449.9)" stroke="none" fill="#000" font-family="Arial" font-size="12" text-anchor="middle"><tspan>0</tspan></text></g><g fill="none" color="#000" stroke="currentColor"><path stroke="#000" d="M118 428v-9m0-400.9v9"/><text transform="translate(118 449.9)" stroke="none" fill="#000" font-family="Arial" font-size="12" text-anchor="middle"><tspan>10</tspan></text></g><g fill="none" color="#000" stroke="currentColor"><path stroke="#000" d="M173.9 428v-9m0-400.9v9"/><text transform="translate(173.9 449.9)" stroke="none" fill="#000" font-family="Arial" font-size="12" text-anchor="middle"><tspan>20</tspan></text></g><g fill="none" color="#000" stroke="currentColor"><path stroke="#000" d="M229.7 428v-9m0-400.9v9"/><text transform="translate(229.7 449.9)" stroke="none" fill="#000" font-family="Arial" font-size="12" text-anchor="middle"><tspan>30</tspan></text></g><g fill="none" color="#000" stroke="currentColor"><path stroke="#000" d="M285.6 428v-9m0-400.9v9"/><text transform="translate(285.6 449.9)" stroke="none" fill="#000" font-family="Arial" font-size="12" text-anchor="middle"><tspan>40</tspan></text></g><g fill="none" color="#000" stroke="currentColor"><path stroke="#000" d="M341.4 428v-9m0-400.9v9"/><text transform="translate(341.4 449.9)" stroke="none" fill="#000" font-family="Arial" font-size="12" text-anchor="middle"><tspan>50</tspan></text></g><g fill="none" color="#000" stroke="currentColor"><path stroke="#000" d="M397.2 428v-9m0-400.9v9"/><text transform="translate(397.2 449.9)" stroke="none" fill="#000" font-family="Arial" font-size="12" text-anchor="middle"><tspan>60</tspan></text></g><g fill="none" color="#000" stroke="currentColor"><path stroke="#000" d="M453.1 428v-9m0-400.9v9"/><text transform="translate(453.1 449.9)" stroke="none" fill="#000" font-family="Arial" font-size="12" text-anchor="middle"><tspan>70</tspan></text></g><g fill="none" color="#000" stroke="currentColor"><path stroke="#000" d="M508.9 428v-9m0-400.9v9"/><text transform="translate(508.9 449.9)" stroke="none" fill="#000" font-family="Arial" font-size="12" text-anchor="middle"><tspan>80</tspan></text></g><g fill="none" color="#000" stroke="currentColor"><path stroke="#000" d="M564.7 428v-9m0-400.9v9"/><text transform="translate(564.7 449.9)" stroke="none" fill="#000" font-family="Arial" font-size="12" text-anchor="middle"><tspan>90</tspan></text></g><path stroke="#000" d="M62.2 18.1V428H615V18.1H62.2z" fill="none" color="#000"/><text transform="translate(437.8 467.9)" stroke="none" fill="#000" font-family="Arial" font-size="12" text-anchor="end" color="#000"><tspan>pages+cached+noexternal</tspan></text><path stroke="#9400D3" d="M446.1 464h42.2M62.2 418.8l5.6-148.4 5.6-5.1 5.6 86.2 5.5-81 5.6.4 5.6-20.9 5.6 14.7 5.6 45.7h5.6l5.5-18.6 5.6 19 5.6-14.2 5.6-.1 5.6-102.7 5.6 170.9 5.5-80.6 5.6 27.9 5.6-21.7 5.6 1.7 5.6-.6 5.6 128.7 5.5-149.6 5.6-20.4 5.6 15.4 5.6 38.1 5.6-38.1 5.6 24.6 5.5-5.5 5.6 66.3 5.6-80.2 5.6 102.8 5.6-102.9 5.6-76.8 5.6 117 5.5-60.8 5.6 14.5 5.6-69.3 5.6 101.2 5.6-5.8 5.6 6 5.5-31.7 5.6 11.3 5.6 71.6 5.6-154.1 5.6 76.4 5.6 13.3 5.5-90.5 5.6 158.3 5.6-156.7 5.6 96.9 5.6.1 5.6 83.4 5.5-64.9 5.6-43.9 5.6-72.4 5.6 225.3 5.6-53.2 5.6-55 5.5-19.9 5.6-40.5 5.6 60.8 5.6.7 5.6 62.9 5.6-2.7 5.5-69.3 5.6-108.1 5.6 97.4 5.6 80.6 5.6-108.2 5.6 5.4 5.6-.5 5.5-4.6 5.6 109.4 5.6-124.2 5.6 40.2 5.6 129.6 5.6-67.7 5.5-80.8 5.6 24.9 5.6-30.5 5.6 18.6 5.6 67.6 5.6-81.6 5.5.7 5.6 39.1 5.6-21.7 5.6-4.9 5.6 68.2 5.6-156.6 5.5 178.3 5.6-123.6 5.6 123.3 5.6-77.5 5.6-7 5.6 84.5 5.5-102.8 5.6 19.9 5.6 21.1 5.6-40.8" fill="none" color="#000"/><text transform="translate(437.8 485.9)" stroke="none" fill="#000" font-family="Arial" font-size="12" text-anchor="end" color="#000"><tspan>pages+cached+noexternal+nofonts</tspan></text><path stroke="#009E73" d="M446.1 482h42.2M62.2 97.7l5.6-63.5 5.6 134 5.6-52.9 5.5-.2 5.6-9.8 5.6-71.9 5.6 158.1 5.6-165.1 5.6 216 5.5-33.8 5.6-174.8 5.6 71.1 5.6-71.2 5.6 134.3 5.6-62.8 5.5 67 5.6-.1h5.6l5.6-89 5.6-49.2 5.6 64.8L185 126l5.6 89.2 5.6-47.2 5.6-70.7 5.6 74.6 5.6-67 5.5.3 5.6 66.8 5.6 70.2 5.6-158.1 5.6 87.6 5.6-56.4 5.6-30.9 5.5 157.4 5.6-208.1 5.6 64.1 5.6 7.8 5.6-.1 5.6-20.1 5.5-51.4 5.6 49.7 5.6 84.3 5.6.2 5.6-26.3 5.6-36.8 5.5-31.9 5.6-39.5 5.6 50.2 5.6.5 5.6 83.5 5.6-62.7 5.5-7.5 5.6-14.9 5.6 132.1 5.6-73.1 5.6-58.6 5.6 22.1 5.5-.4 5.6-78.7 5.6 79 5.6-70.9 5.6 207.6 5.6-208.2 5.5 50.1 5.6.1 5.6 88.4 5.6 70.2 5.6-74.6 5.6-62.9 5.6.2 5.5 66.9L469.8 26l5.6 57.3 5.6 85 5.6-84.9 5.6 6.3 5.5 52.6 5.6 43.3 5.6-13.2 5.6-.5 5.6-138.4 5.6.1 5.5 57.2 5.6 14.6 5.6-22.1 5.6-49.5 5.6 138.1 5.6 69.7 5.5-136.3 5.6.1 5.6 62.9 5.6-134.1 5.6 38.2 5.6-38.9 5.5 175.3 5.6-111.3 5.6 74.6 5.6-73.9" fill="none" color="#000"/><g fill="none" color="#000" stroke="currentColor"><path stroke="#000" d="M62.2 18.1V428H615V18.1H62.2z"/></g></svg>