<svg width="640" height="500" xmlns="http://www.w3.org/2000/svg" xmlns:xlink="http://www.w3.org/1999/xlink"><path fill="#fff" d="M0 0h640v500H0z"/><defs><path id="d" stroke-width=".222" stroke="currentColor" d="M-1-1h2v2h-2z"/><path id="b" stroke-width=".222" stroke="currentColor" d="M0-1.33l-1.33 2h2.66z"/><path id="f" stroke-width=".222" stroke="currentColor" d="M0 1.33L1.265.411.782-1.067l-1.564-.009-.483 1.487z"/><use xlink:href="#b" id="c" stroke="currentColor" transform="rotate(180)"/><use xlink:href="#d" id="e" stroke="currentColor" transform="rotate(45)"/><circle id="a" stroke-width=".222" stroke="currentColor" cx="0" cy="0" r="1"/></defs><g fill="none" color="#000" stroke="currentColor"><path stroke="#000" d="M62.2 414.5h9m543.8 0h-9"/><text transform="translate(53.9 418.4)" stroke="none" fill="#000" font-family="Arial" font-size="12" text-anchor="end"><tspan>0.7</tspan></text></g><g fill="none" color="#000" stroke="currentColor"><path stroke="#000" d="M62.2 365.4h9m543.8 0h-9"/><text transform="translate(53.9 369.3)" stroke="none" fill="#000" font-family="Arial" font-size="12" text-anchor="end"><tspan>0.71</tspan></text></g><g fill="none" color="#000" stroke="currentColor"><path stroke="#000" d="M62.2 316.4h9m543.8 0h-9"/><text transform="translate(53.9 320.3)" stroke="none" fill="#000" font-family="Arial" font-size="12" text-anchor="end"><tspan>0.72</tspan></text></g><g fill="none" color="#000" stroke="currentColor"><path stroke="#000" d="M62.2 267.3h9m543.8 0h-9"/><text transform="translate(53.9 271.2)" stroke="none" fill="#000" font-family="Arial" font-size="12" text-anchor="end"><tspan>0.73</tspan></text></g><g fill="none" color="#000" stroke="currentColor"><path stroke="#000" d="M62.2 218.3h9m543.8 0h-9"/><text transform="translate(53.9 222.2)" stroke="none" fill="#000" font-family="Arial" font-size="12" text-anchor="end"><tspan>0.74</tspan></text></g><g fill="none" color="#000" stroke="currentColor"><path stroke="#000" d="M62.2 169.2h9m543.8 0h-9"/><text transform="translate(53.9 173.1)" stroke="none" fill="#000" font-family="Arial" font-size="12" text-anchor="end"><tspan>0.75</tspan></text></g><g fill="none" color="#000" stroke="currentColor"><path stroke="#000" d="M62.2 120.2h9m543.8 0h-9"/><text transform="translate(53.9 124.1)" stroke="none" fill="#000" font-family="Arial" font-size="12" text-anchor="end"><tspan>0.76</tspan></text></g><g fill="none" color="#000" stroke="currentColor"><path stroke="#000" d="M62.2 71.1h9m543.8 0h-9"/><text transform="translate(53.9 75)" stroke="none" fill="#000" font-family="Arial" font-size="12" text-anchor="end"><tspan>0.77</tspan></text></g><g fill="none" color="#000" stroke="currentColor"><path stroke="#000" d="M62.2 22.1h9m543.8 0h-9"/><text transform="translate(53.9 26)" stroke="none" fill="#000" font-family="Arial" font-size="12" text-anchor="end"><tspan>0.78</tspan></text></g><g fill="none" color="#000" stroke="currentColor"><path stroke="#000" d="M62.2 446v-9m0-418.9v9"/><text transform="translate(62.2 467.9)" stroke="none" fill="#000" font-family="Arial" font-size="12" text-anchor="middle"><tspan>0</tspan></text></g><g fill="none" color="#000" stroke="currentColor"><path stroke="#000" d="M118 446v-9m0-418.9v9"/><text transform="translate(118 467.9)" stroke="none" fill="#000" font-family="Arial" font-size="12" text-anchor="middle"><tspan>10</tspan></text></g><g fill="none" color="#000" stroke="currentColor"><path stroke="#000" d="M173.9 446v-9m0-418.9v9"/><text transform="translate(173.9 467.9)" stroke="none" fill="#000" font-family="Arial" font-size="12" text-anchor="middle"><tspan>20</tspan></text></g><g fill="none" color="#000" stroke="currentColor"><path stroke="#000" d="M229.7 446v-9m0-418.9v9"/><text transform="translate(229.7 467.9)" stroke="none" fill="#000" font-family="Arial" font-size="12" text-anchor="middle"><tspan>30</tspan></text></g><g fill="none" color="#000" stroke="currentColor"><path stroke="#000" d="M285.6 446v-9m0-418.9v9"/><text transform="translate(285.6 467.9)" stroke="none" fill="#000" font-family="Arial" font-size="12" text-anchor="middle"><tspan>40</tspan></text></g><g fill="none" color="#000" stroke="currentColor"><path stroke="#000" d="M341.4 446v-9m0-418.9v9"/><text transform="translate(341.4 467.9)" stroke="none" fill="#000" font-family="Arial" font-size="12" text-anchor="middle"><tspan>50</tspan></text></g><g fill="none" color="#000" stroke="currentColor"><path stroke="#000" d="M397.2 446v-9m0-418.9v9"/><text transform="translate(397.2 467.9)" stroke="none" fill="#000" font-family="Arial" font-size="12" text-anchor="middle"><tspan>60</tspan></text></g><g fill="none" color="#000" stroke="currentColor"><path stroke="#000" d="M453.1 446v-9m0-418.9v9"/><text transform="translate(453.1 467.9)" stroke="none" fill="#000" font-family="Arial" font-size="12" text-anchor="middle"><tspan>70</tspan></text></g><g fill="none" color="#000" stroke="currentColor"><path stroke="#000" d="M508.9 446v-9m0-418.9v9"/><text transform="translate(508.9 467.9)" stroke="none" fill="#000" font-family="Arial" font-size="12" text-anchor="middle"><tspan>80</tspan></text></g><g fill="none" color="#000" stroke="currentColor"><path stroke="#000" d="M564.7 446v-9m0-418.9v9"/><text transform="translate(564.7 467.9)" stroke="none" fill="#000" font-family="Arial" font-size="12" text-anchor="middle"><tspan>90</tspan></text></g><path stroke="#000" d="M62.2 18.1V446H615V18.1H62.2z" fill="none" color="#000"/><text transform="translate(279.8 485.9)" stroke="none" fill="#000" font-family="Arial" font-size="12" text-anchor="end" color="#000"><tspan>pages+cached+noexternal+nosvg</tspan></text><path stroke="#9400D3" d="M288.1 482h42.2M62.2 203l5.6 87.7 5.6 14 5.6-.5 5.5-13.3 5.6.9 5.6-7.5 5.6 21.2 5.6-1 5.6-100.9 5.5 88.1 5.6 20.4 5.6 7.3 5.6-117.8 5.6 103.2 5.6-20.3 5.5 19.9 5.6-101.6 5.6.6 5.6 159.9 5.6-58.4 5.6 131.6 5.5-145.4 5.6-87.6 5.6 232.6 5.6-144.2 5.6 12.9 5.6-13.2 5.5-88.1 5.6 87 5.6-6.5 5.6 153.8 5.6-146.3 5.6-88.6 5.6-.6 5.5 128.2 5.6-.2 5.6-25.5 5.6 131.5 5.6-132 5.6.4 5.5-.3 5.6-100.6 5.6 101.2 5.6-20.5 5.6-79.6 5.6-1.8 5.5.4 5.6 81 5.6.8 5.6 79.4 5.6-80.2 5.6 6.9 5.5-6.1 5.6-81.7 5.6 87.2 5.6.3 5.6-6.2 5.6 19.9 5.5-1.2 5.6 2.1 5.6-1.7 5.6 132.6 5.6-132.4h5.6l5.5-13 5.6-8.1 5.6 54 5.6-33.1 5.6-98.9 5.6 78.4 5.6 20.3 5.5.6 5.6.4 5.6-13.6 5.6.2 5.6-.9 5.6-5.9 5.5 152.8 5.6-133.2 5.6-19.9 5.6-81.8 5.6.8 5.6-.2 5.5 101.4h5.6l5.6-20.2 5.6 152.3 5.6-144.8 5.6-88 5.5 134.6 5.6-55 5.6-81 5.6 101.8 5.6-101.2 5.6 88.8 5.5-87.4 5.6 99.5 5.6.2 5.6-20" fill="none" color="#000"/><text transform="translate(579.3 485.9)" stroke="none" fill="#000" font-family="Arial" font-size="12" text-anchor="end" color="#000"><tspan>pages+cached+noexternal+noimg</tspan></text><path stroke="#009E73" d="M587.6 482h42.2M62.2 183.8l5.6-146.3 5.6 68.5L79 28.4l5.5 178.5 5.6 4.4 5.6 20.1L101.3 37l5.6 166.9 5.6 3.7 5.5 3.7 5.6-181.8 5.6 175.2 5.6-18.2 5.6-156.6 5.6 176.5 5.5-1 5.6-1.7 5.6 4.8 5.6-21.1 5.6-8.3 5.6 26.6 5.5-91.3 5.6 91.2L196.2 37l5.6 168.1 5.6-.7 5.6 25 5.5-23.5 5.6 5.1 5.6-4.1 5.6-72.8 5.6-107.8 5.6 171.8 5.6 29.5L257.6 39l5.6 94.6 5.6 66.3 5.6 31 5.6-26.1 5.6-99.2 5.5 2.5 5.6 77.6 5.6 21.3 5.6-29.6 5.6-92.4 5.6 111 5.5-55.5 5.6 63.3 5.6-23.2 5.6 29.1L347 39.1l5.6 140.2 5.5 52.9 5.6-53.7 5.6-58 5.6 8.7 5.6 82.3 5.6-173.2 5.5 158.4 5.6 10.9 5.6-75 5.6-18.1 5.6-9 5.6 106.4 5.5-26.5 5.6-54.7 5.6-78.2 5.6 282.4 5.6-146.8 5.6 11.5 5.6 4.5 5.5-100.2 5.6-18.5 5.6 118.8L481 36.3l5.6 171 5.6-2.5 5.5-3.7 5.6-163.6 5.6 167.2 5.6 25.9 5.6-51.2 5.6 26 5.5-100.6 5.6 8 5.6 30.3 5.6-2.5 5.6-34.1 5.6-77.4 5.5 178.1 5.6-2 5.6-119.7 5.6 124.1 5.6-4.4 5.6 26.5 5.5-203.2 5.6 179.6 5.6-6.1 5.6-71.4" fill="none" color="#000"/><g fill="none" color="#000" stroke="currentColor"><path stroke="#000" d="M62.2 18.1V446H615V18.1H62.2z"/></g></svg>