<svg width="640" height="620" xmlns="http://www.w3.org/2000/svg" xmlns:xlink="http://www.w3.org/1999/xlink"><path fill="#fff" d="M0 0h640v620H0z"/><defs><path id="d" stroke-width=".222" stroke="currentColor" d="M-1-1h2v2h-2z"/><path id="b" stroke-width=".222" stroke="currentColor" d="M0-1.33l-1.33 2h2.66z"/><path id="f" stroke-width=".222" stroke="currentColor" d="M0 1.33L1.265.411.782-1.067l-1.564-.009-.483 1.487z"/><use xlink:href="#b" id="c" stroke="currentColor" transform="rotate(180)"/><use xlink:href="#d" id="e" stroke="currentColor" transform="rotate(45)"/><circle id="a" stroke-width=".222" stroke="currentColor" cx="0" cy="0" r="1"/></defs><g fill="none" color="#000" stroke="currentColor"><path stroke="#000" d="M53.9 296h9m552.1 0h-9"/><text transform="translate(45.6 299.9)" stroke="none" fill="#000" font-family="Arial" font-size="12" text-anchor="end"><tspan>0</tspan></text></g><g fill="none" color="#000" stroke="currentColor"><path stroke="#000" d="M53.9 240.4h9m552.1 0h-9"/><text transform="translate(45.6 244.3)" stroke="none" fill="#000" font-family="Arial" font-size="12" text-anchor="end"><tspan>20</tspan></text></g><g fill="none" color="#000" stroke="currentColor"><path stroke="#000" d="M53.9 184.8h9m552.1 0h-9"/><text transform="translate(45.6 188.7)" stroke="none" fill="#000" font-family="Arial" font-size="12" text-anchor="end"><tspan>40</tspan></text></g><g fill="none" color="#000" stroke="currentColor"><path stroke="#000" d="M53.9 129.3h9m552.1 0h-9"/><text transform="translate(45.6 133.2)" stroke="none" fill="#000" font-family="Arial" font-size="12" text-anchor="end"><tspan>60</tspan></text></g><g fill="none" color="#000" stroke="currentColor"><path stroke="#000" d="M53.9 73.7h9m552.1 0h-9"/><text transform="translate(45.6 77.6)" stroke="none" fill="#000" font-family="Arial" font-size="12" text-anchor="end"><tspan>80</tspan></text></g><g fill="none" color="#000" stroke="currentColor"><path stroke="#000" d="M53.9 18.1h9m552.1 0h-9"/><text transform="translate(45.6 22)" stroke="none" fill="#000" font-family="Arial" font-size="12" text-anchor="end"><tspan>100</tspan></text></g><g fill="none" color="#000" stroke="currentColor"><path stroke="#000" d="M101.1 296v-9m0-268.9v9"/><text transform="translate(101.1 317.9)" stroke="none" fill="#000" font-family="Arial" font-size="12" text-anchor="middle"><tspan>1000</tspan></text></g><g fill="none" color="#000" stroke="currentColor"><path stroke="#000" d="M164.1 296v-9m0-268.9v9"/><text transform="translate(164.1 317.9)" stroke="none" fill="#000" font-family="Arial" font-size="12" text-anchor="middle"><tspan>1500</tspan></text></g><g fill="none" color="#000" stroke="currentColor"><path stroke="#000" d="M227.1 296v-9m0-268.9v9"/><text transform="translate(227.1 317.9)" stroke="none" fill="#000" font-family="Arial" font-size="12" text-anchor="middle"><tspan>2000</tspan></text></g><g fill="none" color="#000" stroke="currentColor"><path stroke="#000" d="M290 296v-9m0-268.9v9"/><text transform="translate(290 317.9)" stroke="none" fill="#000" font-family="Arial" font-size="12" text-anchor="middle"><tspan>2500</tspan></text></g><g fill="none" color="#000" stroke="currentColor"><path stroke="#000" d="M353 296v-9m0-268.9v9"/><text transform="translate(353 317.9)" stroke="none" fill="#000" font-family="Arial" font-size="12" text-anchor="middle"><tspan>3000</tspan></text></g><g fill="none" color="#000" stroke="currentColor"><path stroke="#000" d="M416 296v-9m0-268.9v9"/><text transform="translate(416 317.9)" stroke="none" fill="#000" font-family="Arial" font-size="12" text-anchor="middle"><tspan>3500</tspan></text></g><g fill="none" color="#000" stroke="currentColor"><path stroke="#000" d="M479 296v-9m0-268.9v9"/><text transform="translate(479 317.9)" stroke="none" fill="#000" font-family="Arial" font-size="12" text-anchor="middle"><tspan>4000</tspan></text></g><g fill="none" color="#000" stroke="currentColor"><path stroke="#000" d="M542 296v-9m0-268.9v9"/><text transform="translate(542 317.9)" stroke="none" fill="#000" font-family="Arial" font-size="12" text-anchor="middle"><tspan>4500</tspan></text></g><g fill="none" color="#000" stroke="currentColor"><path stroke="#000" d="M604.9 296v-9m0-268.9v9"/><text transform="translate(604.9 317.9)" stroke="none" fill="#000" font-family="Arial" font-size="12" text-anchor="middle"><tspan>5000</tspan></text></g><path stroke="#000" d="M53.9 18.1V296H615V18.1H53.9z" fill="none" color="#000"/><text transform="translate(529.1 335.9)" stroke="none" fill="#000" font-family="Arial" font-size="12" text-anchor="end" color="#000"><tspan>empty</tspan></text><g stroke="none" shape-rendering="geometricPrecision" fill="#9400D3" fill-opacity=".5" color="#000"><path d="M537.4 336.5h42.2v-9h-42.2zM53.9 296h4.5V18h-4.5z"/></g><text transform="translate(529.1 353.9)" stroke="none" fill="#000" font-family="Arial" font-size="12" text-anchor="end" color="#000"><tspan>pages</tspan></text><g stroke="none" shape-rendering="crispEdges" fill="#009E73" fill-opacity=".5" color="#000"><path d="M537.4 354.5h42.2v-9h-42.2zM612.5 296h2.6v-2.9h-2.6zM169.1 296h55.6V65.2h-55.6z"/><path d="M224.6 296h55.5v-39h-55.5z"/><path d="M280 296h55.5v-2.9H280zM557.1 296h55.5v-2.9h-55.5z"/></g><text transform="translate(529.1 371.9)" stroke="none" fill="#000" font-family="Arial" font-size="12" text-anchor="end" color="#000"><tspan>pages+cached</tspan></text><g stroke="none" shape-rendering="crispEdges" fill="#56B4E9" fill-opacity=".5" color="#000"><path d="M537.4 372.5h42.2v-9h-42.2zM169.1 296h55.6V98.6h-55.6z"/><path d="M224.6 296h55.5v-80.7h-55.5z"/></g><text transform="translate(529.1 389.9)" stroke="none" fill="#000" font-family="Arial" font-size="12" text-anchor="end" color="#000"><tspan>pages+cached+nointeractive</tspan></text><g stroke="none" shape-rendering="crispEdges" fill="#E69F00" fill-opacity=".5" color="#000"><path d="M537.4 390.5h42.2v-9h-42.2zM169.1 296h55.6V193.1h-55.6z"/><path d="M224.6 296h55.5V120.8h-55.5z"/></g><text transform="translate(529.1 407.9)" stroke="none" fill="#000" font-family="Arial" font-size="12" text-anchor="end" color="#000"><tspan>pages+cached+noadtech</tspan></text><g stroke="none" shape-rendering="crispEdges" fill="#F0E442" fill-opacity=".5" color="#000"><path d="M537.4 408.5h42.2v-9h-42.2zM224.6 296h55.5V162.5h-55.5z"/><path d="M169.1 296h55.6V151.4h-55.6z"/></g><text transform="translate(529.1 425.9)" stroke="none" fill="#000" font-family="Arial" font-size="12" text-anchor="end" color="#000"><tspan>pages+cached+noexternal</tspan></text><g stroke="none" shape-rendering="crispEdges" fill="#0072B2" fill-opacity=".5" color="#000"><path d="M537.4 426.5h42.2v-9h-42.2zM169.1 296h55.6V143.1h-55.6z"/><path d="M224.6 296h55.5V170.8h-55.5z"/></g><text transform="translate(529.1 443.9)" stroke="none" fill="#000" font-family="Arial" font-size="12" text-anchor="end" color="#000"><tspan>pages+cached+noexternal+nofonts</tspan></text><g stroke="none" shape-rendering="crispEdges" fill="#E51E10" fill-opacity=".5" color="#000"><path d="M537.4 444.5h42.2v-9h-42.2zM113.7 296h55.5V112.5h-55.5z"/><path d="M169.1 296h55.6v-39h-55.6z"/><path d="M224.6 296h55.5v-55.7h-55.5z"/></g><g><text transform="translate(529.1 461.9)" stroke="none" fill="#000" font-family="Arial" font-size="12" text-anchor="end" color="#000"><tspan>pages+cached+noexternal+nosvg</tspan></text><g stroke="none" shape-rendering="crispEdges" fill="#000" fill-opacity=".5" color="#000"><path d="M537.4 462.5h42.2v-9h-42.2zM169.1 296h55.6V34.7h-55.6z"/><path d="M224.6 296h55.5v-16.8h-55.5z"/></g></g><g><text transform="translate(529.1 479.9)" stroke="none" fill="#000" font-family="Arial" font-size="12" text-anchor="end" color="#000"><tspan>pages+cached+noexternal+noimg</tspan></text><g stroke="none" shape-rendering="crispEdges" fill="#9400D3" fill-opacity=".5" color="#000"><path d="M537.4 480.5h42.2v-9h-42.2zM169.1 296h55.6V156.9h-55.6z"/><path d="M224.6 296h55.5V156.9h-55.5z"/></g></g><g><text transform="translate(529.1 497.9)" stroke="none" fill="#000" font-family="Arial" font-size="12" text-anchor="end" color="#000"><tspan>pages+cached+noexternal+nocss</tspan></text><g stroke="none" shape-rendering="crispEdges" fill="#009E73" fill-opacity=".5" color="#000"><path d="M537.4 498.5h42.2v-9h-42.2zM169.1 296h55.6V18h-55.6z"/></g></g><g><text transform="translate(529.1 515.9)" stroke="none" fill="#000" font-family="Arial" font-size="12" text-anchor="end" color="#000"><tspan>pages+cached+noexternal+nojs</tspan></text><g stroke="none" shape-rendering="crispEdges" fill="#56B4E9" fill-opacity=".5" color="#000"><path d="M537.4 516.5h42.2v-9h-42.2zM113.7 296h55.5V18h-55.5z"/></g></g><g><text transform="translate(529.1 533.9)" stroke="none" fill="#000" font-family="Arial" font-size="12" text-anchor="end" color="#000"><tspan>pages+cached+noexternal+nofonts+nosvg+noimg</tspan></text><g stroke="none" shape-rendering="crispEdges" fill="#E69F00" fill-opacity=".5" color="#000"><path d="M537.4 534.5h42.2v-9h-42.2zM113.7 296h55.5V79.1h-55.5zM224.6 296h55.5v-39h-55.5z"/><path d="M169.1 296h55.6v-22.3h-55.6z"/></g></g><g><text transform="translate(529.1 551.9)" stroke="none" fill="#000" font-family="Arial" font-size="12" text-anchor="end" color="#000"><tspan>pages+cached+noexternal+nofonts+nosvg+noimg+nocss</tspan></text><g stroke="none" shape-rendering="crispEdges" fill="#F0E442" fill-opacity=".5" color="#000"><path d="M537.4 552.5h42.2v-9h-42.2zM169.1 296h55.6V18h-55.6z"/></g></g><g><text transform="translate(529.1 569.9)" stroke="none" fill="#000" font-family="Arial" font-size="12" text-anchor="end" color="#000"><tspan>pages+cached+noexternal+nofonts+nosvg+noimg+nocss+nojs</tspan></text><g stroke="none" shape-rendering="crispEdges" fill="#0072B2" fill-opacity=".5" color="#000"><path d="M537.4 570.5h42.2v-9h-42.2zM113.7 296h55.5V18h-55.5z"/></g></g><g><text transform="translate(529.1 587.9)" stroke="none" fill="#000" font-family="Arial" font-size="12" text-anchor="end" color="#000"><tspan>score p10=3572</tspan></text><path stroke="#E51E10" d="M537.4 584h42.2M425.1 296V282.1" fill="none" color="#000"/></g><g><text transform="translate(529.1 605.9)" stroke="none" fill="#000" font-family="Arial" font-size="12" text-anchor="end" color="#000"><tspan>score median=6500</tspan></text><path stroke="#000" d="M537.4 602h42.2" fill="none" color="#000"/></g><g fill="none" color="#000" stroke="currentColor"><path stroke="#000" d="M53.9 18.1V296H615V18.1H53.9z"/></g></svg>