<svg width="640" height="620" xmlns="http://www.w3.org/2000/svg" xmlns:xlink="http://www.w3.org/1999/xlink"><path fill="#fff" d="M0 0h640v620H0z"/><defs><path id="d" stroke-width=".222" stroke="currentColor" d="M-1-1h2v2h-2z"/><path id="b" stroke-width=".222" stroke="currentColor" d="M0-1.33l-1.33 2h2.66z"/><path id="f" stroke-width=".222" stroke="currentColor" d="M0 1.33L1.265.411.782-1.067l-1.564-.009-.483 1.487z"/><use xlink:href="#b" id="c" stroke="currentColor" transform="rotate(180)"/><use xlink:href="#d" id="e" stroke="currentColor" transform="rotate(45)"/><circle id="a" stroke-width=".222" stroke="currentColor" cx="0" cy="0" r="1"/></defs><g fill="none" color="#000" stroke="currentColor"><path stroke="#000" d="M62.2 268.2h9m543.8 0h-9"/><text transform="translate(53.9 272.1)" stroke="none" fill="#000" font-family="Arial" font-size="12" text-anchor="end"><tspan>1000</tspan></text></g><g fill="none" color="#000" stroke="currentColor"><path stroke="#000" d="M62.2 238.2h9m543.8 0h-9"/><text transform="translate(53.9 242.1)" stroke="none" fill="#000" font-family="Arial" font-size="12" text-anchor="end"><tspan>1500</tspan></text></g><g fill="none" color="#000" stroke="currentColor"><path stroke="#000" d="M62.2 208.2h9m543.8 0h-9"/><text transform="translate(53.9 212.1)" stroke="none" fill="#000" font-family="Arial" font-size="12" text-anchor="end"><tspan>2000</tspan></text></g><g fill="none" color="#000" stroke="currentColor"><path stroke="#000" d="M62.2 178.2h9m543.8 0h-9"/><text transform="translate(53.9 182.1)" stroke="none" fill="#000" font-family="Arial" font-size="12" text-anchor="end"><tspan>2500</tspan></text></g><g fill="none" color="#000" stroke="currentColor"><path stroke="#000" d="M62.2 148.2h9m543.8 0h-9"/><text transform="translate(53.9 152.1)" stroke="none" fill="#000" font-family="Arial" font-size="12" text-anchor="end"><tspan>3000</tspan></text></g><g fill="none" color="#000" stroke="currentColor"><path stroke="#000" d="M62.2 118.2h9m543.8 0h-9"/><text transform="translate(53.9 122.1)" stroke="none" fill="#000" font-family="Arial" font-size="12" text-anchor="end"><tspan>3500</tspan></text></g><g fill="none" color="#000" stroke="currentColor"><path stroke="#000" d="M62.2 88.2h9m543.8 0h-9"/><text transform="translate(53.9 92.1)" stroke="none" fill="#000" font-family="Arial" font-size="12" text-anchor="end"><tspan>4000</tspan></text></g><g fill="none" color="#000" stroke="currentColor"><path stroke="#000" d="M62.2 58.2h9m543.8 0h-9"/><text transform="translate(53.9 62.1)" stroke="none" fill="#000" font-family="Arial" font-size="12" text-anchor="end"><tspan>4500</tspan></text></g><g fill="none" color="#000" stroke="currentColor"><path stroke="#000" d="M62.2 28.2h9m543.8 0h-9"/><text transform="translate(53.9 32.1)" stroke="none" fill="#000" font-family="Arial" font-size="12" text-anchor="end"><tspan>5000</tspan></text></g><g fill="none" color="#000" stroke="currentColor"><path stroke="#000" d="M62.2 296v-9m0-268.9v9"/><text transform="translate(62.2 317.9)" stroke="none" fill="#000" font-family="Arial" font-size="12" text-anchor="middle"><tspan>0</tspan></text></g><g fill="none" color="#000" stroke="currentColor"><path stroke="#000" d="M118 296v-9m0-268.9v9"/><text transform="translate(118 317.9)" stroke="none" fill="#000" font-family="Arial" font-size="12" text-anchor="middle"><tspan>10</tspan></text></g><g fill="none" color="#000" stroke="currentColor"><path stroke="#000" d="M173.9 296v-9m0-268.9v9"/><text transform="translate(173.9 317.9)" stroke="none" fill="#000" font-family="Arial" font-size="12" text-anchor="middle"><tspan>20</tspan></text></g><g fill="none" color="#000" stroke="currentColor"><path stroke="#000" d="M229.7 296v-9m0-268.9v9"/><text transform="translate(229.7 317.9)" stroke="none" fill="#000" font-family="Arial" font-size="12" text-anchor="middle"><tspan>30</tspan></text></g><g fill="none" color="#000" stroke="currentColor"><path stroke="#000" d="M285.6 296v-9m0-268.9v9"/><text transform="translate(285.6 317.9)" stroke="none" fill="#000" font-family="Arial" font-size="12" text-anchor="middle"><tspan>40</tspan></text></g><g fill="none" color="#000" stroke="currentColor"><path stroke="#000" d="M341.4 296v-9m0-268.9v9"/><text transform="translate(341.4 317.9)" stroke="none" fill="#000" font-family="Arial" font-size="12" text-anchor="middle"><tspan>50</tspan></text></g><g fill="none" color="#000" stroke="currentColor"><path stroke="#000" d="M397.2 296v-9m0-268.9v9"/><text transform="translate(397.2 317.9)" stroke="none" fill="#000" font-family="Arial" font-size="12" text-anchor="middle"><tspan>60</tspan></text></g><g fill="none" color="#000" stroke="currentColor"><path stroke="#000" d="M453.1 296v-9m0-268.9v9"/><text transform="translate(453.1 317.9)" stroke="none" fill="#000" font-family="Arial" font-size="12" text-anchor="middle"><tspan>70</tspan></text></g><g fill="none" color="#000" stroke="currentColor"><path stroke="#000" d="M508.9 296v-9m0-268.9v9"/><text transform="translate(508.9 317.9)" stroke="none" fill="#000" font-family="Arial" font-size="12" text-anchor="middle"><tspan>80</tspan></text></g><g fill="none" color="#000" stroke="currentColor"><path stroke="#000" d="M564.7 296v-9m0-268.9v9"/><text transform="translate(564.7 317.9)" stroke="none" fill="#000" font-family="Arial" font-size="12" text-anchor="middle"><tspan>90</tspan></text></g><path stroke="#000" d="M62.2 18.1V296H615V18.1H62.2z" fill="none" color="#000"/><text transform="translate(533.3 335.9)" stroke="none" fill="#000" font-family="Arial" font-size="12" text-anchor="end" color="#000"><tspan>empty</tspan></text><path stroke="#9400D3" d="M541.6 332h42.2M62.2 290.7H79l5.5-.1H146l5.5-.1H436.3l5.6-.1H548l5.6-.1H575.9l5.6-.1H603.8l5.6-.2h5.6" fill="none" color="#000"/><text transform="translate(533.3 353.9)" stroke="none" fill="#000" font-family="Arial" font-size="12" text-anchor="end" color="#000"><tspan>pages</tspan></text><path stroke="#009E73" d="M541.6 350h42.2M62.2 211.5H84.5l5.6-.1h67l5.6-.1H213l5.5-.1H268.8l5.6-.1h50.2l5.6-.1h44.7l5.6-.1h50.2l5.6-.1h22.4l5.5-.1h22.4l5.6-.1h11.1l5.6-.1h5.6l5.6-.4 5.6-1.6 5.5-.8 5.6-.4h5.6l5.6-.1 5.6-.5 5.6-.3 5.5-1.2 5.6-.7 5.6-.5 5.6-2.4 5.6-2.5 5.6-1.4 5.5-.3 5.6-.3 5.6-160.4 5.6-13.3" fill="none" color="#000"/><text transform="translate(533.3 371.9)" stroke="none" fill="#000" font-family="Arial" font-size="12" text-anchor="end" color="#000"><tspan>pages+cached</tspan></text><path stroke="#56B4E9" d="M541.6 368h42.2M62.2 211.3l5.6-1.3 5.6-.1h50.2l5.6-.1H280l5.6-.1H380.5l5.6-.1h50.2l5.6-.1h11.2l5.6-.3 5.5-4.1 5.6-4.3 5.6-.2 5.6-.1 5.6-.1h5.6l5.5-4.3H514.5l5.6-.1h16.7l5.6-.1H559.2l5.5-.1h33.5l5.6-.1h5.6l5.6-.1" fill="none" color="#000"/><text transform="translate(533.3 389.9)" stroke="none" fill="#000" font-family="Arial" font-size="12" text-anchor="end" color="#000"><tspan>pages+cached+nointeractive</tspan></text><path stroke="#E69F00" d="M541.6 386h42.2M62.2 210.2l5.6-.1 5.6-.1H79l5.5-.1h44.7l5.6-.1H224.1l5.6-.1h27.9l5.6-.1 5.6-8.9H280l5.6-.1h33.5l5.5-.1h11.2l5.6-.2 5.6-4 5.6-.1H374.9l5.6-.1h72.6l5.6-.1H559.2l5.5-.1H615" fill="none" color="#000"/><text transform="translate(533.3 407.9)" stroke="none" fill="#000" font-family="Arial" font-size="12" text-anchor="end" color="#000"><tspan>pages+cached+noadtech</tspan></text><path stroke="#F0E442" d="M541.6 404h42.2M62.2 219.2h27.9l5.6-.1h44.7l5.6-.1h39l5.6-.1H246.5l5.6-.1h11.1l5.6-.1h5.6l5.6-.1 5.6-8.6 5.5-.2h5.6l5.6-.1h11.2l5.6-.1H347l5.6-4h11.1l5.6-.1h5.6l5.6-.1h11.1l5.6-.1h22.4l5.5-.1h78.2l5.6-.1h72.6l5.6-.1h5.6l5.5-.1H615" fill="none" color="#000"/><text transform="translate(533.3 425.9)" stroke="none" fill="#000" font-family="Arial" font-size="12" text-anchor="end" color="#000"><tspan>pages+cached+noexternal</tspan></text><path stroke="#0072B2" d="M541.6 422h42.2M62.2 219.2h11.2l5.6-.1H140.4l5.6-.1H246.5l5.6-.1h44.6l5.6-.1h5.6l5.6-8.8 5.6-.2H341.4l5.6-.1 5.6-.1h5.5l5.6-.1 5.6-4h11.2l5.6-.1H414l5.6-.1h33.5l5.6-.1H553.6l5.6-.1h39l5.6-.1h5.6l5.6-.1" fill="none" color="#000"/><text transform="translate(533.3 443.9)" stroke="none" fill="#000" font-family="Arial" font-size="12" text-anchor="end" color="#000"><tspan>pages+cached+noexternal+nofonts</tspan></text><path stroke="#E51E10" d="M541.6 440h42.2M62.2 237.6l5.6-.1H240.9l5.6-.1H414l5.6-.1h5.5l5.6-18h22.4l5.6-.1h16.7l5.6-4.4 5.6-.1h5.6l5.5-.2 5.6-.2 5.6-13.1 5.6-.1h16.7l5.6-.1H548l5.6-.1h11.1l5.6-.1h5.6l5.6-.1h11.2l5.5-.1h5.6l5.6-.1h5.6" fill="none" color="#000"/><g><text transform="translate(533.3 461.9)" stroke="none" fill="#000" font-family="Arial" font-size="12" text-anchor="end" color="#000"><tspan>pages+cached+noexternal+nosvg</tspan></text><path stroke="#000" d="M541.6 458h42.2M62.2 219.3l5.6-.1H173.9l5.6-.1H330.2l5.6-.1H514.5l5.6-.1h44.6l5.6-.1h11.2l5.6-13.3 5.6-.2h11.1l5.6-.2 5.6-.1" fill="none" color="#000"/></g><g><text transform="translate(533.3 479.9)" stroke="none" fill="#000" font-family="Arial" font-size="12" text-anchor="end" color="#000"><tspan>pages+cached+noexternal+noimg</tspan></text><path stroke="#9400D3" d="M541.6 476h42.2M62.2 219.3H84.5l5.6-.1H140.4l5.6-.1H235.3l5.6-.1h11.2l5.5-8.8 5.6-.1h5.6l5.6-.1h11.2l5.5-.1h11.2l5.6-.1h27.9l5.6-4.1h5.6l5.6-.1h16.7l5.6-.1H414l5.6-.1H531.2l5.6-.1H598.2l5.6-.1H615" fill="none" color="#000"/></g><g><text transform="translate(533.3 497.9)" stroke="none" fill="#000" font-family="Arial" font-size="12" text-anchor="end" color="#000"><tspan>pages+cached+noexternal+nocss</tspan></text><path stroke="#009E73" d="M541.6 494h42.2M62.2 228.3h33.5l5.6-.1H201.8l5.6-.1H447.5l5.6-.1H587.1l5.6-.1h5.5l5.6-.1H615" fill="none" color="#000"/></g><g><text transform="translate(533.3 515.9)" stroke="none" fill="#000" font-family="Arial" font-size="12" text-anchor="end" color="#000"><tspan>pages+cached+noexternal+nojs</tspan></text><path stroke="#56B4E9" d="M541.6 512h42.2M62.2 237.4H185l5.6-.1H419.6l5.5-.1H548l5.6-.1h33.5l5.6-.1 5.5-.7h5.6l5.6-.1h5.6" fill="none" color="#000"/></g><g><text transform="translate(533.3 533.9)" stroke="none" fill="#000" font-family="Arial" font-size="12" text-anchor="end" color="#000"><tspan>pages+cached+noexternal+nofonts+nosvg+noimg</tspan></text><path stroke="#E69F00" d="M541.6 530h42.2M62.2 237.7H79l5.5-.1H341.4l5.6-.1H492.2l5.5-18.1h22.4l5.6-.1 5.5-4.5 5.6-.1 5.6-13.4h11.2l5.6-.2h39l5.6-.1 5.6-.2h5.6" fill="none" color="#000"/></g><g><text transform="translate(533.3 551.9)" stroke="none" fill="#000" font-family="Arial" font-size="12" text-anchor="end" color="#000"><tspan>pages+cached+noexternal+nofonts+nosvg+noimg+nocss</tspan></text><path stroke="#F0E442" d="M541.6 548h42.2M62.2 228.5H112.5l5.5-.1H324.6l5.6-.1H497.7l5.6-.1H587.1l5.6-.1 5.5-.1h5.6l5.6-.1 5.6-.3" fill="none" color="#000"/></g><g><text transform="translate(533.3 569.9)" stroke="none" fill="#000" font-family="Arial" font-size="12" text-anchor="end" color="#000"><tspan>pages+cached+noexternal+nofonts+nosvg+noimg+nocss+nojs</tspan></text><path stroke="#0072B2" d="M541.6 566h42.2M62.2 237.8h11.2l5.6-.1H268.8l5.6-.1H615" fill="none" color="#000"/></g><g><text transform="translate(533.3 587.9)" stroke="none" fill="#000" font-family="Arial" font-size="12" text-anchor="end" color="#000"><tspan>score p10=2336</tspan></text><path stroke="#E51E10" d="M541.6 584h42.2M62.2 188H615" fill="none" color="#000"/></g><g><text transform="translate(533.3 605.9)" stroke="none" fill="#000" font-family="Arial" font-size="12" text-anchor="end" color="#000"><tspan>score median=4000</tspan></text><path stroke="#000" d="M541.6 602h42.2M62.2 88.2H615" fill="none" color="#000"/></g><g fill="none" color="#000" stroke="currentColor"><path stroke="#000" d="M62.2 18.1V296H615V18.1H62.2z"/></g></svg>