<svg width="640" height="500" xmlns="http://www.w3.org/2000/svg" xmlns:xlink="http://www.w3.org/1999/xlink"><path fill="#fff" d="M0 0h640v500H0z"/><defs><path id="d" stroke-width=".222" stroke="currentColor" d="M-1-1h2v2h-2z"/><path id="b" stroke-width=".222" stroke="currentColor" d="M0-1.33l-1.33 2h2.66z"/><path id="f" stroke-width=".222" stroke="currentColor" d="M0 1.33L1.265.411.782-1.067l-1.564-.009-.483 1.487z"/><use xlink:href="#b" id="c" stroke="currentColor" transform="rotate(180)"/><use xlink:href="#d" id="e" stroke="currentColor" transform="rotate(45)"/><circle id="a" stroke-width=".222" stroke="currentColor" cx="0" cy="0" r="1"/></defs><g fill="none" color="#000" stroke="currentColor"><path stroke="#000" d="M37.3 440.1h9m568.7 0h-9"/><text transform="translate(29 444)" stroke="none" fill="#000" font-family="Arial" font-size="12" text-anchor="end"><tspan>0</tspan></text></g><g fill="none" color="#000" stroke="currentColor"><path stroke="#000" d="M37.3 363.8h9m568.7 0h-9"/><text transform="translate(29 367.7)" stroke="none" fill="#000" font-family="Arial" font-size="12" text-anchor="end"><tspan>1</tspan></text></g><g fill="none" color="#000" stroke="currentColor"><path stroke="#000" d="M37.3 287.5h9m568.7 0h-9"/><text transform="translate(29 291.4)" stroke="none" fill="#000" font-family="Arial" font-size="12" text-anchor="end"><tspan>2</tspan></text></g><g fill="none" color="#000" stroke="currentColor"><path stroke="#000" d="M37.3 211.2h9m568.7 0h-9"/><text transform="translate(29 215.1)" stroke="none" fill="#000" font-family="Arial" font-size="12" text-anchor="end"><tspan>3</tspan></text></g><g fill="none" color="#000" stroke="currentColor"><path stroke="#000" d="M37.3 134.9h9m568.7 0h-9"/><text transform="translate(29 138.8)" stroke="none" fill="#000" font-family="Arial" font-size="12" text-anchor="end"><tspan>4</tspan></text></g><g fill="none" color="#000" stroke="currentColor"><path stroke="#000" d="M37.3 58.7h9m568.7 0h-9"/><text transform="translate(29 62.6)" stroke="none" fill="#000" font-family="Arial" font-size="12" text-anchor="end"><tspan>5</tspan></text></g><g fill="none" color="#000" stroke="currentColor"><path stroke="#000" d="M37.3 446v-9m0-418.9v9"/><text transform="translate(37.3 467.9)" stroke="none" fill="#000" font-family="Arial" font-size="12" text-anchor="middle"><tspan>0</tspan></text></g><g fill="none" color="#000" stroke="currentColor"><path stroke="#000" d="M95.7 446v-9m0-418.9v9"/><text transform="translate(95.7 467.9)" stroke="none" fill="#000" font-family="Arial" font-size="12" text-anchor="middle"><tspan>10</tspan></text></g><g fill="none" color="#000" stroke="currentColor"><path stroke="#000" d="M154 446v-9m0-418.9v9"/><text transform="translate(154 467.9)" stroke="none" fill="#000" font-family="Arial" font-size="12" text-anchor="middle"><tspan>20</tspan></text></g><g fill="none" color="#000" stroke="currentColor"><path stroke="#000" d="M212.4 446v-9m0-418.9v9"/><text transform="translate(212.4 467.9)" stroke="none" fill="#000" font-family="Arial" font-size="12" text-anchor="middle"><tspan>30</tspan></text></g><g fill="none" color="#000" stroke="currentColor"><path stroke="#000" d="M270.7 446v-9m0-418.9v9"/><text transform="translate(270.7 467.9)" stroke="none" fill="#000" font-family="Arial" font-size="12" text-anchor="middle"><tspan>40</tspan></text></g><g fill="none" color="#000" stroke="currentColor"><path stroke="#000" d="M329.1 446v-9m0-418.9v9"/><text transform="translate(329.1 467.9)" stroke="none" fill="#000" font-family="Arial" font-size="12" text-anchor="middle"><tspan>50</tspan></text></g><g fill="none" color="#000" stroke="currentColor"><path stroke="#000" d="M387.4 446v-9m0-418.9v9"/><text transform="translate(387.4 467.9)" stroke="none" fill="#000" font-family="Arial" font-size="12" text-anchor="middle"><tspan>60</tspan></text></g><g fill="none" color="#000" stroke="currentColor"><path stroke="#000" d="M445.8 446v-9m0-418.9v9"/><text transform="translate(445.8 467.9)" stroke="none" fill="#000" font-family="Arial" font-size="12" text-anchor="middle"><tspan>70</tspan></text></g><g fill="none" color="#000" stroke="currentColor"><path stroke="#000" d="M504.1 446v-9m0-418.9v9"/><text transform="translate(504.1 467.9)" stroke="none" fill="#000" font-family="Arial" font-size="12" text-anchor="middle"><tspan>80</tspan></text></g><g fill="none" color="#000" stroke="currentColor"><path stroke="#000" d="M562.5 446v-9m0-418.9v9"/><text transform="translate(562.5 467.9)" stroke="none" fill="#000" font-family="Arial" font-size="12" text-anchor="middle"><tspan>90</tspan></text></g><path stroke="#000" d="M37.3 18.1V446H615V18.1H37.3z" fill="none" color="#000"/><text transform="translate(267.3 485.9)" stroke="none" fill="#000" font-family="Arial" font-size="12" text-anchor="end" color="#000"><tspan>empty</tspan></text><path stroke="#9400D3" d="M275.6 482h42.2M37.3 416.4l5.8 20.4 5.9.9 5.8-.4 5.8.5 5.9-.1H84l5.8-.4 5.9.3 5.8.1 5.8-.5 5.9.6 5.8-.1h23.3l5.9.1 5.8-.2 5.8-1.7 5.9 1.8H194.9l5.8-.1 5.8-.1h11.7l5.8.2 5.9-.8 5.8.8 5.8-.1 5.9.1H259l5.9-.1 5.8.1 5.8-.1h5.9l5.8.1h5.9l5.8-.2 5.8.2 5.9-1.1 5.8 1.2 5.8-.7 5.9-.1 5.8.7h11.7l5.8-.2 5.8.2 5.9-.2 5.8.2 5.9-.4 5.8.4 5.8-.3 5.9.3 5.8-.2 5.8.1 5.9.1h5.8l5.8-.4 5.9.2 5.8.2 5.8-.8 5.9.8 5.8-.1 5.8.1h5.9l5.8-.4 5.9.4h5.8l5.8-1.4 5.9 1.4 5.8-.1 5.8.1h5.9l5.8-.2 5.8.2h5.9l5.8-.5 5.8-.4 5.9.1 5.8.7 5.8-.2 5.9.2h5.8l5.9-.2 5.8.4 5.8-.1 5.9-.6 5.8.4 5.8-.6 5.9.8 5.8-.6" fill="none" color="#000"/><text transform="translate(367.6 485.9)" stroke="none" fill="#000" font-family="Arial" font-size="12" text-anchor="end" color="#000"><tspan>pages</tspan></text><path stroke="#009E73" d="M375.9 482h42.2M37.3 228.1l5.8-168.9L49 32.5l5.8 272.9 5.8-112.9 5.9-74.5 5.8-6.2 5.8 80.5 5.9-88 5.8 19.1 5.9 24 5.8 54.4 5.8-73 5.9 73 5.8-100.6 5.8 232.1 5.9-271.4 5.8 41.7 5.8 131.5 5.9-19.9L154 61.1l5.8 87.5h5.9l5.8 133.4 5.8-169.2 5.9 87.8 5.8-64 5.9 193.4 5.8-155.8 5.8-113.3 5.9 69.2 5.8 7.6L224 162l5.9-25.3 5.8 169.7 5.8-160.8 5.9-37 5.8-7.1 5.8 205.8 5.9-186.7 5.8 53.5 5.8-35.8 5.9-65.1 5.8 258.1 5.9-216.6 5.8 199.3 5.8-154 5.9-73 5.8 17.3 5.8 203.1 5.9 20.5 5.8 3.8 5.8-89.1 5.9 91.9 5.8-179.1 5.8 45.7 5.9-158.9 5.8 109.3 5.9-57.7 5.8 183.4 5.8-34.3 5.9-66.6 5.8 1.6 5.8 6.5 5.9 58.2 5.8-57.1 5.8-14.1 5.9 39.7 5.8 11 5.8-25.7 5.9-54 5.8 36.4 5.8 120.6 5.9-109.1 5.8-64.4 5.9 98 5.8-110.8 5.8 92.3 5.9-50.1 5.8 94.4 5.8 67.9 5.9-162.4 5.8 26.9 5.8-17.1 5.9-38.9 5.8 187 5.8-253.9 5.9-32.9 5.8 137 5.8 159.7 5.9-150.2 5.8 151.9 5.9-162.1 5.8 24.3 5.8 36.7 5.9 77.7 5.8-117.3 5.8-7.9 5.9-31.1 5.8 178.1" fill="none" color="#000"/><g fill="none" color="#000" stroke="currentColor"><path stroke="#000" d="M37.3 18.1V446H615V18.1H37.3z"/></g></svg>