<svg width="640" height="500" xmlns="http://www.w3.org/2000/svg" xmlns:xlink="http://www.w3.org/1999/xlink"><path fill="#fff" d="M0 0h640v500H0z"/><defs><path id="d" stroke-width=".222" stroke="currentColor" d="M-1-1h2v2h-2z"/><path id="b" stroke-width=".222" stroke="currentColor" d="M0-1.33l-1.33 2h2.66z"/><path id="f" stroke-width=".222" stroke="currentColor" d="M0 1.33L1.265.411.782-1.067l-1.564-.009-.483 1.487z"/><use xlink:href="#b" id="c" stroke="currentColor" transform="rotate(180)"/><use xlink:href="#d" id="e" stroke="currentColor" transform="rotate(45)"/><circle id="a" stroke-width=".222" stroke="currentColor" cx="0" cy="0" r="1"/></defs><g fill="none" color="#000" stroke="currentColor"><path stroke="#000" d="M53.9 424.3h9m552.1 0h-9"/><text transform="translate(45.6 428.2)" stroke="none" fill="#000" font-family="Arial" font-size="12" text-anchor="end"><tspan>0</tspan></text></g><g fill="none" color="#000" stroke="currentColor"><path stroke="#000" d="M53.9 369.5h9m552.1 0h-9"/><text transform="translate(45.6 373.4)" stroke="none" fill="#000" font-family="Arial" font-size="12" text-anchor="end"><tspan>0.5</tspan></text></g><g fill="none" color="#000" stroke="currentColor"><path stroke="#000" d="M53.9 314.6h9m552.1 0h-9"/><text transform="translate(45.6 318.5)" stroke="none" fill="#000" font-family="Arial" font-size="12" text-anchor="end"><tspan>1</tspan></text></g><g fill="none" color="#000" stroke="currentColor"><path stroke="#000" d="M53.9 259.8h9m552.1 0h-9"/><text transform="translate(45.6 263.7)" stroke="none" fill="#000" font-family="Arial" font-size="12" text-anchor="end"><tspan>1.5</tspan></text></g><g fill="none" color="#000" stroke="currentColor"><path stroke="#000" d="M53.9 205h9m552.1 0h-9"/><text transform="translate(45.6 208.9)" stroke="none" fill="#000" font-family="Arial" font-size="12" text-anchor="end"><tspan>2</tspan></text></g><g fill="none" color="#000" stroke="currentColor"><path stroke="#000" d="M53.9 150.1h9m552.1 0h-9"/><text transform="translate(45.6 154)" stroke="none" fill="#000" font-family="Arial" font-size="12" text-anchor="end"><tspan>2.5</tspan></text></g><g fill="none" color="#000" stroke="currentColor"><path stroke="#000" d="M53.9 95.3h9m552.1 0h-9"/><text transform="translate(45.6 99.2)" stroke="none" fill="#000" font-family="Arial" font-size="12" text-anchor="end"><tspan>3</tspan></text></g><g fill="none" color="#000" stroke="currentColor"><path stroke="#000" d="M53.9 40.5h9m552.1 0h-9"/><text transform="translate(45.6 44.4)" stroke="none" fill="#000" font-family="Arial" font-size="12" text-anchor="end"><tspan>3.5</tspan></text></g><g fill="none" color="#000" stroke="currentColor"><path stroke="#000" d="M53.9 428v-9m0-400.9v9"/><text transform="translate(53.9 449.9)" stroke="none" fill="#000" font-family="Arial" font-size="12" text-anchor="middle"><tspan>0</tspan></text></g><g fill="none" color="#000" stroke="currentColor"><path stroke="#000" d="M110.6 428v-9m0-400.9v9"/><text transform="translate(110.6 449.9)" stroke="none" fill="#000" font-family="Arial" font-size="12" text-anchor="middle"><tspan>10</tspan></text></g><g fill="none" color="#000" stroke="currentColor"><path stroke="#000" d="M167.3 428v-9m0-400.9v9"/><text transform="translate(167.3 449.9)" stroke="none" fill="#000" font-family="Arial" font-size="12" text-anchor="middle"><tspan>20</tspan></text></g><g fill="none" color="#000" stroke="currentColor"><path stroke="#000" d="M223.9 428v-9m0-400.9v9"/><text transform="translate(223.9 449.9)" stroke="none" fill="#000" font-family="Arial" font-size="12" text-anchor="middle"><tspan>30</tspan></text></g><g fill="none" color="#000" stroke="currentColor"><path stroke="#000" d="M280.6 428v-9m0-400.9v9"/><text transform="translate(280.6 449.9)" stroke="none" fill="#000" font-family="Arial" font-size="12" text-anchor="middle"><tspan>40</tspan></text></g><g fill="none" color="#000" stroke="currentColor"><path stroke="#000" d="M337.3 428v-9m0-400.9v9"/><text transform="translate(337.3 449.9)" stroke="none" fill="#000" font-family="Arial" font-size="12" text-anchor="middle"><tspan>50</tspan></text></g><g fill="none" color="#000" stroke="currentColor"><path stroke="#000" d="M394 428v-9m0-400.9v9"/><text transform="translate(394 449.9)" stroke="none" fill="#000" font-family="Arial" font-size="12" text-anchor="middle"><tspan>60</tspan></text></g><g fill="none" color="#000" stroke="currentColor"><path stroke="#000" d="M450.6 428v-9m0-400.9v9"/><text transform="translate(450.6 449.9)" stroke="none" fill="#000" font-family="Arial" font-size="12" text-anchor="middle"><tspan>70</tspan></text></g><g fill="none" color="#000" stroke="currentColor"><path stroke="#000" d="M507.3 428v-9m0-400.9v9"/><text transform="translate(507.3 449.9)" stroke="none" fill="#000" font-family="Arial" font-size="12" text-anchor="middle"><tspan>80</tspan></text></g><g fill="none" color="#000" stroke="currentColor"><path stroke="#000" d="M564 428v-9m0-400.9v9"/><text transform="translate(564 449.9)" stroke="none" fill="#000" font-family="Arial" font-size="12" text-anchor="middle"><tspan>90</tspan></text></g><path stroke="#000" d="M53.9 18.1V428H615V18.1H53.9z" fill="none" color="#000"/><text transform="translate(483.5 467.9)" stroke="none" fill="#000" font-family="Arial" font-size="12" text-anchor="end" color="#000"><tspan>pages+cached+noexternal+nojs</tspan></text><path stroke="#9400D3" d="M491.8 464H534M53.9 415.5l5.7-1.1 5.6 1.9 5.7-.1 5.7.1 5.6 1.9 5.7-3.5 5.7 1.4 5.6.1 5.7-2.1 5.7-4.8 5.6 8.1 5.7-4.5 5.7 4.7 5.6-5.5 5.7 6.1 5.7-9.9 5.7 1.3 5.6 6.5 5.7.8 5.7-3.1 5.6 3.5 5.7-.3 5.7-7.9 5.6 7.6 5.7-3.7 5.7 5.8 5.6-2.7 5.7 2.5 5.7-10.5 5.6 10.5 5.7 1.5L235.3 79l5.6 328.4 5.7 7.3 5.7-.2 5.6 1.6 5.7.5 5.7 1.5 5.6-3.4 5.7 3.4 5.7-.9 5.6-377.1 5.7 376.2 5.7-.1 5.6-.7 5.7 2.9 5.7-1.8 5.6-.9 5.7 2.7 5.7-310.3 5.7 308.1 5.6.1 5.7-7.7 5.7 9.5L365.6 26l5.7 390.7 5.7-11 5.6 6 5.7 4.8 5.7-1.7 5.6-.3 5.7-.7 5.7 3.5 5.6-5.3 5.7 4.1 5.7-7.2 5.6 6.7 5.7 1 5.7-.7 5.6-4.9 5.7 6 5.7-1.5 5.6 2.4 5.7 1 5.7-2.2 5.6-1.9 5.7 2.3 5.7 1.6 5.6-10.1 5.7 9.5 5.7-.5 5.6-.6 5.7 2 5.7-3.4 5.7 3.3 5.6-2.2 5.7.2 5.7-.3 5.6-.7 5.7-5.7 5.7 8 5.6-1.1 5.7-8.7 5.7 7.1 5.6 1.7 5.7-1 5.7-.5 5.6-2.2 5.7.4" fill="none" color="#000"/><text transform="translate(483.5 485.9)" stroke="none" fill="#000" font-family="Arial" font-size="12" text-anchor="end" color="#000"><tspan>pages+cached+noexternal+nofonts+nosvg+noimg</tspan></text><path stroke="#009E73" d="M491.8 482H534M53.9 416l5.7 1.4 5.6 1 5.7-.5 5.7-2.4 5.6.6 5.7 1.4 5.7.6 5.6-1.6 5.7 1.2 5.7 1.1 5.6-2.4h5.7l5.7.1h5.6l5.7-1.2 5.7 2.9 5.7-2.8 5.6 1.4 5.7-1.1 5.7 2.2 5.6-1.1 5.7 2.1 5.7-1.2 5.6-1.7 5.7 1.6 5.7 1 5.6-3 5.7.4 5.7-.5 5.6 2 5.7-1.3 5.7-.3 5.6.2 5.7 2.4 5.7-.4 5.6-2.2 5.7.3 5.7.5 5.6-2.3 5.7 4.9 5.7-1 5.6-1.2 5.7.3 5.7-1.9 5.6-.2 5.7 3.1 5.7-2.7 5.6 3 5.7-.1 5.7-1.3 5.7 1.7 5.6-1.7 5.7.4 5.7.9 5.6-2.4 5.7.8 5.7-.5 5.6.9h5.7l5.7.3 5.6 1.2 5.7-2.7 5.7-1.5 5.6 3.2 5.7.4 5.7-.9 5.6 1.5 5.7-1.4 5.7-1.1 5.6.4 5.7 2.1 5.7-2.1h5.6l5.7 2.4 5.7-2.8 5.6-.1 5.7 1.6 5.7-1.2 5.6.6 5.7-.9 5.7 1.7 5.6-2 5.7 3.6 5.7-1.4 5.7.9 5.6-2.8 5.7-1.9 5.7 2.8 5.6-.6 5.7.4 5.7-.1 5.6 2.1 5.7-.6 5.7.4 5.6-.1 5.7-3.4 5.7.5 5.6 1.4 5.7-.9" fill="none" color="#000"/><g fill="none" color="#000" stroke="currentColor"><path stroke="#000" d="M53.9 18.1V428H615V18.1H53.9z"/></g></svg>