<svg width="640" height="500" xmlns="http://www.w3.org/2000/svg" xmlns:xlink="http://www.w3.org/1999/xlink"><path fill="#fff" d="M0 0h640v500H0z"/><defs><path id="d" stroke-width=".222" stroke="currentColor" d="M-1-1h2v2h-2z"/><path id="b" stroke-width=".222" stroke="currentColor" d="M0-1.33l-1.33 2h2.66z"/><path id="f" stroke-width=".222" stroke="currentColor" d="M0 1.33L1.265.411.782-1.067l-1.564-.009-.483 1.487z"/><use xlink:href="#b" id="c" stroke="currentColor" transform="rotate(180)"/><use xlink:href="#d" id="e" stroke="currentColor" transform="rotate(45)"/><circle id="a" stroke-width=".222" stroke="currentColor" cx="0" cy="0" r="1"/></defs><g fill="none" color="#000" stroke="currentColor"><path stroke="#000" d="M62.2 400.9h9m543.8 0h-9"/><text transform="translate(53.9 404.8)" stroke="none" fill="#000" font-family="Arial" font-size="12" text-anchor="end"><tspan>0.03</tspan></text></g><g fill="none" color="#000" stroke="currentColor"><path stroke="#000" d="M62.2 338.9h9m543.8 0h-9"/><text transform="translate(53.9 342.8)" stroke="none" fill="#000" font-family="Arial" font-size="12" text-anchor="end"><tspan>0.04</tspan></text></g><g fill="none" color="#000" stroke="currentColor"><path stroke="#000" d="M62.2 277h9m543.8 0h-9"/><text transform="translate(53.9 280.9)" stroke="none" fill="#000" font-family="Arial" font-size="12" text-anchor="end"><tspan>0.05</tspan></text></g><g fill="none" color="#000" stroke="currentColor"><path stroke="#000" d="M62.2 215h9m543.8 0h-9"/><text transform="translate(53.9 218.9)" stroke="none" fill="#000" font-family="Arial" font-size="12" text-anchor="end"><tspan>0.06</tspan></text></g><g fill="none" color="#000" stroke="currentColor"><path stroke="#000" d="M62.2 153h9m543.8 0h-9"/><text transform="translate(53.9 156.9)" stroke="none" fill="#000" font-family="Arial" font-size="12" text-anchor="end"><tspan>0.07</tspan></text></g><g fill="none" color="#000" stroke="currentColor"><path stroke="#000" d="M62.2 91.1h9m543.8 0h-9"/><text transform="translate(53.9 95)" stroke="none" fill="#000" font-family="Arial" font-size="12" text-anchor="end"><tspan>0.08</tspan></text></g><g fill="none" color="#000" stroke="currentColor"><path stroke="#000" d="M62.2 29.1h9m543.8 0h-9"/><text transform="translate(53.9 33)" stroke="none" fill="#000" font-family="Arial" font-size="12" text-anchor="end"><tspan>0.09</tspan></text></g><g fill="none" color="#000" stroke="currentColor"><path stroke="#000" d="M62.2 428v-9m0-400.9v9"/><text transform="translate(62.2 449.9)" stroke="none" fill="#000" font-family="Arial" font-size="12" text-anchor="middle"><tspan>0</tspan></text></g><g fill="none" color="#000" stroke="currentColor"><path stroke="#000" d="M118 428v-9m0-400.9v9"/><text transform="translate(118 449.9)" stroke="none" fill="#000" font-family="Arial" font-size="12" text-anchor="middle"><tspan>10</tspan></text></g><g fill="none" color="#000" stroke="currentColor"><path stroke="#000" d="M173.9 428v-9m0-400.9v9"/><text transform="translate(173.9 449.9)" stroke="none" fill="#000" font-family="Arial" font-size="12" text-anchor="middle"><tspan>20</tspan></text></g><g fill="none" color="#000" stroke="currentColor"><path stroke="#000" d="M229.7 428v-9m0-400.9v9"/><text transform="translate(229.7 449.9)" stroke="none" fill="#000" font-family="Arial" font-size="12" text-anchor="middle"><tspan>30</tspan></text></g><g fill="none" color="#000" stroke="currentColor"><path stroke="#000" d="M285.6 428v-9m0-400.9v9"/><text transform="translate(285.6 449.9)" stroke="none" fill="#000" font-family="Arial" font-size="12" text-anchor="middle"><tspan>40</tspan></text></g><g fill="none" color="#000" stroke="currentColor"><path stroke="#000" d="M341.4 428v-9m0-400.9v9"/><text transform="translate(341.4 449.9)" stroke="none" fill="#000" font-family="Arial" font-size="12" text-anchor="middle"><tspan>50</tspan></text></g><g fill="none" color="#000" stroke="currentColor"><path stroke="#000" d="M397.2 428v-9m0-400.9v9"/><text transform="translate(397.2 449.9)" stroke="none" fill="#000" font-family="Arial" font-size="12" text-anchor="middle"><tspan>60</tspan></text></g><g fill="none" color="#000" stroke="currentColor"><path stroke="#000" d="M453.1 428v-9m0-400.9v9"/><text transform="translate(453.1 449.9)" stroke="none" fill="#000" font-family="Arial" font-size="12" text-anchor="middle"><tspan>70</tspan></text></g><g fill="none" color="#000" stroke="currentColor"><path stroke="#000" d="M508.9 428v-9m0-400.9v9"/><text transform="translate(508.9 449.9)" stroke="none" fill="#000" font-family="Arial" font-size="12" text-anchor="middle"><tspan>80</tspan></text></g><g fill="none" color="#000" stroke="currentColor"><path stroke="#000" d="M564.7 428v-9m0-400.9v9"/><text transform="translate(564.7 449.9)" stroke="none" fill="#000" font-family="Arial" font-size="12" text-anchor="middle"><tspan>90</tspan></text></g><path stroke="#000" d="M62.2 18.1V428H615V18.1H62.2z" fill="none" color="#000"/><text transform="translate(512.5 467.9)" stroke="none" fill="#000" font-family="Arial" font-size="12" text-anchor="end" color="#000"><tspan>pages+cached+noexternal+nofonts+nosvg+noimg</tspan></text><path stroke="#9400D3" d="M520.8 464H563M62.2 118.3l5.6 78.1 5.6 58.3 5.6-27.3 5.5-136.3 5.6 30.3 5.6 81.2 5.6 33.5 5.6-91.8 5.6 67 5.5 63.2 5.6-134.5 5.6 1.2 5.6 6.2 5.6.7 5.6-69.4 5.5 162.3 5.6-159.9 5.6 83.7 5.6-63.8 5.6 125.8 5.6-67 5.5 120.3 5.6-64.5 5.6-96 5.6 88.6 5.6 55.8L213 96l5.5 20.5 5.6-28.5 5.6 114 5.6-74.4 5.6-14.9 5.6 12.4 5.6 132.7 5.5-21.7 5.6-125.2 5.6 20.4 5.6 23L280 26l5.6 275.1 5.5-55.7 5.6-68.2 5.6 21.7 5.6-107.8 5.6-15.5 5.6 174.7 5.5-150.6 5.6 172.3 5.6-6.2 5.6-75.6 5.6 97.9 5.6-98.5 5.5 24.2 5.6 50.8 5.6-136.4 5.6 44.7 5.6-27.9 5.6 53.9 5.5-1.9 5.6 18 5.6 66.3 5.6-151.2 5.6-87.4 5.6 179.7 5.5 24.2 5.6-52.7 5.6 85.5 5.6-76.8 5.6-64.5 5.6 23.6 5.6 121.5 5.5-121.5 5.6 3.7 5.6 130.8 5.6-154.3 5.6-5.6 5.6 91.1 5.5-71.3 5.6 35.3 5.6-53.3 5.6 99.2 5.6-116.5 5.6 205.7 5.5-78 5.6 47.1 5.6-155L548 30.9l5.6 160.5 5.6-37.1 5.5 27.2 5.6-7.4 5.6 116.5 5.6-34.7 5.6 23.5 5.6-2.4 5.5-193.4 5.6 26.7 5.6 81.1 5.6-48.9" fill="none" color="#000"/><text transform="translate(512.5 485.9)" stroke="none" fill="#000" font-family="Arial" font-size="12" text-anchor="end" color="#000"><tspan>pages+cached+noexternal+nofonts+nosvg+noimg+nocss</tspan></text><path stroke="#009E73" d="M520.8 482H563M62.2 177.2l5.6 75 5.6-178.5L79 96l5.5 117.8 5.6-69.5 5.6 89.9 5.6-93 5.6 81.9 5.6 53.9L118 75.6l5.6 99.1 5.6-22.9 5.6 122.1 5.6 19.8L146 53.9l5.5 145.6 5.6-31 5.6-4.9 5.6-44.7 5.6 11.2 5.6 70.6 5.5-63.2 5.6 85.6 5.6 39.6 5.6-110.9 5.6 78.7 5.6 19.2 5.5-113.4 5.6 128.3 5.6-99.8 5.6 53.3 5.6-47.7 5.6 81.8 5.6-112.2 5.5 91.7 5.6-35.3 5.6-14.9 5.6 77.5 5.6-138.8 5.6 101 5.5 39.7 5.6-45.3 5.6-9.3 5.6-24.8 5.6-16.1 5.6-1.2 5.5-99.8 5.6 25.4 5.6 330.3 5.6-338.3 5.6-18.6 5.6 191.5 5.5-100.4 5.6 74.9 5.6-34 5.6-40.3 5.6 148.1 5.6-151.2 5.5-104.1 5.6 96 5.6 131.4 5.6-144.4L414 264l5.6-179.1 5.5 110.9 5.6 62.6 5.6-106 5.6 147.5 5.6-120.2 5.6-49 5.6 151.2 5.5-103.5 5.6 123.4 5.6-159.9 5.6 127.6 5.6-127 5.6-3.7 5.5 58.8 5.6 39.7 5.6-47.1 5.6-19.8 5.6-49 5.6-22.3 5.5-3.1 5.6 204.5 5.6-16.7 5.6-75.6 5.6 44 5.6-60.8 5.5-138.2 5.6 151.9 5.6-23.6 5.6 106 5.6-62.6 5.6-64.4 5.5-23.6 5.6 19.8 5.6 42.2 5.6-37.2" fill="none" color="#000"/><g fill="none" color="#000" stroke="currentColor"><path stroke="#000" d="M62.2 18.1V428H615V18.1H62.2z"/></g></svg>