<svg width="640" height="500" xmlns="http://www.w3.org/2000/svg" xmlns:xlink="http://www.w3.org/1999/xlink"><path fill="#fff" d="M0 0h640v500H0z"/><defs><path id="d" stroke-width=".222" stroke="currentColor" d="M-1-1h2v2h-2z"/><path id="b" stroke-width=".222" stroke="currentColor" d="M0-1.33l-1.33 2h2.66z"/><path id="f" stroke-width=".222" stroke="currentColor" d="M0 1.33L1.265.411.782-1.067l-1.564-.009-.483 1.487z"/><use xlink:href="#b" id="c" stroke="currentColor" transform="rotate(180)"/><use xlink:href="#d" id="e" stroke="currentColor" transform="rotate(45)"/><circle id="a" stroke-width=".222" stroke="currentColor" cx="0" cy="0" r="1"/></defs><g fill="none" color="#000" stroke="currentColor"><path stroke="#000" d="M62.2 401.9h9m543.8 0h-9"/><text transform="translate(53.9 405.8)" stroke="none" fill="#000" font-family="Arial" font-size="12" text-anchor="end"><tspan>0.03</tspan></text></g><g fill="none" color="#000" stroke="currentColor"><path stroke="#000" d="M62.2 342.9h9m543.8 0h-9"/><text transform="translate(53.9 346.8)" stroke="none" fill="#000" font-family="Arial" font-size="12" text-anchor="end"><tspan>0.04</tspan></text></g><g fill="none" color="#000" stroke="currentColor"><path stroke="#000" d="M62.2 284h9m543.8 0h-9"/><text transform="translate(53.9 287.9)" stroke="none" fill="#000" font-family="Arial" font-size="12" text-anchor="end"><tspan>0.05</tspan></text></g><g fill="none" color="#000" stroke="currentColor"><path stroke="#000" d="M62.2 225.1h9m543.8 0h-9"/><text transform="translate(53.9 229)" stroke="none" fill="#000" font-family="Arial" font-size="12" text-anchor="end"><tspan>0.06</tspan></text></g><g fill="none" color="#000" stroke="currentColor"><path stroke="#000" d="M62.2 166.2h9m543.8 0h-9"/><text transform="translate(53.9 170.1)" stroke="none" fill="#000" font-family="Arial" font-size="12" text-anchor="end"><tspan>0.07</tspan></text></g><g fill="none" color="#000" stroke="currentColor"><path stroke="#000" d="M62.2 107.3h9m543.8 0h-9"/><text transform="translate(53.9 111.2)" stroke="none" fill="#000" font-family="Arial" font-size="12" text-anchor="end"><tspan>0.08</tspan></text></g><g fill="none" color="#000" stroke="currentColor"><path stroke="#000" d="M62.2 48.4h9m543.8 0h-9"/><text transform="translate(53.9 52.3)" stroke="none" fill="#000" font-family="Arial" font-size="12" text-anchor="end"><tspan>0.09</tspan></text></g><g fill="none" color="#000" stroke="currentColor"><path stroke="#000" d="M62.2 428v-9m0-400.9v9"/><text transform="translate(62.2 449.9)" stroke="none" fill="#000" font-family="Arial" font-size="12" text-anchor="middle"><tspan>0</tspan></text></g><g fill="none" color="#000" stroke="currentColor"><path stroke="#000" d="M118 428v-9m0-400.9v9"/><text transform="translate(118 449.9)" stroke="none" fill="#000" font-family="Arial" font-size="12" text-anchor="middle"><tspan>10</tspan></text></g><g fill="none" color="#000" stroke="currentColor"><path stroke="#000" d="M173.9 428v-9m0-400.9v9"/><text transform="translate(173.9 449.9)" stroke="none" fill="#000" font-family="Arial" font-size="12" text-anchor="middle"><tspan>20</tspan></text></g><g fill="none" color="#000" stroke="currentColor"><path stroke="#000" d="M229.7 428v-9m0-400.9v9"/><text transform="translate(229.7 449.9)" stroke="none" fill="#000" font-family="Arial" font-size="12" text-anchor="middle"><tspan>30</tspan></text></g><g fill="none" color="#000" stroke="currentColor"><path stroke="#000" d="M285.6 428v-9m0-400.9v9"/><text transform="translate(285.6 449.9)" stroke="none" fill="#000" font-family="Arial" font-size="12" text-anchor="middle"><tspan>40</tspan></text></g><g fill="none" color="#000" stroke="currentColor"><path stroke="#000" d="M341.4 428v-9m0-400.9v9"/><text transform="translate(341.4 449.9)" stroke="none" fill="#000" font-family="Arial" font-size="12" text-anchor="middle"><tspan>50</tspan></text></g><g fill="none" color="#000" stroke="currentColor"><path stroke="#000" d="M397.2 428v-9m0-400.9v9"/><text transform="translate(397.2 449.9)" stroke="none" fill="#000" font-family="Arial" font-size="12" text-anchor="middle"><tspan>60</tspan></text></g><g fill="none" color="#000" stroke="currentColor"><path stroke="#000" d="M453.1 428v-9m0-400.9v9"/><text transform="translate(453.1 449.9)" stroke="none" fill="#000" font-family="Arial" font-size="12" text-anchor="middle"><tspan>70</tspan></text></g><g fill="none" color="#000" stroke="currentColor"><path stroke="#000" d="M508.9 428v-9m0-400.9v9"/><text transform="translate(508.9 449.9)" stroke="none" fill="#000" font-family="Arial" font-size="12" text-anchor="middle"><tspan>80</tspan></text></g><g fill="none" color="#000" stroke="currentColor"><path stroke="#000" d="M564.7 428v-9m0-400.9v9"/><text transform="translate(564.7 449.9)" stroke="none" fill="#000" font-family="Arial" font-size="12" text-anchor="middle"><tspan>90</tspan></text></g><path stroke="#000" d="M62.2 18.1V428H615V18.1H62.2z" fill="none" color="#000"/><text transform="translate(533.3 467.9)" stroke="none" fill="#000" font-family="Arial" font-size="12" text-anchor="end" color="#000"><tspan>pages+cached+noexternal+nofonts+nosvg+noimg+nocss</tspan></text><path stroke="#9400D3" d="M541.6 464h42.2M62.2 189.2l5.6 71.3 5.6-169.7L79 112l5.5 111.9 5.6-65.9 5.6 85.4 5.6-88.4 5.6 77.8 5.6 51.2L118 92.6l5.6 94.2 5.6-21.8 5.6 116.1 5.6 18.8 5.6-228 5.5 138.5 5.6-29.5 5.6-4.7 5.6-42.4 5.6 10.6 5.6 67.2 5.5-60.1 5.6 81.3 5.6 37.7 5.6-105.5 5.6 74.8 5.6 18.3 5.5-107.8 5.6 121.9 5.6-94.8 5.6 50.7 5.6-45.4 5.6 77.8 5.6-106.7 5.5 87.2 5.6-33.6 5.6-14.1 5.6 73.6L280 135l5.6 96 5.5 37.7 5.6-43 5.6-8.8 5.6-23.6 5.6-15.3 5.6-1.2 5.5-94.8 5.6 24.1 5.6 314 5.6-321.7 5.6-17.6 5.6 182 5.5-95.4 5.6 71.3 5.6-32.4 5.6-38.3 5.6 140.8 5.6-143.8 5.5-99 5.6 91.4 5.6 124.9 5.6-137.3 5.6 126.7 5.6-170.3 5.5 105.4 5.6 59.6 5.6-100.8 5.6 140.2 5.6-114.3 5.6-46.5 5.6 143.7 5.5-98.3 5.6 117.2 5.6-152L481 277l5.6-120.8 5.6-3.6 5.5 56 5.6 37.7 5.6-44.8 5.6-18.8 5.6-46.5 5.6-21.3 5.5-2.9 5.6 194.4 5.6-15.9 5.6-71.9 5.6 41.9 5.6-57.8 5.5-131.4 5.6 144.4 5.6-22.4 5.6 100.7 5.6-59.5 5.6-61.2 5.5-22.4 5.6 18.8 5.6 40.1 5.6-35.4" fill="none" color="#000"/><text transform="translate(533.3 485.9)" stroke="none" fill="#000" font-family="Arial" font-size="12" text-anchor="end" color="#000"><tspan>pages+cached+noexternal+nofonts+nosvg+noimg+nocss+nojs</tspan></text><path stroke="#009E73" d="M541.6 482h42.2M62.2 156.8l5.6 212.1 5.6-198 5.6 18.3 5.5 18.8 5.6-45.3 5.6 50 5.6 54.2 5.6-91.3 5.6 32.4 5.5 62.5 5.6-51.3 5.6 67.8 5.6-223.9 5.6 117.2 5.6-81.9 5.5 189.2 5.6-89 5.6-4.1 5.6 94.2 5.6-88.3 5.6 63.6 5.5 60.7 5.6-25.4 5.6-111.3 5.6 4.7 5.6-20.6 5.6 130.8 5.5-122.6 5.6-94.2 5.6 148.4 5.6-38.8 5.6-1.8 5.6 25.3 5.6-70.7 5.5 101.9 5.6 40.7 5.6-136.7 5.6 27.1 5.6 117.3 5.6-8.9 5.5-149.6 5.6 212.1 5.6-174.4 5.6 210.3 5.6-239.8 5.6 27.1 5.5-66.5 5.6 52.4 5.6 8.8 5.6-19.4 5.6 46.5 5.6 156.7 5.5-202 5.6 6.4 5.6 110.8 5.6-84.8 5.6-30.7 5.6 104.9 5.5-83.1 5.6 33 5.6-79.5 5.6 109.6 5.6-7.1 5.6 34.8 5.5-60.1 5.6 7h5.6L441.9 26l5.6 296.9 5.6 13.6 5.6-195 5.5 85.4 5.6-64.8 5.6 28.8L481 211l5.6-15.9 5.6 34.1 5.5 31.3 5.6-95.5 5.6 127.9 5.6-151.4 5.6 134.3 5.6-147.9 5.5 26.5 5.6 79 5.6 31.2 5.6-47.7 5.6 45.9 5.6-93.7 5.5 48.9 5.6 4.2 5.6-45.4 5.6-10.6 5.6 89.5 5.6-101.9 5.5 36.6 5.6 96.6 5.6-37.1 5.6 159.6" fill="none" color="#000"/><g fill="none" color="#000" stroke="currentColor"><path stroke="#000" d="M62.2 18.1V428H615V18.1H62.2z"/></g></svg>