<svg width="640" height="500" xmlns="http://www.w3.org/2000/svg" xmlns:xlink="http://www.w3.org/1999/xlink"><path fill="#fff" d="M0 0h640v500H0z"/><defs><path id="d" stroke-width=".222" stroke="currentColor" d="M-1-1h2v2h-2z"/><path id="b" stroke-width=".222" stroke="currentColor" d="M0-1.33l-1.33 2h2.66z"/><path id="f" stroke-width=".222" stroke="currentColor" d="M0 1.33L1.265.411.782-1.067l-1.564-.009-.483 1.487z"/><use xlink:href="#b" id="c" stroke="currentColor" transform="rotate(180)"/><use xlink:href="#d" id="e" stroke="currentColor" transform="rotate(45)"/><circle id="a" stroke-width=".222" stroke="currentColor" cx="0" cy="0" r="1"/></defs><g fill="none" color="#000" stroke="currentColor"><path stroke="#000" d="M62.2 428.1h9m543.8 0h-9"/><text transform="translate(53.9 432)" stroke="none" fill="#000" font-family="Arial" font-size="12" text-anchor="end"><tspan>0.05</tspan></text></g><g fill="none" color="#000" stroke="currentColor"><path stroke="#000" d="M62.2 382h9m543.8 0h-9"/><text transform="translate(53.9 385.9)" stroke="none" fill="#000" font-family="Arial" font-size="12" text-anchor="end"><tspan>0.1</tspan></text></g><g fill="none" color="#000" stroke="currentColor"><path stroke="#000" d="M62.2 335.9h9m543.8 0h-9"/><text transform="translate(53.9 339.8)" stroke="none" fill="#000" font-family="Arial" font-size="12" text-anchor="end"><tspan>0.15</tspan></text></g><g fill="none" color="#000" stroke="currentColor"><path stroke="#000" d="M62.2 289.9h9m543.8 0h-9"/><text transform="translate(53.9 293.8)" stroke="none" fill="#000" font-family="Arial" font-size="12" text-anchor="end"><tspan>0.2</tspan></text></g><g fill="none" color="#000" stroke="currentColor"><path stroke="#000" d="M62.2 243.8h9m543.8 0h-9"/><text transform="translate(53.9 247.7)" stroke="none" fill="#000" font-family="Arial" font-size="12" text-anchor="end"><tspan>0.25</tspan></text></g><g fill="none" color="#000" stroke="currentColor"><path stroke="#000" d="M62.2 197.7h9m543.8 0h-9"/><text transform="translate(53.9 201.6)" stroke="none" fill="#000" font-family="Arial" font-size="12" text-anchor="end"><tspan>0.3</tspan></text></g><g fill="none" color="#000" stroke="currentColor"><path stroke="#000" d="M62.2 151.7h9m543.8 0h-9"/><text transform="translate(53.9 155.6)" stroke="none" fill="#000" font-family="Arial" font-size="12" text-anchor="end"><tspan>0.35</tspan></text></g><g fill="none" color="#000" stroke="currentColor"><path stroke="#000" d="M62.2 105.6h9m543.8 0h-9"/><text transform="translate(53.9 109.5)" stroke="none" fill="#000" font-family="Arial" font-size="12" text-anchor="end"><tspan>0.4</tspan></text></g><g fill="none" color="#000" stroke="currentColor"><path stroke="#000" d="M62.2 59.5h9m543.8 0h-9"/><text transform="translate(53.9 63.4)" stroke="none" fill="#000" font-family="Arial" font-size="12" text-anchor="end"><tspan>0.45</tspan></text></g><g fill="none" color="#000" stroke="currentColor"><path stroke="#000" d="M62.2 446v-9m0-418.9v9"/><text transform="translate(62.2 467.9)" stroke="none" fill="#000" font-family="Arial" font-size="12" text-anchor="middle"><tspan>0</tspan></text></g><g fill="none" color="#000" stroke="currentColor"><path stroke="#000" d="M118 446v-9m0-418.9v9"/><text transform="translate(118 467.9)" stroke="none" fill="#000" font-family="Arial" font-size="12" text-anchor="middle"><tspan>10</tspan></text></g><g fill="none" color="#000" stroke="currentColor"><path stroke="#000" d="M173.9 446v-9m0-418.9v9"/><text transform="translate(173.9 467.9)" stroke="none" fill="#000" font-family="Arial" font-size="12" text-anchor="middle"><tspan>20</tspan></text></g><g fill="none" color="#000" stroke="currentColor"><path stroke="#000" d="M229.7 446v-9m0-418.9v9"/><text transform="translate(229.7 467.9)" stroke="none" fill="#000" font-family="Arial" font-size="12" text-anchor="middle"><tspan>30</tspan></text></g><g fill="none" color="#000" stroke="currentColor"><path stroke="#000" d="M285.6 446v-9m0-418.9v9"/><text transform="translate(285.6 467.9)" stroke="none" fill="#000" font-family="Arial" font-size="12" text-anchor="middle"><tspan>40</tspan></text></g><g fill="none" color="#000" stroke="currentColor"><path stroke="#000" d="M341.4 446v-9m0-418.9v9"/><text transform="translate(341.4 467.9)" stroke="none" fill="#000" font-family="Arial" font-size="12" text-anchor="middle"><tspan>50</tspan></text></g><g fill="none" color="#000" stroke="currentColor"><path stroke="#000" d="M397.2 446v-9m0-418.9v9"/><text transform="translate(397.2 467.9)" stroke="none" fill="#000" font-family="Arial" font-size="12" text-anchor="middle"><tspan>60</tspan></text></g><g fill="none" color="#000" stroke="currentColor"><path stroke="#000" d="M453.1 446v-9m0-418.9v9"/><text transform="translate(453.1 467.9)" stroke="none" fill="#000" font-family="Arial" font-size="12" text-anchor="middle"><tspan>70</tspan></text></g><g fill="none" color="#000" stroke="currentColor"><path stroke="#000" d="M508.9 446v-9m0-418.9v9"/><text transform="translate(508.9 467.9)" stroke="none" fill="#000" font-family="Arial" font-size="12" text-anchor="middle"><tspan>80</tspan></text></g><g fill="none" color="#000" stroke="currentColor"><path stroke="#000" d="M564.7 446v-9m0-418.9v9"/><text transform="translate(564.7 467.9)" stroke="none" fill="#000" font-family="Arial" font-size="12" text-anchor="middle"><tspan>90</tspan></text></g><path stroke="#000" d="M62.2 18.1V446H615V18.1H62.2z" fill="none" color="#000"/><text transform="translate(279.8 485.9)" stroke="none" fill="#000" font-family="Arial" font-size="12" text-anchor="end" color="#000"><tspan>pages+cached+nointeractive</tspan></text><path stroke="#9400D3" d="M288.1 482h42.2M62.2 249.3l5.6-42.9 5.6-37.6 5.6-49.5 5.5-45.6 5.6 69.3 5.6 191.8 5.6-221 5.6 171.9 5.6-109.1 5.5 22.6 5.6-82.1 5.6 44.4 5.6 5.6 5.6-61.4 5.6 29.6 5.5-34.6 5.6 129.8 5.6-9.4 5.6 20.2 5.6-73.2 5.6 48.1 5.5 4.5 5.6 107.6 5.6-141.4 5.6 35.1 5.6-81.3 5.6 169.2 5.5-186.9 5.6 36.9 5.6-11.3 5.6 10.3 5.6-8.7 5.6 185.4 5.6-202.7 5.5 20.4 5.6-25.4 5.6-21.2 5.6 36.9 5.6-43.5 5.6 23.7 5.5 16.2 5.6-22.2 5.6-36.6 5.6 116 5.6-35.8 5.6-4.7 5.5-24.6 5.6 13.2 5.6-5.5 5.6-34.4 5.6 32.7 5.6-.9 5.5 125.1 5.6-182 5.6 22.1 5.6 152.8 5.6-126 5.6 89.3 5.5-83.1 5.6-35.9 5.6 73.8 5.6-29.3 5.6 136.8 5.6-51.3 5.5-16.2 5.6-85.1 5.6 109.7 5.6-113.4 5.6-98.2 5.6 123.3 5.6-37.7 5.5 30.5 5.6 200.3 5.6-77.2 5.6-164.9 5.6 35.3 5.6 7.7 5.5 141.3 5.6-84.4 5.6-13.4 5.6 39.4 5.6-78.6 5.6-39.2 5.5 88 5.6-90.7 5.6-7.2 5.6 229.8 5.6-187.5 5.6-12.9 5.5 79.5 5.6 173.3 5.6-250.5 5.6-19.7 5.6 95.9 5.6-49.3 5.5 47.9 5.6-89.9 5.6 41.5 5.6 61.9" fill="none" color="#000"/><text transform="translate(554.4 485.9)" stroke="none" fill="#000" font-family="Arial" font-size="12" text-anchor="end" color="#000"><tspan>pages+cached+noadtech</tspan></text><path stroke="#009E73" d="M562.7 482h42.2M62.2 399l5.6 18.8 5.6 3.7 5.6-10.6 5.5 5.2 5.6-15.6 5.6 17 5.6 13.4 5.6-4.5 5.6-19.4 5.5-3 5.6 10.7 5.6 4.5 5.6-15.8 5.6 8.3 5.6-23.4 5.5-7 5.6 35.4 5.6-18.4 5.6 22.1 5.6-9.4 5.6 8.9 5.5-45.7 5.6 30.5 5.6-26 5.6 4.2 5.6 36 5.6-5.1 5.5-2.6 5.6-34.7 5.6 33.9 5.6 3.2 5.6-7.5 5.6-.1 5.6 3.5 5.5-10.3 5.6 12.1 5.6-3.8 5.6 21.9 5.6-7.1 5.6-9.5 5.5 8.8 5.6-11.8 5.6-52.5 5.6 65.2 5.6 1.4 5.6-6.2 5.5-12.2 5.6-5.7 5.6 11.6 5.6-30.2 5.6 36.3 5.6-4.1 5.5-52.1 5.6 71.8 5.6-6.8 5.6-14.9 5.6-14.8 5.6 18.3 5.5-.6 5.6 23.5 5.6-14.8 5.6-91.2L414 426l5.6-8.5 5.5-80.6 5.6 88.4 5.6-4.4 5.6-7.7 5.6 16.9 5.6-19.8 5.6-.3 5.5 3.6 5.6-92.9 5.6 93.7L481 402l5.6 1.8 5.6 9 5.5-28.3 5.6 28.9 5.6-10.6 5.6-13.3 5.6 26.6 5.6-11.6 5.5 15.6 5.6-88.9 5.6 62.6 5.6 19.5 5.6-4.6 5.6 10.8 5.5-8.5 5.6-8.7 5.6 15.7 5.6 2.5 5.6-1.3 5.6-88.7 5.5 58 5.6-39 5.6 67 5.6 6.2" fill="none" color="#000"/><g fill="none" color="#000" stroke="currentColor"><path stroke="#000" d="M62.2 18.1V446H615V18.1H62.2z"/></g></svg>