<svg width="640" height="500" xmlns="http://www.w3.org/2000/svg" xmlns:xlink="http://www.w3.org/1999/xlink"><path fill="#fff" d="M0 0h640v500H0z"/><defs><path id="d" stroke-width=".222" stroke="currentColor" d="M-1-1h2v2h-2z"/><path id="b" stroke-width=".222" stroke="currentColor" d="M0-1.33l-1.33 2h2.66z"/><path id="f" stroke-width=".222" stroke="currentColor" d="M0 1.33L1.265.411.782-1.067l-1.564-.009-.483 1.487z"/><use xlink:href="#b" id="c" stroke="currentColor" transform="rotate(180)"/><use xlink:href="#d" id="e" stroke="currentColor" transform="rotate(45)"/><circle id="a" stroke-width=".222" stroke="currentColor" cx="0" cy="0" r="1"/></defs><g fill="none" color="#000" stroke="currentColor"><path stroke="#000" d="M62.2 402.3h9m543.8 0h-9"/><text transform="translate(53.9 406.2)" stroke="none" fill="#000" font-family="Arial" font-size="12" text-anchor="end"><tspan>0.05</tspan></text></g><g fill="none" color="#000" stroke="currentColor"><path stroke="#000" d="M62.2 322.2h9m543.8 0h-9"/><text transform="translate(53.9 326.1)" stroke="none" fill="#000" font-family="Arial" font-size="12" text-anchor="end"><tspan>0.1</tspan></text></g><g fill="none" color="#000" stroke="currentColor"><path stroke="#000" d="M62.2 242h9m543.8 0h-9"/><text transform="translate(53.9 245.9)" stroke="none" fill="#000" font-family="Arial" font-size="12" text-anchor="end"><tspan>0.15</tspan></text></g><g fill="none" color="#000" stroke="currentColor"><path stroke="#000" d="M62.2 161.9h9m543.8 0h-9"/><text transform="translate(53.9 165.8)" stroke="none" fill="#000" font-family="Arial" font-size="12" text-anchor="end"><tspan>0.2</tspan></text></g><g fill="none" color="#000" stroke="currentColor"><path stroke="#000" d="M62.2 81.8h9m543.8 0h-9"/><text transform="translate(53.9 85.7)" stroke="none" fill="#000" font-family="Arial" font-size="12" text-anchor="end"><tspan>0.25</tspan></text></g><g fill="none" color="#000" stroke="currentColor"><path stroke="#000" d="M62.2 428v-9m0-400.9v9"/><text transform="translate(62.2 449.9)" stroke="none" fill="#000" font-family="Arial" font-size="12" text-anchor="middle"><tspan>0</tspan></text></g><g fill="none" color="#000" stroke="currentColor"><path stroke="#000" d="M118 428v-9m0-400.9v9"/><text transform="translate(118 449.9)" stroke="none" fill="#000" font-family="Arial" font-size="12" text-anchor="middle"><tspan>10</tspan></text></g><g fill="none" color="#000" stroke="currentColor"><path stroke="#000" d="M173.9 428v-9m0-400.9v9"/><text transform="translate(173.9 449.9)" stroke="none" fill="#000" font-family="Arial" font-size="12" text-anchor="middle"><tspan>20</tspan></text></g><g fill="none" color="#000" stroke="currentColor"><path stroke="#000" d="M229.7 428v-9m0-400.9v9"/><text transform="translate(229.7 449.9)" stroke="none" fill="#000" font-family="Arial" font-size="12" text-anchor="middle"><tspan>30</tspan></text></g><g fill="none" color="#000" stroke="currentColor"><path stroke="#000" d="M285.6 428v-9m0-400.9v9"/><text transform="translate(285.6 449.9)" stroke="none" fill="#000" font-family="Arial" font-size="12" text-anchor="middle"><tspan>40</tspan></text></g><g fill="none" color="#000" stroke="currentColor"><path stroke="#000" d="M341.4 428v-9m0-400.9v9"/><text transform="translate(341.4 449.9)" stroke="none" fill="#000" font-family="Arial" font-size="12" text-anchor="middle"><tspan>50</tspan></text></g><g fill="none" color="#000" stroke="currentColor"><path stroke="#000" d="M397.2 428v-9m0-400.9v9"/><text transform="translate(397.2 449.9)" stroke="none" fill="#000" font-family="Arial" font-size="12" text-anchor="middle"><tspan>60</tspan></text></g><g fill="none" color="#000" stroke="currentColor"><path stroke="#000" d="M453.1 428v-9m0-400.9v9"/><text transform="translate(453.1 449.9)" stroke="none" fill="#000" font-family="Arial" font-size="12" text-anchor="middle"><tspan>70</tspan></text></g><g fill="none" color="#000" stroke="currentColor"><path stroke="#000" d="M508.9 428v-9m0-400.9v9"/><text transform="translate(508.9 449.9)" stroke="none" fill="#000" font-family="Arial" font-size="12" text-anchor="middle"><tspan>80</tspan></text></g><g fill="none" color="#000" stroke="currentColor"><path stroke="#000" d="M564.7 428v-9m0-400.9v9"/><text transform="translate(564.7 449.9)" stroke="none" fill="#000" font-family="Arial" font-size="12" text-anchor="middle"><tspan>90</tspan></text></g><path stroke="#000" d="M62.2 18.1V428H615V18.1H62.2z" fill="none" color="#000"/><text transform="translate(437.8 467.9)" stroke="none" fill="#000" font-family="Arial" font-size="12" text-anchor="end" color="#000"><tspan>pages+cached+noexternal</tspan></text><path stroke="#9400D3" d="M446.1 464h42.2M62.2 379.7l5.6-37.3 5.6-105.2L79 381.6l5.5-22.2 5.6 4.3 5.6-188.3 5.6 243.1 5.6-15.7 5.6-42 5.5 59.3 5.6-66.3 5.6 26.9 5.6-11.7 5.6 5.4L146 364l5.5 37.5 5.6-22.7 5.6 18.1 5.6-51.6 5.6 19 5.6-23.4 5.5 33.4 5.6-26.6 5.6 29.9 5.6-11 5.6-11.1 5.6 27.6 5.5-5 5.6-11.7 5.6 8 5.6-12.9 5.6-96.5 5.6-17.8 5.6 139.1 5.5-11.4 5.6 27.1 5.6-33 5.6 17.9L280 374l5.6-92.8 5.5 83.9 5.6 4.4L302.3 26l5.6 374.1 5.6-22.6 5.6-10.6 5.5 18 5.6-22.8 5.6 18.3 5.6 15.2 5.6-19.4 5.6 8 5.5-16.2 5.6 9.3 5.6 20.7 5.6-163.3 5.6 137 5.6 1.9 5.5 16.7 5.6-12.2 5.6-1.1 5.6 5.6 5.6-8.5 5.6 11.4 5.5 14.1 5.6-108.2 5.6 95.7 5.6-20.8 5.6 10.2 5.6-7.7 5.6 11.6 5.5.4 5.6 6.3 5.6-10.3 5.6-42.3 5.6-75.6 5.6 140.4 5.5-43.5 5.6 45.6 5.6-30.6 5.6-187.6 5.6 148.8 5.6 67.4 5.5-27.8 5.6-4.2 5.6 4.2 5.6-9.3 5.6 2.4 5.6 6.9 5.5-8.2 5.6 15.2 5.6 9.5 5.6 6.1 5.6-184.1 5.6 128 5.5 39.5 5.6 13 5.6-25.5 5.6-3.3" fill="none" color="#000"/><text transform="translate(437.8 485.9)" stroke="none" fill="#000" font-family="Arial" font-size="12" text-anchor="end" color="#000"><tspan>pages+cached+noexternal+nofonts</tspan></text><path stroke="#009E73" d="M446.1 482h42.2M62.2 321.7l5.6 86.2 5.6-53.2 5.6 19.6 5.5-3.2 5.6 26.9 5.6-14.3 5.6-7.3 5.6-6.9 5.6 6.4 5.5-.3 5.6-9.8 5.6 32.7 5.6-26 5.6 22 5.6-14.3 5.5 13.8 5.6-22.6 5.6 20 5.6-6.5 5.6 13.3 5.6-14.1 5.5 10.1 5.6-10.3 5.6 10.6 5.6-14.5 5.6 20.7 5.6-16.6 5.5 5.1 5.6-9.5 5.6-28.7 5.6 17.8 5.6 14.9 5.6-14.7 5.6-21.5 5.5 34 5.6-6.3 5.6 31.9 5.6-38 5.6-16.6 5.6 21 5.5 17.9 5.6 7.2 5.6-46.3 5.6 34 5.6-6.9 5.6-22.8 5.5-12.3 5.6 31.7 5.6-18.4 5.6 34.6 5.6-3 5.6-14.1 5.5 1.4 5.6.3 5.6-8.6 5.6-2.6 5.6 7.1 5.6 5.1 5.5 12.8 5.6-16.3 5.6 26.7 5.6-36 5.6-18.6 5.6 30.9 5.5-12.3 5.6-9.6 5.6 23.4 5.6-3.9 5.6 1.5 5.6 19.2 5.6-20.2 5.5-5.9 5.6 34.9 5.6-30.3 5.6-3.2 5.6 1.8 5.6 29.6 5.5-31.5 5.6 11.7 5.6-2.1 5.6-21 5.6 40 5.6 1.2 5.5 2.2 5.6-6.7 5.6-96.4 5.6 94.6 5.6-16.5 5.6 23.1 5.5-30 5.6 11.1 5.6-19.4 5.6-3.2 5.6 3.5 5.6 17.9 5.5 24.4 5.6-5.4 5.6-24.9 5.6 19.7" fill="none" color="#000"/><g fill="none" color="#000" stroke="currentColor"><path stroke="#000" d="M62.2 18.1V428H615V18.1H62.2z"/></g></svg>