<svg width="640" height="500" xmlns="http://www.w3.org/2000/svg" xmlns:xlink="http://www.w3.org/1999/xlink"><path fill="#fff" d="M0 0h640v500H0z"/><defs><path id="d" stroke-width=".222" stroke="currentColor" d="M-1-1h2v2h-2z"/><path id="b" stroke-width=".222" stroke="currentColor" d="M0-1.33l-1.33 2h2.66z"/><path id="f" stroke-width=".222" stroke="currentColor" d="M0 1.33L1.265.411.782-1.067l-1.564-.009-.483 1.487z"/><use xlink:href="#b" id="c" stroke="currentColor" transform="rotate(180)"/><use xlink:href="#d" id="e" stroke="currentColor" transform="rotate(45)"/><circle id="a" stroke-width=".222" stroke="currentColor" cx="0" cy="0" r="1"/></defs><g fill="none" color="#000" stroke="currentColor"><path stroke="#000" d="M62.2 399.9h9m543.8 0h-9"/><text transform="translate(53.9 403.8)" stroke="none" fill="#000" font-family="Arial" font-size="12" text-anchor="end"><tspan>0.05</tspan></text></g><g fill="none" color="#000" stroke="currentColor"><path stroke="#000" d="M62.2 317.2h9m543.8 0h-9"/><text transform="translate(53.9 321.1)" stroke="none" fill="#000" font-family="Arial" font-size="12" text-anchor="end"><tspan>0.1</tspan></text></g><g fill="none" color="#000" stroke="currentColor"><path stroke="#000" d="M62.2 234.4h9m543.8 0h-9"/><text transform="translate(53.9 238.3)" stroke="none" fill="#000" font-family="Arial" font-size="12" text-anchor="end"><tspan>0.15</tspan></text></g><g fill="none" color="#000" stroke="currentColor"><path stroke="#000" d="M62.2 151.6h9m543.8 0h-9"/><text transform="translate(53.9 155.5)" stroke="none" fill="#000" font-family="Arial" font-size="12" text-anchor="end"><tspan>0.2</tspan></text></g><g fill="none" color="#000" stroke="currentColor"><path stroke="#000" d="M62.2 68.9h9m543.8 0h-9"/><text transform="translate(53.9 72.8)" stroke="none" fill="#000" font-family="Arial" font-size="12" text-anchor="end"><tspan>0.25</tspan></text></g><g fill="none" color="#000" stroke="currentColor"><path stroke="#000" d="M62.2 428v-9m0-400.9v9"/><text transform="translate(62.2 449.9)" stroke="none" fill="#000" font-family="Arial" font-size="12" text-anchor="middle"><tspan>0</tspan></text></g><g fill="none" color="#000" stroke="currentColor"><path stroke="#000" d="M118 428v-9m0-400.9v9"/><text transform="translate(118 449.9)" stroke="none" fill="#000" font-family="Arial" font-size="12" text-anchor="middle"><tspan>10</tspan></text></g><g fill="none" color="#000" stroke="currentColor"><path stroke="#000" d="M173.9 428v-9m0-400.9v9"/><text transform="translate(173.9 449.9)" stroke="none" fill="#000" font-family="Arial" font-size="12" text-anchor="middle"><tspan>20</tspan></text></g><g fill="none" color="#000" stroke="currentColor"><path stroke="#000" d="M229.7 428v-9m0-400.9v9"/><text transform="translate(229.7 449.9)" stroke="none" fill="#000" font-family="Arial" font-size="12" text-anchor="middle"><tspan>30</tspan></text></g><g fill="none" color="#000" stroke="currentColor"><path stroke="#000" d="M285.6 428v-9m0-400.9v9"/><text transform="translate(285.6 449.9)" stroke="none" fill="#000" font-family="Arial" font-size="12" text-anchor="middle"><tspan>40</tspan></text></g><g fill="none" color="#000" stroke="currentColor"><path stroke="#000" d="M341.4 428v-9m0-400.9v9"/><text transform="translate(341.4 449.9)" stroke="none" fill="#000" font-family="Arial" font-size="12" text-anchor="middle"><tspan>50</tspan></text></g><g fill="none" color="#000" stroke="currentColor"><path stroke="#000" d="M397.2 428v-9m0-400.9v9"/><text transform="translate(397.2 449.9)" stroke="none" fill="#000" font-family="Arial" font-size="12" text-anchor="middle"><tspan>60</tspan></text></g><g fill="none" color="#000" stroke="currentColor"><path stroke="#000" d="M453.1 428v-9m0-400.9v9"/><text transform="translate(453.1 449.9)" stroke="none" fill="#000" font-family="Arial" font-size="12" text-anchor="middle"><tspan>70</tspan></text></g><g fill="none" color="#000" stroke="currentColor"><path stroke="#000" d="M508.9 428v-9m0-400.9v9"/><text transform="translate(508.9 449.9)" stroke="none" fill="#000" font-family="Arial" font-size="12" text-anchor="middle"><tspan>80</tspan></text></g><g fill="none" color="#000" stroke="currentColor"><path stroke="#000" d="M564.7 428v-9m0-400.9v9"/><text transform="translate(564.7 449.9)" stroke="none" fill="#000" font-family="Arial" font-size="12" text-anchor="middle"><tspan>90</tspan></text></g><path stroke="#000" d="M62.2 18.1V428H615V18.1H62.2z" fill="none" color="#000"/><text transform="translate(437.8 467.9)" stroke="none" fill="#000" font-family="Arial" font-size="12" text-anchor="end" color="#000"><tspan>pages+cached+noexternal+nofonts</tspan></text><path stroke="#9400D3" d="M446.1 464h42.2M62.2 316.7l5.6 89 5.6-54.9L79 371l5.5-3.4 5.6 27.9 5.6-14.8 5.6-7.6 5.6-7.1 5.6 6.6 5.5-.3 5.6-10.1 5.6 33.7 5.6-26.8 5.6 22.7 5.6-14.7 5.5 14.2 5.6-23.3 5.6 20.7 5.6-6.8 5.6 13.7 5.6-14.5 5.5 10.4 5.6-10.6 5.6 10.9 5.6-14.9 5.6 21.4 5.6-17.2 5.5 5.2 5.6-9.7 5.6-29.6 5.6 18.3 5.6 15.4 5.6-15.2 5.6-22.2 5.5 35.1 5.6-6.5 5.6 33 5.6-39.2 5.6-17.3 5.6 21.7 5.5 18.6 5.6 7.4 5.6-47.8 5.6 35.1 5.6-7.1 5.6-23.6 5.5-12.7 5.6 32.8 5.6-19.1 5.6 35.8 5.6-3.2 5.6-14.5 5.5 1.5 5.6.3 5.6-8.9 5.6-2.7 5.6 7.3 5.6 5.3 5.5 13.2 5.6-16.8 5.6 27.6 5.6-37.2 5.6-19.2 5.6 31.9 5.5-12.7 5.6-10 5.6 24.2 5.6-4 5.6 1.5 5.6 19.9 5.6-20.9 5.5-6.1 5.6 36.1 5.6-31.3 5.6-3.3 5.6 1.8 5.6 30.6 5.5-32.6 5.6 12.1 5.6-2.2 5.6-21.6 5.6 41.3 5.6 1.2 5.5 2.3 5.6-6.9 5.6-99.5 5.6 97.6 5.6-17 5.6 23.8 5.5-30.9 5.6 11.4 5.6-20 5.6-3.3 5.6 3.6 5.6 18.5 5.5 25.2 5.6-5.6 5.6-25.7L615 392" fill="none" color="#000"/><text transform="translate(437.8 485.9)" stroke="none" fill="#000" font-family="Arial" font-size="12" text-anchor="end" color="#000"><tspan>pages+cached+noexternal+nosvg</tspan></text><path stroke="#009E73" d="M446.1 482h42.2M62.2 370.1l5.6.2 5.6 7.1 5.6-26.5 5.5 13.1 5.6-22 5.6 20.8 5.6 13.1 5.6-33.7 5.6 24.8 5.5 14.7 5.6-310.2 5.6 291.8 5.6-63.5 5.6-58 5.6 90.6 5.5 41.5 5.6-38.2 5.6 35.4 5.6 44.7 5.6-52.8 5.6 20.5 5.5 3.2 5.6-26.7 5.6 18.4 5.6-10.3 5.6-4.6 5.6-255.2 5.5 287.6 5.6 4.2 5.6 1.8 5.6-59.1 5.6 36.8 5.6-173 5.6 173.8 5.5 17.7 5.6-335.5 5.6 263.8 5.6 49.2L280 392l5.6-39.3 5.5 14 5.6 10.9 5.6 4.6 5.6-28.3 5.6 33.1 5.6-1.6 5.5-9.1 5.6-7.8 5.6-31.1 5.6 30.7 5.6 10 5.6-14.1 5.5 17.1 5.6-.5 5.6-17.8 5.6 15.4 5.6-22.1 5.6 32.6 5.5 6.6 5.6-19.4 5.6 17.6 5.6-24.5 5.6 9.7 5.6-3.9 5.5-9.1 5.6 13.5 5.6-10.2 5.6-14.3 5.6 4.3 5.6 61.1 5.6-39.9 5.5-12.2 5.6-7.1L475.4 26l5.6 360.5 5.6-45.5 5.6 30.5 5.5-50.4 5.6 26.3 5.6-46.8 5.6 70.4 5.6.5 5.6 4.8 5.5-11.5 5.6-16.9 5.6 25.5 5.6-6.7 5.6 11.2 5.6-46 5.5 20.3 5.6 37.6 5.6-327.2 5.6 307.7 5.6 7.6 5.6-33.3 5.5-49.5 5.6 97.4 5.6-52.7 5.6 23" fill="none" color="#000"/><g fill="none" color="#000" stroke="currentColor"><path stroke="#000" d="M62.2 18.1V428H615V18.1H62.2z"/></g></svg>