<svg width="640" height="500" xmlns="http://www.w3.org/2000/svg" xmlns:xlink="http://www.w3.org/1999/xlink"><path fill="#fff" d="M0 0h640v500H0z"/><defs><path id="d" stroke-width=".222" stroke="currentColor" d="M-1-1h2v2h-2z"/><path id="b" stroke-width=".222" stroke="currentColor" d="M0-1.33l-1.33 2h2.66z"/><path id="f" stroke-width=".222" stroke="currentColor" d="M0 1.33L1.265.411.782-1.067l-1.564-.009-.483 1.487z"/><use xlink:href="#b" id="c" stroke="currentColor" transform="rotate(180)"/><use xlink:href="#d" id="e" stroke="currentColor" transform="rotate(45)"/><circle id="a" stroke-width=".222" stroke="currentColor" cx="0" cy="0" r="1"/></defs><g fill="none" color="#000" stroke="currentColor"><path stroke="#000" d="M62.2 430.5h9m543.8 0h-9"/><text transform="translate(53.9 434.4)" stroke="none" fill="#000" font-family="Arial" font-size="12" text-anchor="end"><tspan>0.05</tspan></text></g><g fill="none" color="#000" stroke="currentColor"><path stroke="#000" d="M62.2 326.4h9m543.8 0h-9"/><text transform="translate(53.9 330.3)" stroke="none" fill="#000" font-family="Arial" font-size="12" text-anchor="end"><tspan>0.1</tspan></text></g><g fill="none" color="#000" stroke="currentColor"><path stroke="#000" d="M62.2 222.3h9m543.8 0h-9"/><text transform="translate(53.9 226.2)" stroke="none" fill="#000" font-family="Arial" font-size="12" text-anchor="end"><tspan>0.15</tspan></text></g><g fill="none" color="#000" stroke="currentColor"><path stroke="#000" d="M62.2 118.2h9m543.8 0h-9"/><text transform="translate(53.9 122.1)" stroke="none" fill="#000" font-family="Arial" font-size="12" text-anchor="end"><tspan>0.2</tspan></text></g><g fill="none" color="#000" stroke="currentColor"><path stroke="#000" d="M62.2 446v-9m0-418.9v9"/><text transform="translate(62.2 467.9)" stroke="none" fill="#000" font-family="Arial" font-size="12" text-anchor="middle"><tspan>0</tspan></text></g><g fill="none" color="#000" stroke="currentColor"><path stroke="#000" d="M118 446v-9m0-418.9v9"/><text transform="translate(118 467.9)" stroke="none" fill="#000" font-family="Arial" font-size="12" text-anchor="middle"><tspan>10</tspan></text></g><g fill="none" color="#000" stroke="currentColor"><path stroke="#000" d="M173.9 446v-9m0-418.9v9"/><text transform="translate(173.9 467.9)" stroke="none" fill="#000" font-family="Arial" font-size="12" text-anchor="middle"><tspan>20</tspan></text></g><g fill="none" color="#000" stroke="currentColor"><path stroke="#000" d="M229.7 446v-9m0-418.9v9"/><text transform="translate(229.7 467.9)" stroke="none" fill="#000" font-family="Arial" font-size="12" text-anchor="middle"><tspan>30</tspan></text></g><g fill="none" color="#000" stroke="currentColor"><path stroke="#000" d="M285.6 446v-9m0-418.9v9"/><text transform="translate(285.6 467.9)" stroke="none" fill="#000" font-family="Arial" font-size="12" text-anchor="middle"><tspan>40</tspan></text></g><g fill="none" color="#000" stroke="currentColor"><path stroke="#000" d="M341.4 446v-9m0-418.9v9"/><text transform="translate(341.4 467.9)" stroke="none" fill="#000" font-family="Arial" font-size="12" text-anchor="middle"><tspan>50</tspan></text></g><g fill="none" color="#000" stroke="currentColor"><path stroke="#000" d="M397.2 446v-9m0-418.9v9"/><text transform="translate(397.2 467.9)" stroke="none" fill="#000" font-family="Arial" font-size="12" text-anchor="middle"><tspan>60</tspan></text></g><g fill="none" color="#000" stroke="currentColor"><path stroke="#000" d="M453.1 446v-9m0-418.9v9"/><text transform="translate(453.1 467.9)" stroke="none" fill="#000" font-family="Arial" font-size="12" text-anchor="middle"><tspan>70</tspan></text></g><g fill="none" color="#000" stroke="currentColor"><path stroke="#000" d="M508.9 446v-9m0-418.9v9"/><text transform="translate(508.9 467.9)" stroke="none" fill="#000" font-family="Arial" font-size="12" text-anchor="middle"><tspan>80</tspan></text></g><g fill="none" color="#000" stroke="currentColor"><path stroke="#000" d="M564.7 446v-9m0-418.9v9"/><text transform="translate(564.7 467.9)" stroke="none" fill="#000" font-family="Arial" font-size="12" text-anchor="middle"><tspan>90</tspan></text></g><path stroke="#000" d="M62.2 18.1V446H615V18.1H62.2z" fill="none" color="#000"/><text transform="translate(279.8 485.9)" stroke="none" fill="#000" font-family="Arial" font-size="12" text-anchor="end" color="#000"><tspan>pages+cached+noexternal+noimg</tspan></text><path stroke="#9400D3" d="M288.1 482h42.2M62.2 407.4l5.6 13.5 5.6-114.5L79 398l5.5-34.8 5.6 10.9 5.6 5 5.6 9.7 5.6-14.7 5.6 29.1 5.5-21 5.6 18.3 5.6 3.3 5.6-13.9 5.6 4.6 5.6 2.7 5.5-7.5 5.6-36.3 5.6 37.5 5.6-1.2 5.6-1.5 5.6 2.7 5.5 30.6 5.6-18.9 5.6.4 5.6-6.7 5.6 8.6 5.6-16.7 5.5 5.8 5.6 20.9 5.6-21.3 5.6-23.1 5.6 13.8 5.6 53.5 5.6-32.3 5.5-241.5 5.6 211.3 5.6 18.7 5.6-5.6 5.6 42.5 5.6-67.9 5.5 42.3h5.6l5.6 22.5 5.6-37.9 5.6 7.3 5.6-32.7 5.5 2.1 5.6 51.4 5.6-219.5 5.6 169.9 5.6 12.7 5.6 17.3 5.5-17.3 5.6-78 5.6 5.8 5.6 80.6 5.6 2.7 5.6-32.3 5.5 40.6 5.6 4.4 5.6-51.9 5.6-39.3 5.6 96 5.6 8.1 5.5-16.9 5.6-13.3 5.6-21.2 5.6-110.2 5.6 81.4 5.6 68.3 5.6-49.5 5.5 69.7 5.6-32.5 5.6 35.6 5.6-34.1 5.6 7.1 5.6-19.6 5.5 24.1 5.6-38.9 5.6 51.9 5.6-31.5 5.6 2.5 5.6-6 5.5-181.6 5.6 154.3 5.6 72 5.6-17 5.6-106.4 5.6 96.4 5.5-20.6 5.6.8 5.6 15.8 5.6 16.1 5.6-12.5 5.6 6 5.5-381.7 5.6 383.6 5.6-35 5.6 25.2" fill="none" color="#000"/><text transform="translate(579.3 485.9)" stroke="none" fill="#000" font-family="Arial" font-size="12" text-anchor="end" color="#000"><tspan>pages+cached+noexternal+nocss</tspan></text><path stroke="#009E73" d="M587.6 482h42.2M62.2 426.3l5.6-55.2 5.6 17.3 5.6-19.8 5.5 44.4 5.6-37.7 5.6 9.6 5.6 42.3 5.6-96.7 5.6 59.2 5.5 4.3 5.6 4.6 5.6 22.9 5.6-29.1 5.6 35.6 5.6-10.6 5.5-12.7 5.6-10.7 5.6 24.4 5.6.2 5.6 1.3 5.6-48.8 5.5 43.8 5.6-34.8 5.6 17.7 5.6 34.1 5.6-72.8 5.6 35.8 5.5 7.1 5.6 20.6 5.6-67.3 5.6 14.2 5.6 60.6 5.6-28.1 5.6-16.5 5.5 26.5 5.6-46.5 5.6 32.7 5.6-6.2 5.6.4 5.6-.4 5.5-12.1 5.6 5 5.6.4 5.6 36 5.6-1 5.6-16.7 5.5-30h5.6l5.6 57.1 5.6-11.9 5.6 8.8 5.6-64.6 5.5 25.8 5.6-30.6 5.6 76.2 5.6-25.8 5.6-61.8 5.6 46.4 5.5 24.2 5.6-35.2 5.6 16 5.6 13.1 5.6-9.8 5.6-16.4 5.5 1 5.6 27.7 5.6 2.1 5.6-34.3 5.6 27 5.6 21.9 5.6-46.4 5.5.6 5.6-18.8 5.6 16.1 5.6-7.1 5.6-24.8 5.6 46.7 5.5-1.5 5.6-20.2 5.6-16.5 5.6 14.2 5.6 32.3 5.6-10.2 5.5 5.6 5.6-47.9 5.6 20.2 5.6 47.1 5.6-.9 5.6 16.9 5.5-62.9 5.6-1.4 5.6 13.9 5.6 47.9 5.6-41.2 5.6 30.2 5.5-11.5 5.6-51.4 5.6 41.8 5.6-.4" fill="none" color="#000"/><g fill="none" color="#000" stroke="currentColor"><path stroke="#000" d="M62.2 18.1V446H615V18.1H62.2z"/></g></svg>