<svg width="640" height="500" xmlns="http://www.w3.org/2000/svg" xmlns:xlink="http://www.w3.org/1999/xlink"><path fill="#fff" d="M0 0h640v500H0z"/><defs><path id="d" stroke-width=".222" stroke="currentColor" d="M-1-1h2v2h-2z"/><path id="b" stroke-width=".222" stroke="currentColor" d="M0-1.33l-1.33 2h2.66z"/><path id="f" stroke-width=".222" stroke="currentColor" d="M0 1.33L1.265.411.782-1.067l-1.564-.009-.483 1.487z"/><use xlink:href="#b" id="c" stroke="currentColor" transform="rotate(180)"/><use xlink:href="#d" id="e" stroke="currentColor" transform="rotate(45)"/><circle id="a" stroke-width=".222" stroke="currentColor" cx="0" cy="0" r="1"/></defs><g fill="none" color="#000" stroke="currentColor"><path stroke="#000" d="M53.9 442.1h9m552.1 0h-9"/><text transform="translate(45.6 446)" stroke="none" fill="#000" font-family="Arial" font-size="12" text-anchor="end"><tspan>0</tspan></text></g><g fill="none" color="#000" stroke="currentColor"><path stroke="#000" d="M53.9 384.9h9m552.1 0h-9"/><text transform="translate(45.6 388.8)" stroke="none" fill="#000" font-family="Arial" font-size="12" text-anchor="end"><tspan>0.5</tspan></text></g><g fill="none" color="#000" stroke="currentColor"><path stroke="#000" d="M53.9 327.7h9m552.1 0h-9"/><text transform="translate(45.6 331.6)" stroke="none" fill="#000" font-family="Arial" font-size="12" text-anchor="end"><tspan>1</tspan></text></g><g fill="none" color="#000" stroke="currentColor"><path stroke="#000" d="M53.9 270.4h9m552.1 0h-9"/><text transform="translate(45.6 274.3)" stroke="none" fill="#000" font-family="Arial" font-size="12" text-anchor="end"><tspan>1.5</tspan></text></g><g fill="none" color="#000" stroke="currentColor"><path stroke="#000" d="M53.9 213.2h9m552.1 0h-9"/><text transform="translate(45.6 217.1)" stroke="none" fill="#000" font-family="Arial" font-size="12" text-anchor="end"><tspan>2</tspan></text></g><g fill="none" color="#000" stroke="currentColor"><path stroke="#000" d="M53.9 155.9h9m552.1 0h-9"/><text transform="translate(45.6 159.8)" stroke="none" fill="#000" font-family="Arial" font-size="12" text-anchor="end"><tspan>2.5</tspan></text></g><g fill="none" color="#000" stroke="currentColor"><path stroke="#000" d="M53.9 98.7h9m552.1 0h-9"/><text transform="translate(45.6 102.6)" stroke="none" fill="#000" font-family="Arial" font-size="12" text-anchor="end"><tspan>3</tspan></text></g><g fill="none" color="#000" stroke="currentColor"><path stroke="#000" d="M53.9 41.4h9m552.1 0h-9"/><text transform="translate(45.6 45.3)" stroke="none" fill="#000" font-family="Arial" font-size="12" text-anchor="end"><tspan>3.5</tspan></text></g><g fill="none" color="#000" stroke="currentColor"><path stroke="#000" d="M53.9 446v-9m0-418.9v9"/><text transform="translate(53.9 467.9)" stroke="none" fill="#000" font-family="Arial" font-size="12" text-anchor="middle"><tspan>0</tspan></text></g><g fill="none" color="#000" stroke="currentColor"><path stroke="#000" d="M110.6 446v-9m0-418.9v9"/><text transform="translate(110.6 467.9)" stroke="none" fill="#000" font-family="Arial" font-size="12" text-anchor="middle"><tspan>10</tspan></text></g><g fill="none" color="#000" stroke="currentColor"><path stroke="#000" d="M167.3 446v-9m0-418.9v9"/><text transform="translate(167.3 467.9)" stroke="none" fill="#000" font-family="Arial" font-size="12" text-anchor="middle"><tspan>20</tspan></text></g><g fill="none" color="#000" stroke="currentColor"><path stroke="#000" d="M223.9 446v-9m0-418.9v9"/><text transform="translate(223.9 467.9)" stroke="none" fill="#000" font-family="Arial" font-size="12" text-anchor="middle"><tspan>30</tspan></text></g><g fill="none" color="#000" stroke="currentColor"><path stroke="#000" d="M280.6 446v-9m0-418.9v9"/><text transform="translate(280.6 467.9)" stroke="none" fill="#000" font-family="Arial" font-size="12" text-anchor="middle"><tspan>40</tspan></text></g><g fill="none" color="#000" stroke="currentColor"><path stroke="#000" d="M337.3 446v-9m0-418.9v9"/><text transform="translate(337.3 467.9)" stroke="none" fill="#000" font-family="Arial" font-size="12" text-anchor="middle"><tspan>50</tspan></text></g><g fill="none" color="#000" stroke="currentColor"><path stroke="#000" d="M394 446v-9m0-418.9v9"/><text transform="translate(394 467.9)" stroke="none" fill="#000" font-family="Arial" font-size="12" text-anchor="middle"><tspan>60</tspan></text></g><g fill="none" color="#000" stroke="currentColor"><path stroke="#000" d="M450.6 446v-9m0-418.9v9"/><text transform="translate(450.6 467.9)" stroke="none" fill="#000" font-family="Arial" font-size="12" text-anchor="middle"><tspan>70</tspan></text></g><g fill="none" color="#000" stroke="currentColor"><path stroke="#000" d="M507.3 446v-9m0-418.9v9"/><text transform="translate(507.3 467.9)" stroke="none" fill="#000" font-family="Arial" font-size="12" text-anchor="middle"><tspan>80</tspan></text></g><g fill="none" color="#000" stroke="currentColor"><path stroke="#000" d="M564 446v-9m0-418.9v9"/><text transform="translate(564 467.9)" stroke="none" fill="#000" font-family="Arial" font-size="12" text-anchor="middle"><tspan>90</tspan></text></g><path stroke="#000" d="M53.9 18.1V446H615V18.1H53.9z" fill="none" color="#000"/><text transform="translate(275.6 485.9)" stroke="none" fill="#000" font-family="Arial" font-size="12" text-anchor="end" color="#000"><tspan>pages+cached+noexternal+nocss</tspan></text><path stroke="#9400D3" d="M283.9 482h42.2M53.9 436.2l5.7-3 5.6.9 5.7-1.1 5.7 2.5 5.6-2.1 5.7.5 5.7 2.3 5.6-5.3 5.7 3.3 5.7.2 5.6.3 5.7 1.2 5.7-1.6 5.6 2 5.7-.6 5.7-.7 5.7-.6 5.6 1.4h11.4l5.6-2.6 5.7 2.4 5.7-2 5.6 1 5.7 1.9 5.7-4 5.6 2 5.7.4 5.7 1.1 5.6-3.7 5.7.8 5.7 3.3 5.6-1.5 5.7-1 5.7 1.5 5.6-2.6 5.7 1.8 5.7-.3h11.3l5.7-.7 5.6.3h5.7l5.7 2h5.6l5.7-1 5.7-1.6h5.6l5.7 3.1 5.7-.6 5.7.5 5.6-3.6 5.7 1.4 5.7-1.7 5.6 4.2 5.7-1.4 5.7-3.4 5.6 2.6 5.7 1.3 5.7-1.9 5.6.8 5.7.8 5.7-.6 5.6-.9 5.7.1 5.7 1.5 5.6.1 5.7-1.9 5.7 1.5 5.6 1.2 5.7-2.5h5.7l5.6-1 5.7.9 5.7-.4 5.6-1.4 5.7 2.6 5.7-.1 5.6-1.1 5.7-.9 5.7.7 5.6 1.8 5.7-.5 5.7.3 5.7-2.7 5.6 1.1 5.7 2.6h5.7l5.6.9 5.7-3.4 5.7-.1 5.6.7 5.7 2.7 5.7-2.3 5.6 1.7 5.7-.7 5.7-2.8 5.6 2.3h5.7" fill="none" color="#000"/><text transform="translate(575.1 485.9)" stroke="none" fill="#000" font-family="Arial" font-size="12" text-anchor="end" color="#000"><tspan>pages+cached+noexternal+nojs</tspan></text><path stroke="#009E73" d="M583.4 482h42.2M53.9 432.9l5.7-1.1 5.6 2 5.7-.1 5.7.1 5.6 1.9 5.7-3.6 5.7 1.4 5.6.2 5.7-2.2 5.7-5.1 5.6 8.5 5.7-4.7 5.7 5 5.6-5.8 5.7 6.4 5.7-10.4 5.7 1.4 5.6 6.8 5.7.9 5.7-3.3 5.6 3.6 5.7-.3 5.7-8.2 5.6 7.9 5.7-3.9 5.7 6.1 5.6-2.8 5.7 2.5 5.7-10.8 5.6 10.8 5.7 1.7 5.7-356.2 5.6 342.9 5.7 7.6 5.7-.2 5.6 1.7 5.7.5 5.7 1.6 5.6-3.6 5.7 3.6 5.7-1 5.6-393.6 5.7 392.7 5.7-.1 5.6-.8 5.7 3.1 5.7-1.9 5.6-.9 5.7 2.8 5.7-323.9 5.7 321.6 5.6.1 5.7-8 5.7 9.8 5.6-409.3 5.7 407.9 5.7-11.5 5.6 6.3 5.7 5 5.7-1.8 5.6-.3 5.7-.7 5.7 3.6 5.6-5.5 5.7 4.3 5.7-7.6 5.6 7 5.7 1.1 5.7-.7 5.6-5.2 5.7 6.3 5.7-1.6 5.6 2.5 5.7 1.1 5.7-2.3 5.6-1.9 5.7 2.3 5.7 1.7 5.6-10.6 5.7 10 5.7-.5 5.6-.7 5.7 2.1 5.7-3.5 5.7 3.4 5.6-2.3 5.7.2 5.7-.3 5.6-.7 5.7-5.9 5.7 8.3 5.6-1.2 5.7-9.1 5.7 7.5 5.6 1.7 5.7-1 5.7-.5 5.6-2.3 5.7.4" fill="none" color="#000"/><g fill="none" color="#000" stroke="currentColor"><path stroke="#000" d="M53.9 18.1V446H615V18.1H53.9z"/></g></svg>