<svg width="640" height="500" xmlns="http://www.w3.org/2000/svg" xmlns:xlink="http://www.w3.org/1999/xlink"><path fill="#fff" d="M0 0h640v500H0z"/><defs><path id="g" stroke-width=".222" stroke="currentColor" d="M-1 0h2M0-1v2"/><path id="h" stroke-width=".222" stroke="currentColor" d="M-1-1l2 2m0-2l-2 2"/><path id="d" stroke-width=".222" stroke="currentColor" d="M-1-1h2v2h-2z"/><path id="b" stroke-width=".222" stroke="currentColor" d="M0-1.33l-1.33 2h2.66z"/><path id="f" stroke-width=".222" stroke="currentColor" d="M0 1.33L1.265.411.782-1.067l-1.564-.009-.483 1.487z"/><use xlink:href="#b" id="c" stroke="currentColor" transform="rotate(180)"/><use xlink:href="#d" id="e" stroke="currentColor" transform="rotate(45)"/><circle id="a" stroke-width=".222" stroke="currentColor" cx="0" cy="0" r="1"/></defs><g fill="none" color="#000" stroke="currentColor"><path stroke="#000" d="M62.2 437.8h9m543.8 0h-9"/><text transform="translate(53.9 441.7)" stroke="none" fill="#000" font-family="Arial" font-size="12" text-anchor="end"><tspan>1</tspan></text></g><g fill="none" color="#000" stroke="currentColor"><path stroke="#000" d="M62.2 383.6h9m543.8 0h-9"/><text transform="translate(53.9 387.5)" stroke="none" fill="#000" font-family="Arial" font-size="12" text-anchor="end"><tspan>1.02</tspan></text></g><g fill="none" color="#000" stroke="currentColor"><path stroke="#000" d="M62.2 329.4h9m543.8 0h-9"/><text transform="translate(53.9 333.3)" stroke="none" fill="#000" font-family="Arial" font-size="12" text-anchor="end"><tspan>1.04</tspan></text></g><g fill="none" color="#000" stroke="currentColor"><path stroke="#000" d="M62.2 275.3h9m543.8 0h-9"/><text transform="translate(53.9 279.2)" stroke="none" fill="#000" font-family="Arial" font-size="12" text-anchor="end"><tspan>1.06</tspan></text></g><g fill="none" color="#000" stroke="currentColor"><path stroke="#000" d="M62.2 221.1h9m543.8 0h-9"/><text transform="translate(53.9 225)" stroke="none" fill="#000" font-family="Arial" font-size="12" text-anchor="end"><tspan>1.08</tspan></text></g><g fill="none" color="#000" stroke="currentColor"><path stroke="#000" d="M62.2 166.9h9m543.8 0h-9"/><text transform="translate(53.9 170.8)" stroke="none" fill="#000" font-family="Arial" font-size="12" text-anchor="end"><tspan>1.1</tspan></text></g><g fill="none" color="#000" stroke="currentColor"><path stroke="#000" d="M62.2 112.7h9m543.8 0h-9"/><text transform="translate(53.9 116.6)" stroke="none" fill="#000" font-family="Arial" font-size="12" text-anchor="end"><tspan>1.12</tspan></text></g><g fill="none" color="#000" stroke="currentColor"><path stroke="#000" d="M62.2 58.6h9m543.8 0h-9"/><text transform="translate(53.9 62.5)" stroke="none" fill="#000" font-family="Arial" font-size="12" text-anchor="end"><tspan>1.14</tspan></text></g><g fill="none" color="#000" stroke="currentColor"><path stroke="#000" d="M62.2 446v-9m0-418.9v9"/><text transform="translate(62.2 467.9)" stroke="none" fill="#000" font-family="Arial" font-size="12" text-anchor="middle"><tspan>0</tspan></text></g><g fill="none" color="#000" stroke="currentColor"><path stroke="#000" d="M147.2 446v-9m0-418.9v9"/><text transform="translate(147.2 467.9)" stroke="none" fill="#000" font-family="Arial" font-size="12" text-anchor="middle"><tspan>2</tspan></text></g><g fill="none" color="#000" stroke="currentColor"><path stroke="#000" d="M232.3 446v-9m0-418.9v9"/><text transform="translate(232.3 467.9)" stroke="none" fill="#000" font-family="Arial" font-size="12" text-anchor="middle"><tspan>4</tspan></text></g><g fill="none" color="#000" stroke="currentColor"><path stroke="#000" d="M317.3 446v-9m0-418.9v9"/><text transform="translate(317.3 467.9)" stroke="none" fill="#000" font-family="Arial" font-size="12" text-anchor="middle"><tspan>6</tspan></text></g><g fill="none" color="#000" stroke="currentColor"><path stroke="#000" d="M402.4 446v-9m0-418.9v9"/><text transform="translate(402.4 467.9)" stroke="none" fill="#000" font-family="Arial" font-size="12" text-anchor="middle"><tspan>8</tspan></text></g><g fill="none" color="#000" stroke="currentColor"><path stroke="#000" d="M487.4 446v-9m0-418.9v9"/><text transform="translate(487.4 467.9)" stroke="none" fill="#000" font-family="Arial" font-size="12" text-anchor="middle"><tspan>10</tspan></text></g><g fill="none" color="#000" stroke="currentColor"><path stroke="#000" d="M572.5 446v-9m0-418.9v9"/><text transform="translate(572.5 467.9)" stroke="none" fill="#000" font-family="Arial" font-size="12" text-anchor="middle"><tspan>12</tspan></text></g><path stroke="#000" d="M62.2 18.1V446H615V18.1H62.2z" fill="none" color="#000"/><text transform="translate(279.8 485.9)" stroke="none" fill="#000" font-family="Arial" font-size="12" text-anchor="end" color="#000"><tspan>p90eccentricity</tspan></text><g fill="none" color="#000" stroke="currentColor"><path stroke="#9400D3" d="M288.1 482h42.2M62.2 437.8H615"/><use xlink:href="#g" transform="matrix(4.5 0 0 4.5 62.2 437.8)" color="#9400D3"/><use xlink:href="#g" transform="matrix(4.5 0 0 4.5 104.7 437.8)" color="#9400D3"/><use xlink:href="#g" transform="matrix(4.5 0 0 4.5 147.2 437.8)" color="#9400D3"/><use xlink:href="#g" transform="matrix(4.5 0 0 4.5 189.8 437.8)" color="#9400D3"/><use xlink:href="#g" transform="matrix(4.5 0 0 4.5 232.3 437.8)" color="#9400D3"/><use xlink:href="#g" transform="matrix(4.5 0 0 4.5 274.8 437.8)" color="#9400D3"/><use xlink:href="#g" transform="matrix(4.5 0 0 4.5 317.3 437.8)" color="#9400D3"/><use xlink:href="#g" transform="matrix(4.5 0 0 4.5 359.9 437.8)" color="#9400D3"/><use xlink:href="#g" transform="matrix(4.5 0 0 4.5 402.4 437.8)" color="#9400D3"/><use xlink:href="#g" transform="matrix(4.5 0 0 4.5 444.9 437.8)" color="#9400D3"/><use xlink:href="#g" transform="matrix(4.5 0 0 4.5 487.4 437.8)" color="#9400D3"/><use xlink:href="#g" transform="matrix(4.5 0 0 4.5 530 437.8)" color="#9400D3"/><use xlink:href="#g" transform="matrix(4.5 0 0 4.5 572.5 437.8)" color="#9400D3"/><use xlink:href="#g" transform="matrix(4.5 0 0 4.5 615 437.8)" color="#9400D3"/><use xlink:href="#g" transform="matrix(4.5 0 0 4.5 309.2 482)" color="#9400D3"/></g><text transform="translate(479.7 485.9)" stroke="none" fill="#000" font-family="Arial" font-size="12" text-anchor="end" color="#000"><tspan>p90discretization</tspan></text><g fill="none" color="#000" stroke="currentColor"><path stroke="#009E73" d="M488 482h42.2M62.2 26.3l42.5 381.4 42.5-94.5 42.6-32.9 42.5 96.6h42.5l42.5-96.6h42.6l42.5-33.7 42.5 161.1 42.5-30.8L530 246.6l42.5 66.6 42.5-66.6"/><use xlink:href="#h" transform="matrix(4.5 0 0 4.5 62.2 26.3)" color="#009E73"/><use xlink:href="#h" transform="matrix(4.5 0 0 4.5 104.7 407.7)" color="#009E73"/><use xlink:href="#h" transform="matrix(4.5 0 0 4.5 147.2 313.2)" color="#009E73"/><use xlink:href="#h" transform="matrix(4.5 0 0 4.5 189.8 280.3)" color="#009E73"/><use xlink:href="#h" transform="matrix(4.5 0 0 4.5 232.3 376.9)" color="#009E73"/><use xlink:href="#h" transform="matrix(4.5 0 0 4.5 274.8 376.9)" color="#009E73"/><use xlink:href="#h" transform="matrix(4.5 0 0 4.5 317.3 280.3)" color="#009E73"/><use xlink:href="#h" transform="matrix(4.5 0 0 4.5 359.9 280.3)" color="#009E73"/><use xlink:href="#h" transform="matrix(4.5 0 0 4.5 402.4 246.6)" color="#009E73"/><use xlink:href="#h" transform="matrix(4.5 0 0 4.5 444.9 407.7)" color="#009E73"/><use xlink:href="#h" transform="matrix(4.5 0 0 4.5 487.4 376.9)" color="#009E73"/><use xlink:href="#h" transform="matrix(4.5 0 0 4.5 530 246.6)" color="#009E73"/><use xlink:href="#h" transform="matrix(4.5 0 0 4.5 572.5 313.2)" color="#009E73"/><use xlink:href="#h" transform="matrix(4.5 0 0 4.5 615 246.6)" color="#009E73"/><use xlink:href="#h" transform="matrix(4.5 0 0 4.5 509.1 482)" color="#009E73"/></g><g fill="none" color="#000" stroke="currentColor"><path stroke="#000" d="M62.2 18.1V446H615V18.1H62.2z"/></g></svg>