<svg width="640" height="610" xmlns="http://www.w3.org/2000/svg" xmlns:xlink="http://www.w3.org/1999/xlink"><path fill="#fff" d="M0 0h640v610H0z"/><defs><path id="d" stroke-width=".222" stroke="currentColor" d="M-1-1h2v2h-2z"/><path id="b" stroke-width=".222" stroke="currentColor" d="M0-1.33l-1.33 2h2.66z"/><path id="f" stroke-width=".222" stroke="currentColor" d="M0 1.33L1.265.411.782-1.067l-1.564-.009-.483 1.487z"/><use xlink:href="#b" id="c" stroke="currentColor" transform="rotate(180)"/><use xlink:href="#d" id="e" stroke="currentColor" transform="rotate(45)"/><circle id="a" stroke-width=".222" stroke="currentColor" cx="0" cy="0" r="1"/></defs><g fill="none" color="#000" stroke="currentColor"><path stroke="#000" d="M53.9 289.8h9m552.1 0h-9"/><text transform="translate(45.6 293.7)" stroke="none" fill="#000" font-family="Arial" font-size="12" text-anchor="end"><tspan>0.5</tspan></text></g><g fill="none" color="#000" stroke="currentColor"><path stroke="#000" d="M53.9 236.7h9m552.1 0h-9"/><text transform="translate(45.6 240.6)" stroke="none" fill="#000" font-family="Arial" font-size="12" text-anchor="end"><tspan>0.6</tspan></text></g><g fill="none" color="#000" stroke="currentColor"><path stroke="#000" d="M53.9 183.6h9m552.1 0h-9"/><text transform="translate(45.6 187.5)" stroke="none" fill="#000" font-family="Arial" font-size="12" text-anchor="end"><tspan>0.7</tspan></text></g><g fill="none" color="#000" stroke="currentColor"><path stroke="#000" d="M53.9 130.5h9m552.1 0h-9"/><text transform="translate(45.6 134.4)" stroke="none" fill="#000" font-family="Arial" font-size="12" text-anchor="end"><tspan>0.8</tspan></text></g><g fill="none" color="#000" stroke="currentColor"><path stroke="#000" d="M53.9 77.4h9m552.1 0h-9"/><text transform="translate(45.6 81.3)" stroke="none" fill="#000" font-family="Arial" font-size="12" text-anchor="end"><tspan>0.9</tspan></text></g><g fill="none" color="#000" stroke="currentColor"><path stroke="#000" d="M53.9 24.3h9m552.1 0h-9"/><text transform="translate(45.6 28.2)" stroke="none" fill="#000" font-family="Arial" font-size="12" text-anchor="end"><tspan>1</tspan></text></g><g fill="none" color="#000" stroke="currentColor"><path stroke="#000" d="M53.9 340v-9m0-312.9v9"/><text transform="translate(53.9 361.9)" stroke="none" fill="#000" font-family="Arial" font-size="12" text-anchor="middle"><tspan>0</tspan></text></g><g fill="none" color="#000" stroke="currentColor"><path stroke="#000" d="M110.6 340v-9m0-312.9v9"/><text transform="translate(110.6 361.9)" stroke="none" fill="#000" font-family="Arial" font-size="12" text-anchor="middle"><tspan>10</tspan></text></g><g fill="none" color="#000" stroke="currentColor"><path stroke="#000" d="M167.3 340v-9m0-312.9v9"/><text transform="translate(167.3 361.9)" stroke="none" fill="#000" font-family="Arial" font-size="12" text-anchor="middle"><tspan>20</tspan></text></g><g fill="none" color="#000" stroke="currentColor"><path stroke="#000" d="M223.9 340v-9m0-312.9v9"/><text transform="translate(223.9 361.9)" stroke="none" fill="#000" font-family="Arial" font-size="12" text-anchor="middle"><tspan>30</tspan></text></g><g fill="none" color="#000" stroke="currentColor"><path stroke="#000" d="M280.6 340v-9m0-312.9v9"/><text transform="translate(280.6 361.9)" stroke="none" fill="#000" font-family="Arial" font-size="12" text-anchor="middle"><tspan>40</tspan></text></g><g fill="none" color="#000" stroke="currentColor"><path stroke="#000" d="M337.3 340v-9m0-312.9v9"/><text transform="translate(337.3 361.9)" stroke="none" fill="#000" font-family="Arial" font-size="12" text-anchor="middle"><tspan>50</tspan></text></g><g fill="none" color="#000" stroke="currentColor"><path stroke="#000" d="M394 340v-9m0-312.9v9"/><text transform="translate(394 361.9)" stroke="none" fill="#000" font-family="Arial" font-size="12" text-anchor="middle"><tspan>60</tspan></text></g><g fill="none" color="#000" stroke="currentColor"><path stroke="#000" d="M450.6 340v-9m0-312.9v9"/><text transform="translate(450.6 361.9)" stroke="none" fill="#000" font-family="Arial" font-size="12" text-anchor="middle"><tspan>70</tspan></text></g><g fill="none" color="#000" stroke="currentColor"><path stroke="#000" d="M507.3 340v-9m0-312.9v9"/><text transform="translate(507.3 361.9)" stroke="none" fill="#000" font-family="Arial" font-size="12" text-anchor="middle"><tspan>80</tspan></text></g><g fill="none" color="#000" stroke="currentColor"><path stroke="#000" d="M564 340v-9m0-312.9v9"/><text transform="translate(564 361.9)" stroke="none" fill="#000" font-family="Arial" font-size="12" text-anchor="middle"><tspan>90</tspan></text></g><path stroke="#000" d="M53.9 18.1V340H615V18.1H53.9z" fill="none" color="#000"/><text transform="translate(529.1 379.9)" stroke="none" fill="#000" font-family="Arial" font-size="12" text-anchor="end" color="#000"><tspan>empty</tspan></text><path stroke="#9400D3" d="M537.4 376h42.2M53.9 24.3H615" fill="none" color="#000"/><text transform="translate(529.1 397.9)" stroke="none" fill="#000" font-family="Arial" font-size="12" text-anchor="end" color="#000"><tspan>pages</tspan></text><path stroke="#009E73" d="M537.4 394h42.2M53.9 333.8l5.7-6.6 5.6-15 5.7-1 5.7-.1 5.6-2.1h5.7l5.7-.2 5.6-.5 5.7-.7 5.7-.4 5.6-.3 5.7-.3 5.7-.1 5.6-.3h5.7l5.7-.1 5.7-.3 5.6-.2h5.7l5.7-.1 5.6-.1h5.7l5.7-.1 5.6-.1 5.7-.1 5.7-.1h11.3l5.7-.3h11.3l5.7-.1 5.6-.1 5.7-.2h11.3l5.7-.1h5.7l5.6-.1 5.7-.1h5.7l5.6-.1h11.4l5.6-.1h5.7l5.7-.1h5.6l5.7-.1 5.7-.3h5.7l5.6-.1 5.7-.1 5.7-.1 5.6-.1 5.7-.1 5.7-.1 5.6-.1 5.7-.2 5.7-.1 5.6-1.1 5.7-.6 5.7-.7 5.6-.2 5.7-3.1 5.7-.5 5.6-.1 5.7-.1 5.7-.7 5.6-.2 5.7-.5 5.7-.4 5.6-.4 5.7-1.1 5.7-.5h5.6l5.7-1.1 5.7-.6 5.6-.2 5.7-2.1 5.7-1.6 5.6-.1 5.7-1.5 5.7-.3 5.7-.2 5.6-.1 5.7-.3 5.7-.3 5.6-.4h11.4l5.6-.6 5.7-.3 5.7-.1 5.6-.1h11.4l5.6-.5h5.7" fill="none" color="#000"/><text transform="translate(529.1 415.9)" stroke="none" fill="#000" font-family="Arial" font-size="12" text-anchor="end" color="#000"><tspan>pages+cached</tspan></text><path stroke="#56B4E9" d="M537.4 412h42.2M53.9 294.4l5.7-2.5 5.6-1.6 5.7-1.4 5.7-.3 5.6-.5 5.7-1.2 5.7-1.2 5.6-.3 5.7-.3 5.7-.2 5.6-.1 5.7-.2 5.7-.1 5.6-1 5.7-2.1 5.7-.5 5.7-.1 5.6-.1h5.7l5.7-.6h5.6l5.7-.1 5.7-.2 5.6-1.3 5.7-1.3 5.7-.4 5.6-.1 5.7-.5 5.7-.1 5.6-.1h5.7l5.7-.2 5.6-.1h5.7l5.7-.1 5.6-.3 5.7-.3 5.7-.3 5.6-.1 5.7-.1h5.7l5.6-.2 5.7-.2 5.7-.4 5.6-.2 5.7-.5 5.7-.5 5.6-.3 5.7-.1 5.7-.4h5.7l5.6-.5 5.7-.1 5.7-.2 5.6-.4h5.7l5.7-.1 5.6-.3 5.7-.3 5.7-.3 5.6-.2 5.7-.6 5.7-.1 5.6-.1h17l5.7-.5h5.7l5.6-.4h5.7l5.7-.5 5.6-.8 5.7-.1 5.7-.2 5.6-.3 5.7-.2 5.7-.1 5.6-.1 5.7-.1 5.7-.1h5.6l5.7-.6 5.7-.2h5.7l5.6-.6h5.7l5.7-.2h5.6l5.7-1.2 5.7-.3h5.6l5.7-.1 5.7-.3h5.6l5.7-.2 5.7-.3 5.6-.2 5.7-6" fill="none" color="#000"/><text transform="translate(529.1 433.9)" stroke="none" fill="#000" font-family="Arial" font-size="12" text-anchor="end" color="#000"><tspan>pages+cached+nointeractive</tspan></text><path stroke="#E69F00" d="M537.4 430h42.2M53.9 290.5l5.7-2.8 5.6-.3 5.7-.1 5.7-2.1 5.6-.7 5.7-.9 5.7-.1 5.6-.2 5.7-3h5.7l5.6-.2 5.7-.2 5.7-.2 5.6-.2 5.7-.3 5.7-.1 5.7-.1 5.6-.2 5.7-.5 5.7-.4 5.6-.8 5.7-.1 5.7-1h5.6l5.7-.2 5.7-.1h5.6l5.7-.2 5.7-.1h5.6l5.7-.3h5.7l5.6-.2 5.7-.1h5.7l5.6-.2 5.7-.1 5.7-.2 5.6-.1 5.7-.2 5.7-.6h11.3l5.7-.1 5.6-.1h5.7l5.7-.3 5.6-.2 5.7-.1 5.7-.3 5.7-.2 5.6-.2 5.7-.1 5.7-.2 5.6-.4 5.7-.1 5.7-.4 5.6-.1 5.7-.1 5.7-.3 5.6-.1h5.7l5.7-.7 5.6-.6 5.7-.2 5.7-.5 5.6-.7 5.7-1.7 5.7-.1h11.3l5.7-.1 5.6-.1h5.7l5.7-.1h5.6l5.7-.1 5.7-.1h5.6l5.7-.2h5.7l5.6-.3 5.7-.1 5.7-.1 5.7-.3h5.6l5.7-.1h5.7l5.6-.1h5.7l5.7-.1 5.6-.3 5.7-.2 5.7-.7 5.6-1.1 5.7-.2h5.7l5.6-.7 5.7-.3" fill="none" color="#000"/><text transform="translate(529.1 451.9)" stroke="none" fill="#000" font-family="Arial" font-size="12" text-anchor="end" color="#000"><tspan>pages+cached+noadtech</tspan></text><path stroke="#F0E442" d="M537.4 448h42.2M53.9 183.7l5.7-1.7 5.6-.2 5.7-.1 5.7-2.1h17l5.6-.1h28.4l5.6-.1h5.7l5.7-.6 5.7-.1h5.6l5.7-.2 5.7-2.1 5.6-1.6h17l5.7-.1h17l5.7-.8 5.6-.1 5.7-.8 5.7-.1h34l5.6-.1h28.4l5.6-.1 5.7-.6 5.7-.1h11.3l5.7-.1 5.7-.1 5.6-.5H360l5.6-.1h17l5.7-.8h5.7l5.6-.1 5.7-.1 5.7-.1h39.6l5.7-.1h11.3l5.7-1.5h5.7l5.6-.1h22.7l5.7-.1h5.6l5.7-3.3 5.7-2.6 5.7-.1h22.6l5.7-.1h22.7l5.6-.1h17l5.7-1.3" fill="none" color="#000"/><text transform="translate(529.1 469.9)" stroke="none" fill="#000" font-family="Arial" font-size="12" text-anchor="end" color="#000"><tspan>pages+cached+noexternal</tspan></text><path stroke="#0072B2" d="M537.4 466h42.2M53.9 187h5.7l5.6-.1h5.7l5.7-4.8h5.6l5.7-.1 5.7-.1h17l5.6-.1h5.7l5.7-.7 5.6-.1 5.7-1.4h5.7l5.7-.1h11.3l5.7-.1 5.6-.3 5.7-3.9h5.7l5.6-.1h22.7l5.7-.1h17l5.6-.7 5.7-.1 5.7-.7h22.6l5.7-.1 5.7-.4h28.3l5.7-.1h5.6l5.7-.1h17l5.7-.1 5.7-.1 5.6-.4H377l5.6-.1h5.7l5.7-.8 5.6-.5 5.7-.1H456.3l5.7-.1h11.3l5.7-.4h5.6l5.7-.1H513l5.6-.1H530l5.7-1.5h5.6l5.7-.1h17l5.7-5.9h5.6l5.7-.1h5.7l5.6-.1h17l5.7-.1" fill="none" color="#000"/><g><text transform="translate(529.1 487.9)" stroke="none" fill="#000" font-family="Arial" font-size="12" text-anchor="end" color="#000"><tspan>pages+cached+noexternal+nofonts</tspan></text><path stroke="#E51E10" d="M537.4 484h42.2M53.9 167.6h22.7l5.6-.1 5.7-2.9h5.7l5.6-.7h5.7l5.7-1.8 5.6-.7 5.7-1.4h11.3l5.7-.1H184.3l5.6-.4H235.3l5.6-2.8h5.7l5.7-.1 5.6-1.7 5.7-1.1 5.7-.1h5.6l5.7-1h34l5.7-.1H371.3l5.7-.7h5.6l5.7-.1H411l5.6-.7 5.7-.1 5.7-.5 5.6-.1h5.7l5.7-.1H490.3l5.7-.1h5.6l5.7-1 5.7-.1 5.6-4.2h34.1l5.6-.1H598l5.7-.7 5.6-.1h5.7" fill="none" color="#000"/></g><g><text transform="translate(529.1 505.9)" stroke="none" fill="#000" font-family="Arial" font-size="12" text-anchor="end" color="#000"><tspan>pages+cached+noexternal+nosvg</tspan></text><path stroke="#000" d="M537.4 502h42.2M53.9 186.1h5.7l5.6-.1h22.7l5.7-7.8 5.6-.1 5.7-2.7 5.7-.2 5.6-.7h5.7l5.7-1.2 5.6-.8 5.7-.7h22.7l5.7-.1H286.3l5.6-.1h5.7l5.7-1.2 5.6-.1H371.3l5.7-.1h22.6l5.7-.6H428l5.6-.1h39.7l5.7-.1h11.3l5.7-8.4 5.6-.1h5.7l5.7-.1H558.3l5.7-.1h39.7l5.6-.1h5.7" fill="none" color="#000"/></g><g><text transform="translate(529.1 523.9)" stroke="none" fill="#000" font-family="Arial" font-size="12" text-anchor="end" color="#000"><tspan>pages+cached+noexternal+noimg</tspan></text><path stroke="#9400D3" d="M537.4 520h42.2M53.9 175l5.7-11.1 5.6-.1h11.4l5.6-.1 5.7-.1 5.7-.2 5.6-1.7 5.7-.1h17l5.7-.1 5.6-.1 5.7-.1h5.7l5.7-.1h28.3l5.7-.1h5.6l5.7-.1h39.7l5.6-.1h28.4l5.6-.1h17l5.7-.2 5.7-.1 5.6-.1h5.7l5.7-.2 5.6-.2h5.7l5.7-.9 5.7-.1 5.6-.1h5.7l5.7-.1 5.6-.2 5.7-.3 5.7-.1h5.6l5.7-.1h5.7l5.6-.1 5.7-3.8 5.7-.2h5.6l5.7-.7 5.7-.1 5.6-.1 5.7-.2h5.7l5.6-.2 5.7-.9 5.7-.7h5.6l5.7-.1 5.7-.6 5.6-.1 5.7-.1h11.3l5.7-.1 5.7-.1 5.6-2h5.7l5.7-.1 5.7-3.5 5.6-1.4h5.7l5.7-.1 5.6-.1h5.7l5.7-.1H581l5.7-.7 5.6-.1h5.7l5.7-.1h5.6l5.7-.2" fill="none" color="#000"/></g><g><text transform="translate(529.1 541.9)" stroke="none" fill="#000" font-family="Arial" font-size="12" text-anchor="end" color="#000"><tspan>pages+cached+noexternal+nocss</tspan></text><path stroke="#009E73" d="M537.4 538h42.2M53.9 95l5.7-2.7 5.6-.1 5.7-.1h5.7l5.6-2 5.7-.3h5.7l5.6-35.2h17l5.7-.1H184.3l5.6-.1h17l5.7-.1h5.7l5.6-1.5h5.7l5.7-.1 5.6-.1H325.9l5.7-.1H501.6l5.7-.1H592.3l5.7-.1h17" fill="none" color="#000"/></g><g><text transform="translate(529.1 559.9)" stroke="none" fill="#000" font-family="Arial" font-size="12" text-anchor="end" color="#000"><tspan>pages+cached+noexternal+nofonts+nosvg+noimg</tspan></text><path stroke="#56B4E9" d="M537.4 556h42.2M53.9 72.3l5.7-.1 5.6-.1 5.7-.1h11.3l5.7-.2h5.7l5.6-6.4 5.7-.5h5.7l5.6-.4 5.7-.9h5.7l5.6-.1h11.4l5.7-.5h5.6l5.7-.1H189.9l5.7-.2h5.7l5.6-.4 5.7-.8 5.7-1.1 5.6-.1 5.7-.1 5.7-.3h5.6l5.7-.1h22.7l5.6-.1H331.6l5.7-.1H411l5.6-.1h17l5.7-2.2H462l5.6-.1h17l5.7-.1h5.7l5.6-1.4 5.7-.3 5.7-.1h11.3l5.7-.2 5.7-1.7h5.6l5.7-2.6h11.3l5.7-.1 5.7-.6 5.6-.1h5.7l5.7-.1 5.6-.1h5.7l5.7-2.1 5.6-.2 5.7-.1" fill="none" color="#000"/></g><g><text transform="translate(529.1 577.9)" stroke="none" fill="#000" font-family="Arial" font-size="12" text-anchor="end" color="#000"><tspan>pages+cached+noexternal+nofonts+nosvg+noimg+nocss</tspan></text><path stroke="#E69F00" d="M537.4 574h42.2M53.9 66.9l5.7-.1h5.6l5.7-.2 5.7-1.9h5.6l5.7-.3h11.3l5.7-6 5.7-.1h5.6l5.7-.2 5.7-.1H155.9l5.7-.1H257.9l5.7-.1H365.6l5.7-.1H524.3l5.7-.1H598l5.7-.1H615" fill="none" color="#000"/></g><g><text transform="translate(529.1 595.9)" stroke="none" fill="#000" font-family="Arial" font-size="12" text-anchor="end" color="#000"><tspan>pages+cached+noexternal+nofonts+nosvg+noimg+nocss+nojs</tspan></text><path stroke="#F0E442" d="M537.4 592h42.2M53.9 25.8H456.3l5.7-.1H615" fill="none" color="#000"/></g><g fill="none" color="#000" stroke="currentColor"><path stroke="#000" d="M53.9 18.1V340H615V18.1H53.9z"/></g></svg>