<svg width="640" height="500" xmlns="http://www.w3.org/2000/svg" xmlns:xlink="http://www.w3.org/1999/xlink"><path fill="#fff" d="M0 0h640v500H0z"/><defs><path id="d" stroke-width=".222" stroke="currentColor" d="M-1-1h2v2h-2z"/><path id="b" stroke-width=".222" stroke="currentColor" d="M0-1.33l-1.33 2h2.66z"/><path id="f" stroke-width=".222" stroke="currentColor" d="M0 1.33L1.265.411.782-1.067l-1.564-.009-.483 1.487z"/><use xlink:href="#b" id="c" stroke="currentColor" transform="rotate(180)"/><use xlink:href="#d" id="e" stroke="currentColor" transform="rotate(45)"/><circle id="a" stroke-width=".222" stroke="currentColor" cx="0" cy="0" r="1"/></defs><g fill="none" color="#000" stroke="currentColor"><path stroke="#000" d="M70.5 390.9h9m535.5 0h-9"/><text transform="translate(62.2 394.8)" stroke="none" fill="#000" font-family="Arial" font-size="12" text-anchor="end"><tspan>2000</tspan></text></g><g fill="none" color="#000" stroke="currentColor"><path stroke="#000" d="M70.5 322.8h9m535.5 0h-9"/><text transform="translate(62.2 326.7)" stroke="none" fill="#000" font-family="Arial" font-size="12" text-anchor="end"><tspan>4000</tspan></text></g><g fill="none" color="#000" stroke="currentColor"><path stroke="#000" d="M70.5 254.7h9m535.5 0h-9"/><text transform="translate(62.2 258.6)" stroke="none" fill="#000" font-family="Arial" font-size="12" text-anchor="end"><tspan>6000</tspan></text></g><g fill="none" color="#000" stroke="currentColor"><path stroke="#000" d="M70.5 186.6h9m535.5 0h-9"/><text transform="translate(62.2 190.5)" stroke="none" fill="#000" font-family="Arial" font-size="12" text-anchor="end"><tspan>8000</tspan></text></g><g fill="none" color="#000" stroke="currentColor"><path stroke="#000" d="M70.5 118.5h9m535.5 0h-9"/><text transform="translate(62.2 122.4)" stroke="none" fill="#000" font-family="Arial" font-size="12" text-anchor="end"><tspan>10000</tspan></text></g><g fill="none" color="#000" stroke="currentColor"><path stroke="#000" d="M70.5 50.4h9m535.5 0h-9"/><text transform="translate(62.2 54.3)" stroke="none" fill="#000" font-family="Arial" font-size="12" text-anchor="end"><tspan>12000</tspan></text></g><g fill="none" color="#000" stroke="currentColor"><path stroke="#000" d="M70.5 446v-9m0-418.9v9"/><text transform="translate(70.5 467.9)" stroke="none" fill="#000" font-family="Arial" font-size="12" text-anchor="middle"><tspan>0</tspan></text></g><g fill="none" color="#000" stroke="currentColor"><path stroke="#000" d="M125.5 446v-9m0-418.9v9"/><text transform="translate(125.5 467.9)" stroke="none" fill="#000" font-family="Arial" font-size="12" text-anchor="middle"><tspan>10</tspan></text></g><g fill="none" color="#000" stroke="currentColor"><path stroke="#000" d="M180.5 446v-9m0-418.9v9"/><text transform="translate(180.5 467.9)" stroke="none" fill="#000" font-family="Arial" font-size="12" text-anchor="middle"><tspan>20</tspan></text></g><g fill="none" color="#000" stroke="currentColor"><path stroke="#000" d="M235.5 446v-9m0-418.9v9"/><text transform="translate(235.5 467.9)" stroke="none" fill="#000" font-family="Arial" font-size="12" text-anchor="middle"><tspan>30</tspan></text></g><g fill="none" color="#000" stroke="currentColor"><path stroke="#000" d="M290.5 446v-9m0-418.9v9"/><text transform="translate(290.5 467.9)" stroke="none" fill="#000" font-family="Arial" font-size="12" text-anchor="middle"><tspan>40</tspan></text></g><g fill="none" color="#000" stroke="currentColor"><path stroke="#000" d="M345.5 446v-9m0-418.9v9"/><text transform="translate(345.5 467.9)" stroke="none" fill="#000" font-family="Arial" font-size="12" text-anchor="middle"><tspan>50</tspan></text></g><g fill="none" color="#000" stroke="currentColor"><path stroke="#000" d="M400.5 446v-9m0-418.9v9"/><text transform="translate(400.5 467.9)" stroke="none" fill="#000" font-family="Arial" font-size="12" text-anchor="middle"><tspan>60</tspan></text></g><g fill="none" color="#000" stroke="currentColor"><path stroke="#000" d="M455.5 446v-9m0-418.9v9"/><text transform="translate(455.5 467.9)" stroke="none" fill="#000" font-family="Arial" font-size="12" text-anchor="middle"><tspan>70</tspan></text></g><g fill="none" color="#000" stroke="currentColor"><path stroke="#000" d="M510.5 446v-9m0-418.9v9"/><text transform="translate(510.5 467.9)" stroke="none" fill="#000" font-family="Arial" font-size="12" text-anchor="middle"><tspan>80</tspan></text></g><g fill="none" color="#000" stroke="currentColor"><path stroke="#000" d="M565.5 446v-9m0-418.9v9"/><text transform="translate(565.5 467.9)" stroke="none" fill="#000" font-family="Arial" font-size="12" text-anchor="middle"><tspan>90</tspan></text></g><path stroke="#000" d="M70.5 18.1V446H615V18.1H70.5z" fill="none" color="#000"/><text transform="translate(283.9 485.9)" stroke="none" fill="#000" font-family="Arial" font-size="12" text-anchor="end" color="#000"><tspan>empty</tspan></text><path stroke="#9400D3" d="M292.2 482h42.2M70.5 437.4l5.5.3h5.5l5.5-.1 5.5.1 5.5-.1 5.5.1H120l5.5.1 5.5-.1h5.5l5.5-.2 5.5.1h5.5l5.5.1h5.5l5.5-.1 5.5.1h44l5.5-.1h5.5l5.5-.1 5.5.1h11l5.5-.1 5.5.1 5.5.1h33l5.5-.1 5.5.1H329l5.5-.1 5.5-.2 5.5.3 5.5-.1h5.5l5.5-.1 5.5.1 5.5.1h5.5l5.5-.1 5.5.1h5.5l5.5-.1 5.5.1h22l5.5.1 5.5-.1 5.5-.1h5.5l5.5.1 5.5.1 5.5-.1h5.5l5.5-.1 5.5.1h11l5.5-.1 5.5.1 5.5.1 5.5-.1h5.5l5.5-.1 5.5.1H571l5.5.1 5.5-.2 5.5.1 5.5-.1 5.5.1h5.5l5.5.1 5.5-.3" fill="none" color="#000"/><text transform="translate(384.2 485.9)" stroke="none" fill="#000" font-family="Arial" font-size="12" text-anchor="end" color="#000"><tspan>pages</tspan></text><path stroke="#009E73" d="M392.5 482h42.2M70.5 26.3L76 59.6l5.5 1 5.5-1.5 5.5.4L98 62l5.5-2.7 5.5 2.4 5.5-.1 5.5.2 5.5.5 5.5-7.4 5.5 9.7 5.5-2.7 5.5.7 5.5-1.2 5.5.6 5.5.5 5.5-3 5.5 1.9 5.5.8L186 65l5.5-7.8L197 59l5.5 3 5.5.3 5.5-.6 5.5.3 5.5.3 5.5-2.4 5.5 1.3 5.5.5 5.5.5 5.5 2.5 5.5-3.2L263 67l5.5-2.1L274 67l5.5-5.6 5.5.2 5.5 2.6 5.5-1.9 5.5-.7L307 58l5.5 3.8 5.5-4.3 5.5 1.6L329 62l5.5.1 5.5-2.7 5.5.1 5.5.4 5.5.2 5.5-.9 5.5 2.3 5.5.3 5.5-6.4 5.5 8.8 5.5-2.2 5.5-2.3 5.5 1 5.5 4.4 5.5-1.4 5.5 1.2 5.5-6.6 5.5-3.2 5.5 9.4 5.5-2 5.5-6.3 5.5 8.4 5.5.1 5.5-2.2 5.5-.9 5.5 2.8 5.5-3.7 5.5 4.1 5.5 1.1 5.5-1.3 5.5-2.5 5.5-2.3 5.5-.7 5.5 2.5 5.5.6L527 57l5.5 9.9 5.5-19.7 5.5 23.9 5.5-10.9 5.5-2.1 5.5.1 5.5 4.2 5.5-.7 5.5 2.8 5.5-2.3 5.5-3.1 5.5-.3 5.5 3.1 5.5-2.8 5.5 3.3 5.5-3.6" fill="none" color="#000"/><g fill="none" color="#000" stroke="currentColor"><path stroke="#000" d="M70.5 18.1V446H615V18.1H70.5z"/></g></svg>