<svg width="640" height="500" xmlns="http://www.w3.org/2000/svg" xmlns:xlink="http://www.w3.org/1999/xlink"><path fill="#fff" d="M0 0h640v500H0z"/><defs><path id="d" stroke-width=".222" stroke="currentColor" d="M-1-1h2v2h-2z"/><path id="b" stroke-width=".222" stroke="currentColor" d="M0-1.33l-1.33 2h2.66z"/><path id="f" stroke-width=".222" stroke="currentColor" d="M0 1.33L1.265.411.782-1.067l-1.564-.009-.483 1.487z"/><use xlink:href="#b" id="c" stroke="currentColor" transform="rotate(180)"/><use xlink:href="#d" id="e" stroke="currentColor" transform="rotate(45)"/><circle id="a" stroke-width=".222" stroke="currentColor" cx="0" cy="0" r="1"/></defs><g fill="none" color="#000" stroke="currentColor"><path stroke="#000" d="M70.5 391.6h9m535.5 0h-9"/><text transform="translate(62.2 395.5)" stroke="none" fill="#000" font-family="Arial" font-size="12" text-anchor="end"><tspan>11000</tspan></text></g><g fill="none" color="#000" stroke="currentColor"><path stroke="#000" d="M70.5 318.4h9m535.5 0h-9"/><text transform="translate(62.2 322.3)" stroke="none" fill="#000" font-family="Arial" font-size="12" text-anchor="end"><tspan>11100</tspan></text></g><g fill="none" color="#000" stroke="currentColor"><path stroke="#000" d="M70.5 245.2h9m535.5 0h-9"/><text transform="translate(62.2 249.1)" stroke="none" fill="#000" font-family="Arial" font-size="12" text-anchor="end"><tspan>11200</tspan></text></g><g fill="none" color="#000" stroke="currentColor"><path stroke="#000" d="M70.5 172h9m535.5 0h-9"/><text transform="translate(62.2 175.9)" stroke="none" fill="#000" font-family="Arial" font-size="12" text-anchor="end"><tspan>11300</tspan></text></g><g fill="none" color="#000" stroke="currentColor"><path stroke="#000" d="M70.5 98.8h9m535.5 0h-9"/><text transform="translate(62.2 102.7)" stroke="none" fill="#000" font-family="Arial" font-size="12" text-anchor="end"><tspan>11400</tspan></text></g><g fill="none" color="#000" stroke="currentColor"><path stroke="#000" d="M70.5 25.6h9m535.5 0h-9"/><text transform="translate(62.2 29.5)" stroke="none" fill="#000" font-family="Arial" font-size="12" text-anchor="end"><tspan>11500</tspan></text></g><g fill="none" color="#000" stroke="currentColor"><path stroke="#000" d="M70.5 446v-9m0-418.9v9"/><text transform="translate(70.5 467.9)" stroke="none" fill="#000" font-family="Arial" font-size="12" text-anchor="middle"><tspan>0</tspan></text></g><g fill="none" color="#000" stroke="currentColor"><path stroke="#000" d="M125.5 446v-9m0-418.9v9"/><text transform="translate(125.5 467.9)" stroke="none" fill="#000" font-family="Arial" font-size="12" text-anchor="middle"><tspan>10</tspan></text></g><g fill="none" color="#000" stroke="currentColor"><path stroke="#000" d="M180.5 446v-9m0-418.9v9"/><text transform="translate(180.5 467.9)" stroke="none" fill="#000" font-family="Arial" font-size="12" text-anchor="middle"><tspan>20</tspan></text></g><g fill="none" color="#000" stroke="currentColor"><path stroke="#000" d="M235.5 446v-9m0-418.9v9"/><text transform="translate(235.5 467.9)" stroke="none" fill="#000" font-family="Arial" font-size="12" text-anchor="middle"><tspan>30</tspan></text></g><g fill="none" color="#000" stroke="currentColor"><path stroke="#000" d="M290.5 446v-9m0-418.9v9"/><text transform="translate(290.5 467.9)" stroke="none" fill="#000" font-family="Arial" font-size="12" text-anchor="middle"><tspan>40</tspan></text></g><g fill="none" color="#000" stroke="currentColor"><path stroke="#000" d="M345.5 446v-9m0-418.9v9"/><text transform="translate(345.5 467.9)" stroke="none" fill="#000" font-family="Arial" font-size="12" text-anchor="middle"><tspan>50</tspan></text></g><g fill="none" color="#000" stroke="currentColor"><path stroke="#000" d="M400.5 446v-9m0-418.9v9"/><text transform="translate(400.5 467.9)" stroke="none" fill="#000" font-family="Arial" font-size="12" text-anchor="middle"><tspan>60</tspan></text></g><g fill="none" color="#000" stroke="currentColor"><path stroke="#000" d="M455.5 446v-9m0-418.9v9"/><text transform="translate(455.5 467.9)" stroke="none" fill="#000" font-family="Arial" font-size="12" text-anchor="middle"><tspan>70</tspan></text></g><g fill="none" color="#000" stroke="currentColor"><path stroke="#000" d="M510.5 446v-9m0-418.9v9"/><text transform="translate(510.5 467.9)" stroke="none" fill="#000" font-family="Arial" font-size="12" text-anchor="middle"><tspan>80</tspan></text></g><g fill="none" color="#000" stroke="currentColor"><path stroke="#000" d="M565.5 446v-9m0-418.9v9"/><text transform="translate(565.5 467.9)" stroke="none" fill="#000" font-family="Arial" font-size="12" text-anchor="middle"><tspan>90</tspan></text></g><path stroke="#000" d="M70.5 18.1V446H615V18.1H70.5z" fill="none" color="#000"/><text transform="translate(283.9 485.9)" stroke="none" fill="#000" font-family="Arial" font-size="12" text-anchor="end" color="#000"><tspan>pages+cached</tspan></text><path stroke="#9400D3" d="M292.2 482h42.2M70.5 26.3l5.5 388 5.5-35.8 5.5 37.3h5.5l5.5-24.2 5.5 43.2L109 407l5.5 23.5 5.5-16.2 5.5 16.9 5.5-9.5 5.5-12.5 5.5-19 5.5 21.9 5.5-1.4 5.5 21.9 5.5-13.9 5.5.8 5.5 8.8 5.5-16.2 5.5-3.6 5.5 6.6 5.5 8 5.5-15.3 5.5 2.2 5.5 20.5L219 410l5.5 5.1 5.5 13.2 5.5-21.3 5.5 24.2 5.5 2.9 5.5-2.9h5.5l5.5-19.8 5.5 10.3 5.5-49.1 5.5 46.9 5.5-1.5 5.5-9.5 5.5 5.1 5.5-6.6 5.5-8 5.5 25.6 5.5-19 5.5 25.6 5.5-2.2 5.5-2.9L340 410l5.5 17.5 5.5-37.3 5.5 41 5.5 2.2 5.5-27.8 5.5 24.1 5.5.8 5.5-7.4 5.5-13.1 5.5 9.5 5.5 11.7 5.5-4.4 5.5 1.5 5.5-3.7 5.5-19 5.5 9.5 5.5 15.4 5.5-14.7 5.5 13.2 5.5 5.8 5.5 3 5.5-6.6 5.5-27.8 5.5 8.7 5.5 5.9 5.5 7.3 5.5-9.5 5.5 7.3 5.5 4.4 5.5-14.6 5.5-4.4 5.5 1.5 5.5 7.3 5.5 17.5h5.5l5.5-6.5 5.5-2.2 5.5 3.6 5.5-1.4 5.5-2.2 5.5-14.7 5.5 22.7 5.5-8 5.5 3.6 5.5-20.5 5.5 19.1h5.5l5.5-4.4 5.5-6.6 5.5-6.6" fill="none" color="#000"/><text transform="translate(558.5 485.9)" stroke="none" fill="#000" font-family="Arial" font-size="12" text-anchor="end" color="#000"><tspan>pages+cached+nointeractive</tspan></text><path stroke="#009E73" d="M566.8 482H609M70.5 407l5.5 23.5 5.5-33.7 5.5 14.6 5.5-2.9 5.5 17.6 5.5-4.4 5.5 5.8 5.5-2.2 5.5-38.8 5.5 24.9 5.5-1.4 5.5 11.7 5.5-11 5.5 14.6 5.5 3 5.5-22 5.5 24.9 5.5-1.5 5.5-13.9 5.5 13.2h5.5l5.5 1.5 5.5-13.2 5.5 16.1 5.5-2.2 5.5-.7 5.5 5.1 5.5-8.1 5.5.8 5.5-21.3 5.5 17.6 5.5 3.7 5.5-8.1 5.5 6.6 5.5 3.7 5.5-8.1 5.5 1.5 5.5-14.7 5.5 15.4 5.5 2.2 5.5-19 5.5 22.7L307 407l5.5 22.7 5.5-3.6h5.5l5.5-.8h5.5l5.5 1.5 5.5-.7h5.5l5.5-3 5.5 13.2 5.5-12.4 5.5 1.4 5.5-15.3 5.5 2.1 5.5 17.6 5.5-.7 5.5-4.4 5.5-13.2 5.5 14.7 5.5 11.7 5.5-3 5.5-3.6 5.5-5.9 5.5 8.1 5.5-17.6 5.5 7.3 5.5-16.8 5.5 2.2 5.5 17.6 5.5-8.1 5.5 17.6 5.5-10.3 5.5 2.2 5.5 2.2 5.5 2.2h5.5l5.5-10.2 5.5 10.9 5.5-20.5 5.5 14 5.5 5.1L538 399l5.5 25.6 5.5-8.1 5.5 11 5.5-6.6 5.5 9.6 5.5-9.6 5.5 5.2 5.5 1.4 5.5 3 5.5-17.6 5.5 21.2 5.5-6.6 5.5-.7 5.5-3.7" fill="none" color="#000"/><g fill="none" color="#000" stroke="currentColor"><path stroke="#000" d="M70.5 18.1V446H615V18.1H70.5z"/></g></svg>