<svg width="640" height="500" xmlns="http://www.w3.org/2000/svg" xmlns:xlink="http://www.w3.org/1999/xlink"><path fill="#fff" d="M0 0h640v500H0z"/><defs><path id="d" stroke-width=".222" stroke="currentColor" d="M-1-1h2v2h-2z"/><path id="b" stroke-width=".222" stroke="currentColor" d="M0-1.33l-1.33 2h2.66z"/><path id="f" stroke-width=".222" stroke="currentColor" d="M0 1.33L1.265.411.782-1.067l-1.564-.009-.483 1.487z"/><use xlink:href="#b" id="c" stroke="currentColor" transform="rotate(180)"/><use xlink:href="#d" id="e" stroke="currentColor" transform="rotate(45)"/><circle id="a" stroke-width=".222" stroke="currentColor" cx="0" cy="0" r="1"/></defs><g fill="none" color="#000" stroke="currentColor"><path stroke="#000" d="M62.2 379.2h9m543.8 0h-9"/><text transform="translate(53.9 383.1)" stroke="none" fill="#000" font-family="Arial" font-size="12" text-anchor="end"><tspan>1850</tspan></text></g><g fill="none" color="#000" stroke="currentColor"><path stroke="#000" d="M62.2 293.2h9m543.8 0h-9"/><text transform="translate(53.9 297.1)" stroke="none" fill="#000" font-family="Arial" font-size="12" text-anchor="end"><tspan>1900</tspan></text></g><g fill="none" color="#000" stroke="currentColor"><path stroke="#000" d="M62.2 207.1h9m543.8 0h-9"/><text transform="translate(53.9 211)" stroke="none" fill="#000" font-family="Arial" font-size="12" text-anchor="end"><tspan>1950</tspan></text></g><g fill="none" color="#000" stroke="currentColor"><path stroke="#000" d="M62.2 121h9m543.8 0h-9"/><text transform="translate(53.9 124.9)" stroke="none" fill="#000" font-family="Arial" font-size="12" text-anchor="end"><tspan>2000</tspan></text></g><g fill="none" color="#000" stroke="currentColor"><path stroke="#000" d="M62.2 34.9h9m543.8 0h-9"/><text transform="translate(53.9 38.8)" stroke="none" fill="#000" font-family="Arial" font-size="12" text-anchor="end"><tspan>2050</tspan></text></g><g fill="none" color="#000" stroke="currentColor"><path stroke="#000" d="M62.2 446v-9m0-418.9v9"/><text transform="translate(62.2 467.9)" stroke="none" fill="#000" font-family="Arial" font-size="12" text-anchor="middle"><tspan>0</tspan></text></g><g fill="none" color="#000" stroke="currentColor"><path stroke="#000" d="M118 446v-9m0-418.9v9"/><text transform="translate(118 467.9)" stroke="none" fill="#000" font-family="Arial" font-size="12" text-anchor="middle"><tspan>10</tspan></text></g><g fill="none" color="#000" stroke="currentColor"><path stroke="#000" d="M173.9 446v-9m0-418.9v9"/><text transform="translate(173.9 467.9)" stroke="none" fill="#000" font-family="Arial" font-size="12" text-anchor="middle"><tspan>20</tspan></text></g><g fill="none" color="#000" stroke="currentColor"><path stroke="#000" d="M229.7 446v-9m0-418.9v9"/><text transform="translate(229.7 467.9)" stroke="none" fill="#000" font-family="Arial" font-size="12" text-anchor="middle"><tspan>30</tspan></text></g><g fill="none" color="#000" stroke="currentColor"><path stroke="#000" d="M285.6 446v-9m0-418.9v9"/><text transform="translate(285.6 467.9)" stroke="none" fill="#000" font-family="Arial" font-size="12" text-anchor="middle"><tspan>40</tspan></text></g><g fill="none" color="#000" stroke="currentColor"><path stroke="#000" d="M341.4 446v-9m0-418.9v9"/><text transform="translate(341.4 467.9)" stroke="none" fill="#000" font-family="Arial" font-size="12" text-anchor="middle"><tspan>50</tspan></text></g><g fill="none" color="#000" stroke="currentColor"><path stroke="#000" d="M397.2 446v-9m0-418.9v9"/><text transform="translate(397.2 467.9)" stroke="none" fill="#000" font-family="Arial" font-size="12" text-anchor="middle"><tspan>60</tspan></text></g><g fill="none" color="#000" stroke="currentColor"><path stroke="#000" d="M453.1 446v-9m0-418.9v9"/><text transform="translate(453.1 467.9)" stroke="none" fill="#000" font-family="Arial" font-size="12" text-anchor="middle"><tspan>70</tspan></text></g><g fill="none" color="#000" stroke="currentColor"><path stroke="#000" d="M508.9 446v-9m0-418.9v9"/><text transform="translate(508.9 467.9)" stroke="none" fill="#000" font-family="Arial" font-size="12" text-anchor="middle"><tspan>80</tspan></text></g><g fill="none" color="#000" stroke="currentColor"><path stroke="#000" d="M564.7 446v-9m0-418.9v9"/><text transform="translate(564.7 467.9)" stroke="none" fill="#000" font-family="Arial" font-size="12" text-anchor="middle"><tspan>90</tspan></text></g><path stroke="#000" d="M62.2 18.1V446H615V18.1H62.2z" fill="none" color="#000"/><text transform="translate(279.8 485.9)" stroke="none" fill="#000" font-family="Arial" font-size="12" text-anchor="end" color="#000"><tspan>pages+cached+noadtech</tspan></text><path stroke="#9400D3" d="M288.1 482h42.2M62.2 45.3l5.6 383.9h5.6L79 436l5.5-8.6 5.6-401.1 5.6 15.5 5.6 394.2 5.6-3.4 5.6-395.9 5.5 392.5 5.6-394.3 5.6 389.1 5.6-390.8h5.6l5.6-3.4 5.5 394.2 5.6-387.3 5.6 394.2 5.6-404.6 5.6 409.7 5.6-270.2L185 31.5l5.6 12 5.6 385.7 5.6-397.7 5.6 129.1 5.6 268.6 5.5 3.4 5.6-399.4 5.6 13.8 5.6 389 5.6 1.8 5.6-401.1 5.6 401.1 5.5-401.1 5.6-10.4 5.6 408 5.6-395.9 5.6-3.5 5.6 3.5 5.5 392.5 5.6-394.2 5.6 125.6 5.6-127.4 5.6 396 5.6-399.4 5.5 397.7 5.6 3.4 5.6-395.9 5.6 390.7L347 33.2l5.6 127.4 5.5 270.3 5.6 3.4 5.6-404.5 5.6 399.4 5.6-265.1 5.6 1.7 5.5 256.5 5.6 10.3 5.6-272 5.6-120.5 5.6 389.1h5.6l5.5-402.9 5.6 6.9 5.6 402.8 5.6-1.7 5.6-268.5 5.6-120.5 5.6 389 5.5-397.6 5.6-5.2 5.6 399.4 5.6-268.6 5.6-130.8 5.6 401.1 5.5-395.9 5.6-1.8 5.6-1.7 5.6 3.5 5.6-1.8 5.6 6.9 5.5-5.1 5.6 125.6 5.6 268.6L548 31.5l5.6 1.7 5.6 141.2 5.5-142.9 5.6 395.9 5.6-390.7 5.6 395.9 5.6-266.8 5.6 254.8 5.5-378.8 5.6 387.4 5.6-396 5.6-1.7" fill="none" color="#000"/><text transform="translate(529.5 485.9)" stroke="none" fill="#000" font-family="Arial" font-size="12" text-anchor="end" color="#000"><tspan>pages+cached+noexternal</tspan></text><path stroke="#009E73" d="M537.8 482H580M62.2 432.6l5.6-3.4 5.6 3.4L79 34.9l5.5 394.3h5.6l5.6 1.7h5.6l5.6-394.2 5.6 3.4 5.5-6.9 5.6 1.7 5.6-1.7 5.6 3.5 5.6 395.9 5.6-259.9 5.5-6.9 5.6-137.7 5.6 17.2 5.6-13.8 5.6 8.6 5.6 385.6 5.5 5.2 5.6 1.7 5.6-1.7 5.6-1.7 5.6 3.4L213 38.4l5.5 120.5 5.6-115.4 5.6 387.4 5.6-399.4 5.6 397.7 5.6 1.7 5.6-397.7 5.5 397.7 5.6 3.4 5.6-5.1 5.6-392.5h5.6l5.6 1.7 5.5 395.9 5.6-399.4 5.6 396 5.6 5.1 5.6-3.4 5.6-272 5.5 273.7 5.6-392.5 5.6 390.8 5.6-397.7h5.6l5.6-1.7 5.5 6.9 5.6 387.3 5.6 8.6 5.6-6.8 5.6-266.9 5.6-127.4h5.5l5.6 397.7 5.6-399.4 5.6-5.1h5.6l5.6 15.4 5.5 124 5.6 259.9 5.6-395.9 5.6 5.2 5.6 397.6h5.6l5.6 1.7 5.5-3.4 5.6-395.9 5.6 394.2L481 41.8l5.6 387.4 5.6-394.3 5.5 397.7 5.6-397.7 5.6 394.3 5.6-263.4 5.6-130.9 5.6 401.1 5.5-8.6 5.6-385.6 5.6 124h5.6l5.6-129.1 5.6 395.9 5.5-399.4 5.6 401.1 5.6-397.6 5.6 1.7 5.6 129.1 5.6-130.8 5.5 392.5 5.6-392.5 5.6-1.8 5.6 394.3" fill="none" color="#000"/><g fill="none" color="#000" stroke="currentColor"><path stroke="#000" d="M62.2 18.1V446H615V18.1H62.2z"/></g></svg>