<svg width="640" height="500" xmlns="http://www.w3.org/2000/svg" xmlns:xlink="http://www.w3.org/1999/xlink"><path fill="#fff" d="M0 0h640v500H0z"/><defs><path id="d" stroke-width=".222" stroke="currentColor" d="M-1-1h2v2h-2z"/><path id="b" stroke-width=".222" stroke="currentColor" d="M0-1.33l-1.33 2h2.66z"/><path id="f" stroke-width=".222" stroke="currentColor" d="M0 1.33L1.265.411.782-1.067l-1.564-.009-.483 1.487z"/><use xlink:href="#b" id="c" stroke="currentColor" transform="rotate(180)"/><use xlink:href="#d" id="e" stroke="currentColor" transform="rotate(45)"/><circle id="a" stroke-width=".222" stroke="currentColor" cx="0" cy="0" r="1"/></defs><g fill="none" color="#000" stroke="currentColor"><path stroke="#000" d="M62.2 425.6h9m543.8 0h-9"/><text transform="translate(53.9 429.5)" stroke="none" fill="#000" font-family="Arial" font-size="12" text-anchor="end"><tspan>1500</tspan></text></g><g fill="none" color="#000" stroke="currentColor"><path stroke="#000" d="M62.2 371h9m543.8 0h-9"/><text transform="translate(53.9 374.9)" stroke="none" fill="#000" font-family="Arial" font-size="12" text-anchor="end"><tspan>1600</tspan></text></g><g fill="none" color="#000" stroke="currentColor"><path stroke="#000" d="M62.2 316.4h9m543.8 0h-9"/><text transform="translate(53.9 320.3)" stroke="none" fill="#000" font-family="Arial" font-size="12" text-anchor="end"><tspan>1700</tspan></text></g><g fill="none" color="#000" stroke="currentColor"><path stroke="#000" d="M62.2 261.8h9m543.8 0h-9"/><text transform="translate(53.9 265.7)" stroke="none" fill="#000" font-family="Arial" font-size="12" text-anchor="end"><tspan>1800</tspan></text></g><g fill="none" color="#000" stroke="currentColor"><path stroke="#000" d="M62.2 207.2h9m543.8 0h-9"/><text transform="translate(53.9 211.1)" stroke="none" fill="#000" font-family="Arial" font-size="12" text-anchor="end"><tspan>1900</tspan></text></g><g fill="none" color="#000" stroke="currentColor"><path stroke="#000" d="M62.2 152.6h9m543.8 0h-9"/><text transform="translate(53.9 156.5)" stroke="none" fill="#000" font-family="Arial" font-size="12" text-anchor="end"><tspan>2000</tspan></text></g><g fill="none" color="#000" stroke="currentColor"><path stroke="#000" d="M62.2 98h9M615 98h-9"/><text transform="translate(53.9 101.9)" stroke="none" fill="#000" font-family="Arial" font-size="12" text-anchor="end"><tspan>2100</tspan></text></g><g fill="none" color="#000" stroke="currentColor"><path stroke="#000" d="M62.2 43.5h9m543.8 0h-9"/><text transform="translate(53.9 47.4)" stroke="none" fill="#000" font-family="Arial" font-size="12" text-anchor="end"><tspan>2200</tspan></text></g><g fill="none" color="#000" stroke="currentColor"><path stroke="#000" d="M62.2 428v-9m0-400.9v9"/><text transform="translate(62.2 449.9)" stroke="none" fill="#000" font-family="Arial" font-size="12" text-anchor="middle"><tspan>0</tspan></text></g><g fill="none" color="#000" stroke="currentColor"><path stroke="#000" d="M118 428v-9m0-400.9v9"/><text transform="translate(118 449.9)" stroke="none" fill="#000" font-family="Arial" font-size="12" text-anchor="middle"><tspan>10</tspan></text></g><g fill="none" color="#000" stroke="currentColor"><path stroke="#000" d="M173.9 428v-9m0-400.9v9"/><text transform="translate(173.9 449.9)" stroke="none" fill="#000" font-family="Arial" font-size="12" text-anchor="middle"><tspan>20</tspan></text></g><g fill="none" color="#000" stroke="currentColor"><path stroke="#000" d="M229.7 428v-9m0-400.9v9"/><text transform="translate(229.7 449.9)" stroke="none" fill="#000" font-family="Arial" font-size="12" text-anchor="middle"><tspan>30</tspan></text></g><g fill="none" color="#000" stroke="currentColor"><path stroke="#000" d="M285.6 428v-9m0-400.9v9"/><text transform="translate(285.6 449.9)" stroke="none" fill="#000" font-family="Arial" font-size="12" text-anchor="middle"><tspan>40</tspan></text></g><g fill="none" color="#000" stroke="currentColor"><path stroke="#000" d="M341.4 428v-9m0-400.9v9"/><text transform="translate(341.4 449.9)" stroke="none" fill="#000" font-family="Arial" font-size="12" text-anchor="middle"><tspan>50</tspan></text></g><g fill="none" color="#000" stroke="currentColor"><path stroke="#000" d="M397.2 428v-9m0-400.9v9"/><text transform="translate(397.2 449.9)" stroke="none" fill="#000" font-family="Arial" font-size="12" text-anchor="middle"><tspan>60</tspan></text></g><g fill="none" color="#000" stroke="currentColor"><path stroke="#000" d="M453.1 428v-9m0-400.9v9"/><text transform="translate(453.1 449.9)" stroke="none" fill="#000" font-family="Arial" font-size="12" text-anchor="middle"><tspan>70</tspan></text></g><g fill="none" color="#000" stroke="currentColor"><path stroke="#000" d="M508.9 428v-9m0-400.9v9"/><text transform="translate(508.9 449.9)" stroke="none" fill="#000" font-family="Arial" font-size="12" text-anchor="middle"><tspan>80</tspan></text></g><g fill="none" color="#000" stroke="currentColor"><path stroke="#000" d="M564.7 428v-9m0-400.9v9"/><text transform="translate(564.7 449.9)" stroke="none" fill="#000" font-family="Arial" font-size="12" text-anchor="middle"><tspan>90</tspan></text></g><path stroke="#000" d="M62.2 18.1V428H615V18.1H62.2z" fill="none" color="#000"/><text transform="translate(437.8 467.9)" stroke="none" fill="#000" font-family="Arial" font-size="12" text-anchor="end" color="#000"><tspan>pages+cached+noexternal+nofonts</tspan></text><path stroke="#9400D3" d="M446.1 464h42.2M62.2 418.5h11.2L79 253.1l5.5.5L90.1 419l5.6.6 5.6-206.9 5.6 206.3 5.6-336.2 5.5 170.8 5.6 165.4 5.6.6 5.6-.6H146l5.5-.5 5.6.5h5.6l5.6-330.8 5.6 330.8 5.6-1.1 5.5-.5 5.6-205.8 5.6 207.4 5.6.6h5.6l5.6-.6h11.1l5.6-335.7 5.6 2.7 5.6 333.6 5.6-166.5 5.6-167.6 5.5-1.1 5.6 334.6h5.6l5.6-1.1 5.6.6 5.6-335.2 5.5 335.2 5.6-331.4 5.6 331.9 5.6-.5 5.6-164.3 5.6 164.8 5.5-210.7 5.6 210.7 5.6-332.4 5.6-1.1L347 419h11.1l5.6-330.2 5.6 123.3 5.6 42.1 5.6-166.5 5.6 330.8 5.5.5 5.6.6 5.6-.6 5.6-.5L414 84.4l5.6 334.6 5.5-331.9 5.6-.5 5.6 331.9 5.6-335.7 5.6 336.2h16.7l5.6 1.1 5.6-332.4 5.6 330.8 5.6-330.8 5.6 331.9 5.5-166.5h5.6l5.6 165.4 5.6 1.1h5.6l5.6-.6 5.5-.5h5.6l5.6-330.8L548 419h5.6l5.6-334.1 5.5 334.1 5.6-.5h11.2l5.6-208.6 5.6 209.1 5.5-165.9 5.6 166.5 5.6-1.1h5.6" fill="none" color="#000"/><text transform="translate(437.8 485.9)" stroke="none" fill="#000" font-family="Arial" font-size="12" text-anchor="end" color="#000"><tspan>pages+cached+noexternal+nosvg</tspan></text><path stroke="#009E73" d="M446.1 482h42.2M62.2 253.1h5.6l5.6-2.2L79 252l5.5.5 5.6.6 5.6-3.3h5.6l5.6 1.6 5.6-.5h5.5L123.6 26l5.6 97.7 5.6 129.4 5.6-2.8h5.6l5.5 2.2h5.6l5.6-1.1 5.6-122.8 5.6 122.3 5.6 1.1h5.5l5.6-1.1 5.6 1.1 5.6-.6 5.6-.5 5.6.5 5.5 1.1h5.6l5.6-1.6h11.2l5.6 2.2 5.6-2.2 5.5-124.5 5.6.6 5.6 123.3 5.6 1.1h5.6l5.6-.5 5.5 1.1 5.6-.6 5.6-1.6 5.6.5 5.6 1.7 5.6.5 5.5-1.1 5.6-.5 5.6-1.6 5.6-122.9 5.6 124.5 5.6 1.1 5.5-1.1 5.6.5 5.6 2.2 5.6-2.2 5.6-2.1 5.6 2.1 5.5 1.1 5.6-3.8 5.6 3.8 5.6-1.1 5.6 1.1 5.6-.5h5.5l5.6.5 5.6-127.7 5.6 127.2h5.6l5.6.5 5.6.6 5.5-1.7 5.6-1.1 5.6 1.1h5.6l5.6 1.7 5.6-2.2 5.5-1.1 5.6 2.2 5.6-1.1 5.6 1.6 5.6.6 5.6-.6 5.5-1.1h5.6l5.6-1.1 5.6.6h11.2l5.5 2.2 5.6-.6 5.6-1.1 5.6 1.1 5.6-2.7 5.6 1.1 5.5 1.6 5.6-.5 5.6-.6 5.6-.5" fill="none" color="#000"/><g fill="none" color="#000" stroke="currentColor"><path stroke="#000" d="M62.2 18.1V428H615V18.1H62.2z"/></g></svg>