<svg width="640" height="500" xmlns="http://www.w3.org/2000/svg" xmlns:xlink="http://www.w3.org/1999/xlink"><path fill="#fff" d="M0 0h640v500H0z"/><defs><path id="d" stroke-width=".222" stroke="currentColor" d="M-1-1h2v2h-2z"/><path id="b" stroke-width=".222" stroke="currentColor" d="M0-1.33l-1.33 2h2.66z"/><path id="f" stroke-width=".222" stroke="currentColor" d="M0 1.33L1.265.411.782-1.067l-1.564-.009-.483 1.487z"/><use xlink:href="#b" id="c" stroke="currentColor" transform="rotate(180)"/><use xlink:href="#d" id="e" stroke="currentColor" transform="rotate(45)"/><circle id="a" stroke-width=".222" stroke="currentColor" cx="0" cy="0" r="1"/></defs><g fill="none" color="#000" stroke="currentColor"><path stroke="#000" d="M62.2 403.2h9m543.8 0h-9"/><text transform="translate(53.9 407.1)" stroke="none" fill="#000" font-family="Arial" font-size="12" text-anchor="end"><tspan>1850</tspan></text></g><g fill="none" color="#000" stroke="currentColor"><path stroke="#000" d="M62.2 353.9h9m543.8 0h-9"/><text transform="translate(53.9 357.8)" stroke="none" fill="#000" font-family="Arial" font-size="12" text-anchor="end"><tspan>1900</tspan></text></g><g fill="none" color="#000" stroke="currentColor"><path stroke="#000" d="M62.2 304.6h9m543.8 0h-9"/><text transform="translate(53.9 308.5)" stroke="none" fill="#000" font-family="Arial" font-size="12" text-anchor="end"><tspan>1950</tspan></text></g><g fill="none" color="#000" stroke="currentColor"><path stroke="#000" d="M62.2 255.2h9m543.8 0h-9"/><text transform="translate(53.9 259.1)" stroke="none" fill="#000" font-family="Arial" font-size="12" text-anchor="end"><tspan>2000</tspan></text></g><g fill="none" color="#000" stroke="currentColor"><path stroke="#000" d="M62.2 205.9h9m543.8 0h-9"/><text transform="translate(53.9 209.8)" stroke="none" fill="#000" font-family="Arial" font-size="12" text-anchor="end"><tspan>2050</tspan></text></g><g fill="none" color="#000" stroke="currentColor"><path stroke="#000" d="M62.2 156.6h9m543.8 0h-9"/><text transform="translate(53.9 160.5)" stroke="none" fill="#000" font-family="Arial" font-size="12" text-anchor="end"><tspan>2100</tspan></text></g><g fill="none" color="#000" stroke="currentColor"><path stroke="#000" d="M62.2 107.2h9m543.8 0h-9"/><text transform="translate(53.9 111.1)" stroke="none" fill="#000" font-family="Arial" font-size="12" text-anchor="end"><tspan>2150</tspan></text></g><g fill="none" color="#000" stroke="currentColor"><path stroke="#000" d="M62.2 57.9h9m543.8 0h-9"/><text transform="translate(53.9 61.8)" stroke="none" fill="#000" font-family="Arial" font-size="12" text-anchor="end"><tspan>2200</tspan></text></g><g fill="none" color="#000" stroke="currentColor"><path stroke="#000" d="M62.2 446v-9m0-418.9v9"/><text transform="translate(62.2 467.9)" stroke="none" fill="#000" font-family="Arial" font-size="12" text-anchor="middle"><tspan>0</tspan></text></g><g fill="none" color="#000" stroke="currentColor"><path stroke="#000" d="M118 446v-9m0-418.9v9"/><text transform="translate(118 467.9)" stroke="none" fill="#000" font-family="Arial" font-size="12" text-anchor="middle"><tspan>10</tspan></text></g><g fill="none" color="#000" stroke="currentColor"><path stroke="#000" d="M173.9 446v-9m0-418.9v9"/><text transform="translate(173.9 467.9)" stroke="none" fill="#000" font-family="Arial" font-size="12" text-anchor="middle"><tspan>20</tspan></text></g><g fill="none" color="#000" stroke="currentColor"><path stroke="#000" d="M229.7 446v-9m0-418.9v9"/><text transform="translate(229.7 467.9)" stroke="none" fill="#000" font-family="Arial" font-size="12" text-anchor="middle"><tspan>30</tspan></text></g><g fill="none" color="#000" stroke="currentColor"><path stroke="#000" d="M285.6 446v-9m0-418.9v9"/><text transform="translate(285.6 467.9)" stroke="none" fill="#000" font-family="Arial" font-size="12" text-anchor="middle"><tspan>40</tspan></text></g><g fill="none" color="#000" stroke="currentColor"><path stroke="#000" d="M341.4 446v-9m0-418.9v9"/><text transform="translate(341.4 467.9)" stroke="none" fill="#000" font-family="Arial" font-size="12" text-anchor="middle"><tspan>50</tspan></text></g><g fill="none" color="#000" stroke="currentColor"><path stroke="#000" d="M397.2 446v-9m0-418.9v9"/><text transform="translate(397.2 467.9)" stroke="none" fill="#000" font-family="Arial" font-size="12" text-anchor="middle"><tspan>60</tspan></text></g><g fill="none" color="#000" stroke="currentColor"><path stroke="#000" d="M453.1 446v-9m0-418.9v9"/><text transform="translate(453.1 467.9)" stroke="none" fill="#000" font-family="Arial" font-size="12" text-anchor="middle"><tspan>70</tspan></text></g><g fill="none" color="#000" stroke="currentColor"><path stroke="#000" d="M508.9 446v-9m0-418.9v9"/><text transform="translate(508.9 467.9)" stroke="none" fill="#000" font-family="Arial" font-size="12" text-anchor="middle"><tspan>80</tspan></text></g><g fill="none" color="#000" stroke="currentColor"><path stroke="#000" d="M564.7 446v-9m0-418.9v9"/><text transform="translate(564.7 467.9)" stroke="none" fill="#000" font-family="Arial" font-size="12" text-anchor="middle"><tspan>90</tspan></text></g><path stroke="#000" d="M62.2 18.1V446H615V18.1H62.2z" fill="none" color="#000"/><text transform="translate(279.8 485.9)" stroke="none" fill="#000" font-family="Arial" font-size="12" text-anchor="end" color="#000"><tspan>pages+cached+noexternal+nosvg</tspan></text><path stroke="#9400D3" d="M288.1 482h42.2M62.2 436.8h5.6l5.6-4 5.6 2 5.5 1 5.6 1 5.6-5.9h5.6l5.6 2.9 5.6-1h5.5l5.6-406.5 5.6 176.6 5.6 233.9 5.6-4.9h5.6l5.5 3.9h5.6l5.6-2 5.6-222 5.6 221 5.6 2h5.5l5.6-2 5.6 2 5.6-1 5.6-1 5.6 1 5.5 2h5.6l5.6-3h11.2l5.6 4 5.6-4 5.5-224.9 5.6 1 5.6 223 5.6 1.9h5.6l5.6-1 5.5 2 5.6-1 5.6-2.9 5.6 1 5.6 2.9 5.6 1 5.5-2 5.6-1 5.6-2.9 5.6-222 5.6 224.9 5.6 2 5.5-2 5.6 1 5.6 4 5.6-4 5.6-3.9 5.6 3.9 5.5 2 5.6-6.9 5.6 6.9 5.6-2 5.6 2 5.6-1h5.5l5.6 1 5.6-230.9 5.6 229.9h5.6l5.6 1 5.6 1 5.5-3 5.6-1.9 5.6 1.9h5.6l5.6 3 5.6-4 5.5-1.9 5.6 3.9 5.6-2 5.6 3 5.6 1 5.6-1 5.5-2h5.6l5.6-1.9 5.6.9h11.2l5.5 4 5.6-1 5.6-2 5.6 2 5.6-4.9 5.6 1.9 5.5 3 5.6-1 5.6-1 5.6-1" fill="none" color="#000"/><text transform="translate(579.3 485.9)" stroke="none" fill="#000" font-family="Arial" font-size="12" text-anchor="end" color="#000"><tspan>pages+cached+noexternal+noimg</tspan></text><path stroke="#009E73" d="M587.6 482h42.2M62.2 434.8l5.6 1 5.6-2 5.6 1 5.5-223 5.6-2 5.6-1.9 5.6 228.9 5.6-227H118l5.6 225 5.6-153.9 5.6-71.1 5.6 224 5.6-225.9 5.5 1 5.6 74 5.6-74h5.6l5.6 225.9 5.6-227.9 5.5 228.9 5.6-226.9 5.6 227.9 5.6-227.9 5.6 74 5.6-70.1 5.5-4.9 5.6 2.9 5.6 1 5.6-6.9 5.6 232.9 5.6-156.9 5.6-66.1 5.5 219 5.6-227.9 5.6 78.9 5.6-75 5.6-1.9 5.6 226.9 5.5-2.9 5.6 1.9 5.6-223 5.6 75 5.6 149 5.6-150 5.5-75h5.6l5.6 224 5.6-221 5.6 223 5.6-152.9 5.5-76 5.6 230.9 5.6-228 5.6 2 5.6-2.9 5.6 226.9 5.5-151.9 5.6-74.1 5.6-1.9 5.6 228.9 5.6-2 5.6-226.9 5.5 227.9 5.6-149 5.6-75 5.6 223 5.6-227.9 5.6 77 5.6-72.1 5.5 225 5.6-2 5.6-224 5.6 227 5.6-224 5.6-4.9 5.5 73 5.6 154.9 5.6-153.9 5.6-74 5.6 225.9 5.6-150 5.5 151 5.6 2 5.6-230.9 5.6 2.9 5.6 224 5.6 1 5.5-223 5.6-2 5.6 224 5.6-225.9 5.6 1 5.6-1 5.5 227.9 5.6-226.9 5.6 78.9 5.6-78" fill="none" color="#000"/><g fill="none" color="#000" stroke="currentColor"><path stroke="#000" d="M62.2 18.1V446H615V18.1H62.2z"/></g></svg>