<svg width="640" height="500" xmlns="http://www.w3.org/2000/svg" xmlns:xlink="http://www.w3.org/1999/xlink"><path fill="#fff" d="M0 0h640v500H0z"/><defs><path id="d" stroke-width=".222" stroke="currentColor" d="M-1-1h2v2h-2z"/><path id="b" stroke-width=".222" stroke="currentColor" d="M0-1.33l-1.33 2h2.66z"/><path id="f" stroke-width=".222" stroke="currentColor" d="M0 1.33L1.265.411.782-1.067l-1.564-.009-.483 1.487z"/><use xlink:href="#b" id="c" stroke="currentColor" transform="rotate(180)"/><use xlink:href="#d" id="e" stroke="currentColor" transform="rotate(45)"/><circle id="a" stroke-width=".222" stroke="currentColor" cx="0" cy="0" r="1"/></defs><g fill="none" color="#000" stroke="currentColor"><path stroke="#000" d="M62.2 399.5h9m543.8 0h-9"/><text transform="translate(53.9 403.4)" stroke="none" fill="#000" font-family="Arial" font-size="12" text-anchor="end"><tspan>1700</tspan></text></g><g fill="none" color="#000" stroke="currentColor"><path stroke="#000" d="M62.2 346.3h9m543.8 0h-9"/><text transform="translate(53.9 350.2)" stroke="none" fill="#000" font-family="Arial" font-size="12" text-anchor="end"><tspan>1750</tspan></text></g><g fill="none" color="#000" stroke="currentColor"><path stroke="#000" d="M62.2 293.2h9m543.8 0h-9"/><text transform="translate(53.9 297.1)" stroke="none" fill="#000" font-family="Arial" font-size="12" text-anchor="end"><tspan>1800</tspan></text></g><g fill="none" color="#000" stroke="currentColor"><path stroke="#000" d="M62.2 240h9m543.8 0h-9"/><text transform="translate(53.9 243.9)" stroke="none" fill="#000" font-family="Arial" font-size="12" text-anchor="end"><tspan>1850</tspan></text></g><g fill="none" color="#000" stroke="currentColor"><path stroke="#000" d="M62.2 186.9h9m543.8 0h-9"/><text transform="translate(53.9 190.8)" stroke="none" fill="#000" font-family="Arial" font-size="12" text-anchor="end"><tspan>1900</tspan></text></g><g fill="none" color="#000" stroke="currentColor"><path stroke="#000" d="M62.2 133.7h9m543.8 0h-9"/><text transform="translate(53.9 137.6)" stroke="none" fill="#000" font-family="Arial" font-size="12" text-anchor="end"><tspan>1950</tspan></text></g><g fill="none" color="#000" stroke="currentColor"><path stroke="#000" d="M62.2 80.5h9m543.8 0h-9"/><text transform="translate(53.9 84.4)" stroke="none" fill="#000" font-family="Arial" font-size="12" text-anchor="end"><tspan>2000</tspan></text></g><g fill="none" color="#000" stroke="currentColor"><path stroke="#000" d="M62.2 27.4h9m543.8 0h-9"/><text transform="translate(53.9 31.3)" stroke="none" fill="#000" font-family="Arial" font-size="12" text-anchor="end"><tspan>2050</tspan></text></g><g fill="none" color="#000" stroke="currentColor"><path stroke="#000" d="M62.2 446v-9m0-418.9v9"/><text transform="translate(62.2 467.9)" stroke="none" fill="#000" font-family="Arial" font-size="12" text-anchor="middle"><tspan>0</tspan></text></g><g fill="none" color="#000" stroke="currentColor"><path stroke="#000" d="M118 446v-9m0-418.9v9"/><text transform="translate(118 467.9)" stroke="none" fill="#000" font-family="Arial" font-size="12" text-anchor="middle"><tspan>10</tspan></text></g><g fill="none" color="#000" stroke="currentColor"><path stroke="#000" d="M173.9 446v-9m0-418.9v9"/><text transform="translate(173.9 467.9)" stroke="none" fill="#000" font-family="Arial" font-size="12" text-anchor="middle"><tspan>20</tspan></text></g><g fill="none" color="#000" stroke="currentColor"><path stroke="#000" d="M229.7 446v-9m0-418.9v9"/><text transform="translate(229.7 467.9)" stroke="none" fill="#000" font-family="Arial" font-size="12" text-anchor="middle"><tspan>30</tspan></text></g><g fill="none" color="#000" stroke="currentColor"><path stroke="#000" d="M285.6 446v-9m0-418.9v9"/><text transform="translate(285.6 467.9)" stroke="none" fill="#000" font-family="Arial" font-size="12" text-anchor="middle"><tspan>40</tspan></text></g><g fill="none" color="#000" stroke="currentColor"><path stroke="#000" d="M341.4 446v-9m0-418.9v9"/><text transform="translate(341.4 467.9)" stroke="none" fill="#000" font-family="Arial" font-size="12" text-anchor="middle"><tspan>50</tspan></text></g><g fill="none" color="#000" stroke="currentColor"><path stroke="#000" d="M397.2 446v-9m0-418.9v9"/><text transform="translate(397.2 467.9)" stroke="none" fill="#000" font-family="Arial" font-size="12" text-anchor="middle"><tspan>60</tspan></text></g><g fill="none" color="#000" stroke="currentColor"><path stroke="#000" d="M453.1 446v-9m0-418.9v9"/><text transform="translate(453.1 467.9)" stroke="none" fill="#000" font-family="Arial" font-size="12" text-anchor="middle"><tspan>70</tspan></text></g><g fill="none" color="#000" stroke="currentColor"><path stroke="#000" d="M508.9 446v-9m0-418.9v9"/><text transform="translate(508.9 467.9)" stroke="none" fill="#000" font-family="Arial" font-size="12" text-anchor="middle"><tspan>80</tspan></text></g><g fill="none" color="#000" stroke="currentColor"><path stroke="#000" d="M564.7 446v-9m0-418.9v9"/><text transform="translate(564.7 467.9)" stroke="none" fill="#000" font-family="Arial" font-size="12" text-anchor="middle"><tspan>90</tspan></text></g><path stroke="#000" d="M62.2 18.1V446H615V18.1H62.2z" fill="none" color="#000"/><text transform="translate(279.8 485.9)" stroke="none" fill="#000" font-family="Arial" font-size="12" text-anchor="end" color="#000"><tspan>pages+cached+noexternal+noimg</tspan></text><path stroke="#9400D3" d="M288.1 482h42.2M62.2 274l5.6 1.1 5.6-2.1 5.6 1 5.5-240.2 5.6-2.2 5.6-2.1 5.6 246.7 5.6-244.6H118l5.6 242.4 5.6-165.8 5.6-76.6 5.6 241.4L146 29.5l5.5 1.1 5.6 79.7 5.6-79.7h5.6l5.6 243.4 5.6-245.5 5.5 246.6 5.6-244.5 5.6 245.6 5.6-245.6 5.6 79.7 5.6-75.5 5.5-5.3 5.6 3.2 5.6 1.1 5.6-7.5 5.6 250.9 5.6-169 5.6-71.2 5.5 236 5.6-245.6 5.6 85 5.6-80.8 5.6-2.1 5.6 244.5 5.5-3.1 5.6 2.1 5.6-240.3 5.6 80.8 5.6 160.5 5.6-161.6 5.5-80.8h5.6l5.6 241.4 5.6-238.2 5.6 240.3 5.6-164.8 5.5-81.8 5.6 248.7 5.6-245.6 5.6 2.2 5.6-3.2 5.6 244.5 5.5-163.7 5.6-79.8 5.6-2.1 5.6 246.7 5.6-2.2 5.6-244.5 5.5 245.6 5.6-160.5 5.6-80.8 5.6 240.2 5.6-245.5 5.6 82.9 5.6-77.6 5.5 242.4 5.6-2.2 5.6-241.3 5.6 244.5 5.6-241.3 5.6-5.3 5.5 78.7 5.6 166.9 5.6-165.9 5.6-79.7 5.6 243.4 5.6-161.6 5.5 162.7 5.6 2.1 5.6-248.7 5.6 3.1 5.6 241.4 5.6 1 5.5-240.2 5.6-2.2 5.6 241.4 5.6-243.5 5.6 1.1 5.6-1.1 5.5 245.6 5.6-244.5 5.6 85 5.6-84" fill="none" color="#000"/><text transform="translate(579.3 485.9)" stroke="none" fill="#000" font-family="Arial" font-size="12" text-anchor="end" color="#000"><tspan>pages+cached+noexternal+nocss</tspan></text><path stroke="#009E73" d="M587.6 482h42.2M62.2 433.5l5.6 1.1 5.6-1.1 5.6 2.1 5.5-4.2 5.6 1.1 5.6 2.1 5.6 2.1 5.6-3.2h5.6l5.5-1 5.6 1 5.6-1 5.6 1 5.6-1 5.6 1h5.5l5.6 1.1 5.6-1.1 5.6-4.2 5.6 2.1 5.6 3.2 5.5-3.2 5.6 1.1 5.6 3.1h5.6l5.6-3.1 5.6-4.3 5.5 6.4 5.6-2.1 5.6-1.1 5.6 1.1 5.6 1h5.6l5.6-1 5.5-4.3 5.6 5.3h5.6l5.6-1 5.6 4.2h5.6l5.5-3.2 5.6 4.3 5.6-4.3 5.6 1.1 5.6 1h5.6l5.5-1 5.6-5.3 5.6 6.3 5.6-1 5.6-1.1h5.6l5.5-1 5.6-1.1h5.6l5.6 5.3 5.6-3.2 5.6 1.1h5.5l5.6 1 5.6-1 5.6 1 5.6-3.1h5.6l5.5 1 5.6-3.2 5.6 2.2h11.2l5.6 5.3 5.6-5.3 5.5 1 5.6-1h5.6l5.6 1 5.6-2.1h5.6l5.5 1.1h5.6l5.6 3.1 5.6-4.2 5.6 2.1 5.6-1 5.5 1 5.6 3.2 5.6-4.2 5.6 1 5.6-2.1 5.6 4.2 5.5-1 5.6-1.1h5.6l5.6 2.1 5.6-1 5.6-1.1 5.5-1H615" fill="none" color="#000"/><g fill="none" color="#000" stroke="currentColor"><path stroke="#000" d="M62.2 18.1V446H615V18.1H62.2z"/></g></svg>