<svg width="640" height="500" xmlns="http://www.w3.org/2000/svg" xmlns:xlink="http://www.w3.org/1999/xlink"><path fill="#fff" d="M0 0h640v500H0z"/><defs><path id="d" stroke-width=".222" stroke="currentColor" d="M-1-1h2v2h-2z"/><path id="b" stroke-width=".222" stroke="currentColor" d="M0-1.33l-1.33 2h2.66z"/><path id="f" stroke-width=".222" stroke="currentColor" d="M0 1.33L1.265.411.782-1.067l-1.564-.009-.483 1.487z"/><use xlink:href="#b" id="c" stroke="currentColor" transform="rotate(180)"/><use xlink:href="#d" id="e" stroke="currentColor" transform="rotate(45)"/><circle id="a" stroke-width=".222" stroke="currentColor" cx="0" cy="0" r="1"/></defs><g fill="none" color="#000" stroke="currentColor"><path stroke="#000" d="M53.9 418.8h9m552.1 0h-9"/><text transform="translate(45.6 422.7)" stroke="none" fill="#000" font-family="Arial" font-size="12" text-anchor="end"><tspan>460</tspan></text></g><g fill="none" color="#000" stroke="currentColor"><path stroke="#000" d="M53.9 364.7h9m552.1 0h-9"/><text transform="translate(45.6 368.6)" stroke="none" fill="#000" font-family="Arial" font-size="12" text-anchor="end"><tspan>480</tspan></text></g><g fill="none" color="#000" stroke="currentColor"><path stroke="#000" d="M53.9 310.5h9m552.1 0h-9"/><text transform="translate(45.6 314.4)" stroke="none" fill="#000" font-family="Arial" font-size="12" text-anchor="end"><tspan>500</tspan></text></g><g fill="none" color="#000" stroke="currentColor"><path stroke="#000" d="M53.9 256.4h9m552.1 0h-9"/><text transform="translate(45.6 260.3)" stroke="none" fill="#000" font-family="Arial" font-size="12" text-anchor="end"><tspan>520</tspan></text></g><g fill="none" color="#000" stroke="currentColor"><path stroke="#000" d="M53.9 202.3h9m552.1 0h-9"/><text transform="translate(45.6 206.2)" stroke="none" fill="#000" font-family="Arial" font-size="12" text-anchor="end"><tspan>540</tspan></text></g><g fill="none" color="#000" stroke="currentColor"><path stroke="#000" d="M53.9 148.1h9m552.1 0h-9"/><text transform="translate(45.6 152)" stroke="none" fill="#000" font-family="Arial" font-size="12" text-anchor="end"><tspan>560</tspan></text></g><g fill="none" color="#000" stroke="currentColor"><path stroke="#000" d="M53.9 94h9M615 94h-9"/><text transform="translate(45.6 97.9)" stroke="none" fill="#000" font-family="Arial" font-size="12" text-anchor="end"><tspan>580</tspan></text></g><g fill="none" color="#000" stroke="currentColor"><path stroke="#000" d="M53.9 39.9h9m552.1 0h-9"/><text transform="translate(45.6 43.8)" stroke="none" fill="#000" font-family="Arial" font-size="12" text-anchor="end"><tspan>600</tspan></text></g><g fill="none" color="#000" stroke="currentColor"><path stroke="#000" d="M53.9 446v-9m0-418.9v9"/><text transform="translate(53.9 467.9)" stroke="none" fill="#000" font-family="Arial" font-size="12" text-anchor="middle"><tspan>0</tspan></text></g><g fill="none" color="#000" stroke="currentColor"><path stroke="#000" d="M110.6 446v-9m0-418.9v9"/><text transform="translate(110.6 467.9)" stroke="none" fill="#000" font-family="Arial" font-size="12" text-anchor="middle"><tspan>10</tspan></text></g><g fill="none" color="#000" stroke="currentColor"><path stroke="#000" d="M167.3 446v-9m0-418.9v9"/><text transform="translate(167.3 467.9)" stroke="none" fill="#000" font-family="Arial" font-size="12" text-anchor="middle"><tspan>20</tspan></text></g><g fill="none" color="#000" stroke="currentColor"><path stroke="#000" d="M223.9 446v-9m0-418.9v9"/><text transform="translate(223.9 467.9)" stroke="none" fill="#000" font-family="Arial" font-size="12" text-anchor="middle"><tspan>30</tspan></text></g><g fill="none" color="#000" stroke="currentColor"><path stroke="#000" d="M280.6 446v-9m0-418.9v9"/><text transform="translate(280.6 467.9)" stroke="none" fill="#000" font-family="Arial" font-size="12" text-anchor="middle"><tspan>40</tspan></text></g><g fill="none" color="#000" stroke="currentColor"><path stroke="#000" d="M337.3 446v-9m0-418.9v9"/><text transform="translate(337.3 467.9)" stroke="none" fill="#000" font-family="Arial" font-size="12" text-anchor="middle"><tspan>50</tspan></text></g><g fill="none" color="#000" stroke="currentColor"><path stroke="#000" d="M394 446v-9m0-418.9v9"/><text transform="translate(394 467.9)" stroke="none" fill="#000" font-family="Arial" font-size="12" text-anchor="middle"><tspan>60</tspan></text></g><g fill="none" color="#000" stroke="currentColor"><path stroke="#000" d="M450.6 446v-9m0-418.9v9"/><text transform="translate(450.6 467.9)" stroke="none" fill="#000" font-family="Arial" font-size="12" text-anchor="middle"><tspan>70</tspan></text></g><g fill="none" color="#000" stroke="currentColor"><path stroke="#000" d="M507.3 446v-9m0-418.9v9"/><text transform="translate(507.3 467.9)" stroke="none" fill="#000" font-family="Arial" font-size="12" text-anchor="middle"><tspan>80</tspan></text></g><g fill="none" color="#000" stroke="currentColor"><path stroke="#000" d="M564 446v-9m0-418.9v9"/><text transform="translate(564 467.9)" stroke="none" fill="#000" font-family="Arial" font-size="12" text-anchor="middle"><tspan>90</tspan></text></g><path stroke="#000" d="M53.9 18.1V446H615V18.1H53.9z" fill="none" color="#000"/><text transform="translate(275.6 485.9)" stroke="none" fill="#000" font-family="Arial" font-size="12" text-anchor="end" color="#000"><tspan>pages+cached+noexternal+nosvg</tspan></text><path stroke="#9400D3" d="M283.9 482h42.2M53.9 435.1h5.7l5.6-2.7 5.7 2.7h11.3l5.7-2.7h22.7l5.6-406.1 5.7 403.4 5.7 5.4 5.6-2.7h5.7l5.7 2.7h17l5.7-2.7h17l5.6 2.7 5.7-2.7h11.3l5.7 2.7h5.7l5.6-2.7h11.4l5.6 2.7 5.7-2.7h5.7l5.6 2.7 5.7-2.7H308.9l5.7 2.7 5.7-2.7h5.6l5.7-2.7 5.7 2.7H360l5.6 2.7 5.7-2.7 5.7-2.7 5.6 2.7 5.7 2.7 5.7-5.4 5.6 5.4 5.7-2.7 5.7 2.7h5.6l5.7-2.7 5.7 2.7 5.6-2.7 5.7 2.7h17l5.7-2.7h17l5.6 2.7 5.7-2.7h5.7l5.6 2.7 5.7-2.7 5.7 2.7h11.3l5.7-2.7H558.3l5.7 2.7h5.7l5.6-2.7 5.7 2.7 5.7-5.4 5.6 2.7 5.7 2.7 5.7-2.7H615" fill="none" color="#000"/><text transform="translate(575.1 485.9)" stroke="none" fill="#000" font-family="Arial" font-size="12" text-anchor="end" color="#000"><tspan>pages+cached+noexternal+noimg</tspan></text><path stroke="#009E73" d="M583.4 482h42.2M53.9 432.4l5.7 2.7 5.6-2.7h5.7l5.7 2.7h5.6l5.7-2.7 5.7 2.7h17l5.6-2.7h5.7l5.7 2.7 5.6-2.7h5.7l5.7 2.7h22.7l5.6-2.7 5.7 2.7H206.9l5.7-2.7 5.7 2.7h5.6l5.7-2.7 5.7 2.7 5.6-2.7 5.7 5.4 5.7-2.7 5.6-408.8 5.7 408.8h5.7l5.6-2.7h5.7l5.7-406.1 5.6 406.1 5.7 2.7L303.3 29l5.6 406.1h17l5.7-2.7 5.7 2.7h11.3l5.7-2.7 5.7 2.7h34l5.6-2.7 5.7 2.7h5.7l5.6-2.7 5.7 2.7 5.7 2.7 5.6-2.7 5.7-2.7h5.7l5.6 2.7H462l5.6-2.7 5.7 2.7h5.7l5.6 2.7 5.7-2.7 5.7-2.7 5.6 2.7 5.7-2.7 5.7 2.7h22.7l5.6-2.7 5.7 2.7 5.7-2.7 5.6 2.7h11.4l5.6-2.7h5.7l5.7 2.7 5.6-2.7 5.7 2.7L603.7 29l5.6 408.8 5.7-2.7" fill="none" color="#000"/><g fill="none" color="#000" stroke="currentColor"><path stroke="#000" d="M53.9 18.1V446H615V18.1H53.9z"/></g></svg>