<svg width="640" height="490" xmlns="http://www.w3.org/2000/svg" xmlns:xlink="http://www.w3.org/1999/xlink"><path fill="#fff" d="M0 0h640v490H0z"/><defs><path id="g" stroke-width=".222" stroke="currentColor" d="M-1 0h2M0-1v2"/><path id="d" stroke-width=".222" stroke="currentColor" d="M-1-1h2v2h-2z"/><path id="b" stroke-width=".222" stroke="currentColor" d="M0-1.33l-1.33 2h2.66z"/><path id="f" stroke-width=".222" stroke="currentColor" d="M0 1.33L1.265.411.782-1.067l-1.564-.009-.483 1.487z"/><use xlink:href="#b" id="c" stroke="currentColor" transform="rotate(180)"/><use xlink:href="#d" id="e" stroke="currentColor" transform="rotate(45)"/><circle id="a" stroke-width=".222" stroke="currentColor" cx="0" cy="0" r="1"/></defs><g fill="none" color="#000" stroke="currentColor"><path stroke="#000" d="M87.1 436h9m518.9 0h-9"/><text transform="translate(78.8 439.9)" stroke="none" fill="#000" font-family="Arial" font-size="12" text-anchor="end"><tspan>90.999</tspan></text></g><g fill="none" color="#000" stroke="currentColor"><path stroke="#000" d="M87.1 331.5h9m518.9 0h-9"/><text transform="translate(78.8 335.4)" stroke="none" fill="#000" font-family="Arial" font-size="12" text-anchor="end"><tspan>90.9995</tspan></text></g><g fill="none" color="#000" stroke="currentColor"><path stroke="#000" d="M87.1 227h9m518.9 0h-9"/><text transform="translate(78.8 230.9)" stroke="none" fill="#000" font-family="Arial" font-size="12" text-anchor="end"><tspan>91</tspan></text></g><g fill="none" color="#000" stroke="currentColor"><path stroke="#000" d="M87.1 122.6h9m518.9 0h-9"/><text transform="translate(78.8 126.5)" stroke="none" fill="#000" font-family="Arial" font-size="12" text-anchor="end"><tspan>91.0005</tspan></text></g><g fill="none" color="#000" stroke="currentColor"><path stroke="#000" d="M87.1 18.1h9m518.9 0h-9"/><text transform="translate(78.8 22)" stroke="none" fill="#000" font-family="Arial" font-size="12" text-anchor="end"><tspan>91.001</tspan></text></g><g fill="none" color="#000" stroke="currentColor"><path stroke="#000" d="M87.1 436v-9m0-408.9v9"/><text transform="translate(87.1 457.9)" stroke="none" fill="#000" font-family="Arial" font-size="12" text-anchor="middle"><tspan>0</tspan></text></g><g fill="none" color="#000" stroke="currentColor"><path stroke="#000" d="M168.3 436v-9m0-408.9v9"/><text transform="translate(168.3 457.9)" stroke="none" fill="#000" font-family="Arial" font-size="12" text-anchor="middle"><tspan>2</tspan></text></g><g fill="none" color="#000" stroke="currentColor"><path stroke="#000" d="M249.5 436v-9m0-408.9v9"/><text transform="translate(249.5 457.9)" stroke="none" fill="#000" font-family="Arial" font-size="12" text-anchor="middle"><tspan>4</tspan></text></g><g fill="none" color="#000" stroke="currentColor"><path stroke="#000" d="M330.7 436v-9m0-408.9v9"/><text transform="translate(330.7 457.9)" stroke="none" fill="#000" font-family="Arial" font-size="12" text-anchor="middle"><tspan>6</tspan></text></g><g fill="none" color="#000" stroke="currentColor"><path stroke="#000" d="M412 436v-9m0-408.9v9"/><text transform="translate(412 457.9)" stroke="none" fill="#000" font-family="Arial" font-size="12" text-anchor="middle"><tspan>8</tspan></text></g><g fill="none" color="#000" stroke="currentColor"><path stroke="#000" d="M493.2 436v-9m0-408.9v9"/><text transform="translate(493.2 457.9)" stroke="none" fill="#000" font-family="Arial" font-size="12" text-anchor="middle"><tspan>10</tspan></text></g><g fill="none" color="#000" stroke="currentColor"><path stroke="#000" d="M574.4 436v-9m0-408.9v9"/><text transform="translate(574.4 457.9)" stroke="none" fill="#000" font-family="Arial" font-size="12" text-anchor="middle"><tspan>12</tspan></text></g><path stroke="#000" d="M87.1 18.1V436H615V18.1H87.1z" fill="none" color="#000"/><text transform="translate(392.2 475.9)" stroke="none" fill="#000" font-family="Arial" font-size="12" text-anchor="end" color="#000"><tspan>p90discretization</tspan></text><g fill="none" color="#000" stroke="currentColor"><path stroke="#9400D3" d="M400.5 472h42.2M87.1 227H615"/><use xlink:href="#g" transform="matrix(4.5 0 0 4.5 87.1 227)" color="#9400D3"/><use xlink:href="#g" transform="matrix(4.5 0 0 4.5 127.7 227)" color="#9400D3"/><use xlink:href="#g" transform="matrix(4.5 0 0 4.5 168.3 227)" color="#9400D3"/><use xlink:href="#g" transform="matrix(4.5 0 0 4.5 208.9 227)" color="#9400D3"/><use xlink:href="#g" transform="matrix(4.5 0 0 4.5 249.5 227)" color="#9400D3"/><use xlink:href="#g" transform="matrix(4.5 0 0 4.5 290.1 227)" color="#9400D3"/><use xlink:href="#g" transform="matrix(4.5 0 0 4.5 330.7 227)" color="#9400D3"/><use xlink:href="#g" transform="matrix(4.5 0 0 4.5 371.4 227)" color="#9400D3"/><use xlink:href="#g" transform="matrix(4.5 0 0 4.5 412 227)" color="#9400D3"/><use xlink:href="#g" transform="matrix(4.5 0 0 4.5 452.6 227)" color="#9400D3"/><use xlink:href="#g" transform="matrix(4.5 0 0 4.5 493.2 227)" color="#9400D3"/><use xlink:href="#g" transform="matrix(4.5 0 0 4.5 533.8 227)" color="#9400D3"/><use xlink:href="#g" transform="matrix(4.5 0 0 4.5 574.4 227)" color="#9400D3"/><use xlink:href="#g" transform="matrix(4.5 0 0 4.5 615 227)" color="#9400D3"/><use xlink:href="#g" transform="matrix(4.5 0 0 4.5 421.6 472)" color="#9400D3"/></g><g fill="none" color="#000" stroke="currentColor"><path stroke="#000" d="M87.1 18.1V436H615V18.1H87.1z"/></g></svg>