<svg width="640" height="490" xmlns="http://www.w3.org/2000/svg" xmlns:xlink="http://www.w3.org/1999/xlink"><path fill="#fff" d="M0 0h640v490H0z"/><defs><path id="d" stroke-width=".222" stroke="currentColor" d="M-1-1h2v2h-2z"/><path id="b" stroke-width=".222" stroke="currentColor" d="M0-1.33l-1.33 2h2.66z"/><path id="f" stroke-width=".222" stroke="currentColor" d="M0 1.33L1.265.411.782-1.067l-1.564-.009-.483 1.487z"/><use xlink:href="#b" id="c" stroke="currentColor" transform="rotate(180)"/><use xlink:href="#d" id="e" stroke="currentColor" transform="rotate(45)"/><circle id="a" stroke-width=".222" stroke="currentColor" cx="0" cy="0" r="1"/></defs><g fill="none" color="#000" stroke="currentColor"><path stroke="#000" d="M53.9 430.9h9m552.1 0h-9"/><text transform="translate(45.6 434.8)" stroke="none" fill="#000" font-family="Arial" font-size="12" text-anchor="end"><tspan>80</tspan></text></g><g fill="none" color="#000" stroke="currentColor"><path stroke="#000" d="M53.9 342.6h9m552.1 0h-9"/><text transform="translate(45.6 346.5)" stroke="none" fill="#000" font-family="Arial" font-size="12" text-anchor="end"><tspan>85</tspan></text></g><g fill="none" color="#000" stroke="currentColor"><path stroke="#000" d="M53.9 254.3h9m552.1 0h-9"/><text transform="translate(45.6 258.2)" stroke="none" fill="#000" font-family="Arial" font-size="12" text-anchor="end"><tspan>90</tspan></text></g><g fill="none" color="#000" stroke="currentColor"><path stroke="#000" d="M53.9 166h9m552.1 0h-9"/><text transform="translate(45.6 169.9)" stroke="none" fill="#000" font-family="Arial" font-size="12" text-anchor="end"><tspan>95</tspan></text></g><g fill="none" color="#000" stroke="currentColor"><path stroke="#000" d="M53.9 77.8h9m552.1 0h-9"/><text transform="translate(45.6 81.7)" stroke="none" fill="#000" font-family="Arial" font-size="12" text-anchor="end"><tspan>100</tspan></text></g><g fill="none" color="#000" stroke="currentColor"><path stroke="#000" d="M53.9 436v-9m0-408.9v9"/><text transform="translate(53.9 457.9)" stroke="none" fill="#000" font-family="Arial" font-size="12" text-anchor="middle"><tspan>0</tspan></text></g><g fill="none" color="#000" stroke="currentColor"><path stroke="#000" d="M110.6 436v-9m0-408.9v9"/><text transform="translate(110.6 457.9)" stroke="none" fill="#000" font-family="Arial" font-size="12" text-anchor="middle"><tspan>10</tspan></text></g><g fill="none" color="#000" stroke="currentColor"><path stroke="#000" d="M167.3 436v-9m0-408.9v9"/><text transform="translate(167.3 457.9)" stroke="none" fill="#000" font-family="Arial" font-size="12" text-anchor="middle"><tspan>20</tspan></text></g><g fill="none" color="#000" stroke="currentColor"><path stroke="#000" d="M223.9 436v-9m0-408.9v9"/><text transform="translate(223.9 457.9)" stroke="none" fill="#000" font-family="Arial" font-size="12" text-anchor="middle"><tspan>30</tspan></text></g><g fill="none" color="#000" stroke="currentColor"><path stroke="#000" d="M280.6 436v-9m0-408.9v9"/><text transform="translate(280.6 457.9)" stroke="none" fill="#000" font-family="Arial" font-size="12" text-anchor="middle"><tspan>40</tspan></text></g><g fill="none" color="#000" stroke="currentColor"><path stroke="#000" d="M337.3 436v-9m0-408.9v9"/><text transform="translate(337.3 457.9)" stroke="none" fill="#000" font-family="Arial" font-size="12" text-anchor="middle"><tspan>50</tspan></text></g><g fill="none" color="#000" stroke="currentColor"><path stroke="#000" d="M394 436v-9m0-408.9v9"/><text transform="translate(394 457.9)" stroke="none" fill="#000" font-family="Arial" font-size="12" text-anchor="middle"><tspan>60</tspan></text></g><g fill="none" color="#000" stroke="currentColor"><path stroke="#000" d="M450.6 436v-9m0-408.9v9"/><text transform="translate(450.6 457.9)" stroke="none" fill="#000" font-family="Arial" font-size="12" text-anchor="middle"><tspan>70</tspan></text></g><g fill="none" color="#000" stroke="currentColor"><path stroke="#000" d="M507.3 436v-9m0-408.9v9"/><text transform="translate(507.3 457.9)" stroke="none" fill="#000" font-family="Arial" font-size="12" text-anchor="middle"><tspan>80</tspan></text></g><g fill="none" color="#000" stroke="currentColor"><path stroke="#000" d="M564 436v-9m0-408.9v9"/><text transform="translate(564 457.9)" stroke="none" fill="#000" font-family="Arial" font-size="12" text-anchor="middle"><tspan>90</tspan></text></g><path stroke="#000" d="M53.9 18.1V436H615V18.1H53.9z" fill="none" color="#000"/><text transform="translate(175.7 475.9)" stroke="none" fill="#000" font-family="Arial" font-size="12" text-anchor="end" color="#000"><tspan>raw</tspan></text><path stroke="#9400D3" d="M184 472h42.2M53.9 335.6l5.7 53.5 5.6-22.9 5.7-159.1 5.7 133.2 5.6 47.6 5.7 5 5.7-47.4 5.6 6.2 5.7 8.6 5.7-26.3 5.6 31.5 5.7-3.4 5.7-122.6 5.6 104.4 5.7-19.7 5.7 38.4 5.7-7.4 5.6 33.9 5.7-43.5 5.7.1 5.6-8.1 5.7 58.7 5.7-41.7 5.6 36.9 5.7-64.2 5.7 35.2 5.6 35.5 5.7-68.8 5.7-16 5.6-52.4 5.7 81.6 5.7-9 5.6-12.9 5.7-38.6 5.7-8.2 5.6 12.4 5.7 48.3 5.7 78.1 5.6-37.2 5.7-22.8 5.7 43.3 5.6-79.6 5.7 52.1 5.7-15.7 5.6 19.8 5.7-14.6 5.7-61.3 5.6 21.4 5.7-291.8 5.7 263.3 5.7 4 5.6 23.3 5.7-70.6 5.7 89.1 5.6 48.9 5.7 21.1 5.7-44 5.6-36.3 5.7.1 5.7-41.9 5.6 88.7 5.7 10.2 5.7.4 5.6 15.3 5.7-37.7 5.7-3.2 5.6 35 5.7-70.1 5.7-12.9 5.6 76.7 5.7-51.7 5.7 75.7 5.6-10.3 5.7-46.1 5.7 54.4 5.6-19.1 5.7-74.1 5.7 80.3 5.6-35.2 5.7-32.1 5.7 64.1 5.6-127.5 5.7 112.7 5.7 17 5.7-56.5 5.6 3.7 5.7 1.6 5.7 59.7 5.6-17.6 5.7 14.4 5.7-12.4 5.6-14.4 5.7 2.8 5.7 53.1 5.6-158.5 5.7 143.8 5.7-29.6 5.6-29.5 5.7-80" fill="none" color="#000"/><text transform="translate(375.6 475.9)" stroke="none" fill="#000" font-family="Arial" font-size="12" text-anchor="end" color="#000"><tspan>score p10=2017</tspan></text><path stroke="#009E73" d="M383.9 472h42.2" fill="none" color="#000"/><text transform="translate(575.5 475.9)" stroke="none" fill="#000" font-family="Arial" font-size="12" text-anchor="end" color="#000"><tspan>score median=4000</tspan></text><path stroke="#56B4E9" d="M583.8 472H626" fill="none" color="#000"/><g fill="none" color="#000" stroke="currentColor"><path stroke="#000" d="M53.9 18.1V436H615V18.1H53.9z"/></g></svg>