<svg width="640" height="490" xmlns="http://www.w3.org/2000/svg" xmlns:xlink="http://www.w3.org/1999/xlink"><path fill="#fff" d="M0 0h640v490H0z"/><defs><path id="d" stroke-width=".222" stroke="currentColor" d="M-1-1h2v2h-2z"/><path id="b" stroke-width=".222" stroke="currentColor" d="M0-1.33l-1.33 2h2.66z"/><path id="f" stroke-width=".222" stroke="currentColor" d="M0 1.33L1.265.411.782-1.067l-1.564-.009-.483 1.487z"/><use xlink:href="#b" id="c" stroke="currentColor" transform="rotate(180)"/><use xlink:href="#d" id="e" stroke="currentColor" transform="rotate(45)"/><circle id="a" stroke-width=".222" stroke="currentColor" cx="0" cy="0" r="1"/></defs><g fill="none" color="#000" stroke="currentColor"><path stroke="#000" d="M62.2 376.7h9m543.8 0h-9"/><text transform="translate(53.9 380.6)" stroke="none" fill="#000" font-family="Arial" font-size="12" text-anchor="end"><tspan>1515</tspan></text></g><g fill="none" color="#000" stroke="currentColor"><path stroke="#000" d="M62.2 282.9h9m543.8 0h-9"/><text transform="translate(53.9 286.8)" stroke="none" fill="#000" font-family="Arial" font-size="12" text-anchor="end"><tspan>1520</tspan></text></g><g fill="none" color="#000" stroke="currentColor"><path stroke="#000" d="M62.2 189.1h9m543.8 0h-9"/><text transform="translate(53.9 193)" stroke="none" fill="#000" font-family="Arial" font-size="12" text-anchor="end"><tspan>1525</tspan></text></g><g fill="none" color="#000" stroke="currentColor"><path stroke="#000" d="M62.2 95.2h9m543.8 0h-9"/><text transform="translate(53.9 99.1)" stroke="none" fill="#000" font-family="Arial" font-size="12" text-anchor="end"><tspan>1530</tspan></text></g><g fill="none" color="#000" stroke="currentColor"><path stroke="#000" d="M62.2 436v-9m0-408.9v9"/><text transform="translate(62.2 457.9)" stroke="none" fill="#000" font-family="Arial" font-size="12" text-anchor="middle"><tspan>0</tspan></text></g><g fill="none" color="#000" stroke="currentColor"><path stroke="#000" d="M118 436v-9m0-408.9v9"/><text transform="translate(118 457.9)" stroke="none" fill="#000" font-family="Arial" font-size="12" text-anchor="middle"><tspan>10</tspan></text></g><g fill="none" color="#000" stroke="currentColor"><path stroke="#000" d="M173.9 436v-9m0-408.9v9"/><text transform="translate(173.9 457.9)" stroke="none" fill="#000" font-family="Arial" font-size="12" text-anchor="middle"><tspan>20</tspan></text></g><g fill="none" color="#000" stroke="currentColor"><path stroke="#000" d="M229.7 436v-9m0-408.9v9"/><text transform="translate(229.7 457.9)" stroke="none" fill="#000" font-family="Arial" font-size="12" text-anchor="middle"><tspan>30</tspan></text></g><g fill="none" color="#000" stroke="currentColor"><path stroke="#000" d="M285.6 436v-9m0-408.9v9"/><text transform="translate(285.6 457.9)" stroke="none" fill="#000" font-family="Arial" font-size="12" text-anchor="middle"><tspan>40</tspan></text></g><g fill="none" color="#000" stroke="currentColor"><path stroke="#000" d="M341.4 436v-9m0-408.9v9"/><text transform="translate(341.4 457.9)" stroke="none" fill="#000" font-family="Arial" font-size="12" text-anchor="middle"><tspan>50</tspan></text></g><g fill="none" color="#000" stroke="currentColor"><path stroke="#000" d="M397.2 436v-9m0-408.9v9"/><text transform="translate(397.2 457.9)" stroke="none" fill="#000" font-family="Arial" font-size="12" text-anchor="middle"><tspan>60</tspan></text></g><g fill="none" color="#000" stroke="currentColor"><path stroke="#000" d="M453.1 436v-9m0-408.9v9"/><text transform="translate(453.1 457.9)" stroke="none" fill="#000" font-family="Arial" font-size="12" text-anchor="middle"><tspan>70</tspan></text></g><g fill="none" color="#000" stroke="currentColor"><path stroke="#000" d="M508.9 436v-9m0-408.9v9"/><text transform="translate(508.9 457.9)" stroke="none" fill="#000" font-family="Arial" font-size="12" text-anchor="middle"><tspan>80</tspan></text></g><g fill="none" color="#000" stroke="currentColor"><path stroke="#000" d="M564.7 436v-9m0-408.9v9"/><text transform="translate(564.7 457.9)" stroke="none" fill="#000" font-family="Arial" font-size="12" text-anchor="middle"><tspan>90</tspan></text></g><path stroke="#000" d="M62.2 18.1V436H615V18.1H62.2z" fill="none" color="#000"/><text transform="translate(179.8 475.9)" stroke="none" fill="#000" font-family="Arial" font-size="12" text-anchor="end" color="#000"><tspan>raw</tspan></text><path stroke="#9400D3" d="M188.1 472h42.2M62.2 428l5.6-.6 5.6-5.3 5.6-6.4 5.5-.5 5.6-2.1 5.6-.5 5.6-2.4 5.6-.2 5.6-.9 5.5-2.2 5.6-1.3 5.6-.2 5.6-1.1 5.6-1 5.6-1.2 5.5-.4 5.6-.2 5.6-.1 5.6-1h5.6l5.6-.1 5.5-1.8 5.6-.8 5.6-.2 5.6-2.7 5.6-3.7 5.6-.9 5.5-.3 5.6-1.1 5.6-.2 5.6-.5h5.6l5.6-.4 5.6-.4 5.5-.1 5.6-.6 5.6-.8 5.6-.7 5.6-.1 5.6-.9 5.5-.4 5.6-.1 5.6-.1 5.6-.5 5.6-.7 5.6-.3 5.5-1.2 5.6-.3 5.6-1.1 5.6-.3 5.6-1.2 5.6-.9 5.5-.2 5.6-.1 5.6-2 5.6-1.3 5.6-3.8 5.6-.2 5.5-.1 5.6-.6 5.6-.3 5.6-.1h5.6l5.6-.9 5.5-1.4 5.6-.3 5.6-.1 5.6-2.5 5.6-.7 5.6-.5 5.6-1.7 5.5-1.2 5.6-.3 5.6-.1 5.6-1.1 5.6-.6 5.6-.3 5.5-3.4 5.6-2 5.6-3.2 5.6-.7 5.6-1 5.6-1.3 5.5-1 5.6-1 5.6-2.8 5.6-4.3 5.6-1.2 5.6-4.1 5.5-1.9 5.6-.4 5.6-3.1 5.6-17.7 5.6-3 5.6-25 5.5-205.4 5.6-14 5.6-14.4 5.6-19.6" fill="none" color="#000"/><text transform="translate(379.7 475.9)" stroke="none" fill="#000" font-family="Arial" font-size="12" text-anchor="end" color="#000"><tspan>score p10=2336</tspan></text><path stroke="#009E73" d="M388 472h42.2" fill="none" color="#000"/><text transform="translate(579.6 475.9)" stroke="none" fill="#000" font-family="Arial" font-size="12" text-anchor="end" color="#000"><tspan>score median=4000</tspan></text><path stroke="#56B4E9" d="M587.9 472h42.2" fill="none" color="#000"/><g fill="none" color="#000" stroke="currentColor"><path stroke="#000" d="M62.2 18.1V436H615V18.1H62.2z"/></g></svg>