<svg width="640" height="520" xmlns="http://www.w3.org/2000/svg" xmlns:xlink="http://www.w3.org/1999/xlink"><path fill="#fff" d="M0 0h640v520H0z"/><defs><path id="g" stroke-width=".222" stroke="currentColor" d="M-1 0h2M0-1v2"/><path id="h" stroke-width=".222" stroke="currentColor" d="M-1-1l2 2m0-2l-2 2"/><path id="i" stroke-width=".222" stroke="currentColor" d="M-1 0h2M0-1v2m-1-2l2 2m-2 0l2-2"/><path id="d" stroke-width=".222" stroke="currentColor" d="M-1-1h2v2h-2z"/><path id="b" stroke-width=".222" stroke="currentColor" d="M0-1.33l-1.33 2h2.66z"/><path id="f" stroke-width=".222" stroke="currentColor" d="M0 1.33L1.265.411.782-1.067l-1.564-.009-.483 1.487z"/><use xlink:href="#b" id="c" stroke="currentColor" transform="rotate(180)"/><use xlink:href="#d" id="e" stroke="currentColor" transform="rotate(45)"/><circle id="a" stroke-width=".222" stroke="currentColor" cx="0" cy="0" r="1"/></defs><g fill="none" color="#000" stroke="currentColor"><path stroke="#000" d="M62.2 457.4h9m543.8 0h-9"/><text transform="translate(53.9 461.3)" stroke="none" fill="#000" font-family="Arial" font-size="12" text-anchor="end"><tspan>0</tspan></text></g><g fill="none" color="#000" stroke="currentColor"><path stroke="#000" d="M62.2 384h9m543.8 0h-9"/><text transform="translate(53.9 387.9)" stroke="none" fill="#000" font-family="Arial" font-size="12" text-anchor="end"><tspan>1000</tspan></text></g><g fill="none" color="#000" stroke="currentColor"><path stroke="#000" d="M62.2 310.6h9m543.8 0h-9"/><text transform="translate(53.9 314.5)" stroke="none" fill="#000" font-family="Arial" font-size="12" text-anchor="end"><tspan>2000</tspan></text></g><g fill="none" color="#000" stroke="currentColor"><path stroke="#000" d="M62.2 237.3h9m543.8 0h-9"/><text transform="translate(53.9 241.2)" stroke="none" fill="#000" font-family="Arial" font-size="12" text-anchor="end"><tspan>3000</tspan></text></g><g fill="none" color="#000" stroke="currentColor"><path stroke="#000" d="M62.2 163.9h9m543.8 0h-9"/><text transform="translate(53.9 167.8)" stroke="none" fill="#000" font-family="Arial" font-size="12" text-anchor="end"><tspan>4000</tspan></text></g><g fill="none" color="#000" stroke="currentColor"><path stroke="#000" d="M62.2 90.5h9m543.8 0h-9"/><text transform="translate(53.9 94.4)" stroke="none" fill="#000" font-family="Arial" font-size="12" text-anchor="end"><tspan>5000</tspan></text></g><g fill="none" color="#000" stroke="currentColor"><path stroke="#000" d="M62.2 466v-9m0-438.9v9"/><text transform="translate(62.2 487.9)" stroke="none" fill="#000" font-family="Arial" font-size="12" text-anchor="middle"><tspan>0</tspan></text></g><g fill="none" color="#000" stroke="currentColor"><path stroke="#000" d="M147.2 466v-9m0-438.9v9"/><text transform="translate(147.2 487.9)" stroke="none" fill="#000" font-family="Arial" font-size="12" text-anchor="middle"><tspan>2</tspan></text></g><g fill="none" color="#000" stroke="currentColor"><path stroke="#000" d="M232.3 466v-9m0-438.9v9"/><text transform="translate(232.3 487.9)" stroke="none" fill="#000" font-family="Arial" font-size="12" text-anchor="middle"><tspan>4</tspan></text></g><g fill="none" color="#000" stroke="currentColor"><path stroke="#000" d="M317.3 466v-9m0-438.9v9"/><text transform="translate(317.3 487.9)" stroke="none" fill="#000" font-family="Arial" font-size="12" text-anchor="middle"><tspan>6</tspan></text></g><g fill="none" color="#000" stroke="currentColor"><path stroke="#000" d="M402.4 466v-9m0-438.9v9"/><text transform="translate(402.4 487.9)" stroke="none" fill="#000" font-family="Arial" font-size="12" text-anchor="middle"><tspan>8</tspan></text></g><g fill="none" color="#000" stroke="currentColor"><path stroke="#000" d="M487.4 466v-9m0-438.9v9"/><text transform="translate(487.4 487.9)" stroke="none" fill="#000" font-family="Arial" font-size="12" text-anchor="middle"><tspan>10</tspan></text></g><g fill="none" color="#000" stroke="currentColor"><path stroke="#000" d="M572.5 466v-9m0-438.9v9"/><text transform="translate(572.5 487.9)" stroke="none" fill="#000" font-family="Arial" font-size="12" text-anchor="middle"><tspan>12</tspan></text></g><path stroke="#000" d="M62.2 18.1V466H615V18.1H62.2z" fill="none" color="#000"/><text transform="translate(146.3 505.9)" stroke="none" fill="#000" font-family="Arial" font-size="12" text-anchor="end" color="#000"><tspan>p90min</tspan></text><g fill="none" color="#000" stroke="currentColor"><path stroke="#9400D3" d="M154.6 502h42.2M62.2 457.4l42.5-407.2 42.5-11 42.6-.7 42.5 385.9h42.5l42.5 22 42.6-22h85l42.5 11H530l42.5-11 42.5 33"/><use xlink:href="#g" transform="matrix(4.5 0 0 4.5 62.2 457.4)" color="#9400D3"/><use xlink:href="#g" transform="matrix(4.5 0 0 4.5 104.7 50.2)" color="#9400D3"/><use xlink:href="#g" transform="matrix(4.5 0 0 4.5 147.2 39.2)" color="#9400D3"/><use xlink:href="#g" transform="matrix(4.5 0 0 4.5 189.8 38.5)" color="#9400D3"/><use xlink:href="#g" transform="matrix(4.5 0 0 4.5 232.3 424.4)" color="#9400D3"/><use xlink:href="#g" transform="matrix(4.5 0 0 4.5 274.8 424.4)" color="#9400D3"/><use xlink:href="#g" transform="matrix(4.5 0 0 4.5 317.3 446.4)" color="#9400D3"/><use xlink:href="#g" transform="matrix(4.5 0 0 4.5 359.9 424.4)" color="#9400D3"/><use xlink:href="#g" transform="matrix(4.5 0 0 4.5 402.4 424.4)" color="#9400D3"/><use xlink:href="#g" transform="matrix(4.5 0 0 4.5 444.9 424.4)" color="#9400D3"/><use xlink:href="#g" transform="matrix(4.5 0 0 4.5 487.4 435.4)" color="#9400D3"/><use xlink:href="#g" transform="matrix(4.5 0 0 4.5 530 435.4)" color="#9400D3"/><use xlink:href="#g" transform="matrix(4.5 0 0 4.5 572.5 424.4)" color="#9400D3"/><use xlink:href="#g" transform="matrix(4.5 0 0 4.5 615 457.4)" color="#9400D3"/><use xlink:href="#g" transform="matrix(4.5 0 0 4.5 175.7 502)" color="#9400D3"/></g><text transform="translate(279.8 505.9)" stroke="none" fill="#000" font-family="Arial" font-size="12" text-anchor="end" color="#000"><tspan>p90mean</tspan></text><g fill="none" color="#000" stroke="currentColor"><path stroke="#009E73" d="M288.1 502h42.2M62.2 457.4l42.5-423.6 42.5 4.7h42.6l42.5 385.9h42.5l42.5 22 42.6-22h85l42.5 11H530l42.5-11 42.5 33"/><use xlink:href="#h" transform="matrix(4.5 0 0 4.5 62.2 457.4)" color="#009E73"/><use xlink:href="#h" transform="matrix(4.5 0 0 4.5 104.7 33.8)" color="#009E73"/><use xlink:href="#h" transform="matrix(4.5 0 0 4.5 147.2 38.5)" color="#009E73"/><use xlink:href="#h" transform="matrix(4.5 0 0 4.5 189.8 38.5)" color="#009E73"/><use xlink:href="#h" transform="matrix(4.5 0 0 4.5 232.3 424.4)" color="#009E73"/><use xlink:href="#h" transform="matrix(4.5 0 0 4.5 274.8 424.4)" color="#009E73"/><use xlink:href="#h" transform="matrix(4.5 0 0 4.5 317.3 446.4)" color="#009E73"/><use xlink:href="#h" transform="matrix(4.5 0 0 4.5 359.9 424.4)" color="#009E73"/><use xlink:href="#h" transform="matrix(4.5 0 0 4.5 402.4 424.4)" color="#009E73"/><use xlink:href="#h" transform="matrix(4.5 0 0 4.5 444.9 424.4)" color="#009E73"/><use xlink:href="#h" transform="matrix(4.5 0 0 4.5 487.4 435.4)" color="#009E73"/><use xlink:href="#h" transform="matrix(4.5 0 0 4.5 530 435.4)" color="#009E73"/><use xlink:href="#h" transform="matrix(4.5 0 0 4.5 572.5 424.4)" color="#009E73"/><use xlink:href="#h" transform="matrix(4.5 0 0 4.5 615 457.4)" color="#009E73"/><use xlink:href="#h" transform="matrix(4.5 0 0 4.5 309.2 502)" color="#009E73"/></g><text transform="translate(413.3 505.9)" stroke="none" fill="#000" font-family="Arial" font-size="12" text-anchor="end" color="#000"><tspan>p90median</tspan></text><g fill="none" color="#000" stroke="currentColor"><path stroke="#56B4E9" d="M421.6 502h42.2M62.2 457.4l42.5-424.1 42.5 5.2h42.6l42.5 385.9h42.5l42.5 22 42.6-22h85l42.5 11H530l42.5-11 42.5 33"/><use xlink:href="#i" transform="matrix(4.5 0 0 4.5 62.2 457.4)" color="#56B4E9"/><use xlink:href="#i" transform="matrix(4.5 0 0 4.5 104.7 33.3)" color="#56B4E9"/><use xlink:href="#i" transform="matrix(4.5 0 0 4.5 147.2 38.5)" color="#56B4E9"/><use xlink:href="#i" transform="matrix(4.5 0 0 4.5 189.8 38.5)" color="#56B4E9"/><use xlink:href="#i" transform="matrix(4.5 0 0 4.5 232.3 424.4)" color="#56B4E9"/><use xlink:href="#i" transform="matrix(4.5 0 0 4.5 274.8 424.4)" color="#56B4E9"/><use xlink:href="#i" transform="matrix(4.5 0 0 4.5 317.3 446.4)" color="#56B4E9"/><use xlink:href="#i" transform="matrix(4.5 0 0 4.5 359.9 424.4)" color="#56B4E9"/><use xlink:href="#i" transform="matrix(4.5 0 0 4.5 402.4 424.4)" color="#56B4E9"/><use xlink:href="#i" transform="matrix(4.5 0 0 4.5 444.9 424.4)" color="#56B4E9"/><use xlink:href="#i" transform="matrix(4.5 0 0 4.5 487.4 435.4)" color="#56B4E9"/><use xlink:href="#i" transform="matrix(4.5 0 0 4.5 530 435.4)" color="#56B4E9"/><use xlink:href="#i" transform="matrix(4.5 0 0 4.5 572.5 424.4)" color="#56B4E9"/><use xlink:href="#i" transform="matrix(4.5 0 0 4.5 615 457.4)" color="#56B4E9"/><use xlink:href="#i" transform="matrix(4.5 0 0 4.5 442.7 502)" color="#56B4E9"/></g><g><text transform="translate(546.8 505.9)" stroke="none" fill="#000" font-family="Arial" font-size="12" text-anchor="end" color="#000"><tspan>p90max</tspan></text><g fill="none" color="#000" stroke="currentColor"><path stroke="#E69F00" d="M555.1 502h42.2M62.2 457.4l42.5-430.7 42.5 11 42.6.8 42.5 385.9h42.5l42.5 22 42.6-22h85l42.5 11H530l42.5-11 42.5 33"/><use xlink:href="#d" transform="matrix(4.5 0 0 4.5 62.2 457.4)" color="#E69F00"/><use xlink:href="#d" transform="matrix(4.5 0 0 4.5 104.7 26.7)" color="#E69F00"/><use xlink:href="#d" transform="matrix(4.5 0 0 4.5 147.2 37.7)" color="#E69F00"/><use xlink:href="#d" transform="matrix(4.5 0 0 4.5 189.8 38.5)" color="#E69F00"/><use xlink:href="#d" transform="matrix(4.5 0 0 4.5 232.3 424.4)" color="#E69F00"/><use xlink:href="#d" transform="matrix(4.5 0 0 4.5 274.8 424.4)" color="#E69F00"/><use xlink:href="#d" transform="matrix(4.5 0 0 4.5 317.3 446.4)" color="#E69F00"/><use xlink:href="#d" transform="matrix(4.5 0 0 4.5 359.9 424.4)" color="#E69F00"/><use xlink:href="#d" transform="matrix(4.5 0 0 4.5 402.4 424.4)" color="#E69F00"/><use xlink:href="#d" transform="matrix(4.5 0 0 4.5 444.9 424.4)" color="#E69F00"/><use xlink:href="#d" transform="matrix(4.5 0 0 4.5 487.4 435.4)" color="#E69F00"/><use xlink:href="#d" transform="matrix(4.5 0 0 4.5 530 435.4)" color="#E69F00"/><use xlink:href="#d" transform="matrix(4.5 0 0 4.5 572.5 424.4)" color="#E69F00"/><use xlink:href="#d" transform="matrix(4.5 0 0 4.5 615 457.4)" color="#E69F00"/><use xlink:href="#d" transform="matrix(4.5 0 0 4.5 576.2 502)" color="#E69F00"/></g></g><g fill="none" color="#000" stroke="currentColor"><path stroke="#000" d="M62.2 18.1V466H615V18.1H62.2z"/></g></svg>