<svg width="640" height="500" xmlns="http://www.w3.org/2000/svg" xmlns:xlink="http://www.w3.org/1999/xlink"><path fill="#fff" d="M0 0h640v500H0z"/><defs><path id="g" stroke-width=".222" stroke="currentColor" d="M-1 0h2M0-1v2"/><path id="h" stroke-width=".222" stroke="currentColor" d="M-1-1l2 2m0-2l-2 2"/><path id="d" stroke-width=".222" stroke="currentColor" d="M-1-1h2v2h-2z"/><path id="b" stroke-width=".222" stroke="currentColor" d="M0-1.33l-1.33 2h2.66z"/><path id="f" stroke-width=".222" stroke="currentColor" d="M0 1.33L1.265.411.782-1.067l-1.564-.009-.483 1.487z"/><use xlink:href="#b" id="c" stroke="currentColor" transform="rotate(180)"/><use xlink:href="#d" id="e" stroke="currentColor" transform="rotate(45)"/><circle id="a" stroke-width=".222" stroke="currentColor" cx="0" cy="0" r="1"/></defs><g fill="none" color="#000" stroke="currentColor"><path stroke="#000" d="M70.5 413.4h9m535.5 0h-9"/><text transform="translate(62.2 417.3)" stroke="none" fill="#000" font-family="Arial" font-size="12" text-anchor="end"><tspan>1</tspan></text></g><g fill="none" color="#000" stroke="currentColor"><path stroke="#000" d="M70.5 348.1h9m535.5 0h-9"/><text transform="translate(62.2 352)" stroke="none" fill="#000" font-family="Arial" font-size="12" text-anchor="end"><tspan>1.002</tspan></text></g><g fill="none" color="#000" stroke="currentColor"><path stroke="#000" d="M70.5 282.8h9m535.5 0h-9"/><text transform="translate(62.2 286.7)" stroke="none" fill="#000" font-family="Arial" font-size="12" text-anchor="end"><tspan>1.004</tspan></text></g><g fill="none" color="#000" stroke="currentColor"><path stroke="#000" d="M70.5 217.5h9m535.5 0h-9"/><text transform="translate(62.2 221.4)" stroke="none" fill="#000" font-family="Arial" font-size="12" text-anchor="end"><tspan>1.006</tspan></text></g><g fill="none" color="#000" stroke="currentColor"><path stroke="#000" d="M70.5 152.3h9m535.5 0h-9"/><text transform="translate(62.2 156.2)" stroke="none" fill="#000" font-family="Arial" font-size="12" text-anchor="end"><tspan>1.008</tspan></text></g><g fill="none" color="#000" stroke="currentColor"><path stroke="#000" d="M70.5 87h9M615 87h-9"/><text transform="translate(62.2 90.9)" stroke="none" fill="#000" font-family="Arial" font-size="12" text-anchor="end"><tspan>1.01</tspan></text></g><g fill="none" color="#000" stroke="currentColor"><path stroke="#000" d="M70.5 21.7h9m535.5 0h-9"/><text transform="translate(62.2 25.6)" stroke="none" fill="#000" font-family="Arial" font-size="12" text-anchor="end"><tspan>1.012</tspan></text></g><g fill="none" color="#000" stroke="currentColor"><path stroke="#000" d="M70.5 446v-9m0-418.9v9"/><text transform="translate(70.5 467.9)" stroke="none" fill="#000" font-family="Arial" font-size="12" text-anchor="middle"><tspan>0</tspan></text></g><g fill="none" color="#000" stroke="currentColor"><path stroke="#000" d="M154.3 446v-9m0-418.9v9"/><text transform="translate(154.3 467.9)" stroke="none" fill="#000" font-family="Arial" font-size="12" text-anchor="middle"><tspan>2</tspan></text></g><g fill="none" color="#000" stroke="currentColor"><path stroke="#000" d="M238 446v-9m0-418.9v9"/><text transform="translate(238 467.9)" stroke="none" fill="#000" font-family="Arial" font-size="12" text-anchor="middle"><tspan>4</tspan></text></g><g fill="none" color="#000" stroke="currentColor"><path stroke="#000" d="M321.8 446v-9m0-418.9v9"/><text transform="translate(321.8 467.9)" stroke="none" fill="#000" font-family="Arial" font-size="12" text-anchor="middle"><tspan>6</tspan></text></g><g fill="none" color="#000" stroke="currentColor"><path stroke="#000" d="M405.6 446v-9m0-418.9v9"/><text transform="translate(405.6 467.9)" stroke="none" fill="#000" font-family="Arial" font-size="12" text-anchor="middle"><tspan>8</tspan></text></g><g fill="none" color="#000" stroke="currentColor"><path stroke="#000" d="M489.3 446v-9m0-418.9v9"/><text transform="translate(489.3 467.9)" stroke="none" fill="#000" font-family="Arial" font-size="12" text-anchor="middle"><tspan>10</tspan></text></g><g fill="none" color="#000" stroke="currentColor"><path stroke="#000" d="M573.1 446v-9m0-418.9v9"/><text transform="translate(573.1 467.9)" stroke="none" fill="#000" font-family="Arial" font-size="12" text-anchor="middle"><tspan>12</tspan></text></g><path stroke="#000" d="M70.5 18.1V446H615V18.1H70.5z" fill="none" color="#000"/><text transform="translate(283.9 485.9)" stroke="none" fill="#000" font-family="Arial" font-size="12" text-anchor="end" color="#000"><tspan>p90eccentricity</tspan></text><g fill="none" color="#000" stroke="currentColor"><path stroke="#9400D3" d="M292.2 482h42.2M70.5 413.4H615"/><use xlink:href="#g" transform="matrix(4.5 0 0 4.5 70.5 413.4)" color="#9400D3"/><use xlink:href="#g" transform="matrix(4.5 0 0 4.5 112.4 413.4)" color="#9400D3"/><use xlink:href="#g" transform="matrix(4.5 0 0 4.5 154.3 413.4)" color="#9400D3"/><use xlink:href="#g" transform="matrix(4.5 0 0 4.5 196.2 413.4)" color="#9400D3"/><use xlink:href="#g" transform="matrix(4.5 0 0 4.5 238 413.4)" color="#9400D3"/><use xlink:href="#g" transform="matrix(4.5 0 0 4.5 279.9 413.4)" color="#9400D3"/><use xlink:href="#g" transform="matrix(4.5 0 0 4.5 321.8 413.4)" color="#9400D3"/><use xlink:href="#g" transform="matrix(4.5 0 0 4.5 363.7 413.4)" color="#9400D3"/><use xlink:href="#g" transform="matrix(4.5 0 0 4.5 405.6 413.4)" color="#9400D3"/><use xlink:href="#g" transform="matrix(4.5 0 0 4.5 447.5 413.4)" color="#9400D3"/><use xlink:href="#g" transform="matrix(4.5 0 0 4.5 531.2 413.4)" color="#9400D3"/><use xlink:href="#g" transform="matrix(4.5 0 0 4.5 573.1 413.4)" color="#9400D3"/><use xlink:href="#g" transform="matrix(4.5 0 0 4.5 615 413.4)" color="#9400D3"/><use xlink:href="#g" transform="matrix(4.5 0 0 4.5 313.3 482)" color="#9400D3"/></g><text transform="translate(483.8 485.9)" stroke="none" fill="#000" font-family="Arial" font-size="12" text-anchor="end" color="#000"><tspan>p90discretization</tspan></text><g fill="none" color="#000" stroke="currentColor"><path stroke="#009E73" d="M492.1 482h42.2M70.5 413.4h83.8l41.9-362.7L238 413.4H573.1L615 50.7"/><use xlink:href="#h" transform="matrix(4.5 0 0 4.5 70.5 413.4)" color="#009E73"/><use xlink:href="#h" transform="matrix(4.5 0 0 4.5 112.4 413.4)" color="#009E73"/><use xlink:href="#h" transform="matrix(4.5 0 0 4.5 154.3 413.4)" color="#009E73"/><use xlink:href="#h" transform="matrix(4.5 0 0 4.5 196.2 50.7)" color="#009E73"/><use xlink:href="#h" transform="matrix(4.5 0 0 4.5 238 413.4)" color="#009E73"/><use xlink:href="#h" transform="matrix(4.5 0 0 4.5 279.9 413.4)" color="#009E73"/><use xlink:href="#h" transform="matrix(4.5 0 0 4.5 321.8 413.4)" color="#009E73"/><use xlink:href="#h" transform="matrix(4.5 0 0 4.5 363.7 413.4)" color="#009E73"/><use xlink:href="#h" transform="matrix(4.5 0 0 4.5 405.6 413.4)" color="#009E73"/><use xlink:href="#h" transform="matrix(4.5 0 0 4.5 447.5 413.4)" color="#009E73"/><use xlink:href="#h" transform="matrix(4.5 0 0 4.5 531.2 413.4)" color="#009E73"/><use xlink:href="#h" transform="matrix(4.5 0 0 4.5 573.1 413.4)" color="#009E73"/><use xlink:href="#h" transform="matrix(4.5 0 0 4.5 615 50.7)" color="#009E73"/><use xlink:href="#h" transform="matrix(4.5 0 0 4.5 513.2 482)" color="#009E73"/></g><g fill="none" color="#000" stroke="currentColor"><path stroke="#000" d="M70.5 18.1V446H615V18.1H70.5z"/></g></svg>