<svg width="640" height="520" xmlns="http://www.w3.org/2000/svg" xmlns:xlink="http://www.w3.org/1999/xlink"><path fill="#fff" d="M0 0h640v520H0z"/><defs><path id="g" stroke-width=".222" stroke="currentColor" d="M-1 0h2M0-1v2"/><path id="h" stroke-width=".222" stroke="currentColor" d="M-1-1l2 2m0-2l-2 2"/><path id="i" stroke-width=".222" stroke="currentColor" d="M-1 0h2M0-1v2m-1-2l2 2m-2 0l2-2"/><path id="d" stroke-width=".222" stroke="currentColor" d="M-1-1h2v2h-2z"/><path id="b" stroke-width=".222" stroke="currentColor" d="M0-1.33l-1.33 2h2.66z"/><path id="f" stroke-width=".222" stroke="currentColor" d="M0 1.33L1.265.411.782-1.067l-1.564-.009-.483 1.487z"/><use xlink:href="#b" id="c" stroke="currentColor" transform="rotate(180)"/><use xlink:href="#d" id="e" stroke="currentColor" transform="rotate(45)"/><circle id="a" stroke-width=".222" stroke="currentColor" cx="0" cy="0" r="1"/></defs><g fill="none" color="#000" stroke="currentColor"><path stroke="#000" d="M70.5 448.7h9m535.5 0h-9"/><text transform="translate(62.2 452.6)" stroke="none" fill="#000" font-family="Arial" font-size="12" text-anchor="end"><tspan>0</tspan></text></g><g fill="none" color="#000" stroke="currentColor"><path stroke="#000" d="M70.5 377.2h9m535.5 0h-9"/><text transform="translate(62.2 381.1)" stroke="none" fill="#000" font-family="Arial" font-size="12" text-anchor="end"><tspan>5000</tspan></text></g><g fill="none" color="#000" stroke="currentColor"><path stroke="#000" d="M70.5 305.7h9m535.5 0h-9"/><text transform="translate(62.2 309.6)" stroke="none" fill="#000" font-family="Arial" font-size="12" text-anchor="end"><tspan>10000</tspan></text></g><g fill="none" color="#000" stroke="currentColor"><path stroke="#000" d="M70.5 234.2h9m535.5 0h-9"/><text transform="translate(62.2 238.1)" stroke="none" fill="#000" font-family="Arial" font-size="12" text-anchor="end"><tspan>15000</tspan></text></g><g fill="none" color="#000" stroke="currentColor"><path stroke="#000" d="M70.5 162.7h9m535.5 0h-9"/><text transform="translate(62.2 166.6)" stroke="none" fill="#000" font-family="Arial" font-size="12" text-anchor="end"><tspan>20000</tspan></text></g><g fill="none" color="#000" stroke="currentColor"><path stroke="#000" d="M70.5 91.2h9m535.5 0h-9"/><text transform="translate(62.2 95.1)" stroke="none" fill="#000" font-family="Arial" font-size="12" text-anchor="end"><tspan>25000</tspan></text></g><g fill="none" color="#000" stroke="currentColor"><path stroke="#000" d="M70.5 19.7h9m535.5 0h-9"/><text transform="translate(62.2 23.6)" stroke="none" fill="#000" font-family="Arial" font-size="12" text-anchor="end"><tspan>30000</tspan></text></g><g fill="none" color="#000" stroke="currentColor"><path stroke="#000" d="M70.5 448v-9m0-420.9v9"/><text transform="translate(70.5 469.9)" stroke="none" fill="#000" font-family="Arial" font-size="12" text-anchor="middle"><tspan>0</tspan></text></g><g fill="none" color="#000" stroke="currentColor"><path stroke="#000" d="M154.3 448v-9m0-420.9v9"/><text transform="translate(154.3 469.9)" stroke="none" fill="#000" font-family="Arial" font-size="12" text-anchor="middle"><tspan>2</tspan></text></g><g fill="none" color="#000" stroke="currentColor"><path stroke="#000" d="M238 448v-9m0-420.9v9"/><text transform="translate(238 469.9)" stroke="none" fill="#000" font-family="Arial" font-size="12" text-anchor="middle"><tspan>4</tspan></text></g><g fill="none" color="#000" stroke="currentColor"><path stroke="#000" d="M321.8 448v-9m0-420.9v9"/><text transform="translate(321.8 469.9)" stroke="none" fill="#000" font-family="Arial" font-size="12" text-anchor="middle"><tspan>6</tspan></text></g><g fill="none" color="#000" stroke="currentColor"><path stroke="#000" d="M405.6 448v-9m0-420.9v9"/><text transform="translate(405.6 469.9)" stroke="none" fill="#000" font-family="Arial" font-size="12" text-anchor="middle"><tspan>8</tspan></text></g><g fill="none" color="#000" stroke="currentColor"><path stroke="#000" d="M489.3 448v-9m0-420.9v9"/><text transform="translate(489.3 469.9)" stroke="none" fill="#000" font-family="Arial" font-size="12" text-anchor="middle"><tspan>10</tspan></text></g><g fill="none" color="#000" stroke="currentColor"><path stroke="#000" d="M573.1 448v-9m0-420.9v9"/><text transform="translate(573.1 469.9)" stroke="none" fill="#000" font-family="Arial" font-size="12" text-anchor="middle"><tspan>12</tspan></text></g><path stroke="#000" d="M70.5 18.1V448H615V18.1H70.5z" fill="none" color="#000"/><text transform="translate(184 487.9)" stroke="none" fill="#000" font-family="Arial" font-size="12" text-anchor="end" color="#000"><tspan>p90min</tspan></text><g fill="none" color="#000" stroke="currentColor"><path stroke="#9400D3" d="M192.3 484h42.2m-164-44.3l41.9-183 41.9-19.4 41.9-1.2 41.8 85.1h41.9l41.9 39 41.9-38 41.9 45.3 41.9 45.4 83.7-4.3 41.9 1.1 41.9 17.4"/><use xlink:href="#g" transform="matrix(4.5 0 0 4.5 70.5 439.7)" color="#9400D3"/><use xlink:href="#g" transform="matrix(4.5 0 0 4.5 112.4 256.7)" color="#9400D3"/><use xlink:href="#g" transform="matrix(4.5 0 0 4.5 154.3 237.3)" color="#9400D3"/><use xlink:href="#g" transform="matrix(4.5 0 0 4.5 196.2 236.1)" color="#9400D3"/><use xlink:href="#g" transform="matrix(4.5 0 0 4.5 238 321.2)" color="#9400D3"/><use xlink:href="#g" transform="matrix(4.5 0 0 4.5 279.9 321.2)" color="#9400D3"/><use xlink:href="#g" transform="matrix(4.5 0 0 4.5 321.8 360.2)" color="#9400D3"/><use xlink:href="#g" transform="matrix(4.5 0 0 4.5 363.7 322.2)" color="#9400D3"/><use xlink:href="#g" transform="matrix(4.5 0 0 4.5 405.6 367.5)" color="#9400D3"/><use xlink:href="#g" transform="matrix(4.5 0 0 4.5 447.5 412.9)" color="#9400D3"/><use xlink:href="#g" transform="matrix(4.5 0 0 4.5 531.2 408.6)" color="#9400D3"/><use xlink:href="#g" transform="matrix(4.5 0 0 4.5 573.1 409.7)" color="#9400D3"/><use xlink:href="#g" transform="matrix(4.5 0 0 4.5 615 427.1)" color="#9400D3"/><use xlink:href="#g" transform="matrix(4.5 0 0 4.5 213.4 484)" color="#9400D3"/></g><text transform="translate(184 505.9)" stroke="none" fill="#000" font-family="Arial" font-size="12" text-anchor="end" color="#000"><tspan>p90mean</tspan></text><g fill="none" color="#000" stroke="currentColor"><path stroke="#009E73" d="M192.3 502h42.2m-164-62.3l41.9-184.2 41.9-27.5 41.9-113.4L238 317.2l41.9-1.1 41.9 39.9 41.9-35 41.9 41.9 41.9 49.7 83.7-5 41.9 2 41.9 17.5"/><use xlink:href="#h" transform="matrix(4.5 0 0 4.5 70.5 439.7)" color="#009E73"/><use xlink:href="#h" transform="matrix(4.5 0 0 4.5 112.4 255.5)" color="#009E73"/><use xlink:href="#h" transform="matrix(4.5 0 0 4.5 154.3 228)" color="#009E73"/><use xlink:href="#h" transform="matrix(4.5 0 0 4.5 196.2 114.6)" color="#009E73"/><use xlink:href="#h" transform="matrix(4.5 0 0 4.5 238 317.2)" color="#009E73"/><use xlink:href="#h" transform="matrix(4.5 0 0 4.5 279.9 316.1)" color="#009E73"/><use xlink:href="#h" transform="matrix(4.5 0 0 4.5 321.8 356)" color="#009E73"/><use xlink:href="#h" transform="matrix(4.5 0 0 4.5 363.7 321)" color="#009E73"/><use xlink:href="#h" transform="matrix(4.5 0 0 4.5 405.6 362.9)" color="#009E73"/><use xlink:href="#h" transform="matrix(4.5 0 0 4.5 447.5 412.6)" color="#009E73"/><use xlink:href="#h" transform="matrix(4.5 0 0 4.5 531.2 407.6)" color="#009E73"/><use xlink:href="#h" transform="matrix(4.5 0 0 4.5 573.1 409.6)" color="#009E73"/><use xlink:href="#h" transform="matrix(4.5 0 0 4.5 615 427.1)" color="#009E73"/><use xlink:href="#h" transform="matrix(4.5 0 0 4.5 213.4 502)" color="#009E73"/></g><text transform="translate(383.9 487.9)" stroke="none" fill="#000" font-family="Arial" font-size="12" text-anchor="end" color="#000"><tspan>p90median</tspan></text><g fill="none" color="#000" stroke="currentColor"><path stroke="#56B4E9" d="M392.2 484h42.2M70.5 439.7l41.9-183.9 41.9-32.5 41.9-71.3L238 320.9l41.9-1.1 41.9 38.2 41.9-37 41.9 45.3 41.9 46.5 83.7-5.3 41.9 2.1 41.9 17.5"/><use xlink:href="#i" transform="matrix(4.5 0 0 4.5 70.5 439.7)" color="#56B4E9"/><use xlink:href="#i" transform="matrix(4.5 0 0 4.5 112.4 255.8)" color="#56B4E9"/><use xlink:href="#i" transform="matrix(4.5 0 0 4.5 154.3 223.3)" color="#56B4E9"/><use xlink:href="#i" transform="matrix(4.5 0 0 4.5 196.2 152)" color="#56B4E9"/><use xlink:href="#i" transform="matrix(4.5 0 0 4.5 238 320.9)" color="#56B4E9"/><use xlink:href="#i" transform="matrix(4.5 0 0 4.5 279.9 319.8)" color="#56B4E9"/><use xlink:href="#i" transform="matrix(4.5 0 0 4.5 321.8 358)" color="#56B4E9"/><use xlink:href="#i" transform="matrix(4.5 0 0 4.5 363.7 321)" color="#56B4E9"/><use xlink:href="#i" transform="matrix(4.5 0 0 4.5 405.6 366.3)" color="#56B4E9"/><use xlink:href="#i" transform="matrix(4.5 0 0 4.5 447.5 412.8)" color="#56B4E9"/><use xlink:href="#i" transform="matrix(4.5 0 0 4.5 531.2 407.5)" color="#56B4E9"/><use xlink:href="#i" transform="matrix(4.5 0 0 4.5 573.1 409.6)" color="#56B4E9"/><use xlink:href="#i" transform="matrix(4.5 0 0 4.5 615 427.1)" color="#56B4E9"/><use xlink:href="#i" transform="matrix(4.5 0 0 4.5 413.3 484)" color="#56B4E9"/></g><text transform="translate(383.9 505.9)" stroke="none" fill="#000" font-family="Arial" font-size="12" text-anchor="end" color="#000"><tspan>p90max</tspan></text><g fill="none" color="#000" stroke="currentColor"><path stroke="#E69F00" d="M392.2 502h42.2M70.5 439.6l41.9-185.9 41.9-31.6 41.9-195.7L238 308.8l41.9-.8 41.9 38.2 41.9-26.4 41.9 35.6 41.9 56.3 83.7-5.3 41.9 3 41.9 17.7"/><use xlink:href="#d" transform="matrix(4.5 0 0 4.5 70.5 439.6)" color="#E69F00"/><use xlink:href="#d" transform="matrix(4.5 0 0 4.5 112.4 253.7)" color="#E69F00"/><use xlink:href="#d" transform="matrix(4.5 0 0 4.5 154.3 222.1)" color="#E69F00"/><use xlink:href="#d" transform="matrix(4.5 0 0 4.5 196.2 26.4)" color="#E69F00"/><use xlink:href="#d" transform="matrix(4.5 0 0 4.5 238 308.8)" color="#E69F00"/><use xlink:href="#d" transform="matrix(4.5 0 0 4.5 279.9 308)" color="#E69F00"/><use xlink:href="#d" transform="matrix(4.5 0 0 4.5 321.8 346.2)" color="#E69F00"/><use xlink:href="#d" transform="matrix(4.5 0 0 4.5 363.7 319.8)" color="#E69F00"/><use xlink:href="#d" transform="matrix(4.5 0 0 4.5 405.6 355.4)" color="#E69F00"/><use xlink:href="#d" transform="matrix(4.5 0 0 4.5 447.5 411.7)" color="#E69F00"/><use xlink:href="#d" transform="matrix(4.5 0 0 4.5 531.2 406.4)" color="#E69F00"/><use xlink:href="#d" transform="matrix(4.5 0 0 4.5 573.1 409.4)" color="#E69F00"/><use xlink:href="#d" transform="matrix(4.5 0 0 4.5 615 427.1)" color="#E69F00"/><use xlink:href="#d" transform="matrix(4.5 0 0 4.5 413.3 502)" color="#E69F00"/></g><g><text transform="translate(583.8 487.9)" stroke="none" fill="#000" font-family="Arial" font-size="12" text-anchor="end" color="#000"><tspan>score p10=2500</tspan></text><path stroke="#F0E442" d="M592.1 484h42.2M70.5 412.9H615" fill="none" color="#000"/></g><g><text transform="translate(583.8 505.9)" stroke="none" fill="#000" font-family="Arial" font-size="12" text-anchor="end" color="#000"><tspan>score median=4000</tspan></text><path stroke="#0072B2" d="M592.1 502h42.2M70.5 391.5H615" fill="none" color="#000"/></g><g fill="none" color="#000" stroke="currentColor"><path stroke="#000" d="M70.5 18.1V448H615V18.1H70.5z"/></g></svg>