<svg width="640" height="520" xmlns="http://www.w3.org/2000/svg" xmlns:xlink="http://www.w3.org/1999/xlink"><path fill="#fff" d="M0 0h640v520H0z"/><defs><path id="g" stroke-width=".222" stroke="currentColor" d="M-1 0h2M0-1v2"/><path id="h" stroke-width=".222" stroke="currentColor" d="M-1-1l2 2m0-2l-2 2"/><path id="i" stroke-width=".222" stroke="currentColor" d="M-1 0h2M0-1v2m-1-2l2 2m-2 0l2-2"/><path id="d" stroke-width=".222" stroke="currentColor" d="M-1-1h2v2h-2z"/><path id="b" stroke-width=".222" stroke="currentColor" d="M0-1.33l-1.33 2h2.66z"/><path id="f" stroke-width=".222" stroke="currentColor" d="M0 1.33L1.265.411.782-1.067l-1.564-.009-.483 1.487z"/><use xlink:href="#b" id="c" stroke="currentColor" transform="rotate(180)"/><use xlink:href="#d" id="e" stroke="currentColor" transform="rotate(45)"/><circle id="a" stroke-width=".222" stroke="currentColor" cx="0" cy="0" r="1"/></defs><g fill="none" color="#000" stroke="currentColor"><path stroke="#000" d="M70.5 389h9m535.5 0h-9"/><text transform="translate(62.2 392.9)" stroke="none" fill="#000" font-family="Arial" font-size="12" text-anchor="end"><tspan>2000</tspan></text></g><g fill="none" color="#000" stroke="currentColor"><path stroke="#000" d="M70.5 315.2h9m535.5 0h-9"/><text transform="translate(62.2 319.1)" stroke="none" fill="#000" font-family="Arial" font-size="12" text-anchor="end"><tspan>4000</tspan></text></g><g fill="none" color="#000" stroke="currentColor"><path stroke="#000" d="M70.5 241.5h9m535.5 0h-9"/><text transform="translate(62.2 245.4)" stroke="none" fill="#000" font-family="Arial" font-size="12" text-anchor="end"><tspan>6000</tspan></text></g><g fill="none" color="#000" stroke="currentColor"><path stroke="#000" d="M70.5 167.7h9m535.5 0h-9"/><text transform="translate(62.2 171.6)" stroke="none" fill="#000" font-family="Arial" font-size="12" text-anchor="end"><tspan>8000</tspan></text></g><g fill="none" color="#000" stroke="currentColor"><path stroke="#000" d="M70.5 93.9h9m535.5 0h-9"/><text transform="translate(62.2 97.8)" stroke="none" fill="#000" font-family="Arial" font-size="12" text-anchor="end"><tspan>10000</tspan></text></g><g fill="none" color="#000" stroke="currentColor"><path stroke="#000" d="M70.5 20.1h9m535.5 0h-9"/><text transform="translate(62.2 24)" stroke="none" fill="#000" font-family="Arial" font-size="12" text-anchor="end"><tspan>12000</tspan></text></g><g fill="none" color="#000" stroke="currentColor"><path stroke="#000" d="M70.5 448v-9m0-420.9v9"/><text transform="translate(70.5 469.9)" stroke="none" fill="#000" font-family="Arial" font-size="12" text-anchor="middle"><tspan>0</tspan></text></g><g fill="none" color="#000" stroke="currentColor"><path stroke="#000" d="M154.3 448v-9m0-420.9v9"/><text transform="translate(154.3 469.9)" stroke="none" fill="#000" font-family="Arial" font-size="12" text-anchor="middle"><tspan>2</tspan></text></g><g fill="none" color="#000" stroke="currentColor"><path stroke="#000" d="M238 448v-9m0-420.9v9"/><text transform="translate(238 469.9)" stroke="none" fill="#000" font-family="Arial" font-size="12" text-anchor="middle"><tspan>4</tspan></text></g><g fill="none" color="#000" stroke="currentColor"><path stroke="#000" d="M321.8 448v-9m0-420.9v9"/><text transform="translate(321.8 469.9)" stroke="none" fill="#000" font-family="Arial" font-size="12" text-anchor="middle"><tspan>6</tspan></text></g><g fill="none" color="#000" stroke="currentColor"><path stroke="#000" d="M405.6 448v-9m0-420.9v9"/><text transform="translate(405.6 469.9)" stroke="none" fill="#000" font-family="Arial" font-size="12" text-anchor="middle"><tspan>8</tspan></text></g><g fill="none" color="#000" stroke="currentColor"><path stroke="#000" d="M489.3 448v-9m0-420.9v9"/><text transform="translate(489.3 469.9)" stroke="none" fill="#000" font-family="Arial" font-size="12" text-anchor="middle"><tspan>10</tspan></text></g><g fill="none" color="#000" stroke="currentColor"><path stroke="#000" d="M573.1 448v-9m0-420.9v9"/><text transform="translate(573.1 469.9)" stroke="none" fill="#000" font-family="Arial" font-size="12" text-anchor="middle"><tspan>12</tspan></text></g><path stroke="#000" d="M70.5 18.1V448H615V18.1H70.5z" fill="none" color="#000"/><text transform="translate(184 487.9)" stroke="none" fill="#000" font-family="Arial" font-size="12" text-anchor="end" color="#000"><tspan>p90min</tspan></text><g fill="none" color="#000" stroke="currentColor"><path stroke="#9400D3" d="M192.3 484h42.2m-164-44.3l41.9-402.8 41.9 22.3h41.9L238 395.7h41.9l41.9 11.4 41.9-11.3h41.9l41.9 5.6 41.8 5.6 41.9.2 41.9-5.7 41.9 5.7"/><use xlink:href="#g" transform="matrix(4.5 0 0 4.5 70.5 439.7)" color="#9400D3"/><use xlink:href="#g" transform="matrix(4.5 0 0 4.5 112.4 36.9)" color="#9400D3"/><use xlink:href="#g" transform="matrix(4.5 0 0 4.5 154.3 59.2)" color="#9400D3"/><use xlink:href="#g" transform="matrix(4.5 0 0 4.5 196.2 59.2)" color="#9400D3"/><use xlink:href="#g" transform="matrix(4.5 0 0 4.5 238 395.7)" color="#9400D3"/><use xlink:href="#g" transform="matrix(4.5 0 0 4.5 279.9 395.7)" color="#9400D3"/><use xlink:href="#g" transform="matrix(4.5 0 0 4.5 321.8 407.1)" color="#9400D3"/><use xlink:href="#g" transform="matrix(4.5 0 0 4.5 363.7 395.8)" color="#9400D3"/><use xlink:href="#g" transform="matrix(4.5 0 0 4.5 405.6 395.8)" color="#9400D3"/><use xlink:href="#g" transform="matrix(4.5 0 0 4.5 447.5 401.4)" color="#9400D3"/><use xlink:href="#g" transform="matrix(4.5 0 0 4.5 489.3 407)" color="#9400D3"/><use xlink:href="#g" transform="matrix(4.5 0 0 4.5 531.2 407.2)" color="#9400D3"/><use xlink:href="#g" transform="matrix(4.5 0 0 4.5 573.1 401.5)" color="#9400D3"/><use xlink:href="#g" transform="matrix(4.5 0 0 4.5 615 407.2)" color="#9400D3"/><use xlink:href="#g" transform="matrix(4.5 0 0 4.5 213.4 484)" color="#9400D3"/></g><text transform="translate(184 505.9)" stroke="none" fill="#000" font-family="Arial" font-size="12" text-anchor="end" color="#000"><tspan>p90mean</tspan></text><g fill="none" color="#000" stroke="currentColor"><path stroke="#009E73" d="M192.3 502h42.2m-164-62.4l41.9-407.5 41.9 26.3 41.9.3L238 390.4l41.9.4 41.9 11.6 41.9-6.7 41.9-5.5 41.9 11.1 41.8 5.6 41.9-2.1 41.9-3.4 41.9 5.7"/><use xlink:href="#h" transform="matrix(4.5 0 0 4.5 70.5 439.6)" color="#009E73"/><use xlink:href="#h" transform="matrix(4.5 0 0 4.5 112.4 32.1)" color="#009E73"/><use xlink:href="#h" transform="matrix(4.5 0 0 4.5 154.3 58.4)" color="#009E73"/><use xlink:href="#h" transform="matrix(4.5 0 0 4.5 196.2 58.7)" color="#009E73"/><use xlink:href="#h" transform="matrix(4.5 0 0 4.5 238 390.4)" color="#009E73"/><use xlink:href="#h" transform="matrix(4.5 0 0 4.5 279.9 390.8)" color="#009E73"/><use xlink:href="#h" transform="matrix(4.5 0 0 4.5 321.8 402.4)" color="#009E73"/><use xlink:href="#h" transform="matrix(4.5 0 0 4.5 363.7 395.7)" color="#009E73"/><use xlink:href="#h" transform="matrix(4.5 0 0 4.5 405.6 390.2)" color="#009E73"/><use xlink:href="#h" transform="matrix(4.5 0 0 4.5 447.5 401.3)" color="#009E73"/><use xlink:href="#h" transform="matrix(4.5 0 0 4.5 489.3 406.9)" color="#009E73"/><use xlink:href="#h" transform="matrix(4.5 0 0 4.5 531.2 404.8)" color="#009E73"/><use xlink:href="#h" transform="matrix(4.5 0 0 4.5 573.1 401.4)" color="#009E73"/><use xlink:href="#h" transform="matrix(4.5 0 0 4.5 615 407.1)" color="#009E73"/><use xlink:href="#h" transform="matrix(4.5 0 0 4.5 213.4 502)" color="#009E73"/></g><text transform="translate(383.9 487.9)" stroke="none" fill="#000" font-family="Arial" font-size="12" text-anchor="end" color="#000"><tspan>p90median</tspan></text><g fill="none" color="#000" stroke="currentColor"><path stroke="#56B4E9" d="M392.2 484h42.2M70.5 439.6l41.9-407.2 41.9 26.1 41.9.2L238 387.4l41.9 2.4 41.9 17.2 41.9-11.3 41.9-8.3 41.9 13.9 41.8 5.6 41.9.2 41.9-5.7 41.9 5.7"/><use xlink:href="#i" transform="matrix(4.5 0 0 4.5 70.5 439.6)" color="#56B4E9"/><use xlink:href="#i" transform="matrix(4.5 0 0 4.5 112.4 32.4)" color="#56B4E9"/><use xlink:href="#i" transform="matrix(4.5 0 0 4.5 154.3 58.5)" color="#56B4E9"/><use xlink:href="#i" transform="matrix(4.5 0 0 4.5 196.2 58.7)" color="#56B4E9"/><use xlink:href="#i" transform="matrix(4.5 0 0 4.5 238 387.4)" color="#56B4E9"/><use xlink:href="#i" transform="matrix(4.5 0 0 4.5 279.9 389.8)" color="#56B4E9"/><use xlink:href="#i" transform="matrix(4.5 0 0 4.5 321.8 407)" color="#56B4E9"/><use xlink:href="#i" transform="matrix(4.5 0 0 4.5 363.7 395.7)" color="#56B4E9"/><use xlink:href="#i" transform="matrix(4.5 0 0 4.5 405.6 387.4)" color="#56B4E9"/><use xlink:href="#i" transform="matrix(4.5 0 0 4.5 447.5 401.3)" color="#56B4E9"/><use xlink:href="#i" transform="matrix(4.5 0 0 4.5 489.3 406.9)" color="#56B4E9"/><use xlink:href="#i" transform="matrix(4.5 0 0 4.5 531.2 407.1)" color="#56B4E9"/><use xlink:href="#i" transform="matrix(4.5 0 0 4.5 573.1 401.4)" color="#56B4E9"/><use xlink:href="#i" transform="matrix(4.5 0 0 4.5 615 407.1)" color="#56B4E9"/><use xlink:href="#i" transform="matrix(4.5 0 0 4.5 413.3 484)" color="#56B4E9"/></g><text transform="translate(383.9 505.9)" stroke="none" fill="#000" font-family="Arial" font-size="12" text-anchor="end" color="#000"><tspan>p90max</tspan></text><g fill="none" color="#000" stroke="currentColor"><path stroke="#E69F00" d="M392.2 502h42.2M70.5 439.5l41.9-413.1 41.9 31 41.9.4L238 387h41.9l41.9-2.5 41.9 11 41.9-8.4 41.9 14.1 41.8 5.6 41.9-22.1 41.9 16.6 41.9 5.8"/><use xlink:href="#d" transform="matrix(4.5 0 0 4.5 70.5 439.5)" color="#E69F00"/><use xlink:href="#d" transform="matrix(4.5 0 0 4.5 112.4 26.4)" color="#E69F00"/><use xlink:href="#d" transform="matrix(4.5 0 0 4.5 154.3 57.4)" color="#E69F00"/><use xlink:href="#d" transform="matrix(4.5 0 0 4.5 196.2 57.8)" color="#E69F00"/><use xlink:href="#d" transform="matrix(4.5 0 0 4.5 238 387)" color="#E69F00"/><use xlink:href="#d" transform="matrix(4.5 0 0 4.5 279.9 387)" color="#E69F00"/><use xlink:href="#d" transform="matrix(4.5 0 0 4.5 321.8 384.5)" color="#E69F00"/><use xlink:href="#d" transform="matrix(4.5 0 0 4.5 363.7 395.5)" color="#E69F00"/><use xlink:href="#d" transform="matrix(4.5 0 0 4.5 405.6 387.1)" color="#E69F00"/><use xlink:href="#d" transform="matrix(4.5 0 0 4.5 447.5 401.2)" color="#E69F00"/><use xlink:href="#d" transform="matrix(4.5 0 0 4.5 489.3 406.8)" color="#E69F00"/><use xlink:href="#d" transform="matrix(4.5 0 0 4.5 531.2 384.7)" color="#E69F00"/><use xlink:href="#d" transform="matrix(4.5 0 0 4.5 573.1 401.3)" color="#E69F00"/><use xlink:href="#d" transform="matrix(4.5 0 0 4.5 615 407.1)" color="#E69F00"/><use xlink:href="#d" transform="matrix(4.5 0 0 4.5 413.3 502)" color="#E69F00"/></g><g><text transform="translate(583.8 487.9)" stroke="none" fill="#000" font-family="Arial" font-size="12" text-anchor="end" color="#000"><tspan>score p10=3785</tspan></text><path stroke="#F0E442" d="M592.1 484h42.2M70.5 323.2H615" fill="none" color="#000"/></g><g><text transform="translate(583.8 505.9)" stroke="none" fill="#000" font-family="Arial" font-size="12" text-anchor="end" color="#000"><tspan>score median=7300</tspan></text><path stroke="#0072B2" d="M592.1 502h42.2M70.5 193.5H615" fill="none" color="#000"/></g><g fill="none" color="#000" stroke="currentColor"><path stroke="#000" d="M70.5 18.1V448H615V18.1H70.5z"/></g></svg>