<svg width="640" height="520" xmlns="http://www.w3.org/2000/svg" xmlns:xlink="http://www.w3.org/1999/xlink"><path fill="#fff" d="M0 0h640v520H0z"/><defs><path id="g" stroke-width=".222" stroke="currentColor" d="M-1 0h2M0-1v2"/><path id="h" stroke-width=".222" stroke="currentColor" d="M-1-1l2 2m0-2l-2 2"/><path id="i" stroke-width=".222" stroke="currentColor" d="M-1 0h2M0-1v2m-1-2l2 2m-2 0l2-2"/><path id="d" stroke-width=".222" stroke="currentColor" d="M-1-1h2v2h-2z"/><path id="b" stroke-width=".222" stroke="currentColor" d="M0-1.33l-1.33 2h2.66z"/><path id="f" stroke-width=".222" stroke="currentColor" d="M0 1.33L1.265.411.782-1.067l-1.564-.009-.483 1.487z"/><use xlink:href="#b" id="c" stroke="currentColor" transform="rotate(180)"/><use xlink:href="#d" id="e" stroke="currentColor" transform="rotate(45)"/><circle id="a" stroke-width=".222" stroke="currentColor" cx="0" cy="0" r="1"/></defs><g fill="none" color="#000" stroke="currentColor"><path stroke="#000" d="M62.2 425.1h9m543.8 0h-9"/><text transform="translate(53.9 429)" stroke="none" fill="#000" font-family="Arial" font-size="12" text-anchor="end"><tspan>0.88</tspan></text></g><g fill="none" color="#000" stroke="currentColor"><path stroke="#000" d="M62.2 358.6h9m543.8 0h-9"/><text transform="translate(53.9 362.5)" stroke="none" fill="#000" font-family="Arial" font-size="12" text-anchor="end"><tspan>0.9</tspan></text></g><g fill="none" color="#000" stroke="currentColor"><path stroke="#000" d="M62.2 292.2h9m543.8 0h-9"/><text transform="translate(53.9 296.1)" stroke="none" fill="#000" font-family="Arial" font-size="12" text-anchor="end"><tspan>0.92</tspan></text></g><g fill="none" color="#000" stroke="currentColor"><path stroke="#000" d="M62.2 225.7h9m543.8 0h-9"/><text transform="translate(53.9 229.6)" stroke="none" fill="#000" font-family="Arial" font-size="12" text-anchor="end"><tspan>0.94</tspan></text></g><g fill="none" color="#000" stroke="currentColor"><path stroke="#000" d="M62.2 159.3h9m543.8 0h-9"/><text transform="translate(53.9 163.2)" stroke="none" fill="#000" font-family="Arial" font-size="12" text-anchor="end"><tspan>0.96</tspan></text></g><g fill="none" color="#000" stroke="currentColor"><path stroke="#000" d="M62.2 92.8h9m543.8 0h-9"/><text transform="translate(53.9 96.7)" stroke="none" fill="#000" font-family="Arial" font-size="12" text-anchor="end"><tspan>0.98</tspan></text></g><g fill="none" color="#000" stroke="currentColor"><path stroke="#000" d="M62.2 26.4h9m543.8 0h-9"/><text transform="translate(53.9 30.3)" stroke="none" fill="#000" font-family="Arial" font-size="12" text-anchor="end"><tspan>1</tspan></text></g><g fill="none" color="#000" stroke="currentColor"><path stroke="#000" d="M62.2 448v-9m0-420.9v9"/><text transform="translate(62.2 469.9)" stroke="none" fill="#000" font-family="Arial" font-size="12" text-anchor="middle"><tspan>0</tspan></text></g><g fill="none" color="#000" stroke="currentColor"><path stroke="#000" d="M147.2 448v-9m0-420.9v9"/><text transform="translate(147.2 469.9)" stroke="none" fill="#000" font-family="Arial" font-size="12" text-anchor="middle"><tspan>2</tspan></text></g><g fill="none" color="#000" stroke="currentColor"><path stroke="#000" d="M232.3 448v-9m0-420.9v9"/><text transform="translate(232.3 469.9)" stroke="none" fill="#000" font-family="Arial" font-size="12" text-anchor="middle"><tspan>4</tspan></text></g><g fill="none" color="#000" stroke="currentColor"><path stroke="#000" d="M317.3 448v-9m0-420.9v9"/><text transform="translate(317.3 469.9)" stroke="none" fill="#000" font-family="Arial" font-size="12" text-anchor="middle"><tspan>6</tspan></text></g><g fill="none" color="#000" stroke="currentColor"><path stroke="#000" d="M402.4 448v-9m0-420.9v9"/><text transform="translate(402.4 469.9)" stroke="none" fill="#000" font-family="Arial" font-size="12" text-anchor="middle"><tspan>8</tspan></text></g><g fill="none" color="#000" stroke="currentColor"><path stroke="#000" d="M487.4 448v-9m0-420.9v9"/><text transform="translate(487.4 469.9)" stroke="none" fill="#000" font-family="Arial" font-size="12" text-anchor="middle"><tspan>10</tspan></text></g><g fill="none" color="#000" stroke="currentColor"><path stroke="#000" d="M572.5 448v-9m0-420.9v9"/><text transform="translate(572.5 469.9)" stroke="none" fill="#000" font-family="Arial" font-size="12" text-anchor="middle"><tspan>12</tspan></text></g><path stroke="#000" d="M62.2 18.1V448H615V18.1H62.2z" fill="none" color="#000"/><text transform="translate(279.8 487.9)" stroke="none" fill="#000" font-family="Arial" font-size="12" text-anchor="end" color="#000"><tspan>score:p90min</tspan></text><g fill="none" color="#000" stroke="currentColor"><path stroke="#9400D3" d="M288.1 484h42.2M62.2 26.4l42.5 413.3h42.5l42.6-45 42.5-368.3H615"/><use xlink:href="#g" transform="matrix(4.5 0 0 4.5 62.2 26.4)" color="#9400D3"/><use xlink:href="#g" transform="matrix(4.5 0 0 4.5 104.7 439.7)" color="#9400D3"/><use xlink:href="#g" transform="matrix(4.5 0 0 4.5 147.2 439.7)" color="#9400D3"/><use xlink:href="#g" transform="matrix(4.5 0 0 4.5 189.8 394.7)" color="#9400D3"/><use xlink:href="#g" transform="matrix(4.5 0 0 4.5 232.3 26.4)" color="#9400D3"/><use xlink:href="#g" transform="matrix(4.5 0 0 4.5 274.8 26.4)" color="#9400D3"/><use xlink:href="#g" transform="matrix(4.5 0 0 4.5 317.3 26.4)" color="#9400D3"/><use xlink:href="#g" transform="matrix(4.5 0 0 4.5 359.9 26.4)" color="#9400D3"/><use xlink:href="#g" transform="matrix(4.5 0 0 4.5 402.4 26.4)" color="#9400D3"/><use xlink:href="#g" transform="matrix(4.5 0 0 4.5 444.9 26.4)" color="#9400D3"/><use xlink:href="#g" transform="matrix(4.5 0 0 4.5 487.4 26.4)" color="#9400D3"/><use xlink:href="#g" transform="matrix(4.5 0 0 4.5 530 26.4)" color="#9400D3"/><use xlink:href="#g" transform="matrix(4.5 0 0 4.5 572.5 26.4)" color="#9400D3"/><use xlink:href="#g" transform="matrix(4.5 0 0 4.5 615 26.4)" color="#9400D3"/><use xlink:href="#g" transform="matrix(4.5 0 0 4.5 309.2 484)" color="#9400D3"/></g><text transform="translate(279.8 505.9)" stroke="none" fill="#000" font-family="Arial" font-size="12" text-anchor="end" color="#000"><tspan>score:p90mean</tspan></text><g fill="none" color="#000" stroke="currentColor"><path stroke="#009E73" d="M288.1 502h42.2M62.2 26.4L104.7 385l42.5-35.3 42.6-23.8 42.5-299.5H615"/><use xlink:href="#h" transform="matrix(4.5 0 0 4.5 62.2 26.4)" color="#009E73"/><use xlink:href="#h" transform="matrix(4.5 0 0 4.5 104.7 385)" color="#009E73"/><use xlink:href="#h" transform="matrix(4.5 0 0 4.5 147.2 349.7)" color="#009E73"/><use xlink:href="#h" transform="matrix(4.5 0 0 4.5 189.8 325.9)" color="#009E73"/><use xlink:href="#h" transform="matrix(4.5 0 0 4.5 232.3 26.4)" color="#009E73"/><use xlink:href="#h" transform="matrix(4.5 0 0 4.5 274.8 26.4)" color="#009E73"/><use xlink:href="#h" transform="matrix(4.5 0 0 4.5 317.3 26.4)" color="#009E73"/><use xlink:href="#h" transform="matrix(4.5 0 0 4.5 359.9 26.4)" color="#009E73"/><use xlink:href="#h" transform="matrix(4.5 0 0 4.5 402.4 26.4)" color="#009E73"/><use xlink:href="#h" transform="matrix(4.5 0 0 4.5 444.9 26.4)" color="#009E73"/><use xlink:href="#h" transform="matrix(4.5 0 0 4.5 487.4 26.4)" color="#009E73"/><use xlink:href="#h" transform="matrix(4.5 0 0 4.5 530 26.4)" color="#009E73"/><use xlink:href="#h" transform="matrix(4.5 0 0 4.5 572.5 26.4)" color="#009E73"/><use xlink:href="#h" transform="matrix(4.5 0 0 4.5 615 26.4)" color="#009E73"/><use xlink:href="#h" transform="matrix(4.5 0 0 4.5 309.2 502)" color="#009E73"/></g><text transform="translate(463.1 487.9)" stroke="none" fill="#000" font-family="Arial" font-size="12" text-anchor="end" color="#000"><tspan>score:p90median</tspan></text><g fill="none" color="#000" stroke="currentColor"><path stroke="#56B4E9" d="M471.4 484h42.2M62.2 26.4l42.5 357.3 42.5-49.4 42.6-23.6 42.5-284.3H615"/><use xlink:href="#i" transform="matrix(4.5 0 0 4.5 62.2 26.4)" color="#56B4E9"/><use xlink:href="#i" transform="matrix(4.5 0 0 4.5 104.7 383.7)" color="#56B4E9"/><use xlink:href="#i" transform="matrix(4.5 0 0 4.5 147.2 334.3)" color="#56B4E9"/><use xlink:href="#i" transform="matrix(4.5 0 0 4.5 189.8 310.7)" color="#56B4E9"/><use xlink:href="#i" transform="matrix(4.5 0 0 4.5 232.3 26.4)" color="#56B4E9"/><use xlink:href="#i" transform="matrix(4.5 0 0 4.5 274.8 26.4)" color="#56B4E9"/><use xlink:href="#i" transform="matrix(4.5 0 0 4.5 317.3 26.4)" color="#56B4E9"/><use xlink:href="#i" transform="matrix(4.5 0 0 4.5 359.9 26.4)" color="#56B4E9"/><use xlink:href="#i" transform="matrix(4.5 0 0 4.5 402.4 26.4)" color="#56B4E9"/><use xlink:href="#i" transform="matrix(4.5 0 0 4.5 444.9 26.4)" color="#56B4E9"/><use xlink:href="#i" transform="matrix(4.5 0 0 4.5 487.4 26.4)" color="#56B4E9"/><use xlink:href="#i" transform="matrix(4.5 0 0 4.5 530 26.4)" color="#56B4E9"/><use xlink:href="#i" transform="matrix(4.5 0 0 4.5 572.5 26.4)" color="#56B4E9"/><use xlink:href="#i" transform="matrix(4.5 0 0 4.5 615 26.4)" color="#56B4E9"/><use xlink:href="#i" transform="matrix(4.5 0 0 4.5 492.5 484)" color="#56B4E9"/></g><g><text transform="translate(463.1 505.9)" stroke="none" fill="#000" font-family="Arial" font-size="12" text-anchor="end" color="#000"><tspan>score:p90max</tspan></text><g fill="none" color="#000" stroke="currentColor"><path stroke="#E69F00" d="M471.4 502h42.2M62.2 26.4l42.5 294.3 42.5-26.3 42.6-12.8 42.5-255.2H615"/><use xlink:href="#d" transform="matrix(4.5 0 0 4.5 62.2 26.4)" color="#E69F00"/><use xlink:href="#d" transform="matrix(4.5 0 0 4.5 104.7 320.7)" color="#E69F00"/><use xlink:href="#d" transform="matrix(4.5 0 0 4.5 147.2 294.4)" color="#E69F00"/><use xlink:href="#d" transform="matrix(4.5 0 0 4.5 189.8 281.6)" color="#E69F00"/><use xlink:href="#d" transform="matrix(4.5 0 0 4.5 232.3 26.4)" color="#E69F00"/><use xlink:href="#d" transform="matrix(4.5 0 0 4.5 274.8 26.4)" color="#E69F00"/><use xlink:href="#d" transform="matrix(4.5 0 0 4.5 317.3 26.4)" color="#E69F00"/><use xlink:href="#d" transform="matrix(4.5 0 0 4.5 359.9 26.4)" color="#E69F00"/><use xlink:href="#d" transform="matrix(4.5 0 0 4.5 402.4 26.4)" color="#E69F00"/><use xlink:href="#d" transform="matrix(4.5 0 0 4.5 444.9 26.4)" color="#E69F00"/><use xlink:href="#d" transform="matrix(4.5 0 0 4.5 487.4 26.4)" color="#E69F00"/><use xlink:href="#d" transform="matrix(4.5 0 0 4.5 530 26.4)" color="#E69F00"/><use xlink:href="#d" transform="matrix(4.5 0 0 4.5 572.5 26.4)" color="#E69F00"/><use xlink:href="#d" transform="matrix(4.5 0 0 4.5 615 26.4)" color="#E69F00"/><use xlink:href="#d" transform="matrix(4.5 0 0 4.5 492.5 502)" color="#E69F00"/></g></g><g fill="none" color="#000" stroke="currentColor"><path stroke="#000" d="M62.2 18.1V448H615V18.1H62.2z"/></g></svg>