<svg width="640" height="500" xmlns="http://www.w3.org/2000/svg" xmlns:xlink="http://www.w3.org/1999/xlink"><path fill="#fff" d="M0 0h640v500H0z"/><defs><path id="d" stroke-width=".222" stroke="currentColor" d="M-1-1h2v2h-2z"/><path id="b" stroke-width=".222" stroke="currentColor" d="M0-1.33l-1.33 2h2.66z"/><path id="f" stroke-width=".222" stroke="currentColor" d="M0 1.33L1.265.411.782-1.067l-1.564-.009-.483 1.487z"/><use xlink:href="#b" id="c" stroke="currentColor" transform="rotate(180)"/><use xlink:href="#d" id="e" stroke="currentColor" transform="rotate(45)"/><circle id="a" stroke-width=".222" stroke="currentColor" cx="0" cy="0" r="1"/></defs><g fill="none" color="#000" stroke="currentColor"><path stroke="#000" d="M53.9 387.5h9m552.1 0h-9"/><text transform="translate(45.6 391.4)" stroke="none" fill="#000" font-family="Arial" font-size="12" text-anchor="end"><tspan>700</tspan></text></g><g fill="none" color="#000" stroke="currentColor"><path stroke="#000" d="M53.9 342.8h9m552.1 0h-9"/><text transform="translate(45.6 346.7)" stroke="none" fill="#000" font-family="Arial" font-size="12" text-anchor="end"><tspan>720</tspan></text></g><g fill="none" color="#000" stroke="currentColor"><path stroke="#000" d="M53.9 298.2h9m552.1 0h-9"/><text transform="translate(45.6 302.1)" stroke="none" fill="#000" font-family="Arial" font-size="12" text-anchor="end"><tspan>740</tspan></text></g><g fill="none" color="#000" stroke="currentColor"><path stroke="#000" d="M53.9 253.5h9m552.1 0h-9"/><text transform="translate(45.6 257.4)" stroke="none" fill="#000" font-family="Arial" font-size="12" text-anchor="end"><tspan>760</tspan></text></g><g fill="none" color="#000" stroke="currentColor"><path stroke="#000" d="M53.9 208.9h9m552.1 0h-9"/><text transform="translate(45.6 212.8)" stroke="none" fill="#000" font-family="Arial" font-size="12" text-anchor="end"><tspan>780</tspan></text></g><g fill="none" color="#000" stroke="currentColor"><path stroke="#000" d="M53.9 164.2h9m552.1 0h-9"/><text transform="translate(45.6 168.1)" stroke="none" fill="#000" font-family="Arial" font-size="12" text-anchor="end"><tspan>800</tspan></text></g><g fill="none" color="#000" stroke="currentColor"><path stroke="#000" d="M53.9 119.6h9m552.1 0h-9"/><text transform="translate(45.6 123.5)" stroke="none" fill="#000" font-family="Arial" font-size="12" text-anchor="end"><tspan>820</tspan></text></g><g fill="none" color="#000" stroke="currentColor"><path stroke="#000" d="M53.9 74.9h9m552.1 0h-9"/><text transform="translate(45.6 78.8)" stroke="none" fill="#000" font-family="Arial" font-size="12" text-anchor="end"><tspan>840</tspan></text></g><g fill="none" color="#000" stroke="currentColor"><path stroke="#000" d="M53.9 30.3h9m552.1 0h-9"/><text transform="translate(45.6 34.2)" stroke="none" fill="#000" font-family="Arial" font-size="12" text-anchor="end"><tspan>860</tspan></text></g><g fill="none" color="#000" stroke="currentColor"><path stroke="#000" d="M53.9 428v-9m0-400.9v9"/><text transform="translate(53.9 449.9)" stroke="none" fill="#000" font-family="Arial" font-size="12" text-anchor="middle"><tspan>0</tspan></text></g><g fill="none" color="#000" stroke="currentColor"><path stroke="#000" d="M110.6 428v-9m0-400.9v9"/><text transform="translate(110.6 449.9)" stroke="none" fill="#000" font-family="Arial" font-size="12" text-anchor="middle"><tspan>10</tspan></text></g><g fill="none" color="#000" stroke="currentColor"><path stroke="#000" d="M167.3 428v-9m0-400.9v9"/><text transform="translate(167.3 449.9)" stroke="none" fill="#000" font-family="Arial" font-size="12" text-anchor="middle"><tspan>20</tspan></text></g><g fill="none" color="#000" stroke="currentColor"><path stroke="#000" d="M223.9 428v-9m0-400.9v9"/><text transform="translate(223.9 449.9)" stroke="none" fill="#000" font-family="Arial" font-size="12" text-anchor="middle"><tspan>30</tspan></text></g><g fill="none" color="#000" stroke="currentColor"><path stroke="#000" d="M280.6 428v-9m0-400.9v9"/><text transform="translate(280.6 449.9)" stroke="none" fill="#000" font-family="Arial" font-size="12" text-anchor="middle"><tspan>40</tspan></text></g><g fill="none" color="#000" stroke="currentColor"><path stroke="#000" d="M337.3 428v-9m0-400.9v9"/><text transform="translate(337.3 449.9)" stroke="none" fill="#000" font-family="Arial" font-size="12" text-anchor="middle"><tspan>50</tspan></text></g><g fill="none" color="#000" stroke="currentColor"><path stroke="#000" d="M394 428v-9m0-400.9v9"/><text transform="translate(394 449.9)" stroke="none" fill="#000" font-family="Arial" font-size="12" text-anchor="middle"><tspan>60</tspan></text></g><g fill="none" color="#000" stroke="currentColor"><path stroke="#000" d="M450.6 428v-9m0-400.9v9"/><text transform="translate(450.6 449.9)" stroke="none" fill="#000" font-family="Arial" font-size="12" text-anchor="middle"><tspan>70</tspan></text></g><g fill="none" color="#000" stroke="currentColor"><path stroke="#000" d="M507.3 428v-9m0-400.9v9"/><text transform="translate(507.3 449.9)" stroke="none" fill="#000" font-family="Arial" font-size="12" text-anchor="middle"><tspan>80</tspan></text></g><g fill="none" color="#000" stroke="currentColor"><path stroke="#000" d="M564 428v-9m0-400.9v9"/><text transform="translate(564 449.9)" stroke="none" fill="#000" font-family="Arial" font-size="12" text-anchor="middle"><tspan>90</tspan></text></g><path stroke="#000" d="M53.9 18.1V428H615V18.1H53.9z" fill="none" color="#000"/><text transform="translate(275.6 467.9)" stroke="none" fill="#000" font-family="Arial" font-size="12" text-anchor="end" color="#000"><tspan>pages+cached+noexternal+nosvg</tspan></text><path stroke="#9400D3" d="M283.9 464h42.2M53.9 318.1l5.7-6.2 5.6-15.5 5.7-.7 5.7-4.4 5.6-1.8 5.7-.6 5.7-2.6h5.6l5.7-1.7 5.7-.4 5.6-.2 5.7-.8 5.7-2.7 5.6-3.6 5.7-2.3 5.7-.1 5.7-3.6 5.6-.2 5.7-1.8 5.7-1.4 5.6-.2 5.7-.4 5.7-1.4h5.6l5.7-.1 5.7-2.1 5.6-.4h5.7l5.7-.9 5.6-1.1 5.7-1.7 5.7-1.1 5.6-1.2 5.7-.1 5.7-.1 5.6-.7 5.7-.8 5.7-1.3 5.6-.3 5.7-.9 5.7-.8 5.6-.8 5.7-.6 5.7-.6 5.6-.7 5.7-.4 5.7-1.9 5.6-.3 5.7-4.2 5.7-2.6 5.7-.2 5.6-.2 5.7-1.9 5.7-.2 5.6-1.4 5.7-.9 5.7-.6 5.6-2.5 5.7-3.6 5.7-1.1 5.6-.5 5.7-1.3 5.7-.7 5.6-.4 5.7-1.8 5.7-1.6 5.6-6.3 5.7-1.9 5.7-.2 5.6-.2 5.7-.2 5.7-1.3 5.6-3.7 5.7-.1 5.7-.5 5.6-.4 5.7-2.9 5.7-.4 5.6-1.5 5.7-3 5.7-.9 5.6-.7 5.7-1 5.7-.4 5.7-1.2 5.6-.3 5.7-2.5 5.7-2 5.6-.2 5.7-.1 5.7-2 5.6-1.9 5.7-.6 5.7-1.5 5.6-.3 5.7-1.1 5.7-36.2 5.6-31.9L615 26" fill="none" color="#000"/><text transform="translate(275.6 485.9)" stroke="none" fill="#000" font-family="Arial" font-size="12" text-anchor="end" color="#000"><tspan>pages+cached+noexternal+noimg</tspan></text><path stroke="#009E73" d="M283.9 482h42.2M53.9 420.1l5.7-36.8 5.6-2.3 5.7-2.6 5.7-3.1 5.6-3.6 5.7-4.4 5.7-.2 5.6-.1 5.7-1.2 5.7-10.9 5.6-.2 5.7-3.4 5.7-.9 5.6-.7 5.7-2.7 5.7-.8 5.7-.2 5.6-2.9 5.7-2.6 5.7-.3 5.6-.8 5.7-2.3 5.7-1 5.6-3.6 5.7-2.1 5.7-1.4 5.6-.7 5.7-.5 5.7-.1 5.6-.9 5.7-.2 5.7-1.9 5.6-.4 5.7-.4 5.7-.2 5.6-.2 5.7-1.3 5.7-.2 5.6-2.1 5.7-.9 5.7-.6 5.6-.3 5.7-1.9 5.7-.1 5.6-.5 5.7-1.9 5.7-.8 5.6-.7 5.7-1.2 5.7-.1 5.7-.3 5.6-.4 5.7-.1 5.7-.6 5.6-.2 5.7-1.7 5.7-.3 5.6-.3 5.7-.3 5.7-.2h5.6l5.7-.1 5.7-.3 5.6-.4 5.7-1.1 5.7-1.6 5.6-1.8 5.7-2.4 5.7-1.6 5.6-.2 5.7-1.4 5.7-.7 5.6-.2 5.7-.6 5.7-1.5 5.6-1.4 5.7-.8 5.7-.1 5.6-2.1 5.7-2.5 5.7-1.6 5.6-1.4 5.7-.1 5.7-3.1 5.7-1.7 5.6-.8 5.7-.3 5.7-5.2 5.6-7 5.7-3.4 5.7-1.9 5.6-3.1 5.7-5.4h5.7l5.6-3.6 5.7-12 5.7-12.2 5.6-25.1 5.7-4.1" fill="none" color="#000"/><text transform="translate(575.1 467.9)" stroke="none" fill="#000" font-family="Arial" font-size="12" text-anchor="end" color="#000"><tspan>score p10=2017</tspan></text><path stroke="#56B4E9" d="M583.4 464h42.2" fill="none" color="#000"/><g><text transform="translate(575.1 485.9)" stroke="none" fill="#000" font-family="Arial" font-size="12" text-anchor="end" color="#000"><tspan>score median=4000</tspan></text><path stroke="#E69F00" d="M583.4 482h42.2" fill="none" color="#000"/></g><g fill="none" color="#000" stroke="currentColor"><path stroke="#000" d="M53.9 18.1V428H615V18.1H53.9z"/></g></svg>