<svg width="640" height="500" xmlns="http://www.w3.org/2000/svg" xmlns:xlink="http://www.w3.org/1999/xlink"><path fill="#fff" d="M0 0h640v500H0z"/><defs><path id="d" stroke-width=".222" stroke="currentColor" d="M-1-1h2v2h-2z"/><path id="b" stroke-width=".222" stroke="currentColor" d="M0-1.33l-1.33 2h2.66z"/><path id="f" stroke-width=".222" stroke="currentColor" d="M0 1.33L1.265.411.782-1.067l-1.564-.009-.483 1.487z"/><use xlink:href="#b" id="c" stroke="currentColor" transform="rotate(180)"/><use xlink:href="#d" id="e" stroke="currentColor" transform="rotate(45)"/><circle id="a" stroke-width=".222" stroke="currentColor" cx="0" cy="0" r="1"/></defs><g fill="none" color="#000" stroke="currentColor"><path stroke="#000" d="M53.9 423.8h9m552.1 0h-9"/><text transform="translate(45.6 427.7)" stroke="none" fill="#000" font-family="Arial" font-size="12" text-anchor="end"><tspan>400</tspan></text></g><g fill="none" color="#000" stroke="currentColor"><path stroke="#000" d="M53.9 372.4h9m552.1 0h-9"/><text transform="translate(45.6 376.3)" stroke="none" fill="#000" font-family="Arial" font-size="12" text-anchor="end"><tspan>450</tspan></text></g><g fill="none" color="#000" stroke="currentColor"><path stroke="#000" d="M53.9 321h9m552.1 0h-9"/><text transform="translate(45.6 324.9)" stroke="none" fill="#000" font-family="Arial" font-size="12" text-anchor="end"><tspan>500</tspan></text></g><g fill="none" color="#000" stroke="currentColor"><path stroke="#000" d="M53.9 269.5h9m552.1 0h-9"/><text transform="translate(45.6 273.4)" stroke="none" fill="#000" font-family="Arial" font-size="12" text-anchor="end"><tspan>550</tspan></text></g><g fill="none" color="#000" stroke="currentColor"><path stroke="#000" d="M53.9 218.1h9m552.1 0h-9"/><text transform="translate(45.6 222)" stroke="none" fill="#000" font-family="Arial" font-size="12" text-anchor="end"><tspan>600</tspan></text></g><g fill="none" color="#000" stroke="currentColor"><path stroke="#000" d="M53.9 166.7h9m552.1 0h-9"/><text transform="translate(45.6 170.6)" stroke="none" fill="#000" font-family="Arial" font-size="12" text-anchor="end"><tspan>650</tspan></text></g><g fill="none" color="#000" stroke="currentColor"><path stroke="#000" d="M53.9 115.3h9m552.1 0h-9"/><text transform="translate(45.6 119.2)" stroke="none" fill="#000" font-family="Arial" font-size="12" text-anchor="end"><tspan>700</tspan></text></g><g fill="none" color="#000" stroke="currentColor"><path stroke="#000" d="M53.9 63.8h9m552.1 0h-9"/><text transform="translate(45.6 67.7)" stroke="none" fill="#000" font-family="Arial" font-size="12" text-anchor="end"><tspan>750</tspan></text></g><g fill="none" color="#000" stroke="currentColor"><path stroke="#000" d="M53.9 428v-9m0-400.9v9"/><text transform="translate(53.9 449.9)" stroke="none" fill="#000" font-family="Arial" font-size="12" text-anchor="middle"><tspan>0</tspan></text></g><g fill="none" color="#000" stroke="currentColor"><path stroke="#000" d="M110.6 428v-9m0-400.9v9"/><text transform="translate(110.6 449.9)" stroke="none" fill="#000" font-family="Arial" font-size="12" text-anchor="middle"><tspan>10</tspan></text></g><g fill="none" color="#000" stroke="currentColor"><path stroke="#000" d="M167.3 428v-9m0-400.9v9"/><text transform="translate(167.3 449.9)" stroke="none" fill="#000" font-family="Arial" font-size="12" text-anchor="middle"><tspan>20</tspan></text></g><g fill="none" color="#000" stroke="currentColor"><path stroke="#000" d="M223.9 428v-9m0-400.9v9"/><text transform="translate(223.9 449.9)" stroke="none" fill="#000" font-family="Arial" font-size="12" text-anchor="middle"><tspan>30</tspan></text></g><g fill="none" color="#000" stroke="currentColor"><path stroke="#000" d="M280.6 428v-9m0-400.9v9"/><text transform="translate(280.6 449.9)" stroke="none" fill="#000" font-family="Arial" font-size="12" text-anchor="middle"><tspan>40</tspan></text></g><g fill="none" color="#000" stroke="currentColor"><path stroke="#000" d="M337.3 428v-9m0-400.9v9"/><text transform="translate(337.3 449.9)" stroke="none" fill="#000" font-family="Arial" font-size="12" text-anchor="middle"><tspan>50</tspan></text></g><g fill="none" color="#000" stroke="currentColor"><path stroke="#000" d="M394 428v-9m0-400.9v9"/><text transform="translate(394 449.9)" stroke="none" fill="#000" font-family="Arial" font-size="12" text-anchor="middle"><tspan>60</tspan></text></g><g fill="none" color="#000" stroke="currentColor"><path stroke="#000" d="M450.6 428v-9m0-400.9v9"/><text transform="translate(450.6 449.9)" stroke="none" fill="#000" font-family="Arial" font-size="12" text-anchor="middle"><tspan>70</tspan></text></g><g fill="none" color="#000" stroke="currentColor"><path stroke="#000" d="M507.3 428v-9m0-400.9v9"/><text transform="translate(507.3 449.9)" stroke="none" fill="#000" font-family="Arial" font-size="12" text-anchor="middle"><tspan>80</tspan></text></g><g fill="none" color="#000" stroke="currentColor"><path stroke="#000" d="M564 428v-9m0-400.9v9"/><text transform="translate(564 449.9)" stroke="none" fill="#000" font-family="Arial" font-size="12" text-anchor="middle"><tspan>90</tspan></text></g><path stroke="#000" d="M53.9 18.1V428H615V18.1H53.9z" fill="none" color="#000"/><text transform="translate(275.6 467.9)" stroke="none" fill="#000" font-family="Arial" font-size="12" text-anchor="end" color="#000"><tspan>pages+cached+noexternal+noimg</tspan></text><path stroke="#9400D3" d="M283.9 464h42.2M53.9 130.3l5.7-17 5.6-1.1 5.7-1.1 5.7-1.5 5.6-1.6 5.7-2 5.7-.1 5.6-.1 5.7-.5 5.7-5.1 5.6-.1 5.7-1.5 5.7-.5 5.6-.3 5.7-1.2 5.7-.4h5.7l5.6-1.4 5.7-1.2 5.7-.1 5.6-.4 5.7-1 5.7-.5 5.6-1.7 5.7-.9 5.7-.7 5.6-.3 5.7-.2 5.7-.1 5.6-.4 5.7-.1 5.7-.9 5.6-.2 5.7-.1 5.7-.2h5.6l5.7-.6 5.7-.1 5.6-1 5.7-.4 5.7-.3 5.6-.1 5.7-.9h5.7l5.6-.3 5.7-.8 5.7-.4 5.6-.3 5.7-.6h5.7l5.7-.2 5.6-.1 5.7-.1 5.7-.3h5.6l5.7-.9 5.7-.1 5.6-.2 5.7-.1h11.3l5.7-.1 5.7-.1 5.6-.2 5.7-.5 5.7-.8 5.6-.8 5.7-1.1 5.7-.7 5.6-.2 5.7-.6 5.7-.3 5.6-.1 5.7-.3 5.7-.7 5.6-.6 5.7-.4h5.7l5.6-1 5.7-1.1 5.7-.8 5.6-.6 5.7-.1 5.7-1.4 5.7-.8 5.6-.4 5.7-.1 5.7-2.4 5.6-3.2L564 57l5.7-.8 5.6-1.5 5.7-2.4 5.7-.1 5.6-1.6L598 45l5.7-5.6 5.6-11.5L615 26" fill="none" color="#000"/><text transform="translate(275.6 485.9)" stroke="none" fill="#000" font-family="Arial" font-size="12" text-anchor="end" color="#000"><tspan>pages+cached+noexternal+nocss</tspan></text><path stroke="#009E73" d="M283.9 482h42.2M53.9 420.1l5.7-4.6 5.6-54.4 5.7-1.4 5.7-1 5.6-.4 5.7-2.9 5.7-.2 5.6-.3 5.7-.5 5.7-.2h5.6l5.7-3.1 5.7-.4 5.6-.3 5.7-.3 5.7-1h5.7l5.6-.3 5.7-.1 5.7-.2 5.6-.2 5.7-.1 5.7-.3 5.6-.1 5.7-.1 5.7-.2 5.6-.1 5.7-.2 5.7-.4 5.6-.1 5.7-.5 5.7-.1 5.6-.2 5.7-.2 5.7-.6h17l5.6-.1h5.7l5.7-.3h5.6l5.7-.2h5.7l5.6-.2 5.7-.3 5.7-.2 5.6-.3 5.7-.1 5.7-.3h5.7l5.6-.2 5.7-.1 5.7-.6 5.6-.4 5.7-.3 5.7-.3 5.6-.2 5.7-.4 5.7-.2 5.6-.1 5.7-.2 5.7-.2 5.6-.3 5.7-.3 5.7-.3 5.6-.2 5.7-.3 5.7-.4 5.6-1 5.7-.1 5.7-.1 5.6-.2 5.7-.3h5.7l5.6-.2 5.7-.6 5.7-.6 5.6-.4 5.7-.4 5.7-.5 5.6-.9 5.7-.2h5.7l5.7-.5 5.6-.6 5.7-.4 5.7-1.7 5.6-.2 5.7-.2 5.7-1.1 5.6-.9 5.7-.4 5.7-.5 5.6-.1 5.7-2.5 5.7-3.3 5.6-5.8 5.7-39.3" fill="none" color="#000"/><text transform="translate(575.1 467.9)" stroke="none" fill="#000" font-family="Arial" font-size="12" text-anchor="end" color="#000"><tspan>score p10=2017</tspan></text><path stroke="#56B4E9" d="M583.4 464h42.2" fill="none" color="#000"/><g><text transform="translate(575.1 485.9)" stroke="none" fill="#000" font-family="Arial" font-size="12" text-anchor="end" color="#000"><tspan>score median=4000</tspan></text><path stroke="#E69F00" d="M583.4 482h42.2" fill="none" color="#000"/></g><g fill="none" color="#000" stroke="currentColor"><path stroke="#000" d="M53.9 18.1V428H615V18.1H53.9z"/></g></svg>