<svg width="640" height="490" xmlns="http://www.w3.org/2000/svg" xmlns:xlink="http://www.w3.org/1999/xlink"><path fill="#fff" d="M0 0h640v490H0z"/><defs><path id="d" stroke-width=".222" stroke="currentColor" d="M-1-1h2v2h-2z"/><path id="b" stroke-width=".222" stroke="currentColor" d="M0-1.33l-1.33 2h2.66z"/><path id="f" stroke-width=".222" stroke="currentColor" d="M0 1.33L1.265.411.782-1.067l-1.564-.009-.483 1.487z"/><use xlink:href="#b" id="c" stroke="currentColor" transform="rotate(180)"/><use xlink:href="#d" id="e" stroke="currentColor" transform="rotate(45)"/><circle id="a" stroke-width=".222" stroke="currentColor" cx="0" cy="0" r="1"/></defs><g fill="none" color="#000" stroke="currentColor"><path stroke="#000" d="M62.2 397.4h9m543.8 0h-9"/><text transform="translate(53.9 401.3)" stroke="none" fill="#000" font-family="Arial" font-size="12" text-anchor="end"><tspan>1500</tspan></text></g><g fill="none" color="#000" stroke="currentColor"><path stroke="#000" d="M62.2 337.8h9m543.8 0h-9"/><text transform="translate(53.9 341.7)" stroke="none" fill="#000" font-family="Arial" font-size="12" text-anchor="end"><tspan>1600</tspan></text></g><g fill="none" color="#000" stroke="currentColor"><path stroke="#000" d="M62.2 278.1h9m543.8 0h-9"/><text transform="translate(53.9 282)" stroke="none" fill="#000" font-family="Arial" font-size="12" text-anchor="end"><tspan>1700</tspan></text></g><g fill="none" color="#000" stroke="currentColor"><path stroke="#000" d="M62.2 218.4h9m543.8 0h-9"/><text transform="translate(53.9 222.3)" stroke="none" fill="#000" font-family="Arial" font-size="12" text-anchor="end"><tspan>1800</tspan></text></g><g fill="none" color="#000" stroke="currentColor"><path stroke="#000" d="M62.2 158.7h9m543.8 0h-9"/><text transform="translate(53.9 162.6)" stroke="none" fill="#000" font-family="Arial" font-size="12" text-anchor="end"><tspan>1900</tspan></text></g><g fill="none" color="#000" stroke="currentColor"><path stroke="#000" d="M62.2 99.1h9m543.8 0h-9"/><text transform="translate(53.9 103)" stroke="none" fill="#000" font-family="Arial" font-size="12" text-anchor="end"><tspan>2000</tspan></text></g><g fill="none" color="#000" stroke="currentColor"><path stroke="#000" d="M62.2 39.4h9m543.8 0h-9"/><text transform="translate(53.9 43.3)" stroke="none" fill="#000" font-family="Arial" font-size="12" text-anchor="end"><tspan>2100</tspan></text></g><g fill="none" color="#000" stroke="currentColor"><path stroke="#000" d="M62.2 400v-9m0-372.9v9"/><text transform="translate(62.2 421.9)" stroke="none" fill="#000" font-family="Arial" font-size="12" text-anchor="middle"><tspan>0</tspan></text></g><g fill="none" color="#000" stroke="currentColor"><path stroke="#000" d="M118 400v-9m0-372.9v9"/><text transform="translate(118 421.9)" stroke="none" fill="#000" font-family="Arial" font-size="12" text-anchor="middle"><tspan>10</tspan></text></g><g fill="none" color="#000" stroke="currentColor"><path stroke="#000" d="M173.9 400v-9m0-372.9v9"/><text transform="translate(173.9 421.9)" stroke="none" fill="#000" font-family="Arial" font-size="12" text-anchor="middle"><tspan>20</tspan></text></g><g fill="none" color="#000" stroke="currentColor"><path stroke="#000" d="M229.7 400v-9m0-372.9v9"/><text transform="translate(229.7 421.9)" stroke="none" fill="#000" font-family="Arial" font-size="12" text-anchor="middle"><tspan>30</tspan></text></g><g fill="none" color="#000" stroke="currentColor"><path stroke="#000" d="M285.6 400v-9m0-372.9v9"/><text transform="translate(285.6 421.9)" stroke="none" fill="#000" font-family="Arial" font-size="12" text-anchor="middle"><tspan>40</tspan></text></g><g fill="none" color="#000" stroke="currentColor"><path stroke="#000" d="M341.4 400v-9m0-372.9v9"/><text transform="translate(341.4 421.9)" stroke="none" fill="#000" font-family="Arial" font-size="12" text-anchor="middle"><tspan>50</tspan></text></g><g fill="none" color="#000" stroke="currentColor"><path stroke="#000" d="M397.2 400v-9m0-372.9v9"/><text transform="translate(397.2 421.9)" stroke="none" fill="#000" font-family="Arial" font-size="12" text-anchor="middle"><tspan>60</tspan></text></g><g fill="none" color="#000" stroke="currentColor"><path stroke="#000" d="M453.1 400v-9m0-372.9v9"/><text transform="translate(453.1 421.9)" stroke="none" fill="#000" font-family="Arial" font-size="12" text-anchor="middle"><tspan>70</tspan></text></g><g fill="none" color="#000" stroke="currentColor"><path stroke="#000" d="M508.9 400v-9m0-372.9v9"/><text transform="translate(508.9 421.9)" stroke="none" fill="#000" font-family="Arial" font-size="12" text-anchor="middle"><tspan>80</tspan></text></g><g fill="none" color="#000" stroke="currentColor"><path stroke="#000" d="M564.7 400v-9m0-372.9v9"/><text transform="translate(564.7 421.9)" stroke="none" fill="#000" font-family="Arial" font-size="12" text-anchor="middle"><tspan>90</tspan></text></g><path stroke="#000" d="M62.2 18.1V400H615V18.1H62.2z" fill="none" color="#000"/><text transform="translate(487.6 439.9)" stroke="none" fill="#000" font-family="Arial" font-size="12" text-anchor="end" color="#000"><tspan>pages+cached+noexternal+nofonts+nosvg+noimg</tspan></text><path stroke="#9400D3" d="M495.9 436h42.2M62.2 390.9l5.6.7 5.6-.6L79 28.6l5.5 362.3 5.6.5 5.6-362.5 5.6 362 5.6 1.4 5.6-1.5 5.5.1h5.6l5.6.7 5.6-.3 5.6-363.1 5.6.8 5.5 135.2 5.6 226.6 5.6.6 5.6.7 5.6-.7h5.6l5.5-.1 5.6-.1 5.6.2 5.6.4 5.6-.3 5.6.4 5.5-.7 5.6.2 5.6.1 5.6-366.1 5.6 365.6 5.6.4 5.6-.4 5.5-180.5 5.6 180.6 5.6.7 5.6.1 5.6-.3h11.1l5.6-1.4 5.6-179.5 5.6 180.7L313.5 29l5.6 362.7 5.5-.6 5.6-.8 5.6 1.2 5.6.1 5.6-.3 5.6-181 5.5 181.1 5.6-.7 5.6.3 5.6-363.8 5.6 364 5.6.4 5.5-227 5.6 226.4 5.6.8 5.6-366 5.6 4.8 5.6 361.5 5.5-1.1 5.6.8 5.6-181.9 5.6 182.1 5.6-1 5.6 1.2 5.6-181.1 5.5 180.9 5.6.7 5.6-1.3 5.6.3 5.6-.4 5.6 1 5.5-1.3 5.6-360.4 5.6 361.2 5.6-1.4 5.6.9 5.6-361 5.5 361.1 5.6-.5h5.6l5.6.2 5.6-362.8 5.6.1 5.5 362.2 5.6-179.6 5.6 179.9 5.6.3 5.6.4 5.6.2 5.5-.8 5.6.9 5.6-.6L615 29" fill="none" color="#000"/><text transform="translate(487.6 457.9)" stroke="none" fill="#000" font-family="Arial" font-size="12" text-anchor="end" color="#000"><tspan>score p10=3387</tspan></text><path stroke="#009E73" d="M495.9 454h42.2" fill="none" color="#000"/><text transform="translate(487.6 475.9)" stroke="none" fill="#000" font-family="Arial" font-size="12" text-anchor="end" color="#000"><tspan>score median=5800</tspan></text><path stroke="#56B4E9" d="M495.9 472h42.2" fill="none" color="#000"/><g fill="none" color="#000" stroke="currentColor"><path stroke="#000" d="M62.2 18.1V400H615V18.1H62.2z"/></g></svg>