<svg width="640" height="500" xmlns="http://www.w3.org/2000/svg" xmlns:xlink="http://www.w3.org/1999/xlink"><path fill="#fff" d="M0 0h640v500H0z"/><defs><path id="d" stroke-width=".222" stroke="currentColor" d="M-1-1h2v2h-2z"/><path id="b" stroke-width=".222" stroke="currentColor" d="M0-1.33l-1.33 2h2.66z"/><path id="f" stroke-width=".222" stroke="currentColor" d="M0 1.33L1.265.411.782-1.067l-1.564-.009-.483 1.487z"/><use xlink:href="#b" id="c" stroke="currentColor" transform="rotate(180)"/><use xlink:href="#d" id="e" stroke="currentColor" transform="rotate(45)"/><circle id="a" stroke-width=".222" stroke="currentColor" cx="0" cy="0" r="1"/></defs><g fill="none" color="#000" stroke="currentColor"><path stroke="#000" d="M62.2 424.9h9m543.8 0h-9"/><text transform="translate(53.9 428.8)" stroke="none" fill="#000" font-family="Arial" font-size="12" text-anchor="end"><tspan>2500</tspan></text></g><g fill="none" color="#000" stroke="currentColor"><path stroke="#000" d="M62.2 343.4h9m543.8 0h-9"/><text transform="translate(53.9 347.3)" stroke="none" fill="#000" font-family="Arial" font-size="12" text-anchor="end"><tspan>3000</tspan></text></g><g fill="none" color="#000" stroke="currentColor"><path stroke="#000" d="M62.2 261.9h9m543.8 0h-9"/><text transform="translate(53.9 265.8)" stroke="none" fill="#000" font-family="Arial" font-size="12" text-anchor="end"><tspan>3500</tspan></text></g><g fill="none" color="#000" stroke="currentColor"><path stroke="#000" d="M62.2 180.4h9m543.8 0h-9"/><text transform="translate(53.9 184.3)" stroke="none" fill="#000" font-family="Arial" font-size="12" text-anchor="end"><tspan>4000</tspan></text></g><g fill="none" color="#000" stroke="currentColor"><path stroke="#000" d="M62.2 98.9h9m543.8 0h-9"/><text transform="translate(53.9 102.8)" stroke="none" fill="#000" font-family="Arial" font-size="12" text-anchor="end"><tspan>4500</tspan></text></g><g fill="none" color="#000" stroke="currentColor"><path stroke="#000" d="M62.2 17.4h9m543.8 0h-9"/><text transform="translate(53.9 21.3)" stroke="none" fill="#000" font-family="Arial" font-size="12" text-anchor="end"><tspan>5000</tspan></text></g><g fill="none" color="#000" stroke="currentColor"><path stroke="#000" d="M62.2 428v-9m0-400.9v9"/><text transform="translate(62.2 449.9)" stroke="none" fill="#000" font-family="Arial" font-size="12" text-anchor="middle"><tspan>0</tspan></text></g><g fill="none" color="#000" stroke="currentColor"><path stroke="#000" d="M118 428v-9m0-400.9v9"/><text transform="translate(118 449.9)" stroke="none" fill="#000" font-family="Arial" font-size="12" text-anchor="middle"><tspan>10</tspan></text></g><g fill="none" color="#000" stroke="currentColor"><path stroke="#000" d="M173.9 428v-9m0-400.9v9"/><text transform="translate(173.9 449.9)" stroke="none" fill="#000" font-family="Arial" font-size="12" text-anchor="middle"><tspan>20</tspan></text></g><g fill="none" color="#000" stroke="currentColor"><path stroke="#000" d="M229.7 428v-9m0-400.9v9"/><text transform="translate(229.7 449.9)" stroke="none" fill="#000" font-family="Arial" font-size="12" text-anchor="middle"><tspan>30</tspan></text></g><g fill="none" color="#000" stroke="currentColor"><path stroke="#000" d="M285.6 428v-9m0-400.9v9"/><text transform="translate(285.6 449.9)" stroke="none" fill="#000" font-family="Arial" font-size="12" text-anchor="middle"><tspan>40</tspan></text></g><g fill="none" color="#000" stroke="currentColor"><path stroke="#000" d="M341.4 428v-9m0-400.9v9"/><text transform="translate(341.4 449.9)" stroke="none" fill="#000" font-family="Arial" font-size="12" text-anchor="middle"><tspan>50</tspan></text></g><g fill="none" color="#000" stroke="currentColor"><path stroke="#000" d="M397.2 428v-9m0-400.9v9"/><text transform="translate(397.2 449.9)" stroke="none" fill="#000" font-family="Arial" font-size="12" text-anchor="middle"><tspan>60</tspan></text></g><g fill="none" color="#000" stroke="currentColor"><path stroke="#000" d="M453.1 428v-9m0-400.9v9"/><text transform="translate(453.1 449.9)" stroke="none" fill="#000" font-family="Arial" font-size="12" text-anchor="middle"><tspan>70</tspan></text></g><g fill="none" color="#000" stroke="currentColor"><path stroke="#000" d="M508.9 428v-9m0-400.9v9"/><text transform="translate(508.9 449.9)" stroke="none" fill="#000" font-family="Arial" font-size="12" text-anchor="middle"><tspan>80</tspan></text></g><g fill="none" color="#000" stroke="currentColor"><path stroke="#000" d="M564.7 428v-9m0-400.9v9"/><text transform="translate(564.7 449.9)" stroke="none" fill="#000" font-family="Arial" font-size="12" text-anchor="middle"><tspan>90</tspan></text></g><path stroke="#000" d="M62.2 18.1V428H615V18.1H62.2z" fill="none" color="#000"/><text transform="translate(279.8 467.9)" stroke="none" fill="#000" font-family="Arial" font-size="12" text-anchor="end" color="#000"><tspan>pages+cached+nointeractive</tspan></text><path stroke="#9400D3" d="M288.1 464h42.2M62.2 138.4l5.6-9 5.6 11.7 5.6 4 5.5-2.8 5.6-96.2 5.6 91.1 5.6-9.1 5.6-1.8 5.6-86.7 5.5 88.5 5.6-93 5.6 23.3 5.6-23.1 5.6 112.2 5.6-1.8 5.5-4.9 5.6-9 5.6-2.8 5.6-88 5.6 149.3 5.6-145.1 5.5 100.9 5.6-105.7 5.6 3.9 5.6-.3 5.6-14.8 5.6 100.6 5.5 14.9 5.6-10.2 5.6-10.4 5.6 8.2 5.6.1 5.6-102.9 5.6 1.4 5.5 102.7 5.6 10.2 5.6-2.5 5.6-10.9 5.6 1.1 5.6 15.7 5.5-21.9 5.6 5.5 5.6 77 5.6-59.8 5.6-5.5 5.6-11.5 5.5-98.3 5.6 108.3 5.6-9.6 5.6-2.1 5.6-82.9 5.6 96.9 5.5-9.4 5.6-.9 5.6-.5 5.6-10.1 5.6-94.3 5.6 104.1 5.5-.5 5.6 1.3 5.6-4.9 5.6-81.3 5.6 80.8 5.6 6.9 5.5-.9 5.6 13.7 5.6-12.8 5.6-101.2 5.6 8.7 5.6 90.7L458.7 26l5.5 105.3 5.6-4.4 5.6 3.2 5.6-1.8 5.6.9 5.6 1.2 5.5 1.2 5.6 3 5.6 9.4 5.6-11.3 5.6-6 5.6 20.3 5.5-98.1 5.6 88.5 5.6-2.9 5.6-18.4 5.6-82.4 5.6 95.7 5.5 2.1L570.3 29l5.6 116.8 5.6-6 5.6-8.6 5.6-102.1 5.5 104.3 5.6-98.9 5.6 104.8 5.6-10.2" fill="none" color="#000"/><text transform="translate(279.8 485.9)" stroke="none" fill="#000" font-family="Arial" font-size="12" text-anchor="end" color="#000"><tspan>pages+cached+noadtech</tspan></text><path stroke="#009E73" d="M288.1 482h42.2M62.2 402.7l5.6 9.4 5.6 1.2 5.6-.3 5.5 6.2 5.6-20.8 5.6-1.6 5.6 21 5.6-4 5.6-18.3 5.5 19.1 5.6-15.5 5.6 10.9 5.6-12 5.6-1.9 5.6-1.7 5.5 23 5.6-20.2 5.6 22.5 5.6-24 5.6 17.3 5.6-13 5.5-5.4 5.6 1.5 5.6 15.8 5.6-17.1 5.6 2.4 5.6 18.3 5.5 2.8 5.6-18 5.6-1.7 5.6 15.5 5.6 3.3 5.6-21.6 5.6 19.1 5.5-14.3 5.6-3.5 5.6 18 5.6-13.1 5.6-2.8 5.6-3.9 5.5 23 5.6-19.7 5.6 1.3 5.6-2.9 5.6 18.9 5.6-19 5.5 13.8 5.6 5.9 5.6-20.8 5.6 18.6 5.6-19.6 5.6-1.1 5.5 24.6 5.6-2 5.6-17.3 5.6 15.7 5.6-18.7 5.6-.3 5.5 15.1 5.6 5.7 5.6-18.5 5.6 3.7 5.6 9.2 5.6 4.3 5.5-19.1 5.6 2.4 5.6 16.6 5.6-1 5.6-13.6 5.6.6 5.6 19 5.5-24.9 5.6 3.3 5.6 21.6 5.6-23.7 5.6-2 5.6 18.6 5.5-12.4 5.6-5.4 5.6 6.3 5.6-5.1 5.6 3.6 5.6-4.2 5.5 4.1 5.6.1 5.6 17.1 5.6-21.3 5.6 4 5.6-1 5.5-1.8 5.6 14.2 5.6-13 5.6 19.6 5.6-17.4 5.6 12.6 5.5-15.8 5.6 17.2 5.6-17 5.6 1.8" fill="none" color="#000"/><text transform="translate(554.4 467.9)" stroke="none" fill="#000" font-family="Arial" font-size="12" text-anchor="end" color="#000"><tspan>score p10=3387</tspan></text><path stroke="#56B4E9" d="M562.7 464h42.2M62.2 280.3H615" fill="none" color="#000"/><g><text transform="translate(554.4 485.9)" stroke="none" fill="#000" font-family="Arial" font-size="12" text-anchor="end" color="#000"><tspan>score median=5800</tspan></text><path stroke="#E69F00" d="M562.7 482h42.2" fill="none" color="#000"/></g><g fill="none" color="#000" stroke="currentColor"><path stroke="#000" d="M62.2 18.1V428H615V18.1H62.2z"/></g></svg>