<svg width="640" height="500" xmlns="http://www.w3.org/2000/svg" xmlns:xlink="http://www.w3.org/1999/xlink"><path fill="#fff" d="M0 0h640v500H0z"/><defs><path id="d" stroke-width=".222" stroke="currentColor" d="M-1-1h2v2h-2z"/><path id="b" stroke-width=".222" stroke="currentColor" d="M0-1.33l-1.33 2h2.66z"/><path id="f" stroke-width=".222" stroke="currentColor" d="M0 1.33L1.265.411.782-1.067l-1.564-.009-.483 1.487z"/><use xlink:href="#b" id="c" stroke="currentColor" transform="rotate(180)"/><use xlink:href="#d" id="e" stroke="currentColor" transform="rotate(45)"/><circle id="a" stroke-width=".222" stroke="currentColor" cx="0" cy="0" r="1"/></defs><g fill="none" color="#000" stroke="currentColor"><path stroke="#000" d="M62.2 396.4h9m543.8 0h-9"/><text transform="translate(53.9 400.3)" stroke="none" fill="#000" font-family="Arial" font-size="12" text-anchor="end"><tspan>2540</tspan></text></g><g fill="none" color="#000" stroke="currentColor"><path stroke="#000" d="M62.2 352.5h9m543.8 0h-9"/><text transform="translate(53.9 356.4)" stroke="none" fill="#000" font-family="Arial" font-size="12" text-anchor="end"><tspan>2560</tspan></text></g><g fill="none" color="#000" stroke="currentColor"><path stroke="#000" d="M62.2 308.6h9m543.8 0h-9"/><text transform="translate(53.9 312.5)" stroke="none" fill="#000" font-family="Arial" font-size="12" text-anchor="end"><tspan>2580</tspan></text></g><g fill="none" color="#000" stroke="currentColor"><path stroke="#000" d="M62.2 264.7h9m543.8 0h-9"/><text transform="translate(53.9 268.6)" stroke="none" fill="#000" font-family="Arial" font-size="12" text-anchor="end"><tspan>2600</tspan></text></g><g fill="none" color="#000" stroke="currentColor"><path stroke="#000" d="M62.2 220.8h9m543.8 0h-9"/><text transform="translate(53.9 224.7)" stroke="none" fill="#000" font-family="Arial" font-size="12" text-anchor="end"><tspan>2620</tspan></text></g><g fill="none" color="#000" stroke="currentColor"><path stroke="#000" d="M62.2 176.8h9m543.8 0h-9"/><text transform="translate(53.9 180.7)" stroke="none" fill="#000" font-family="Arial" font-size="12" text-anchor="end"><tspan>2640</tspan></text></g><g fill="none" color="#000" stroke="currentColor"><path stroke="#000" d="M62.2 132.9h9m543.8 0h-9"/><text transform="translate(53.9 136.8)" stroke="none" fill="#000" font-family="Arial" font-size="12" text-anchor="end"><tspan>2660</tspan></text></g><g fill="none" color="#000" stroke="currentColor"><path stroke="#000" d="M62.2 89h9M615 89h-9"/><text transform="translate(53.9 92.9)" stroke="none" fill="#000" font-family="Arial" font-size="12" text-anchor="end"><tspan>2680</tspan></text></g><g fill="none" color="#000" stroke="currentColor"><path stroke="#000" d="M62.2 45.1h9m543.8 0h-9"/><text transform="translate(53.9 49)" stroke="none" fill="#000" font-family="Arial" font-size="12" text-anchor="end"><tspan>2700</tspan></text></g><g fill="none" color="#000" stroke="currentColor"><path stroke="#000" d="M62.2 428v-9m0-400.9v9"/><text transform="translate(62.2 449.9)" stroke="none" fill="#000" font-family="Arial" font-size="12" text-anchor="middle"><tspan>0</tspan></text></g><g fill="none" color="#000" stroke="currentColor"><path stroke="#000" d="M118 428v-9m0-400.9v9"/><text transform="translate(118 449.9)" stroke="none" fill="#000" font-family="Arial" font-size="12" text-anchor="middle"><tspan>10</tspan></text></g><g fill="none" color="#000" stroke="currentColor"><path stroke="#000" d="M173.9 428v-9m0-400.9v9"/><text transform="translate(173.9 449.9)" stroke="none" fill="#000" font-family="Arial" font-size="12" text-anchor="middle"><tspan>20</tspan></text></g><g fill="none" color="#000" stroke="currentColor"><path stroke="#000" d="M229.7 428v-9m0-400.9v9"/><text transform="translate(229.7 449.9)" stroke="none" fill="#000" font-family="Arial" font-size="12" text-anchor="middle"><tspan>30</tspan></text></g><g fill="none" color="#000" stroke="currentColor"><path stroke="#000" d="M285.6 428v-9m0-400.9v9"/><text transform="translate(285.6 449.9)" stroke="none" fill="#000" font-family="Arial" font-size="12" text-anchor="middle"><tspan>40</tspan></text></g><g fill="none" color="#000" stroke="currentColor"><path stroke="#000" d="M341.4 428v-9m0-400.9v9"/><text transform="translate(341.4 449.9)" stroke="none" fill="#000" font-family="Arial" font-size="12" text-anchor="middle"><tspan>50</tspan></text></g><g fill="none" color="#000" stroke="currentColor"><path stroke="#000" d="M397.2 428v-9m0-400.9v9"/><text transform="translate(397.2 449.9)" stroke="none" fill="#000" font-family="Arial" font-size="12" text-anchor="middle"><tspan>60</tspan></text></g><g fill="none" color="#000" stroke="currentColor"><path stroke="#000" d="M453.1 428v-9m0-400.9v9"/><text transform="translate(453.1 449.9)" stroke="none" fill="#000" font-family="Arial" font-size="12" text-anchor="middle"><tspan>70</tspan></text></g><g fill="none" color="#000" stroke="currentColor"><path stroke="#000" d="M508.9 428v-9m0-400.9v9"/><text transform="translate(508.9 449.9)" stroke="none" fill="#000" font-family="Arial" font-size="12" text-anchor="middle"><tspan>80</tspan></text></g><g fill="none" color="#000" stroke="currentColor"><path stroke="#000" d="M564.7 428v-9m0-400.9v9"/><text transform="translate(564.7 449.9)" stroke="none" fill="#000" font-family="Arial" font-size="12" text-anchor="middle"><tspan>90</tspan></text></g><path stroke="#000" d="M62.2 18.1V428H615V18.1H62.2z" fill="none" color="#000"/><text transform="translate(279.8 467.9)" stroke="none" fill="#000" font-family="Arial" font-size="12" text-anchor="end" color="#000"><tspan>pages+cached+noadtech</tspan></text><path stroke="#9400D3" d="M288.1 464h42.2M62.2 185.8l5.6 126.6 5.6 16.3 5.6-3.8 5.5 83.4 5.6-280.5 5.6-21.4 5.6 281.9 5.6-53 5.6-246.7 5.5 257.7 5.6-209.3 5.6 147.1 5.6-162.3 5.6-25.5 5.6-22.6 5.5 310.3 5.6-272.1 5.6 302.3 5.6-322.9 5.6 233.6 5.6-175.8 5.5-72.5 5.6 19.6 5.6 213 5.6-230.3 5.6 32.3 5.6 246.6 5.5 38.5 5.6-243.1 5.6-22.3 5.6 208.6 5.6 43.4 5.6-290 5.6 257.3 5.5-193.4 5.6-46.2 5.6 242.6 5.6-176.5 5.6-37.9 5.6-52.5 5.5 309.9 5.6-266.3 5.6 18.5 5.6-39.9 5.6 255.1 5.6-255.7 5.5 185.9 5.6 79.2 5.6-280.4 5.6 250.8L347 78.7l5.6-14.2 5.5 330.6 5.6-27 5.6-232.9 5.6 211.4 5.6-250.9 5.6-4.1 5.5 202.4 5.6 77.4 5.6-249.7 5.6 50.2 5.6 124.3 5.6 58 5.5-257.1 5.6 32.4 5.6 223.2 5.6-14.3 5.6-182.7 5.6 8.3 5.6 256 5.5-334.9 5.6 44.4 5.6 290.6 5.6-319.2 5.6-26.7 5.6 249.8 5.5-166.2 5.6-73 5.6 84.4 5.6-68.5 5.6 48.7 5.6-56.3 5.5 54.5 5.6 1.4 5.6 231L548 92.1l5.6 54.1 5.6-13.5 5.5-24.1 5.6 191.9 5.6-175 5.6 263.1 5.6-233.9 5.6 170 5.5-213.2 5.6 232.2 5.6-229.5L615 139" fill="none" color="#000"/><text transform="translate(279.8 485.9)" stroke="none" fill="#000" font-family="Arial" font-size="12" text-anchor="end" color="#000"><tspan>pages+cached+noexternal</tspan></text><path stroke="#009E73" d="M288.1 482h42.2M62.2 361.1l5.6 7.6 5.6-2.3L79 87.5l5.5 275.3 5.6-16.4 5.6-2.8 5.6 61.8 5.6-271.3 5.6-12.6 5.5-28.9 5.6 30.9 5.6-21 5.6-7.8 5.6 182.1L146 98.7l5.5-14.2 5.6 5 5.6 59.1 5.6-56.4 5.6-7.6 5.6 255.7 5.5 17.4 5.6-31.6 5.6 32.9 5.6-29.2 5.6 25.6 5.6-195.9 5.5-77.1 5.6-2.3 5.6 267.3 5.6-255.5 5.6 265.3 5.6-72.4 5.6-160.8 5.5 220.3 5.6 54.9 5.6-130.1 5.6-167.9 5.6 38.1 5.6-60 5.5 303.2 5.6-305.4 5.6 237.8 5.6 6.6 5.6 56 5.6-242.1 5.5 179.4 5.6-240.5 5.6 220.6 5.6-189.5 5.6-2.4 5.6-77 5.5 113.5 5.6 198.4 5.6-12.9 5.6 37.3 5.6-272.2 5.6 27.3 5.5 18.1 5.6 178.6 5.6-204.2 5.6-14.6 5.6-46.9 5.6 59.9 5.5 17.7 5.6 174.1 5.6-214 5.6 19.6 5.6 297.2 5.6-30.6 5.6 26 5.5-2.9 5.6-352.9 5.6 296.7 5.6-197.3 5.6 205.8L492.2 59l5.5 248.5 5.6-194.3 5.6 266L514.5 98l5.6-31.7 5.6 282.2 5.5-1.9 5.6-214.5 5.6-18.9 5.6-2.1 5.6-43.1 5.6 192.2 5.5-171.5 5.6 253.9 5.6-249.4 5.6 32.9 5.6-27.8 5.6-5.3 5.5 278.9 5.6-219.1 5.6-54.1 5.6 263.4" fill="none" color="#000"/><text transform="translate(529.5 467.9)" stroke="none" fill="#000" font-family="Arial" font-size="12" text-anchor="end" color="#000"><tspan>score p10=3387</tspan></text><path stroke="#56B4E9" d="M537.8 464H580" fill="none" color="#000"/><g><text transform="translate(529.5 485.9)" stroke="none" fill="#000" font-family="Arial" font-size="12" text-anchor="end" color="#000"><tspan>score median=5800</tspan></text><path stroke="#E69F00" d="M537.8 482H580" fill="none" color="#000"/></g><g fill="none" color="#000" stroke="currentColor"><path stroke="#000" d="M62.2 18.1V428H615V18.1H62.2z"/></g></svg>