<svg width="640" height="500" xmlns="http://www.w3.org/2000/svg" xmlns:xlink="http://www.w3.org/1999/xlink"><path fill="#fff" d="M0 0h640v500H0z"/><defs><path id="d" stroke-width=".222" stroke="currentColor" d="M-1-1h2v2h-2z"/><path id="b" stroke-width=".222" stroke="currentColor" d="M0-1.33l-1.33 2h2.66z"/><path id="f" stroke-width=".222" stroke="currentColor" d="M0 1.33L1.265.411.782-1.067l-1.564-.009-.483 1.487z"/><use xlink:href="#b" id="c" stroke="currentColor" transform="rotate(180)"/><use xlink:href="#d" id="e" stroke="currentColor" transform="rotate(45)"/><circle id="a" stroke-width=".222" stroke="currentColor" cx="0" cy="0" r="1"/></defs><g fill="none" color="#000" stroke="currentColor"><path stroke="#000" d="M62.2 398.8h9m543.8 0h-9"/><text transform="translate(53.9 402.7)" stroke="none" fill="#000" font-family="Arial" font-size="12" text-anchor="end"><tspan>2400</tspan></text></g><g fill="none" color="#000" stroke="currentColor"><path stroke="#000" d="M62.2 334.3h9m543.8 0h-9"/><text transform="translate(53.9 338.2)" stroke="none" fill="#000" font-family="Arial" font-size="12" text-anchor="end"><tspan>2450</tspan></text></g><g fill="none" color="#000" stroke="currentColor"><path stroke="#000" d="M62.2 269.8h9m543.8 0h-9"/><text transform="translate(53.9 273.7)" stroke="none" fill="#000" font-family="Arial" font-size="12" text-anchor="end"><tspan>2500</tspan></text></g><g fill="none" color="#000" stroke="currentColor"><path stroke="#000" d="M62.2 205.3h9m543.8 0h-9"/><text transform="translate(53.9 209.2)" stroke="none" fill="#000" font-family="Arial" font-size="12" text-anchor="end"><tspan>2550</tspan></text></g><g fill="none" color="#000" stroke="currentColor"><path stroke="#000" d="M62.2 140.8h9m543.8 0h-9"/><text transform="translate(53.9 144.7)" stroke="none" fill="#000" font-family="Arial" font-size="12" text-anchor="end"><tspan>2600</tspan></text></g><g fill="none" color="#000" stroke="currentColor"><path stroke="#000" d="M62.2 76.3h9m543.8 0h-9"/><text transform="translate(53.9 80.2)" stroke="none" fill="#000" font-family="Arial" font-size="12" text-anchor="end"><tspan>2650</tspan></text></g><g fill="none" color="#000" stroke="currentColor"><path stroke="#000" d="M62.2 428v-9m0-400.9v9"/><text transform="translate(62.2 449.9)" stroke="none" fill="#000" font-family="Arial" font-size="12" text-anchor="middle"><tspan>0</tspan></text></g><g fill="none" color="#000" stroke="currentColor"><path stroke="#000" d="M118 428v-9m0-400.9v9"/><text transform="translate(118 449.9)" stroke="none" fill="#000" font-family="Arial" font-size="12" text-anchor="middle"><tspan>10</tspan></text></g><g fill="none" color="#000" stroke="currentColor"><path stroke="#000" d="M173.9 428v-9m0-400.9v9"/><text transform="translate(173.9 449.9)" stroke="none" fill="#000" font-family="Arial" font-size="12" text-anchor="middle"><tspan>20</tspan></text></g><g fill="none" color="#000" stroke="currentColor"><path stroke="#000" d="M229.7 428v-9m0-400.9v9"/><text transform="translate(229.7 449.9)" stroke="none" fill="#000" font-family="Arial" font-size="12" text-anchor="middle"><tspan>30</tspan></text></g><g fill="none" color="#000" stroke="currentColor"><path stroke="#000" d="M285.6 428v-9m0-400.9v9"/><text transform="translate(285.6 449.9)" stroke="none" fill="#000" font-family="Arial" font-size="12" text-anchor="middle"><tspan>40</tspan></text></g><g fill="none" color="#000" stroke="currentColor"><path stroke="#000" d="M341.4 428v-9m0-400.9v9"/><text transform="translate(341.4 449.9)" stroke="none" fill="#000" font-family="Arial" font-size="12" text-anchor="middle"><tspan>50</tspan></text></g><g fill="none" color="#000" stroke="currentColor"><path stroke="#000" d="M397.2 428v-9m0-400.9v9"/><text transform="translate(397.2 449.9)" stroke="none" fill="#000" font-family="Arial" font-size="12" text-anchor="middle"><tspan>60</tspan></text></g><g fill="none" color="#000" stroke="currentColor"><path stroke="#000" d="M453.1 428v-9m0-400.9v9"/><text transform="translate(453.1 449.9)" stroke="none" fill="#000" font-family="Arial" font-size="12" text-anchor="middle"><tspan>70</tspan></text></g><g fill="none" color="#000" stroke="currentColor"><path stroke="#000" d="M508.9 428v-9m0-400.9v9"/><text transform="translate(508.9 449.9)" stroke="none" fill="#000" font-family="Arial" font-size="12" text-anchor="middle"><tspan>80</tspan></text></g><g fill="none" color="#000" stroke="currentColor"><path stroke="#000" d="M564.7 428v-9m0-400.9v9"/><text transform="translate(564.7 449.9)" stroke="none" fill="#000" font-family="Arial" font-size="12" text-anchor="middle"><tspan>90</tspan></text></g><path stroke="#000" d="M62.2 18.1V428H615V18.1H62.2z" fill="none" color="#000"/><text transform="translate(279.8 467.9)" stroke="none" fill="#000" font-family="Arial" font-size="12" text-anchor="end" color="#000"><tspan>pages+cached+noexternal+nosvg</tspan></text><path stroke="#9400D3" d="M288.1 464h42.2M62.2 218l5.6 14.2 5.6-37.3 5.6 8.5 5.5 26.2 5.6-32.2 5.6 17 5.6-37.6 5.6 22 5.6 15.3 5.5-.4 5.6-91.9 5.6-88.7 5.6 195.1 5.6-31.6 5.6 9.5 5.5-12.4 5.6 33.5 5.6-16.1 5.6-159.2 5.6 135.4 5.6 34.1 5.5 8 5.6-13.2 5.6 13.6 5.6-26 5.6-9.4 5.6 19.4 5.5-40.4 5.6 69.8 5.6-28.5 5.6-25.1 5.6 32.4 5.6-1.4 5.6 2.4 5.5-176.2 5.6 2.7 5.6 146.9 5.6 32.9 5.6-25.6 5.6-11 5.5 5.3 5.6-29.7 5.6 25.1 5.6 10.4 5.6-39 5.6 18.9 5.5-5.3 5.6 23.6 5.6-12.4 5.6-159 5.6 170.1 5.6 18 5.5-10.1 5.6 3.6 5.6 12.2 5.6 4.3 5.6-27.6 5.6-11.4 5.5 29.8 5.6-40.6 5.6 25 5.6 17.9 5.6-22.6 5.6 1.4 5.5 24.7 5.6 6.5 5.6-186.5 5.6 163.8 5.6-51.6 5.6 64.8 5.6-15.5 5.5-4.7 5.6-6.6 5.6 33.9 5.6-6.9 5.6 13.8 5.6-39.1 5.5 9 5.6-4 5.6 4.2 5.6 28.2 5.6-60.2 5.6 7.8 5.5 13.1 5.6.5 5.6 15 5.6 14 5.6-14.5 5.6-37.4 5.5 2.8 5.6 50.1 5.6-8.8 5.6-19.3 5.6 9.5 5.6 5.5 5.5-34.9 5.6 35 5.6-3.6 5.6 2.9" fill="none" color="#000"/><text transform="translate(279.8 485.9)" stroke="none" fill="#000" font-family="Arial" font-size="12" text-anchor="end" color="#000"><tspan>pages+cached+noexternal+noimg</tspan></text><path stroke="#009E73" d="M288.1 482h42.2M62.2 195.9l5.6 8.7 5.6 30.4 5.6-47.7L84.5 67l5.6 26 5.6-13.1 5.6 120.6 5.6-93.3 5.6-30.9 5.5 12.4 5.6 95.8 5.6-100.4 5.6-30.3 5.6 124.8L146 65.3l5.5 11.7 5.6 12.2 5.6-17.3 5.6-21.1 5.6 198.3L179.5 89l5.5 156.6 5.6-176.7 5.6 130.3 5.6-114.8 5.6-2.8 5.6 11.2 5.5-20.9 5.6 18.2 5.6-17.3 5.6-16 5.6 120.8 5.6-92.7 5.6 28.6 5.5 68.2 5.6-121.1 5.6.7 5.6 19 5.6 22.5 5.6 125.3 5.5-23.5 5.6 54.7 5.6-182.8 5.6-15.9 5.6 148.7 5.6-104.2 5.5-32.7 5.6 36.8 5.6 114.5 5.6-128.8 5.6 68.6 5.6-100.6 5.5 7.1 5.6 152.1 5.6 198 5.6-336.6 5.6 11.4 5.6 90.8 5.5-93.5 5.6-17.7 5.6-14.4 5.6 160.7 5.6.1 5.6-125.7 5.5 146.7 5.6-164.6 5.6-28.4 5.6 169 5.6-164.5 5.6 23.2 5.6 13.3 5.5 141.4 5.6-28.8 5.6-109.8 5.6 103L486.6 26l5.6 73.4 5.5-28.9 5.6 119.8 5.6-115.9 5.6 20.3 5.6 139.5 5.6-206.9 5.5 206.9 5.6 2.3 5.6-180.2L548 75l5.6 153.9 5.6-49.2 5.5-111.9 5.6 7.8 5.6 141.1 5.6-154 5.6 24.3 5.6-14.4 5.5 113.5 5.6-104.8 5.6 5.3 5.6-4.1" fill="none" color="#000"/><text transform="translate(579.3 467.9)" stroke="none" fill="#000" font-family="Arial" font-size="12" text-anchor="end" color="#000"><tspan>score p10=3387</tspan></text><path stroke="#56B4E9" d="M587.6 464h42.2" fill="none" color="#000"/><g><text transform="translate(579.3 485.9)" stroke="none" fill="#000" font-family="Arial" font-size="12" text-anchor="end" color="#000"><tspan>score median=5800</tspan></text><path stroke="#E69F00" d="M587.6 482h42.2" fill="none" color="#000"/></g><g fill="none" color="#000" stroke="currentColor"><path stroke="#000" d="M62.2 18.1V428H615V18.1H62.2z"/></g></svg>