<svg width="640" height="490" xmlns="http://www.w3.org/2000/svg" xmlns:xlink="http://www.w3.org/1999/xlink"><path fill="#fff" d="M0 0h640v490H0z"/><defs><path id="d" stroke-width=".222" stroke="currentColor" d="M-1-1h2v2h-2z"/><path id="b" stroke-width=".222" stroke="currentColor" d="M0-1.33l-1.33 2h2.66z"/><path id="f" stroke-width=".222" stroke="currentColor" d="M0 1.33L1.265.411.782-1.067l-1.564-.009-.483 1.487z"/><use xlink:href="#b" id="c" stroke="currentColor" transform="rotate(180)"/><use xlink:href="#d" id="e" stroke="currentColor" transform="rotate(45)"/><circle id="a" stroke-width=".222" stroke="currentColor" cx="0" cy="0" r="1"/></defs><g fill="none" color="#000" stroke="currentColor"><path stroke="#000" d="M53.9 401.8h9m552.1 0h-9"/><text transform="translate(45.6 405.7)" stroke="none" fill="#000" font-family="Arial" font-size="12" text-anchor="end"><tspan>415</tspan></text></g><g fill="none" color="#000" stroke="currentColor"><path stroke="#000" d="M53.9 349.6h9m552.1 0h-9"/><text transform="translate(45.6 353.5)" stroke="none" fill="#000" font-family="Arial" font-size="12" text-anchor="end"><tspan>420</tspan></text></g><g fill="none" color="#000" stroke="currentColor"><path stroke="#000" d="M53.9 297.4h9m552.1 0h-9"/><text transform="translate(45.6 301.3)" stroke="none" fill="#000" font-family="Arial" font-size="12" text-anchor="end"><tspan>425</tspan></text></g><g fill="none" color="#000" stroke="currentColor"><path stroke="#000" d="M53.9 245.2h9m552.1 0h-9"/><text transform="translate(45.6 249.1)" stroke="none" fill="#000" font-family="Arial" font-size="12" text-anchor="end"><tspan>430</tspan></text></g><g fill="none" color="#000" stroke="currentColor"><path stroke="#000" d="M53.9 193h9m552.1 0h-9"/><text transform="translate(45.6 196.9)" stroke="none" fill="#000" font-family="Arial" font-size="12" text-anchor="end"><tspan>435</tspan></text></g><g fill="none" color="#000" stroke="currentColor"><path stroke="#000" d="M53.9 140.8h9m552.1 0h-9"/><text transform="translate(45.6 144.7)" stroke="none" fill="#000" font-family="Arial" font-size="12" text-anchor="end"><tspan>440</tspan></text></g><g fill="none" color="#000" stroke="currentColor"><path stroke="#000" d="M53.9 88.6h9m552.1 0h-9"/><text transform="translate(45.6 92.5)" stroke="none" fill="#000" font-family="Arial" font-size="12" text-anchor="end"><tspan>445</tspan></text></g><g fill="none" color="#000" stroke="currentColor"><path stroke="#000" d="M53.9 36.4h9m552.1 0h-9"/><text transform="translate(45.6 40.3)" stroke="none" fill="#000" font-family="Arial" font-size="12" text-anchor="end"><tspan>450</tspan></text></g><g fill="none" color="#000" stroke="currentColor"><path stroke="#000" d="M53.9 436v-9m0-408.9v9"/><text transform="translate(53.9 457.9)" stroke="none" fill="#000" font-family="Arial" font-size="12" text-anchor="middle"><tspan>0</tspan></text></g><g fill="none" color="#000" stroke="currentColor"><path stroke="#000" d="M110.6 436v-9m0-408.9v9"/><text transform="translate(110.6 457.9)" stroke="none" fill="#000" font-family="Arial" font-size="12" text-anchor="middle"><tspan>10</tspan></text></g><g fill="none" color="#000" stroke="currentColor"><path stroke="#000" d="M167.3 436v-9m0-408.9v9"/><text transform="translate(167.3 457.9)" stroke="none" fill="#000" font-family="Arial" font-size="12" text-anchor="middle"><tspan>20</tspan></text></g><g fill="none" color="#000" stroke="currentColor"><path stroke="#000" d="M223.9 436v-9m0-408.9v9"/><text transform="translate(223.9 457.9)" stroke="none" fill="#000" font-family="Arial" font-size="12" text-anchor="middle"><tspan>30</tspan></text></g><g fill="none" color="#000" stroke="currentColor"><path stroke="#000" d="M280.6 436v-9m0-408.9v9"/><text transform="translate(280.6 457.9)" stroke="none" fill="#000" font-family="Arial" font-size="12" text-anchor="middle"><tspan>40</tspan></text></g><g fill="none" color="#000" stroke="currentColor"><path stroke="#000" d="M337.3 436v-9m0-408.9v9"/><text transform="translate(337.3 457.9)" stroke="none" fill="#000" font-family="Arial" font-size="12" text-anchor="middle"><tspan>50</tspan></text></g><g fill="none" color="#000" stroke="currentColor"><path stroke="#000" d="M394 436v-9m0-408.9v9"/><text transform="translate(394 457.9)" stroke="none" fill="#000" font-family="Arial" font-size="12" text-anchor="middle"><tspan>60</tspan></text></g><g fill="none" color="#000" stroke="currentColor"><path stroke="#000" d="M450.6 436v-9m0-408.9v9"/><text transform="translate(450.6 457.9)" stroke="none" fill="#000" font-family="Arial" font-size="12" text-anchor="middle"><tspan>70</tspan></text></g><g fill="none" color="#000" stroke="currentColor"><path stroke="#000" d="M507.3 436v-9m0-408.9v9"/><text transform="translate(507.3 457.9)" stroke="none" fill="#000" font-family="Arial" font-size="12" text-anchor="middle"><tspan>80</tspan></text></g><g fill="none" color="#000" stroke="currentColor"><path stroke="#000" d="M564 436v-9m0-408.9v9"/><text transform="translate(564 457.9)" stroke="none" fill="#000" font-family="Arial" font-size="12" text-anchor="middle"><tspan>90</tspan></text></g><path stroke="#000" d="M53.9 18.1V436H615V18.1H53.9z" fill="none" color="#000"/><text transform="translate(175.7 475.9)" stroke="none" fill="#000" font-family="Arial" font-size="12" text-anchor="end" color="#000"><tspan>raw</tspan></text><path stroke="#9400D3" d="M184 472h42.2M53.9 428l5.7-38.9 5.6-27 5.7-10.5 5.7-2.9 5.6-3.5 5.7-4.9 5.7-11.2 5.6-1 5.7-2.6 5.7-3.4 5.6-.5 5.7-3.8 5.7-.1 5.6-2.1 5.7-1.7 5.7-1.4 5.7-.3 5.6-1.5 5.7-1 5.7-.1 5.6-5.7 5.7-4 5.7-.1 5.6-.2 5.7-.4 5.7-.7 5.6-.3 5.7-.2 5.7-2.7 5.6-.5 5.7-4 5.7-5.1 5.6-2.6 5.7-.9 5.7-3 5.6-1.2 5.7-.3 5.7-.3 5.6-.2 5.7-1.8 5.7-1.9 5.6-1.7 5.7-2.3 5.7-4.1 5.6-1.1 5.7-3.6 5.7-1.9h5.6l5.7-2.1 5.7-.6 5.7-2 5.6-1.4 5.7-1.6 5.7-1.6 5.6-.6 5.7-1.4 5.7-3.9 5.6-3.5 5.7-.8 5.7-1.7 5.6-.7 5.7-2.1 5.7-7.5 5.6-.2 5.7-4.1 5.7-.4 5.6-.7 5.7-.8 5.7-1.1 5.6-7 5.7-.8 5.7-1 5.6-.2 5.7-2.3 5.7-5.4 5.6-.4 5.7-1.8 5.7-3.3 5.6-.9 5.7-1.3 5.7-.6 5.6-6.2 5.7-.4 5.7-1.1 5.7-2.2 5.6-9.6 5.7-5.9 5.7-8.3 5.6-7 5.7-.9 5.7-4.6 5.6-5.6 5.7-7.6 5.7-.8 5.6-7.7 5.7-3.1 5.7-14.4 5.6-32.5 5.7-51" fill="none" color="#000"/><text transform="translate(375.6 475.9)" stroke="none" fill="#000" font-family="Arial" font-size="12" text-anchor="end" color="#000"><tspan>score p10=2017</tspan></text><path stroke="#009E73" d="M383.9 472h42.2" fill="none" color="#000"/><text transform="translate(575.5 475.9)" stroke="none" fill="#000" font-family="Arial" font-size="12" text-anchor="end" color="#000"><tspan>score median=4000</tspan></text><path stroke="#56B4E9" d="M583.8 472H626" fill="none" color="#000"/><g fill="none" color="#000" stroke="currentColor"><path stroke="#000" d="M53.9 18.1V436H615V18.1H53.9z"/></g></svg>