<svg width="640" height="490" xmlns="http://www.w3.org/2000/svg" xmlns:xlink="http://www.w3.org/1999/xlink"><path fill="#fff" d="M0 0h640v490H0z"/><defs><path id="d" stroke-width=".222" stroke="currentColor" d="M-1-1h2v2h-2z"/><path id="b" stroke-width=".222" stroke="currentColor" d="M0-1.33l-1.33 2h2.66z"/><path id="f" stroke-width=".222" stroke="currentColor" d="M0 1.33L1.265.411.782-1.067l-1.564-.009-.483 1.487z"/><use xlink:href="#b" id="c" stroke="currentColor" transform="rotate(180)"/><use xlink:href="#d" id="e" stroke="currentColor" transform="rotate(45)"/><circle id="a" stroke-width=".222" stroke="currentColor" cx="0" cy="0" r="1"/></defs><g fill="none" color="#000" stroke="currentColor"><path stroke="#000" d="M53.9 401.8h9m552.1 0h-9"/><text transform="translate(45.6 405.7)" stroke="none" fill="#000" font-family="Arial" font-size="12" text-anchor="end"><tspan>415</tspan></text></g><g fill="none" color="#000" stroke="currentColor"><path stroke="#000" d="M53.9 349.6h9m552.1 0h-9"/><text transform="translate(45.6 353.5)" stroke="none" fill="#000" font-family="Arial" font-size="12" text-anchor="end"><tspan>420</tspan></text></g><g fill="none" color="#000" stroke="currentColor"><path stroke="#000" d="M53.9 297.4h9m552.1 0h-9"/><text transform="translate(45.6 301.3)" stroke="none" fill="#000" font-family="Arial" font-size="12" text-anchor="end"><tspan>425</tspan></text></g><g fill="none" color="#000" stroke="currentColor"><path stroke="#000" d="M53.9 245.2h9m552.1 0h-9"/><text transform="translate(45.6 249.1)" stroke="none" fill="#000" font-family="Arial" font-size="12" text-anchor="end"><tspan>430</tspan></text></g><g fill="none" color="#000" stroke="currentColor"><path stroke="#000" d="M53.9 193h9m552.1 0h-9"/><text transform="translate(45.6 196.9)" stroke="none" fill="#000" font-family="Arial" font-size="12" text-anchor="end"><tspan>435</tspan></text></g><g fill="none" color="#000" stroke="currentColor"><path stroke="#000" d="M53.9 140.8h9m552.1 0h-9"/><text transform="translate(45.6 144.7)" stroke="none" fill="#000" font-family="Arial" font-size="12" text-anchor="end"><tspan>440</tspan></text></g><g fill="none" color="#000" stroke="currentColor"><path stroke="#000" d="M53.9 88.6h9m552.1 0h-9"/><text transform="translate(45.6 92.5)" stroke="none" fill="#000" font-family="Arial" font-size="12" text-anchor="end"><tspan>445</tspan></text></g><g fill="none" color="#000" stroke="currentColor"><path stroke="#000" d="M53.9 36.4h9m552.1 0h-9"/><text transform="translate(45.6 40.3)" stroke="none" fill="#000" font-family="Arial" font-size="12" text-anchor="end"><tspan>450</tspan></text></g><g fill="none" color="#000" stroke="currentColor"><path stroke="#000" d="M53.9 436v-9m0-408.9v9"/><text transform="translate(53.9 457.9)" stroke="none" fill="#000" font-family="Arial" font-size="12" text-anchor="middle"><tspan>0</tspan></text></g><g fill="none" color="#000" stroke="currentColor"><path stroke="#000" d="M110.6 436v-9m0-408.9v9"/><text transform="translate(110.6 457.9)" stroke="none" fill="#000" font-family="Arial" font-size="12" text-anchor="middle"><tspan>10</tspan></text></g><g fill="none" color="#000" stroke="currentColor"><path stroke="#000" d="M167.3 436v-9m0-408.9v9"/><text transform="translate(167.3 457.9)" stroke="none" fill="#000" font-family="Arial" font-size="12" text-anchor="middle"><tspan>20</tspan></text></g><g fill="none" color="#000" stroke="currentColor"><path stroke="#000" d="M223.9 436v-9m0-408.9v9"/><text transform="translate(223.9 457.9)" stroke="none" fill="#000" font-family="Arial" font-size="12" text-anchor="middle"><tspan>30</tspan></text></g><g fill="none" color="#000" stroke="currentColor"><path stroke="#000" d="M280.6 436v-9m0-408.9v9"/><text transform="translate(280.6 457.9)" stroke="none" fill="#000" font-family="Arial" font-size="12" text-anchor="middle"><tspan>40</tspan></text></g><g fill="none" color="#000" stroke="currentColor"><path stroke="#000" d="M337.3 436v-9m0-408.9v9"/><text transform="translate(337.3 457.9)" stroke="none" fill="#000" font-family="Arial" font-size="12" text-anchor="middle"><tspan>50</tspan></text></g><g fill="none" color="#000" stroke="currentColor"><path stroke="#000" d="M394 436v-9m0-408.9v9"/><text transform="translate(394 457.9)" stroke="none" fill="#000" font-family="Arial" font-size="12" text-anchor="middle"><tspan>60</tspan></text></g><g fill="none" color="#000" stroke="currentColor"><path stroke="#000" d="M450.6 436v-9m0-408.9v9"/><text transform="translate(450.6 457.9)" stroke="none" fill="#000" font-family="Arial" font-size="12" text-anchor="middle"><tspan>70</tspan></text></g><g fill="none" color="#000" stroke="currentColor"><path stroke="#000" d="M507.3 436v-9m0-408.9v9"/><text transform="translate(507.3 457.9)" stroke="none" fill="#000" font-family="Arial" font-size="12" text-anchor="middle"><tspan>80</tspan></text></g><g fill="none" color="#000" stroke="currentColor"><path stroke="#000" d="M564 436v-9m0-408.9v9"/><text transform="translate(564 457.9)" stroke="none" fill="#000" font-family="Arial" font-size="12" text-anchor="middle"><tspan>90</tspan></text></g><path stroke="#000" d="M53.9 18.1V436H615V18.1H53.9z" fill="none" color="#000"/><text transform="translate(175.7 475.9)" stroke="none" fill="#000" font-family="Arial" font-size="12" text-anchor="end" color="#000"><tspan>raw</tspan></text><path stroke="#9400D3" d="M184 472h42.2M53.9 26.1l5.7 175 5.6-31.5 5.7 26 5.7 104.2 5.6 62.3 5.7-64.1 5.7-122.5 5.6-21.2 5.7-77.2 5.7 177 5.6-16.5 5.7 73.1 5.7-175.9 5.6 86.3 5.7-67.7 5.7 105.4 5.7 81.5 5.6-204.7 5.7 91.7 5.7 38.1 5.6-9.3 5.7 23.1 5.7-28.1 5.6 70.5 5.7-12 5.7-111.8 5.6 51.1 5.7 140.2 5.7-149 5.6 31.7 5.7-58.8 5.7-25.7 5.6 32.7 5.7 57.7 5.7 20.8 5.6-12.8 5.7-7.7 5.7-8.5 5.6-159.9 5.7 185.7 5.7 49.9 5.6-33 5.7-109.3 5.7-14.1 5.6 58.7 5.7 180.5 5.7-128.4 5.6-156.4 5.7 174.6 5.7 7.7 5.7-7.8 5.6-95.8 5.7 55.3 5.7-115.9 5.6 61.7 5.7 50.5 5.7-146.4 5.6 131.7 5.7-21.9 5.7 15.8 5.6-67.6 5.7 71.6 5.7 42.5 5.6-88 5.7 23.6 5.7-37.9 5.6 112.8 5.7-14.9 5.7 53.9 5.6-160.3 5.7 133.7 5.7-95 5.6 102 5.7 22.5 5.7-39.1 5.6-30.3 5.7-73.5 5.7 95.2 5.6-39.6 5.7-41.7L513 124l5.6 189.9 5.7-64.4 5.7-5.9 5.7 39.5 5.6 45L547 195l5.7 95.8 5.6-13.4 5.7-38.1 5.7-28.3 5.6 87.2 5.7 1.7 5.7-151.1 5.6 126.6 5.7-72.1 5.7 8.9 5.6 48.5 5.7 54.9" fill="none" color="#000"/><text transform="translate(375.6 475.9)" stroke="none" fill="#000" font-family="Arial" font-size="12" text-anchor="end" color="#000"><tspan>score p10=2017</tspan></text><path stroke="#009E73" d="M383.9 472h42.2" fill="none" color="#000"/><text transform="translate(575.5 475.9)" stroke="none" fill="#000" font-family="Arial" font-size="12" text-anchor="end" color="#000"><tspan>score median=4000</tspan></text><path stroke="#56B4E9" d="M583.8 472H626" fill="none" color="#000"/><g fill="none" color="#000" stroke="currentColor"><path stroke="#000" d="M53.9 18.1V436H615V18.1H53.9z"/></g></svg>