<svg width="640" height="620" xmlns="http://www.w3.org/2000/svg" xmlns:xlink="http://www.w3.org/1999/xlink"><path fill="#fff" d="M0 0h640v620H0z"/><defs><path id="d" stroke-width=".222" stroke="currentColor" d="M-1-1h2v2h-2z"/><path id="b" stroke-width=".222" stroke="currentColor" d="M0-1.33l-1.33 2h2.66z"/><path id="f" stroke-width=".222" stroke="currentColor" d="M0 1.33L1.265.411.782-1.067l-1.564-.009-.483 1.487z"/><use xlink:href="#b" id="c" stroke="currentColor" transform="rotate(180)"/><use xlink:href="#d" id="e" stroke="currentColor" transform="rotate(45)"/><circle id="a" stroke-width=".222" stroke="currentColor" cx="0" cy="0" r="1"/></defs><g fill="none" color="#000" stroke="currentColor"><path stroke="#000" d="M62.2 326h9m543.8 0h-9"/><text transform="translate(53.9 329.9)" stroke="none" fill="#000" font-family="Arial" font-size="12" text-anchor="end"><tspan>0</tspan></text></g><g fill="none" color="#000" stroke="currentColor"><path stroke="#000" d="M62.2 276.5h9m543.8 0h-9"/><text transform="translate(53.9 280.4)" stroke="none" fill="#000" font-family="Arial" font-size="12" text-anchor="end"><tspan>200</tspan></text></g><g fill="none" color="#000" stroke="currentColor"><path stroke="#000" d="M62.2 227h9m543.8 0h-9"/><text transform="translate(53.9 230.9)" stroke="none" fill="#000" font-family="Arial" font-size="12" text-anchor="end"><tspan>400</tspan></text></g><g fill="none" color="#000" stroke="currentColor"><path stroke="#000" d="M62.2 177.5h9m543.8 0h-9"/><text transform="translate(53.9 181.4)" stroke="none" fill="#000" font-family="Arial" font-size="12" text-anchor="end"><tspan>600</tspan></text></g><g fill="none" color="#000" stroke="currentColor"><path stroke="#000" d="M62.2 128h9m543.8 0h-9"/><text transform="translate(53.9 131.9)" stroke="none" fill="#000" font-family="Arial" font-size="12" text-anchor="end"><tspan>800</tspan></text></g><g fill="none" color="#000" stroke="currentColor"><path stroke="#000" d="M62.2 78.6h9m543.8 0h-9"/><text transform="translate(53.9 82.5)" stroke="none" fill="#000" font-family="Arial" font-size="12" text-anchor="end"><tspan>1000</tspan></text></g><g fill="none" color="#000" stroke="currentColor"><path stroke="#000" d="M62.2 29.1h9m543.8 0h-9"/><text transform="translate(53.9 33)" stroke="none" fill="#000" font-family="Arial" font-size="12" text-anchor="end"><tspan>1200</tspan></text></g><g fill="none" color="#000" stroke="currentColor"><path stroke="#000" d="M62.2 332v-9m0-304.9v9"/><text transform="translate(62.2 353.9)" stroke="none" fill="#000" font-family="Arial" font-size="12" text-anchor="middle"><tspan>0</tspan></text></g><g fill="none" color="#000" stroke="currentColor"><path stroke="#000" d="M118 332v-9m0-304.9v9"/><text transform="translate(118 353.9)" stroke="none" fill="#000" font-family="Arial" font-size="12" text-anchor="middle"><tspan>10</tspan></text></g><g fill="none" color="#000" stroke="currentColor"><path stroke="#000" d="M173.9 332v-9m0-304.9v9"/><text transform="translate(173.9 353.9)" stroke="none" fill="#000" font-family="Arial" font-size="12" text-anchor="middle"><tspan>20</tspan></text></g><g fill="none" color="#000" stroke="currentColor"><path stroke="#000" d="M229.7 332v-9m0-304.9v9"/><text transform="translate(229.7 353.9)" stroke="none" fill="#000" font-family="Arial" font-size="12" text-anchor="middle"><tspan>30</tspan></text></g><g fill="none" color="#000" stroke="currentColor"><path stroke="#000" d="M285.6 332v-9m0-304.9v9"/><text transform="translate(285.6 353.9)" stroke="none" fill="#000" font-family="Arial" font-size="12" text-anchor="middle"><tspan>40</tspan></text></g><g fill="none" color="#000" stroke="currentColor"><path stroke="#000" d="M341.4 332v-9m0-304.9v9"/><text transform="translate(341.4 353.9)" stroke="none" fill="#000" font-family="Arial" font-size="12" text-anchor="middle"><tspan>50</tspan></text></g><g fill="none" color="#000" stroke="currentColor"><path stroke="#000" d="M397.2 332v-9m0-304.9v9"/><text transform="translate(397.2 353.9)" stroke="none" fill="#000" font-family="Arial" font-size="12" text-anchor="middle"><tspan>60</tspan></text></g><g fill="none" color="#000" stroke="currentColor"><path stroke="#000" d="M453.1 332v-9m0-304.9v9"/><text transform="translate(453.1 353.9)" stroke="none" fill="#000" font-family="Arial" font-size="12" text-anchor="middle"><tspan>70</tspan></text></g><g fill="none" color="#000" stroke="currentColor"><path stroke="#000" d="M508.9 332v-9m0-304.9v9"/><text transform="translate(508.9 353.9)" stroke="none" fill="#000" font-family="Arial" font-size="12" text-anchor="middle"><tspan>80</tspan></text></g><g fill="none" color="#000" stroke="currentColor"><path stroke="#000" d="M564.7 332v-9m0-304.9v9"/><text transform="translate(564.7 353.9)" stroke="none" fill="#000" font-family="Arial" font-size="12" text-anchor="middle"><tspan>90</tspan></text></g><path stroke="#000" d="M62.2 18.1V332H615V18.1H62.2z" fill="none" color="#000"/><text transform="translate(533.3 371.9)" stroke="none" fill="#000" font-family="Arial" font-size="12" text-anchor="end" color="#000"><tspan>empty</tspan></text><path stroke="#9400D3" d="M541.6 368h42.2M62.2 326H615" fill="none" color="#000"/><text transform="translate(533.3 389.9)" stroke="none" fill="#000" font-family="Arial" font-size="12" text-anchor="end" color="#000"><tspan>pages</tspan></text><path stroke="#009E73" d="M541.6 386h42.2M62.2 144.9l5.6-64.1h5.6l5.6-.3 5.5-.2h11.2l5.6-.3h11.2l5.5-.2h5.6l5.6-.2h39.1l5.6-.3H213l5.5-.2H235.3l5.6-.3H263.2l5.6-.2H285.6l5.5-.3h22.4l5.6-.2H347l5.6-.3h33.5l5.5-.2h5.6l5.6-.3H414l5.6-.2 5.5-.3h22.4l5.6-.2H475.4l5.6-.3 5.6-.5 5.6-.5 5.5-.2 5.6-.2 5.6-.5h5.6l5.6-1.3 5.6-1.7 5.5-2 5.6-2.2 5.6-2.5 5.6-.2 5.6-1.3 5.6-2.2 5.5-1.2 5.6-4.5 5.6-3.2 5.6-3 5.6-13.6 5.6-3.4 5.5-5.2 5.6-1 5.6-1.5 5.6-.3" fill="none" color="#000"/><text transform="translate(533.3 407.9)" stroke="none" fill="#000" font-family="Arial" font-size="12" text-anchor="end" color="#000"><tspan>pages+cached</tspan></text><path stroke="#56B4E9" d="M541.6 404h42.2M62.2 99.8l5.6-.5h27.9l5.6-.2H123.6l5.6-.2H151.5l5.6-.3h33.5l5.6-.2h5.6l5.6-.3 5.6-7.4 5.5-.8h5.6l5.6-.7 5.6-.2H252.1l5.5-.3H280l5.6-.2h11.1l5.6-.3h27.9l5.6-.2h39.1l5.6-.3h16.7l5.6-.2 5.6-.5 5.6-.5 5.6-.5h5.5l5.6-.3h33.5l5.6-.2H481l5.6-.3h39.1l5.5-.2h28l5.5-.3h22.4l5.6-.2h16.7l5.6-7.2" fill="none" color="#000"/><text transform="translate(533.3 425.9)" stroke="none" fill="#000" font-family="Arial" font-size="12" text-anchor="end" color="#000"><tspan>pages+cached+nointeractive</tspan></text><path stroke="#E69F00" d="M541.6 422h42.2M62.2 100.1l5.6-.5h44.7l5.5-.3H246.5l5.6-.2H347l5.6-.2H408.4l5.6-8.7h5.6l5.5-.8 5.6-.4H447.5l5.6-.3h16.7l5.6-.2H492.2l5.5-.3h5.6l5.6-.2H525.7l5.5-.3H548l5.6-.2h5.6l5.5-.8 5.6-1 5.6-.2h5.6l5.6-.3 5.6-.2h5.5l5.6-.3 5.6-.2h5.6" fill="none" color="#000"/><text transform="translate(533.3 443.9)" stroke="none" fill="#000" font-family="Arial" font-size="12" text-anchor="end" color="#000"><tspan>pages+cached+noadtech</tspan></text><path stroke="#F0E442" d="M541.6 440h42.2M62.2 287.1l5.6-.2H90.1l5.6-.3h27.9l5.6-.2H146l5.5-.3H213l5.5-.2h33.6l5.5-.3h11.2l5.6-.5h5.6l5.6-73.7 5.5-.2 5.6-.3 5.6-.2h5.6l5.6-.3h11.1l5.6-.2h5.6l5.6-.3h16.7l5.6-.2h72.6l5.6-.3H481l5.6-.2h33.5l5.6-.3h50.2l5.6-.2h16.7l5.6-.3h5.6l5.6-.2" fill="none" color="#000"/><text transform="translate(533.3 461.9)" stroke="none" fill="#000" font-family="Arial" font-size="12" text-anchor="end" color="#000"><tspan>pages+cached+noexternal</tspan></text><path stroke="#0072B2" d="M541.6 458h42.2M62.2 286.9l5.6-.3H129.2l5.6-.2H190.6l5.6-.3H257.6l5.6-.2h33.5l5.6-.3h5.6l5.6-74.4 5.6-.5h11.1l5.6-.3H358.1l5.6-.2h11.2l5.6-.3H414l5.6-.2h72.6l5.5-.3h39.1l5.6-.2H559.2l5.5-.3h28l5.5-.2h5.6l5.6-.3h5.6" fill="none" color="#000"/><text transform="translate(533.3 479.9)" stroke="none" fill="#000" font-family="Arial" font-size="12" text-anchor="end" color="#000"><tspan>pages+cached+noexternal+nofonts</tspan></text><path stroke="#E51E10" d="M541.6 476h42.2M62.2 324.7l5.6-.2H79l5.5-.3H207.4l5.6-.2H363.7l5.6-.3H447.5l5.6-.2h11.1l5.6-.3h5.6L481 249h5.6l5.6-.5 5.5-.7 5.6-.8 5.6-33.6 5.6-.3h44.7l5.5-.2H581.5l5.6-.2H609.4l5.6-.3" fill="none" color="#000"/><g><text transform="translate(533.3 497.9)" stroke="none" fill="#000" font-family="Arial" font-size="12" text-anchor="end" color="#000"><tspan>pages+cached+noexternal+nosvg</tspan></text><path stroke="#000" d="M541.6 494h42.2M62.2 287.6l5.6-.2h5.6l5.6-.3H101.3l5.6-.2H162.7l5.6-.3H302.3l5.6-.2H391.6l5.6-.3H531.2l5.6-.2h27.9l5.6-.3 5.6-.2 5.6-25.7 5.6-48.8 5.6-1h5.5l5.6-.2 5.6-.5 5.6-.3" fill="none" color="#000"/></g><g><text transform="translate(533.3 515.9)" stroke="none" fill="#000" font-family="Arial" font-size="12" text-anchor="end" color="#000"><tspan>pages+cached+noexternal+noimg</tspan></text><path stroke="#9400D3" d="M541.6 512h42.2M62.2 287.4h11.2l5.6-.3H101.3l5.6-.2H146l5.5-.3H201.8l5.6-.2h27.9l5.6-.3h11.2l5.5-74.4H274.4l5.6-.5H302.3l5.6-.3h27.9l5.6-.2h44.7l5.5-.3h44.7l5.6-.2H536.8l5.6-.3h44.7l5.6-.2h11.1l5.6-.3h5.6" fill="none" color="#000"/></g><g><text transform="translate(533.3 533.9)" stroke="none" fill="#000" font-family="Arial" font-size="12" text-anchor="end" color="#000"><tspan>pages+cached+noexternal+nocss</tspan></text><path stroke="#009E73" d="M541.6 530h42.2M62.2 326H615" fill="none" color="#000"/></g><g><text transform="translate(533.3 551.9)" stroke="none" fill="#000" font-family="Arial" font-size="12" text-anchor="end" color="#000"><tspan>pages+cached+noexternal+nojs</tspan></text><path stroke="#56B4E9" d="M541.6 548h42.2M62.2 326H79l5.5-2h5.6l5.6-.3H179.5l5.5-.2H330.2l5.6-.3H458.7l5.5-.2H548l5.6-.3h33.5l5.6-.2h16.7l5.6-.5" fill="none" color="#000"/></g><g><text transform="translate(533.3 569.9)" stroke="none" fill="#000" font-family="Arial" font-size="12" text-anchor="end" color="#000"><tspan>pages+cached+noexternal+nofonts+nosvg+noimg</tspan></text><path stroke="#E69F00" d="M541.6 566h42.2M62.2 325.5l5.6-.3h5.6l5.6-.2h50.2l5.6-.3H263.2l5.6-.2H436.3l5.6-.3h67l5.6-.2h11.2l5.5-74.7 5.6-.3 5.6-35.6h33.5l5.6-.3H603.8l5.6-.2h5.6" fill="none" color="#000"/></g><g><text transform="translate(533.3 587.9)" stroke="none" fill="#000" font-family="Arial" font-size="12" text-anchor="end" color="#000"><tspan>pages+cached+noexternal+nofonts+nosvg+noimg+nocss</tspan></text><path stroke="#F0E442" d="M541.6 584h42.2M62.2 326H615" fill="none" color="#000"/></g><g><text transform="translate(533.3 605.9)" stroke="none" fill="#000" font-family="Arial" font-size="12" text-anchor="end" color="#000"><tspan>pages+cached+noexternal+nofonts+nosvg+noimg+nocss+nojs</tspan></text><path stroke="#0072B2" d="M541.6 602h42.2M62.2 326H615" fill="none" color="#000"/></g><g fill="none" color="#000" stroke="currentColor"><path stroke="#000" d="M62.2 18.1V332H615V18.1H62.2z"/></g></svg>