<svg width="640" height="620" xmlns="http://www.w3.org/2000/svg" xmlns:xlink="http://www.w3.org/1999/xlink"><path fill="#fff" d="M0 0h640v620H0z"/><defs><path id="d" stroke-width=".222" stroke="currentColor" d="M-1-1h2v2h-2z"/><path id="b" stroke-width=".222" stroke="currentColor" d="M0-1.33l-1.33 2h2.66z"/><path id="f" stroke-width=".222" stroke="currentColor" d="M0 1.33L1.265.411.782-1.067l-1.564-.009-.483 1.487z"/><use xlink:href="#b" id="c" stroke="currentColor" transform="rotate(180)"/><use xlink:href="#d" id="e" stroke="currentColor" transform="rotate(45)"/><circle id="a" stroke-width=".222" stroke="currentColor" cx="0" cy="0" r="1"/></defs><g fill="none" color="#000" stroke="currentColor"><path stroke="#000" d="M53.9 295.9h9m552.1 0h-9"/><text transform="translate(45.6 299.8)" stroke="none" fill="#000" font-family="Arial" font-size="12" text-anchor="end"><tspan>0.5</tspan></text></g><g fill="none" color="#000" stroke="currentColor"><path stroke="#000" d="M53.9 241.6h9m552.1 0h-9"/><text transform="translate(45.6 245.5)" stroke="none" fill="#000" font-family="Arial" font-size="12" text-anchor="end"><tspan>0.6</tspan></text></g><g fill="none" color="#000" stroke="currentColor"><path stroke="#000" d="M53.9 187.2h9m552.1 0h-9"/><text transform="translate(45.6 191.1)" stroke="none" fill="#000" font-family="Arial" font-size="12" text-anchor="end"><tspan>0.7</tspan></text></g><g fill="none" color="#000" stroke="currentColor"><path stroke="#000" d="M53.9 132.8h9m552.1 0h-9"/><text transform="translate(45.6 136.7)" stroke="none" fill="#000" font-family="Arial" font-size="12" text-anchor="end"><tspan>0.8</tspan></text></g><g fill="none" color="#000" stroke="currentColor"><path stroke="#000" d="M53.9 78.5h9m552.1 0h-9"/><text transform="translate(45.6 82.4)" stroke="none" fill="#000" font-family="Arial" font-size="12" text-anchor="end"><tspan>0.9</tspan></text></g><g fill="none" color="#000" stroke="currentColor"><path stroke="#000" d="M53.9 24.1h9m552.1 0h-9"/><text transform="translate(45.6 28)" stroke="none" fill="#000" font-family="Arial" font-size="12" text-anchor="end"><tspan>1</tspan></text></g><g fill="none" color="#000" stroke="currentColor"><path stroke="#000" d="M53.9 332v-9m0-304.9v9"/><text transform="translate(53.9 353.9)" stroke="none" fill="#000" font-family="Arial" font-size="12" text-anchor="middle"><tspan>0</tspan></text></g><g fill="none" color="#000" stroke="currentColor"><path stroke="#000" d="M110.6 332v-9m0-304.9v9"/><text transform="translate(110.6 353.9)" stroke="none" fill="#000" font-family="Arial" font-size="12" text-anchor="middle"><tspan>10</tspan></text></g><g fill="none" color="#000" stroke="currentColor"><path stroke="#000" d="M167.3 332v-9m0-304.9v9"/><text transform="translate(167.3 353.9)" stroke="none" fill="#000" font-family="Arial" font-size="12" text-anchor="middle"><tspan>20</tspan></text></g><g fill="none" color="#000" stroke="currentColor"><path stroke="#000" d="M223.9 332v-9m0-304.9v9"/><text transform="translate(223.9 353.9)" stroke="none" fill="#000" font-family="Arial" font-size="12" text-anchor="middle"><tspan>30</tspan></text></g><g fill="none" color="#000" stroke="currentColor"><path stroke="#000" d="M280.6 332v-9m0-304.9v9"/><text transform="translate(280.6 353.9)" stroke="none" fill="#000" font-family="Arial" font-size="12" text-anchor="middle"><tspan>40</tspan></text></g><g fill="none" color="#000" stroke="currentColor"><path stroke="#000" d="M337.3 332v-9m0-304.9v9"/><text transform="translate(337.3 353.9)" stroke="none" fill="#000" font-family="Arial" font-size="12" text-anchor="middle"><tspan>50</tspan></text></g><g fill="none" color="#000" stroke="currentColor"><path stroke="#000" d="M394 332v-9m0-304.9v9"/><text transform="translate(394 353.9)" stroke="none" fill="#000" font-family="Arial" font-size="12" text-anchor="middle"><tspan>60</tspan></text></g><g fill="none" color="#000" stroke="currentColor"><path stroke="#000" d="M450.6 332v-9m0-304.9v9"/><text transform="translate(450.6 353.9)" stroke="none" fill="#000" font-family="Arial" font-size="12" text-anchor="middle"><tspan>70</tspan></text></g><g fill="none" color="#000" stroke="currentColor"><path stroke="#000" d="M507.3 332v-9m0-304.9v9"/><text transform="translate(507.3 353.9)" stroke="none" fill="#000" font-family="Arial" font-size="12" text-anchor="middle"><tspan>80</tspan></text></g><g fill="none" color="#000" stroke="currentColor"><path stroke="#000" d="M564 332v-9m0-304.9v9"/><text transform="translate(564 353.9)" stroke="none" fill="#000" font-family="Arial" font-size="12" text-anchor="middle"><tspan>90</tspan></text></g><path stroke="#000" d="M53.9 18.1V332H615V18.1H53.9z" fill="none" color="#000"/><text transform="translate(529.1 371.9)" stroke="none" fill="#000" font-family="Arial" font-size="12" text-anchor="end" color="#000"><tspan>empty</tspan></text><path stroke="#9400D3" d="M537.4 368h42.2M53.9 24.1H615" fill="none" color="#000"/><text transform="translate(529.1 389.9)" stroke="none" fill="#000" font-family="Arial" font-size="12" text-anchor="end" color="#000"><tspan>pages</tspan></text><path stroke="#009E73" d="M537.4 386h42.2M53.9 326l5.7-.1 5.6-.4 5.7-.2 5.7-1.4 5.6-.9 5.7-3.5 5.7-.8 5.6-.8 5.7-1.1 5.7-.4 5.6-.5 5.7-.4h5.7l5.6-.7 5.7-.5 5.7-.6 5.7-.4 5.6-.3h5.7l5.7-.1 5.6-.1 5.7-.1 5.7-.1 5.6-.1 5.7-.1h22.7l5.6-.1h28.4l5.6-.1h22.7l5.7-.1h34l5.6-.1H382.6l5.7-.1h17l5.7-.1H456.3l5.7-.1h39.6l5.7-.1H558.3l5.7-.1h11.3l5.7-.1h17l5.7-.1h5.6l5.7-20.8" fill="none" color="#000"/><text transform="translate(529.1 407.9)" stroke="none" fill="#000" font-family="Arial" font-size="12" text-anchor="end" color="#000"><tspan>pages+cached</tspan></text><path stroke="#56B4E9" d="M537.4 404h42.2M53.9 312.2l5.7-1.8h17l5.6-.1h22.7l5.7-.1H184.3l5.6-.1h11.4l5.6-.1H252.3l5.6-.2 5.7-.1 5.7-.1 5.6-.1H337.3l5.7-.1h28.3l5.7-.1h39.6l5.7-.1h17l5.7-.1 5.6-.1h5.7l5.7-.2 5.6-2H479l5.6-.1H547l5.7-.1h22.6l5.7-.1H609.3l5.7-.1" fill="none" color="#000"/><text transform="translate(529.1 425.9)" stroke="none" fill="#000" font-family="Arial" font-size="12" text-anchor="end" color="#000"><tspan>pages+cached+nointeractive</tspan></text><path stroke="#E69F00" d="M537.4 422h42.2M53.9 310.4h5.7l5.6-.1 5.7-.1h11.3l5.7-.1h5.7l5.6-.1 5.7-.2 5.7-.2h5.6l5.7-.1h39.7l5.7-.1h5.6l5.7-.1h39.7l5.6-.1h17l5.7-.1 5.7-.2h5.6l5.7-2.2H320.3l5.6-.1h96.4l5.7-.1H609.3l5.7-.2" fill="none" color="#000"/><text transform="translate(529.1 443.9)" stroke="none" fill="#000" font-family="Arial" font-size="12" text-anchor="end" color="#000"><tspan>pages+cached+noadtech</tspan></text><path stroke="#F0E442" d="M537.4 440h42.2M53.9 213.2l5.7-.3h5.6l5.7-.3h17l5.7-.3H144.6l5.7-.3h34l5.6-.3h39.7l5.7-.3H308.9l5.7-.3h17l5.7-.3h5.7l5.6-.3H360l5.6-.4h5.7l5.7-.3 5.6-.3 5.7-.3L394 98.9h5.6l5.7-.9h11.3l5.7-.5h34l5.7-.4H524.3l5.7-.5h17l5.7-.4H581l5.7-.5h22.6l5.7-.4" fill="none" color="#000"/><text transform="translate(529.1 461.9)" stroke="none" fill="#000" font-family="Arial" font-size="12" text-anchor="end" color="#000"><tspan>pages+cached+noexternal</tspan></text><path stroke="#0072B2" d="M537.4 458h42.2M53.9 212.9h5.7l5.6-.3h5.7l5.7-.3h28.3l5.7-.3h17l5.6-.3h39.7l5.7-.3H252.3l5.6-.3h34l5.7-.3h11.3l5.7-.3h22.7l5.7-.4h11.3l5.7-.6L365.6 98h5.7l5.7-.5h34l5.6-.4H479l5.6-.5H541.3l5.7-.4H609.3l5.7-.5" fill="none" color="#000"/><text transform="translate(529.1 479.9)" stroke="none" fill="#000" font-family="Arial" font-size="12" text-anchor="end" color="#000"><tspan>pages+cached+noexternal+nofonts</tspan></text><path stroke="#E51E10" d="M537.4 476h42.2M53.9 208l5.7-.3h22.6l5.7-.3h17l5.7-.3H155.9l5.7-.3 5.7-41 5.6-.9 5.7-1 5.7-.6h5.6l5.7-134.2h5.7l5.6-.4h11.4l5.6-.5H303.3l5.6-.4H462l5.6-.5h124.7l5.7-.4h11.3l5.7-.5" fill="none" color="#000"/><g><text transform="translate(529.1 497.9)" stroke="none" fill="#000" font-family="Arial" font-size="12" text-anchor="end" color="#000"><tspan>pages+cached+noexternal+nosvg</tspan></text><path stroke="#000" d="M537.4 494h42.2M53.9 212.3l5.7-.3 5.6-.6 5.7-.3h5.7l5.6-1.3 5.7-64.3 5.7-47.1 5.6-.4 5.7-.5H133.2l5.7-.4h136l5.7-.5H365.6l5.7-.4h136l5.7-.5H569.7l5.6-.4H598l5.7-.5h5.6l5.7-.5" fill="none" color="#000"/></g><g><text transform="translate(529.1 515.9)" stroke="none" fill="#000" font-family="Arial" font-size="12" text-anchor="end" color="#000"><tspan>pages+cached+noexternal+noimg</tspan></text><path stroke="#9400D3" d="M537.4 512h42.2M53.9 211.7h5.7l5.6-.3h11.4l5.6-.3H127.6l5.6-.3h96.4l5.7-.3H280.6l5.7-.4H331.6l5.7-.3H365.6l5.7-.3H394l5.6-.6h17l5.7-111.8h11.3l5.7-.5H467.6l5.7-.4H524.3l5.7-.5h39.7l5.6-.4H598l5.7-.5H615" fill="none" color="#000"/></g><g><text transform="translate(529.1 533.9)" stroke="none" fill="#000" font-family="Arial" font-size="12" text-anchor="end" color="#000"><tspan>pages+cached+noexternal+nocss</tspan></text><path stroke="#009E73" d="M537.4 530h42.2M53.9 24.1H615" fill="none" color="#000"/></g><g><text transform="translate(529.1 551.9)" stroke="none" fill="#000" font-family="Arial" font-size="12" text-anchor="end" color="#000"><tspan>pages+cached+noexternal+nojs</tspan></text><path stroke="#56B4E9" d="M537.4 548h42.2M53.9 31.4l5.7-.9h17l5.6-.5h34l5.7-.4H206.9l5.7-.5H337.3l5.7-.4H490.3l5.7-.5H581l5.7-.4h5.6l5.7-3.7h17" fill="none" color="#000"/></g><g><text transform="translate(529.1 569.9)" stroke="none" fill="#000" font-family="Arial" font-size="12" text-anchor="end" color="#000"><tspan>pages+cached+noexternal+nofonts+nosvg+noimg</tspan></text><path stroke="#E69F00" d="M537.4 566h42.2M53.9 207.4h5.7l5.6-.3h22.7l5.7-.3h34l5.6-43.5 5.7-.3 5.7-135.2h11.3l5.7-.5H229.6l5.7-.4H405.3l5.7-.5h130.3l5.7-.5H598l5.7-.4h5.6l5.7-.5" fill="none" color="#000"/></g><g><text transform="translate(529.1 587.9)" stroke="none" fill="#000" font-family="Arial" font-size="12" text-anchor="end" color="#000"><tspan>pages+cached+noexternal+nofonts+nosvg+noimg+nocss</tspan></text><path stroke="#F0E442" d="M537.4 584h42.2M53.9 24.1H615" fill="none" color="#000"/></g><g><text transform="translate(529.1 605.9)" stroke="none" fill="#000" font-family="Arial" font-size="12" text-anchor="end" color="#000"><tspan>pages+cached+noexternal+nofonts+nosvg+noimg+nocss+nojs</tspan></text><path stroke="#0072B2" d="M537.4 602h42.2M53.9 24.1H615" fill="none" color="#000"/></g><g fill="none" color="#000" stroke="currentColor"><path stroke="#000" d="M53.9 18.1V332H615V18.1H53.9z"/></g></svg>