<svg width="640" height="490" xmlns="http://www.w3.org/2000/svg" xmlns:xlink="http://www.w3.org/1999/xlink"><path fill="#fff" d="M0 0h640v490H0z"/><defs><path id="d" stroke-width=".222" stroke="currentColor" d="M-1-1h2v2h-2z"/><path id="b" stroke-width=".222" stroke="currentColor" d="M0-1.33l-1.33 2h2.66z"/><path id="f" stroke-width=".222" stroke="currentColor" d="M0 1.33L1.265.411.782-1.067l-1.564-.009-.483 1.487z"/><use xlink:href="#b" id="c" stroke="currentColor" transform="rotate(180)"/><use xlink:href="#d" id="e" stroke="currentColor" transform="rotate(45)"/><circle id="a" stroke-width=".222" stroke="currentColor" cx="0" cy="0" r="1"/></defs><g fill="none" color="#000" stroke="currentColor"><path stroke="#000" d="M62.2 432.2h9m543.8 0h-9"/><text transform="translate(53.9 436.1)" stroke="none" fill="#000" font-family="Arial" font-size="12" text-anchor="end"><tspan>0.82</tspan></text></g><g fill="none" color="#000" stroke="currentColor"><path stroke="#000" d="M62.2 382.3h9m543.8 0h-9"/><text transform="translate(53.9 386.2)" stroke="none" fill="#000" font-family="Arial" font-size="12" text-anchor="end"><tspan>0.84</tspan></text></g><g fill="none" color="#000" stroke="currentColor"><path stroke="#000" d="M62.2 332.3h9m543.8 0h-9"/><text transform="translate(53.9 336.2)" stroke="none" fill="#000" font-family="Arial" font-size="12" text-anchor="end"><tspan>0.86</tspan></text></g><g fill="none" color="#000" stroke="currentColor"><path stroke="#000" d="M62.2 282.4h9m543.8 0h-9"/><text transform="translate(53.9 286.3)" stroke="none" fill="#000" font-family="Arial" font-size="12" text-anchor="end"><tspan>0.88</tspan></text></g><g fill="none" color="#000" stroke="currentColor"><path stroke="#000" d="M62.2 232.5h9m543.8 0h-9"/><text transform="translate(53.9 236.4)" stroke="none" fill="#000" font-family="Arial" font-size="12" text-anchor="end"><tspan>0.9</tspan></text></g><g fill="none" color="#000" stroke="currentColor"><path stroke="#000" d="M62.2 182.5h9m543.8 0h-9"/><text transform="translate(53.9 186.4)" stroke="none" fill="#000" font-family="Arial" font-size="12" text-anchor="end"><tspan>0.92</tspan></text></g><g fill="none" color="#000" stroke="currentColor"><path stroke="#000" d="M62.2 132.6h9m543.8 0h-9"/><text transform="translate(53.9 136.5)" stroke="none" fill="#000" font-family="Arial" font-size="12" text-anchor="end"><tspan>0.94</tspan></text></g><g fill="none" color="#000" stroke="currentColor"><path stroke="#000" d="M62.2 82.7h9m543.8 0h-9"/><text transform="translate(53.9 86.6)" stroke="none" fill="#000" font-family="Arial" font-size="12" text-anchor="end"><tspan>0.96</tspan></text></g><g fill="none" color="#000" stroke="currentColor"><path stroke="#000" d="M62.2 32.7h9m543.8 0h-9"/><text transform="translate(53.9 36.6)" stroke="none" fill="#000" font-family="Arial" font-size="12" text-anchor="end"><tspan>0.98</tspan></text></g><g fill="none" color="#000" stroke="currentColor"><path stroke="#000" d="M62.2 436v-9m0-408.9v9"/><text transform="translate(62.2 457.9)" stroke="none" fill="#000" font-family="Arial" font-size="12" text-anchor="middle"><tspan>0</tspan></text></g><g fill="none" color="#000" stroke="currentColor"><path stroke="#000" d="M118 436v-9m0-408.9v9"/><text transform="translate(118 457.9)" stroke="none" fill="#000" font-family="Arial" font-size="12" text-anchor="middle"><tspan>10</tspan></text></g><g fill="none" color="#000" stroke="currentColor"><path stroke="#000" d="M173.9 436v-9m0-408.9v9"/><text transform="translate(173.9 457.9)" stroke="none" fill="#000" font-family="Arial" font-size="12" text-anchor="middle"><tspan>20</tspan></text></g><g fill="none" color="#000" stroke="currentColor"><path stroke="#000" d="M229.7 436v-9m0-408.9v9"/><text transform="translate(229.7 457.9)" stroke="none" fill="#000" font-family="Arial" font-size="12" text-anchor="middle"><tspan>30</tspan></text></g><g fill="none" color="#000" stroke="currentColor"><path stroke="#000" d="M285.6 436v-9m0-408.9v9"/><text transform="translate(285.6 457.9)" stroke="none" fill="#000" font-family="Arial" font-size="12" text-anchor="middle"><tspan>40</tspan></text></g><g fill="none" color="#000" stroke="currentColor"><path stroke="#000" d="M341.4 436v-9m0-408.9v9"/><text transform="translate(341.4 457.9)" stroke="none" fill="#000" font-family="Arial" font-size="12" text-anchor="middle"><tspan>50</tspan></text></g><g fill="none" color="#000" stroke="currentColor"><path stroke="#000" d="M397.2 436v-9m0-408.9v9"/><text transform="translate(397.2 457.9)" stroke="none" fill="#000" font-family="Arial" font-size="12" text-anchor="middle"><tspan>60</tspan></text></g><g fill="none" color="#000" stroke="currentColor"><path stroke="#000" d="M453.1 436v-9m0-408.9v9"/><text transform="translate(453.1 457.9)" stroke="none" fill="#000" font-family="Arial" font-size="12" text-anchor="middle"><tspan>70</tspan></text></g><g fill="none" color="#000" stroke="currentColor"><path stroke="#000" d="M508.9 436v-9m0-408.9v9"/><text transform="translate(508.9 457.9)" stroke="none" fill="#000" font-family="Arial" font-size="12" text-anchor="middle"><tspan>80</tspan></text></g><g fill="none" color="#000" stroke="currentColor"><path stroke="#000" d="M564.7 436v-9m0-408.9v9"/><text transform="translate(564.7 457.9)" stroke="none" fill="#000" font-family="Arial" font-size="12" text-anchor="middle"><tspan>90</tspan></text></g><path stroke="#000" d="M62.2 18.1V436H615V18.1H62.2z" fill="none" color="#000"/><text transform="translate(329.9 475.9)" stroke="none" fill="#000" font-family="Arial" font-size="12" text-anchor="end" color="#000"><tspan>score</tspan></text><path stroke="#9400D3" d="M338.2 472h42.2M62.2 26.1l5.6 233.5 5.6-201.3L79 256.8l5.5-10.9 5.6 137.8 5.6-199.5 5.6 234.2 5.6-216.9 5.6 52.5 5.5-69.8 5.6 4.9 5.6 67.7 5.6 133.1 5.6-141.3 5.6 24.9 5.5-79.5 5.6 85.1 5.6-19.5 5.6-68.1 5.6 65.3h5.6l5.5 5.5 5.6-58.3 5.6 75.1 5.6 23 5.6-108.1 5.6 68.3 5.5-13.7 5.6-44.6 5.6 61.1 5.6-63.6 5.6-7.5 5.6-2.5 5.6-7.3 5.5 100.6 5.6-52.3 5.6 195.5 5.6-216.4 5.6 2.6 5.6 42.6 5.5-5.5 5.6 11 5.6 54.5 5.6-117.8 5.6 71.7 5.6-81.6 5.5 90 5.6-87.6 5.6 68.1 5.6-68.1 5.6 146.1 5.6-131.1 5.5-10 5.6 68.6 5.6-50.9 5.6-7.7 5.6-2.5 5.6 50 5.5 5.6 5.6-75.4 5.6 27.4 5.6-22.5 5.6 27.7 5.6 53.9 5.5 17 5.6-101.1 5.6 62 5.6-31.8 5.6-25.3 5.6-4.9 5.6 12.4 5.5 94.4 5.6-55.6 5.6 13.5L481 199l5.6 15.2 5.6-27.6 5.5 4.9 5.6 59.8 5.6 22.2 5.6-24.9 5.6 16.5 5.6-76 5.5 9.9 5.6-12.4 5.6 9.9 5.6-7.4 5.6 7.4 5.6-5 5.5 68.1 5.6-63.1 5.6-5h5.6l5.6 68.1 5.6-68.1 5.5 2.5 5.6 5 5.6 63.3 5.6 2.8" fill="none" color="#000"/><g fill="none" color="#000" stroke="currentColor"><path stroke="#000" d="M62.2 18.1V436H615V18.1H62.2z"/></g></svg>