<svg width="640" height="500" xmlns="http://www.w3.org/2000/svg" xmlns:xlink="http://www.w3.org/1999/xlink"><path fill="#fff" d="M0 0h640v500H0z"/><defs><path id="d" stroke-width=".222" stroke="currentColor" d="M-1-1h2v2h-2z"/><path id="b" stroke-width=".222" stroke="currentColor" d="M0-1.33l-1.33 2h2.66z"/><path id="f" stroke-width=".222" stroke="currentColor" d="M0 1.33L1.265.411.782-1.067l-1.564-.009-.483 1.487z"/><use xlink:href="#b" id="c" stroke="currentColor" transform="rotate(180)"/><use xlink:href="#d" id="e" stroke="currentColor" transform="rotate(45)"/><circle id="a" stroke-width=".222" stroke="currentColor" cx="0" cy="0" r="1"/></defs><g fill="none" color="#000" stroke="currentColor"><path stroke="#000" d="M53.9 416.2h9m552.1 0h-9"/><text transform="translate(45.6 420.1)" stroke="none" fill="#000" font-family="Arial" font-size="12" text-anchor="end"><tspan>200</tspan></text></g><g fill="none" color="#000" stroke="currentColor"><path stroke="#000" d="M53.9 365.9h9m552.1 0h-9"/><text transform="translate(45.6 369.8)" stroke="none" fill="#000" font-family="Arial" font-size="12" text-anchor="end"><tspan>300</tspan></text></g><g fill="none" color="#000" stroke="currentColor"><path stroke="#000" d="M53.9 315.7h9m552.1 0h-9"/><text transform="translate(45.6 319.6)" stroke="none" fill="#000" font-family="Arial" font-size="12" text-anchor="end"><tspan>400</tspan></text></g><g fill="none" color="#000" stroke="currentColor"><path stroke="#000" d="M53.9 265.5h9m552.1 0h-9"/><text transform="translate(45.6 269.4)" stroke="none" fill="#000" font-family="Arial" font-size="12" text-anchor="end"><tspan>500</tspan></text></g><g fill="none" color="#000" stroke="currentColor"><path stroke="#000" d="M53.9 215.2h9m552.1 0h-9"/><text transform="translate(45.6 219.1)" stroke="none" fill="#000" font-family="Arial" font-size="12" text-anchor="end"><tspan>600</tspan></text></g><g fill="none" color="#000" stroke="currentColor"><path stroke="#000" d="M53.9 165h9m552.1 0h-9"/><text transform="translate(45.6 168.9)" stroke="none" fill="#000" font-family="Arial" font-size="12" text-anchor="end"><tspan>700</tspan></text></g><g fill="none" color="#000" stroke="currentColor"><path stroke="#000" d="M53.9 114.7h9m552.1 0h-9"/><text transform="translate(45.6 118.6)" stroke="none" fill="#000" font-family="Arial" font-size="12" text-anchor="end"><tspan>800</tspan></text></g><g fill="none" color="#000" stroke="currentColor"><path stroke="#000" d="M53.9 64.5h9m552.1 0h-9"/><text transform="translate(45.6 68.4)" stroke="none" fill="#000" font-family="Arial" font-size="12" text-anchor="end"><tspan>900</tspan></text></g><g fill="none" color="#000" stroke="currentColor"><path stroke="#000" d="M53.9 446v-9m0-418.9v9"/><text transform="translate(53.9 467.9)" stroke="none" fill="#000" font-family="Arial" font-size="12" text-anchor="middle"><tspan>0</tspan></text></g><g fill="none" color="#000" stroke="currentColor"><path stroke="#000" d="M110.6 446v-9m0-418.9v9"/><text transform="translate(110.6 467.9)" stroke="none" fill="#000" font-family="Arial" font-size="12" text-anchor="middle"><tspan>10</tspan></text></g><g fill="none" color="#000" stroke="currentColor"><path stroke="#000" d="M167.3 446v-9m0-418.9v9"/><text transform="translate(167.3 467.9)" stroke="none" fill="#000" font-family="Arial" font-size="12" text-anchor="middle"><tspan>20</tspan></text></g><g fill="none" color="#000" stroke="currentColor"><path stroke="#000" d="M223.9 446v-9m0-418.9v9"/><text transform="translate(223.9 467.9)" stroke="none" fill="#000" font-family="Arial" font-size="12" text-anchor="middle"><tspan>30</tspan></text></g><g fill="none" color="#000" stroke="currentColor"><path stroke="#000" d="M280.6 446v-9m0-418.9v9"/><text transform="translate(280.6 467.9)" stroke="none" fill="#000" font-family="Arial" font-size="12" text-anchor="middle"><tspan>40</tspan></text></g><g fill="none" color="#000" stroke="currentColor"><path stroke="#000" d="M337.3 446v-9m0-418.9v9"/><text transform="translate(337.3 467.9)" stroke="none" fill="#000" font-family="Arial" font-size="12" text-anchor="middle"><tspan>50</tspan></text></g><g fill="none" color="#000" stroke="currentColor"><path stroke="#000" d="M394 446v-9m0-418.9v9"/><text transform="translate(394 467.9)" stroke="none" fill="#000" font-family="Arial" font-size="12" text-anchor="middle"><tspan>60</tspan></text></g><g fill="none" color="#000" stroke="currentColor"><path stroke="#000" d="M450.6 446v-9m0-418.9v9"/><text transform="translate(450.6 467.9)" stroke="none" fill="#000" font-family="Arial" font-size="12" text-anchor="middle"><tspan>70</tspan></text></g><g fill="none" color="#000" stroke="currentColor"><path stroke="#000" d="M507.3 446v-9m0-418.9v9"/><text transform="translate(507.3 467.9)" stroke="none" fill="#000" font-family="Arial" font-size="12" text-anchor="middle"><tspan>80</tspan></text></g><g fill="none" color="#000" stroke="currentColor"><path stroke="#000" d="M564 446v-9m0-418.9v9"/><text transform="translate(564 467.9)" stroke="none" fill="#000" font-family="Arial" font-size="12" text-anchor="middle"><tspan>90</tspan></text></g><path stroke="#000" d="M53.9 18.1V446H615V18.1H53.9z" fill="none" color="#000"/><text transform="translate(275.6 485.9)" stroke="none" fill="#000" font-family="Arial" font-size="12" text-anchor="end" color="#000"><tspan>pages+cached+nointeractive</tspan></text><path stroke="#9400D3" d="M283.9 482h42.2M53.9 26.3l5.7 30.2 5.6-25.6 5.7-4.1 5.7 2 5.6 6.1 5.7-8.6L93.6 57l5.6-1h5.7l5.7.5 5.6-28.2 5.7 6.6 5.7-6.6 5.6 5.6h5.7l5.7-6.6 5.7 28.2 5.6.5 5.7-28.7 5.7 28.7 5.6-23.6 5.7 2 5.7-6.6 5.6 7.6 5.7-.5 5.7 21.6 5.6-.5 5.7-22.6 5.7 22.6 5.6-.5 5.7 1.5 5.7-.5 5.6.5 5.7-.5h5.7l5.6-20.1 5.7-3.5 5.7 23.6h5.6l5.7-23.6 5.7 22.6 5.6 1 5.7-18.6 5.7-3 5.6-.5 5.7 22.1 5.7-.5 5.6-23.1 5.7 23.1 5.7.5 5.7-21.1 5.6-2.5 5.7 23.6h5.7l5.6.5 5.7-1 5.7-.5 5.6 2.5 5.7-1.5 5.7-1 5.6.5 5.7-23.6L411 56h5.6l5.7.5 5.7-22.1 5.6 22.1 5.7-.5 5.7-20.6 5.6 21.6 5.7-.5h11.3l5.7-1 5.7 1 5.6-.5 5.7-.5 5.7.5h5.6l5.7-18.1L513 56l5.6-.5 5.7-21.1 5.7-1 5.7 2 5.6 21.1 5.7-1 5.7 1 5.6.5 5.7-1 5.7-.5 5.6-22.1L581 57h11.3l5.7-.5h5.7l5.6-23.1 5.7 22.1" fill="none" color="#000"/><text transform="translate(550.2 485.9)" stroke="none" fill="#000" font-family="Arial" font-size="12" text-anchor="end" color="#000"><tspan>pages+cached+noadtech</tspan></text><path stroke="#009E73" d="M558.5 482h42.2M53.9 283.5l5.7 151.8 5.6.5 5.7 1 5.7-1.5 5.6-156.8 5.7 3.5 5.7 155.3 5.6-1.5 5.7-155.3 5.7 154.8 5.6-155.3 5.7 154.8 5.7-154.8h5.6l5.7-1.5 5.7 156.3 5.7-154.3 5.6 155.8 5.7-158.3 5.7 159.3 5.6-156.8 5.7-1.5 5.7 3.5 5.6 153.3 5.7-156.3 5.7-.5 5.6 156.8 5.7 1 5.7-157.8 5.6 5 5.7 153.8 5.7-.5 5.6-156.8 5.7 156.8 5.7-156.8 5.6-2.5 5.7 158.8 5.7-155.8 5.6-.5 5.7 1 5.7 154.3 5.6-155.3 5.7-1 5.7.5 5.6 155.8 5.7-156.8 5.7 156.3 5.6 1.5 5.7-156.3 5.7 154.8 5.7-155.8 5.6-.5 5.7 156.8 5.7.5 5.6-157.8 5.7 157.3 5.7-155.3h5.6l5.7 153.3 5.7 2.5 5.6-157.8 5.7 3 5.7 153.8 5.6.5 5.7-158.3 5.7 1.5 5.6 158.3 5.7-.5 5.7-156.3 5.6 2.5 5.7 153.8 5.7-156.3 5.6-1 5.7 156.3L479 279l5.6.5 5.7 156.8L496 280l5.6.5 5.7-1 5.7 1 5.6-.5 5.7 2 5.7-1 5.7-1.5 5.6 156.3L547 279l5.7 1 5.6 2.5 5.7-3.5 5.7 155.8 5.6-153.8 5.7 154.8 5.7-154.8 5.6 152.8L598 282l5.7 153.3 5.6-155.3 5.7-1" fill="none" color="#000"/><g fill="none" color="#000" stroke="currentColor"><path stroke="#000" d="M53.9 18.1V446H615V18.1H53.9z"/></g></svg>