<svg width="640" height="500" xmlns="http://www.w3.org/2000/svg" xmlns:xlink="http://www.w3.org/1999/xlink"><path fill="#fff" d="M0 0h640v500H0z"/><defs><path id="d" stroke-width=".222" stroke="currentColor" d="M-1-1h2v2h-2z"/><path id="b" stroke-width=".222" stroke="currentColor" d="M0-1.33l-1.33 2h2.66z"/><path id="f" stroke-width=".222" stroke="currentColor" d="M0 1.33L1.265.411.782-1.067l-1.564-.009-.483 1.487z"/><use xlink:href="#b" id="c" stroke="currentColor" transform="rotate(180)"/><use xlink:href="#d" id="e" stroke="currentColor" transform="rotate(45)"/><circle id="a" stroke-width=".222" stroke="currentColor" cx="0" cy="0" r="1"/></defs><g fill="none" color="#000" stroke="currentColor"><path stroke="#000" d="M53.9 382.3h9m552.1 0h-9"/><text transform="translate(45.6 386.2)" stroke="none" fill="#000" font-family="Arial" font-size="12" text-anchor="end"><tspan>200</tspan></text></g><g fill="none" color="#000" stroke="currentColor"><path stroke="#000" d="M53.9 317.8h9m552.1 0h-9"/><text transform="translate(45.6 321.7)" stroke="none" fill="#000" font-family="Arial" font-size="12" text-anchor="end"><tspan>250</tspan></text></g><g fill="none" color="#000" stroke="currentColor"><path stroke="#000" d="M53.9 253.3h9m552.1 0h-9"/><text transform="translate(45.6 257.2)" stroke="none" fill="#000" font-family="Arial" font-size="12" text-anchor="end"><tspan>300</tspan></text></g><g fill="none" color="#000" stroke="currentColor"><path stroke="#000" d="M53.9 188.8h9m552.1 0h-9"/><text transform="translate(45.6 192.7)" stroke="none" fill="#000" font-family="Arial" font-size="12" text-anchor="end"><tspan>350</tspan></text></g><g fill="none" color="#000" stroke="currentColor"><path stroke="#000" d="M53.9 124.4h9m552.1 0h-9"/><text transform="translate(45.6 128.3)" stroke="none" fill="#000" font-family="Arial" font-size="12" text-anchor="end"><tspan>400</tspan></text></g><g fill="none" color="#000" stroke="currentColor"><path stroke="#000" d="M53.9 59.9h9m552.1 0h-9"/><text transform="translate(45.6 63.8)" stroke="none" fill="#000" font-family="Arial" font-size="12" text-anchor="end"><tspan>450</tspan></text></g><g fill="none" color="#000" stroke="currentColor"><path stroke="#000" d="M53.9 446v-9m0-418.9v9"/><text transform="translate(53.9 467.9)" stroke="none" fill="#000" font-family="Arial" font-size="12" text-anchor="middle"><tspan>0</tspan></text></g><g fill="none" color="#000" stroke="currentColor"><path stroke="#000" d="M110.6 446v-9m0-418.9v9"/><text transform="translate(110.6 467.9)" stroke="none" fill="#000" font-family="Arial" font-size="12" text-anchor="middle"><tspan>10</tspan></text></g><g fill="none" color="#000" stroke="currentColor"><path stroke="#000" d="M167.3 446v-9m0-418.9v9"/><text transform="translate(167.3 467.9)" stroke="none" fill="#000" font-family="Arial" font-size="12" text-anchor="middle"><tspan>20</tspan></text></g><g fill="none" color="#000" stroke="currentColor"><path stroke="#000" d="M223.9 446v-9m0-418.9v9"/><text transform="translate(223.9 467.9)" stroke="none" fill="#000" font-family="Arial" font-size="12" text-anchor="middle"><tspan>30</tspan></text></g><g fill="none" color="#000" stroke="currentColor"><path stroke="#000" d="M280.6 446v-9m0-418.9v9"/><text transform="translate(280.6 467.9)" stroke="none" fill="#000" font-family="Arial" font-size="12" text-anchor="middle"><tspan>40</tspan></text></g><g fill="none" color="#000" stroke="currentColor"><path stroke="#000" d="M337.3 446v-9m0-418.9v9"/><text transform="translate(337.3 467.9)" stroke="none" fill="#000" font-family="Arial" font-size="12" text-anchor="middle"><tspan>50</tspan></text></g><g fill="none" color="#000" stroke="currentColor"><path stroke="#000" d="M394 446v-9m0-418.9v9"/><text transform="translate(394 467.9)" stroke="none" fill="#000" font-family="Arial" font-size="12" text-anchor="middle"><tspan>60</tspan></text></g><g fill="none" color="#000" stroke="currentColor"><path stroke="#000" d="M450.6 446v-9m0-418.9v9"/><text transform="translate(450.6 467.9)" stroke="none" fill="#000" font-family="Arial" font-size="12" text-anchor="middle"><tspan>70</tspan></text></g><g fill="none" color="#000" stroke="currentColor"><path stroke="#000" d="M507.3 446v-9m0-418.9v9"/><text transform="translate(507.3 467.9)" stroke="none" fill="#000" font-family="Arial" font-size="12" text-anchor="middle"><tspan>80</tspan></text></g><g fill="none" color="#000" stroke="currentColor"><path stroke="#000" d="M564 446v-9m0-418.9v9"/><text transform="translate(564 467.9)" stroke="none" fill="#000" font-family="Arial" font-size="12" text-anchor="middle"><tspan>90</tspan></text></g><path stroke="#000" d="M53.9 18.1V446H615V18.1H53.9z" fill="none" color="#000"/><text transform="translate(275.6 485.9)" stroke="none" fill="#000" font-family="Arial" font-size="12" text-anchor="end" color="#000"><tspan>pages+cached+noadtech</tspan></text><path stroke="#9400D3" d="M283.9 482h42.2M53.9 41.8l5.7 389.5 5.6 1.3 5.7 2.6 5.7-3.9 5.6-402.4 5.7 9 5.7 398.6 5.6-3.9 5.7-398.5 5.7 397.2 5.6-398.5 5.7 397.2 5.7-397.2h5.6l5.7-3.9 5.7 401.1 5.7-395.9 5.6 399.8 5.7-406.3 5.7 408.9 5.6-402.4 5.7-3.9 5.7 9 5.6 393.4 5.7-401.1 5.7-1.3 5.6 402.4 5.7 2.6 5.7-405 5.6 12.9 5.7 394.7 5.7-1.3 5.6-402.4 5.7 402.4 5.7-402.4 5.6-6.5 5.7 407.6 5.7-399.8 5.6-1.3 5.7 2.5 5.7 396 5.6-398.5 5.7-2.6 5.7 1.3 5.6 399.8 5.7-402.4 5.7 401.1 5.6 3.9 5.7-401.1 5.7 397.2L343 31.5l5.6-1.3 5.7 402.4 5.7 1.3 5.6-405 5.7 403.7L377 34.1h5.6l5.7 393.4 5.7 6.4 5.6-405 5.7 7.7 5.7 394.7 5.6 1.3 5.7-406.3 5.7 3.9 5.6 406.3 5.7-1.3L445 34.1l5.6 6.4 5.7 394.7L462 34.1l5.6-2.6 5.7 401.1L479 30.2l5.6 1.3 5.7 402.4L496 32.8l5.6 1.3 5.7-2.6 5.7 2.6 5.6-1.3 5.7 5.1 5.7-2.5 5.7-3.9 5.6 401.1L547 30.2l5.7 2.6 5.6 6.4 5.7-9 5.7 399.8 5.6-394.6 5.7 397.2 5.7-397.2 5.6 392.1L598 37.9l5.7 393.4 5.6-398.5 5.7-2.6" fill="none" color="#000"/><text transform="translate(525.3 485.9)" stroke="none" fill="#000" font-family="Arial" font-size="12" text-anchor="end" color="#000"><tspan>pages+cached+noexternal</tspan></text><path stroke="#009E73" d="M533.6 482h42.2M53.9 433.9l5.7-2.6 5.6 3.9 5.7-401.1 5.7 398.5h17l5.6-398.5 5.7 3.8 5.7-6.4 5.6 1.3 5.7-2.6 5.7 3.9 5.6 399.8 5.7-394.7 5.7-5.1 5.7-5.2 5.6 12.9 5.7-11.6 5.7 7.7 5.6 392.1 5.7 2.6 5.7 2.6 5.6-2.6 5.7-1.3 5.7 2.6 5.6-399.8 5.7-5.2 5.7 10.3 5.6 394.7 5.7-403.7 5.7 402.4 5.6 2.6 5.7-402.4 5.7 399.8 5.6 1.3 5.7-2.6 5.7-398.5 5.6 1.3 5.7 2.5 5.7 398.6 5.6-402.4 5.7 402.4h5.7l5.6-1.3 5.7-403.7 5.7 405 5.6-397.3 5.7 394.7 5.7-399.8h5.7l5.6-1.3 5.7 5.1L360 430l5.6 5.2 5.7-3.9L377 31.5l5.6 2.6 5.7-2.6 5.7 403.7 5.6-405 5.7-2.6h5.7l5.6 11.6 5.7-5.1 5.7 397.2 5.6-401.1 5.7 5.2 5.7 398.5 5.6 1.3 5.7 1.3 5.7-2.6 5.6-398.5 5.7 397.2L479 37.9l5.6 393.4 5.7-398.5 5.7 401.1 5.6-399.8 5.7 399.8L513 35.4l5.6-1.3 5.7 401.1 5.7-3.9 5.7-393.4 5.6-2.5 5.7-1.3 5.7 1.3 5.6 398.5L564 32.8l5.7 402.4 5.6-399.8 5.7-1.3 5.7 2.5 5.6-2.5 5.7 398.5 5.7-398.5 5.6 1.3 5.7 397.2" fill="none" color="#000"/><g fill="none" color="#000" stroke="currentColor"><path stroke="#000" d="M53.9 18.1V446H615V18.1H53.9z"/></g></svg>