<svg width="640" height="500" xmlns="http://www.w3.org/2000/svg" xmlns:xlink="http://www.w3.org/1999/xlink"><path fill="#fff" d="M0 0h640v500H0z"/><defs><path id="d" stroke-width=".222" stroke="currentColor" d="M-1-1h2v2h-2z"/><path id="b" stroke-width=".222" stroke="currentColor" d="M0-1.33l-1.33 2h2.66z"/><path id="f" stroke-width=".222" stroke="currentColor" d="M0 1.33L1.265.411.782-1.067l-1.564-.009-.483 1.487z"/><use xlink:href="#b" id="c" stroke="currentColor" transform="rotate(180)"/><use xlink:href="#d" id="e" stroke="currentColor" transform="rotate(45)"/><circle id="a" stroke-width=".222" stroke="currentColor" cx="0" cy="0" r="1"/></defs><g fill="none" color="#000" stroke="currentColor"><path stroke="#000" d="M53.9 424.3h9m552.1 0h-9"/><text transform="translate(45.6 428.2)" stroke="none" fill="#000" font-family="Arial" font-size="12" text-anchor="end"><tspan>0</tspan></text></g><g fill="none" color="#000" stroke="currentColor"><path stroke="#000" d="M53.9 382.4h9m552.1 0h-9"/><text transform="translate(45.6 386.3)" stroke="none" fill="#000" font-family="Arial" font-size="12" text-anchor="end"><tspan>50</tspan></text></g><g fill="none" color="#000" stroke="currentColor"><path stroke="#000" d="M53.9 340.5h9m552.1 0h-9"/><text transform="translate(45.6 344.4)" stroke="none" fill="#000" font-family="Arial" font-size="12" text-anchor="end"><tspan>100</tspan></text></g><g fill="none" color="#000" stroke="currentColor"><path stroke="#000" d="M53.9 298.5h9m552.1 0h-9"/><text transform="translate(45.6 302.4)" stroke="none" fill="#000" font-family="Arial" font-size="12" text-anchor="end"><tspan>150</tspan></text></g><g fill="none" color="#000" stroke="currentColor"><path stroke="#000" d="M53.9 256.6h9m552.1 0h-9"/><text transform="translate(45.6 260.5)" stroke="none" fill="#000" font-family="Arial" font-size="12" text-anchor="end"><tspan>200</tspan></text></g><g fill="none" color="#000" stroke="currentColor"><path stroke="#000" d="M53.9 214.7h9m552.1 0h-9"/><text transform="translate(45.6 218.6)" stroke="none" fill="#000" font-family="Arial" font-size="12" text-anchor="end"><tspan>250</tspan></text></g><g fill="none" color="#000" stroke="currentColor"><path stroke="#000" d="M53.9 172.7h9m552.1 0h-9"/><text transform="translate(45.6 176.6)" stroke="none" fill="#000" font-family="Arial" font-size="12" text-anchor="end"><tspan>300</tspan></text></g><g fill="none" color="#000" stroke="currentColor"><path stroke="#000" d="M53.9 130.8h9m552.1 0h-9"/><text transform="translate(45.6 134.7)" stroke="none" fill="#000" font-family="Arial" font-size="12" text-anchor="end"><tspan>350</tspan></text></g><g fill="none" color="#000" stroke="currentColor"><path stroke="#000" d="M53.9 88.9h9m552.1 0h-9"/><text transform="translate(45.6 92.8)" stroke="none" fill="#000" font-family="Arial" font-size="12" text-anchor="end"><tspan>400</tspan></text></g><g fill="none" color="#000" stroke="currentColor"><path stroke="#000" d="M53.9 46.9h9m552.1 0h-9"/><text transform="translate(45.6 50.8)" stroke="none" fill="#000" font-family="Arial" font-size="12" text-anchor="end"><tspan>450</tspan></text></g><g fill="none" color="#000" stroke="currentColor"><path stroke="#000" d="M53.9 428v-9m0-400.9v9"/><text transform="translate(53.9 449.9)" stroke="none" fill="#000" font-family="Arial" font-size="12" text-anchor="middle"><tspan>0</tspan></text></g><g fill="none" color="#000" stroke="currentColor"><path stroke="#000" d="M110.6 428v-9m0-400.9v9"/><text transform="translate(110.6 449.9)" stroke="none" fill="#000" font-family="Arial" font-size="12" text-anchor="middle"><tspan>10</tspan></text></g><g fill="none" color="#000" stroke="currentColor"><path stroke="#000" d="M167.3 428v-9m0-400.9v9"/><text transform="translate(167.3 449.9)" stroke="none" fill="#000" font-family="Arial" font-size="12" text-anchor="middle"><tspan>20</tspan></text></g><g fill="none" color="#000" stroke="currentColor"><path stroke="#000" d="M223.9 428v-9m0-400.9v9"/><text transform="translate(223.9 449.9)" stroke="none" fill="#000" font-family="Arial" font-size="12" text-anchor="middle"><tspan>30</tspan></text></g><g fill="none" color="#000" stroke="currentColor"><path stroke="#000" d="M280.6 428v-9m0-400.9v9"/><text transform="translate(280.6 449.9)" stroke="none" fill="#000" font-family="Arial" font-size="12" text-anchor="middle"><tspan>40</tspan></text></g><g fill="none" color="#000" stroke="currentColor"><path stroke="#000" d="M337.3 428v-9m0-400.9v9"/><text transform="translate(337.3 449.9)" stroke="none" fill="#000" font-family="Arial" font-size="12" text-anchor="middle"><tspan>50</tspan></text></g><g fill="none" color="#000" stroke="currentColor"><path stroke="#000" d="M394 428v-9m0-400.9v9"/><text transform="translate(394 449.9)" stroke="none" fill="#000" font-family="Arial" font-size="12" text-anchor="middle"><tspan>60</tspan></text></g><g fill="none" color="#000" stroke="currentColor"><path stroke="#000" d="M450.6 428v-9m0-400.9v9"/><text transform="translate(450.6 449.9)" stroke="none" fill="#000" font-family="Arial" font-size="12" text-anchor="middle"><tspan>70</tspan></text></g><g fill="none" color="#000" stroke="currentColor"><path stroke="#000" d="M507.3 428v-9m0-400.9v9"/><text transform="translate(507.3 449.9)" stroke="none" fill="#000" font-family="Arial" font-size="12" text-anchor="middle"><tspan>80</tspan></text></g><g fill="none" color="#000" stroke="currentColor"><path stroke="#000" d="M564 428v-9m0-400.9v9"/><text transform="translate(564 449.9)" stroke="none" fill="#000" font-family="Arial" font-size="12" text-anchor="middle"><tspan>90</tspan></text></g><path stroke="#000" d="M53.9 18.1V428H615V18.1H53.9z" fill="none" color="#000"/><text transform="translate(433.7 467.9)" stroke="none" fill="#000" font-family="Arial" font-size="12" text-anchor="end" color="#000"><tspan>pages+cached+noexternal</tspan></text><path stroke="#9400D3" d="M442 464h42.2M53.9 290.1l5.7-1.6 5.6 2.5 5.7-260.8 5.7 259.1h17l5.6-259.1 5.7 2.5 5.7-4.2 5.6.8 5.7-1.6 5.7 2.5 5.6 259.9 5.7-256.6 5.7-3.3 5.7-3.4 5.6 8.4 5.7-7.5 5.7 5 5.6 254.9 5.7 1.7 5.7 1.7 5.6-1.7 5.7-.8 5.7 1.6 5.6-259.9 5.7-3.4 5.7 6.7 5.6 256.6 5.7-262.4 5.7 261.6 5.6 1.7 5.7-261.7 5.7 260 5.6.8 5.7-1.6 5.7-259.2 5.6.9 5.7 1.7 5.7 259.1 5.6-261.7 5.7 261.7h5.7l5.6-.9 5.7-262.4 5.7 263.3 5.6-258.3 5.7 256.6 5.7-260h5.7l5.6-.8 5.7 3.4 5.7 255.7 5.6 3.4 5.7-2.5 5.7-260 5.6 1.7 5.7-1.7L394 291l5.6-263.3 5.7-1.7h5.7l5.6 7.5 5.7-3.3 5.7 258.3 5.6-260.8 5.7 3.3 5.7 259.1 5.6.9 5.7.8 5.7-1.7L467.6 31l5.7 258.3L479 32.7l5.6 255.8 5.7-259.2 5.7 260.8 5.6-259.9 5.7 259.9L513 31l5.6-.8 5.7 260.8 5.7-2.5 5.7-255.8 5.6-1.7 5.7-.8 5.7.8 5.6 259.1L564 29.3l5.7 261.7 5.6-260 5.7-.8 5.7 1.7 5.6-1.7 5.7 259.1 5.7-259.1 5.6.8 5.7 258.3" fill="none" color="#000"/><text transform="translate(433.7 485.9)" stroke="none" fill="#000" font-family="Arial" font-size="12" text-anchor="end" color="#000"><tspan>pages+cached+noexternal+nofonts</tspan></text><path stroke="#009E73" d="M442 482h42.2M53.9 419.3l5.7-3.4 5.6.9 5.7 1.6h5.7l5.6-1.6 5.7 1.6 5.7-254.9 5.6 254.1 5.7-377.4 5.7 378.2 5.6-.8 5.7.8 5.7-.8 5.6.8 5.7-.8h5.7l5.7-.8 5.6.8 5.7-375.7 5.7 375.7 5.6-2.5h5.7l5.7-253.3 5.6 255.8 5.7.8 5.7-.8 5.6.8 5.7-.8 5.7.8 5.6-378.2 5.7.9 5.7 377.3h5.6l5.7-377.3 5.7-.9 5.6 377.4h5.7l5.7-.8h5.6l5.7-376.6 5.7 377.4 5.6-375.7 5.7 375.7 5.7-.8 5.6 2.5 5.7-1.7 5.7-260.8 5.6 261.6 5.7-376.5 5.7-.8 5.7 376.5h5.6l5.7.8L360 42.8l5.6 120.7 5.7 256.6L377 41.9l5.6 375.7 5.7.8 5.7-.8 5.6-.8h5.7L411 40.2l5.6 378.2 5.7-376.5h5.7l5.6 374 5.7-376.5 5.7 379.9 5.6-1.7H462l5.6.8 5.7-376.5 5.7 374.9 5.6-374.9 5.7 376.5h11.3l5.7-1.6 5.7 1.6 5.6-.8 5.7.8 5.7-2.5 5.7 1.7 5.6-375.7 5.7 375.7 5.7.8 5.6-377.3 5.7 375.7h17l5.7-257.5 5.6 259.1 5.7-.8h11.3l5.7-.8" fill="none" color="#000"/><g fill="none" color="#000" stroke="currentColor"><path stroke="#000" d="M53.9 18.1V428H615V18.1H53.9z"/></g></svg>