<svg width="640" height="500" xmlns="http://www.w3.org/2000/svg" xmlns:xlink="http://www.w3.org/1999/xlink"><path fill="#fff" d="M0 0h640v500H0z"/><defs><path id="d" stroke-width=".222" stroke="currentColor" d="M-1-1h2v2h-2z"/><path id="b" stroke-width=".222" stroke="currentColor" d="M0-1.33l-1.33 2h2.66z"/><path id="f" stroke-width=".222" stroke="currentColor" d="M0 1.33L1.265.411.782-1.067l-1.564-.009-.483 1.487z"/><use xlink:href="#b" id="c" stroke="currentColor" transform="rotate(180)"/><use xlink:href="#d" id="e" stroke="currentColor" transform="rotate(45)"/><circle id="a" stroke-width=".222" stroke="currentColor" cx="0" cy="0" r="1"/></defs><g fill="none" color="#000" stroke="currentColor"><path stroke="#000" d="M45.6 437.8h9m560.4 0h-9"/><text transform="translate(37.3 441.7)" stroke="none" fill="#000" font-family="Arial" font-size="12" text-anchor="end"><tspan>0</tspan></text></g><g fill="none" color="#000" stroke="currentColor"><path stroke="#000" d="M45.6 386.3h9m560.4 0h-9"/><text transform="translate(37.3 390.2)" stroke="none" fill="#000" font-family="Arial" font-size="12" text-anchor="end"><tspan>2</tspan></text></g><g fill="none" color="#000" stroke="currentColor"><path stroke="#000" d="M45.6 334.9h9m560.4 0h-9"/><text transform="translate(37.3 338.8)" stroke="none" fill="#000" font-family="Arial" font-size="12" text-anchor="end"><tspan>4</tspan></text></g><g fill="none" color="#000" stroke="currentColor"><path stroke="#000" d="M45.6 283.5h9m560.4 0h-9"/><text transform="translate(37.3 287.4)" stroke="none" fill="#000" font-family="Arial" font-size="12" text-anchor="end"><tspan>6</tspan></text></g><g fill="none" color="#000" stroke="currentColor"><path stroke="#000" d="M45.6 232h9m560.4 0h-9"/><text transform="translate(37.3 235.9)" stroke="none" fill="#000" font-family="Arial" font-size="12" text-anchor="end"><tspan>8</tspan></text></g><g fill="none" color="#000" stroke="currentColor"><path stroke="#000" d="M45.6 180.6h9m560.4 0h-9"/><text transform="translate(37.3 184.5)" stroke="none" fill="#000" font-family="Arial" font-size="12" text-anchor="end"><tspan>10</tspan></text></g><g fill="none" color="#000" stroke="currentColor"><path stroke="#000" d="M45.6 129.2h9m560.4 0h-9"/><text transform="translate(37.3 133.1)" stroke="none" fill="#000" font-family="Arial" font-size="12" text-anchor="end"><tspan>12</tspan></text></g><g fill="none" color="#000" stroke="currentColor"><path stroke="#000" d="M45.6 77.8h9m560.4 0h-9"/><text transform="translate(37.3 81.7)" stroke="none" fill="#000" font-family="Arial" font-size="12" text-anchor="end"><tspan>14</tspan></text></g><g fill="none" color="#000" stroke="currentColor"><path stroke="#000" d="M45.6 26.3h9m560.4 0h-9"/><text transform="translate(37.3 30.2)" stroke="none" fill="#000" font-family="Arial" font-size="12" text-anchor="end"><tspan>16</tspan></text></g><g fill="none" color="#000" stroke="currentColor"><path stroke="#000" d="M45.6 446v-9m0-418.9v9"/><text transform="translate(45.6 467.9)" stroke="none" fill="#000" font-family="Arial" font-size="12" text-anchor="middle"><tspan>0</tspan></text></g><g fill="none" color="#000" stroke="currentColor"><path stroke="#000" d="M103.1 446v-9m0-418.9v9"/><text transform="translate(103.1 467.9)" stroke="none" fill="#000" font-family="Arial" font-size="12" text-anchor="middle"><tspan>10</tspan></text></g><g fill="none" color="#000" stroke="currentColor"><path stroke="#000" d="M160.6 446v-9m0-418.9v9"/><text transform="translate(160.6 467.9)" stroke="none" fill="#000" font-family="Arial" font-size="12" text-anchor="middle"><tspan>20</tspan></text></g><g fill="none" color="#000" stroke="currentColor"><path stroke="#000" d="M218.1 446v-9m0-418.9v9"/><text transform="translate(218.1 467.9)" stroke="none" fill="#000" font-family="Arial" font-size="12" text-anchor="middle"><tspan>30</tspan></text></g><g fill="none" color="#000" stroke="currentColor"><path stroke="#000" d="M275.7 446v-9m0-418.9v9"/><text transform="translate(275.7 467.9)" stroke="none" fill="#000" font-family="Arial" font-size="12" text-anchor="middle"><tspan>40</tspan></text></g><g fill="none" color="#000" stroke="currentColor"><path stroke="#000" d="M333.2 446v-9m0-418.9v9"/><text transform="translate(333.2 467.9)" stroke="none" fill="#000" font-family="Arial" font-size="12" text-anchor="middle"><tspan>50</tspan></text></g><g fill="none" color="#000" stroke="currentColor"><path stroke="#000" d="M390.7 446v-9m0-418.9v9"/><text transform="translate(390.7 467.9)" stroke="none" fill="#000" font-family="Arial" font-size="12" text-anchor="middle"><tspan>60</tspan></text></g><g fill="none" color="#000" stroke="currentColor"><path stroke="#000" d="M448.2 446v-9m0-418.9v9"/><text transform="translate(448.2 467.9)" stroke="none" fill="#000" font-family="Arial" font-size="12" text-anchor="middle"><tspan>70</tspan></text></g><g fill="none" color="#000" stroke="currentColor"><path stroke="#000" d="M505.7 446v-9m0-418.9v9"/><text transform="translate(505.7 467.9)" stroke="none" fill="#000" font-family="Arial" font-size="12" text-anchor="middle"><tspan>80</tspan></text></g><g fill="none" color="#000" stroke="currentColor"><path stroke="#000" d="M563.2 446v-9m0-418.9v9"/><text transform="translate(563.2 467.9)" stroke="none" fill="#000" font-family="Arial" font-size="12" text-anchor="middle"><tspan>90</tspan></text></g><path stroke="#000" d="M45.6 18.1V446H615V18.1H45.6z" fill="none" color="#000"/><text transform="translate(271.5 485.9)" stroke="none" fill="#000" font-family="Arial" font-size="12" text-anchor="end" color="#000"><tspan>pages+cached+noexternal+nocss</tspan></text><path stroke="#9400D3" d="M279.8 482H322M45.6 437.8H615" fill="none" color="#000"/><text transform="translate(571 485.9)" stroke="none" fill="#000" font-family="Arial" font-size="12" text-anchor="end" color="#000"><tspan>pages+cached+noexternal+nojs</tspan></text><path stroke="#009E73" d="M579.3 482h42.2M45.6 129.2l5.8-51.4 5.7 102.8 5.8-25.7 5.7 25.7 5.8 25.7 5.7-77.1 5.8 25.7h5.7l5.8-77.1h5.7l5.8 102.8h11.5l5.7-77.1 5.8 77.1 5.7-51.4 5.8-51.4 5.7 51.4 5.8 25.7 5.7-51.4 5.8 102.8 5.7-51.4 5.8-51.4 5.7 102.8 5.8-51.4 5.7 25.7 5.8-77.1 5.7 77.1 5.8-51.4 5.7 77.1 5.8-25.7 5.7 257.2 5.8-308.6 5.8 51.4h11.5l5.7 51.4 5.8-51.4 5.7 25.7 5.8-51.4h5.7l5.8 282.9 5.7-282.9 5.8 51.4 5.7-51.4 5.8 25.7 5.7-25.7 5.8-51.4 5.7 77.1 5.8 257.2 5.7-205.8 5.8-102.8 5.7 51.4 5.8-25.7 5.7 282.9 5.8-231.5 5.7-77.1 5.8 51.4 5.7-154.3 5.8 180 5.7-77.1h5.8l5.7 51.4 5.8 25.7 5.7-51.4h5.8l5.8 25.7h5.7l5.8-77.1 5.7 25.7 5.8 77.1h5.7l5.8-51.4 5.7 25.7 5.8 25.7 5.7-77.1h5.8l5.7 25.7h5.8l5.7-25.7 5.8-25.7 5.7 77.1h5.8l5.7-51.4 5.8 25.7 5.7 25.7h5.8l5.7-25.7 5.8 51.4 5.7-51.4 5.8 25.7 5.7-25.7 5.8-25.7 5.7 25.7 5.8 51.4h5.7l5.8-25.7 5.7-25.7 5.8 51.4" fill="none" color="#000"/><g fill="none" color="#000" stroke="currentColor"><path stroke="#000" d="M45.6 18.1V446H615V18.1H45.6z"/></g></svg>