<svg width="640" height="500" xmlns="http://www.w3.org/2000/svg" xmlns:xlink="http://www.w3.org/1999/xlink"><path fill="#fff" d="M0 0h640v500H0z"/><defs><path id="d" stroke-width=".222" stroke="currentColor" d="M-1-1h2v2h-2z"/><path id="b" stroke-width=".222" stroke="currentColor" d="M0-1.33l-1.33 2h2.66z"/><path id="f" stroke-width=".222" stroke="currentColor" d="M0 1.33L1.265.411.782-1.067l-1.564-.009-.483 1.487z"/><use xlink:href="#b" id="c" stroke="currentColor" transform="rotate(180)"/><use xlink:href="#d" id="e" stroke="currentColor" transform="rotate(45)"/><circle id="a" stroke-width=".222" stroke="currentColor" cx="0" cy="0" r="1"/></defs><g fill="none" color="#000" stroke="currentColor"><path stroke="#000" d="M62.2 415.9h9m543.8 0h-9"/><text transform="translate(53.9 419.8)" stroke="none" fill="#000" font-family="Arial" font-size="12" text-anchor="end"><tspan>1950</tspan></text></g><g fill="none" color="#000" stroke="currentColor"><path stroke="#000" d="M62.2 373.2h9m543.8 0h-9"/><text transform="translate(53.9 377.1)" stroke="none" fill="#000" font-family="Arial" font-size="12" text-anchor="end"><tspan>2000</tspan></text></g><g fill="none" color="#000" stroke="currentColor"><path stroke="#000" d="M62.2 330.6h9m543.8 0h-9"/><text transform="translate(53.9 334.5)" stroke="none" fill="#000" font-family="Arial" font-size="12" text-anchor="end"><tspan>2050</tspan></text></g><g fill="none" color="#000" stroke="currentColor"><path stroke="#000" d="M62.2 288h9m543.8 0h-9"/><text transform="translate(53.9 291.9)" stroke="none" fill="#000" font-family="Arial" font-size="12" text-anchor="end"><tspan>2100</tspan></text></g><g fill="none" color="#000" stroke="currentColor"><path stroke="#000" d="M62.2 245.4h9m543.8 0h-9"/><text transform="translate(53.9 249.3)" stroke="none" fill="#000" font-family="Arial" font-size="12" text-anchor="end"><tspan>2150</tspan></text></g><g fill="none" color="#000" stroke="currentColor"><path stroke="#000" d="M62.2 202.7h9m543.8 0h-9"/><text transform="translate(53.9 206.6)" stroke="none" fill="#000" font-family="Arial" font-size="12" text-anchor="end"><tspan>2200</tspan></text></g><g fill="none" color="#000" stroke="currentColor"><path stroke="#000" d="M62.2 160.1h9m543.8 0h-9"/><text transform="translate(53.9 164)" stroke="none" fill="#000" font-family="Arial" font-size="12" text-anchor="end"><tspan>2250</tspan></text></g><g fill="none" color="#000" stroke="currentColor"><path stroke="#000" d="M62.2 117.5h9m543.8 0h-9"/><text transform="translate(53.9 121.4)" stroke="none" fill="#000" font-family="Arial" font-size="12" text-anchor="end"><tspan>2300</tspan></text></g><g fill="none" color="#000" stroke="currentColor"><path stroke="#000" d="M62.2 74.9h9m543.8 0h-9"/><text transform="translate(53.9 78.8)" stroke="none" fill="#000" font-family="Arial" font-size="12" text-anchor="end"><tspan>2350</tspan></text></g><g fill="none" color="#000" stroke="currentColor"><path stroke="#000" d="M62.2 32.3h9m543.8 0h-9"/><text transform="translate(53.9 36.2)" stroke="none" fill="#000" font-family="Arial" font-size="12" text-anchor="end"><tspan>2400</tspan></text></g><g fill="none" color="#000" stroke="currentColor"><path stroke="#000" d="M62.2 428v-9m0-400.9v9"/><text transform="translate(62.2 449.9)" stroke="none" fill="#000" font-family="Arial" font-size="12" text-anchor="middle"><tspan>0</tspan></text></g><g fill="none" color="#000" stroke="currentColor"><path stroke="#000" d="M118 428v-9m0-400.9v9"/><text transform="translate(118 449.9)" stroke="none" fill="#000" font-family="Arial" font-size="12" text-anchor="middle"><tspan>10</tspan></text></g><g fill="none" color="#000" stroke="currentColor"><path stroke="#000" d="M173.9 428v-9m0-400.9v9"/><text transform="translate(173.9 449.9)" stroke="none" fill="#000" font-family="Arial" font-size="12" text-anchor="middle"><tspan>20</tspan></text></g><g fill="none" color="#000" stroke="currentColor"><path stroke="#000" d="M229.7 428v-9m0-400.9v9"/><text transform="translate(229.7 449.9)" stroke="none" fill="#000" font-family="Arial" font-size="12" text-anchor="middle"><tspan>30</tspan></text></g><g fill="none" color="#000" stroke="currentColor"><path stroke="#000" d="M285.6 428v-9m0-400.9v9"/><text transform="translate(285.6 449.9)" stroke="none" fill="#000" font-family="Arial" font-size="12" text-anchor="middle"><tspan>40</tspan></text></g><g fill="none" color="#000" stroke="currentColor"><path stroke="#000" d="M341.4 428v-9m0-400.9v9"/><text transform="translate(341.4 449.9)" stroke="none" fill="#000" font-family="Arial" font-size="12" text-anchor="middle"><tspan>50</tspan></text></g><g fill="none" color="#000" stroke="currentColor"><path stroke="#000" d="M397.2 428v-9m0-400.9v9"/><text transform="translate(397.2 449.9)" stroke="none" fill="#000" font-family="Arial" font-size="12" text-anchor="middle"><tspan>60</tspan></text></g><g fill="none" color="#000" stroke="currentColor"><path stroke="#000" d="M453.1 428v-9m0-400.9v9"/><text transform="translate(453.1 449.9)" stroke="none" fill="#000" font-family="Arial" font-size="12" text-anchor="middle"><tspan>70</tspan></text></g><g fill="none" color="#000" stroke="currentColor"><path stroke="#000" d="M508.9 428v-9m0-400.9v9"/><text transform="translate(508.9 449.9)" stroke="none" fill="#000" font-family="Arial" font-size="12" text-anchor="middle"><tspan>80</tspan></text></g><g fill="none" color="#000" stroke="currentColor"><path stroke="#000" d="M564.7 428v-9m0-400.9v9"/><text transform="translate(564.7 449.9)" stroke="none" fill="#000" font-family="Arial" font-size="12" text-anchor="middle"><tspan>90</tspan></text></g><path stroke="#000" d="M62.2 18.1V428H615V18.1H62.2z" fill="none" color="#000"/><text transform="translate(279.8 467.9)" stroke="none" fill="#000" font-family="Arial" font-size="12" text-anchor="end" color="#000"><tspan>pages</tspan></text><path stroke="#9400D3" d="M288.1 464h42.2M62.2 26l5.6 381.3 5.6 1.3 5.6-30.7 5.5 37.5 5.6-4.9 5.6 2.9 5.6-3.6 5.6 6.4 5.6-2.7 5.5 5.6 5.6-175 5.6 167.8 5.6 5.2 5.6-3.8L146 366l5.5 46.3 5.6 4 5.6 2.8 5.6-19 5.6 15.7 5.6 2.6 5.5-197.8 5.6 140 5.6 52 5.6 7.5 5.6-12.3 5.6 3.4 5.5 4.8 5.6 1.1 5.6-7 5.6 3.7 5.6 1.4 5.6 3 5.6-86.8 5.5 84.3 5.6 2.7 5.6-4.3 5.6-2.3 5.6 4.8 5.6-6.4 5.5 8.4 5.6-9.9 5.6-50.1 5.6 56.3 5.6-67.3 5.6 59 5.5 7.6 5.6 2.7 5.6-4.8 5.6-132.2 5.6 131.3 5.6 8.3 5.5-6.4 5.6-7.3 5.6 13.7 5.6-203.6 5.6 194.3 5.6 4.3 5.5 5.5 5.6-68.5 5.6 67.7 5.6-.2 5.6-3.3 5.6-6.4 5.5 9.6 5.6-1.9 5.6 3 5.6-105.8 5.6 104.3 5.6-.5 5.6-2.6 5.5-1.4 5.6 4.9 5.6-1.6h5.6l5.6-9.6 5.6 10.8 5.5-2 5.6-95.4 5.6 87.9 5.6 6.3 5.6 2.7 5.6-3.6 5.5-3.2 5.6-152.7 5.6 152.8 5.6.2 5.6 8.6 5.6-195.9 5.5 190.9 5.6-2.1 5.6 6.6 5.6-6.5 5.6-.1 5.6-52.1 5.5 53.1 5.6-2.6 5.6 6.7 5.6-9.6" fill="none" color="#000"/><text transform="translate(279.8 485.9)" stroke="none" fill="#000" font-family="Arial" font-size="12" text-anchor="end" color="#000"><tspan>pages+cached</tspan></text><path stroke="#009E73" d="M288.1 482h42.2M62.2 417.6l5.6-30.3 5.6-185.7L79 392.4l5.5 2.3 5.6-197.8 5.6 197.2 5.6-64.1 5.6 64.1 5.6-1.7 5.5 2.2 5.6-200.2 5.6 201.4 5.6-1.9 5.6-.5 5.6.1 5.5-197.2 5.6 198.8 5.6-3.4 5.6 3.8 5.6 1.6 5.6-3.3 5.5-195 5.6 197.1 5.6 1 5.6-1.5 5.6-1.1 5.6-193.7 5.5 195.4 5.6-3 5.6 3.1 5.6-1.5 5.6-132.6 5.6-64.4 5.6 2.8 5.5 192.5 5.6 2.2 5.6-198.7 5.6 201.8 5.6-199.9 5.6 197.1 5.5-.2 5.6-.9 5.6-1.4 5.6 3.6 5.6-2.2 5.6 3.3 5.5-2.5 5.6.5 5.6-1 5.6-131.4 5.6 133.3 5.6-1.1 5.5-197.8 5.6 196.9 5.6 1.1 5.6-198 5.6 196.4 5.6-128.7 5.5 132.2 5.6-196.1 5.6-3.8 5.6 199.1 5.6-198.6 5.6 197.8 5.5 1.3 5.6-3.2 5.6 2.7 5.6.7 5.6-3.2 5.6-194.7 5.6 196.2 5.5-196.8 5.6 197 5.6-2.4 5.6 3.6 5.6-2.2 5.6 1.1 5.5 1.5 5.6-1 5.6-199.3 5.6 199 5.6-.1 5.6-132.7 5.5 135.9 5.6-2.7 5.6.1 5.6-.5 5.6-195.4 5.6-.5 5.5 196.4 5.6.3 5.6-2.4 5.6.9 5.6.9 5.6-194.5 5.5 65.8 5.6 127.8 5.6.3 5.6-199.1" fill="none" color="#000"/><text transform="translate(479.7 467.9)" stroke="none" fill="#000" font-family="Arial" font-size="12" text-anchor="end" color="#000"><tspan>score p10=2336</tspan></text><path stroke="#56B4E9" d="M488 464h42.2M62.2 86.8H615" fill="none" color="#000"/><g><text transform="translate(479.7 485.9)" stroke="none" fill="#000" font-family="Arial" font-size="12" text-anchor="end" color="#000"><tspan>score median=4000</tspan></text><path stroke="#E69F00" d="M488 482h42.2" fill="none" color="#000"/></g><g fill="none" color="#000" stroke="currentColor"><path stroke="#000" d="M62.2 18.1V428H615V18.1H62.2z"/></g></svg>