<svg width="640" height="500" xmlns="http://www.w3.org/2000/svg" xmlns:xlink="http://www.w3.org/1999/xlink"><path fill="#fff" d="M0 0h640v500H0z"/><defs><path id="d" stroke-width=".222" stroke="currentColor" d="M-1-1h2v2h-2z"/><path id="b" stroke-width=".222" stroke="currentColor" d="M0-1.33l-1.33 2h2.66z"/><path id="f" stroke-width=".222" stroke="currentColor" d="M0 1.33L1.265.411.782-1.067l-1.564-.009-.483 1.487z"/><use xlink:href="#b" id="c" stroke="currentColor" transform="rotate(180)"/><use xlink:href="#d" id="e" stroke="currentColor" transform="rotate(45)"/><circle id="a" stroke-width=".222" stroke="currentColor" cx="0" cy="0" r="1"/></defs><g fill="none" color="#000" stroke="currentColor"><path stroke="#000" d="M62.2 417.1h9m543.8 0h-9"/><text transform="translate(53.9 421)" stroke="none" fill="#000" font-family="Arial" font-size="12" text-anchor="end"><tspan>1950</tspan></text></g><g fill="none" color="#000" stroke="currentColor"><path stroke="#000" d="M62.2 341.8h9m543.8 0h-9"/><text transform="translate(53.9 345.7)" stroke="none" fill="#000" font-family="Arial" font-size="12" text-anchor="end"><tspan>2000</tspan></text></g><g fill="none" color="#000" stroke="currentColor"><path stroke="#000" d="M62.2 266.5h9m543.8 0h-9"/><text transform="translate(53.9 270.4)" stroke="none" fill="#000" font-family="Arial" font-size="12" text-anchor="end"><tspan>2050</tspan></text></g><g fill="none" color="#000" stroke="currentColor"><path stroke="#000" d="M62.2 191.3h9m543.8 0h-9"/><text transform="translate(53.9 195.2)" stroke="none" fill="#000" font-family="Arial" font-size="12" text-anchor="end"><tspan>2100</tspan></text></g><g fill="none" color="#000" stroke="currentColor"><path stroke="#000" d="M62.2 116h9m543.8 0h-9"/><text transform="translate(53.9 119.9)" stroke="none" fill="#000" font-family="Arial" font-size="12" text-anchor="end"><tspan>2150</tspan></text></g><g fill="none" color="#000" stroke="currentColor"><path stroke="#000" d="M62.2 40.8h9m543.8 0h-9"/><text transform="translate(53.9 44.7)" stroke="none" fill="#000" font-family="Arial" font-size="12" text-anchor="end"><tspan>2200</tspan></text></g><g fill="none" color="#000" stroke="currentColor"><path stroke="#000" d="M62.2 428v-9m0-400.9v9"/><text transform="translate(62.2 449.9)" stroke="none" fill="#000" font-family="Arial" font-size="12" text-anchor="middle"><tspan>0</tspan></text></g><g fill="none" color="#000" stroke="currentColor"><path stroke="#000" d="M118 428v-9m0-400.9v9"/><text transform="translate(118 449.9)" stroke="none" fill="#000" font-family="Arial" font-size="12" text-anchor="middle"><tspan>10</tspan></text></g><g fill="none" color="#000" stroke="currentColor"><path stroke="#000" d="M173.9 428v-9m0-400.9v9"/><text transform="translate(173.9 449.9)" stroke="none" fill="#000" font-family="Arial" font-size="12" text-anchor="middle"><tspan>20</tspan></text></g><g fill="none" color="#000" stroke="currentColor"><path stroke="#000" d="M229.7 428v-9m0-400.9v9"/><text transform="translate(229.7 449.9)" stroke="none" fill="#000" font-family="Arial" font-size="12" text-anchor="middle"><tspan>30</tspan></text></g><g fill="none" color="#000" stroke="currentColor"><path stroke="#000" d="M285.6 428v-9m0-400.9v9"/><text transform="translate(285.6 449.9)" stroke="none" fill="#000" font-family="Arial" font-size="12" text-anchor="middle"><tspan>40</tspan></text></g><g fill="none" color="#000" stroke="currentColor"><path stroke="#000" d="M341.4 428v-9m0-400.9v9"/><text transform="translate(341.4 449.9)" stroke="none" fill="#000" font-family="Arial" font-size="12" text-anchor="middle"><tspan>50</tspan></text></g><g fill="none" color="#000" stroke="currentColor"><path stroke="#000" d="M397.2 428v-9m0-400.9v9"/><text transform="translate(397.2 449.9)" stroke="none" fill="#000" font-family="Arial" font-size="12" text-anchor="middle"><tspan>60</tspan></text></g><g fill="none" color="#000" stroke="currentColor"><path stroke="#000" d="M453.1 428v-9m0-400.9v9"/><text transform="translate(453.1 449.9)" stroke="none" fill="#000" font-family="Arial" font-size="12" text-anchor="middle"><tspan>70</tspan></text></g><g fill="none" color="#000" stroke="currentColor"><path stroke="#000" d="M508.9 428v-9m0-400.9v9"/><text transform="translate(508.9 449.9)" stroke="none" fill="#000" font-family="Arial" font-size="12" text-anchor="middle"><tspan>80</tspan></text></g><g fill="none" color="#000" stroke="currentColor"><path stroke="#000" d="M564.7 428v-9m0-400.9v9"/><text transform="translate(564.7 449.9)" stroke="none" fill="#000" font-family="Arial" font-size="12" text-anchor="middle"><tspan>90</tspan></text></g><path stroke="#000" d="M62.2 18.1V428H615V18.1H62.2z" fill="none" color="#000"/><text transform="translate(279.8 467.9)" stroke="none" fill="#000" font-family="Arial" font-size="12" text-anchor="end" color="#000"><tspan>pages+cached</tspan></text><path stroke="#9400D3" d="M288.1 464h42.2M62.2 420.1l5.6-53.4 5.6-328 5.6 337 5.5 3.9 5.6-349.2 5.6 348.3 5.6-113.3 5.6 113.2 5.6-2.9 5.5 3.9L123.6 26l5.6 355.6 5.6-3.3 5.6-1 5.6.3 5.5-348.2 5.6 351 5.6-6.1 5.6 6.7 5.6 2.9 5.6-5.7L185 33.8l5.6 348 5.6 1.8 5.6-2.6 5.6-2L213 36.9l5.5 345.2 5.6-5.5 5.6 5.5 5.6-2.6 5.6-234.1 5.6-113.7 5.6 4.9 5.5 339.9 5.6 4 5.6-351 5.6 356.4L280 33l5.6 348 5.5-.4 5.6-1.7 5.6-2.4 5.6 6.4 5.6-3.9 5.6 5.8 5.5-4.4 5.6.9 5.6-1.8 5.6-232 5.6 235.4 5.6-2 5.5-349.3 5.6 347.8 5.6 2 5.6-349.7 5.6 346.7 5.6-227.2 5.5 233.4 5.6-346.3 5.6-6.6 5.6 351.5L414 32.5l5.6 349.4 5.5 2.3 5.6-5.7 5.6 4.7 5.6 1.2 5.6-5.6L453.1 35l5.6 346.5 5.5-347.6 5.6 347.9 5.6-4.2 5.6 6.3 5.6-3.8 5.6 1.9 5.5 2.7 5.6-1.9L508.9 31l5.6 351.4 5.6-.2 5.6-234.3 5.5 239.9 5.6-4.8 5.6.3 5.6-.9 5.6-345.1 5.6-.9 5.5 346.8 5.6.6 5.6-4.3 5.6 1.5 5.6 1.7 5.6-343.5 5.5 116.2 5.6 225.6 5.6.6L615 30.1" fill="none" color="#000"/><text transform="translate(279.8 485.9)" stroke="none" fill="#000" font-family="Arial" font-size="12" text-anchor="end" color="#000"><tspan>pages+cached+nointeractive</tspan></text><path stroke="#009E73" d="M288.1 482h42.2M62.2 380l5.6-340.4 5.6 344.7 5.6-1.6 5.5-1.4 5.6.5 5.6-5.7 5.6-334.6 5.6-6.2 5.6 112.8 5.5-111 5.6 346.9 5.6-2 5.6-1.5 5.6 3.4 5.6-3.5 5.5 6.4 5.6-353.9 5.6 3.8 5.6 346 5.6-345.8 5.6 344.8 5.5.6 5.6-1 5.6 3.6 5.6-5.4 5.6-340.2 5.6-3.7 5.5 346.9 5.6-346.1 5.6 108.3 5.6 8.1 5.6-1 5.6-110.2 5.6-4.4 5.5 113 5.6 231.4 5.6.3 5.6-231L280 38.4l5.6 343.6 5.5-347.9 5.6 4.5 5.6 341 5.6 2.9 5.6 1 5.6-233.3 5.5-113.1 5.6 346.9 5.6-348.1 5.6 2.3 5.6 344.6 5.6 1.1 5.5-234 5.6.5 5.6 2.7 5.6-117.5 5.6-1.4 5.6 10.5 5.5-6.6 5.6-5.7 5.6 3.3 5.6 350.7L414 35.7l5.6-.3 5.5 2.9 5.6 343.7 5.6-342.7 5.6-4.8 5.6 348.6 5.6-341.6 5.6-3.6 5.5 112.7 5.6-111.8 5.6-3.7 5.6 3.7 5.6-2.5 5.6-2.3 5.5 2.1 5.6.4 5.6 352.1 5.6-352.5 5.6-3.1 5.6 352.6 5.5 6 5.6-8.4 5.6-232.9L548 33.9l5.6 4.9 5.6 114.9 5.5-117.3 5.6-4 5.6 348 5.6-340.8 5.6.8 5.6.8 5.5-1.6 5.6 110.1 5.6 234.5L615 34.4" fill="none" color="#000"/><text transform="translate(554.4 467.9)" stroke="none" fill="#000" font-family="Arial" font-size="12" text-anchor="end" color="#000"><tspan>score p10=2336</tspan></text><path stroke="#56B4E9" d="M562.7 464h42.2" fill="none" color="#000"/><g><text transform="translate(554.4 485.9)" stroke="none" fill="#000" font-family="Arial" font-size="12" text-anchor="end" color="#000"><tspan>score median=4000</tspan></text><path stroke="#E69F00" d="M562.7 482h42.2" fill="none" color="#000"/></g><g fill="none" color="#000" stroke="currentColor"><path stroke="#000" d="M62.2 18.1V428H615V18.1H62.2z"/></g></svg>