<svg width="640" height="500" xmlns="http://www.w3.org/2000/svg" xmlns:xlink="http://www.w3.org/1999/xlink"><path fill="#fff" d="M0 0h640v500H0z"/><defs><path id="d" stroke-width=".222" stroke="currentColor" d="M-1-1h2v2h-2z"/><path id="b" stroke-width=".222" stroke="currentColor" d="M0-1.33l-1.33 2h2.66z"/><path id="f" stroke-width=".222" stroke="currentColor" d="M0 1.33L1.265.411.782-1.067l-1.564-.009-.483 1.487z"/><use xlink:href="#b" id="c" stroke="currentColor" transform="rotate(180)"/><use xlink:href="#d" id="e" stroke="currentColor" transform="rotate(45)"/><circle id="a" stroke-width=".222" stroke="currentColor" cx="0" cy="0" r="1"/></defs><g fill="none" color="#000" stroke="currentColor"><path stroke="#000" d="M78.8 411.1h9m527.2 0h-9"/><text transform="translate(70.5 415)" stroke="none" fill="#000" font-family="Arial" font-size="12" text-anchor="end"><tspan>558200</tspan></text></g><g fill="none" color="#000" stroke="currentColor"><path stroke="#000" d="M78.8 368.2h9m527.2 0h-9"/><text transform="translate(70.5 372.1)" stroke="none" fill="#000" font-family="Arial" font-size="12" text-anchor="end"><tspan>558400</tspan></text></g><g fill="none" color="#000" stroke="currentColor"><path stroke="#000" d="M78.8 325.3h9m527.2 0h-9"/><text transform="translate(70.5 329.2)" stroke="none" fill="#000" font-family="Arial" font-size="12" text-anchor="end"><tspan>558600</tspan></text></g><g fill="none" color="#000" stroke="currentColor"><path stroke="#000" d="M78.8 282.4h9m527.2 0h-9"/><text transform="translate(70.5 286.3)" stroke="none" fill="#000" font-family="Arial" font-size="12" text-anchor="end"><tspan>558800</tspan></text></g><g fill="none" color="#000" stroke="currentColor"><path stroke="#000" d="M78.8 239.5h9m527.2 0h-9"/><text transform="translate(70.5 243.4)" stroke="none" fill="#000" font-family="Arial" font-size="12" text-anchor="end"><tspan>559000</tspan></text></g><g fill="none" color="#000" stroke="currentColor"><path stroke="#000" d="M78.8 196.6h9m527.2 0h-9"/><text transform="translate(70.5 200.5)" stroke="none" fill="#000" font-family="Arial" font-size="12" text-anchor="end"><tspan>559200</tspan></text></g><g fill="none" color="#000" stroke="currentColor"><path stroke="#000" d="M78.8 153.7h9m527.2 0h-9"/><text transform="translate(70.5 157.6)" stroke="none" fill="#000" font-family="Arial" font-size="12" text-anchor="end"><tspan>559400</tspan></text></g><g fill="none" color="#000" stroke="currentColor"><path stroke="#000" d="M78.8 110.7h9m527.2 0h-9"/><text transform="translate(70.5 114.6)" stroke="none" fill="#000" font-family="Arial" font-size="12" text-anchor="end"><tspan>559600</tspan></text></g><g fill="none" color="#000" stroke="currentColor"><path stroke="#000" d="M78.8 67.8h9m527.2 0h-9"/><text transform="translate(70.5 71.7)" stroke="none" fill="#000" font-family="Arial" font-size="12" text-anchor="end"><tspan>559800</tspan></text></g><g fill="none" color="#000" stroke="currentColor"><path stroke="#000" d="M78.8 24.9h9m527.2 0h-9"/><text transform="translate(70.5 28.8)" stroke="none" fill="#000" font-family="Arial" font-size="12" text-anchor="end"><tspan>560000</tspan></text></g><g fill="none" color="#000" stroke="currentColor"><path stroke="#000" d="M78.8 428v-9m0-400.9v9"/><text transform="translate(78.8 449.9)" stroke="none" fill="#000" font-family="Arial" font-size="12" text-anchor="middle"><tspan>0</tspan></text></g><g fill="none" color="#000" stroke="currentColor"><path stroke="#000" d="M133 428v-9m0-400.9v9"/><text transform="translate(133 449.9)" stroke="none" fill="#000" font-family="Arial" font-size="12" text-anchor="middle"><tspan>10</tspan></text></g><g fill="none" color="#000" stroke="currentColor"><path stroke="#000" d="M187.1 428v-9m0-400.9v9"/><text transform="translate(187.1 449.9)" stroke="none" fill="#000" font-family="Arial" font-size="12" text-anchor="middle"><tspan>20</tspan></text></g><g fill="none" color="#000" stroke="currentColor"><path stroke="#000" d="M241.3 428v-9m0-400.9v9"/><text transform="translate(241.3 449.9)" stroke="none" fill="#000" font-family="Arial" font-size="12" text-anchor="middle"><tspan>30</tspan></text></g><g fill="none" color="#000" stroke="currentColor"><path stroke="#000" d="M295.4 428v-9m0-400.9v9"/><text transform="translate(295.4 449.9)" stroke="none" fill="#000" font-family="Arial" font-size="12" text-anchor="middle"><tspan>40</tspan></text></g><g fill="none" color="#000" stroke="currentColor"><path stroke="#000" d="M349.6 428v-9m0-400.9v9"/><text transform="translate(349.6 449.9)" stroke="none" fill="#000" font-family="Arial" font-size="12" text-anchor="middle"><tspan>50</tspan></text></g><g fill="none" color="#000" stroke="currentColor"><path stroke="#000" d="M403.8 428v-9m0-400.9v9"/><text transform="translate(403.8 449.9)" stroke="none" fill="#000" font-family="Arial" font-size="12" text-anchor="middle"><tspan>60</tspan></text></g><g fill="none" color="#000" stroke="currentColor"><path stroke="#000" d="M457.9 428v-9m0-400.9v9"/><text transform="translate(457.9 449.9)" stroke="none" fill="#000" font-family="Arial" font-size="12" text-anchor="middle"><tspan>70</tspan></text></g><g fill="none" color="#000" stroke="currentColor"><path stroke="#000" d="M512.1 428v-9m0-400.9v9"/><text transform="translate(512.1 449.9)" stroke="none" fill="#000" font-family="Arial" font-size="12" text-anchor="middle"><tspan>80</tspan></text></g><g fill="none" color="#000" stroke="currentColor"><path stroke="#000" d="M566.3 428v-9m0-400.9v9"/><text transform="translate(566.3 449.9)" stroke="none" fill="#000" font-family="Arial" font-size="12" text-anchor="middle"><tspan>90</tspan></text></g><path stroke="#000" d="M78.8 18.1V428H615V18.1H78.8z" fill="none" color="#000"/><text transform="translate(288.1 467.9)" stroke="none" fill="#000" font-family="Arial" font-size="12" text-anchor="end" color="#000"><tspan>pages</tspan></text><path stroke="#9400D3" d="M296.4 464h42.2M78.8 420.1l5.4-1.3 5.4-1.4 5.4-1.3 5.5-1.4 5.4-2.1 5.4-1.2 5.4-1.3 5.4-1.8 5.4-1.3 5.5-1.4 5.4-1.4 5.4-1.3 5.4-1.4 5.4-1.3 5.4-1.4 5.5-1.3 5.4-1.4 5.4-1.3 5.4-4 5.4-4.4 5.4-4.4 5.5-4.4 5.4-3.7 5.4-4.4 5.4-4.4 5.4-2.7 5.4-1.7 5.5-2.5 5.4-2.7 5.4-1.6 5.4-2.8 5.4-2.2 5.4-2 5.4-1.2 5.5-1 5.4-2.2 5.4-2.1 5.4-4.2 5.4-4.3 5.4-4.2 5.5-4.3 5.4-4.2 5.4-4.3 5.4-4.2 5.4-4.3 5.4-4.2 5.5-3.5 5.4-9.7 5.4-5.4 5.4-18.8 5.4-5.2 5.4-4.4 5.5-3.8 5.4-4.4 5.4-4.4 5.4-4.4 5.4-4.4 5.4-4.4 5.5-4.4 5.4-16.7 5.4-4.2 5.4-.4 5.4-3.9 5.4-16.9 5.5-7.1 5.4-4.4 5.4-4.4 5.4-3.7 5.4-4.4 5.4-4.4 5.4-4.4 5.5-4.4 5.4-4.4 5.4-5.1 5.4-4.4 5.4-4.4 5.4-3.8 5.5-4.4 5.4-4.4 5.4-4.5 5.4-4.4 5.4-4.4 5.4-4.4 5.5-4.4 5.4-5.1 5.4-5.2L550 78l5.4-4.4 5.4-3.7 5.5-4.4 5.4-4.4 5.4-4.4 5.4-4.4 5.4-4.4 5.4-4.5 5.5-4.4 5.4-4.4 5.4-4.2L615 26" fill="none" color="#000"/><text transform="translate(288.1 485.9)" stroke="none" fill="#000" font-family="Arial" font-size="12" text-anchor="end" color="#000"><tspan>pages+cached</tspan></text><path stroke="#009E73" d="M296.4 482h42.2M78.8 220l5.4-44.9 5.4-.1 5.4-.2h5.5l5.4-.5h5.4l5.4-.1h5.4l5.4-.1 5.5-.1h5.4l5.4-.1 5.4-.2h5.4l5.4-.2 5.5-.2 5.4-.1h5.4l5.4-.1h5.4l5.4-.1h16.3l5.4-.2h5.4l5.4-.1 5.5-.1h10.8l5.4-.1H262.9l5.5-.1 5.4-.1h5.4l5.4-.1h10.8l5.5-.1h10.8l5.4-.1 5.4-.2 5.4-.2h10.9l5.4-.1 5.4-.2 5.4-.1 5.4-.1 5.5-.1h5.4l5.4-.1h5.4l5.4-.2h16.3l5.4-.1 5.4-.1 5.4-.1h10.9l5.4-.1 5.4-.2h10.8l5.4-.1 5.4-.1 5.5-.1h10.8l5.4-.1 5.4-.1 5.4-.1 5.5-.1h5.4l5.4-.3h27.1l5.4-.1h5.4l5.4-.1h5.4l5.5-.1 5.4-.2 5.4-.2h5.4l5.4-.1h5.4l5.5-.1 5.4-.2 5.4-1.6 5.4-1.2" fill="none" color="#000"/><text transform="translate(504.6 467.9)" stroke="none" fill="#000" font-family="Arial" font-size="12" text-anchor="end" color="#000"><tspan>score p10=28672</tspan></text><path stroke="#56B4E9" d="M512.9 464h42.2" fill="none" color="#000"/><g><text transform="translate(504.6 485.9)" stroke="none" fill="#000" font-family="Arial" font-size="12" text-anchor="end" color="#000"><tspan>score median=131072</tspan></text><path stroke="#E69F00" d="M512.9 482h42.2" fill="none" color="#000"/></g><g fill="none" color="#000" stroke="currentColor"><path stroke="#000" d="M78.8 18.1V428H615V18.1H78.8z"/></g></svg>