<svg width="640" height="490" xmlns="http://www.w3.org/2000/svg" xmlns:xlink="http://www.w3.org/1999/xlink"><path fill="#fff" d="M0 0h640v490H0z"/><defs><path id="d" stroke-width=".222" stroke="currentColor" d="M-1-1h2v2h-2z"/><path id="b" stroke-width=".222" stroke="currentColor" d="M0-1.33l-1.33 2h2.66z"/><path id="f" stroke-width=".222" stroke="currentColor" d="M0 1.33L1.265.411.782-1.067l-1.564-.009-.483 1.487z"/><use xlink:href="#b" id="c" stroke="currentColor" transform="rotate(180)"/><use xlink:href="#d" id="e" stroke="currentColor" transform="rotate(45)"/><circle id="a" stroke-width=".222" stroke="currentColor" cx="0" cy="0" r="1"/></defs><g fill="none" color="#000" stroke="currentColor"><path stroke="#000" d="M62.2 435h9m543.8 0h-9"/><text transform="translate(53.9 438.9)" stroke="none" fill="#000" font-family="Arial" font-size="12" text-anchor="end"><tspan>8900</tspan></text></g><g fill="none" color="#000" stroke="currentColor"><path stroke="#000" d="M62.2 392.1h9m543.8 0h-9"/><text transform="translate(53.9 396)" stroke="none" fill="#000" font-family="Arial" font-size="12" text-anchor="end"><tspan>9000</tspan></text></g><g fill="none" color="#000" stroke="currentColor"><path stroke="#000" d="M62.2 349.2h9m543.8 0h-9"/><text transform="translate(53.9 353.1)" stroke="none" fill="#000" font-family="Arial" font-size="12" text-anchor="end"><tspan>9100</tspan></text></g><g fill="none" color="#000" stroke="currentColor"><path stroke="#000" d="M62.2 306.3h9m543.8 0h-9"/><text transform="translate(53.9 310.2)" stroke="none" fill="#000" font-family="Arial" font-size="12" text-anchor="end"><tspan>9200</tspan></text></g><g fill="none" color="#000" stroke="currentColor"><path stroke="#000" d="M62.2 263.4h9m543.8 0h-9"/><text transform="translate(53.9 267.3)" stroke="none" fill="#000" font-family="Arial" font-size="12" text-anchor="end"><tspan>9300</tspan></text></g><g fill="none" color="#000" stroke="currentColor"><path stroke="#000" d="M62.2 220.5h9m543.8 0h-9"/><text transform="translate(53.9 224.4)" stroke="none" fill="#000" font-family="Arial" font-size="12" text-anchor="end"><tspan>9400</tspan></text></g><g fill="none" color="#000" stroke="currentColor"><path stroke="#000" d="M62.2 177.6h9m543.8 0h-9"/><text transform="translate(53.9 181.5)" stroke="none" fill="#000" font-family="Arial" font-size="12" text-anchor="end"><tspan>9500</tspan></text></g><g fill="none" color="#000" stroke="currentColor"><path stroke="#000" d="M62.2 134.7h9m543.8 0h-9"/><text transform="translate(53.9 138.6)" stroke="none" fill="#000" font-family="Arial" font-size="12" text-anchor="end"><tspan>9600</tspan></text></g><g fill="none" color="#000" stroke="currentColor"><path stroke="#000" d="M62.2 91.8h9m543.8 0h-9"/><text transform="translate(53.9 95.7)" stroke="none" fill="#000" font-family="Arial" font-size="12" text-anchor="end"><tspan>9700</tspan></text></g><g fill="none" color="#000" stroke="currentColor"><path stroke="#000" d="M62.2 48.9h9m543.8 0h-9"/><text transform="translate(53.9 52.8)" stroke="none" fill="#000" font-family="Arial" font-size="12" text-anchor="end"><tspan>9800</tspan></text></g><g fill="none" color="#000" stroke="currentColor"><path stroke="#000" d="M62.2 436v-9m0-408.9v9"/><text transform="translate(62.2 457.9)" stroke="none" fill="#000" font-family="Arial" font-size="12" text-anchor="middle"><tspan>0</tspan></text></g><g fill="none" color="#000" stroke="currentColor"><path stroke="#000" d="M118 436v-9m0-408.9v9"/><text transform="translate(118 457.9)" stroke="none" fill="#000" font-family="Arial" font-size="12" text-anchor="middle"><tspan>10</tspan></text></g><g fill="none" color="#000" stroke="currentColor"><path stroke="#000" d="M173.9 436v-9m0-408.9v9"/><text transform="translate(173.9 457.9)" stroke="none" fill="#000" font-family="Arial" font-size="12" text-anchor="middle"><tspan>20</tspan></text></g><g fill="none" color="#000" stroke="currentColor"><path stroke="#000" d="M229.7 436v-9m0-408.9v9"/><text transform="translate(229.7 457.9)" stroke="none" fill="#000" font-family="Arial" font-size="12" text-anchor="middle"><tspan>30</tspan></text></g><g fill="none" color="#000" stroke="currentColor"><path stroke="#000" d="M285.6 436v-9m0-408.9v9"/><text transform="translate(285.6 457.9)" stroke="none" fill="#000" font-family="Arial" font-size="12" text-anchor="middle"><tspan>40</tspan></text></g><g fill="none" color="#000" stroke="currentColor"><path stroke="#000" d="M341.4 436v-9m0-408.9v9"/><text transform="translate(341.4 457.9)" stroke="none" fill="#000" font-family="Arial" font-size="12" text-anchor="middle"><tspan>50</tspan></text></g><g fill="none" color="#000" stroke="currentColor"><path stroke="#000" d="M397.2 436v-9m0-408.9v9"/><text transform="translate(397.2 457.9)" stroke="none" fill="#000" font-family="Arial" font-size="12" text-anchor="middle"><tspan>60</tspan></text></g><g fill="none" color="#000" stroke="currentColor"><path stroke="#000" d="M453.1 436v-9m0-408.9v9"/><text transform="translate(453.1 457.9)" stroke="none" fill="#000" font-family="Arial" font-size="12" text-anchor="middle"><tspan>70</tspan></text></g><g fill="none" color="#000" stroke="currentColor"><path stroke="#000" d="M508.9 436v-9m0-408.9v9"/><text transform="translate(508.9 457.9)" stroke="none" fill="#000" font-family="Arial" font-size="12" text-anchor="middle"><tspan>80</tspan></text></g><g fill="none" color="#000" stroke="currentColor"><path stroke="#000" d="M564.7 436v-9m0-408.9v9"/><text transform="translate(564.7 457.9)" stroke="none" fill="#000" font-family="Arial" font-size="12" text-anchor="middle"><tspan>90</tspan></text></g><path stroke="#000" d="M62.2 18.1V436H615V18.1H62.2z" fill="none" color="#000"/><text transform="translate(179.8 475.9)" stroke="none" fill="#000" font-family="Arial" font-size="12" text-anchor="end" color="#000"><tspan>raw</tspan></text><path stroke="#9400D3" d="M188.1 472h42.2M62.2 67.6l5.6 320.2 5.6-320.1L79 421.2l5.5-33.8 5.6-.9 5.6 33.6 5.6-354.8 5.6-31.2 5.6 3.1 5.5 26.4 5.6-31.3 5.6 354.7 5.6 2.6 5.6 33.9 5.6 4.3 5.5-361.4 5.6-39.6 5.6 15.1 5.6 20.1 5.6 8.1 5.6-42.6 5.5 360.8 5.6 35.4 5.6-357.9 5.6 352.8L207.4 67l5.6.2 5.5-6.3 5.6 367.1 5.6-39.9 5.6 30.6 5.6-30.9 5.6 33.7 5.6-389.8 5.5 389 5.6-351.4 5.6 317.6 5.6 2.6L280 65.7l5.6 326.3 5.5-323.1 5.6 351.8 5.6 1.4 5.6-27.7 5.6-4.5 5.6-328.3 5.5 363.2 5.6 1.8 5.6-36.7 5.6-324.6 5.6-.6 5.6 354.2L358.1 37l5.6 24.6 5.6 331.8 5.6-330.6 5.6 356.2 5.6-385.7 5.5 30.8 5.6 358.5 5.6-392.1 5.6-4.4 5.6 389.4 5.6 12.3 5.5-392.3 5.6 350.6 5.6-323.7 5.6 360.5 5.6-354.2 5.6 324.5 5.6 1.4 5.5-327.8 5.6 355.7 5.6-1.4L481 70.5l5.6-39.7 5.6 389.9 5.5-29.7 5.6-2.2 5.6-356.4 5.6 3.3 5.6 385.4 5.6-27.5 5.5-8.9L536.8 38l5.6 352.3L548 66.9l5.6 355.5 5.6-31.2 5.5 28.8 5.6 4 5.6-2 5.6-30.1 5.6-.3 5.6 30.4 5.5-34.2 5.6-320.9 5.6-33.9 5.6 354.9" fill="none" color="#000"/><text transform="translate(379.7 475.9)" stroke="none" fill="#000" font-family="Arial" font-size="12" text-anchor="end" color="#000"><tspan>score p10=2500</tspan></text><path stroke="#009E73" d="M388 472h42.2" fill="none" color="#000"/><text transform="translate(579.6 475.9)" stroke="none" fill="#000" font-family="Arial" font-size="12" text-anchor="end" color="#000"><tspan>score median=4000</tspan></text><path stroke="#56B4E9" d="M587.9 472h42.2" fill="none" color="#000"/><g fill="none" color="#000" stroke="currentColor"><path stroke="#000" d="M62.2 18.1V436H615V18.1H62.2z"/></g></svg>