<svg width="640" height="490" xmlns="http://www.w3.org/2000/svg" xmlns:xlink="http://www.w3.org/1999/xlink"><path fill="#fff" d="M0 0h640v490H0z"/><defs><path id="d" stroke-width=".222" stroke="currentColor" d="M-1-1h2v2h-2z"/><path id="b" stroke-width=".222" stroke="currentColor" d="M0-1.33l-1.33 2h2.66z"/><path id="f" stroke-width=".222" stroke="currentColor" d="M0 1.33L1.265.411.782-1.067l-1.564-.009-.483 1.487z"/><use xlink:href="#b" id="c" stroke="currentColor" transform="rotate(180)"/><use xlink:href="#d" id="e" stroke="currentColor" transform="rotate(45)"/><circle id="a" stroke-width=".222" stroke="currentColor" cx="0" cy="0" r="1"/></defs><g fill="none" color="#000" stroke="currentColor"><path stroke="#000" d="M78.8 396.3h9m527.2 0h-9"/><text transform="translate(70.5 400.2)" stroke="none" fill="#000" font-family="Arial" font-size="12" text-anchor="end"><tspan>559100</tspan></text></g><g fill="none" color="#000" stroke="currentColor"><path stroke="#000" d="M78.8 321h9m527.2 0h-9"/><text transform="translate(70.5 324.9)" stroke="none" fill="#000" font-family="Arial" font-size="12" text-anchor="end"><tspan>559150</tspan></text></g><g fill="none" color="#000" stroke="currentColor"><path stroke="#000" d="M78.8 245.7h9m527.2 0h-9"/><text transform="translate(70.5 249.6)" stroke="none" fill="#000" font-family="Arial" font-size="12" text-anchor="end"><tspan>559200</tspan></text></g><g fill="none" color="#000" stroke="currentColor"><path stroke="#000" d="M78.8 170.4h9m527.2 0h-9"/><text transform="translate(70.5 174.3)" stroke="none" fill="#000" font-family="Arial" font-size="12" text-anchor="end"><tspan>559250</tspan></text></g><g fill="none" color="#000" stroke="currentColor"><path stroke="#000" d="M78.8 95.1h9m527.2 0h-9"/><text transform="translate(70.5 99)" stroke="none" fill="#000" font-family="Arial" font-size="12" text-anchor="end"><tspan>559300</tspan></text></g><g fill="none" color="#000" stroke="currentColor"><path stroke="#000" d="M78.8 19.8h9m527.2 0h-9"/><text transform="translate(70.5 23.7)" stroke="none" fill="#000" font-family="Arial" font-size="12" text-anchor="end"><tspan>559350</tspan></text></g><g fill="none" color="#000" stroke="currentColor"><path stroke="#000" d="M78.8 418v-9m0-390.9v9"/><text transform="translate(78.8 439.9)" stroke="none" fill="#000" font-family="Arial" font-size="12" text-anchor="middle"><tspan>0</tspan></text></g><g fill="none" color="#000" stroke="currentColor"><path stroke="#000" d="M133 418v-9m0-390.9v9"/><text transform="translate(133 439.9)" stroke="none" fill="#000" font-family="Arial" font-size="12" text-anchor="middle"><tspan>10</tspan></text></g><g fill="none" color="#000" stroke="currentColor"><path stroke="#000" d="M187.1 418v-9m0-390.9v9"/><text transform="translate(187.1 439.9)" stroke="none" fill="#000" font-family="Arial" font-size="12" text-anchor="middle"><tspan>20</tspan></text></g><g fill="none" color="#000" stroke="currentColor"><path stroke="#000" d="M241.3 418v-9m0-390.9v9"/><text transform="translate(241.3 439.9)" stroke="none" fill="#000" font-family="Arial" font-size="12" text-anchor="middle"><tspan>30</tspan></text></g><g fill="none" color="#000" stroke="currentColor"><path stroke="#000" d="M295.4 418v-9m0-390.9v9"/><text transform="translate(295.4 439.9)" stroke="none" fill="#000" font-family="Arial" font-size="12" text-anchor="middle"><tspan>40</tspan></text></g><g fill="none" color="#000" stroke="currentColor"><path stroke="#000" d="M349.6 418v-9m0-390.9v9"/><text transform="translate(349.6 439.9)" stroke="none" fill="#000" font-family="Arial" font-size="12" text-anchor="middle"><tspan>50</tspan></text></g><g fill="none" color="#000" stroke="currentColor"><path stroke="#000" d="M403.8 418v-9m0-390.9v9"/><text transform="translate(403.8 439.9)" stroke="none" fill="#000" font-family="Arial" font-size="12" text-anchor="middle"><tspan>60</tspan></text></g><g fill="none" color="#000" stroke="currentColor"><path stroke="#000" d="M457.9 418v-9m0-390.9v9"/><text transform="translate(457.9 439.9)" stroke="none" fill="#000" font-family="Arial" font-size="12" text-anchor="middle"><tspan>70</tspan></text></g><g fill="none" color="#000" stroke="currentColor"><path stroke="#000" d="M512.1 418v-9m0-390.9v9"/><text transform="translate(512.1 439.9)" stroke="none" fill="#000" font-family="Arial" font-size="12" text-anchor="middle"><tspan>80</tspan></text></g><g fill="none" color="#000" stroke="currentColor"><path stroke="#000" d="M566.3 418v-9m0-390.9v9"/><text transform="translate(566.3 439.9)" stroke="none" fill="#000" font-family="Arial" font-size="12" text-anchor="middle"><tspan>90</tspan></text></g><path stroke="#000" d="M78.8 18.1V418H615V18.1H78.8z" fill="none" color="#000"/><text transform="translate(288.1 457.9)" stroke="none" fill="#000" font-family="Arial" font-size="12" text-anchor="end" color="#000"><tspan>raw</tspan></text><path stroke="#9400D3" d="M296.4 454h42.2M78.8 410.3l5.4-358.8 5.4 1.6 5.4 25 5.5-11 5.4-1.2 5.4-5.6 5.4 19.7 5.4-1 5.4-5.3 5.5 11.6 5.4-20.9 5.4 1.9 5.4-6.3 5.4 10.8 5.4 1.4 5.5-10 5.4-3 5.4-1.3 5.4-2.7 5.4-8.9 5.4 27.2 5.5-17.7 5.4-2.6h5.4l5.4 23.8 5.4-16 5.4 2.9 5.5-11.1 5.4 29.5 5.4-4.6 5.4-17.9 5.4 2.1 5.4-14.4 5.4 27.7 5.5.3 5.4 4.9 5.4 7.7 5.4-26 5.4 15.5 5.4 12.1 5.5-8.6 5.4-28.5 5.4 24.1 5.4-6.3 5.4 17.1 5.4-.4 5.5-3.2 5.4 9.4 5.4-59 5.4 40.4 5.4-19.6 5.4-10.2 5.5 44.8 5.4-27 5.4-4.4 5.4 27 5.4-37.1 5.4 32.5 5.5-29.5 5.4 18.4 5.4 9.5 5.4-26.8 5.4 28.2 5.4-12.3 5.5-10.3 5.4-5.1 5.4-3.2 5.4 45.2 5.4-31.6 5.4 25.5 5.4-30.7 5.5 23.5 5.4-17 5.4-38.7 5.4 51.7 5.4 3 5.4-5.7 5.5 6.6 5.4 5.5 5.4-11 5.4-24.8 5.4 16.4 5.4-15.2 5.5 22 5.4-8.8 5.4 9.5 5.4-10.8 5.4 9.5 5.4 20.3 5.5-46 5.4-.8 5.4 29.8 5.4-19.6 5.4 9.1 5.4 22.3 5.5-11.9 5.4 15.7 5.4-36.1 5.4 14" fill="none" color="#000"/><text transform="translate(288.1 475.9)" stroke="none" fill="#000" font-family="Arial" font-size="12" text-anchor="end" color="#000"><tspan>score p10=28672</tspan></text><path stroke="#009E73" d="M296.4 472h42.2" fill="none" color="#000"/><text transform="translate(504.6 457.9)" stroke="none" fill="#000" font-family="Arial" font-size="12" text-anchor="end" color="#000"><tspan>score median=131072</tspan></text><path stroke="#56B4E9" d="M512.9 454h42.2" fill="none" color="#000"/><g fill="none" color="#000" stroke="currentColor"><path stroke="#000" d="M78.8 18.1V418H615V18.1H78.8z"/></g></svg>