<svg width="640" height="500" xmlns="http://www.w3.org/2000/svg" xmlns:xlink="http://www.w3.org/1999/xlink"><path fill="#fff" d="M0 0h640v500H0z"/><defs><path id="d" stroke-width=".222" stroke="currentColor" d="M-1-1h2v2h-2z"/><path id="b" stroke-width=".222" stroke="currentColor" d="M0-1.33l-1.33 2h2.66z"/><path id="f" stroke-width=".222" stroke="currentColor" d="M0 1.33L1.265.411.782-1.067l-1.564-.009-.483 1.487z"/><use xlink:href="#b" id="c" stroke="currentColor" transform="rotate(180)"/><use xlink:href="#d" id="e" stroke="currentColor" transform="rotate(45)"/><circle id="a" stroke-width=".222" stroke="currentColor" cx="0" cy="0" r="1"/></defs><g fill="none" color="#000" stroke="currentColor"><path stroke="#000" d="M53.9 314.7h9m552.1 0h-9"/><text transform="translate(45.6 318.6)" stroke="none" fill="#000" font-family="Arial" font-size="12" text-anchor="end"><tspan>450</tspan></text></g><g fill="none" color="#000" stroke="currentColor"><path stroke="#000" d="M53.9 221.2h9m552.1 0h-9"/><text transform="translate(45.6 225.1)" stroke="none" fill="#000" font-family="Arial" font-size="12" text-anchor="end"><tspan>500</tspan></text></g><g fill="none" color="#000" stroke="currentColor"><path stroke="#000" d="M53.9 127.8h9m552.1 0h-9"/><text transform="translate(45.6 131.7)" stroke="none" fill="#000" font-family="Arial" font-size="12" text-anchor="end"><tspan>550</tspan></text></g><g fill="none" color="#000" stroke="currentColor"><path stroke="#000" d="M53.9 34.3h9m552.1 0h-9"/><text transform="translate(45.6 38.2)" stroke="none" fill="#000" font-family="Arial" font-size="12" text-anchor="end"><tspan>600</tspan></text></g><g fill="none" color="#000" stroke="currentColor"><path stroke="#000" d="M53.9 392v-9m0-364.9v9"/><text transform="translate(53.9 413.9)" stroke="none" fill="#000" font-family="Arial" font-size="12" text-anchor="middle"><tspan>0</tspan></text></g><g fill="none" color="#000" stroke="currentColor"><path stroke="#000" d="M110.6 392v-9m0-364.9v9"/><text transform="translate(110.6 413.9)" stroke="none" fill="#000" font-family="Arial" font-size="12" text-anchor="middle"><tspan>10</tspan></text></g><g fill="none" color="#000" stroke="currentColor"><path stroke="#000" d="M167.3 392v-9m0-364.9v9"/><text transform="translate(167.3 413.9)" stroke="none" fill="#000" font-family="Arial" font-size="12" text-anchor="middle"><tspan>20</tspan></text></g><g fill="none" color="#000" stroke="currentColor"><path stroke="#000" d="M223.9 392v-9m0-364.9v9"/><text transform="translate(223.9 413.9)" stroke="none" fill="#000" font-family="Arial" font-size="12" text-anchor="middle"><tspan>30</tspan></text></g><g fill="none" color="#000" stroke="currentColor"><path stroke="#000" d="M280.6 392v-9m0-364.9v9"/><text transform="translate(280.6 413.9)" stroke="none" fill="#000" font-family="Arial" font-size="12" text-anchor="middle"><tspan>40</tspan></text></g><g fill="none" color="#000" stroke="currentColor"><path stroke="#000" d="M337.3 392v-9m0-364.9v9"/><text transform="translate(337.3 413.9)" stroke="none" fill="#000" font-family="Arial" font-size="12" text-anchor="middle"><tspan>50</tspan></text></g><g fill="none" color="#000" stroke="currentColor"><path stroke="#000" d="M394 392v-9m0-364.9v9"/><text transform="translate(394 413.9)" stroke="none" fill="#000" font-family="Arial" font-size="12" text-anchor="middle"><tspan>60</tspan></text></g><g fill="none" color="#000" stroke="currentColor"><path stroke="#000" d="M450.6 392v-9m0-364.9v9"/><text transform="translate(450.6 413.9)" stroke="none" fill="#000" font-family="Arial" font-size="12" text-anchor="middle"><tspan>70</tspan></text></g><g fill="none" color="#000" stroke="currentColor"><path stroke="#000" d="M507.3 392v-9m0-364.9v9"/><text transform="translate(507.3 413.9)" stroke="none" fill="#000" font-family="Arial" font-size="12" text-anchor="middle"><tspan>80</tspan></text></g><g fill="none" color="#000" stroke="currentColor"><path stroke="#000" d="M564 392v-9m0-364.9v9"/><text transform="translate(564 413.9)" stroke="none" fill="#000" font-family="Arial" font-size="12" text-anchor="middle"><tspan>90</tspan></text></g><path stroke="#000" d="M53.9 18.1V392H615V18.1H53.9z" fill="none" color="#000"/><text transform="translate(483.5 431.9)" stroke="none" fill="#000" font-family="Arial" font-size="12" text-anchor="end" color="#000"><tspan>pages+cached+noexternal+nojs</tspan></text><path stroke="#9400D3" d="M491.8 428H534M53.9 312.9l5.7 31.3 5.6-5.7 5.7 4.7 5.7 18.7 5.6 11.1 5.7-11.5 5.7-21.9 5.6-3.8 5.7-13.8 5.7 31.7 5.6-3 5.7 13.1 5.7-31.5 5.6 15.5 5.7-12.1 5.7 18.8 5.7 14.6 5.6-36.6 5.7 16.4 5.7 6.8 5.6-1.7 5.7 4.2 5.7-5.1 5.6 12.7 5.7-2.2 5.7-20 5.6 9.2 5.7 25.1 5.7-26.7 5.6 5.7 5.7-10.6 5.7-4.6 5.6 5.9 5.7 10.3 5.7 3.7 5.6-2.3 5.7-1.3 5.7-1.6 5.6-28.6 5.7 33.3 5.7 8.9 5.6-5.9 5.7-19.6 5.7-2.5 5.6 10.5 5.7 32.3 5.7-23 5.6-28 5.7 31.3 5.7 1.4 5.7-1.4 5.6-17.2 5.7 9.9 5.7-20.7 5.6 11 5.7 9.1 5.7-26.3 5.6 23.6 5.7-3.9 5.7 2.8 5.6-12.1 5.7 12.9 5.7 7.6 5.6-15.8 5.7 4.2 5.7-6.8 5.6 20.2 5.7-2.6 5.7 9.6 5.6-28.7 5.7 24 5.7-17 5.6 18.2 5.7 4 5.7-7 5.6-5.4 5.7-13.1 5.7 17 5.6-7.1 5.7-7.4 5.7-17.7 5.6 34 5.7-11.5 5.7-1.1 5.7 7.1 5.6 8 5.7-23.8 5.7 17.2 5.6-2.5 5.7-6.8 5.7-5 5.6 15.6 5.7.3 5.7-27.1 5.6 22.7 5.7-12.9 5.7 1.6 5.6 8.7 5.7 9.8" fill="none" color="#000"/><text transform="translate(483.5 449.9)" stroke="none" fill="#000" font-family="Arial" font-size="12" text-anchor="end" color="#000"><tspan>pages+cached+noexternal+nofonts+nosvg+noimg</tspan></text><path stroke="#009E73" d="M491.8 446H534M53.9 183.9l5.7 2.2 5.6-18.7 5.7 41.8 5.7-29.5 5.6-13.6 5.7 49.5 5.7-38.9 5.6 16 5.7-16.6 5.7-36.6 5.6 52.9 5.7-51.4 5.7 38.5 5.6 23.5 5.7 13.2 5.7-39.9 5.7-.7 5.6-6.9 5.7-9.2 5.7 22.4 5.6-8.7 5.7-73.2 5.7 55 5.6 18 5.7-16.7 5.7 12.4 5.6 13.6 5.7-9.5 5.7 8.8 5.6-13.1 5.7-1 5.7 15.2 5.6-11.3 5.7 10.1 5.7-2.7 5.6-10.8 5.7-3.2 5.7-.4 5.6-13.2 5.7-11 5.7 17.6 5.6 8.2 5.7-11.7 5.7 42.2 5.6-21.7 5.7-15.4 5.7 12.7 5.6-2 5.7 23.6 5.7 5.3 5.7-35.5 5.6-17.5 5.7 43.8 5.7-28.7 5.6 17.6 5.7 25.6 5.7-55.4 5.6 9.3 5.7 43.6 5.7-55.9 5.6 40.9 5.7 11.4 5.7 9.5 5.6-104.6 5.7 63.6 5.7-6.8 5.6 17.3 5.7-10.8 5.7-13 5.6-128.1 5.7 159.3 5.7.9 5.6-157 5.7 133.5 5.7 2.8 5.6 8.7 5.7 25.6L496 123l5.6 47.2 5.7-5.9 5.7 40.8 5.6-15.5 5.7 48.1 5.7-130.4 5.7 69.4 5.6-3.7 5.7 5.2 5.7 28.7 5.6-20.4 5.7 8.4 5.7-41.5 5.6 10.6 5.7 3.6 5.7 9.7 5.6.5 5.7-48.6 5.7 41.8 5.6-9.3 5.7 57.2" fill="none" color="#000"/><text transform="translate(483.5 467.9)" stroke="none" fill="#000" font-family="Arial" font-size="12" text-anchor="end" color="#000"><tspan>score p10=2017</tspan></text><path stroke="#56B4E9" d="M491.8 464H534" fill="none" color="#000"/><g><text transform="translate(483.5 485.9)" stroke="none" fill="#000" font-family="Arial" font-size="12" text-anchor="end" color="#000"><tspan>score median=4000</tspan></text><path stroke="#E69F00" d="M491.8 482H534" fill="none" color="#000"/></g><g fill="none" color="#000" stroke="currentColor"><path stroke="#000" d="M53.9 18.1V392H615V18.1H53.9z"/></g></svg>