<svg width="640" height="500" xmlns="http://www.w3.org/2000/svg" xmlns:xlink="http://www.w3.org/1999/xlink"><path fill="#fff" d="M0 0h640v500H0z"/><defs><path id="d" stroke-width=".222" stroke="currentColor" d="M-1-1h2v2h-2z"/><path id="b" stroke-width=".222" stroke="currentColor" d="M0-1.33l-1.33 2h2.66z"/><path id="f" stroke-width=".222" stroke="currentColor" d="M0 1.33L1.265.411.782-1.067l-1.564-.009-.483 1.487z"/><use xlink:href="#b" id="c" stroke="currentColor" transform="rotate(180)"/><use xlink:href="#d" id="e" stroke="currentColor" transform="rotate(45)"/><circle id="a" stroke-width=".222" stroke="currentColor" cx="0" cy="0" r="1"/></defs><g fill="none" color="#000" stroke="currentColor"><path stroke="#000" d="M53.9 331.5h9m552.1 0h-9"/><text transform="translate(45.6 335.4)" stroke="none" fill="#000" font-family="Arial" font-size="12" text-anchor="end"><tspan>250</tspan></text></g><g fill="none" color="#000" stroke="currentColor"><path stroke="#000" d="M53.9 257h9m552.1 0h-9"/><text transform="translate(45.6 260.9)" stroke="none" fill="#000" font-family="Arial" font-size="12" text-anchor="end"><tspan>300</tspan></text></g><g fill="none" color="#000" stroke="currentColor"><path stroke="#000" d="M53.9 182.5h9m552.1 0h-9"/><text transform="translate(45.6 186.4)" stroke="none" fill="#000" font-family="Arial" font-size="12" text-anchor="end"><tspan>350</tspan></text></g><g fill="none" color="#000" stroke="currentColor"><path stroke="#000" d="M53.9 107.9h9m552.1 0h-9"/><text transform="translate(45.6 111.8)" stroke="none" fill="#000" font-family="Arial" font-size="12" text-anchor="end"><tspan>400</tspan></text></g><g fill="none" color="#000" stroke="currentColor"><path stroke="#000" d="M53.9 33.4h9m552.1 0h-9"/><text transform="translate(45.6 37.3)" stroke="none" fill="#000" font-family="Arial" font-size="12" text-anchor="end"><tspan>450</tspan></text></g><g fill="none" color="#000" stroke="currentColor"><path stroke="#000" d="M53.9 392v-9m0-364.9v9"/><text transform="translate(53.9 413.9)" stroke="none" fill="#000" font-family="Arial" font-size="12" text-anchor="middle"><tspan>0</tspan></text></g><g fill="none" color="#000" stroke="currentColor"><path stroke="#000" d="M110.6 392v-9m0-364.9v9"/><text transform="translate(110.6 413.9)" stroke="none" fill="#000" font-family="Arial" font-size="12" text-anchor="middle"><tspan>10</tspan></text></g><g fill="none" color="#000" stroke="currentColor"><path stroke="#000" d="M167.3 392v-9m0-364.9v9"/><text transform="translate(167.3 413.9)" stroke="none" fill="#000" font-family="Arial" font-size="12" text-anchor="middle"><tspan>20</tspan></text></g><g fill="none" color="#000" stroke="currentColor"><path stroke="#000" d="M223.9 392v-9m0-364.9v9"/><text transform="translate(223.9 413.9)" stroke="none" fill="#000" font-family="Arial" font-size="12" text-anchor="middle"><tspan>30</tspan></text></g><g fill="none" color="#000" stroke="currentColor"><path stroke="#000" d="M280.6 392v-9m0-364.9v9"/><text transform="translate(280.6 413.9)" stroke="none" fill="#000" font-family="Arial" font-size="12" text-anchor="middle"><tspan>40</tspan></text></g><g fill="none" color="#000" stroke="currentColor"><path stroke="#000" d="M337.3 392v-9m0-364.9v9"/><text transform="translate(337.3 413.9)" stroke="none" fill="#000" font-family="Arial" font-size="12" text-anchor="middle"><tspan>50</tspan></text></g><g fill="none" color="#000" stroke="currentColor"><path stroke="#000" d="M394 392v-9m0-364.9v9"/><text transform="translate(394 413.9)" stroke="none" fill="#000" font-family="Arial" font-size="12" text-anchor="middle"><tspan>60</tspan></text></g><g fill="none" color="#000" stroke="currentColor"><path stroke="#000" d="M450.6 392v-9m0-364.9v9"/><text transform="translate(450.6 413.9)" stroke="none" fill="#000" font-family="Arial" font-size="12" text-anchor="middle"><tspan>70</tspan></text></g><g fill="none" color="#000" stroke="currentColor"><path stroke="#000" d="M507.3 392v-9m0-364.9v9"/><text transform="translate(507.3 413.9)" stroke="none" fill="#000" font-family="Arial" font-size="12" text-anchor="middle"><tspan>80</tspan></text></g><g fill="none" color="#000" stroke="currentColor"><path stroke="#000" d="M564 392v-9m0-364.9v9"/><text transform="translate(564 413.9)" stroke="none" fill="#000" font-family="Arial" font-size="12" text-anchor="middle"><tspan>90</tspan></text></g><path stroke="#000" d="M53.9 18.1V392H615V18.1H53.9z" fill="none" color="#000"/><text transform="translate(529.1 431.9)" stroke="none" fill="#000" font-family="Arial" font-size="12" text-anchor="end" color="#000"><tspan>pages+cached+noexternal+nofonts+nosvg+noimg+nocss</tspan></text><path stroke="#9400D3" d="M537.4 428h42.2M53.9 174.9l5.7-16 5.6-2.3 5.7 19.2 5.7-18.3 5.6 1 5.7 11.2 5.7-2.6 5.6-17.7 5.7-8.9 5.7 18.5 5.6 5.8 5.7-8.9 5.7-11.3 5.6 20 5.7-.5 5.7 4.3 5.7-15.2 5.6 17.2 5.7-8.1 5.7-137 5.6 119.2 5.7 4.7 5.7 10.9 5.6 5.1 5.7 1 5.7-8.8 5.6.7 5.7 2.4 5.7-9.2 5.6 1.1 5.7-.7 5.7 8.3 5.6 5.3 5.7 7.3 5.7-27.1 5.6 10.9 5.7 18.3 5.7-9.4 5.6-11.9 5.7 16.1 5.7-14 5.6-2.3 5.7 3.7 5.7-8.8 5.6.2 5.7 7.3 5.7 22 5.6-23.6 5.7 21.9 5.7 8.1 5.7-20 5.6-10.1 5.7-1.4 5.7-.1 5.6 7.4 5.7-2.5 5.7 19.6 5.6-24.4 5.7 4.9 5.7 5.8 5.6-12.9 5.7 2.2 5.7 15.7 5.6-13.6 5.7-29.5 5.7 42.1 5.6-7.4 5.7-19.4 5.7 2.1 5.6 9.1 5.7 9 5.7-7.2 5.6 17.4 5.7-8.3 5.7 1.6 5.6-12.5 5.7 11.1 5.7 11.8 5.6-6.3 5.7-12.7 5.7 18.4 5.6-8.7 5.7-11.1 5.7-19.6 5.7 21.6 5.6 17.7 5.7-15.4 5.7-.5 5.6-2.5 5.7 3.6 5.7-9 5.6 16.7 5.7 3.9 5.7-23.1 5.6 23.5 5.7 3 5.7-28.7 5.6 7.6 5.7 17.3" fill="none" color="#000"/><text transform="translate(529.1 449.9)" stroke="none" fill="#000" font-family="Arial" font-size="12" text-anchor="end" color="#000"><tspan>pages+cached+noexternal+nofonts+nosvg+noimg+nocss+nojs</tspan></text><path stroke="#009E73" d="M537.4 446h42.2M53.9 372.7l5.7-12.4 5.6 15.1 5.7-24.7 5.7 2.6 5.6-1.4 5.7 28.3 5.7-18.9 5.6-7.5 5.7 2.7 5.7-.7 5.6 14.7 5.7-4.6 5.7-21.5 5.6 32.5 5.7-30.2 5.7 9.6 5.7 20.4 5.6-11.4 5.7-10.1 5.7-9.2 5.6 16.3 5.7 2 5.7-10.5 5.6-5.4 5.7 4.1 5.7 5.2 5.6 8.4 5.7-20.3 5.7 23.1 5.6-24.8 5.7 10.9 5.7-8.4 5.6 18.1 5.7 7.5 5.7-17.6 5.6 8.4 5.7-13 5.7 34.8 5.6-27.1 5.7 4.9 5.7-14.2 5.6 25.8 5.7-17.7 5.7 8 5.6-12.4 5.7 4.5 5.7-2.6 5.6-10 5.7 12.4 5.7-4.1 5.7-1.8 5.6 3.3 5.7-3.6 5.7 8.7 5.6 17.9 5.7-16.1 5.7 5.8 5.6-22.2 5.7 15.1 5.7-8.3 5.6 19.1 5.7-11.8 5.7-.6 5.6-5.7 5.7 1.2 5.7-6.6 5.6-.4 5.7 34.6 5.7 1.1 5.6-34 5.7-1.1 5.7 8.4 5.6 21.6 5.7-11.3 5.7-18.3 5.6 14.2 5.7-8.2 5.7 24 5.6-24.1 5.7.2 5.7 2.4 5.6-1.8 5.7 4.1 5.7-18.7 5.7 11.4 5.6 2.2 5.7 21.1 5.7-25.4 5.6.1 5.7 2 5.7 9.3 5.6-9.1 5.7-2.5 5.7 18.1 5.6-21.9 5.7-1.6 5.7 29.9 5.6-6.3L615 351" fill="none" color="#000"/><text transform="translate(529.1 467.9)" stroke="none" fill="#000" font-family="Arial" font-size="12" text-anchor="end" color="#000"><tspan>score p10=2017</tspan></text><path stroke="#56B4E9" d="M537.4 464h42.2" fill="none" color="#000"/><g><text transform="translate(529.1 485.9)" stroke="none" fill="#000" font-family="Arial" font-size="12" text-anchor="end" color="#000"><tspan>score median=4000</tspan></text><path stroke="#E69F00" d="M537.4 482h42.2" fill="none" color="#000"/></g><g fill="none" color="#000" stroke="currentColor"><path stroke="#000" d="M53.9 18.1V392H615V18.1H53.9z"/></g></svg>