<svg width="640" height="500" xmlns="http://www.w3.org/2000/svg" xmlns:xlink="http://www.w3.org/1999/xlink"><path fill="#fff" d="M0 0h640v500H0z"/><defs><path id="d" stroke-width=".222" stroke="currentColor" d="M-1-1h2v2h-2z"/><path id="b" stroke-width=".222" stroke="currentColor" d="M0-1.33l-1.33 2h2.66z"/><path id="f" stroke-width=".222" stroke="currentColor" d="M0 1.33L1.265.411.782-1.067l-1.564-.009-.483 1.487z"/><use xlink:href="#b" id="c" stroke="currentColor" transform="rotate(180)"/><use xlink:href="#d" id="e" stroke="currentColor" transform="rotate(45)"/><circle id="a" stroke-width=".222" stroke="currentColor" cx="0" cy="0" r="1"/></defs><g fill="none" color="#000" stroke="currentColor"><path stroke="#000" d="M62.2 384.5h9m543.8 0h-9"/><text transform="translate(53.9 388.4)" stroke="none" fill="#000" font-family="Arial" font-size="12" text-anchor="end"><tspan>1750</tspan></text></g><g fill="none" color="#000" stroke="currentColor"><path stroke="#000" d="M62.2 331.8h9m543.8 0h-9"/><text transform="translate(53.9 335.7)" stroke="none" fill="#000" font-family="Arial" font-size="12" text-anchor="end"><tspan>1800</tspan></text></g><g fill="none" color="#000" stroke="currentColor"><path stroke="#000" d="M62.2 279.1h9m543.8 0h-9"/><text transform="translate(53.9 283)" stroke="none" fill="#000" font-family="Arial" font-size="12" text-anchor="end"><tspan>1850</tspan></text></g><g fill="none" color="#000" stroke="currentColor"><path stroke="#000" d="M62.2 226.4h9m543.8 0h-9"/><text transform="translate(53.9 230.3)" stroke="none" fill="#000" font-family="Arial" font-size="12" text-anchor="end"><tspan>1900</tspan></text></g><g fill="none" color="#000" stroke="currentColor"><path stroke="#000" d="M62.2 173.7h9m543.8 0h-9"/><text transform="translate(53.9 177.6)" stroke="none" fill="#000" font-family="Arial" font-size="12" text-anchor="end"><tspan>1950</tspan></text></g><g fill="none" color="#000" stroke="currentColor"><path stroke="#000" d="M62.2 121h9m543.8 0h-9"/><text transform="translate(53.9 124.9)" stroke="none" fill="#000" font-family="Arial" font-size="12" text-anchor="end"><tspan>2000</tspan></text></g><g fill="none" color="#000" stroke="currentColor"><path stroke="#000" d="M62.2 68.3h9m543.8 0h-9"/><text transform="translate(53.9 72.2)" stroke="none" fill="#000" font-family="Arial" font-size="12" text-anchor="end"><tspan>2050</tspan></text></g><g fill="none" color="#000" stroke="currentColor"><path stroke="#000" d="M62.2 428v-9m0-400.9v9"/><text transform="translate(62.2 449.9)" stroke="none" fill="#000" font-family="Arial" font-size="12" text-anchor="middle"><tspan>0</tspan></text></g><g fill="none" color="#000" stroke="currentColor"><path stroke="#000" d="M118 428v-9m0-400.9v9"/><text transform="translate(118 449.9)" stroke="none" fill="#000" font-family="Arial" font-size="12" text-anchor="middle"><tspan>10</tspan></text></g><g fill="none" color="#000" stroke="currentColor"><path stroke="#000" d="M173.9 428v-9m0-400.9v9"/><text transform="translate(173.9 449.9)" stroke="none" fill="#000" font-family="Arial" font-size="12" text-anchor="middle"><tspan>20</tspan></text></g><g fill="none" color="#000" stroke="currentColor"><path stroke="#000" d="M229.7 428v-9m0-400.9v9"/><text transform="translate(229.7 449.9)" stroke="none" fill="#000" font-family="Arial" font-size="12" text-anchor="middle"><tspan>30</tspan></text></g><g fill="none" color="#000" stroke="currentColor"><path stroke="#000" d="M285.6 428v-9m0-400.9v9"/><text transform="translate(285.6 449.9)" stroke="none" fill="#000" font-family="Arial" font-size="12" text-anchor="middle"><tspan>40</tspan></text></g><g fill="none" color="#000" stroke="currentColor"><path stroke="#000" d="M341.4 428v-9m0-400.9v9"/><text transform="translate(341.4 449.9)" stroke="none" fill="#000" font-family="Arial" font-size="12" text-anchor="middle"><tspan>50</tspan></text></g><g fill="none" color="#000" stroke="currentColor"><path stroke="#000" d="M397.2 428v-9m0-400.9v9"/><text transform="translate(397.2 449.9)" stroke="none" fill="#000" font-family="Arial" font-size="12" text-anchor="middle"><tspan>60</tspan></text></g><g fill="none" color="#000" stroke="currentColor"><path stroke="#000" d="M453.1 428v-9m0-400.9v9"/><text transform="translate(453.1 449.9)" stroke="none" fill="#000" font-family="Arial" font-size="12" text-anchor="middle"><tspan>70</tspan></text></g><g fill="none" color="#000" stroke="currentColor"><path stroke="#000" d="M508.9 428v-9m0-400.9v9"/><text transform="translate(508.9 449.9)" stroke="none" fill="#000" font-family="Arial" font-size="12" text-anchor="middle"><tspan>80</tspan></text></g><g fill="none" color="#000" stroke="currentColor"><path stroke="#000" d="M564.7 428v-9m0-400.9v9"/><text transform="translate(564.7 449.9)" stroke="none" fill="#000" font-family="Arial" font-size="12" text-anchor="middle"><tspan>90</tspan></text></g><path stroke="#000" d="M62.2 18.1V428H615V18.1H62.2z" fill="none" color="#000"/><text transform="translate(279.8 467.9)" stroke="none" fill="#000" font-family="Arial" font-size="12" text-anchor="end" color="#000"><tspan>pages+cached</tspan></text><path stroke="#9400D3" d="M288.1 464h42.2M62.2 420.1L67.8 26l5.6 298.2 5.6 23.6 5.5-4.3 5.6-61.9 5.6 51.7 5.6-111.2 5.6 141.8 5.6-54.7 5.5-19 5.6-54.7 5.6 99.6 5.6-71.3 5.6 49.1 5.6 35.2 5.5-15.2 5.6 19.3 5.6-12.6 5.6 23.6 5.6-47 5.6-19.7 5.5-.1 5.6 23.8 5.6-30.2 5.6-16.3 5.6 54.1 5.6-23.1 5.5 23 5.6 21.5 5.6-29.2 5.6 4.5 5.6 6.7 5.6 12.6 5.6-20 5.5-10.4 5.6-11.3 5.6-34.5 5.6 55.1 5.6-15 5.6 15.8 5.5 26.2 5.6-92.2 5.6 34.4 5.6 28.4 5.6 12.8 5.6 9.9 5.5-117.4 5.6 110 5.6 1.4 5.6-20.4 5.6-102 5.6 104.2 5.5-57.5 5.6 66.9 5.6-22.9 5.6 26.1 5.6-20 5.6 3.8 5.5-19.6 5.6 63.3 5.6-88.7 5.6 36.2 5.6 24.3 5.6-3 5.5-32.3 5.6 11.9 5.6 20.5 5.6-28.6 5.6 29.4 5.6-43.4 5.6 52.3 5.5-106.9 5.6 91.4 5.6 18.6 5.6 10.3 5.6 6.6 5.6-28.5 5.5 1.9 5.6-4.1 5.6 32.2 5.6-48.6 5.6 50.8 5.6-35.1 5.5-26.3 5.6 21.5 5.6-1.5 5.6-57.2 5.6 37.7 5.6 60.8 5.5-14.3 5.6-4.4 5.6-78.3 5.6 24.7 5.6 46.5 5.6-10.7 5.5 16.4 5.6-2.1 5.6-61.8 5.6 63.6" fill="none" color="#000"/><text transform="translate(279.8 485.9)" stroke="none" fill="#000" font-family="Arial" font-size="12" text-anchor="end" color="#000"><tspan>pages+cached+nointeractive</tspan></text><path stroke="#009E73" d="M288.1 482h42.2M62.2 293.1l5.6 44.8 5.6-83.3 5.6 77.6 5.5-17 5.6 1.4 5.6-13.5 5.6 35.6 5.6-67.8 5.6 3.6 5.5 47.9 5.6 29.7 5.6-59.6 5.6 46.4 5.6-6.6 5.6.3 5.5-12.6 5.6 3.7 5.6-14.8 5.6 35.7 5.6-27.2 5.6 27.7 5.5.3 5.6-.6 5.6-110.1 5.6 112.8 5.6 38 5.6-29.7 5.5-26.9 5.6-20.3 5.6 5.6 5.6 34.8 5.6-37.4 5.6 38.3 5.6 26.8 5.5-53.8 5.6-35.8 5.6 53.5 5.6-28.1 5.6 26.9 5.6 15.3 5.5-44.7 5.6 3.9 5.6-46.7 5.6 77 5.6-22.8 5.6 17.9 5.5 9.4 5.6-44.3 5.6-12 5.6 55.6 5.6 4.9 5.6-29.7 5.5 7.9 5.6-18.7 5.6-2 5.6-26.7 5.6 62.9 5.6-8.9 5.5-51.6 5.6 24.7 5.6 12.5 5.6 18 5.6-31.1 5.6-24.6 5.5 4.5 5.6 29.5 5.6-19.5 5.6-5.9 5.6-19.8 5.6-2.6 5.6 55.6 5.5-39.6 5.6-12.8 5.6 22.7 5.6 44.6 5.6-5.2 5.6-37.1 5.5 16.2 5.6-5.8 5.6-18.5 5.6 31.5 5.6-4.1 5.6-20.4 5.5 72.3 5.6-58.5 5.6-14.7 5.6-26.5 5.6 58.8 5.6-32.4 5.5 31.4 5.6 4.2 5.6-18.3 5.6-12.6 5.6-9.6 5.6 62.6 5.5-40.6 5.6 8.5 5.6-9.2 5.6-23.4" fill="none" color="#000"/><text transform="translate(554.4 467.9)" stroke="none" fill="#000" font-family="Arial" font-size="12" text-anchor="end" color="#000"><tspan>score p10=2017</tspan></text><path stroke="#56B4E9" d="M562.7 464h42.2M62.2 103.1H615" fill="none" color="#000"/><g><text transform="translate(554.4 485.9)" stroke="none" fill="#000" font-family="Arial" font-size="12" text-anchor="end" color="#000"><tspan>score median=4000</tspan></text><path stroke="#E69F00" d="M562.7 482h42.2" fill="none" color="#000"/></g><g fill="none" color="#000" stroke="currentColor"><path stroke="#000" d="M62.2 18.1V428H615V18.1H62.2z"/></g></svg>