<svg width="640" height="500" xmlns="http://www.w3.org/2000/svg" xmlns:xlink="http://www.w3.org/1999/xlink"><path fill="#fff" d="M0 0h640v500H0z"/><defs><path id="d" stroke-width=".222" stroke="currentColor" d="M-1-1h2v2h-2z"/><path id="b" stroke-width=".222" stroke="currentColor" d="M0-1.33l-1.33 2h2.66z"/><path id="f" stroke-width=".222" stroke="currentColor" d="M0 1.33L1.265.411.782-1.067l-1.564-.009-.483 1.487z"/><use xlink:href="#b" id="c" stroke="currentColor" transform="rotate(180)"/><use xlink:href="#d" id="e" stroke="currentColor" transform="rotate(45)"/><circle id="a" stroke-width=".222" stroke="currentColor" cx="0" cy="0" r="1"/></defs><g fill="none" color="#000" stroke="currentColor"><path stroke="#000" d="M53.9 390.3h9m552.1 0h-9"/><text transform="translate(45.6 394.2)" stroke="none" fill="#000" font-family="Arial" font-size="12" text-anchor="end"><tspan>760</tspan></text></g><g fill="none" color="#000" stroke="currentColor"><path stroke="#000" d="M53.9 346h9m552.1 0h-9"/><text transform="translate(45.6 349.9)" stroke="none" fill="#000" font-family="Arial" font-size="12" text-anchor="end"><tspan>780</tspan></text></g><g fill="none" color="#000" stroke="currentColor"><path stroke="#000" d="M53.9 301.7h9m552.1 0h-9"/><text transform="translate(45.6 305.6)" stroke="none" fill="#000" font-family="Arial" font-size="12" text-anchor="end"><tspan>800</tspan></text></g><g fill="none" color="#000" stroke="currentColor"><path stroke="#000" d="M53.9 257.4h9m552.1 0h-9"/><text transform="translate(45.6 261.3)" stroke="none" fill="#000" font-family="Arial" font-size="12" text-anchor="end"><tspan>820</tspan></text></g><g fill="none" color="#000" stroke="currentColor"><path stroke="#000" d="M53.9 213.1h9m552.1 0h-9"/><text transform="translate(45.6 217)" stroke="none" fill="#000" font-family="Arial" font-size="12" text-anchor="end"><tspan>840</tspan></text></g><g fill="none" color="#000" stroke="currentColor"><path stroke="#000" d="M53.9 168.8h9m552.1 0h-9"/><text transform="translate(45.6 172.7)" stroke="none" fill="#000" font-family="Arial" font-size="12" text-anchor="end"><tspan>860</tspan></text></g><g fill="none" color="#000" stroke="currentColor"><path stroke="#000" d="M53.9 124.5h9m552.1 0h-9"/><text transform="translate(45.6 128.4)" stroke="none" fill="#000" font-family="Arial" font-size="12" text-anchor="end"><tspan>880</tspan></text></g><g fill="none" color="#000" stroke="currentColor"><path stroke="#000" d="M53.9 80.2h9m552.1 0h-9"/><text transform="translate(45.6 84.1)" stroke="none" fill="#000" font-family="Arial" font-size="12" text-anchor="end"><tspan>900</tspan></text></g><g fill="none" color="#000" stroke="currentColor"><path stroke="#000" d="M53.9 35.9h9m552.1 0h-9"/><text transform="translate(45.6 39.8)" stroke="none" fill="#000" font-family="Arial" font-size="12" text-anchor="end"><tspan>920</tspan></text></g><g fill="none" color="#000" stroke="currentColor"><path stroke="#000" d="M53.9 428v-9m0-400.9v9"/><text transform="translate(53.9 449.9)" stroke="none" fill="#000" font-family="Arial" font-size="12" text-anchor="middle"><tspan>0</tspan></text></g><g fill="none" color="#000" stroke="currentColor"><path stroke="#000" d="M110.6 428v-9m0-400.9v9"/><text transform="translate(110.6 449.9)" stroke="none" fill="#000" font-family="Arial" font-size="12" text-anchor="middle"><tspan>10</tspan></text></g><g fill="none" color="#000" stroke="currentColor"><path stroke="#000" d="M167.3 428v-9m0-400.9v9"/><text transform="translate(167.3 449.9)" stroke="none" fill="#000" font-family="Arial" font-size="12" text-anchor="middle"><tspan>20</tspan></text></g><g fill="none" color="#000" stroke="currentColor"><path stroke="#000" d="M223.9 428v-9m0-400.9v9"/><text transform="translate(223.9 449.9)" stroke="none" fill="#000" font-family="Arial" font-size="12" text-anchor="middle"><tspan>30</tspan></text></g><g fill="none" color="#000" stroke="currentColor"><path stroke="#000" d="M280.6 428v-9m0-400.9v9"/><text transform="translate(280.6 449.9)" stroke="none" fill="#000" font-family="Arial" font-size="12" text-anchor="middle"><tspan>40</tspan></text></g><g fill="none" color="#000" stroke="currentColor"><path stroke="#000" d="M337.3 428v-9m0-400.9v9"/><text transform="translate(337.3 449.9)" stroke="none" fill="#000" font-family="Arial" font-size="12" text-anchor="middle"><tspan>50</tspan></text></g><g fill="none" color="#000" stroke="currentColor"><path stroke="#000" d="M394 428v-9m0-400.9v9"/><text transform="translate(394 449.9)" stroke="none" fill="#000" font-family="Arial" font-size="12" text-anchor="middle"><tspan>60</tspan></text></g><g fill="none" color="#000" stroke="currentColor"><path stroke="#000" d="M450.6 428v-9m0-400.9v9"/><text transform="translate(450.6 449.9)" stroke="none" fill="#000" font-family="Arial" font-size="12" text-anchor="middle"><tspan>70</tspan></text></g><g fill="none" color="#000" stroke="currentColor"><path stroke="#000" d="M507.3 428v-9m0-400.9v9"/><text transform="translate(507.3 449.9)" stroke="none" fill="#000" font-family="Arial" font-size="12" text-anchor="middle"><tspan>80</tspan></text></g><g fill="none" color="#000" stroke="currentColor"><path stroke="#000" d="M564 428v-9m0-400.9v9"/><text transform="translate(564 449.9)" stroke="none" fill="#000" font-family="Arial" font-size="12" text-anchor="middle"><tspan>90</tspan></text></g><path stroke="#000" d="M53.9 18.1V428H615V18.1H53.9z" fill="none" color="#000"/><text transform="translate(275.6 467.9)" stroke="none" fill="#000" font-family="Arial" font-size="12" text-anchor="end" color="#000"><tspan>pages+cached+noadtech</tspan></text><path stroke="#9400D3" d="M283.9 464h42.2M53.9 306.8l5.7-2.9 5.6 97.9 5.7-156.3 5.7 74.9 5.6-12.4 5.7 7.1 5.7-33.8 5.6 132.2 5.7-75.3 5.7-94.9 5.6 19.5 5.7 135.1 5.7-79.1 5.6 14.2 5.7 42.6 5.7-38 5.7-136 5.6 135.2 5.7-16.8 5.7 69.9 5.6-86.3 5.7 6.4 5.7-31.9 5.6 120 5.7-72.8 5.7-43.9 5.6 11 5.7-23.1 5.7 8.7 5.6-210.9 5.7 328.6 5.7-101.6 5.6-16 5.7 142 5.7-128.8 5.6-6.7 5.7 99.7 5.7-126 5.6 64.3 5.7-4.7 5.7-.9 5.6-49.9 5.7-1.1 5.7 19.3 5.6-89.1 5.7 92.7 5.7 85.2 5.6-130.5 5.7 101.5 5.7-99.8 5.7 96.4 5.6-51.2 5.7 10.8 5.7-14.7 5.6-46.7 5.7 8.8 5.7 100.1 5.6-32.6 5.7-34 5.7-3.2 5.6 2.5 5.7 39.2 5.7 57.4 5.6-113.9 5.7 21.7 5.7 9.9 5.6 103.7 5.7-12.7L445 245l5.6-13.4 5.7 49.9 5.7 4 5.6 3.1 5.7 4.3L479 375l5.6-77.2 5.7 59.3 5.7-50.4 5.6 52.9 5.7-87.6 5.7 118.4 5.6-99.8 5.7 12.7 5.7 1.7 5.7-11.8 5.6-17.9 5.7 34.4 5.7-26.1 5.6 79.5L564 331l5.7 25.6 5.6-131 5.7 77.7 5.7-47.8L592.3 26l5.7 239.2 5.7-58.1 5.6 71 5.7 73.4" fill="none" color="#000"/><text transform="translate(275.6 485.9)" stroke="none" fill="#000" font-family="Arial" font-size="12" text-anchor="end" color="#000"><tspan>pages+cached+noexternal</tspan></text><path stroke="#009E73" d="M283.9 482h42.2M53.9 330.9l5.7-71.2 5.6-42 5.7 57 5.7-4.8 5.6 14.7 5.7-34.6 5.7 48.8 5.6-55 5.7 10 5.7-6.8 5.6-13.3 5.7-7.4 5.7-17.4 5.6 99.1 5.7-80 5.7 5.5 5.7-9.3 5.6 73.6 5.7-47.3 5.7-31.6 5.6 93.5 5.7-67.2 5.7-43.4 5.6 52.6 5.7-9.2 5.7 33 5.6 58.2 5.7-98.6 5.7 81.1 5.6-46.6 5.7-23.4 5.7 11.2 5.6 93.4 5.7-120.1 5.7-39.1 5.6 107.4 5.7 14.6 5.7-52.5 5.6 28.9 5.7 2.7 5.7 3.2 5.6-90.9 5.7-7 5.7 167.4 5.6-117.3 5.7 25.2 5.7 82.2 5.6-38.9 5.7 30.1 5.7-132.5 5.7 33.9 5.6-29.4 5.7-8.1 5.7-75.6 5.6 197 5.7 3.7 5.7-133.7 5.6 33.7 5.7 65.4 5.7-85.2 5.6 31.9 5.7-9.1 5.7-13.3 5.6-1.5 5.7 12.7 5.7 32.4 5.6-13.6 5.7-66.3 5.7 118.4 5.6-51.1 5.7-8.1 5.7 57.5 5.6-87.9 5.7 64.1L479 236l5.6 78.8 5.7-61.8 5.7-141.5 5.6 109.5 5.7 69.7 5.7-116.2 5.6 47.9 5.7 21.8 5.7 9.3 5.7 12.8 5.6-38.3 5.7 65.6 5.7-7.9 5.6-16.4 5.7-59.8 5.7 63.5 5.6-130.5 5.7 152.3 5.7-71.1 5.6 43.5 5.7-11.8 5.7 61.1 5.6-47 5.7-3.7" fill="none" color="#000"/><text transform="translate(525.3 467.9)" stroke="none" fill="#000" font-family="Arial" font-size="12" text-anchor="end" color="#000"><tspan>score p10=2017</tspan></text><path stroke="#56B4E9" d="M533.6 464h42.2" fill="none" color="#000"/><g><text transform="translate(525.3 485.9)" stroke="none" fill="#000" font-family="Arial" font-size="12" text-anchor="end" color="#000"><tspan>score median=4000</tspan></text><path stroke="#E69F00" d="M533.6 482h42.2" fill="none" color="#000"/></g><g fill="none" color="#000" stroke="currentColor"><path stroke="#000" d="M53.9 18.1V428H615V18.1H53.9z"/></g></svg>