<svg width="640" height="500" xmlns="http://www.w3.org/2000/svg" xmlns:xlink="http://www.w3.org/1999/xlink"><path fill="#fff" d="M0 0h640v500H0z"/><defs><path id="d" stroke-width=".222" stroke="currentColor" d="M-1-1h2v2h-2z"/><path id="b" stroke-width=".222" stroke="currentColor" d="M0-1.33l-1.33 2h2.66z"/><path id="f" stroke-width=".222" stroke="currentColor" d="M0 1.33L1.265.411.782-1.067l-1.564-.009-.483 1.487z"/><use xlink:href="#b" id="c" stroke="currentColor" transform="rotate(180)"/><use xlink:href="#d" id="e" stroke="currentColor" transform="rotate(45)"/><circle id="a" stroke-width=".222" stroke="currentColor" cx="0" cy="0" r="1"/></defs><g fill="none" color="#000" stroke="currentColor"><path stroke="#000" d="M53.9 369.4h9m552.1 0h-9"/><text transform="translate(45.6 373.3)" stroke="none" fill="#000" font-family="Arial" font-size="12" text-anchor="end"><tspan>600</tspan></text></g><g fill="none" color="#000" stroke="currentColor"><path stroke="#000" d="M53.9 309.2h9m552.1 0h-9"/><text transform="translate(45.6 313.1)" stroke="none" fill="#000" font-family="Arial" font-size="12" text-anchor="end"><tspan>650</tspan></text></g><g fill="none" color="#000" stroke="currentColor"><path stroke="#000" d="M53.9 249.1h9m552.1 0h-9"/><text transform="translate(45.6 253)" stroke="none" fill="#000" font-family="Arial" font-size="12" text-anchor="end"><tspan>700</tspan></text></g><g fill="none" color="#000" stroke="currentColor"><path stroke="#000" d="M53.9 188.9h9m552.1 0h-9"/><text transform="translate(45.6 192.8)" stroke="none" fill="#000" font-family="Arial" font-size="12" text-anchor="end"><tspan>750</tspan></text></g><g fill="none" color="#000" stroke="currentColor"><path stroke="#000" d="M53.9 128.7h9m552.1 0h-9"/><text transform="translate(45.6 132.6)" stroke="none" fill="#000" font-family="Arial" font-size="12" text-anchor="end"><tspan>800</tspan></text></g><g fill="none" color="#000" stroke="currentColor"><path stroke="#000" d="M53.9 68.5h9m552.1 0h-9"/><text transform="translate(45.6 72.4)" stroke="none" fill="#000" font-family="Arial" font-size="12" text-anchor="end"><tspan>850</tspan></text></g><g fill="none" color="#000" stroke="currentColor"><path stroke="#000" d="M53.9 392v-9m0-364.9v9"/><text transform="translate(53.9 413.9)" stroke="none" fill="#000" font-family="Arial" font-size="12" text-anchor="middle"><tspan>0</tspan></text></g><g fill="none" color="#000" stroke="currentColor"><path stroke="#000" d="M110.6 392v-9m0-364.9v9"/><text transform="translate(110.6 413.9)" stroke="none" fill="#000" font-family="Arial" font-size="12" text-anchor="middle"><tspan>10</tspan></text></g><g fill="none" color="#000" stroke="currentColor"><path stroke="#000" d="M167.3 392v-9m0-364.9v9"/><text transform="translate(167.3 413.9)" stroke="none" fill="#000" font-family="Arial" font-size="12" text-anchor="middle"><tspan>20</tspan></text></g><g fill="none" color="#000" stroke="currentColor"><path stroke="#000" d="M223.9 392v-9m0-364.9v9"/><text transform="translate(223.9 413.9)" stroke="none" fill="#000" font-family="Arial" font-size="12" text-anchor="middle"><tspan>30</tspan></text></g><g fill="none" color="#000" stroke="currentColor"><path stroke="#000" d="M280.6 392v-9m0-364.9v9"/><text transform="translate(280.6 413.9)" stroke="none" fill="#000" font-family="Arial" font-size="12" text-anchor="middle"><tspan>40</tspan></text></g><g fill="none" color="#000" stroke="currentColor"><path stroke="#000" d="M337.3 392v-9m0-364.9v9"/><text transform="translate(337.3 413.9)" stroke="none" fill="#000" font-family="Arial" font-size="12" text-anchor="middle"><tspan>50</tspan></text></g><g fill="none" color="#000" stroke="currentColor"><path stroke="#000" d="M394 392v-9m0-364.9v9"/><text transform="translate(394 413.9)" stroke="none" fill="#000" font-family="Arial" font-size="12" text-anchor="middle"><tspan>60</tspan></text></g><g fill="none" color="#000" stroke="currentColor"><path stroke="#000" d="M450.6 392v-9m0-364.9v9"/><text transform="translate(450.6 413.9)" stroke="none" fill="#000" font-family="Arial" font-size="12" text-anchor="middle"><tspan>70</tspan></text></g><g fill="none" color="#000" stroke="currentColor"><path stroke="#000" d="M507.3 392v-9m0-364.9v9"/><text transform="translate(507.3 413.9)" stroke="none" fill="#000" font-family="Arial" font-size="12" text-anchor="middle"><tspan>80</tspan></text></g><g fill="none" color="#000" stroke="currentColor"><path stroke="#000" d="M564 392v-9m0-364.9v9"/><text transform="translate(564 413.9)" stroke="none" fill="#000" font-family="Arial" font-size="12" text-anchor="middle"><tspan>90</tspan></text></g><path stroke="#000" d="M53.9 18.1V392H615V18.1H53.9z" fill="none" color="#000"/><text transform="translate(433.7 431.9)" stroke="none" fill="#000" font-family="Arial" font-size="12" text-anchor="end" color="#000"><tspan>pages+cached+noexternal</tspan></text><path stroke="#9400D3" d="M442 428h42.2M53.9 144.6l5.7-38.8L65.2 83l5.7 31 5.7-2.6 5.6 8 5.7-18.8 5.7 26.5 5.6-29.9 5.7 5.4 5.7-3.6 5.6-7.3 5.7-4 5.7-9.5 5.6 53.9 5.7-43.5 5.7 3 5.7-5.1 5.6 40 5.7-25.7 5.7-17.1 5.6 50.8 5.7-36.5 5.7-23.6 5.6 28.6 5.7-5 5.7 17.9 5.6 31.6 5.7-53.5 5.7 44 5.6-25.3 5.7-12.7 5.7 6.1 5.6 50.8 5.7-65.4 5.7-21.2 5.6 58.4 5.7 7.9 5.7-28.5 5.6 15.7 5.7 1.5 5.7 1.7 5.6-49.4 5.7-3.8 5.7 91 5.6-63.8 5.7 13.7 5.7 44.7 5.6-21.1 5.7 16.3 5.7-72L343 101l5.6-16 5.7-4.4 5.7-41.1 5.6 107.1 5.7 2L377 76l5.6 18.3 5.7 35.5 5.7-46.3 5.6 17.3 5.7-4.9 5.7-7.2 5.6-.9 5.7 6.9 5.7 17.7 5.6-7.4 5.7-36 5.7 64.3 5.6-27.8 5.7-4.4 5.7 31.3 5.6-47.8 5.7 34.8L479 93l5.6 42.8 5.7-33.6 5.7-76.9 5.6 59.5 5.7 37.9 5.7-63.1 5.6 26 5.7 11.8 5.7 5.1 5.7 6.9 5.6-20.8 5.7 35.7 5.7-4.3 5.6-8.9 5.7-32.6 5.7 34.6 5.6-71 5.7 82.8 5.7-38.6 5.6 23.7 5.7-6.5 5.7 33.2 5.6-25.5 5.7-2" fill="none" color="#000"/><text transform="translate(433.7 449.9)" stroke="none" fill="#000" font-family="Arial" font-size="12" text-anchor="end" color="#000"><tspan>pages+cached+noexternal+nofonts</tspan></text><path stroke="#009E73" d="M442 446h42.2M53.9 284.9l5.7 42.9 5.6-52.5 5.7-5.3 5.7 3.6 5.6 7 5.7 45.4 5.7-37.9 5.6 43.3 5.7-29.4 5.7-28.9 5.6 29.3 5.7-34.4 5.7 64.3 5.6-40.1 5.7-5.1 5.7-11.1 5.7 11.1 5.6-12.3 5.7 25.6 5.7 32.9 5.6-107.4 5.7 50.5 5.7-7.9 5.6-7 5.7-.2 5.7 20.1 5.6.9 5.7 1.7 5.7 17.9 5.6-4.8 5.7-16.1 5.7 1.1 5.6 16.7 5.7 18.8 5.7-12.4 5.6 24.4 5.7-64.9 5.7-2.9 5.6-40.7 5.7 84.8 5.7 10.6 5.6 9.1 5.7-44.6 5.7-41.5 5.6 65.3 5.7-37.1 5.7 48 5.6 35.1 5.7-35.6 5.7-15.1 5.7-22.7 5.6-1.6 5.7 10.9 5.7 23.1 5.6-22.4 5.7-4.2 5.7 24.4 5.6-14.4 5.7-17.6 5.7 70 5.6-50.9 5.7 27 5.7-27.1 5.6 38.7 5.7-2.6 5.7-34.6 5.6 12 5.7-6.6L445 268l5.6 6.7 5.7 15.1 5.7-19.7 5.6 86.4 5.7-43.3 5.7-18.4 5.6 27 5.7-17.9 5.7-32.7 5.6-27.2 5.7 65.1 5.7-22.9 5.6 36.4 5.7 26.7 5.7-63.1 5.7 10 5.6 9.4 5.7 39.6 5.7-47.6 5.6 12.8 5.7-3.1 5.7-23.4 5.6 2.3 5.7 53.5 5.7 45.1 5.6-76.8 5.7-34.4 5.7 23.9 5.6-22.2 5.7 1.9" fill="none" color="#000"/><text transform="translate(433.7 467.9)" stroke="none" fill="#000" font-family="Arial" font-size="12" text-anchor="end" color="#000"><tspan>score p10=2017</tspan></text><path stroke="#56B4E9" d="M442 464h42.2" fill="none" color="#000"/><g><text transform="translate(433.7 485.9)" stroke="none" fill="#000" font-family="Arial" font-size="12" text-anchor="end" color="#000"><tspan>score median=4000</tspan></text><path stroke="#E69F00" d="M442 482h42.2" fill="none" color="#000"/></g><g fill="none" color="#000" stroke="currentColor"><path stroke="#000" d="M53.9 18.1V392H615V18.1H53.9z"/></g></svg>