<svg width="640" height="500" xmlns="http://www.w3.org/2000/svg" xmlns:xlink="http://www.w3.org/1999/xlink"><path fill="#fff" d="M0 0h640v500H0z"/><defs><path id="d" stroke-width=".222" stroke="currentColor" d="M-1-1h2v2h-2z"/><path id="b" stroke-width=".222" stroke="currentColor" d="M0-1.33l-1.33 2h2.66z"/><path id="f" stroke-width=".222" stroke="currentColor" d="M0 1.33L1.265.411.782-1.067l-1.564-.009-.483 1.487z"/><use xlink:href="#b" id="c" stroke="currentColor" transform="rotate(180)"/><use xlink:href="#d" id="e" stroke="currentColor" transform="rotate(45)"/><circle id="a" stroke-width=".222" stroke="currentColor" cx="0" cy="0" r="1"/></defs><g fill="none" color="#000" stroke="currentColor"><path stroke="#000" d="M53.9 368.1h9m552.1 0h-9"/><text transform="translate(45.6 372)" stroke="none" fill="#000" font-family="Arial" font-size="12" text-anchor="end"><tspan>600</tspan></text></g><g fill="none" color="#000" stroke="currentColor"><path stroke="#000" d="M53.9 302.7h9m552.1 0h-9"/><text transform="translate(45.6 306.6)" stroke="none" fill="#000" font-family="Arial" font-size="12" text-anchor="end"><tspan>650</tspan></text></g><g fill="none" color="#000" stroke="currentColor"><path stroke="#000" d="M53.9 237.2h9m552.1 0h-9"/><text transform="translate(45.6 241.1)" stroke="none" fill="#000" font-family="Arial" font-size="12" text-anchor="end"><tspan>700</tspan></text></g><g fill="none" color="#000" stroke="currentColor"><path stroke="#000" d="M53.9 171.8h9m552.1 0h-9"/><text transform="translate(45.6 175.7)" stroke="none" fill="#000" font-family="Arial" font-size="12" text-anchor="end"><tspan>750</tspan></text></g><g fill="none" color="#000" stroke="currentColor"><path stroke="#000" d="M53.9 106.3h9m552.1 0h-9"/><text transform="translate(45.6 110.2)" stroke="none" fill="#000" font-family="Arial" font-size="12" text-anchor="end"><tspan>800</tspan></text></g><g fill="none" color="#000" stroke="currentColor"><path stroke="#000" d="M53.9 40.9h9m552.1 0h-9"/><text transform="translate(45.6 44.8)" stroke="none" fill="#000" font-family="Arial" font-size="12" text-anchor="end"><tspan>850</tspan></text></g><g fill="none" color="#000" stroke="currentColor"><path stroke="#000" d="M53.9 392v-9m0-364.9v9"/><text transform="translate(53.9 413.9)" stroke="none" fill="#000" font-family="Arial" font-size="12" text-anchor="middle"><tspan>0</tspan></text></g><g fill="none" color="#000" stroke="currentColor"><path stroke="#000" d="M110.6 392v-9m0-364.9v9"/><text transform="translate(110.6 413.9)" stroke="none" fill="#000" font-family="Arial" font-size="12" text-anchor="middle"><tspan>10</tspan></text></g><g fill="none" color="#000" stroke="currentColor"><path stroke="#000" d="M167.3 392v-9m0-364.9v9"/><text transform="translate(167.3 413.9)" stroke="none" fill="#000" font-family="Arial" font-size="12" text-anchor="middle"><tspan>20</tspan></text></g><g fill="none" color="#000" stroke="currentColor"><path stroke="#000" d="M223.9 392v-9m0-364.9v9"/><text transform="translate(223.9 413.9)" stroke="none" fill="#000" font-family="Arial" font-size="12" text-anchor="middle"><tspan>30</tspan></text></g><g fill="none" color="#000" stroke="currentColor"><path stroke="#000" d="M280.6 392v-9m0-364.9v9"/><text transform="translate(280.6 413.9)" stroke="none" fill="#000" font-family="Arial" font-size="12" text-anchor="middle"><tspan>40</tspan></text></g><g fill="none" color="#000" stroke="currentColor"><path stroke="#000" d="M337.3 392v-9m0-364.9v9"/><text transform="translate(337.3 413.9)" stroke="none" fill="#000" font-family="Arial" font-size="12" text-anchor="middle"><tspan>50</tspan></text></g><g fill="none" color="#000" stroke="currentColor"><path stroke="#000" d="M394 392v-9m0-364.9v9"/><text transform="translate(394 413.9)" stroke="none" fill="#000" font-family="Arial" font-size="12" text-anchor="middle"><tspan>60</tspan></text></g><g fill="none" color="#000" stroke="currentColor"><path stroke="#000" d="M450.6 392v-9m0-364.9v9"/><text transform="translate(450.6 413.9)" stroke="none" fill="#000" font-family="Arial" font-size="12" text-anchor="middle"><tspan>70</tspan></text></g><g fill="none" color="#000" stroke="currentColor"><path stroke="#000" d="M507.3 392v-9m0-364.9v9"/><text transform="translate(507.3 413.9)" stroke="none" fill="#000" font-family="Arial" font-size="12" text-anchor="middle"><tspan>80</tspan></text></g><g fill="none" color="#000" stroke="currentColor"><path stroke="#000" d="M564 392v-9m0-364.9v9"/><text transform="translate(564 413.9)" stroke="none" fill="#000" font-family="Arial" font-size="12" text-anchor="middle"><tspan>90</tspan></text></g><path stroke="#000" d="M53.9 18.1V392H615V18.1H53.9z" fill="none" color="#000"/><text transform="translate(433.7 431.9)" stroke="none" fill="#000" font-family="Arial" font-size="12" text-anchor="end" color="#000"><tspan>pages+cached+noexternal+nofonts</tspan></text><path stroke="#9400D3" d="M442 428h42.2M53.9 276.2l5.7 46.7 5.6-57.1 5.7-5.9 5.7 4 5.6 7.7 5.7 49.3 5.7-41.3 5.6 47.2 5.7-32 5.7-31.5 5.6 31.9 5.7-37.4 5.7 69.9 5.6-43.5 5.7-5.6 5.7-12.1 5.7 12.1 5.6-13.4 5.7 27.8 5.7 35.8 5.6-116.7 5.7 54.9 5.7-8.6 5.6-7.6 5.7-.3 5.7 21.8 5.6 1 5.7 1.9 5.7 19.4 5.6-5.1 5.7-17.5 5.7 1.1 5.6 18.2 5.7 20.4 5.7-13.4 5.6 26.5 5.7-70.5 5.7-3.2 5.6-44.3 5.7 92.3 5.7 11.4 5.6 10 5.7-48.6 5.7-45.1 5.6 71 5.7-40.3 5.7 52.2 5.6 38.1 5.7-38.7 5.7-16.3L343 268l5.6-1.7 5.7 11.8 5.7 25.2 5.6-24.4 5.7-4.6 5.7 26.5 5.6-15.6 5.7-19.2 5.7 76.1 5.6-55.3 5.7 29.4 5.7-29.5 5.6 42.1 5.7-2.8 5.7-37.7 5.6 13.1 5.7-7.2 5.7-36.4 5.6 7.3 5.7 16.4 5.7-21.4 5.6 93.9 5.7-47 5.7-20 5.6 29.3 5.7-19.4 5.7-35.6 5.6-29.6 5.7 70.8 5.7-24.9 5.6 39.6 5.7 29 5.7-68.7 5.7 10.9 5.6 10.3 5.7 43.1 5.7-51.8 5.6 13.9 5.7-3.4 5.7-25.4 5.6 2.5 5.7 58.2 5.7 49 5.6-83.5 5.7-37.5 5.7 26 5.6-24 5.7 2" fill="none" color="#000"/><text transform="translate(433.7 449.9)" stroke="none" fill="#000" font-family="Arial" font-size="12" text-anchor="end" color="#000"><tspan>pages+cached+noexternal+nosvg</tspan></text><path stroke="#009E73" d="M442 446h42.2M53.9 183.4l5.7-40.2 5.6 6 5.7 9.7 5.7 6.8 5.6-34.8 5.7 3.6 5.7 29.7 5.6-22.4 5.7.4 5.7 22.2 5.6-139.1 5.7 136.1 5.7 4.3 5.6-47.5 5.7 37.9 5.7-31.6 5.7 53.4 5.6-17.3 5.7-10 5.7-19.5 5.6 39.9 5.7-4.2 5.7 4.2 5.6-6.8 5.7-15.9 5.7-22.5 5.6 13.7 5.7 12.6 5.7-9.1 5.6 16.6 5.7-42.4 5.7 30.6 5.6 15.8 5.7 29.3 5.7-75.6 5.6-22 5.7 25.6 5.7 37.8 5.6-9.4 5.7 31.5 5.7-49.4 5.6 52.4 5.7-25.6 5.7-1.3 5.6 6.1 5.7 33.5 5.7-30.9 5.6-3.6 5.7-38.3 5.7 53 5.7-35.1 5.6 26.1 5.7 4.7 5.7 3.7 5.6-32.2 5.7 16.7 5.7-6 5.6-33.7 5.7 29.5 5.7-24.1 5.6 29.6 5.7 21L411 146l5.6-23.8 5.7-1.2 5.7 36.7 5.6-28.7 5.7-52.4 5.7 84.1 5.6-41 5.7 13.9 5.7-8.3 5.6 10.6 5.7 20.6 5.7-16 5.6 19.6 5.7-12.6 5.7-12.9 5.6 20.2 5.7-25.6 5.7-5.4 5.6 54.1 5.7 1.8 5.7-44.9 5.7-10 5.6 25.7 5.7-16.1 5.7 22.9 5.6 9.2 5.7 2.2 5.7-1.8 5.6 7.6 5.7 2.1 5.7 2.8 5.6-51.3 5.7 40.7 5.7-52.3 5.6 14.9 5.7-12.8" fill="none" color="#000"/><text transform="translate(433.7 467.9)" stroke="none" fill="#000" font-family="Arial" font-size="12" text-anchor="end" color="#000"><tspan>score p10=2017</tspan></text><path stroke="#56B4E9" d="M442 464h42.2" fill="none" color="#000"/><g><text transform="translate(433.7 485.9)" stroke="none" fill="#000" font-family="Arial" font-size="12" text-anchor="end" color="#000"><tspan>score median=4000</tspan></text><path stroke="#E69F00" d="M442 482h42.2" fill="none" color="#000"/></g><g fill="none" color="#000" stroke="currentColor"><path stroke="#000" d="M53.9 18.1V392H615V18.1H53.9z"/></g></svg>