<svg width="640" height="500" xmlns="http://www.w3.org/2000/svg" xmlns:xlink="http://www.w3.org/1999/xlink"><path fill="#fff" d="M0 0h640v500H0z"/><defs><path id="d" stroke-width=".222" stroke="currentColor" d="M-1-1h2v2h-2z"/><path id="b" stroke-width=".222" stroke="currentColor" d="M0-1.33l-1.33 2h2.66z"/><path id="f" stroke-width=".222" stroke="currentColor" d="M0 1.33L1.265.411.782-1.067l-1.564-.009-.483 1.487z"/><use xlink:href="#b" id="c" stroke="currentColor" transform="rotate(180)"/><use xlink:href="#d" id="e" stroke="currentColor" transform="rotate(45)"/><circle id="a" stroke-width=".222" stroke="currentColor" cx="0" cy="0" r="1"/></defs><g fill="none" color="#000" stroke="currentColor"><path stroke="#000" d="M53.9 374.3h9m552.1 0h-9"/><text transform="translate(45.6 378.2)" stroke="none" fill="#000" font-family="Arial" font-size="12" text-anchor="end"><tspan>420</tspan></text></g><g fill="none" color="#000" stroke="currentColor"><path stroke="#000" d="M53.9 318.4h9m552.1 0h-9"/><text transform="translate(45.6 322.3)" stroke="none" fill="#000" font-family="Arial" font-size="12" text-anchor="end"><tspan>440</tspan></text></g><g fill="none" color="#000" stroke="currentColor"><path stroke="#000" d="M53.9 262.5h9m552.1 0h-9"/><text transform="translate(45.6 266.4)" stroke="none" fill="#000" font-family="Arial" font-size="12" text-anchor="end"><tspan>460</tspan></text></g><g fill="none" color="#000" stroke="currentColor"><path stroke="#000" d="M53.9 206.6h9m552.1 0h-9"/><text transform="translate(45.6 210.5)" stroke="none" fill="#000" font-family="Arial" font-size="12" text-anchor="end"><tspan>480</tspan></text></g><g fill="none" color="#000" stroke="currentColor"><path stroke="#000" d="M53.9 150.7h9m552.1 0h-9"/><text transform="translate(45.6 154.6)" stroke="none" fill="#000" font-family="Arial" font-size="12" text-anchor="end"><tspan>500</tspan></text></g><g fill="none" color="#000" stroke="currentColor"><path stroke="#000" d="M53.9 94.8h9m552.1 0h-9"/><text transform="translate(45.6 98.7)" stroke="none" fill="#000" font-family="Arial" font-size="12" text-anchor="end"><tspan>520</tspan></text></g><g fill="none" color="#000" stroke="currentColor"><path stroke="#000" d="M53.9 39h9M615 39h-9"/><text transform="translate(45.6 42.9)" stroke="none" fill="#000" font-family="Arial" font-size="12" text-anchor="end"><tspan>540</tspan></text></g><g fill="none" color="#000" stroke="currentColor"><path stroke="#000" d="M53.9 428v-9m0-400.9v9"/><text transform="translate(53.9 449.9)" stroke="none" fill="#000" font-family="Arial" font-size="12" text-anchor="middle"><tspan>0</tspan></text></g><g fill="none" color="#000" stroke="currentColor"><path stroke="#000" d="M110.6 428v-9m0-400.9v9"/><text transform="translate(110.6 449.9)" stroke="none" fill="#000" font-family="Arial" font-size="12" text-anchor="middle"><tspan>10</tspan></text></g><g fill="none" color="#000" stroke="currentColor"><path stroke="#000" d="M167.3 428v-9m0-400.9v9"/><text transform="translate(167.3 449.9)" stroke="none" fill="#000" font-family="Arial" font-size="12" text-anchor="middle"><tspan>20</tspan></text></g><g fill="none" color="#000" stroke="currentColor"><path stroke="#000" d="M223.9 428v-9m0-400.9v9"/><text transform="translate(223.9 449.9)" stroke="none" fill="#000" font-family="Arial" font-size="12" text-anchor="middle"><tspan>30</tspan></text></g><g fill="none" color="#000" stroke="currentColor"><path stroke="#000" d="M280.6 428v-9m0-400.9v9"/><text transform="translate(280.6 449.9)" stroke="none" fill="#000" font-family="Arial" font-size="12" text-anchor="middle"><tspan>40</tspan></text></g><g fill="none" color="#000" stroke="currentColor"><path stroke="#000" d="M337.3 428v-9m0-400.9v9"/><text transform="translate(337.3 449.9)" stroke="none" fill="#000" font-family="Arial" font-size="12" text-anchor="middle"><tspan>50</tspan></text></g><g fill="none" color="#000" stroke="currentColor"><path stroke="#000" d="M394 428v-9m0-400.9v9"/><text transform="translate(394 449.9)" stroke="none" fill="#000" font-family="Arial" font-size="12" text-anchor="middle"><tspan>60</tspan></text></g><g fill="none" color="#000" stroke="currentColor"><path stroke="#000" d="M450.6 428v-9m0-400.9v9"/><text transform="translate(450.6 449.9)" stroke="none" fill="#000" font-family="Arial" font-size="12" text-anchor="middle"><tspan>70</tspan></text></g><g fill="none" color="#000" stroke="currentColor"><path stroke="#000" d="M507.3 428v-9m0-400.9v9"/><text transform="translate(507.3 449.9)" stroke="none" fill="#000" font-family="Arial" font-size="12" text-anchor="middle"><tspan>80</tspan></text></g><g fill="none" color="#000" stroke="currentColor"><path stroke="#000" d="M564 428v-9m0-400.9v9"/><text transform="translate(564 449.9)" stroke="none" fill="#000" font-family="Arial" font-size="12" text-anchor="middle"><tspan>90</tspan></text></g><path stroke="#000" d="M53.9 18.1V428H615V18.1H53.9z" fill="none" color="#000"/><text transform="translate(275.6 467.9)" stroke="none" fill="#000" font-family="Arial" font-size="12" text-anchor="end" color="#000"><tspan>pages+cached+noexternal+nocss</tspan></text><path stroke="#9400D3" d="M283.9 464h42.2M53.9 255.9l5.7-24.5 5.6-37.2 5.7 7.9 5.7 40.7 5.6-45.5 5.7 8.5 5.7 21.5 5.6-41.9 5.7-15.9 5.7 34 5.6 216.6 5.7-190.1 5.7-30.8 5.6-12.6 5.7 29.8 5.7-12.2 5.7-31.6 5.6 20 5.7 214.9 5.7-225.1 5.6 29.3 5.7.1 5.7-30.9 5.6-7.2 5.7 70.7 5.7-3.4 5.6-48.9 5.7.7 5.7 30.6 5.6-1.4 5.7-31.7 5.7 36 5.6 17.4 5.7-33.5 5.7-8.7 5.6 23.2 5.7-6.7 5.7-35.2 5.6 31.8 5.7-9.3 5.7-5.5 5.6-32.6 5.7 58.7 5.7 1.3 5.6-48.9 5.7 3.9 5.7 6.8 5.6-40.5 5.7 66.8 5.7 17.4 5.7-26.1 5.6 16.2 5.7 1 5.7-59.4 5.6 58.2 5.7-43.3 5.7 21.3 5.6 24.3 5.7 16.7 5.7 11.8 5.6-45.9 5.7 23.1 5.7-22.3 5.6 12.2 5.7-7.2 5.7 3 5.6-.1 5.7-.1 5.7-5.3 5.6-16.2 5.7-61.7 5.7 69.8 5.6 16.4 5.7 6.5 5.7-37.8 5.6 31.6 5.7-3.1 5.7-18 5.6 14.4 5.7 47.2 5.7-45.8 5.6-3.8 5.7-44.3 5.7 7.1 5.7 67.9 5.6-17.4 5.7 28.7 5.7-37L558.3 26l5.7 167.6 5.7 21 5.6-3.7 5.7 5.2 5.7-58.5 5.6 7.2 5.7 38.4 5.7 17.7 5.6-26.8 5.7 24.3" fill="none" color="#000"/><text transform="translate(275.6 485.9)" stroke="none" fill="#000" font-family="Arial" font-size="12" text-anchor="end" color="#000"><tspan>pages+cached+noexternal+nojs</tspan></text><path stroke="#009E73" d="M283.9 482h42.2M53.9 287.7l5.7 46.9 5.6-8.5 5.7 7 5.7 27.9 5.6 16.6 5.7-17.1 5.7-32.8 5.6-5.7 5.7-20.6 5.7 47.4 5.6-4.5 5.7 19.6 5.7-47.1 5.6 23.1 5.7-18.1 5.7 28.2 5.7 21.8 5.6-54.8 5.7 24.6 5.7 10.2 5.6-2.5 5.7 6.2 5.7-7.6 5.6 18.9 5.7-3.2 5.7-29.9 5.6 13.7 5.7 37.5 5.7-39.9 5.6 8.5 5.7-15.7 5.7-6.9 5.6 8.7 5.7 15.5 5.7 5.5 5.6-3.4 5.7-2.1 5.7-2.2 5.6-42.8 5.7 49.7 5.7 13.3 5.6-8.8 5.7-29.2 5.7-3.8 5.6 15.7 5.7 48.3 5.7-34.4 5.6-41.8 5.7 46.7 5.7 2.1 5.7-2.1 5.6-25.7 5.7 14.8 5.7-31 5.6 16.5 5.7 13.5 5.7-39.1 5.6 35.2 5.7-5.9 5.7 4.3 5.6-18.1 5.7 19.2 5.7 11.3 5.6-23.5 5.7 6.3 5.7-10.2 5.6 30.2 5.7-4 5.7 14.5 5.6-42.9 5.7 35.8 5.7-25.5 5.6 27.3 5.7 6.1 5.7-10.5 5.6-8.1 5.7-19.7 5.7 25.5 5.6-10.6 5.7-11.2 5.7-26.4 5.6 50.9 5.7-17.3 5.7-1.6 5.7 10.6 5.6 12.1 5.7-35.7 5.7 25.7 5.6-3.6 5.7-10.2 5.7-7.6 5.6 23.4 5.7.4 5.7-40.4 5.6 33.8 5.7-19.2 5.7 2.3 5.6 13 5.7 14.7" fill="none" color="#000"/><text transform="translate(575.1 467.9)" stroke="none" fill="#000" font-family="Arial" font-size="12" text-anchor="end" color="#000"><tspan>score p10=2017</tspan></text><path stroke="#56B4E9" d="M583.4 464h42.2" fill="none" color="#000"/><g><text transform="translate(575.1 485.9)" stroke="none" fill="#000" font-family="Arial" font-size="12" text-anchor="end" color="#000"><tspan>score median=4000</tspan></text><path stroke="#E69F00" d="M583.4 482h42.2" fill="none" color="#000"/></g><g fill="none" color="#000" stroke="currentColor"><path stroke="#000" d="M53.9 18.1V428H615V18.1H53.9z"/></g></svg>