<svg width="640" height="4440" xmlns="http://www.w3.org/2000/svg" xmlns:xlink="http://www.w3.org/1999/xlink"><path fill="#fff" d="M0 0h640v4440H0z"/><defs><path id="d" stroke-width=".222" stroke="currentColor" d="M-1-1h2v2h-2z"/><path id="b" stroke-width=".222" stroke="currentColor" d="M0-1.33l-1.33 2h2.66z"/><path id="f" stroke-width=".222" stroke="currentColor" d="M0 1.33L1.265.411.782-1.067l-1.564-.009-.483 1.487z"/><use xlink:href="#b" id="c" stroke="currentColor" transform="rotate(180)"/><use xlink:href="#d" id="e" stroke="currentColor" transform="rotate(45)"/><circle id="a" stroke-width=".222" stroke="currentColor" cx="0" cy="0" r="1"/></defs><path stroke="#000" d="M20.7 18.1v4405.3H615V18.1H20.7z" fill="none" color="#000"/><path stroke="#9400D3" d="M20.7 4344.4l6-5.6 6 39.7 6 5 6-1.3 6 10.6 6-19.5 6-2.9 6 21.6 6-5.8 6 1 6-136.1 6 110.2 6-11.6 6 47.1 6-71.8 6 57.5 6.1-7.7 6 10.6 6 18.6 6-50.4 6 26 6 14.5 6-64.3 6 1.9 6 29.4 6 15 6 1.1 6 18.8 6-68.9 6-2 6 8.9 6 63 6-31.2 6-22.5 6 38.4 6-48.4 6 24.6 6-13.2 6-4.5 6-8.2 6 42.6 6 21.1 6-28.5 6-6.7 6 11.4 6 17.7 6-17.4 6 5.8 6 3.2 6.1 26.7 6-50.6 6 46.7 6-32.8 6 8.7 6 16.4 6-12.4 6-39.8 6-41.3 6 91.1 6-27 6 20.1 6-70.4 6 47.9 6 18.8 6 12.5 6-35 6 36.3 6-41 6-23.1 6 33.1 6-9.6 6 9.1 6 33.8 6-51.4 6 28.7 6-1.1 6 8.3 6 7.7 6 22.7 6-143.5 6 125.8 6-9.1 6.1-88.5 6 14.1 6 39.8 6 49.4 6-16.9 6-60.1 6-94.9 6 145.8 6-3.3 6-33.6 6 57 6-18 6-49.9 6 46.9 6-9.7 6 34.1 6-88.1" fill="none" color="#000"/><path stroke="#009E73" d="M20.7 4245.8H615" fill="none" color="#000"/><path stroke="#56B4E9" d="M20.7 4127.3H615" fill="none" color="#000"/><path stroke="#E69F00" d="M20.7 4008.9H615" fill="none" color="#000"/><path stroke="#F0E442" d="M20.7 3892.2h144.1l6-82.9 6 82.9 6-82.9 6 82.9H615" fill="none" color="#000"/><path stroke="#0072B2" d="M20.7 3772.1H615" fill="none" color="#000"/><path stroke="#E51E10" d="M20.7 3655.3h144.1l6-82.9 6 82.9 6-82.9 6 82.9H615" fill="none" color="#000"/><path stroke="#000" d="M20.7 3593.3l6-82.9h24l6 82.9h6l6-82.9 6 82.9 6-82.9 6 82.9h12l6-82.9h24.1l6 82.9 6-82.9h18l6 82.9h6l6-82.9 6 82.9 6-82.9 6 82.9 6-82.9h12l6 82.9h6l6-82.9h48l6 82.9h6l6-82.9h30.1l6 82.9h6l6-82.9 6 82.9h6l6-82.9h6l6 82.9 6-82.9 6 82.9 6-82.9h48l6 82.9 6-82.9h36l6 82.9 6-82.9h12l6.1 82.9h6l6-82.9h6l6 82.9 6-82.9 6 82.9 6-82.9h6l6 82.9 6-82.9h6l6 82.9 6-82.9h18" fill="none" color="#000"/><path stroke="#9400D3" d="M20.7 3416.8H615" fill="none" color="#000"/><path stroke="#009E73" d="M20.7 3297.6h18l6-41.5 6 41.5 6 41.4 6-41.4h150.1l6 41.4 6-41.4h114.1l6-41.5 6 41.5h42l6 41.4 6-41.4h24l6-41.5 6 41.5h12l6 41.4 6-41.4H561l6 41.4 6-41.4h42" fill="none" color="#000"/><path stroke="#56B4E9" d="M20.7 3180H615" fill="none" color="#000"/><path stroke="#E69F00" d="M20.7 3061.5H615" fill="none" color="#000"/><path stroke="#F0E442" d="M20.7 2943.1H615" fill="none" color="#000"/><path stroke="#0072B2" d="M20.7 2824.7H615" fill="none" color="#000"/><path stroke="#E51E10" d="M20.7 2706.3H615" fill="none" color="#000"/><path stroke="#000" d="M20.7 2587.9H615" fill="none" color="#000"/><path stroke="#9400D3" d="M20.7 2440.2l6 65.3 6-29.5 6 7 6-14.3 6-10.9 6-10.3 6 27.9 6-5.4 6 .3 6-17.4 6 49.2 6-24.4 6-19.6 6 2.5 6-.7 6 21.6 6.1 47 6-112.8 6 36.4 6 34.9 6-22.2 6 33.4 6-37.6 6 58.5 6-41.2 6 13.6 6-31.9 6 60.7 6-79.2 6 1.6 6 10.9 6 4.2 6 12.8 6-29.3 6 4.7 6 20.9 6-3.9 6 40.3 6-45.8 6 17.9 6-42.3 6 72.7 6-28.2 6-45.9 6 41.3 6-13.1 6 5.5 6 6.7 6 28.8 6.1-35.5 6 56.7 6-44.1 6-7.4 6-38.8 6 52.4 6 31 6-35.2 6 2.4 6-15.8 6 6.7 6-35.7 6 20.5 6-56.9 6 45.1 6 15.8 6-6.4 6 10.9 6 25.5 6-31.2 6-35 6 34.4 6-53.9 6 85.7 6-48.5 6 47.6h6l6-6.7 6-2.1 6 12.1 6-34.9 6 29.5 6 8.2 6.1-31.2 6 10.6 6-28 6 25.8 6-69.8 6 87.4 6-19.1 6 20.9 6 4 6-13.4 6-5.4 6-31.6 6-9.1 6 24.3 6-24 6 70.1 6-21.8" fill="none" color="#000"/><path stroke="#009E73" d="M20.7 2394.7l6-5h6l6-.1h12l6 5 6 .3 6-5.7 6 5.5 6-5 6 5.1 6 .3 6-.4 6-5.1 6-.1 6 .2 6.1-.1h6l6 5.1 6-5.1h18l6 5.2 6 .3 6-5.8 6 5.9 6-83.3 6 52.6 6-52.7 6 .2 6 49.6 6 2.6 6-49.3 6 46.7 6-24.3 6-25.5 6 .1h6l6 49.6 6-49.7 6 .2 6-.2 6 3 6 .1 6-3h12l6 25.4 6.1-25.4 6 25.4 6-22.4 6 49.6 6-2.9 6 3 6-50.2 6 22.9 6-25.2 6 52.5 6-3.2 6-47 6-2.4 6-.1 6 49.6 6 .1 6-24.3 6 24.3 6-24.3 6-25.4 6 70.1 6 2.5 6-22.9h6l6-49.8 6 .2 6-.1 6-.1 6 .1 6 52.6 6-52.4 6 69.8 6-70.1 6.1 52.8 6 .2 6-52.9 6 49.7 6-47.2 6 47.2 6 23 6-72.7 6 49.5 6-46.6 6 46.8 6-49.6 6 52.2 6-2.6 6-49.7h6l6-.1" fill="none" color="#000"/><path stroke="#56B4E9" d="M20.7 2292l6 .1h6l6-.1h6l6 .2 6-.2 6 .2 6-.3 6 .2 6-.1 6 .1h12l6-.1 6 .2 6-.1 6.1.1 6-.1h6l6 .2 6-.2 6-.3 6 .2 6 .1h6l6 .1 6-.2 6-82.6h12l6 .2 6-.3 6 .3 6-.3 6 .1 6 .1 6 .1 6-.2 6-.1 6 .2 6-.3 6 .3 6-.2 6 .2 6 .1h6l6-.2h24.1l6-.1 6 .1 6-.1 6 .2 6 .1 6-.1 6 .1 6-.1 6 .1 6-.2 6 .1 6-.2 6 .1 6 .2 6-.1h6l6-.1h12l6 .1 6-.2 6 .2h18l6-.1 6 .1 6-.1 6 .1h6l6-.1 6.1-.1 6 .4 6-.2h6l6-.1h6l6 .1 6-.1 6 .1 6 .2 6-.3 6 .1 6 .1h6l6-.1 6-.1h6" fill="none" color="#000"/><path stroke="#E69F00" d="M20.7 2080.2l6 82.9h6l6-82.9h12l6-82.9 6 165.8 6-82.9h42l6 82.9 6.1-82.9h36l6 82.9 6-82.9 6 82.9 6-82.9h18l6 82.9h24l6-82.9h6l6 82.9h6l6-82.9h6l6 82.9 6-82.9h12l6 82.9 6-82.9h12l6.1 82.9 6-82.9h6l6 82.9h12l6-82.9h6l6 165.8 6-82.9 6-82.9h6l6 82.9 6-82.9h6l6 82.9 6-82.9 6 82.9 6-82.9h6l6 82.9h18l6-82.9 6 82.9 6-82.9h18l6 82.9 6-82.9h6l6.1 82.9 6 82.9 6-165.8 6 82.9 6-82.9 6 82.9h6l6-82.9h12l6 82.9h18l6-82.9 6 82.9 6-82.9" fill="none" color="#000"/><path stroke="#F0E442" d="M20.7 1982.5h30l6 82.9 6-82.9 6 82.9 6-82.9h84.1l6 248.7 6-248.7h6l6 82.9 6-82.9h24l6 82.9 6-82.9h120.1l6-82.9 6 82.9h36l6 82.9 6-82.9h48l6 82.9h6l6-82.9H519l6 248.7 6-248.7h6l6 82.9 6-82.9h12l6 82.9 6-82.9h30l6 82.9h6" fill="none" color="#000"/><g><path stroke="#0072B2" d="M20.7 1831.5l6 68.9 6-100.6 6 43.7 6-9.5 6 52.4 6-13.1 6 18.2 6-6.3 6-116.2 6 74.4 6-5 6 35.2 6-31.4 6 43.3 6 8.1 6-64.5 6.1 72.8 6-3.4 6-42.9 6 39.5h6l6 4.7 6-39.9 6 47.7 6-5.9 6-2.1 6 15 6-23 6 .6 6-62.1 6 52.4 6 11.5 6-23.6 6 18.6 6 10.7 6-24.7 6 5.1 6-43.9 6 45.2 6 7.7 6-55.7 6 66.3 6-69.6 6 68 6-11.9 6-.2 6-1.3 6-.5 6 4 6.1-.5 6-1.9 6-8.1 6 38.6 6-36.5 6 4.2 6-44.8 6 5.5 6 52 6-1.6 6-12.4 6-40.3 6 45.1 6 33.9 6-9.6 6-9.7 6-18.2 6 23.8 6-51.4 6 22.1 6-50.3 6 6.1 6 51.5 6-22.3 6 51.2 6-29.1 6 5.6 6 7.2 6 6.2 6-1.3 6-28.5 6 31.9 6-60.2 6.1 41.1 6 13.8 6-94.6 6 76.2 6-24.2 6 31.5 6-19.1 6 27.7 6-26.4 6 14.5 6 4.8 6 8.7 6-53.5 6 63.8 6-19.5 6-2.1 6-11.8" fill="none" color="#000"/></g><g><path stroke="#E51E10" d="M20.7 1707l6 79.9 6-120.5 6 70.1 6-19.3 6 58.2 6-66.9 6 74.3 6-62.6 6-67.6 6 82.3 6-15.3 6 20.4 6-23 6 69.1 6-2 6-56.9 6.1 64.5 6-18.2 6-49.2 6 58.1 6-5.5 6 7.5 6-54.9 6-52.8 6 93 6 15.2 6 .5 6-4.1 6 9.8 6-62.9 6 56 6 .8 6-69.2 6 71.8 6 3.7 6-33.6 6-.7 6-30.2 6 43.5 6 11.1 6-50.2 6 67.5 6-70.3 6 55.5 6-13.4 6 4.4 6-17.4 6-8 6 31.3 6.1-6.2 6-2.8 6-.3 6 13.2 6-17.9 6 15.7 6-79.9 6 28.7 6 45.6 6 15.9 6-11 6-52.2 6 49.7 6 10.7 6-2.1 6-16.8 6 12.1 6-.9 6-47.2 6 38.5 6-59.4 6 7 6 49.6 6-47.4 6 49.7 6 5.3 6 5.4 6 .3 6 3.8 6 9.9 6-40.3 6 10.4 6-20.6 6.1 36.3 6-3.6 6-72.5 6 71 6-68.5 6 64.2 6 .6 6 11.9 6-51.1 6 52.7 6-2.9 6-21.3 6-33.6 6 54.5 6-8.1 6-53 6 29.2" fill="none" color="#000"/></g><g><path stroke="#000" d="M20.7 1687.4l6-80.2 6 81.2 6-.3 6-.4 6 .1 6-1.3 6-78.9 6-1.4 6 26.5 6-26.1 6 81.8 6-.5 6-.4 6 .8 6-.8 6 1.5 6.1-83.4 6 .9 6 81.5 6-81.5 6 81.3 6 .2 6-.3 6 .9 6-1.3 6-80.2 6-.9 6 81.8 6-81.6 6 25.6 6 1.9 6-.3 6-26 6-1 6 26.6 6 54.6 6 .1 6-54.5 6-26.5 6 81 6-82 6 1 6 80.4 6 .7 6 .2 6-55 6-26.6 6 81.8 6-82.1 6.1.5 6 81.3 6 .2 6-55.1 6 .1 6 .6 6-27.7 6-.3 6 2.5 6-1.6 6-1.3 6 .7 6 82.7 6-82.6 6-.1 6 .7 6 81 6-80.8 6-1.1 6 82.1 6-80.5 6-.8 6 26.5 6-26.3 6-.9 6 .9 6-.6 6-.5 6 .5h6l6 83 6-83.1 6-.7 6.1 83.1 6 1.5 6-2 6-54.9 6-27.5 6 1.2 6 27.1 6-27.7 6-.9 6 82 6-80.3 6 .2 6 .1 6-.3 6 25.9 6 55.3 6-82.5" fill="none" color="#000"/></g><g><path stroke="#9400D3" d="M20.7 1457.4l6 92.1 6-78.3 6-12.3 6 6.1 6 18.5 6-26.1 6 93.6 6-3.1h6l6 1.6 6-86 6 20 6-20 6 16.9h6l6-20 6.1 86 6 1.5 6-87.5 6 87.5 6-72.1 6 6.1 6-19.9 6 23 6-1.5 6 66 6-1.6 6-69 6 69 6-1.5 6 4.6 6-1.5 6 1.5 6-1.5h6l6-61.4 6-10.8 6 72.2h6l6-72.2 6 69.1 6 3.1 6-56.8 6-9.2 6-1.6 6 67.6 6-1.6 6-70.6 6 70.6 6.1 1.6 6-64.5 6-7.7 6 72.2h6l6 1.5 6-3.1 6-1.5 6 7.7 6-4.6 6-3.1 6 1.5 6-72.1 6 72.1h6l6 1.6 6-67.6 6 67.6 6-1.6 6-62.9 6 66 6-1.5h12l6-3.1 6 3.1 6-1.6 6-1.5 6 1.5h6l6-55.2 6 55.2 6-1.5 6.1-64.5 6-3 6 6.1 6 64.5 6-3.1 6 3.1 6 1.5 6-3.1 6-1.5 6-67.5 6 72.1h12l6-1.5h6l6-70.6 6 67.5" fill="none" color="#000"/></g><g><path stroke="#009E73" d="M20.7 1378.8l6 45.6 6-85 6 79.2 6-17.4 6 1.5 6-13.7 6 36.2 6-69.2 6 3.7 6 48.9 6 30.3 6-60.8 6 47.4 6-6.8 6 .3 6-12.9 6.1 3.9 6-15.2 6 36.4 6-27.7 6 28.3 6 .2 6-.6 6-112.2 6 115 6 38.7 6-30.3 6-27.4 6-20.7 6 5.7 6 35.5 6-38.1 6 39 6 27.4 6-54.9 6-36.5 6 54.6 6-28.7 6 27.5 6 15.6 6-45.7 6 4 6-47.6 6 78.5 6-23.2 6 18.2 6 9.6 6-45.1 6-12.3 6.1 56.7 6 5 6-30.2 6 7.9 6-19 6-2 6-27.2 6 64.1 6-9.1 6-52.6 6 25.2 6 12.7 6 18.4 6-31.7 6-25.2 6 4.6 6 30.1 6-19.9 6-6 6-20.1 6-2.7 6 56.7 6-40.4 6-13 6 23.2 6 45.4 6-5.3 6-37.8 6 16.5 6-5.9 6-18.9 6 32.1 6-4.2 6.1-20.8 6 73.7 6-59.6 6-15 6-27 6 59.9 6-33 6 32 6 4.3 6-18.7 6-12.8 6-9.8 6 63.8 6-41.4 6 8.7 6-9.3 6-24" fill="none" color="#000"/></g><g><path stroke="#56B4E9" d="M20.7 1227.2l6 82.9 6-125.6 6 72.8 6-7.5 6 57.7 6-65.3 6 67.9 6-55.3 6-87.9 6 82.9 6-2.5 6 27.6 6-32.7 6 67.9 6 2.5 6-65.3 6.1 62.8 6-7.6 6-52.7 6 55.2 6-5 6 7.5 6-60.2h6l6 55.2 6 17.6 6-10h6l6 2.5 6-70.4 6 60.3 6 7.6 6-65.4 6 65.4 6 5 6-27.6 6 7.5 6-47.7 6 55.2 6 7.6 6-70.4 6 85.4 6-80.4 6 62.8 6-12.5 6 2.5h6l6 2.5 6 10.1 6.1-2.6 6-7.5 6-2.5 6 22.6 6-15.1 6 5.1 6-80.4 6 27.6 6 45.2 6 15.1 6-12.6 6-57.7 6 57.7 6 7.6 6 10 6-15.1h6l6 5.1 6-40.2 6 30.1 6-82.9 6 25.1 6 60.3 6-60.3 6 57.8 6 2.5h6l6 10.1 6-10.1 6 15.1 6-37.7 6 25.1 6-47.7 6.1 47.7 6-2.5 6-85.4 6 87.9 6-62.8 6 52.8 6-15.1 6 17.6 6-45.2 6 57.8 6 2.5 6-15.1 6-55.3 6 70.4 6-5 6-37.7 6-2.5" fill="none" color="#000"/></g><g><path stroke="#E69F00" d="M20.7 1213.7l6-80.2 6 81.3 6-.4 6-.3h6l6-1.3 6-78.9 6-1.4 6 26.6 6-26.2 6 81.8 6-.5 6-.4 6 .8 6-.8 6 1.5 6.1-83.4 6 .9 6 81.6 6-81.6 6 81.3 6 .2 6-.3 6 .9 6-1.3 6-80.2 6-.9 6 81.8 6-81.6 6 25.6 6 1.9 6-.3 6-26 6-1 6 26.6 6 54.6 6 .1 6-54.5 6-26.5 6 81 6-82 6 1 6 80.4 6 .7 6 .3 6-55.1 6-26.6 6 81.8 6-82.1 6.1.6 6 81.2 6 .3 6-55.2 6 .1 6 .6 6-27.7 6-.3 6 2.5 6-1.6 6-1.3 6 .8 6 82.6 6-82.6 6-.1 6 .7 6 81 6-80.8 6-1.1 6 82.2 6-80.6 6-.8 6 26.6 6-26.4 6-.9 6 .9 6-.6 6-.5 6 .5 6 .1 6 83 6-83.1 6-.8 6.1 83.1 6 1.5 6-2 6-54.9 6-27.5 6 1.2 6 27.1 6-27.7 6-.9 6 82 6-80.3 6 .2 6 .2 6-.4 6 25.9 6 55.3 6-82.4" fill="none" color="#000"/></g><g><path stroke="#F0E442" d="M20.7 1095.3l6-80.2 6 81.2 6-.3 6-.4 6 .1 6-1.3 6-78.9 6-1.4 6 26.5 6-26.1 6 81.7 6-.4 6-.4 6 .8 6-.8 6 1.5 6.1-83.4 6 .9 6 81.5 6-81.5 6 81.3 6 .2 6-.3 6 .9 6-1.3 6-80.2 6-.9 6 81.8 6-81.6 6 25.5 6 2 6-.3 6-26 6-1 6 26.6 6 54.6 6 .1 6-54.5 6-26.5 6 81 6-82 6 1 6 80.4 6 .7 6 .2 6-55 6-26.6 6 81.8 6-82.1 6.1.5 6 81.3 6 .2 6-55.1 6 .1 6 .6 6-27.7 6-.3 6 2.5 6-1.6 6-1.3 6 .7 6 82.7 6-82.7h6l6 .7 6 81 6-80.8 6-1.1 6 82.1 6-80.5 6-.8 6 26.5 6-26.3 6-.9 6 .9 6-.6 6-.6 6 .5 6 .1 6 83 6-83.1 6-.7 6.1 83.1 6 1.4 6-1.9 6-54.9 6-27.5 6 1.2 6 27.1 6-27.7 6-.9 6 82 6-80.3 6 .2 6 .1 6-.3 6 25.9 6 55.3 6-82.5" fill="none" color="#000"/></g><g><path stroke="#0072B2" d="M20.7 863.9l6 88.4 6-127.1 6 71.8h6l6 52.5 6-46.9 6 52.5 6-36 6-127.1 6 94 6 2.8 6 38.6 6-38.6 6 66.3h6l6-71.9 6.1 71.9 6-5.6 6-58 6 58 6-5.5 6 8.3 6-69.1 6 71.9h6l6 5.5 6-2.8 6-5.5h6l6-71.8 6 58 6 16.6 6-66.3 6 63.5 6 8.3 6-24.9 6 11.1 6-60.8 6 60.8 6 8.3 6-80.2 6 91.2 6-77.3 6 63.5 6-8.3 6-2.7 6 5.5 6-2.8 6 8.3 6.1 2.8 6-11.1 6-5.5 6 24.9 6-13.9h6l6-80.1 6 27.6 6 49.8 6 11 6-5.5 6-66.3 6 60.8 6 13.8 6 2.8 6-11.1 6-5.5 6 11 6-41.4 6 35.9 6-82.9 6 16.6 6 63.5 6-66.3 6 74.6 6-8.3 6 2.8 6 2.8 6-8.3 6 13.8 6-38.7 6 35.9 6-63.5 6.1 58h6l6-99.5 6 96.7 6-66.3 6 69.1 6-22.1 6 13.8 6-52.5 6 58 6 8.3 6-5.5 6-60.8 6 69.1 6-2.8 6-8.3 6-24.8" fill="none" color="#000"/></g><g><path stroke="#E51E10" d="M20.7 825.6l6-4.7 6 6.1 6 2.1 6-1.4 6-50.8 6 48.1 6-4.8 6-.9 6-45.8 6 46.7 6-49.1 6 12.3 6-12.2 6 59.2 6-.9 6-2.6 6.1-4.8 6-1.5 6-46.4 6 78.8 6-76.6 6 53.3 6-55.8 6 2 6-.1 6-7.8 6 53.1 6 7.8 6-5.3 6-5.5 6 4.3 6 .1 6-54.4 6 .8 6 54.2 6 5.4 6-1.4 6-5.7 6 .6 6 8.3 6-11.6 6 2.9 6 40.7 6-31.6 6-2.9 6-6.1 6-51.9 6 57.2 6-5.1 6.1-1.1 6-43.7 6 51.1 6-5 6-.4 6-.3 6-5.3 6-49.8 6 54.9 6-.2 6 .7 6-2.6 6-42.9 6 42.6 6 3.7 6-.5 6 7.2 6-6.8 6-53.4 6 4.7 6 47.8 6-56.3 6 55.6 6-2.3 6 1.6 6-.9 6 .5 6 .6 6 .6 6 1.6 6 5 6-6 6-3.2 6.1 10.8 6-51.8 6 46.7 6-1.5 6-9.7 6-43.5 6 50.5 6 1.1 6-54.1 6 61.6 6-3.2 6-4.5 6-53.9 6 55.1 6-52.2 6 55.3 6-5.4" fill="none" color="#000"/></g><g><path stroke="#000" d="M20.7 723.3l6-16.9 6-14.7 6-19.4 6-17.9 6 27.2 6 75.3 6-86.8 6 67.5 6-42.8 6 8.8 6-32.2 6 17.4 6 2.2 6-24.1 6 11.7 6-13.6 6.1 50.9 6-3.7 6 8 6-28.8 6 18.9 6 1.8 6 42.2 6-55.5 6 13.8 6-31.9 6 66.4 6-73.4 6 14.5 6-4.4 6 4 6-3.4 6 72.8 6-79.6 6 8 6-10 6-8.3 6 14.5 6-17.1 6 9.3 6 6.4 6-8.7 6-14.4 6 45.5 6-14 6-1.8 6-9.7 6 5.2 6-2.2 6.1-13.5 6 12.8 6-.3 6 49.1 6-71.4 6 8.7 6 59.9 6-49.5 6 35.1 6-32.6 6-14.1 6 29 6-11.5 6 53.7 6-20.2 6-6.3 6-33.5 6 43.1 6-44.5 6-38.5 6 48.4 6-14.8 6 11.9 6 78.6 6-30.2 6-64.8 6 13.9 6 3 6 55.5 6-33.2 6-5.2 6 15.4 6-30.8 6.1-15.4 6 34.6 6-35.6 6-2.9 6 90.2 6-73.6 6-5 6 31.2 6 68 6-98.4 6-7.7 6 37.7 6-19.4 6 18.8 6-35.2 6 16.2 6 24.3" fill="none" color="#000"/></g><g><path stroke="#9400D3" d="M20.7 599.5l6 4.8h24l6-4.8 6 4.8 6-73.1 6 68.3 6 4.8 6-4.8h12l6 4.8h24.1l6-4.8 6 4.8h18l6-4.8h6l6 4.8 6-78 6 78 6-4.8 6-68.3h6l6 73.1h6l6-4.8 6 4.8 6-73.1h18l6 73.1 6-73.1 6 73.1 6-73.1 6 68.3h6l6 4.8 6-73.1h18.1l6 73.1 6-4.8h6l6-68.3 6 68.3h6l6-68.3 6 73.1 6-4.8 6-68.3 6-4.9 6 4.9 6 73.1h12l6-73.1 6 73.1 6-73.1h12l6-78 6 151.1h6l6-73.1h6l6 73.1 6-73.1h6l6-4.9 6 4.9 6 73.1 6-73.1 6.1 68.3 6 14.6 6-82.9h6l6 68.3 6-141.5 6 146.3h12l6-4.8 6-68.3 6 73.1 6-73.1 6 73.1h12l6-73.1" fill="none" color="#000"/></g><g><path stroke="#009E73" d="M20.7 477.5l6 14.7 6-20.6h12l6 20.6 6-14.7 6-56.6 6-7.3 6 7.3 6-7.3 6-4.1 6 68 6-56.6 6 50.7 6 20.6 6-78.6 6.1 78.6h6l6-71.3 6 71.3h18l6-71.3h6l6 71.3 6 4.3 6-82.9 6 82.9 6-82.9 6 78.6h6l6-71.3h6l6 71.3 6-78.6 6 78.6 6-78.6 6 78.6h6l6-78.6h6l6 78.6 6-71.3h6l6 71.3h6l6-78.6h6l6.1 78.6h6l6-71.3h6l6-7.3 6 82.9 6-75.6 6 71.3h6l6 4.3 6-4.3 6-14.7 6 14.7h6l6-78.6h18l6 78.6h12l6-71.3 6-7.3h6l6 78.6 6-78.6 6 78.6 6-78.6h6l6 82.9 6-82.9 6 78.6 6-78.6 6.1 7.3h6l6 71.3 6-78.6 6 7.3 6 71.3 6-47.8 6 47.8h6l6-14.7 6 14.7 6-78.6 6 7.3 6 71.3h12l6-78.6" fill="none" color="#000"/></g><g><path stroke="#56B4E9" d="M20.7 317.4l6 24.7 6 11.8 6-3.6 6-5.7 6-9.6 6-46.3 6 79 6-92.8 6 62.6 6 17.3 6 .1 6-7.6 6-6.6 6 11.6 6-12.1 6 24.7 6.1-54.1 6-25.6 6 3.5 6 64.5 6-8.4 6-67.1 6 21.1 6 60.1 6-60.3 6 61.3 6-73.9 6 62.8 6 3.5 6-14.3 6 25.4 6-19.9 6-20.9 6 32.5 6-22.9 6 10.9 6 3.5 6 7.1 6 5 6-14.2 6-.7 6 14.4 6-19.7 6 10.7 6-28.5 6 21.1 6 12.5 6-.8 6-1.6 6.1 6.5 6-8.5 6-50.2 6 15.6 6 41 6 2.5 6-19.9 6 6 6-62.5 6 75.5 6-16.4 6 7.7 6 13.5 6-62 6 41.4 6 15.6 6-20.1 6 21.8 6-11.6 6 3.1 6 16.9 6-10.7 6-1.7 6-87 6 28.2 6 63.7 6-8.9 6-6 6-66.3 6 19.4 6 72.1 6-19 6-11.8 6.1 19.1 6 12.7 6-27.9 6 12.9 6-99.4 6 101 6-5.2 6-23.7 6-59 6 72.1 6 19.8 6-55.1 6 58.7 6-4.2 6-8.8 6 3.2 6-16.6" fill="none" color="#000"/></g><g><path stroke="#E69F00" d="M20.7 174.5l6 66.3 6-95.3 6 41.4 6-8.3 6 49.7 6-12.4 6 16.6 6-6.2 6-109.9 6 70.5 6-4.1 6 33.1 6-31.1 6 41.5 6 8.3 6-62.2 6.1 70.5 6-4.2 6-39.4 6 37.3h6l6 4.2 6-37.3 6 45.6 6-6.2 6-2.1 6 14.5 6-22.8 6 2.1 6-60.1 6 49.7 6 10.4 6-22.8 6 18.6 6 10.4 6-22.8 6 4.1 6-41.4 6 43.5 6 6.2 6-53.9 6 64.3 6-66.3 6 64.2 6-10.4h6l6-2h6l6 4.1 6.1-2.1h6l6-8.2 6 37.3 6-35.3 6 4.2 6-43.5 6 6.2 6 49.7 6-2.1 6-12.4 6-37.3 6 41.4 6 33.2 6-8.3 6-10.3 6-16.6 6 22.8 6-49.8 6 20.8 6-47.7 6 6.2 6 49.7 6-22.7 6 49.7 6-29 6 6.2 6 6.2 6 6.2h6l6-29 6 31.1 6-58 6.1 39.3 6 14.6 6-91.2 6 72.5 6-22.8 6 31.1 6-18.7 6 27 6-27 6 14.5 6 4.2 6 8.3 6-49.8 6 60.1 6-18.6 6-2.1 6-10.3" fill="none" color="#000"/></g><g><path stroke="#F0E442" d="M20.7 91.4l6-15.3 6 27.8 6-17.5 6 2.5 6 4.9 6-5.4 6 23.8 6 14.1 6 42.2 6-41.5 6 21.9 6-42.8 6 40.5 6-71.7 6-13.2 6 52.8 6.1-39 6 2.2 6 65.3 6-83.8 6 36.3 6-33.1 6 45.6 6 34 6-10.9 6-25.2 6-33 6 27.5 6-29.2 6 55.6 6-53.3 6-1.5 6 84.7 6-13.6 6-72.4 6 34.5 6-38.7 6 57.1 6-46.5 6-15.4 6 68.5 6-19.3 6-53 6 39.7 6 4.2 6-26.9 6 34.3 6-5.7 6 10.2 6.1-36.9 6 18.4 6 5.9 6 4.2 6 5.6 6-42 6 62.1 6-11.8 6-42.6 6-5.6 6 5.3 6 23.1 6-5.4 6-17.8 6 34 6 3.1 6-13.1 6 11.8 6 2.3 6-18.1 6-2.1 6 64.1 6-46.9 6 17 6-50.9 6 38.1 6-38.2 6 35.7 6 1.5 6-44.8 6 36.3 6-30.4 6 49.9 6.1-27.6 6 31 6-45.1 6 26.1 6 19.7 6-20.8 6-3.4 6-27.9 6 41.8 6-47.8 6 .6 6 43.3 6 41.6 6-83.1 6 29 6-31.4 6 50.9" fill="none" color="#000"/></g><g fill="none" color="#000" stroke="currentColor"><path stroke="#000" d="M20.7 18.1v4405.3H615V18.1H20.7z"/><text transform="translate(34.9 4308.9)" stroke="none" fill="#000" font-family="Arial" font-size="12"><tspan>server-response-time, p90stdev=0.139, score:p90stdev=0, range=[1.218:2.363]</tspan></text><text transform="translate(34.9 4190.5)" stroke="none" fill="#000" font-family="Arial" font-size="12"><tspan>redirects, p90stdev=0, score:p90stdev=0, range=[0:0]</tspan></text><text transform="translate(34.9 4072)" stroke="none" fill="#000" font-family="Arial" font-size="12"><tspan>uses-rel-preconnect, p90stdev=0, score:p90stdev=0, range=[0:0]</tspan></text><text transform="translate(34.9 3953.6)" stroke="none" fill="#000" font-family="Arial" font-size="12"><tspan>offscreen-images, p90stdev=0, score:p90stdev=0, range=[0:0]</tspan></text><text transform="translate(34.9 3835.2)" stroke="none" fill="#000" font-family="Arial" font-size="12"><tspan>unminified-css, p90stdev=0, score:p90stdev=0, range=[0:150]</tspan></text><text transform="translate(34.9 3716.8)" stroke="none" fill="#000" font-family="Arial" font-size="12"><tspan>unminified-javascript, p90stdev=0, score:p90stdev=0, range=[0:0]</tspan></text><text transform="translate(34.9 3598.3)" stroke="none" fill="#000" font-family="Arial" font-size="12"><tspan>unused-css-rules, p90stdev=0, score:p90stdev=0, range=[0:150]</tspan></text><text transform="translate(34.9 3479.9)" stroke="none" fill="#000" font-family="Arial" font-size="12"><tspan>uses-webp-images, p90stdev=63.199, score:p90stdev=0, range=[27450:27600]</tspan></text><text transform="translate(34.9 3361.5)" stroke="none" fill="#000" font-family="Arial" font-size="12"><tspan>uses-optimized-images, p90stdev=0, score:p90stdev=0, range=[0:0]</tspan></text><text transform="translate(34.9 3243.1)" stroke="none" fill="#000" font-family="Arial" font-size="12"><tspan>uses-text-compression, p90stdev=0, score:p90stdev=0, range=[5700:5720]</tspan></text><text transform="translate(34.9 3124.7)" stroke="none" fill="#000" font-family="Arial" font-size="12"><tspan>uses-responsive-images, p90stdev=0, score:p90stdev=0, range=[0:0]</tspan></text><text transform="translate(34.9 3006.2)" stroke="none" fill="#000" font-family="Arial" font-size="12"><tspan>efficient-animated-content, p90stdev=0, score:p90stdev=0, range=[0:0]</tspan></text><text transform="translate(34.9 2887.8)" stroke="none" fill="#000" font-family="Arial" font-size="12"><tspan>duplicated-javascript, p90stdev=0, score:p90stdev=0, range=[0:0]</tspan></text><text transform="translate(34.9 2769.4)" stroke="none" fill="#000" font-family="Arial" font-size="12"><tspan>legacy-javascript, p90stdev=0, score:p90stdev=0, range=[0:0]</tspan></text><text transform="translate(34.9 2651)" stroke="none" fill="#000" font-family="Arial" font-size="12"><tspan>estimated-input-latency, p90stdev=0, score:p90stdev=0, range=[12.8:12.8]</tspan></text><text transform="translate(34.9 2532.5)" stroke="none" fill="#000" font-family="Arial" font-size="12"><tspan>dom-size, p90stdev=0, score:p90stdev=0, range=[422:422]</tspan></text><text transform="translate(34.9 2414.1)" stroke="none" fill="#000" font-family="Arial" font-size="12"><tspan>uses-long-cache-ttl, p90stdev=6.458, score:p90stdev=0, range=[559296.204:559338.166]</tspan></text><text transform="translate(34.9 2295.7)" stroke="none" fill="#000" font-family="Arial" font-size="12"><tspan>largest-contentful-paint, p90stdev=5637.33, score:p90stdev=0, range=[14779.421:29531.423]</tspan></text><text transform="translate(34.9 2177.3)" stroke="none" fill="#000" font-family="Arial" font-size="12"><tspan>total-byte-weight, p90stdev=4236.149, score:p90stdev=0, range=[7949427:7959908]</tspan></text><text transform="translate(34.9 2058.9)" stroke="none" fill="#000" font-family="Arial" font-size="12"><tspan>uses-rel-preload, p90stdev=0.477, score:p90stdev=0, range=[604:607]</tspan></text><text transform="translate(34.9 1940.4)" stroke="none" fill="#000" font-family="Arial" font-size="12"><tspan>unused-javascript, p90stdev=2.279, score:p90stdev=0, range=[4530:4570]</tspan></text><text transform="translate(34.9 1822)" stroke="none" fill="#000" font-family="Arial" font-size="12"><tspan>interactive, p90stdev=9.772, score:p90stdev=0.001, range=[10937.019:11007.42]</tspan></text><text transform="translate(34.9 1703.6)" stroke="none" fill="#000" font-family="Arial" font-size="12"><tspan>bootup-time, p90stdev=10.958, score:p90stdev=0.001, range=[538.776:604.788]</tspan></text><text transform="translate(34.9 1585.2)" stroke="none" fill="#000" font-family="Arial" font-size="12"><tspan>first-cpu-idle, p90stdev=101.376, score:p90stdev=0.002, range=[1966.928:2205.583]</tspan></text><text transform="translate(34.9 1466.7)" stroke="none" fill="#000" font-family="Arial" font-size="12"><tspan>render-blocking-resources, p90stdev=20.309, score:p90stdev=0.002, range=[913:976]</tspan></text><text transform="translate(34.9 1348.3)" stroke="none" fill="#000" font-family="Arial" font-size="12"><tspan>mainthread-work-breakdown, p90stdev=20.25, score:p90stdev=0.003, range=[1749.048:1892.084]</tspan></text><text transform="translate(34.9 1229.9)" stroke="none" fill="#000" font-family="Arial" font-size="12"><tspan>total-blocking-time, p90stdev=10.167, score:p90stdev=0.011, range=[264:327]</tspan></text><text transform="translate(34.9 1111.5)" stroke="none" fill="#000" font-family="Arial" font-size="12"><tspan>first-contentful-paint, p90stdev=101.376, score:p90stdev=0.014, range=[1966.928:2205.583]</tspan></text><text transform="translate(34.9 993.1)" stroke="none" fill="#000" font-family="Arial" font-size="12"><tspan>first-meaningful-paint, p90stdev=101.376, score:p90stdev=0.014, range=[1966.928:2205.583]</tspan></text><text transform="translate(34.9 874.6)" stroke="none" fill="#000" font-family="Arial" font-size="12"><tspan>max-potential-fid, p90stdev=9.371, score:p90stdev=0.025, range=[267:330]</tspan></text><text transform="translate(34.9 756.2)" stroke="none" fill="#000" font-family="Arial" font-size="12"><tspan>speed-index, p90stdev=229.615, score:p90stdev=0.04, range=[3831.551:4947.317]</tspan></text><text transform="translate(34.9 637.8)" stroke="none" fill="#000" font-family="Arial" font-size="12"><tspan>network-rtt, p90stdev=0.054, score:p90stdev=0.054, range=[0.101:0.486]</tspan></text><text transform="translate(34.9 519.4)" stroke="none" fill="#000" font-family="Arial" font-size="12"><tspan>uses-http2, p90stdev=67.995, score:p90stdev=0.054, range=[150:480]</tspan></text><text transform="translate(34.9 401)" stroke="none" fill="#000" font-family="Arial" font-size="12"><tspan>cumulative-layout-shift, p90stdev=0.095, score:p90stdev=0.182, range=[0.179:0.41]</tspan></text><text transform="translate(34.9 282.5)" stroke="none" fill="#000" font-family="Arial" font-size="12"><tspan>network-server-latency, p90stdev=0.878, score:p90stdev=0.878, range=[4.707:9.916]</tspan></text><text transform="translate(34.9 164.1)" stroke="none" fill="#000" font-family="Arial" font-size="12"><tspan>metrics, p90stdev=9.628, score:p90stdev=9.628, range=[10937:11007]</tspan></text><text transform="translate(34.9 45.7)" stroke="none" fill="#000" font-family="Arial" font-size="12"><tspan>score, p90stdev=0.011, score:p90stdev=0.011, range=[0.499:0.556]</tspan></text></g></svg>