<svg width="640" height="620" xmlns="http://www.w3.org/2000/svg" xmlns:xlink="http://www.w3.org/1999/xlink"><path fill="#fff" d="M0 0h640v620H0z"/><defs><path id="d" stroke-width=".222" stroke="currentColor" d="M-1-1h2v2h-2z"/><path id="b" stroke-width=".222" stroke="currentColor" d="M0-1.33l-1.33 2h2.66z"/><path id="f" stroke-width=".222" stroke="currentColor" d="M0 1.33L1.265.411.782-1.067l-1.564-.009-.483 1.487z"/><use xlink:href="#b" id="c" stroke="currentColor" transform="rotate(180)"/><use xlink:href="#d" id="e" stroke="currentColor" transform="rotate(45)"/><circle id="a" stroke-width=".222" stroke="currentColor" cx="0" cy="0" r="1"/></defs><g fill="none" color="#000" stroke="currentColor"><path stroke="#000" d="M45.6 284.3h9m560.4 0h-9"/><text transform="translate(37.3 288.2)" stroke="none" fill="#000" font-family="Arial" font-size="12" text-anchor="end"><tspan>13</tspan></text></g><g fill="none" color="#000" stroke="currentColor"><path stroke="#000" d="M45.6 252.5h9m560.4 0h-9"/><text transform="translate(37.3 256.4)" stroke="none" fill="#000" font-family="Arial" font-size="12" text-anchor="end"><tspan>14</tspan></text></g><g fill="none" color="#000" stroke="currentColor"><path stroke="#000" d="M45.6 220.7h9m560.4 0h-9"/><text transform="translate(37.3 224.6)" stroke="none" fill="#000" font-family="Arial" font-size="12" text-anchor="end"><tspan>15</tspan></text></g><g fill="none" color="#000" stroke="currentColor"><path stroke="#000" d="M45.6 188.9h9m560.4 0h-9"/><text transform="translate(37.3 192.8)" stroke="none" fill="#000" font-family="Arial" font-size="12" text-anchor="end"><tspan>16</tspan></text></g><g fill="none" color="#000" stroke="currentColor"><path stroke="#000" d="M45.6 157.1h9m560.4 0h-9"/><text transform="translate(37.3 161)" stroke="none" fill="#000" font-family="Arial" font-size="12" text-anchor="end"><tspan>17</tspan></text></g><g fill="none" color="#000" stroke="currentColor"><path stroke="#000" d="M45.6 125.2h9m560.4 0h-9"/><text transform="translate(37.3 129.1)" stroke="none" fill="#000" font-family="Arial" font-size="12" text-anchor="end"><tspan>18</tspan></text></g><g fill="none" color="#000" stroke="currentColor"><path stroke="#000" d="M45.6 93.4h9m560.4 0h-9"/><text transform="translate(37.3 97.3)" stroke="none" fill="#000" font-family="Arial" font-size="12" text-anchor="end"><tspan>19</tspan></text></g><g fill="none" color="#000" stroke="currentColor"><path stroke="#000" d="M45.6 61.6h9m560.4 0h-9"/><text transform="translate(37.3 65.5)" stroke="none" fill="#000" font-family="Arial" font-size="12" text-anchor="end"><tspan>20</tspan></text></g><g fill="none" color="#000" stroke="currentColor"><path stroke="#000" d="M45.6 29.8h9m560.4 0h-9"/><text transform="translate(37.3 33.7)" stroke="none" fill="#000" font-family="Arial" font-size="12" text-anchor="end"><tspan>21</tspan></text></g><g fill="none" color="#000" stroke="currentColor"><path stroke="#000" d="M45.6 296v-9m0-268.9v9"/><text transform="translate(45.6 317.9)" stroke="none" fill="#000" font-family="Arial" font-size="12" text-anchor="middle"><tspan>0</tspan></text></g><g fill="none" color="#000" stroke="currentColor"><path stroke="#000" d="M103.1 296v-9m0-268.9v9"/><text transform="translate(103.1 317.9)" stroke="none" fill="#000" font-family="Arial" font-size="12" text-anchor="middle"><tspan>10</tspan></text></g><g fill="none" color="#000" stroke="currentColor"><path stroke="#000" d="M160.6 296v-9m0-268.9v9"/><text transform="translate(160.6 317.9)" stroke="none" fill="#000" font-family="Arial" font-size="12" text-anchor="middle"><tspan>20</tspan></text></g><g fill="none" color="#000" stroke="currentColor"><path stroke="#000" d="M218.1 296v-9m0-268.9v9"/><text transform="translate(218.1 317.9)" stroke="none" fill="#000" font-family="Arial" font-size="12" text-anchor="middle"><tspan>30</tspan></text></g><g fill="none" color="#000" stroke="currentColor"><path stroke="#000" d="M275.7 296v-9m0-268.9v9"/><text transform="translate(275.7 317.9)" stroke="none" fill="#000" font-family="Arial" font-size="12" text-anchor="middle"><tspan>40</tspan></text></g><g fill="none" color="#000" stroke="currentColor"><path stroke="#000" d="M333.2 296v-9m0-268.9v9"/><text transform="translate(333.2 317.9)" stroke="none" fill="#000" font-family="Arial" font-size="12" text-anchor="middle"><tspan>50</tspan></text></g><g fill="none" color="#000" stroke="currentColor"><path stroke="#000" d="M390.7 296v-9m0-268.9v9"/><text transform="translate(390.7 317.9)" stroke="none" fill="#000" font-family="Arial" font-size="12" text-anchor="middle"><tspan>60</tspan></text></g><g fill="none" color="#000" stroke="currentColor"><path stroke="#000" d="M448.2 296v-9m0-268.9v9"/><text transform="translate(448.2 317.9)" stroke="none" fill="#000" font-family="Arial" font-size="12" text-anchor="middle"><tspan>70</tspan></text></g><g fill="none" color="#000" stroke="currentColor"><path stroke="#000" d="M505.7 296v-9m0-268.9v9"/><text transform="translate(505.7 317.9)" stroke="none" fill="#000" font-family="Arial" font-size="12" text-anchor="middle"><tspan>80</tspan></text></g><g fill="none" color="#000" stroke="currentColor"><path stroke="#000" d="M563.2 296v-9m0-268.9v9"/><text transform="translate(563.2 317.9)" stroke="none" fill="#000" font-family="Arial" font-size="12" text-anchor="middle"><tspan>90</tspan></text></g><path stroke="#000" d="M45.6 18.1V296H615V18.1H45.6z" fill="none" color="#000"/><text transform="translate(525 335.9)" stroke="none" fill="#000" font-family="Arial" font-size="12" text-anchor="end" color="#000"><tspan>empty</tspan></text><path stroke="#9400D3" d="M533.3 332h42.2M45.6 290.7H615" fill="none" color="#000"/><text transform="translate(525 353.9)" stroke="none" fill="#000" font-family="Arial" font-size="12" text-anchor="end" color="#000"><tspan>pages</tspan></text><path stroke="#009E73" d="M533.3 350h42.2M45.6 290.7h557.9l5.7-183.3 5.8-84" fill="none" color="#000"/><text transform="translate(525 371.9)" stroke="none" fill="#000" font-family="Arial" font-size="12" text-anchor="end" color="#000"><tspan>pages+cached</tspan></text><path stroke="#56B4E9" d="M533.3 368h42.2M45.6 290.7H615" fill="none" color="#000"/><text transform="translate(525 389.9)" stroke="none" fill="#000" font-family="Arial" font-size="12" text-anchor="end" color="#000"><tspan>pages+cached+nointeractive</tspan></text><path stroke="#E69F00" d="M533.3 386h42.2M45.6 290.7H615" fill="none" color="#000"/><text transform="translate(525 407.9)" stroke="none" fill="#000" font-family="Arial" font-size="12" text-anchor="end" color="#000"><tspan>pages+cached+noadtech</tspan></text><path stroke="#F0E442" d="M533.3 404h42.2M45.6 290.7H615" fill="none" color="#000"/><text transform="translate(525 425.9)" stroke="none" fill="#000" font-family="Arial" font-size="12" text-anchor="end" color="#000"><tspan>pages+cached+noexternal</tspan></text><path stroke="#0072B2" d="M533.3 422h42.2M45.6 290.7H615" fill="none" color="#000"/><text transform="translate(525 443.9)" stroke="none" fill="#000" font-family="Arial" font-size="12" text-anchor="end" color="#000"><tspan>pages+cached+noexternal+nofonts</tspan></text><path stroke="#E51E10" d="M533.3 440h42.2M45.6 290.7H615" fill="none" color="#000"/><g><text transform="translate(525 461.9)" stroke="none" fill="#000" font-family="Arial" font-size="12" text-anchor="end" color="#000"><tspan>pages+cached+noexternal+nosvg</tspan></text><path stroke="#000" d="M533.3 458h42.2M45.6 290.7H615" fill="none" color="#000"/></g><g><text transform="translate(525 479.9)" stroke="none" fill="#000" font-family="Arial" font-size="12" text-anchor="end" color="#000"><tspan>pages+cached+noexternal+noimg</tspan></text><path stroke="#9400D3" d="M533.3 476h42.2M45.6 290.7H615" fill="none" color="#000"/></g><g><text transform="translate(525 497.9)" stroke="none" fill="#000" font-family="Arial" font-size="12" text-anchor="end" color="#000"><tspan>pages+cached+noexternal+nocss</tspan></text><path stroke="#009E73" d="M533.3 494h42.2M45.6 290.7H615" fill="none" color="#000"/></g><g><text transform="translate(525 515.9)" stroke="none" fill="#000" font-family="Arial" font-size="12" text-anchor="end" color="#000"><tspan>pages+cached+noexternal+nojs</tspan></text><path stroke="#56B4E9" d="M533.3 512h42.2M45.6 290.7H615" fill="none" color="#000"/></g><g><text transform="translate(525 533.9)" stroke="none" fill="#000" font-family="Arial" font-size="12" text-anchor="end" color="#000"><tspan>pages+cached+noexternal+nofonts+nosvg+noimg</tspan></text><path stroke="#E69F00" d="M533.3 530h42.2M45.6 290.7H615" fill="none" color="#000"/></g><g><text transform="translate(525 551.9)" stroke="none" fill="#000" font-family="Arial" font-size="12" text-anchor="end" color="#000"><tspan>pages+cached+noexternal+nofonts+nosvg+noimg+nocss</tspan></text><path stroke="#F0E442" d="M533.3 548h42.2M45.6 290.7H615" fill="none" color="#000"/></g><g><text transform="translate(525 569.9)" stroke="none" fill="#000" font-family="Arial" font-size="12" text-anchor="end" color="#000"><tspan>pages+cached+noexternal+nofonts+nosvg+noimg+nocss+nojs</tspan></text><path stroke="#0072B2" d="M533.3 566h42.2M45.6 290.7H615" fill="none" color="#000"/></g><g><text transform="translate(525 587.9)" stroke="none" fill="#000" font-family="Arial" font-size="12" text-anchor="end" color="#000"><tspan>score p10=58</tspan></text><path stroke="#E51E10" d="M533.3 584h42.2" fill="none" color="#000"/></g><g><text transform="translate(525 605.9)" stroke="none" fill="#000" font-family="Arial" font-size="12" text-anchor="end" color="#000"><tspan>score median=100</tspan></text><path stroke="#000" d="M533.3 602h42.2" fill="none" color="#000"/></g><g fill="none" color="#000" stroke="currentColor"><path stroke="#000" d="M45.6 18.1V296H615V18.1H45.6z"/></g></svg>