<svg width="640" height="500" xmlns="http://www.w3.org/2000/svg" xmlns:xlink="http://www.w3.org/1999/xlink"><path fill="#fff" d="M0 0h640v500H0z"/><defs><path id="d" stroke-width=".222" stroke="currentColor" d="M-1-1h2v2h-2z"/><path id="b" stroke-width=".222" stroke="currentColor" d="M0-1.33l-1.33 2h2.66z"/><path id="f" stroke-width=".222" stroke="currentColor" d="M0 1.33L1.265.411.782-1.067l-1.564-.009-.483 1.487z"/><use xlink:href="#b" id="c" stroke="currentColor" transform="rotate(180)"/><use xlink:href="#d" id="e" stroke="currentColor" transform="rotate(45)"/><circle id="a" stroke-width=".222" stroke="currentColor" cx="0" cy="0" r="1"/></defs><g fill="none" color="#000" stroke="currentColor"><path stroke="#000" d="M62.2 361.6h9m543.8 0h-9"/><text transform="translate(53.9 365.5)" stroke="none" fill="#000" font-family="Arial" font-size="12" text-anchor="end"><tspan>1850</tspan></text></g><g fill="none" color="#000" stroke="currentColor"><path stroke="#000" d="M62.2 278.9h9m543.8 0h-9"/><text transform="translate(53.9 282.8)" stroke="none" fill="#000" font-family="Arial" font-size="12" text-anchor="end"><tspan>1900</tspan></text></g><g fill="none" color="#000" stroke="currentColor"><path stroke="#000" d="M62.2 196.2h9m543.8 0h-9"/><text transform="translate(53.9 200.1)" stroke="none" fill="#000" font-family="Arial" font-size="12" text-anchor="end"><tspan>1950</tspan></text></g><g fill="none" color="#000" stroke="currentColor"><path stroke="#000" d="M62.2 113.5h9m543.8 0h-9"/><text transform="translate(53.9 117.4)" stroke="none" fill="#000" font-family="Arial" font-size="12" text-anchor="end"><tspan>2000</tspan></text></g><g fill="none" color="#000" stroke="currentColor"><path stroke="#000" d="M62.2 30.7h9m543.8 0h-9"/><text transform="translate(53.9 34.6)" stroke="none" fill="#000" font-family="Arial" font-size="12" text-anchor="end"><tspan>2050</tspan></text></g><g fill="none" color="#000" stroke="currentColor"><path stroke="#000" d="M62.2 428v-9m0-400.9v9"/><text transform="translate(62.2 449.9)" stroke="none" fill="#000" font-family="Arial" font-size="12" text-anchor="middle"><tspan>0</tspan></text></g><g fill="none" color="#000" stroke="currentColor"><path stroke="#000" d="M118 428v-9m0-400.9v9"/><text transform="translate(118 449.9)" stroke="none" fill="#000" font-family="Arial" font-size="12" text-anchor="middle"><tspan>10</tspan></text></g><g fill="none" color="#000" stroke="currentColor"><path stroke="#000" d="M173.9 428v-9m0-400.9v9"/><text transform="translate(173.9 449.9)" stroke="none" fill="#000" font-family="Arial" font-size="12" text-anchor="middle"><tspan>20</tspan></text></g><g fill="none" color="#000" stroke="currentColor"><path stroke="#000" d="M229.7 428v-9m0-400.9v9"/><text transform="translate(229.7 449.9)" stroke="none" fill="#000" font-family="Arial" font-size="12" text-anchor="middle"><tspan>30</tspan></text></g><g fill="none" color="#000" stroke="currentColor"><path stroke="#000" d="M285.6 428v-9m0-400.9v9"/><text transform="translate(285.6 449.9)" stroke="none" fill="#000" font-family="Arial" font-size="12" text-anchor="middle"><tspan>40</tspan></text></g><g fill="none" color="#000" stroke="currentColor"><path stroke="#000" d="M341.4 428v-9m0-400.9v9"/><text transform="translate(341.4 449.9)" stroke="none" fill="#000" font-family="Arial" font-size="12" text-anchor="middle"><tspan>50</tspan></text></g><g fill="none" color="#000" stroke="currentColor"><path stroke="#000" d="M397.2 428v-9m0-400.9v9"/><text transform="translate(397.2 449.9)" stroke="none" fill="#000" font-family="Arial" font-size="12" text-anchor="middle"><tspan>60</tspan></text></g><g fill="none" color="#000" stroke="currentColor"><path stroke="#000" d="M453.1 428v-9m0-400.9v9"/><text transform="translate(453.1 449.9)" stroke="none" fill="#000" font-family="Arial" font-size="12" text-anchor="middle"><tspan>70</tspan></text></g><g fill="none" color="#000" stroke="currentColor"><path stroke="#000" d="M508.9 428v-9m0-400.9v9"/><text transform="translate(508.9 449.9)" stroke="none" fill="#000" font-family="Arial" font-size="12" text-anchor="middle"><tspan>80</tspan></text></g><g fill="none" color="#000" stroke="currentColor"><path stroke="#000" d="M564.7 428v-9m0-400.9v9"/><text transform="translate(564.7 449.9)" stroke="none" fill="#000" font-family="Arial" font-size="12" text-anchor="middle"><tspan>90</tspan></text></g><path stroke="#000" d="M62.2 18.1V428H615V18.1H62.2z" fill="none" color="#000"/><text transform="translate(279.8 467.9)" stroke="none" fill="#000" font-family="Arial" font-size="12" text-anchor="end" color="#000"><tspan>pages+cached+noexternal+nosvg</tspan></text><path stroke="#9400D3" d="M288.1 464h42.2M62.2 417.2l5.6.1 5.6-5.7 5.6 2.7 5.5 1.5 5.6 1.8 5.6-9 5.6-.3 5.6 4.4 5.6-1.9 5.5 1 5.6 2.2 5.6-388 5.6 391.5 5.6-8.2 5.6.5 5.5 5.9 5.6.4 5.6-2.6 5.6-372.9 5.6 371 5.6 2.5 5.5-.2 5.6-2.3 5.6 3.7 5.6-2 5.6-2.8 5.6 2.8 5.5 2.4 5.6.6 5.6-4.8 5.6-.8h5.6l5.6 7.4 5.6-6.8 5.5-377.7 5.6 1.4 5.6 375.1 5.6 2.8 5.6.5 5.6-1.4 5.5 2.1 5.6-1.6 5.6-3.9 5.6 1.8 5.6 3.9 5.6 2 5.5-3 5.6-2.4 5.6-4.8 5.6-372.6L347 411l5.6 3.1 5.5-3.6 5.6 1.8 5.6 7.3 5.6-5.9 5.6-7.3 5.6 5.8 5.5 4 5.6-10.7 5.6 10.8 5.6-3.9 5.6 3.4 5.6-.8 5.5-.9 5.6 2.3 5.6-387.9 5.6 386.1 5.6.1 5.6 1.4 5.6 1.6 5.5-5.1 5.6-2.2 5.6 2.3 5.6.5 5.6 5.2 5.6-6.6 5.5-3.2 5.6 6.7 5.6-4.2 5.6 5.6 5.6.9 5.6-1 5.5-3.2 5.6.3 5.6-3.6 5.6 1.6 5.6-.2 5.6.2 5.5 5.8 5.6-1.6 5.6-3.7 5.6 4.4 5.6-8.8 5.6 4.1 5.5 3.8 5.6-1.7 5.6-1.4 5.6-1.2" fill="none" color="#000"/><text transform="translate(279.8 485.9)" stroke="none" fill="#000" font-family="Arial" font-size="12" text-anchor="end" color="#000"><tspan>pages+cached+noexternal+noimg</tspan></text><path stroke="#009E73" d="M288.1 482h42.2M62.2 414.3l5.6 2 5.6-3.2 5.6.8 5.5-373.1 5.6-4.1 5.6-1.9 5.6 383.4 5.6-380.4 5.6.1 5.5-.6 5.6 376.5 5.6-256.7 5.6-119.5 5.6 375.7L146 33.4l5.5 2.5 5.6 124.5 5.6-124.8 5.6-.5 5.6 379.5L179.5 33l5.5 382.5 5.6-379.2 5.6 382.3 5.6-382.7 5.6 123.4L213 41.5l5.5-6.7 5.6 3.8 5.6 1.6 5.6-10.6 5.6 389.7 5.6-262.3 5.6-111.1 5.5 367.5 5.6-382.9 5.6 133 5.6-126.8 5.6-2.1 5.6 379.8 5.5-4.1 5.6 3 5.6-373.8 5.6 125.5 5.6 250.1 5.6-252.1 5.5-125.2h5.6l5.6 374.3 5.6-369L347 416l5.6-257 5.5-126.2 5.6 387.2 5.6-383.2 5.6 3.5 5.6-4.7 5.6 380.4 5.5-254 5.6-124.1 5.6-4.5 5.6 383.9 5.6-2 5.6-381.2 5.5 382.6 5.6-249.8L436.3 41l5.6 373 5.6-381.1 5.6 128.9 5.6-121.6 5.5 378.1 5.6-3.8 5.6-375.7 5.6 381.3 5.6-376 5.6-8.8 5.5 123.6 5.6 258.7 5.6-258.6 5.6-123.1 5.6 379.3 5.6-252 5.5 252.8 5.6 3.8 5.6-388.1 5.6 5.4 5.6 375.3 5.6 2.9L564.7 40l5.6-3.1 5.6 376.2 5.6-379.7 5.6 1.9 5.6-.5 5.5 381.3 5.6-380.3 5.6 132.2L615 36.7" fill="none" color="#000"/><text transform="translate(579.3 467.9)" stroke="none" fill="#000" font-family="Arial" font-size="12" text-anchor="end" color="#000"><tspan>score p10=3572</tspan></text><path stroke="#56B4E9" d="M587.6 464h42.2" fill="none" color="#000"/><g><text transform="translate(579.3 485.9)" stroke="none" fill="#000" font-family="Arial" font-size="12" text-anchor="end" color="#000"><tspan>score median=6500</tspan></text><path stroke="#E69F00" d="M587.6 482h42.2" fill="none" color="#000"/></g><g fill="none" color="#000" stroke="currentColor"><path stroke="#000" d="M62.2 18.1V428H615V18.1H62.2z"/></g></svg>