<svg width="640" height="620" xmlns="http://www.w3.org/2000/svg" xmlns:xlink="http://www.w3.org/1999/xlink"><path fill="#fff" d="M0 0h640v620H0z"/><defs><path id="d" stroke-width=".222" stroke="currentColor" d="M-1-1h2v2h-2z"/><path id="b" stroke-width=".222" stroke="currentColor" d="M0-1.33l-1.33 2h2.66z"/><path id="f" stroke-width=".222" stroke="currentColor" d="M0 1.33L1.265.411.782-1.067l-1.564-.009-.483 1.487z"/><use xlink:href="#b" id="c" stroke="currentColor" transform="rotate(180)"/><use xlink:href="#d" id="e" stroke="currentColor" transform="rotate(45)"/><circle id="a" stroke-width=".222" stroke="currentColor" cx="0" cy="0" r="1"/></defs><g fill="none" color="#000" stroke="currentColor"><path stroke="#000" d="M53.9 325.5h9m552.1 0h-9"/><text transform="translate(45.6 329.4)" stroke="none" fill="#000" font-family="Arial" font-size="12" text-anchor="end"><tspan>0.5</tspan></text></g><g fill="none" color="#000" stroke="currentColor"><path stroke="#000" d="M53.9 265.3h9m552.1 0h-9"/><text transform="translate(45.6 269.2)" stroke="none" fill="#000" font-family="Arial" font-size="12" text-anchor="end"><tspan>0.6</tspan></text></g><g fill="none" color="#000" stroke="currentColor"><path stroke="#000" d="M53.9 205h9m552.1 0h-9"/><text transform="translate(45.6 208.9)" stroke="none" fill="#000" font-family="Arial" font-size="12" text-anchor="end"><tspan>0.7</tspan></text></g><g fill="none" color="#000" stroke="currentColor"><path stroke="#000" d="M53.9 144.7h9m552.1 0h-9"/><text transform="translate(45.6 148.6)" stroke="none" fill="#000" font-family="Arial" font-size="12" text-anchor="end"><tspan>0.8</tspan></text></g><g fill="none" color="#000" stroke="currentColor"><path stroke="#000" d="M53.9 84.4h9m552.1 0h-9"/><text transform="translate(45.6 88.3)" stroke="none" fill="#000" font-family="Arial" font-size="12" text-anchor="end"><tspan>0.9</tspan></text></g><g fill="none" color="#000" stroke="currentColor"><path stroke="#000" d="M53.9 24.1h9m552.1 0h-9"/><text transform="translate(45.6 28)" stroke="none" fill="#000" font-family="Arial" font-size="12" text-anchor="end"><tspan>1</tspan></text></g><g fill="none" color="#000" stroke="currentColor"><path stroke="#000" d="M53.9 332v-9m0-304.9v9"/><text transform="translate(53.9 353.9)" stroke="none" fill="#000" font-family="Arial" font-size="12" text-anchor="middle"><tspan>0</tspan></text></g><g fill="none" color="#000" stroke="currentColor"><path stroke="#000" d="M110.6 332v-9m0-304.9v9"/><text transform="translate(110.6 353.9)" stroke="none" fill="#000" font-family="Arial" font-size="12" text-anchor="middle"><tspan>10</tspan></text></g><g fill="none" color="#000" stroke="currentColor"><path stroke="#000" d="M167.3 332v-9m0-304.9v9"/><text transform="translate(167.3 353.9)" stroke="none" fill="#000" font-family="Arial" font-size="12" text-anchor="middle"><tspan>20</tspan></text></g><g fill="none" color="#000" stroke="currentColor"><path stroke="#000" d="M223.9 332v-9m0-304.9v9"/><text transform="translate(223.9 353.9)" stroke="none" fill="#000" font-family="Arial" font-size="12" text-anchor="middle"><tspan>30</tspan></text></g><g fill="none" color="#000" stroke="currentColor"><path stroke="#000" d="M280.6 332v-9m0-304.9v9"/><text transform="translate(280.6 353.9)" stroke="none" fill="#000" font-family="Arial" font-size="12" text-anchor="middle"><tspan>40</tspan></text></g><g fill="none" color="#000" stroke="currentColor"><path stroke="#000" d="M337.3 332v-9m0-304.9v9"/><text transform="translate(337.3 353.9)" stroke="none" fill="#000" font-family="Arial" font-size="12" text-anchor="middle"><tspan>50</tspan></text></g><g fill="none" color="#000" stroke="currentColor"><path stroke="#000" d="M394 332v-9m0-304.9v9"/><text transform="translate(394 353.9)" stroke="none" fill="#000" font-family="Arial" font-size="12" text-anchor="middle"><tspan>60</tspan></text></g><g fill="none" color="#000" stroke="currentColor"><path stroke="#000" d="M450.6 332v-9m0-304.9v9"/><text transform="translate(450.6 353.9)" stroke="none" fill="#000" font-family="Arial" font-size="12" text-anchor="middle"><tspan>70</tspan></text></g><g fill="none" color="#000" stroke="currentColor"><path stroke="#000" d="M507.3 332v-9m0-304.9v9"/><text transform="translate(507.3 353.9)" stroke="none" fill="#000" font-family="Arial" font-size="12" text-anchor="middle"><tspan>80</tspan></text></g><g fill="none" color="#000" stroke="currentColor"><path stroke="#000" d="M564 332v-9m0-304.9v9"/><text transform="translate(564 353.9)" stroke="none" fill="#000" font-family="Arial" font-size="12" text-anchor="middle"><tspan>90</tspan></text></g><path stroke="#000" d="M53.9 18.1V332H615V18.1H53.9z" fill="none" color="#000"/><text transform="translate(529.1 371.9)" stroke="none" fill="#000" font-family="Arial" font-size="12" text-anchor="end" color="#000"><tspan>empty</tspan></text><path stroke="#9400D3" d="M537.4 368h42.2M53.9 24.1H615" fill="none" color="#000"/><text transform="translate(529.1 389.9)" stroke="none" fill="#000" font-family="Arial" font-size="12" text-anchor="end" color="#000"><tspan>pages</tspan></text><path stroke="#009E73" d="M537.4 386h42.2M53.9 302.4h11.3l5.7-.3h5.7l5.6-.3H127.6l5.6-.4h79.4l5.7-.3H377l5.6-.3H507.3l5.7-.4h5.6l5.7-50.5 5.7-1.4h5.7l5.6-.7 5.7-.3 5.7-1.7 5.6-19.1 5.7-4 5.7-23.8 5.6-1.3L581 101l5.7-76.9H615" fill="none" color="#000"/><text transform="translate(529.1 407.9)" stroke="none" fill="#000" font-family="Arial" font-size="12" text-anchor="end" color="#000"><tspan>pages+cached</tspan></text><path stroke="#56B4E9" d="M537.4 404h42.2M53.9 278.3l5.7-.7H133.2l5.7-.3H530l5.7-.3H609.3L615 24.1" fill="none" color="#000"/><text transform="translate(529.1 425.9)" stroke="none" fill="#000" font-family="Arial" font-size="12" text-anchor="end" color="#000"><tspan>pages+cached+nointeractive</tspan></text><path stroke="#E69F00" d="M537.4 422h42.2M53.9 277.6l5.7-.3H388.3l5.7-.3H603.7l5.6-.4h5.7" fill="none" color="#000"/><text transform="translate(529.1 443.9)" stroke="none" fill="#000" font-family="Arial" font-size="12" text-anchor="end" color="#000"><tspan>pages+cached+noadtech</tspan></text><path stroke="#F0E442" d="M537.4 440h42.2M53.9 277.3l5.7-.3h11.3l5.7-49.9H138.9l5.7-.4H507.3l5.7-.3H615" fill="none" color="#000"/><text transform="translate(529.1 461.9)" stroke="none" fill="#000" font-family="Arial" font-size="12" text-anchor="end" color="#000"><tspan>pages+cached+noexternal</tspan></text><path stroke="#0072B2" d="M537.4 458h42.2M53.9 277.3l5.7-.3 5.6-49.9h22.7l5.7-.4H513l5.6-.3H615" fill="none" color="#000"/><text transform="translate(529.1 479.9)" stroke="none" fill="#000" font-family="Arial" font-size="12" text-anchor="end" color="#000"><tspan>pages+cached+noexternal+nofonts</tspan></text><path stroke="#E51E10" d="M537.4 476h42.2M53.9 277l5.7-.4 5.6-.3 5.7-1H615" fill="none" color="#000"/><g><text transform="translate(529.1 497.9)" stroke="none" fill="#000" font-family="Arial" font-size="12" text-anchor="end" color="#000"><tspan>pages+cached+noexternal+nosvg</tspan></text><path stroke="#000" d="M537.4 494h42.2M53.9 277l5.7-49.9h22.6l5.7-.4H416.6l5.7-.3H615" fill="none" color="#000"/></g><g><text transform="translate(529.1 515.9)" stroke="none" fill="#000" font-family="Arial" font-size="12" text-anchor="end" color="#000"><tspan>pages+cached+noexternal+noimg</tspan></text><path stroke="#9400D3" d="M537.4 512h42.2M53.9 277h5.7l5.6-.4h5.7l5.7-49.9H235.3l5.6-.3H592.3l5.7-.3h17" fill="none" color="#000"/></g><g><text transform="translate(529.1 533.9)" stroke="none" fill="#000" font-family="Arial" font-size="12" text-anchor="end" color="#000"><tspan>pages+cached+noexternal+nocss</tspan></text><path stroke="#009E73" d="M537.4 530h42.2M53.9 326h17l5.7-.1H405.3l5.7-.1H615" fill="none" color="#000"/></g><g><text transform="translate(529.1 551.9)" stroke="none" fill="#000" font-family="Arial" font-size="12" text-anchor="end" color="#000"><tspan>pages+cached+noexternal+nojs</tspan></text><path stroke="#56B4E9" d="M537.4 548h42.2M53.9 24.1H615" fill="none" color="#000"/></g><g><text transform="translate(529.1 569.9)" stroke="none" fill="#000" font-family="Arial" font-size="12" text-anchor="end" color="#000"><tspan>pages+cached+noexternal+nofonts+nosvg+noimg</tspan></text><path stroke="#E69F00" d="M537.4 566h42.2M53.9 226.4H167.3l5.6-.3H592.3l5.7-.4h17" fill="none" color="#000"/></g><g><text transform="translate(529.1 587.9)" stroke="none" fill="#000" font-family="Arial" font-size="12" text-anchor="end" color="#000"><tspan>pages+cached+noexternal+nofonts+nosvg+noimg+nocss</tspan></text><path stroke="#F0E442" d="M537.4 584h42.2M53.9 278h5.7l5.6-.4h22.7l5.7-.3H382.6l5.7-.3H615" fill="none" color="#000"/></g><g><text transform="translate(529.1 605.9)" stroke="none" fill="#000" font-family="Arial" font-size="12" text-anchor="end" color="#000"><tspan>pages+cached+noexternal+nofonts+nosvg+noimg+nocss+nojs</tspan></text><path stroke="#0072B2" d="M537.4 602h42.2M53.9 24.1H615" fill="none" color="#000"/></g><g fill="none" color="#000" stroke="currentColor"><path stroke="#000" d="M53.9 18.1V332H615V18.1H53.9z"/></g></svg>