<svg width="640" height="490" xmlns="http://www.w3.org/2000/svg" xmlns:xlink="http://www.w3.org/1999/xlink"><path fill="#fff" d="M0 0h640v490H0z"/><defs><path id="d" stroke-width=".222" stroke="currentColor" d="M-1-1h2v2h-2z"/><path id="b" stroke-width=".222" stroke="currentColor" d="M0-1.33l-1.33 2h2.66z"/><path id="f" stroke-width=".222" stroke="currentColor" d="M0 1.33L1.265.411.782-1.067l-1.564-.009-.483 1.487z"/><use xlink:href="#b" id="c" stroke="currentColor" transform="rotate(180)"/><use xlink:href="#d" id="e" stroke="currentColor" transform="rotate(45)"/><circle id="a" stroke-width=".222" stroke="currentColor" cx="0" cy="0" r="1"/></defs><g fill="none" color="#000" stroke="currentColor"><path stroke="#000" d="M87.1 436h9m518.9 0h-9"/><text transform="translate(78.8 439.9)" stroke="none" fill="#000" font-family="Arial" font-size="12" text-anchor="end"><tspan>149.999</tspan></text></g><g fill="none" color="#000" stroke="currentColor"><path stroke="#000" d="M87.1 331.5h9m518.9 0h-9"/><text transform="translate(78.8 335.4)" stroke="none" fill="#000" font-family="Arial" font-size="12" text-anchor="end"><tspan>149.999</tspan></text></g><g fill="none" color="#000" stroke="currentColor"><path stroke="#000" d="M87.1 227.1h9m518.9 0h-9"/><text transform="translate(78.8 231)" stroke="none" fill="#000" font-family="Arial" font-size="12" text-anchor="end"><tspan>150</tspan></text></g><g fill="none" color="#000" stroke="currentColor"><path stroke="#000" d="M87.1 122.6h9m518.9 0h-9"/><text transform="translate(78.8 126.5)" stroke="none" fill="#000" font-family="Arial" font-size="12" text-anchor="end"><tspan>150</tspan></text></g><g fill="none" color="#000" stroke="currentColor"><path stroke="#000" d="M87.1 18.1h9m518.9 0h-9"/><text transform="translate(78.8 22)" stroke="none" fill="#000" font-family="Arial" font-size="12" text-anchor="end"><tspan>150.001</tspan></text></g><g fill="none" color="#000" stroke="currentColor"><path stroke="#000" d="M87.1 436v-9m0-408.9v9"/><text transform="translate(87.1 457.9)" stroke="none" fill="#000" font-family="Arial" font-size="12" text-anchor="middle"><tspan>0</tspan></text></g><g fill="none" color="#000" stroke="currentColor"><path stroke="#000" d="M140.4 436v-9m0-408.9v9"/><text transform="translate(140.4 457.9)" stroke="none" fill="#000" font-family="Arial" font-size="12" text-anchor="middle"><tspan>10</tspan></text></g><g fill="none" color="#000" stroke="currentColor"><path stroke="#000" d="M193.7 436v-9m0-408.9v9"/><text transform="translate(193.7 457.9)" stroke="none" fill="#000" font-family="Arial" font-size="12" text-anchor="middle"><tspan>20</tspan></text></g><g fill="none" color="#000" stroke="currentColor"><path stroke="#000" d="M247.1 436v-9m0-408.9v9"/><text transform="translate(247.1 457.9)" stroke="none" fill="#000" font-family="Arial" font-size="12" text-anchor="middle"><tspan>30</tspan></text></g><g fill="none" color="#000" stroke="currentColor"><path stroke="#000" d="M300.4 436v-9m0-408.9v9"/><text transform="translate(300.4 457.9)" stroke="none" fill="#000" font-family="Arial" font-size="12" text-anchor="middle"><tspan>40</tspan></text></g><g fill="none" color="#000" stroke="currentColor"><path stroke="#000" d="M353.7 436v-9m0-408.9v9"/><text transform="translate(353.7 457.9)" stroke="none" fill="#000" font-family="Arial" font-size="12" text-anchor="middle"><tspan>50</tspan></text></g><g fill="none" color="#000" stroke="currentColor"><path stroke="#000" d="M407 436v-9m0-408.9v9"/><text transform="translate(407 457.9)" stroke="none" fill="#000" font-family="Arial" font-size="12" text-anchor="middle"><tspan>60</tspan></text></g><g fill="none" color="#000" stroke="currentColor"><path stroke="#000" d="M460.4 436v-9m0-408.9v9"/><text transform="translate(460.4 457.9)" stroke="none" fill="#000" font-family="Arial" font-size="12" text-anchor="middle"><tspan>70</tspan></text></g><g fill="none" color="#000" stroke="currentColor"><path stroke="#000" d="M513.7 436v-9m0-408.9v9"/><text transform="translate(513.7 457.9)" stroke="none" fill="#000" font-family="Arial" font-size="12" text-anchor="middle"><tspan>80</tspan></text></g><g fill="none" color="#000" stroke="currentColor"><path stroke="#000" d="M567 436v-9m0-408.9v9"/><text transform="translate(567 457.9)" stroke="none" fill="#000" font-family="Arial" font-size="12" text-anchor="middle"><tspan>90</tspan></text></g><path stroke="#000" d="M87.1 18.1V436H615V18.1H87.1z" fill="none" color="#000"/><text transform="translate(334.1 475.9)" stroke="none" fill="#000" font-family="Arial" font-size="12" text-anchor="end" color="#000"><tspan>raw</tspan></text><path stroke="#9400D3" d="M342.4 472h42.2M87.1 227H615" fill="none" color="#000"/><g fill="none" color="#000" stroke="currentColor"><path stroke="#000" d="M87.1 18.1V436H615V18.1H87.1z"/></g></svg>