<svg width="640" height="500" xmlns="http://www.w3.org/2000/svg" xmlns:xlink="http://www.w3.org/1999/xlink"><path fill="#fff" d="M0 0h640v500H0z"/><defs><path id="d" stroke-width=".222" stroke="currentColor" d="M-1-1h2v2h-2z"/><path id="b" stroke-width=".222" stroke="currentColor" d="M0-1.33l-1.33 2h2.66z"/><path id="f" stroke-width=".222" stroke="currentColor" d="M0 1.33L1.265.411.782-1.067l-1.564-.009-.483 1.487z"/><use xlink:href="#b" id="c" stroke="currentColor" transform="rotate(180)"/><use xlink:href="#d" id="e" stroke="currentColor" transform="rotate(45)"/><circle id="a" stroke-width=".222" stroke="currentColor" cx="0" cy="0" r="1"/></defs><g fill="none" color="#000" stroke="currentColor"><path stroke="#000" d="M70.5 423.1h9m535.5 0h-9"/><text transform="translate(62.2 427)" stroke="none" fill="#000" font-family="Arial" font-size="12" text-anchor="end"><tspan>11000</tspan></text></g><g fill="none" color="#000" stroke="currentColor"><path stroke="#000" d="M70.5 376.6h9m535.5 0h-9"/><text transform="translate(62.2 380.5)" stroke="none" fill="#000" font-family="Arial" font-size="12" text-anchor="end"><tspan>11200</tspan></text></g><g fill="none" color="#000" stroke="currentColor"><path stroke="#000" d="M70.5 330.1h9m535.5 0h-9"/><text transform="translate(62.2 334)" stroke="none" fill="#000" font-family="Arial" font-size="12" text-anchor="end"><tspan>11400</tspan></text></g><g fill="none" color="#000" stroke="currentColor"><path stroke="#000" d="M70.5 283.6h9m535.5 0h-9"/><text transform="translate(62.2 287.5)" stroke="none" fill="#000" font-family="Arial" font-size="12" text-anchor="end"><tspan>11600</tspan></text></g><g fill="none" color="#000" stroke="currentColor"><path stroke="#000" d="M70.5 237.1h9m535.5 0h-9"/><text transform="translate(62.2 241)" stroke="none" fill="#000" font-family="Arial" font-size="12" text-anchor="end"><tspan>11800</tspan></text></g><g fill="none" color="#000" stroke="currentColor"><path stroke="#000" d="M70.5 190.5h9m535.5 0h-9"/><text transform="translate(62.2 194.4)" stroke="none" fill="#000" font-family="Arial" font-size="12" text-anchor="end"><tspan>12000</tspan></text></g><g fill="none" color="#000" stroke="currentColor"><path stroke="#000" d="M70.5 144h9m535.5 0h-9"/><text transform="translate(62.2 147.9)" stroke="none" fill="#000" font-family="Arial" font-size="12" text-anchor="end"><tspan>12200</tspan></text></g><g fill="none" color="#000" stroke="currentColor"><path stroke="#000" d="M70.5 97.5h9m535.5 0h-9"/><text transform="translate(62.2 101.4)" stroke="none" fill="#000" font-family="Arial" font-size="12" text-anchor="end"><tspan>12400</tspan></text></g><g fill="none" color="#000" stroke="currentColor"><path stroke="#000" d="M70.5 51h9M615 51h-9"/><text transform="translate(62.2 54.9)" stroke="none" fill="#000" font-family="Arial" font-size="12" text-anchor="end"><tspan>12600</tspan></text></g><g fill="none" color="#000" stroke="currentColor"><path stroke="#000" d="M70.5 446v-9m0-418.9v9"/><text transform="translate(70.5 467.9)" stroke="none" fill="#000" font-family="Arial" font-size="12" text-anchor="middle"><tspan>0</tspan></text></g><g fill="none" color="#000" stroke="currentColor"><path stroke="#000" d="M125.5 446v-9m0-418.9v9"/><text transform="translate(125.5 467.9)" stroke="none" fill="#000" font-family="Arial" font-size="12" text-anchor="middle"><tspan>10</tspan></text></g><g fill="none" color="#000" stroke="currentColor"><path stroke="#000" d="M180.5 446v-9m0-418.9v9"/><text transform="translate(180.5 467.9)" stroke="none" fill="#000" font-family="Arial" font-size="12" text-anchor="middle"><tspan>20</tspan></text></g><g fill="none" color="#000" stroke="currentColor"><path stroke="#000" d="M235.5 446v-9m0-418.9v9"/><text transform="translate(235.5 467.9)" stroke="none" fill="#000" font-family="Arial" font-size="12" text-anchor="middle"><tspan>30</tspan></text></g><g fill="none" color="#000" stroke="currentColor"><path stroke="#000" d="M290.5 446v-9m0-418.9v9"/><text transform="translate(290.5 467.9)" stroke="none" fill="#000" font-family="Arial" font-size="12" text-anchor="middle"><tspan>40</tspan></text></g><g fill="none" color="#000" stroke="currentColor"><path stroke="#000" d="M345.5 446v-9m0-418.9v9"/><text transform="translate(345.5 467.9)" stroke="none" fill="#000" font-family="Arial" font-size="12" text-anchor="middle"><tspan>50</tspan></text></g><g fill="none" color="#000" stroke="currentColor"><path stroke="#000" d="M400.5 446v-9m0-418.9v9"/><text transform="translate(400.5 467.9)" stroke="none" fill="#000" font-family="Arial" font-size="12" text-anchor="middle"><tspan>60</tspan></text></g><g fill="none" color="#000" stroke="currentColor"><path stroke="#000" d="M455.5 446v-9m0-418.9v9"/><text transform="translate(455.5 467.9)" stroke="none" fill="#000" font-family="Arial" font-size="12" text-anchor="middle"><tspan>70</tspan></text></g><g fill="none" color="#000" stroke="currentColor"><path stroke="#000" d="M510.5 446v-9m0-418.9v9"/><text transform="translate(510.5 467.9)" stroke="none" fill="#000" font-family="Arial" font-size="12" text-anchor="middle"><tspan>80</tspan></text></g><g fill="none" color="#000" stroke="currentColor"><path stroke="#000" d="M565.5 446v-9m0-418.9v9"/><text transform="translate(565.5 467.9)" stroke="none" fill="#000" font-family="Arial" font-size="12" text-anchor="middle"><tspan>90</tspan></text></g><path stroke="#000" d="M70.5 18.1V446H615V18.1H70.5z" fill="none" color="#000"/><text transform="translate(283.9 485.9)" stroke="none" fill="#000" font-family="Arial" font-size="12" text-anchor="end" color="#000"><tspan>pages</tspan></text><path stroke="#9400D3" d="M292.2 482h42.2M70.5 332.2l5.5-27.9 5.5-.3 5.5-.7 5.5-6.7 5.5-5.4 5.5-.7 5.5-.4 5.5-.3 5.5-.7 5.5-.9h5.5l5.5-.2 5.5-.2 5.5-.3 5.5-.4 5.5-.3 5.5-.7 5.5-1.1 5.5-.3 5.5-3.2 5.5-7.2 5.5-.7 5.5-.5h5.5l5.5-.2 5.5-.5 5.5-.2 5.5-.3 5.5-.2h5.5l5.5-.2h5.5l5.5-.3h5.5l5.5-.4 5.5-.5 5.5-.2 5.5-.3h5.5l5.5-.2h11l5.5-.2 5.5-.3 5.5-.4 5.5-.3h5.5l5.5-.2 5.5-.2h5.5l5.5-.2 5.5-.3 5.5-.2h11l5.5-.2 5.5-.5 5.5-.2 5.5-.3 5.5-.2h5.5l5.5-1.2 5.5-3.7h5.5l5.5-.9 5.5-2.1 5.5-1.2 5.5-.9h5.5l5.5-1.2 5.5-.7 5.5-.7 5.5-.2 5.5-.2 5.5-.3 5.5-.4 5.5-.7 5.5-.7 5.5-.5h16.5l5.5-.5 5.5-.2 5.5-1.4h5.5l5.5-3.2 5.5-.7 5.5-1.2 5.5-.7 5.5-3 5.5-2.6 5.5-.7 5.5-6 5.5-5.1 5.5-2.4 5.5-1.1 5.5-52.4L615 26.3" fill="none" color="#000"/><text transform="translate(442.3 485.9)" stroke="none" fill="#000" font-family="Arial" font-size="12" text-anchor="end" color="#000"><tspan>pages+cached</tspan></text><path stroke="#009E73" d="M450.6 482h42.2M70.5 437.8l5.5-1h16.5l5.5-.2h5.5l5.5-.2 5.5-.3 5.5-.4h38.5l5.5-.3h16.5l5.5-.2h11l5.5-.2h5.5l5.5-.3h33l5.5-.2h5.5l5.5-.2 5.5-.3H285l5.5-.2 5.5-.2h5.5l5.5-.2 5.5-.3h11l5.5-.4h5.5l5.5-.7h11l5.5-.3 5.5-.2h5.5l5.5-.2h5.5l5.5-.5h16.5l5.5-.2h11l5.5-.3h5.5l5.5-.2 5.5-.2 5.5-.3h11l5.5-.2h5.5l5.5-.2h5.5l5.5-.3h22l5.5-.2h5.5l5.5-.2h11l5.5-.3 5.5-.2h11l5.5-.5h11l5.5-.7 5.5-1.4 5.5-2.3 5.5-.4h5.5l5.5-3.8 5.5-1.8 5.5-110" fill="none" color="#000"/><g fill="none" color="#000" stroke="currentColor"><path stroke="#000" d="M70.5 18.1V446H615V18.1H70.5z"/></g></svg>